G04 #@! TF.GenerationSoftware,KiCad,Pcbnew,(5.1.4-0)*
G04 #@! TF.CreationDate,2019-12-21T12:26:41+09:00*
G04 #@! TF.ProjectId,KZ80-PS2KBD,4b5a3830-2d50-4533-924b-42442e6b6963,rev?*
G04 #@! TF.SameCoordinates,Original*
G04 #@! TF.FileFunction,Copper,L1,Top*
G04 #@! TF.FilePolarity,Positive*
%FSLAX46Y46*%
G04 Gerber Fmt 4.6, Leading zero omitted, Abs format (unit mm)*
G04 Created by KiCad (PCBNEW (5.1.4-0)) date 2019-12-21 12:26:41*
%MOMM*%
%LPD*%
G04 APERTURE LIST*
%ADD10R,1.600000X1.600000*%
%ADD11C,1.600000*%
%ADD12R,1.700000X1.700000*%
%ADD13O,1.700000X1.700000*%
%ADD14O,1.600000X1.600000*%
%ADD15C,1.524000*%
%ADD16R,1.200000X2.800000*%
%ADD17R,2.800000X1.200000*%
%ADD18C,0.800000*%
%ADD19C,0.600000*%
%ADD20C,0.250000*%
%ADD21C,0.254000*%
G04 APERTURE END LIST*
D10*
X74500000Y-61250000D03*
D11*
X74500000Y-58750000D03*
X149750000Y-91000000D03*
X147250000Y-91000000D03*
X147500000Y-65000000D03*
X150000000Y-65000000D03*
X97250000Y-86000000D03*
X97250000Y-83500000D03*
X77500000Y-84250000D03*
X80000000Y-84250000D03*
D12*
X126250000Y-85000000D03*
D13*
X128790000Y-85000000D03*
X131330000Y-85000000D03*
D12*
X136500000Y-116000000D03*
D13*
X133960000Y-116000000D03*
X131420000Y-116000000D03*
X128880000Y-116000000D03*
X126340000Y-116000000D03*
X123800000Y-116000000D03*
D12*
X114500000Y-71500000D03*
D13*
X117040000Y-71500000D03*
X114500000Y-74040000D03*
X117040000Y-74040000D03*
X114500000Y-76580000D03*
X117040000Y-76580000D03*
X126290000Y-78620000D03*
X123750000Y-78620000D03*
X126290000Y-76080000D03*
X123750000Y-76080000D03*
X126290000Y-73540000D03*
X123750000Y-73540000D03*
X126290000Y-71000000D03*
D12*
X123750000Y-71000000D03*
X132250000Y-71000000D03*
D13*
X134790000Y-71000000D03*
X132250000Y-73540000D03*
X134790000Y-73540000D03*
X132250000Y-76080000D03*
X134790000Y-76080000D03*
X132250000Y-78620000D03*
X134790000Y-78620000D03*
D12*
X66750000Y-80000000D03*
D13*
X64210000Y-80000000D03*
X66750000Y-77460000D03*
X64210000Y-77460000D03*
X66750000Y-74920000D03*
X64210000Y-74920000D03*
X66750000Y-72380000D03*
X64210000Y-72380000D03*
X66750000Y-69840000D03*
X64210000Y-69840000D03*
X66750000Y-67300000D03*
X64210000Y-67300000D03*
X66750000Y-64760000D03*
X64210000Y-64760000D03*
D12*
X86250000Y-62000000D03*
D13*
X86250000Y-59460000D03*
X88790000Y-62000000D03*
X88790000Y-59460000D03*
X91330000Y-62000000D03*
X91330000Y-59460000D03*
X93870000Y-62000000D03*
X93870000Y-59460000D03*
X96410000Y-62000000D03*
X96410000Y-59460000D03*
X98950000Y-62000000D03*
X98950000Y-59460000D03*
X101490000Y-62000000D03*
X101490000Y-59460000D03*
X104030000Y-62000000D03*
X104030000Y-59460000D03*
X106570000Y-62000000D03*
X106570000Y-59460000D03*
X109110000Y-62000000D03*
X109110000Y-59460000D03*
X111650000Y-62000000D03*
X111650000Y-59460000D03*
X114190000Y-62000000D03*
X114190000Y-59460000D03*
X116730000Y-62000000D03*
X116730000Y-59460000D03*
X119270000Y-62000000D03*
X119270000Y-59460000D03*
X121810000Y-62000000D03*
X121810000Y-59460000D03*
X124350000Y-62000000D03*
X124350000Y-59460000D03*
X126890000Y-62000000D03*
X126890000Y-59460000D03*
X129430000Y-62000000D03*
X129430000Y-59460000D03*
X131970000Y-62000000D03*
X131970000Y-59460000D03*
X134510000Y-62000000D03*
X134510000Y-59460000D03*
D10*
X141750000Y-94250000D03*
D14*
X149370000Y-109490000D03*
X141750000Y-96790000D03*
X149370000Y-106950000D03*
X141750000Y-99330000D03*
X149370000Y-104410000D03*
X141750000Y-101870000D03*
X149370000Y-101870000D03*
X141750000Y-104410000D03*
X149370000Y-99330000D03*
X141750000Y-106950000D03*
X149370000Y-96790000D03*
X141750000Y-109490000D03*
X149370000Y-94250000D03*
D10*
X141750000Y-68000000D03*
D14*
X149370000Y-85780000D03*
X141750000Y-70540000D03*
X149370000Y-83240000D03*
X141750000Y-73080000D03*
X149370000Y-80700000D03*
X141750000Y-75620000D03*
X149370000Y-78160000D03*
X141750000Y-78160000D03*
X149370000Y-75620000D03*
X141750000Y-80700000D03*
X149370000Y-73080000D03*
X141750000Y-83240000D03*
X149370000Y-70540000D03*
X141750000Y-85780000D03*
X149370000Y-68000000D03*
D10*
X101250000Y-68250000D03*
D14*
X108870000Y-101270000D03*
X101250000Y-70790000D03*
X108870000Y-98730000D03*
X101250000Y-73330000D03*
X108870000Y-96190000D03*
X101250000Y-75870000D03*
X108870000Y-93650000D03*
X101250000Y-78410000D03*
X108870000Y-91110000D03*
X101250000Y-80950000D03*
X108870000Y-88570000D03*
X101250000Y-83490000D03*
X108870000Y-86030000D03*
X101250000Y-86030000D03*
X108870000Y-83490000D03*
X101250000Y-88570000D03*
X108870000Y-80950000D03*
X101250000Y-91110000D03*
X108870000Y-78410000D03*
X101250000Y-93650000D03*
X108870000Y-75870000D03*
X101250000Y-96190000D03*
X108870000Y-73330000D03*
X101250000Y-98730000D03*
X108870000Y-70790000D03*
X101250000Y-101270000D03*
X108870000Y-68250000D03*
D10*
X72250000Y-68500000D03*
D14*
X87490000Y-116760000D03*
X72250000Y-71040000D03*
X87490000Y-114220000D03*
X72250000Y-73580000D03*
X87490000Y-111680000D03*
X72250000Y-76120000D03*
X87490000Y-109140000D03*
X72250000Y-78660000D03*
X87490000Y-106600000D03*
X72250000Y-81200000D03*
X87490000Y-104060000D03*
X72250000Y-83740000D03*
X87490000Y-101520000D03*
X72250000Y-86280000D03*
X87490000Y-98980000D03*
X72250000Y-88820000D03*
X87490000Y-96440000D03*
X72250000Y-91360000D03*
X87490000Y-93900000D03*
X72250000Y-93900000D03*
X87490000Y-91360000D03*
X72250000Y-96440000D03*
X87490000Y-88820000D03*
X72250000Y-98980000D03*
X87490000Y-86280000D03*
X72250000Y-101520000D03*
X87490000Y-83740000D03*
X72250000Y-104060000D03*
X87490000Y-81200000D03*
X72250000Y-106600000D03*
X87490000Y-78660000D03*
X72250000Y-109140000D03*
X87490000Y-76120000D03*
X72250000Y-111680000D03*
X87490000Y-73580000D03*
X72250000Y-114220000D03*
X87490000Y-71040000D03*
X72250000Y-116760000D03*
X87490000Y-68500000D03*
D10*
X93250000Y-116250000D03*
D14*
X93250000Y-113710000D03*
X93250000Y-111170000D03*
X93250000Y-108630000D03*
X93250000Y-106090000D03*
X93250000Y-103550000D03*
X93250000Y-101010000D03*
X93250000Y-98470000D03*
X93250000Y-95930000D03*
D11*
X114750000Y-94750000D03*
D14*
X114750000Y-84590000D03*
D15*
X108300000Y-118500000D03*
X105700000Y-118500000D03*
X110400000Y-118500000D03*
X103600000Y-118500000D03*
X110400000Y-116000000D03*
X103600000Y-116000000D03*
D16*
X100250000Y-121500000D03*
X113750000Y-121500000D03*
D17*
X107000000Y-122300000D03*
D18*
X89308000Y-74850000D03*
D19*
X101250000Y-86030000D02*
X97280000Y-86030000D01*
X97280000Y-86030000D02*
X97250000Y-86000000D01*
X107569700Y-83490000D02*
X105029700Y-86030000D01*
X105029700Y-86030000D02*
X101250000Y-86030000D01*
X150000000Y-65000000D02*
X142640500Y-57640500D01*
X142640500Y-57640500D02*
X90609500Y-57640500D01*
X90609500Y-57640500D02*
X88790000Y-59460000D01*
X117040000Y-76580000D02*
X117040000Y-77930300D01*
X108870000Y-83490000D02*
X110170300Y-83490000D01*
X110170300Y-83490000D02*
X115730000Y-77930300D01*
X115730000Y-77930300D02*
X117040000Y-77930300D01*
X108236500Y-83490000D02*
X108870000Y-83490000D01*
X108236500Y-83490000D02*
X107569700Y-83490000D01*
X141750000Y-85780000D02*
X144530000Y-85780000D01*
X144530000Y-85780000D02*
X149750000Y-91000000D01*
X114750000Y-107150100D02*
X117089900Y-109490000D01*
X117089900Y-109490000D02*
X140449700Y-109490000D01*
X114750000Y-94750000D02*
X114750000Y-107150100D01*
X114750000Y-107150100D02*
X103720300Y-118179800D01*
X103720300Y-118179800D02*
X103600000Y-118179800D01*
X103600000Y-118179800D02*
X96480100Y-118179800D01*
X96480100Y-118179800D02*
X94550300Y-116250000D01*
X103600000Y-118179800D02*
X103600000Y-118500000D01*
X93250000Y-116250000D02*
X94550300Y-116250000D01*
X141750000Y-109490000D02*
X140449700Y-109490000D01*
X87490000Y-104060000D02*
X80000000Y-96570000D01*
X80000000Y-96570000D02*
X80000000Y-84250000D01*
X88790000Y-62000000D02*
X86250000Y-62000000D01*
X66750000Y-64760000D02*
X68100300Y-64760000D01*
X68100300Y-64760000D02*
X71610300Y-61250000D01*
X71610300Y-61250000D02*
X74500000Y-61250000D01*
D20*
X111650000Y-62000000D02*
X111650000Y-63175300D01*
X111650000Y-63175300D02*
X122163400Y-73688700D01*
X122163400Y-73688700D02*
X122163400Y-76160300D01*
X122163400Y-76160300D02*
X123353100Y-77350000D01*
X123353100Y-77350000D02*
X127890900Y-77350000D01*
X127890900Y-77350000D02*
X147330900Y-96790000D01*
X147330900Y-96790000D02*
X149370000Y-96790000D01*
X149370000Y-96790000D02*
X149370000Y-98204700D01*
X149370000Y-99330000D02*
X149370000Y-98204700D01*
X72250000Y-111680000D02*
X73375300Y-111680000D01*
X93250000Y-113710000D02*
X92124700Y-113710000D01*
X92124700Y-113710000D02*
X91220000Y-112805300D01*
X91220000Y-112805300D02*
X74500600Y-112805300D01*
X74500600Y-112805300D02*
X73375300Y-111680000D01*
X94404700Y-111170000D02*
X97844700Y-111170000D01*
X97844700Y-111170000D02*
X107744700Y-101270000D01*
X93250000Y-111170000D02*
X94404700Y-111170000D01*
X73375300Y-114220000D02*
X74503900Y-115348600D01*
X74503900Y-115348600D02*
X88391400Y-115348600D01*
X88391400Y-115348600D02*
X88827400Y-114912600D01*
X88827400Y-114912600D02*
X93673700Y-114912600D01*
X93673700Y-114912600D02*
X94404700Y-114181600D01*
X94404700Y-114181600D02*
X94404700Y-111170000D01*
X72250000Y-114220000D02*
X73375300Y-114220000D01*
X108870000Y-101270000D02*
X107744700Y-101270000D01*
X107744700Y-98730000D02*
X97844700Y-108630000D01*
X97844700Y-108630000D02*
X93250000Y-108630000D01*
X72250000Y-116760000D02*
X72250000Y-115634700D01*
X93250000Y-108630000D02*
X92124700Y-108630000D01*
X92124700Y-108630000D02*
X90344700Y-110410000D01*
X90344700Y-110410000D02*
X71889100Y-110410000D01*
X71889100Y-110410000D02*
X71124700Y-111174400D01*
X71124700Y-111174400D02*
X71124700Y-114790800D01*
X71124700Y-114790800D02*
X71968600Y-115634700D01*
X71968600Y-115634700D02*
X72250000Y-115634700D01*
X108870000Y-98730000D02*
X107744700Y-98730000D01*
X108870000Y-96190000D02*
X107744700Y-96190000D01*
X93250000Y-106090000D02*
X98126000Y-106090000D01*
X98126000Y-106090000D02*
X107744700Y-96471300D01*
X107744700Y-96471300D02*
X107744700Y-96190000D01*
X117040000Y-74040000D02*
X117040000Y-75215300D01*
X108870000Y-96190000D02*
X108870000Y-95064700D01*
X108870000Y-95064700D02*
X109151400Y-95064700D01*
X109151400Y-95064700D02*
X109995300Y-94220800D01*
X109995300Y-94220800D02*
X109995300Y-86543100D01*
X109995300Y-86543100D02*
X118215300Y-78323100D01*
X118215300Y-78323100D02*
X118215300Y-76023200D01*
X118215300Y-76023200D02*
X117407400Y-75215300D01*
X117407400Y-75215300D02*
X117040000Y-75215300D01*
X108870000Y-93650000D02*
X107744700Y-93650000D01*
X93250000Y-103550000D02*
X94375300Y-103550000D01*
X94375300Y-103550000D02*
X100465300Y-97460000D01*
X100465300Y-97460000D02*
X103934700Y-97460000D01*
X103934700Y-97460000D02*
X107744700Y-93650000D01*
X108870000Y-91110000D02*
X107744700Y-91110000D01*
X93250000Y-101010000D02*
X94375300Y-101010000D01*
X94375300Y-101010000D02*
X100465300Y-94920000D01*
X100465300Y-94920000D02*
X103934700Y-94920000D01*
X103934700Y-94920000D02*
X107744700Y-91110000D01*
X93250000Y-95930000D02*
X94375300Y-95930000D01*
X94375300Y-95930000D02*
X99195300Y-91110000D01*
X99195300Y-91110000D02*
X101250000Y-91110000D01*
X89308000Y-74850000D02*
X82112800Y-74850000D01*
X82112800Y-74850000D02*
X78302800Y-78660000D01*
X78302800Y-78660000D02*
X73375300Y-78660000D01*
X72250000Y-78660000D02*
X73375300Y-78660000D01*
X104030000Y-60635300D02*
X103662600Y-60635300D01*
X103662600Y-60635300D02*
X102854700Y-61443200D01*
X102854700Y-61443200D02*
X102854700Y-63448200D01*
X102854700Y-63448200D02*
X99144900Y-67158000D01*
X99144900Y-67158000D02*
X99144900Y-78739700D01*
X99144900Y-78739700D02*
X90290500Y-87594100D01*
X90290500Y-87594100D02*
X90290500Y-97875500D01*
X90290500Y-97875500D02*
X87771300Y-100394700D01*
X87771300Y-100394700D02*
X87490000Y-100394700D01*
X104030000Y-59460000D02*
X104030000Y-60635300D01*
X87490000Y-101520000D02*
X87490000Y-100394700D01*
X104030000Y-63175300D02*
X100078700Y-67126600D01*
X100078700Y-67126600D02*
X100078700Y-78442900D01*
X100078700Y-78442900D02*
X90740800Y-87780800D01*
X90740800Y-87780800D02*
X90740800Y-99876400D01*
X90740800Y-99876400D02*
X87916300Y-102700900D01*
X87916300Y-102700900D02*
X87015300Y-102700900D01*
X87015300Y-102700900D02*
X86325000Y-102010600D01*
X86325000Y-102010600D02*
X86325000Y-100145000D01*
X86325000Y-100145000D02*
X87490000Y-98980000D01*
X104030000Y-62000000D02*
X104030000Y-63175300D01*
X101490000Y-60635300D02*
X101122600Y-60635300D01*
X101122600Y-60635300D02*
X100314700Y-61443200D01*
X100314700Y-61443200D02*
X100314700Y-64532500D01*
X100314700Y-64532500D02*
X97859900Y-66987300D01*
X97859900Y-66987300D02*
X97859900Y-78675900D01*
X97859900Y-78675900D02*
X88615300Y-87920500D01*
X88615300Y-87920500D02*
X88615300Y-94470800D01*
X88615300Y-94470800D02*
X87771400Y-95314700D01*
X87771400Y-95314700D02*
X87490000Y-95314700D01*
X101490000Y-59460000D02*
X101490000Y-60635300D01*
X87490000Y-96440000D02*
X87490000Y-95314700D01*
X64210000Y-67300000D02*
X64210000Y-68475300D01*
X72250000Y-91360000D02*
X62073500Y-81183500D01*
X62073500Y-81183500D02*
X62073500Y-70244500D01*
X62073500Y-70244500D02*
X63842700Y-68475300D01*
X63842700Y-68475300D02*
X64210000Y-68475300D01*
X101490000Y-62000000D02*
X101490000Y-64176000D01*
X101490000Y-64176000D02*
X98535300Y-67130700D01*
X98535300Y-67130700D02*
X98535300Y-78674900D01*
X98535300Y-78674900D02*
X89065700Y-88144500D01*
X89065700Y-88144500D02*
X89065700Y-96468900D01*
X89065700Y-96468900D02*
X87943100Y-97591500D01*
X87943100Y-97591500D02*
X86993100Y-97591500D01*
X86993100Y-97591500D02*
X86325200Y-96923600D01*
X86325200Y-96923600D02*
X86325200Y-95064800D01*
X86325200Y-95064800D02*
X87490000Y-93900000D01*
X98950000Y-59460000D02*
X97774700Y-59460000D01*
X87490000Y-91360000D02*
X87490000Y-90234700D01*
X87490000Y-90234700D02*
X87208700Y-90234700D01*
X87208700Y-90234700D02*
X86314700Y-89340700D01*
X86314700Y-89340700D02*
X86314700Y-80736100D01*
X86314700Y-80736100D02*
X87120800Y-79930000D01*
X87120800Y-79930000D02*
X87868200Y-79930000D01*
X87868200Y-79930000D02*
X95140000Y-72658200D01*
X95140000Y-72658200D02*
X95140000Y-59050000D01*
X95140000Y-59050000D02*
X95905300Y-58284700D01*
X95905300Y-58284700D02*
X96966800Y-58284700D01*
X96966800Y-58284700D02*
X97774700Y-59092600D01*
X97774700Y-59092600D02*
X97774700Y-59460000D01*
X64210000Y-69840000D02*
X64210000Y-71015300D01*
X72250000Y-96440000D02*
X72250000Y-95314700D01*
X72250000Y-95314700D02*
X72531300Y-95314700D01*
X72531300Y-95314700D02*
X73413900Y-94432100D01*
X73413900Y-94432100D02*
X73413900Y-90916800D01*
X73413900Y-90916800D02*
X72587100Y-90090000D01*
X72587100Y-90090000D02*
X71859400Y-90090000D01*
X71859400Y-90090000D02*
X62576400Y-80807000D01*
X62576400Y-80807000D02*
X62576400Y-72281600D01*
X62576400Y-72281600D02*
X63842700Y-71015300D01*
X63842700Y-71015300D02*
X64210000Y-71015300D01*
X98950000Y-62000000D02*
X98950000Y-64934500D01*
X98950000Y-64934500D02*
X97277600Y-66606900D01*
X97277600Y-66606900D02*
X97277600Y-78095600D01*
X97277600Y-78095600D02*
X87678500Y-87694700D01*
X87678500Y-87694700D02*
X87490000Y-87694700D01*
X87490000Y-88820000D02*
X87490000Y-87694700D01*
X96410000Y-60635300D02*
X96777400Y-60635300D01*
X96777400Y-60635300D02*
X97585300Y-61443200D01*
X97585300Y-61443200D02*
X97585300Y-65344000D01*
X97585300Y-65344000D02*
X96668300Y-66261000D01*
X96668300Y-66261000D02*
X96668300Y-76257700D01*
X96668300Y-76257700D02*
X87771300Y-85154700D01*
X87771300Y-85154700D02*
X87490000Y-85154700D01*
X96410000Y-59460000D02*
X96410000Y-60635300D01*
X87490000Y-86280000D02*
X87490000Y-85154700D01*
X72250000Y-102645300D02*
X71968700Y-102645300D01*
X71968700Y-102645300D02*
X71098900Y-103515100D01*
X71098900Y-103515100D02*
X71098900Y-107066100D01*
X71098900Y-107066100D02*
X71814200Y-107781400D01*
X71814200Y-107781400D02*
X87948600Y-107781400D01*
X87948600Y-107781400D02*
X92091700Y-103638300D01*
X92091700Y-103638300D02*
X92091700Y-89524800D01*
X92091700Y-89524800D02*
X96856500Y-84760000D01*
X96856500Y-84760000D02*
X103934700Y-84760000D01*
X103934700Y-84760000D02*
X107744700Y-80950000D01*
X108870000Y-80950000D02*
X107744700Y-80950000D01*
X72250000Y-101520000D02*
X72250000Y-102645300D01*
X96410000Y-62000000D02*
X96410000Y-63175300D01*
X96410000Y-63175300D02*
X95992700Y-63592600D01*
X95992700Y-63592600D02*
X95992700Y-74393300D01*
X95992700Y-74393300D02*
X87771300Y-82614700D01*
X87771300Y-82614700D02*
X87490000Y-82614700D01*
X87490000Y-83740000D02*
X87490000Y-82614700D01*
X108870000Y-75870000D02*
X107744700Y-75870000D01*
X72250000Y-106600000D02*
X73375300Y-106600000D01*
X73375300Y-106600000D02*
X74500600Y-105474700D01*
X74500600Y-105474700D02*
X87671700Y-105474700D01*
X87671700Y-105474700D02*
X91416200Y-101730200D01*
X91416200Y-101730200D02*
X91416200Y-87742300D01*
X91416200Y-87742300D02*
X99478500Y-79680000D01*
X99478500Y-79680000D02*
X103934700Y-79680000D01*
X103934700Y-79680000D02*
X107744700Y-75870000D01*
X64210000Y-72380000D02*
X64210000Y-73555300D01*
X87490000Y-76120000D02*
X86364700Y-76120000D01*
X86364700Y-76120000D02*
X82667900Y-79816800D01*
X82667900Y-79816800D02*
X70519400Y-79816800D01*
X70519400Y-79816800D02*
X69432600Y-78730000D01*
X69432600Y-78730000D02*
X63779000Y-78730000D01*
X63779000Y-78730000D02*
X63034700Y-77985700D01*
X63034700Y-77985700D02*
X63034700Y-74363200D01*
X63034700Y-74363200D02*
X63842600Y-73555300D01*
X63842600Y-73555300D02*
X64210000Y-73555300D01*
X66750000Y-72380000D02*
X67925300Y-72380000D01*
X87490000Y-73580000D02*
X87490000Y-72454700D01*
X87490000Y-72454700D02*
X87771300Y-72454700D01*
X87771300Y-72454700D02*
X88616700Y-71609300D01*
X88616700Y-71609300D02*
X88616700Y-70573900D01*
X88616700Y-70573900D02*
X87950500Y-69907700D01*
X87950500Y-69907700D02*
X70397600Y-69907700D01*
X70397600Y-69907700D02*
X67925300Y-72380000D01*
X64210000Y-74920000D02*
X65385300Y-74920000D01*
X87490000Y-71040000D02*
X81059100Y-71040000D01*
X81059100Y-71040000D02*
X77249100Y-74850000D01*
X77249100Y-74850000D02*
X70492200Y-74850000D01*
X70492200Y-74850000D02*
X69246900Y-76095300D01*
X69246900Y-76095300D02*
X66193200Y-76095300D01*
X66193200Y-76095300D02*
X65385300Y-75287400D01*
X65385300Y-75287400D02*
X65385300Y-74920000D01*
X66750000Y-74920000D02*
X66750000Y-73744700D01*
X87490000Y-68500000D02*
X86364700Y-68500000D01*
X86364700Y-68500000D02*
X85239200Y-67374500D01*
X85239200Y-67374500D02*
X71115700Y-67374500D01*
X71115700Y-67374500D02*
X67380200Y-71110000D01*
X67380200Y-71110000D02*
X66355200Y-71110000D01*
X66355200Y-71110000D02*
X65574700Y-71890500D01*
X65574700Y-71890500D02*
X65574700Y-72936800D01*
X65574700Y-72936800D02*
X66382600Y-73744700D01*
X66382600Y-73744700D02*
X66750000Y-73744700D01*
X102375300Y-68250000D02*
X106040700Y-71915400D01*
X106040700Y-71915400D02*
X109235400Y-71915400D01*
X109235400Y-71915400D02*
X110090000Y-72770000D01*
X110090000Y-72770000D02*
X117449500Y-72770000D01*
X117449500Y-72770000D02*
X119957400Y-75277900D01*
X119957400Y-75277900D02*
X119957400Y-77161500D01*
X119957400Y-77161500D02*
X123862500Y-81066600D01*
X123862500Y-81066600D02*
X124499300Y-81066600D01*
X124499300Y-81066600D02*
X127425400Y-83992700D01*
X127425400Y-83992700D02*
X127425400Y-86130700D01*
X127425400Y-86130700D02*
X140624700Y-99330000D01*
X141750000Y-99330000D02*
X140624700Y-99330000D01*
X101250000Y-68250000D02*
X102375300Y-68250000D01*
X126290000Y-71000000D02*
X127465300Y-71000000D01*
X141750000Y-68000000D02*
X130465300Y-68000000D01*
X130465300Y-68000000D02*
X127465300Y-71000000D01*
X123750000Y-73540000D02*
X124925300Y-73540000D01*
X149370000Y-80700000D02*
X148244700Y-80700000D01*
X148244700Y-80700000D02*
X144565400Y-84379300D01*
X144565400Y-84379300D02*
X136344300Y-84379300D01*
X136344300Y-84379300D02*
X126680300Y-74715300D01*
X126680300Y-74715300D02*
X125733200Y-74715300D01*
X125733200Y-74715300D02*
X124925300Y-73907400D01*
X124925300Y-73907400D02*
X124925300Y-73540000D01*
X123750000Y-71000000D02*
X124925300Y-71000000D01*
X149370000Y-78160000D02*
X148244700Y-78160000D01*
X148244700Y-78160000D02*
X144349600Y-74264900D01*
X144349600Y-74264900D02*
X139086800Y-74264900D01*
X139086800Y-74264900D02*
X136997200Y-72175300D01*
X136997200Y-72175300D02*
X125733200Y-72175300D01*
X125733200Y-72175300D02*
X124925300Y-71367400D01*
X124925300Y-71367400D02*
X124925300Y-71000000D01*
X132250000Y-73540000D02*
X133425300Y-73540000D01*
X141750000Y-78160000D02*
X140624700Y-78160000D01*
X140624700Y-78160000D02*
X137180000Y-74715300D01*
X137180000Y-74715300D02*
X134233200Y-74715300D01*
X134233200Y-74715300D02*
X133425300Y-73907400D01*
X133425300Y-73907400D02*
X133425300Y-73540000D01*
X124350000Y-62000000D02*
X125525300Y-62000000D01*
X149370000Y-75620000D02*
X149370000Y-74494700D01*
X149370000Y-74494700D02*
X149159000Y-74494700D01*
X149159000Y-74494700D02*
X144072200Y-69407900D01*
X144072200Y-69407900D02*
X144072200Y-68204100D01*
X144072200Y-68204100D02*
X142597700Y-66729600D01*
X142597700Y-66729600D02*
X129887600Y-66729600D01*
X129887600Y-66729600D02*
X125525300Y-62367300D01*
X125525300Y-62367300D02*
X125525300Y-62000000D01*
X132250000Y-76080000D02*
X133425300Y-76080000D01*
X141750000Y-80700000D02*
X140624700Y-80700000D01*
X140624700Y-80700000D02*
X137180000Y-77255300D01*
X137180000Y-77255300D02*
X134233200Y-77255300D01*
X134233200Y-77255300D02*
X133425300Y-76447400D01*
X133425300Y-76447400D02*
X133425300Y-76080000D01*
X149370000Y-73080000D02*
X149370000Y-71954700D01*
X149370000Y-71954700D02*
X148523900Y-71954700D01*
X148523900Y-71954700D02*
X137299200Y-60730000D01*
X137299200Y-60730000D02*
X123080000Y-60730000D01*
X123080000Y-60730000D02*
X121810000Y-59460000D01*
X141750000Y-83240000D02*
X137678000Y-83240000D01*
X137678000Y-83240000D02*
X133425300Y-78987300D01*
X133425300Y-78987300D02*
X133425300Y-78620000D01*
X132250000Y-78620000D02*
X133425300Y-78620000D01*
X149370000Y-109490000D02*
X148244700Y-109490000D01*
X148244700Y-109490000D02*
X148244700Y-109208700D01*
X148244700Y-109208700D02*
X142176000Y-103140000D01*
X142176000Y-103140000D02*
X141418300Y-103140000D01*
X141418300Y-103140000D02*
X126250000Y-87971700D01*
X126250000Y-87971700D02*
X126250000Y-85000000D01*
X124350000Y-59460000D02*
X123174700Y-59460000D01*
X123174700Y-59460000D02*
X123174700Y-59092700D01*
X123174700Y-59092700D02*
X122347900Y-58265900D01*
X122347900Y-58265900D02*
X121341200Y-58265900D01*
X121341200Y-58265900D02*
X120445400Y-59161700D01*
X120445400Y-59161700D02*
X120445400Y-60043900D01*
X120445400Y-60043900D02*
X119759300Y-60730000D01*
X119759300Y-60730000D02*
X111255200Y-60730000D01*
X111255200Y-60730000D02*
X110467200Y-61518000D01*
X110467200Y-61518000D02*
X110467200Y-62629400D01*
X110467200Y-62629400D02*
X120435000Y-72597200D01*
X120435000Y-72597200D02*
X120435000Y-77002200D01*
X120435000Y-77002200D02*
X123889800Y-80457000D01*
X123889800Y-80457000D02*
X125979000Y-80457000D01*
X125979000Y-80457000D02*
X130154700Y-84632700D01*
X130154700Y-84632700D02*
X130154700Y-85000000D01*
X149370000Y-104410000D02*
X149370000Y-103284700D01*
X149370000Y-103284700D02*
X149651300Y-103284700D01*
X149651300Y-103284700D02*
X150511000Y-102425000D01*
X150511000Y-102425000D02*
X150511000Y-101418400D01*
X150511000Y-101418400D02*
X149692600Y-100600000D01*
X149692600Y-100600000D02*
X149029000Y-100600000D01*
X149029000Y-100600000D02*
X143028600Y-94599600D01*
X143028600Y-94599600D02*
X143028600Y-93461200D01*
X143028600Y-93461200D02*
X134567400Y-85000000D01*
X134567400Y-85000000D02*
X131330000Y-85000000D01*
X131330000Y-85000000D02*
X130154700Y-85000000D01*
X149370000Y-101870000D02*
X141750000Y-101870000D01*
X141750000Y-104410000D02*
X140624700Y-104410000D01*
X114750000Y-84590000D02*
X120804700Y-84590000D01*
X120804700Y-84590000D02*
X140624700Y-104410000D01*
D21*
G36*
X159290001Y-124290000D02*
G01*
X60710000Y-124290000D01*
X60710000Y-120279872D01*
X63265000Y-120279872D01*
X63265000Y-120720128D01*
X63350890Y-121151925D01*
X63519369Y-121558669D01*
X63763962Y-121924729D01*
X64075271Y-122236038D01*
X64441331Y-122480631D01*
X64848075Y-122649110D01*
X65279872Y-122735000D01*
X65720128Y-122735000D01*
X66151925Y-122649110D01*
X66558669Y-122480631D01*
X66924729Y-122236038D01*
X67236038Y-121924729D01*
X67480631Y-121558669D01*
X67649110Y-121151925D01*
X67735000Y-120720128D01*
X67735000Y-120279872D01*
X67699222Y-120100000D01*
X99011928Y-120100000D01*
X99011928Y-122900000D01*
X99024188Y-123024482D01*
X99060498Y-123144180D01*
X99119463Y-123254494D01*
X99198815Y-123351185D01*
X99295506Y-123430537D01*
X99405820Y-123489502D01*
X99525518Y-123525812D01*
X99650000Y-123538072D01*
X100850000Y-123538072D01*
X100974482Y-123525812D01*
X101094180Y-123489502D01*
X101204494Y-123430537D01*
X101301185Y-123351185D01*
X101380537Y-123254494D01*
X101439502Y-123144180D01*
X101475812Y-123024482D01*
X101488072Y-122900000D01*
X101488072Y-121700000D01*
X104961928Y-121700000D01*
X104961928Y-122900000D01*
X104974188Y-123024482D01*
X105010498Y-123144180D01*
X105069463Y-123254494D01*
X105148815Y-123351185D01*
X105245506Y-123430537D01*
X105355820Y-123489502D01*
X105475518Y-123525812D01*
X105600000Y-123538072D01*
X108400000Y-123538072D01*
X108524482Y-123525812D01*
X108644180Y-123489502D01*
X108754494Y-123430537D01*
X108851185Y-123351185D01*
X108930537Y-123254494D01*
X108989502Y-123144180D01*
X109025812Y-123024482D01*
X109038072Y-122900000D01*
X109038072Y-121700000D01*
X109025812Y-121575518D01*
X108989502Y-121455820D01*
X108930537Y-121345506D01*
X108851185Y-121248815D01*
X108754494Y-121169463D01*
X108644180Y-121110498D01*
X108524482Y-121074188D01*
X108400000Y-121061928D01*
X105600000Y-121061928D01*
X105475518Y-121074188D01*
X105355820Y-121110498D01*
X105245506Y-121169463D01*
X105148815Y-121248815D01*
X105069463Y-121345506D01*
X105010498Y-121455820D01*
X104974188Y-121575518D01*
X104961928Y-121700000D01*
X101488072Y-121700000D01*
X101488072Y-120100000D01*
X112511928Y-120100000D01*
X112511928Y-122900000D01*
X112524188Y-123024482D01*
X112560498Y-123144180D01*
X112619463Y-123254494D01*
X112698815Y-123351185D01*
X112795506Y-123430537D01*
X112905820Y-123489502D01*
X113025518Y-123525812D01*
X113150000Y-123538072D01*
X114350000Y-123538072D01*
X114474482Y-123525812D01*
X114594180Y-123489502D01*
X114704494Y-123430537D01*
X114801185Y-123351185D01*
X114880537Y-123254494D01*
X114939502Y-123144180D01*
X114975812Y-123024482D01*
X114988072Y-122900000D01*
X114988072Y-120279872D01*
X152265000Y-120279872D01*
X152265000Y-120720128D01*
X152350890Y-121151925D01*
X152519369Y-121558669D01*
X152763962Y-121924729D01*
X153075271Y-122236038D01*
X153441331Y-122480631D01*
X153848075Y-122649110D01*
X154279872Y-122735000D01*
X154720128Y-122735000D01*
X155151925Y-122649110D01*
X155558669Y-122480631D01*
X155924729Y-122236038D01*
X156236038Y-121924729D01*
X156480631Y-121558669D01*
X156649110Y-121151925D01*
X156735000Y-120720128D01*
X156735000Y-120279872D01*
X156649110Y-119848075D01*
X156480631Y-119441331D01*
X156236038Y-119075271D01*
X155924729Y-118763962D01*
X155558669Y-118519369D01*
X155151925Y-118350890D01*
X154720128Y-118265000D01*
X154279872Y-118265000D01*
X153848075Y-118350890D01*
X153441331Y-118519369D01*
X153075271Y-118763962D01*
X152763962Y-119075271D01*
X152519369Y-119441331D01*
X152350890Y-119848075D01*
X152265000Y-120279872D01*
X114988072Y-120279872D01*
X114988072Y-120100000D01*
X114975812Y-119975518D01*
X114939502Y-119855820D01*
X114880537Y-119745506D01*
X114801185Y-119648815D01*
X114704494Y-119569463D01*
X114594180Y-119510498D01*
X114474482Y-119474188D01*
X114350000Y-119461928D01*
X113150000Y-119461928D01*
X113025518Y-119474188D01*
X112905820Y-119510498D01*
X112795506Y-119569463D01*
X112698815Y-119648815D01*
X112619463Y-119745506D01*
X112560498Y-119855820D01*
X112524188Y-119975518D01*
X112511928Y-120100000D01*
X101488072Y-120100000D01*
X101475812Y-119975518D01*
X101439502Y-119855820D01*
X101380537Y-119745506D01*
X101301185Y-119648815D01*
X101204494Y-119569463D01*
X101094180Y-119510498D01*
X100974482Y-119474188D01*
X100850000Y-119461928D01*
X99650000Y-119461928D01*
X99525518Y-119474188D01*
X99405820Y-119510498D01*
X99295506Y-119569463D01*
X99198815Y-119648815D01*
X99119463Y-119745506D01*
X99060498Y-119855820D01*
X99024188Y-119975518D01*
X99011928Y-120100000D01*
X67699222Y-120100000D01*
X67649110Y-119848075D01*
X67480631Y-119441331D01*
X67236038Y-119075271D01*
X66924729Y-118763962D01*
X66558669Y-118519369D01*
X66151925Y-118350890D01*
X65720128Y-118265000D01*
X65279872Y-118265000D01*
X64848075Y-118350890D01*
X64441331Y-118519369D01*
X64075271Y-118763962D01*
X63763962Y-119075271D01*
X63519369Y-119441331D01*
X63350890Y-119848075D01*
X63265000Y-120279872D01*
X60710000Y-120279872D01*
X60710000Y-70244500D01*
X61309824Y-70244500D01*
X61313501Y-70281832D01*
X61313500Y-81146178D01*
X61309824Y-81183500D01*
X61313500Y-81220822D01*
X61313500Y-81220832D01*
X61324497Y-81332485D01*
X61359842Y-81449003D01*
X61367954Y-81475746D01*
X61438526Y-81607776D01*
X61477730Y-81655546D01*
X61533499Y-81723501D01*
X61562503Y-81747304D01*
X70849292Y-91034094D01*
X70835764Y-91078691D01*
X70808057Y-91360000D01*
X70835764Y-91641309D01*
X70917818Y-91911808D01*
X71051068Y-92161101D01*
X71230392Y-92379608D01*
X71448899Y-92558932D01*
X71581858Y-92630000D01*
X71448899Y-92701068D01*
X71230392Y-92880392D01*
X71051068Y-93098899D01*
X70917818Y-93348192D01*
X70835764Y-93618691D01*
X70808057Y-93900000D01*
X70835764Y-94181309D01*
X70917818Y-94451808D01*
X71051068Y-94701101D01*
X71230392Y-94919608D01*
X71448899Y-95098932D01*
X71511160Y-95132211D01*
X71500997Y-95165714D01*
X71496058Y-95215861D01*
X71448899Y-95241068D01*
X71230392Y-95420392D01*
X71051068Y-95638899D01*
X70917818Y-95888192D01*
X70835764Y-96158691D01*
X70808057Y-96440000D01*
X70835764Y-96721309D01*
X70917818Y-96991808D01*
X71051068Y-97241101D01*
X71230392Y-97459608D01*
X71448899Y-97638932D01*
X71581858Y-97710000D01*
X71448899Y-97781068D01*
X71230392Y-97960392D01*
X71051068Y-98178899D01*
X70917818Y-98428192D01*
X70835764Y-98698691D01*
X70808057Y-98980000D01*
X70835764Y-99261309D01*
X70917818Y-99531808D01*
X71051068Y-99781101D01*
X71230392Y-99999608D01*
X71448899Y-100178932D01*
X71581858Y-100250000D01*
X71448899Y-100321068D01*
X71230392Y-100500392D01*
X71051068Y-100718899D01*
X70917818Y-100968192D01*
X70835764Y-101238691D01*
X70808057Y-101520000D01*
X70835764Y-101801309D01*
X70917818Y-102071808D01*
X71051068Y-102321101D01*
X71126357Y-102412841D01*
X70587902Y-102951297D01*
X70558899Y-102975099D01*
X70530258Y-103009999D01*
X70463926Y-103090824D01*
X70399654Y-103211068D01*
X70393354Y-103222854D01*
X70349897Y-103366115D01*
X70338900Y-103477768D01*
X70338900Y-103477778D01*
X70335224Y-103515100D01*
X70338900Y-103552423D01*
X70338901Y-107028768D01*
X70335224Y-107066100D01*
X70338901Y-107103433D01*
X70343498Y-107150101D01*
X70349898Y-107215085D01*
X70393354Y-107358346D01*
X70463926Y-107490376D01*
X70479737Y-107509641D01*
X70558900Y-107606101D01*
X70587898Y-107629899D01*
X71161877Y-108203878D01*
X71051068Y-108338899D01*
X70917818Y-108588192D01*
X70835764Y-108858691D01*
X70808057Y-109140000D01*
X70835764Y-109421309D01*
X70917818Y-109691808D01*
X71051068Y-109941101D01*
X71155701Y-110068597D01*
X70613702Y-110610597D01*
X70584699Y-110634399D01*
X70529571Y-110701574D01*
X70489726Y-110750124D01*
X70451210Y-110822182D01*
X70419154Y-110882154D01*
X70375697Y-111025415D01*
X70364700Y-111137068D01*
X70364700Y-111137078D01*
X70361024Y-111174400D01*
X70364700Y-111211723D01*
X70364701Y-114753468D01*
X70361024Y-114790800D01*
X70364701Y-114828133D01*
X70374296Y-114925546D01*
X70375698Y-114939785D01*
X70419154Y-115083046D01*
X70489726Y-115215076D01*
X70560901Y-115301802D01*
X70584700Y-115330801D01*
X70613698Y-115354599D01*
X71126312Y-115867214D01*
X71051068Y-115958899D01*
X70917818Y-116208192D01*
X70835764Y-116478691D01*
X70808057Y-116760000D01*
X70835764Y-117041309D01*
X70917818Y-117311808D01*
X71051068Y-117561101D01*
X71230392Y-117779608D01*
X71448899Y-117958932D01*
X71698192Y-118092182D01*
X71968691Y-118174236D01*
X72179508Y-118195000D01*
X72320492Y-118195000D01*
X72531309Y-118174236D01*
X72801808Y-118092182D01*
X73051101Y-117958932D01*
X73269608Y-117779608D01*
X73448932Y-117561101D01*
X73582182Y-117311808D01*
X73664236Y-117041309D01*
X73691943Y-116760000D01*
X73664236Y-116478691D01*
X73582182Y-116208192D01*
X73448932Y-115958899D01*
X73269608Y-115740392D01*
X73051101Y-115561068D01*
X73003942Y-115535861D01*
X72999003Y-115485714D01*
X72988840Y-115452211D01*
X73051101Y-115418932D01*
X73269608Y-115239608D01*
X73292370Y-115211872D01*
X73940105Y-115859608D01*
X73963899Y-115888601D01*
X73992892Y-115912395D01*
X73992896Y-115912399D01*
X74049557Y-115958899D01*
X74079624Y-115983574D01*
X74211653Y-116054146D01*
X74354914Y-116097603D01*
X74466567Y-116108600D01*
X74466576Y-116108600D01*
X74503899Y-116112276D01*
X74541222Y-116108600D01*
X86211051Y-116108600D01*
X86157818Y-116208192D01*
X86075764Y-116478691D01*
X86048057Y-116760000D01*
X86075764Y-117041309D01*
X86157818Y-117311808D01*
X86291068Y-117561101D01*
X86470392Y-117779608D01*
X86688899Y-117958932D01*
X86938192Y-118092182D01*
X87208691Y-118174236D01*
X87419508Y-118195000D01*
X87560492Y-118195000D01*
X87771309Y-118174236D01*
X88041808Y-118092182D01*
X88291101Y-117958932D01*
X88509608Y-117779608D01*
X88688932Y-117561101D01*
X88822182Y-117311808D01*
X88904236Y-117041309D01*
X88931943Y-116760000D01*
X88904236Y-116478691D01*
X88822182Y-116208192D01*
X88727355Y-116030783D01*
X88815676Y-115983574D01*
X88931401Y-115888601D01*
X88955204Y-115859597D01*
X89142201Y-115672600D01*
X91811928Y-115672600D01*
X91811928Y-117050000D01*
X91824188Y-117174482D01*
X91860498Y-117294180D01*
X91919463Y-117404494D01*
X91998815Y-117501185D01*
X92095506Y-117580537D01*
X92205820Y-117639502D01*
X92325518Y-117675812D01*
X92450000Y-117688072D01*
X94050000Y-117688072D01*
X94174482Y-117675812D01*
X94294180Y-117639502D01*
X94404494Y-117580537D01*
X94489107Y-117511097D01*
X95786474Y-118808464D01*
X95815756Y-118844144D01*
X95958128Y-118960986D01*
X96120560Y-119047807D01*
X96243343Y-119085053D01*
X96296807Y-119101271D01*
X96480099Y-119119324D01*
X96526031Y-119114800D01*
X102342557Y-119114800D01*
X102361995Y-119161727D01*
X102514880Y-119390535D01*
X102709465Y-119585120D01*
X102938273Y-119738005D01*
X103192510Y-119843314D01*
X103462408Y-119897000D01*
X103737592Y-119897000D01*
X104007490Y-119843314D01*
X104261727Y-119738005D01*
X104490535Y-119585120D01*
X104650000Y-119425655D01*
X104809465Y-119585120D01*
X105038273Y-119738005D01*
X105292510Y-119843314D01*
X105562408Y-119897000D01*
X105837592Y-119897000D01*
X106107490Y-119843314D01*
X106361727Y-119738005D01*
X106590535Y-119585120D01*
X106785120Y-119390535D01*
X106938005Y-119161727D01*
X107000000Y-119012059D01*
X107061995Y-119161727D01*
X107214880Y-119390535D01*
X107409465Y-119585120D01*
X107638273Y-119738005D01*
X107892510Y-119843314D01*
X108162408Y-119897000D01*
X108437592Y-119897000D01*
X108707490Y-119843314D01*
X108961727Y-119738005D01*
X109190535Y-119585120D01*
X109310090Y-119465565D01*
X109614040Y-119465565D01*
X109681020Y-119705656D01*
X109930048Y-119822756D01*
X110197135Y-119889023D01*
X110472017Y-119901910D01*
X110744133Y-119860922D01*
X111003023Y-119767636D01*
X111118980Y-119705656D01*
X111185960Y-119465565D01*
X110400000Y-118679605D01*
X109614040Y-119465565D01*
X109310090Y-119465565D01*
X109385120Y-119390535D01*
X109496396Y-119223999D01*
X110220395Y-118500000D01*
X110579605Y-118500000D01*
X111365565Y-119285960D01*
X111605656Y-119218980D01*
X111722756Y-118969952D01*
X111789023Y-118702865D01*
X111801910Y-118427983D01*
X111760922Y-118155867D01*
X111667636Y-117896977D01*
X111605656Y-117781020D01*
X111365565Y-117714040D01*
X110579605Y-118500000D01*
X110220395Y-118500000D01*
X109496396Y-117776001D01*
X109385120Y-117609465D01*
X109190535Y-117414880D01*
X108961727Y-117261995D01*
X108707490Y-117156686D01*
X108437592Y-117103000D01*
X108162408Y-117103000D01*
X107892510Y-117156686D01*
X107638273Y-117261995D01*
X107409465Y-117414880D01*
X107214880Y-117609465D01*
X107061995Y-117838273D01*
X107000000Y-117987941D01*
X106938005Y-117838273D01*
X106785120Y-117609465D01*
X106590535Y-117414880D01*
X106361727Y-117261995D01*
X106107490Y-117156686D01*
X106072636Y-117149753D01*
X107359981Y-115862408D01*
X109003000Y-115862408D01*
X109003000Y-116137592D01*
X109056686Y-116407490D01*
X109161995Y-116661727D01*
X109314880Y-116890535D01*
X109509465Y-117085120D01*
X109738273Y-117238005D01*
X109765401Y-117249242D01*
X109681020Y-117294344D01*
X109614040Y-117534435D01*
X110400000Y-118320395D01*
X111185960Y-117534435D01*
X111118980Y-117294344D01*
X111028467Y-117251782D01*
X111061727Y-117238005D01*
X111290535Y-117085120D01*
X111485120Y-116890535D01*
X111638005Y-116661727D01*
X111743314Y-116407490D01*
X111797000Y-116137592D01*
X111797000Y-116000000D01*
X122307815Y-116000000D01*
X122336487Y-116291111D01*
X122421401Y-116571034D01*
X122559294Y-116829014D01*
X122744866Y-117055134D01*
X122970986Y-117240706D01*
X123228966Y-117378599D01*
X123508889Y-117463513D01*
X123727050Y-117485000D01*
X123872950Y-117485000D01*
X124091111Y-117463513D01*
X124371034Y-117378599D01*
X124629014Y-117240706D01*
X124855134Y-117055134D01*
X125040706Y-116829014D01*
X125070000Y-116774209D01*
X125099294Y-116829014D01*
X125284866Y-117055134D01*
X125510986Y-117240706D01*
X125768966Y-117378599D01*
X126048889Y-117463513D01*
X126267050Y-117485000D01*
X126412950Y-117485000D01*
X126631111Y-117463513D01*
X126911034Y-117378599D01*
X127169014Y-117240706D01*
X127395134Y-117055134D01*
X127580706Y-116829014D01*
X127610000Y-116774209D01*
X127639294Y-116829014D01*
X127824866Y-117055134D01*
X128050986Y-117240706D01*
X128308966Y-117378599D01*
X128588889Y-117463513D01*
X128807050Y-117485000D01*
X128952950Y-117485000D01*
X129171111Y-117463513D01*
X129451034Y-117378599D01*
X129709014Y-117240706D01*
X129935134Y-117055134D01*
X130120706Y-116829014D01*
X130150000Y-116774209D01*
X130179294Y-116829014D01*
X130364866Y-117055134D01*
X130590986Y-117240706D01*
X130848966Y-117378599D01*
X131128889Y-117463513D01*
X131347050Y-117485000D01*
X131492950Y-117485000D01*
X131711111Y-117463513D01*
X131991034Y-117378599D01*
X132249014Y-117240706D01*
X132475134Y-117055134D01*
X132660706Y-116829014D01*
X132690000Y-116774209D01*
X132719294Y-116829014D01*
X132904866Y-117055134D01*
X133130986Y-117240706D01*
X133388966Y-117378599D01*
X133668889Y-117463513D01*
X133887050Y-117485000D01*
X134032950Y-117485000D01*
X134251111Y-117463513D01*
X134531034Y-117378599D01*
X134789014Y-117240706D01*
X135015134Y-117055134D01*
X135039607Y-117025313D01*
X135060498Y-117094180D01*
X135119463Y-117204494D01*
X135198815Y-117301185D01*
X135295506Y-117380537D01*
X135405820Y-117439502D01*
X135525518Y-117475812D01*
X135650000Y-117488072D01*
X136214250Y-117485000D01*
X136373000Y-117326250D01*
X136373000Y-116127000D01*
X136627000Y-116127000D01*
X136627000Y-117326250D01*
X136785750Y-117485000D01*
X137350000Y-117488072D01*
X137474482Y-117475812D01*
X137594180Y-117439502D01*
X137704494Y-117380537D01*
X137801185Y-117301185D01*
X137880537Y-117204494D01*
X137939502Y-117094180D01*
X137975812Y-116974482D01*
X137988072Y-116850000D01*
X137985000Y-116285750D01*
X137826250Y-116127000D01*
X136627000Y-116127000D01*
X136373000Y-116127000D01*
X136353000Y-116127000D01*
X136353000Y-115873000D01*
X136373000Y-115873000D01*
X136373000Y-114673750D01*
X136627000Y-114673750D01*
X136627000Y-115873000D01*
X137826250Y-115873000D01*
X137985000Y-115714250D01*
X137988072Y-115150000D01*
X137975812Y-115025518D01*
X137939502Y-114905820D01*
X137880537Y-114795506D01*
X137801185Y-114698815D01*
X137704494Y-114619463D01*
X137594180Y-114560498D01*
X137474482Y-114524188D01*
X137350000Y-114511928D01*
X136785750Y-114515000D01*
X136627000Y-114673750D01*
X136373000Y-114673750D01*
X136214250Y-114515000D01*
X135650000Y-114511928D01*
X135525518Y-114524188D01*
X135405820Y-114560498D01*
X135295506Y-114619463D01*
X135198815Y-114698815D01*
X135119463Y-114795506D01*
X135060498Y-114905820D01*
X135039607Y-114974687D01*
X135015134Y-114944866D01*
X134789014Y-114759294D01*
X134531034Y-114621401D01*
X134251111Y-114536487D01*
X134032950Y-114515000D01*
X133887050Y-114515000D01*
X133668889Y-114536487D01*
X133388966Y-114621401D01*
X133130986Y-114759294D01*
X132904866Y-114944866D01*
X132719294Y-115170986D01*
X132690000Y-115225791D01*
X132660706Y-115170986D01*
X132475134Y-114944866D01*
X132249014Y-114759294D01*
X131991034Y-114621401D01*
X131711111Y-114536487D01*
X131492950Y-114515000D01*
X131347050Y-114515000D01*
X131128889Y-114536487D01*
X130848966Y-114621401D01*
X130590986Y-114759294D01*
X130364866Y-114944866D01*
X130179294Y-115170986D01*
X130150000Y-115225791D01*
X130120706Y-115170986D01*
X129935134Y-114944866D01*
X129709014Y-114759294D01*
X129451034Y-114621401D01*
X129171111Y-114536487D01*
X128952950Y-114515000D01*
X128807050Y-114515000D01*
X128588889Y-114536487D01*
X128308966Y-114621401D01*
X128050986Y-114759294D01*
X127824866Y-114944866D01*
X127639294Y-115170986D01*
X127610000Y-115225791D01*
X127580706Y-115170986D01*
X127395134Y-114944866D01*
X127169014Y-114759294D01*
X126911034Y-114621401D01*
X126631111Y-114536487D01*
X126412950Y-114515000D01*
X126267050Y-114515000D01*
X126048889Y-114536487D01*
X125768966Y-114621401D01*
X125510986Y-114759294D01*
X125284866Y-114944866D01*
X125099294Y-115170986D01*
X125070000Y-115225791D01*
X125040706Y-115170986D01*
X124855134Y-114944866D01*
X124629014Y-114759294D01*
X124371034Y-114621401D01*
X124091111Y-114536487D01*
X123872950Y-114515000D01*
X123727050Y-114515000D01*
X123508889Y-114536487D01*
X123228966Y-114621401D01*
X122970986Y-114759294D01*
X122744866Y-114944866D01*
X122559294Y-115170986D01*
X122421401Y-115428966D01*
X122336487Y-115708889D01*
X122307815Y-116000000D01*
X111797000Y-116000000D01*
X111797000Y-115862408D01*
X111743314Y-115592510D01*
X111638005Y-115338273D01*
X111485120Y-115109465D01*
X111290535Y-114914880D01*
X111061727Y-114761995D01*
X110807490Y-114656686D01*
X110537592Y-114603000D01*
X110262408Y-114603000D01*
X109992510Y-114656686D01*
X109738273Y-114761995D01*
X109509465Y-114914880D01*
X109314880Y-115109465D01*
X109161995Y-115338273D01*
X109056686Y-115592510D01*
X109003000Y-115862408D01*
X107359981Y-115862408D01*
X114750000Y-108472390D01*
X116396274Y-110118664D01*
X116425556Y-110154344D01*
X116567928Y-110271186D01*
X116730360Y-110358007D01*
X116853143Y-110395253D01*
X116906607Y-110411471D01*
X117089899Y-110429524D01*
X117135831Y-110425000D01*
X140660956Y-110425000D01*
X140730392Y-110509608D01*
X140948899Y-110688932D01*
X141198192Y-110822182D01*
X141468691Y-110904236D01*
X141679508Y-110925000D01*
X141820492Y-110925000D01*
X142031309Y-110904236D01*
X142301808Y-110822182D01*
X142551101Y-110688932D01*
X142769608Y-110509608D01*
X142948932Y-110291101D01*
X143082182Y-110041808D01*
X143164236Y-109771309D01*
X143191943Y-109490000D01*
X143164236Y-109208691D01*
X143082182Y-108938192D01*
X142948932Y-108688899D01*
X142769608Y-108470392D01*
X142551101Y-108291068D01*
X142418142Y-108220000D01*
X142551101Y-108148932D01*
X142769608Y-107969608D01*
X142948932Y-107751101D01*
X143082182Y-107501808D01*
X143164236Y-107231309D01*
X143191943Y-106950000D01*
X143164236Y-106668691D01*
X143082182Y-106398192D01*
X142948932Y-106148899D01*
X142769608Y-105930392D01*
X142551101Y-105751068D01*
X142418142Y-105680000D01*
X142551101Y-105608932D01*
X142769608Y-105429608D01*
X142948932Y-105211101D01*
X143026737Y-105065538D01*
X147484281Y-109523083D01*
X147495697Y-109638986D01*
X147539154Y-109782247D01*
X147609726Y-109914276D01*
X147668362Y-109985724D01*
X147704699Y-110030001D01*
X147820424Y-110124974D01*
X147952453Y-110195546D01*
X148095714Y-110239003D01*
X148145861Y-110243942D01*
X148171068Y-110291101D01*
X148350392Y-110509608D01*
X148568899Y-110688932D01*
X148818192Y-110822182D01*
X149088691Y-110904236D01*
X149299508Y-110925000D01*
X149440492Y-110925000D01*
X149651309Y-110904236D01*
X149921808Y-110822182D01*
X150171101Y-110688932D01*
X150389608Y-110509608D01*
X150568932Y-110291101D01*
X150702182Y-110041808D01*
X150784236Y-109771309D01*
X150811943Y-109490000D01*
X150784236Y-109208691D01*
X150702182Y-108938192D01*
X150568932Y-108688899D01*
X150389608Y-108470392D01*
X150171101Y-108291068D01*
X150038142Y-108220000D01*
X150171101Y-108148932D01*
X150389608Y-107969608D01*
X150568932Y-107751101D01*
X150702182Y-107501808D01*
X150784236Y-107231309D01*
X150811943Y-106950000D01*
X150784236Y-106668691D01*
X150702182Y-106398192D01*
X150568932Y-106148899D01*
X150389608Y-105930392D01*
X150171101Y-105751068D01*
X150038142Y-105680000D01*
X150171101Y-105608932D01*
X150389608Y-105429608D01*
X150568932Y-105211101D01*
X150702182Y-104961808D01*
X150784236Y-104691309D01*
X150811943Y-104410000D01*
X150784236Y-104128691D01*
X150702182Y-103858192D01*
X150568932Y-103608899D01*
X150493643Y-103517159D01*
X151022009Y-102988794D01*
X151051001Y-102965001D01*
X151074795Y-102936008D01*
X151074799Y-102936004D01*
X151145973Y-102849277D01*
X151145974Y-102849276D01*
X151216546Y-102717247D01*
X151260003Y-102573986D01*
X151271000Y-102462333D01*
X151271000Y-102462324D01*
X151274676Y-102425001D01*
X151271000Y-102387678D01*
X151271000Y-101455722D01*
X151274676Y-101418399D01*
X151271000Y-101381076D01*
X151271000Y-101381067D01*
X151260003Y-101269414D01*
X151216546Y-101126153D01*
X151145974Y-100994124D01*
X151123323Y-100966524D01*
X151074799Y-100907396D01*
X151074795Y-100907392D01*
X151051001Y-100878399D01*
X151022008Y-100854605D01*
X150447035Y-100279633D01*
X150568932Y-100131101D01*
X150702182Y-99881808D01*
X150784236Y-99611309D01*
X150811943Y-99330000D01*
X150784236Y-99048691D01*
X150702182Y-98778192D01*
X150568932Y-98528899D01*
X150389608Y-98310392D01*
X150171101Y-98131068D01*
X150130000Y-98109099D01*
X150130000Y-98010901D01*
X150171101Y-97988932D01*
X150389608Y-97809608D01*
X150568932Y-97591101D01*
X150702182Y-97341808D01*
X150784236Y-97071309D01*
X150811943Y-96790000D01*
X150784236Y-96508691D01*
X150702182Y-96238192D01*
X150568932Y-95988899D01*
X150389608Y-95770392D01*
X150171101Y-95591068D01*
X150033318Y-95517421D01*
X150225131Y-95402385D01*
X150433519Y-95213414D01*
X150601037Y-94987420D01*
X150721246Y-94733087D01*
X150761904Y-94599039D01*
X150639915Y-94377000D01*
X149497000Y-94377000D01*
X149497000Y-94397000D01*
X149243000Y-94397000D01*
X149243000Y-94377000D01*
X148100085Y-94377000D01*
X147978096Y-94599039D01*
X148018754Y-94733087D01*
X148138963Y-94987420D01*
X148306481Y-95213414D01*
X148514869Y-95402385D01*
X148706682Y-95517421D01*
X148568899Y-95591068D01*
X148350392Y-95770392D01*
X148171068Y-95988899D01*
X148149099Y-96030000D01*
X147645702Y-96030000D01*
X145516663Y-93900961D01*
X147978096Y-93900961D01*
X148100085Y-94123000D01*
X149243000Y-94123000D01*
X149243000Y-92979376D01*
X149497000Y-92979376D01*
X149497000Y-94123000D01*
X150639915Y-94123000D01*
X150761904Y-93900961D01*
X150721246Y-93766913D01*
X150601037Y-93512580D01*
X150433519Y-93286586D01*
X150225131Y-93097615D01*
X149983881Y-92952930D01*
X149719040Y-92858091D01*
X149497000Y-92979376D01*
X149243000Y-92979376D01*
X149020960Y-92858091D01*
X148756119Y-92952930D01*
X148514869Y-93097615D01*
X148306481Y-93286586D01*
X148138963Y-93512580D01*
X148018754Y-93766913D01*
X147978096Y-93900961D01*
X145516663Y-93900961D01*
X142474367Y-90858665D01*
X145815000Y-90858665D01*
X145815000Y-91141335D01*
X145870147Y-91418574D01*
X145978320Y-91679727D01*
X146135363Y-91914759D01*
X146335241Y-92114637D01*
X146570273Y-92271680D01*
X146831426Y-92379853D01*
X147108665Y-92435000D01*
X147391335Y-92435000D01*
X147668574Y-92379853D01*
X147929727Y-92271680D01*
X148164759Y-92114637D01*
X148286694Y-91992702D01*
X148936903Y-91992702D01*
X149008486Y-92236671D01*
X149263996Y-92357571D01*
X149538184Y-92426300D01*
X149820512Y-92440217D01*
X150100130Y-92398787D01*
X150366292Y-92303603D01*
X150491514Y-92236671D01*
X150563097Y-91992702D01*
X149750000Y-91179605D01*
X148936903Y-91992702D01*
X148286694Y-91992702D01*
X148364637Y-91914759D01*
X148498692Y-91714131D01*
X148513329Y-91741514D01*
X148757298Y-91813097D01*
X149570395Y-91000000D01*
X149929605Y-91000000D01*
X150742702Y-91813097D01*
X150986671Y-91741514D01*
X151107571Y-91486004D01*
X151176300Y-91211816D01*
X151190217Y-90929488D01*
X151148787Y-90649870D01*
X151053603Y-90383708D01*
X150986671Y-90258486D01*
X150742702Y-90186903D01*
X149929605Y-91000000D01*
X149570395Y-91000000D01*
X148757298Y-90186903D01*
X148513329Y-90258486D01*
X148499676Y-90287341D01*
X148364637Y-90085241D01*
X148286694Y-90007298D01*
X148936903Y-90007298D01*
X149750000Y-90820395D01*
X150563097Y-90007298D01*
X150491514Y-89763329D01*
X150236004Y-89642429D01*
X149961816Y-89573700D01*
X149679488Y-89559783D01*
X149399870Y-89601213D01*
X149133708Y-89696397D01*
X149008486Y-89763329D01*
X148936903Y-90007298D01*
X148286694Y-90007298D01*
X148164759Y-89885363D01*
X147929727Y-89728320D01*
X147668574Y-89620147D01*
X147391335Y-89565000D01*
X147108665Y-89565000D01*
X146831426Y-89620147D01*
X146570273Y-89728320D01*
X146335241Y-89885363D01*
X146135363Y-90085241D01*
X145978320Y-90320273D01*
X145870147Y-90581426D01*
X145815000Y-90858665D01*
X142474367Y-90858665D01*
X137744741Y-86129039D01*
X140358096Y-86129039D01*
X140398754Y-86263087D01*
X140518963Y-86517420D01*
X140686481Y-86743414D01*
X140894869Y-86932385D01*
X141136119Y-87077070D01*
X141400960Y-87171909D01*
X141623000Y-87050624D01*
X141623000Y-85907000D01*
X141877000Y-85907000D01*
X141877000Y-87050624D01*
X142099040Y-87171909D01*
X142363881Y-87077070D01*
X142605131Y-86932385D01*
X142813519Y-86743414D01*
X142981037Y-86517420D01*
X143101246Y-86263087D01*
X143141904Y-86129039D01*
X143019915Y-85907000D01*
X141877000Y-85907000D01*
X141623000Y-85907000D01*
X140480085Y-85907000D01*
X140358096Y-86129039D01*
X137744741Y-86129039D01*
X136755001Y-85139300D01*
X140473249Y-85139300D01*
X140398754Y-85296913D01*
X140358096Y-85430961D01*
X140480085Y-85653000D01*
X141623000Y-85653000D01*
X141623000Y-85633000D01*
X141877000Y-85633000D01*
X141877000Y-85653000D01*
X143019915Y-85653000D01*
X143141904Y-85430961D01*
X143101246Y-85296913D01*
X143026751Y-85139300D01*
X144528078Y-85139300D01*
X144565400Y-85142976D01*
X144602722Y-85139300D01*
X144602733Y-85139300D01*
X144714386Y-85128303D01*
X144857647Y-85084846D01*
X144989676Y-85014274D01*
X145105401Y-84919301D01*
X145129204Y-84890297D01*
X148327630Y-81691872D01*
X148350392Y-81719608D01*
X148568899Y-81898932D01*
X148701858Y-81970000D01*
X148568899Y-82041068D01*
X148350392Y-82220392D01*
X148171068Y-82438899D01*
X148037818Y-82688192D01*
X147955764Y-82958691D01*
X147928057Y-83240000D01*
X147955764Y-83521309D01*
X148037818Y-83791808D01*
X148171068Y-84041101D01*
X148350392Y-84259608D01*
X148568899Y-84438932D01*
X148701858Y-84510000D01*
X148568899Y-84581068D01*
X148350392Y-84760392D01*
X148171068Y-84978899D01*
X148037818Y-85228192D01*
X147955764Y-85498691D01*
X147928057Y-85780000D01*
X147955764Y-86061309D01*
X148037818Y-86331808D01*
X148171068Y-86581101D01*
X148350392Y-86799608D01*
X148568899Y-86978932D01*
X148818192Y-87112182D01*
X149088691Y-87194236D01*
X149299508Y-87215000D01*
X149440492Y-87215000D01*
X149651309Y-87194236D01*
X149921808Y-87112182D01*
X150171101Y-86978932D01*
X150389608Y-86799608D01*
X150568932Y-86581101D01*
X150702182Y-86331808D01*
X150784236Y-86061309D01*
X150811943Y-85780000D01*
X150784236Y-85498691D01*
X150702182Y-85228192D01*
X150568932Y-84978899D01*
X150389608Y-84760392D01*
X150171101Y-84581068D01*
X150038142Y-84510000D01*
X150171101Y-84438932D01*
X150389608Y-84259608D01*
X150568932Y-84041101D01*
X150702182Y-83791808D01*
X150784236Y-83521309D01*
X150811943Y-83240000D01*
X150784236Y-82958691D01*
X150702182Y-82688192D01*
X150568932Y-82438899D01*
X150389608Y-82220392D01*
X150171101Y-82041068D01*
X150038142Y-81970000D01*
X150171101Y-81898932D01*
X150389608Y-81719608D01*
X150568932Y-81501101D01*
X150702182Y-81251808D01*
X150784236Y-80981309D01*
X150811943Y-80700000D01*
X150784236Y-80418691D01*
X150702182Y-80148192D01*
X150568932Y-79898899D01*
X150389608Y-79680392D01*
X150171101Y-79501068D01*
X150038142Y-79430000D01*
X150171101Y-79358932D01*
X150389608Y-79179608D01*
X150568932Y-78961101D01*
X150702182Y-78711808D01*
X150784236Y-78441309D01*
X150811943Y-78160000D01*
X150784236Y-77878691D01*
X150702182Y-77608192D01*
X150568932Y-77358899D01*
X150389608Y-77140392D01*
X150171101Y-76961068D01*
X150038142Y-76890000D01*
X150171101Y-76818932D01*
X150389608Y-76639608D01*
X150568932Y-76421101D01*
X150702182Y-76171808D01*
X150784236Y-75901309D01*
X150811943Y-75620000D01*
X150784236Y-75338691D01*
X150702182Y-75068192D01*
X150568932Y-74818899D01*
X150389608Y-74600392D01*
X150171101Y-74421068D01*
X150123942Y-74395861D01*
X150119003Y-74345714D01*
X150108840Y-74312211D01*
X150171101Y-74278932D01*
X150389608Y-74099608D01*
X150568932Y-73881101D01*
X150702182Y-73631808D01*
X150784236Y-73361309D01*
X150811943Y-73080000D01*
X150784236Y-72798691D01*
X150702182Y-72528192D01*
X150568932Y-72278899D01*
X150389608Y-72060392D01*
X150171101Y-71881068D01*
X150123942Y-71855861D01*
X150119003Y-71805714D01*
X150108840Y-71772211D01*
X150171101Y-71738932D01*
X150389608Y-71559608D01*
X150568932Y-71341101D01*
X150702182Y-71091808D01*
X150784236Y-70821309D01*
X150811943Y-70540000D01*
X150784236Y-70258691D01*
X150702182Y-69988192D01*
X150568932Y-69738899D01*
X150389608Y-69520392D01*
X150171101Y-69341068D01*
X150038142Y-69270000D01*
X150171101Y-69198932D01*
X150389608Y-69019608D01*
X150568932Y-68801101D01*
X150702182Y-68551808D01*
X150784236Y-68281309D01*
X150811943Y-68000000D01*
X150784236Y-67718691D01*
X150702182Y-67448192D01*
X150568932Y-67198899D01*
X150389608Y-66980392D01*
X150171101Y-66801068D01*
X149921808Y-66667818D01*
X149651309Y-66585764D01*
X149440492Y-66565000D01*
X149299508Y-66565000D01*
X149088691Y-66585764D01*
X148818192Y-66667818D01*
X148568899Y-66801068D01*
X148350392Y-66980392D01*
X148171068Y-67198899D01*
X148037818Y-67448192D01*
X147955764Y-67718691D01*
X147928057Y-68000000D01*
X147955764Y-68281309D01*
X148037818Y-68551808D01*
X148171068Y-68801101D01*
X148350392Y-69019608D01*
X148568899Y-69198932D01*
X148701858Y-69270000D01*
X148568899Y-69341068D01*
X148350392Y-69520392D01*
X148171068Y-69738899D01*
X148037818Y-69988192D01*
X147955764Y-70258691D01*
X147951006Y-70307004D01*
X142502667Y-64858665D01*
X146065000Y-64858665D01*
X146065000Y-65141335D01*
X146120147Y-65418574D01*
X146228320Y-65679727D01*
X146385363Y-65914759D01*
X146585241Y-66114637D01*
X146820273Y-66271680D01*
X147081426Y-66379853D01*
X147358665Y-66435000D01*
X147641335Y-66435000D01*
X147918574Y-66379853D01*
X148179727Y-66271680D01*
X148414759Y-66114637D01*
X148536694Y-65992702D01*
X149186903Y-65992702D01*
X149258486Y-66236671D01*
X149513996Y-66357571D01*
X149788184Y-66426300D01*
X150070512Y-66440217D01*
X150350130Y-66398787D01*
X150616292Y-66303603D01*
X150741514Y-66236671D01*
X150813097Y-65992702D01*
X150000000Y-65179605D01*
X149186903Y-65992702D01*
X148536694Y-65992702D01*
X148614637Y-65914759D01*
X148748692Y-65714131D01*
X148763329Y-65741514D01*
X149007298Y-65813097D01*
X149820395Y-65000000D01*
X150179605Y-65000000D01*
X150992702Y-65813097D01*
X151236671Y-65741514D01*
X151357571Y-65486004D01*
X151426300Y-65211816D01*
X151440217Y-64929488D01*
X151398787Y-64649870D01*
X151303603Y-64383708D01*
X151236671Y-64258486D01*
X150992702Y-64186903D01*
X150179605Y-65000000D01*
X149820395Y-65000000D01*
X149007298Y-64186903D01*
X148763329Y-64258486D01*
X148749676Y-64287341D01*
X148614637Y-64085241D01*
X148536694Y-64007298D01*
X149186903Y-64007298D01*
X150000000Y-64820395D01*
X150813097Y-64007298D01*
X150741514Y-63763329D01*
X150486004Y-63642429D01*
X150211816Y-63573700D01*
X149929488Y-63559783D01*
X149649870Y-63601213D01*
X149383708Y-63696397D01*
X149258486Y-63763329D01*
X149186903Y-64007298D01*
X148536694Y-64007298D01*
X148414759Y-63885363D01*
X148179727Y-63728320D01*
X147918574Y-63620147D01*
X147641335Y-63565000D01*
X147358665Y-63565000D01*
X147081426Y-63620147D01*
X146820273Y-63728320D01*
X146585241Y-63885363D01*
X146385363Y-64085241D01*
X146228320Y-64320273D01*
X146120147Y-64581426D01*
X146065000Y-64858665D01*
X142502667Y-64858665D01*
X137863004Y-60219003D01*
X137839201Y-60189999D01*
X137723476Y-60095026D01*
X137591447Y-60024454D01*
X137448186Y-59980997D01*
X137336533Y-59970000D01*
X137336522Y-59970000D01*
X137299200Y-59966324D01*
X137261878Y-59970000D01*
X135907114Y-59970000D01*
X135973513Y-59751111D01*
X136002185Y-59460000D01*
X135973513Y-59168889D01*
X135888599Y-58888966D01*
X135750706Y-58630986D01*
X135565134Y-58404866D01*
X135339014Y-58219294D01*
X135081034Y-58081401D01*
X134801111Y-57996487D01*
X134582950Y-57975000D01*
X134437050Y-57975000D01*
X134218889Y-57996487D01*
X133938966Y-58081401D01*
X133680986Y-58219294D01*
X133454866Y-58404866D01*
X133269294Y-58630986D01*
X133240000Y-58685791D01*
X133210706Y-58630986D01*
X133025134Y-58404866D01*
X132799014Y-58219294D01*
X132541034Y-58081401D01*
X132261111Y-57996487D01*
X132042950Y-57975000D01*
X131897050Y-57975000D01*
X131678889Y-57996487D01*
X131398966Y-58081401D01*
X131140986Y-58219294D01*
X130914866Y-58404866D01*
X130729294Y-58630986D01*
X130700000Y-58685791D01*
X130670706Y-58630986D01*
X130485134Y-58404866D01*
X130259014Y-58219294D01*
X130001034Y-58081401D01*
X129721111Y-57996487D01*
X129502950Y-57975000D01*
X129357050Y-57975000D01*
X129138889Y-57996487D01*
X128858966Y-58081401D01*
X128600986Y-58219294D01*
X128374866Y-58404866D01*
X128189294Y-58630986D01*
X128160000Y-58685791D01*
X128130706Y-58630986D01*
X127945134Y-58404866D01*
X127719014Y-58219294D01*
X127461034Y-58081401D01*
X127181111Y-57996487D01*
X126962950Y-57975000D01*
X126817050Y-57975000D01*
X126598889Y-57996487D01*
X126318966Y-58081401D01*
X126060986Y-58219294D01*
X125834866Y-58404866D01*
X125649294Y-58630986D01*
X125620000Y-58685791D01*
X125590706Y-58630986D01*
X125405134Y-58404866D01*
X125179014Y-58219294D01*
X124921034Y-58081401D01*
X124641111Y-57996487D01*
X124422950Y-57975000D01*
X124277050Y-57975000D01*
X124058889Y-57996487D01*
X123778966Y-58081401D01*
X123520986Y-58219294D01*
X123441406Y-58284604D01*
X122911703Y-57754902D01*
X122887901Y-57725899D01*
X122772176Y-57630926D01*
X122640147Y-57560354D01*
X122496886Y-57516897D01*
X122385233Y-57505900D01*
X122385222Y-57505900D01*
X122347900Y-57502224D01*
X122310578Y-57505900D01*
X121378533Y-57505900D01*
X121341200Y-57502223D01*
X121303867Y-57505900D01*
X121192214Y-57516897D01*
X121048953Y-57560354D01*
X120916924Y-57630926D01*
X120801199Y-57725899D01*
X120777401Y-57754897D01*
X120216547Y-58315751D01*
X120099014Y-58219294D01*
X119841034Y-58081401D01*
X119561111Y-57996487D01*
X119342950Y-57975000D01*
X119197050Y-57975000D01*
X118978889Y-57996487D01*
X118698966Y-58081401D01*
X118440986Y-58219294D01*
X118214866Y-58404866D01*
X118029294Y-58630986D01*
X118000000Y-58685791D01*
X117970706Y-58630986D01*
X117785134Y-58404866D01*
X117559014Y-58219294D01*
X117301034Y-58081401D01*
X117021111Y-57996487D01*
X116802950Y-57975000D01*
X116657050Y-57975000D01*
X116438889Y-57996487D01*
X116158966Y-58081401D01*
X115900986Y-58219294D01*
X115674866Y-58404866D01*
X115489294Y-58630986D01*
X115460000Y-58685791D01*
X115430706Y-58630986D01*
X115245134Y-58404866D01*
X115019014Y-58219294D01*
X114761034Y-58081401D01*
X114481111Y-57996487D01*
X114262950Y-57975000D01*
X114117050Y-57975000D01*
X113898889Y-57996487D01*
X113618966Y-58081401D01*
X113360986Y-58219294D01*
X113134866Y-58404866D01*
X112949294Y-58630986D01*
X112920000Y-58685791D01*
X112890706Y-58630986D01*
X112705134Y-58404866D01*
X112479014Y-58219294D01*
X112221034Y-58081401D01*
X111941111Y-57996487D01*
X111722950Y-57975000D01*
X111577050Y-57975000D01*
X111358889Y-57996487D01*
X111078966Y-58081401D01*
X110820986Y-58219294D01*
X110594866Y-58404866D01*
X110409294Y-58630986D01*
X110380000Y-58685791D01*
X110350706Y-58630986D01*
X110165134Y-58404866D01*
X109939014Y-58219294D01*
X109681034Y-58081401D01*
X109401111Y-57996487D01*
X109182950Y-57975000D01*
X109037050Y-57975000D01*
X108818889Y-57996487D01*
X108538966Y-58081401D01*
X108280986Y-58219294D01*
X108054866Y-58404866D01*
X107869294Y-58630986D01*
X107840000Y-58685791D01*
X107810706Y-58630986D01*
X107625134Y-58404866D01*
X107399014Y-58219294D01*
X107141034Y-58081401D01*
X106861111Y-57996487D01*
X106642950Y-57975000D01*
X106497050Y-57975000D01*
X106278889Y-57996487D01*
X105998966Y-58081401D01*
X105740986Y-58219294D01*
X105514866Y-58404866D01*
X105329294Y-58630986D01*
X105300000Y-58685791D01*
X105270706Y-58630986D01*
X105085134Y-58404866D01*
X104859014Y-58219294D01*
X104601034Y-58081401D01*
X104321111Y-57996487D01*
X104102950Y-57975000D01*
X103957050Y-57975000D01*
X103738889Y-57996487D01*
X103458966Y-58081401D01*
X103200986Y-58219294D01*
X102974866Y-58404866D01*
X102789294Y-58630986D01*
X102760000Y-58685791D01*
X102730706Y-58630986D01*
X102545134Y-58404866D01*
X102319014Y-58219294D01*
X102061034Y-58081401D01*
X101781111Y-57996487D01*
X101562950Y-57975000D01*
X101417050Y-57975000D01*
X101198889Y-57996487D01*
X100918966Y-58081401D01*
X100660986Y-58219294D01*
X100434866Y-58404866D01*
X100249294Y-58630986D01*
X100220000Y-58685791D01*
X100190706Y-58630986D01*
X100005134Y-58404866D01*
X99779014Y-58219294D01*
X99521034Y-58081401D01*
X99241111Y-57996487D01*
X99022950Y-57975000D01*
X98877050Y-57975000D01*
X98658889Y-57996487D01*
X98378966Y-58081401D01*
X98120986Y-58219294D01*
X98041461Y-58284559D01*
X97530603Y-57773702D01*
X97506801Y-57744699D01*
X97391076Y-57649726D01*
X97259047Y-57579154D01*
X97115786Y-57535697D01*
X97004133Y-57524700D01*
X97004122Y-57524700D01*
X96966800Y-57521024D01*
X96929478Y-57524700D01*
X95942625Y-57524700D01*
X95905300Y-57521024D01*
X95867975Y-57524700D01*
X95867967Y-57524700D01*
X95756314Y-57535697D01*
X95613053Y-57579154D01*
X95481024Y-57649726D01*
X95365299Y-57744699D01*
X95341501Y-57773698D01*
X94807155Y-58308043D01*
X94699014Y-58219294D01*
X94441034Y-58081401D01*
X94161111Y-57996487D01*
X93942950Y-57975000D01*
X93797050Y-57975000D01*
X93578889Y-57996487D01*
X93298966Y-58081401D01*
X93040986Y-58219294D01*
X92814866Y-58404866D01*
X92629294Y-58630986D01*
X92600000Y-58685791D01*
X92570706Y-58630986D01*
X92385134Y-58404866D01*
X92159014Y-58219294D01*
X91901034Y-58081401D01*
X91621111Y-57996487D01*
X91402950Y-57975000D01*
X91257050Y-57975000D01*
X91038889Y-57996487D01*
X90758966Y-58081401D01*
X90500986Y-58219294D01*
X90274866Y-58404866D01*
X90089294Y-58630986D01*
X90054799Y-58695523D01*
X89985178Y-58578645D01*
X89790269Y-58362412D01*
X89556920Y-58188359D01*
X89294099Y-58063175D01*
X89146890Y-58018524D01*
X88917000Y-58139845D01*
X88917000Y-59333000D01*
X88937000Y-59333000D01*
X88937000Y-59587000D01*
X88917000Y-59587000D01*
X88917000Y-59607000D01*
X88663000Y-59607000D01*
X88663000Y-59587000D01*
X86377000Y-59587000D01*
X86377000Y-59607000D01*
X86123000Y-59607000D01*
X86123000Y-59587000D01*
X84929186Y-59587000D01*
X84808519Y-59816891D01*
X84905843Y-60091252D01*
X85054822Y-60341355D01*
X85231626Y-60537502D01*
X85155820Y-60560498D01*
X85045506Y-60619463D01*
X84948815Y-60698815D01*
X84869463Y-60795506D01*
X84810498Y-60905820D01*
X84774188Y-61025518D01*
X84761928Y-61150000D01*
X84761928Y-62850000D01*
X84774188Y-62974482D01*
X84810498Y-63094180D01*
X84869463Y-63204494D01*
X84948815Y-63301185D01*
X85045506Y-63380537D01*
X85155820Y-63439502D01*
X85275518Y-63475812D01*
X85400000Y-63488072D01*
X87100000Y-63488072D01*
X87224482Y-63475812D01*
X87344180Y-63439502D01*
X87454494Y-63380537D01*
X87551185Y-63301185D01*
X87630537Y-63204494D01*
X87689502Y-63094180D01*
X87710393Y-63025313D01*
X87734866Y-63055134D01*
X87960986Y-63240706D01*
X88218966Y-63378599D01*
X88498889Y-63463513D01*
X88717050Y-63485000D01*
X88862950Y-63485000D01*
X89081111Y-63463513D01*
X89361034Y-63378599D01*
X89619014Y-63240706D01*
X89845134Y-63055134D01*
X90030706Y-62829014D01*
X90060000Y-62774209D01*
X90089294Y-62829014D01*
X90274866Y-63055134D01*
X90500986Y-63240706D01*
X90758966Y-63378599D01*
X91038889Y-63463513D01*
X91257050Y-63485000D01*
X91402950Y-63485000D01*
X91621111Y-63463513D01*
X91901034Y-63378599D01*
X92159014Y-63240706D01*
X92385134Y-63055134D01*
X92570706Y-62829014D01*
X92600000Y-62774209D01*
X92629294Y-62829014D01*
X92814866Y-63055134D01*
X93040986Y-63240706D01*
X93298966Y-63378599D01*
X93578889Y-63463513D01*
X93797050Y-63485000D01*
X93942950Y-63485000D01*
X94161111Y-63463513D01*
X94380001Y-63397113D01*
X94380000Y-72343398D01*
X88750087Y-77973312D01*
X88688932Y-77858899D01*
X88509608Y-77640392D01*
X88291101Y-77461068D01*
X88158142Y-77390000D01*
X88291101Y-77318932D01*
X88509608Y-77139608D01*
X88688932Y-76921101D01*
X88822182Y-76671808D01*
X88904236Y-76401309D01*
X88931943Y-76120000D01*
X88904236Y-75838691D01*
X88891864Y-75797907D01*
X89006102Y-75845226D01*
X89206061Y-75885000D01*
X89409939Y-75885000D01*
X89609898Y-75845226D01*
X89798256Y-75767205D01*
X89967774Y-75653937D01*
X90111937Y-75509774D01*
X90225205Y-75340256D01*
X90303226Y-75151898D01*
X90343000Y-74951939D01*
X90343000Y-74748061D01*
X90303226Y-74548102D01*
X90225205Y-74359744D01*
X90111937Y-74190226D01*
X89967774Y-74046063D01*
X89798256Y-73932795D01*
X89609898Y-73854774D01*
X89409939Y-73815000D01*
X89206061Y-73815000D01*
X89006102Y-73854774D01*
X88891864Y-73902093D01*
X88904236Y-73861309D01*
X88931943Y-73580000D01*
X88904236Y-73298691D01*
X88822182Y-73028192D01*
X88688932Y-72778899D01*
X88613643Y-72687159D01*
X89127704Y-72173098D01*
X89156701Y-72149301D01*
X89206280Y-72088889D01*
X89251674Y-72033577D01*
X89322246Y-71901547D01*
X89330700Y-71873676D01*
X89365703Y-71758286D01*
X89376700Y-71646633D01*
X89376700Y-71646624D01*
X89380376Y-71609301D01*
X89376700Y-71571978D01*
X89376700Y-70611222D01*
X89380376Y-70573899D01*
X89376700Y-70536576D01*
X89376700Y-70536567D01*
X89365703Y-70424914D01*
X89322246Y-70281653D01*
X89277968Y-70198815D01*
X89251674Y-70149623D01*
X89180499Y-70062897D01*
X89156701Y-70033899D01*
X89127702Y-70010100D01*
X88567125Y-69449524D01*
X88688932Y-69301101D01*
X88822182Y-69051808D01*
X88904236Y-68781309D01*
X88931943Y-68500000D01*
X88904236Y-68218691D01*
X88822182Y-67948192D01*
X88688932Y-67698899D01*
X88509608Y-67480392D01*
X88291101Y-67301068D01*
X88041808Y-67167818D01*
X87771309Y-67085764D01*
X87560492Y-67065000D01*
X87419508Y-67065000D01*
X87208691Y-67085764D01*
X86938192Y-67167818D01*
X86688899Y-67301068D01*
X86470392Y-67480392D01*
X86447630Y-67508128D01*
X85803004Y-66863502D01*
X85779201Y-66834499D01*
X85663476Y-66739526D01*
X85531447Y-66668954D01*
X85388186Y-66625497D01*
X85276533Y-66614500D01*
X85276522Y-66614500D01*
X85239200Y-66610824D01*
X85201878Y-66614500D01*
X71153025Y-66614500D01*
X71115700Y-66610824D01*
X71078375Y-66614500D01*
X71078367Y-66614500D01*
X70966714Y-66625497D01*
X70823453Y-66668954D01*
X70691424Y-66739526D01*
X70575699Y-66834499D01*
X70551901Y-66863497D01*
X68132750Y-69282649D01*
X68128599Y-69268966D01*
X67990706Y-69010986D01*
X67805134Y-68784866D01*
X67579014Y-68599294D01*
X67524209Y-68570000D01*
X67579014Y-68540706D01*
X67805134Y-68355134D01*
X67990706Y-68129014D01*
X68128599Y-67871034D01*
X68213513Y-67591111D01*
X68242185Y-67300000D01*
X68213513Y-67008889D01*
X68128599Y-66728966D01*
X67990706Y-66470986D01*
X67805134Y-66244866D01*
X67579014Y-66059294D01*
X67524209Y-66030000D01*
X67579014Y-66000706D01*
X67805134Y-65815134D01*
X67903725Y-65695000D01*
X68054368Y-65695000D01*
X68100300Y-65699524D01*
X68146232Y-65695000D01*
X68283592Y-65681471D01*
X68459840Y-65628007D01*
X68622272Y-65541186D01*
X68764644Y-65424344D01*
X68793930Y-65388659D01*
X71997589Y-62185000D01*
X73077379Y-62185000D01*
X73110498Y-62294180D01*
X73169463Y-62404494D01*
X73248815Y-62501185D01*
X73345506Y-62580537D01*
X73455820Y-62639502D01*
X73575518Y-62675812D01*
X73700000Y-62688072D01*
X75300000Y-62688072D01*
X75424482Y-62675812D01*
X75544180Y-62639502D01*
X75654494Y-62580537D01*
X75751185Y-62501185D01*
X75830537Y-62404494D01*
X75889502Y-62294180D01*
X75925812Y-62174482D01*
X75938072Y-62050000D01*
X75938072Y-60450000D01*
X75925812Y-60325518D01*
X75889502Y-60205820D01*
X75830537Y-60095506D01*
X75751185Y-59998815D01*
X75654494Y-59919463D01*
X75544180Y-59860498D01*
X75424482Y-59824188D01*
X75300000Y-59811928D01*
X75292785Y-59811928D01*
X75313097Y-59742702D01*
X74500000Y-58929605D01*
X73686903Y-59742702D01*
X73707215Y-59811928D01*
X73700000Y-59811928D01*
X73575518Y-59824188D01*
X73455820Y-59860498D01*
X73345506Y-59919463D01*
X73248815Y-59998815D01*
X73169463Y-60095506D01*
X73110498Y-60205820D01*
X73077379Y-60315000D01*
X71656235Y-60315000D01*
X71610300Y-60310476D01*
X71427008Y-60328528D01*
X71250759Y-60381993D01*
X71194180Y-60412235D01*
X71088328Y-60468814D01*
X70945956Y-60585656D01*
X70916670Y-60621341D01*
X67817760Y-63720251D01*
X67805134Y-63704866D01*
X67579014Y-63519294D01*
X67321034Y-63381401D01*
X67041111Y-63296487D01*
X66822950Y-63275000D01*
X66677050Y-63275000D01*
X66458889Y-63296487D01*
X66178966Y-63381401D01*
X65920986Y-63519294D01*
X65694866Y-63704866D01*
X65509294Y-63930986D01*
X65478416Y-63988756D01*
X65307588Y-63759731D01*
X65091355Y-63564822D01*
X64841252Y-63415843D01*
X64566891Y-63318519D01*
X64337000Y-63439186D01*
X64337000Y-64633000D01*
X64357000Y-64633000D01*
X64357000Y-64887000D01*
X64337000Y-64887000D01*
X64337000Y-64907000D01*
X64083000Y-64907000D01*
X64083000Y-64887000D01*
X62889845Y-64887000D01*
X62768524Y-65116890D01*
X62813175Y-65264099D01*
X62938359Y-65526920D01*
X63112412Y-65760269D01*
X63328645Y-65955178D01*
X63445523Y-66024799D01*
X63380986Y-66059294D01*
X63154866Y-66244866D01*
X62969294Y-66470986D01*
X62831401Y-66728966D01*
X62746487Y-67008889D01*
X62717815Y-67300000D01*
X62746487Y-67591111D01*
X62831401Y-67871034D01*
X62969294Y-68129014D01*
X63034604Y-68208594D01*
X61562498Y-69680701D01*
X61533500Y-69704499D01*
X61509702Y-69733497D01*
X61509701Y-69733498D01*
X61438526Y-69820224D01*
X61367954Y-69952254D01*
X61324498Y-70095515D01*
X61309824Y-70244500D01*
X60710000Y-70244500D01*
X60710000Y-64403110D01*
X62768524Y-64403110D01*
X62889845Y-64633000D01*
X64083000Y-64633000D01*
X64083000Y-63439186D01*
X63853109Y-63318519D01*
X63578748Y-63415843D01*
X63328645Y-63564822D01*
X63112412Y-63759731D01*
X62938359Y-63993080D01*
X62813175Y-64255901D01*
X62768524Y-64403110D01*
X60710000Y-64403110D01*
X60710000Y-58820512D01*
X73059783Y-58820512D01*
X73101213Y-59100130D01*
X73196397Y-59366292D01*
X73263329Y-59491514D01*
X73507298Y-59563097D01*
X74320395Y-58750000D01*
X74679605Y-58750000D01*
X75492702Y-59563097D01*
X75736671Y-59491514D01*
X75857571Y-59236004D01*
X75890882Y-59103109D01*
X84808519Y-59103109D01*
X84929186Y-59333000D01*
X86123000Y-59333000D01*
X86123000Y-58139845D01*
X86377000Y-58139845D01*
X86377000Y-59333000D01*
X88663000Y-59333000D01*
X88663000Y-58139845D01*
X88433110Y-58018524D01*
X88285901Y-58063175D01*
X88023080Y-58188359D01*
X87789731Y-58362412D01*
X87594822Y-58578645D01*
X87520000Y-58704255D01*
X87445178Y-58578645D01*
X87250269Y-58362412D01*
X87016920Y-58188359D01*
X86754099Y-58063175D01*
X86606890Y-58018524D01*
X86377000Y-58139845D01*
X86123000Y-58139845D01*
X85893110Y-58018524D01*
X85745901Y-58063175D01*
X85483080Y-58188359D01*
X85249731Y-58362412D01*
X85054822Y-58578645D01*
X84905843Y-58828748D01*
X84808519Y-59103109D01*
X75890882Y-59103109D01*
X75926300Y-58961816D01*
X75940217Y-58679488D01*
X75898787Y-58399870D01*
X75803603Y-58133708D01*
X75736671Y-58008486D01*
X75492702Y-57936903D01*
X74679605Y-58750000D01*
X74320395Y-58750000D01*
X73507298Y-57936903D01*
X73263329Y-58008486D01*
X73142429Y-58263996D01*
X73073700Y-58538184D01*
X73059783Y-58820512D01*
X60710000Y-58820512D01*
X60710000Y-57757298D01*
X73686903Y-57757298D01*
X74500000Y-58570395D01*
X75313097Y-57757298D01*
X75241514Y-57513329D01*
X74986004Y-57392429D01*
X74711816Y-57323700D01*
X74429488Y-57309783D01*
X74149870Y-57351213D01*
X73883708Y-57446397D01*
X73758486Y-57513329D01*
X73686903Y-57757298D01*
X60710000Y-57757298D01*
X60710000Y-54279872D01*
X63265000Y-54279872D01*
X63265000Y-54720128D01*
X63350890Y-55151925D01*
X63519369Y-55558669D01*
X63763962Y-55924729D01*
X64075271Y-56236038D01*
X64441331Y-56480631D01*
X64848075Y-56649110D01*
X65279872Y-56735000D01*
X65720128Y-56735000D01*
X66151925Y-56649110D01*
X66558669Y-56480631D01*
X66924729Y-56236038D01*
X67236038Y-55924729D01*
X67480631Y-55558669D01*
X67649110Y-55151925D01*
X67735000Y-54720128D01*
X67735000Y-54279872D01*
X152265000Y-54279872D01*
X152265000Y-54720128D01*
X152350890Y-55151925D01*
X152519369Y-55558669D01*
X152763962Y-55924729D01*
X153075271Y-56236038D01*
X153441331Y-56480631D01*
X153848075Y-56649110D01*
X154279872Y-56735000D01*
X154720128Y-56735000D01*
X155151925Y-56649110D01*
X155558669Y-56480631D01*
X155924729Y-56236038D01*
X156236038Y-55924729D01*
X156480631Y-55558669D01*
X156649110Y-55151925D01*
X156735000Y-54720128D01*
X156735000Y-54279872D01*
X156649110Y-53848075D01*
X156480631Y-53441331D01*
X156236038Y-53075271D01*
X155924729Y-52763962D01*
X155558669Y-52519369D01*
X155151925Y-52350890D01*
X154720128Y-52265000D01*
X154279872Y-52265000D01*
X153848075Y-52350890D01*
X153441331Y-52519369D01*
X153075271Y-52763962D01*
X152763962Y-53075271D01*
X152519369Y-53441331D01*
X152350890Y-53848075D01*
X152265000Y-54279872D01*
X67735000Y-54279872D01*
X67649110Y-53848075D01*
X67480631Y-53441331D01*
X67236038Y-53075271D01*
X66924729Y-52763962D01*
X66558669Y-52519369D01*
X66151925Y-52350890D01*
X65720128Y-52265000D01*
X65279872Y-52265000D01*
X64848075Y-52350890D01*
X64441331Y-52519369D01*
X64075271Y-52763962D01*
X63763962Y-53075271D01*
X63519369Y-53441331D01*
X63350890Y-53848075D01*
X63265000Y-54279872D01*
X60710000Y-54279872D01*
X60710000Y-50710000D01*
X159290000Y-50710000D01*
X159290001Y-124290000D01*
X159290001Y-124290000D01*
G37*
X159290001Y-124290000D02*
X60710000Y-124290000D01*
X60710000Y-120279872D01*
X63265000Y-120279872D01*
X63265000Y-120720128D01*
X63350890Y-121151925D01*
X63519369Y-121558669D01*
X63763962Y-121924729D01*
X64075271Y-122236038D01*
X64441331Y-122480631D01*
X64848075Y-122649110D01*
X65279872Y-122735000D01*
X65720128Y-122735000D01*
X66151925Y-122649110D01*
X66558669Y-122480631D01*
X66924729Y-122236038D01*
X67236038Y-121924729D01*
X67480631Y-121558669D01*
X67649110Y-121151925D01*
X67735000Y-120720128D01*
X67735000Y-120279872D01*
X67699222Y-120100000D01*
X99011928Y-120100000D01*
X99011928Y-122900000D01*
X99024188Y-123024482D01*
X99060498Y-123144180D01*
X99119463Y-123254494D01*
X99198815Y-123351185D01*
X99295506Y-123430537D01*
X99405820Y-123489502D01*
X99525518Y-123525812D01*
X99650000Y-123538072D01*
X100850000Y-123538072D01*
X100974482Y-123525812D01*
X101094180Y-123489502D01*
X101204494Y-123430537D01*
X101301185Y-123351185D01*
X101380537Y-123254494D01*
X101439502Y-123144180D01*
X101475812Y-123024482D01*
X101488072Y-122900000D01*
X101488072Y-121700000D01*
X104961928Y-121700000D01*
X104961928Y-122900000D01*
X104974188Y-123024482D01*
X105010498Y-123144180D01*
X105069463Y-123254494D01*
X105148815Y-123351185D01*
X105245506Y-123430537D01*
X105355820Y-123489502D01*
X105475518Y-123525812D01*
X105600000Y-123538072D01*
X108400000Y-123538072D01*
X108524482Y-123525812D01*
X108644180Y-123489502D01*
X108754494Y-123430537D01*
X108851185Y-123351185D01*
X108930537Y-123254494D01*
X108989502Y-123144180D01*
X109025812Y-123024482D01*
X109038072Y-122900000D01*
X109038072Y-121700000D01*
X109025812Y-121575518D01*
X108989502Y-121455820D01*
X108930537Y-121345506D01*
X108851185Y-121248815D01*
X108754494Y-121169463D01*
X108644180Y-121110498D01*
X108524482Y-121074188D01*
X108400000Y-121061928D01*
X105600000Y-121061928D01*
X105475518Y-121074188D01*
X105355820Y-121110498D01*
X105245506Y-121169463D01*
X105148815Y-121248815D01*
X105069463Y-121345506D01*
X105010498Y-121455820D01*
X104974188Y-121575518D01*
X104961928Y-121700000D01*
X101488072Y-121700000D01*
X101488072Y-120100000D01*
X112511928Y-120100000D01*
X112511928Y-122900000D01*
X112524188Y-123024482D01*
X112560498Y-123144180D01*
X112619463Y-123254494D01*
X112698815Y-123351185D01*
X112795506Y-123430537D01*
X112905820Y-123489502D01*
X113025518Y-123525812D01*
X113150000Y-123538072D01*
X114350000Y-123538072D01*
X114474482Y-123525812D01*
X114594180Y-123489502D01*
X114704494Y-123430537D01*
X114801185Y-123351185D01*
X114880537Y-123254494D01*
X114939502Y-123144180D01*
X114975812Y-123024482D01*
X114988072Y-122900000D01*
X114988072Y-120279872D01*
X152265000Y-120279872D01*
X152265000Y-120720128D01*
X152350890Y-121151925D01*
X152519369Y-121558669D01*
X152763962Y-121924729D01*
X153075271Y-122236038D01*
X153441331Y-122480631D01*
X153848075Y-122649110D01*
X154279872Y-122735000D01*
X154720128Y-122735000D01*
X155151925Y-122649110D01*
X155558669Y-122480631D01*
X155924729Y-122236038D01*
X156236038Y-121924729D01*
X156480631Y-121558669D01*
X156649110Y-121151925D01*
X156735000Y-120720128D01*
X156735000Y-120279872D01*
X156649110Y-119848075D01*
X156480631Y-119441331D01*
X156236038Y-119075271D01*
X155924729Y-118763962D01*
X155558669Y-118519369D01*
X155151925Y-118350890D01*
X154720128Y-118265000D01*
X154279872Y-118265000D01*
X153848075Y-118350890D01*
X153441331Y-118519369D01*
X153075271Y-118763962D01*
X152763962Y-119075271D01*
X152519369Y-119441331D01*
X152350890Y-119848075D01*
X152265000Y-120279872D01*
X114988072Y-120279872D01*
X114988072Y-120100000D01*
X114975812Y-119975518D01*
X114939502Y-119855820D01*
X114880537Y-119745506D01*
X114801185Y-119648815D01*
X114704494Y-119569463D01*
X114594180Y-119510498D01*
X114474482Y-119474188D01*
X114350000Y-119461928D01*
X113150000Y-119461928D01*
X113025518Y-119474188D01*
X112905820Y-119510498D01*
X112795506Y-119569463D01*
X112698815Y-119648815D01*
X112619463Y-119745506D01*
X112560498Y-119855820D01*
X112524188Y-119975518D01*
X112511928Y-120100000D01*
X101488072Y-120100000D01*
X101475812Y-119975518D01*
X101439502Y-119855820D01*
X101380537Y-119745506D01*
X101301185Y-119648815D01*
X101204494Y-119569463D01*
X101094180Y-119510498D01*
X100974482Y-119474188D01*
X100850000Y-119461928D01*
X99650000Y-119461928D01*
X99525518Y-119474188D01*
X99405820Y-119510498D01*
X99295506Y-119569463D01*
X99198815Y-119648815D01*
X99119463Y-119745506D01*
X99060498Y-119855820D01*
X99024188Y-119975518D01*
X99011928Y-120100000D01*
X67699222Y-120100000D01*
X67649110Y-119848075D01*
X67480631Y-119441331D01*
X67236038Y-119075271D01*
X66924729Y-118763962D01*
X66558669Y-118519369D01*
X66151925Y-118350890D01*
X65720128Y-118265000D01*
X65279872Y-118265000D01*
X64848075Y-118350890D01*
X64441331Y-118519369D01*
X64075271Y-118763962D01*
X63763962Y-119075271D01*
X63519369Y-119441331D01*
X63350890Y-119848075D01*
X63265000Y-120279872D01*
X60710000Y-120279872D01*
X60710000Y-70244500D01*
X61309824Y-70244500D01*
X61313501Y-70281832D01*
X61313500Y-81146178D01*
X61309824Y-81183500D01*
X61313500Y-81220822D01*
X61313500Y-81220832D01*
X61324497Y-81332485D01*
X61359842Y-81449003D01*
X61367954Y-81475746D01*
X61438526Y-81607776D01*
X61477730Y-81655546D01*
X61533499Y-81723501D01*
X61562503Y-81747304D01*
X70849292Y-91034094D01*
X70835764Y-91078691D01*
X70808057Y-91360000D01*
X70835764Y-91641309D01*
X70917818Y-91911808D01*
X71051068Y-92161101D01*
X71230392Y-92379608D01*
X71448899Y-92558932D01*
X71581858Y-92630000D01*
X71448899Y-92701068D01*
X71230392Y-92880392D01*
X71051068Y-93098899D01*
X70917818Y-93348192D01*
X70835764Y-93618691D01*
X70808057Y-93900000D01*
X70835764Y-94181309D01*
X70917818Y-94451808D01*
X71051068Y-94701101D01*
X71230392Y-94919608D01*
X71448899Y-95098932D01*
X71511160Y-95132211D01*
X71500997Y-95165714D01*
X71496058Y-95215861D01*
X71448899Y-95241068D01*
X71230392Y-95420392D01*
X71051068Y-95638899D01*
X70917818Y-95888192D01*
X70835764Y-96158691D01*
X70808057Y-96440000D01*
X70835764Y-96721309D01*
X70917818Y-96991808D01*
X71051068Y-97241101D01*
X71230392Y-97459608D01*
X71448899Y-97638932D01*
X71581858Y-97710000D01*
X71448899Y-97781068D01*
X71230392Y-97960392D01*
X71051068Y-98178899D01*
X70917818Y-98428192D01*
X70835764Y-98698691D01*
X70808057Y-98980000D01*
X70835764Y-99261309D01*
X70917818Y-99531808D01*
X71051068Y-99781101D01*
X71230392Y-99999608D01*
X71448899Y-100178932D01*
X71581858Y-100250000D01*
X71448899Y-100321068D01*
X71230392Y-100500392D01*
X71051068Y-100718899D01*
X70917818Y-100968192D01*
X70835764Y-101238691D01*
X70808057Y-101520000D01*
X70835764Y-101801309D01*
X70917818Y-102071808D01*
X71051068Y-102321101D01*
X71126357Y-102412841D01*
X70587902Y-102951297D01*
X70558899Y-102975099D01*
X70530258Y-103009999D01*
X70463926Y-103090824D01*
X70399654Y-103211068D01*
X70393354Y-103222854D01*
X70349897Y-103366115D01*
X70338900Y-103477768D01*
X70338900Y-103477778D01*
X70335224Y-103515100D01*
X70338900Y-103552423D01*
X70338901Y-107028768D01*
X70335224Y-107066100D01*
X70338901Y-107103433D01*
X70343498Y-107150101D01*
X70349898Y-107215085D01*
X70393354Y-107358346D01*
X70463926Y-107490376D01*
X70479737Y-107509641D01*
X70558900Y-107606101D01*
X70587898Y-107629899D01*
X71161877Y-108203878D01*
X71051068Y-108338899D01*
X70917818Y-108588192D01*
X70835764Y-108858691D01*
X70808057Y-109140000D01*
X70835764Y-109421309D01*
X70917818Y-109691808D01*
X71051068Y-109941101D01*
X71155701Y-110068597D01*
X70613702Y-110610597D01*
X70584699Y-110634399D01*
X70529571Y-110701574D01*
X70489726Y-110750124D01*
X70451210Y-110822182D01*
X70419154Y-110882154D01*
X70375697Y-111025415D01*
X70364700Y-111137068D01*
X70364700Y-111137078D01*
X70361024Y-111174400D01*
X70364700Y-111211723D01*
X70364701Y-114753468D01*
X70361024Y-114790800D01*
X70364701Y-114828133D01*
X70374296Y-114925546D01*
X70375698Y-114939785D01*
X70419154Y-115083046D01*
X70489726Y-115215076D01*
X70560901Y-115301802D01*
X70584700Y-115330801D01*
X70613698Y-115354599D01*
X71126312Y-115867214D01*
X71051068Y-115958899D01*
X70917818Y-116208192D01*
X70835764Y-116478691D01*
X70808057Y-116760000D01*
X70835764Y-117041309D01*
X70917818Y-117311808D01*
X71051068Y-117561101D01*
X71230392Y-117779608D01*
X71448899Y-117958932D01*
X71698192Y-118092182D01*
X71968691Y-118174236D01*
X72179508Y-118195000D01*
X72320492Y-118195000D01*
X72531309Y-118174236D01*
X72801808Y-118092182D01*
X73051101Y-117958932D01*
X73269608Y-117779608D01*
X73448932Y-117561101D01*
X73582182Y-117311808D01*
X73664236Y-117041309D01*
X73691943Y-116760000D01*
X73664236Y-116478691D01*
X73582182Y-116208192D01*
X73448932Y-115958899D01*
X73269608Y-115740392D01*
X73051101Y-115561068D01*
X73003942Y-115535861D01*
X72999003Y-115485714D01*
X72988840Y-115452211D01*
X73051101Y-115418932D01*
X73269608Y-115239608D01*
X73292370Y-115211872D01*
X73940105Y-115859608D01*
X73963899Y-115888601D01*
X73992892Y-115912395D01*
X73992896Y-115912399D01*
X74049557Y-115958899D01*
X74079624Y-115983574D01*
X74211653Y-116054146D01*
X74354914Y-116097603D01*
X74466567Y-116108600D01*
X74466576Y-116108600D01*
X74503899Y-116112276D01*
X74541222Y-116108600D01*
X86211051Y-116108600D01*
X86157818Y-116208192D01*
X86075764Y-116478691D01*
X86048057Y-116760000D01*
X86075764Y-117041309D01*
X86157818Y-117311808D01*
X86291068Y-117561101D01*
X86470392Y-117779608D01*
X86688899Y-117958932D01*
X86938192Y-118092182D01*
X87208691Y-118174236D01*
X87419508Y-118195000D01*
X87560492Y-118195000D01*
X87771309Y-118174236D01*
X88041808Y-118092182D01*
X88291101Y-117958932D01*
X88509608Y-117779608D01*
X88688932Y-117561101D01*
X88822182Y-117311808D01*
X88904236Y-117041309D01*
X88931943Y-116760000D01*
X88904236Y-116478691D01*
X88822182Y-116208192D01*
X88727355Y-116030783D01*
X88815676Y-115983574D01*
X88931401Y-115888601D01*
X88955204Y-115859597D01*
X89142201Y-115672600D01*
X91811928Y-115672600D01*
X91811928Y-117050000D01*
X91824188Y-117174482D01*
X91860498Y-117294180D01*
X91919463Y-117404494D01*
X91998815Y-117501185D01*
X92095506Y-117580537D01*
X92205820Y-117639502D01*
X92325518Y-117675812D01*
X92450000Y-117688072D01*
X94050000Y-117688072D01*
X94174482Y-117675812D01*
X94294180Y-117639502D01*
X94404494Y-117580537D01*
X94489107Y-117511097D01*
X95786474Y-118808464D01*
X95815756Y-118844144D01*
X95958128Y-118960986D01*
X96120560Y-119047807D01*
X96243343Y-119085053D01*
X96296807Y-119101271D01*
X96480099Y-119119324D01*
X96526031Y-119114800D01*
X102342557Y-119114800D01*
X102361995Y-119161727D01*
X102514880Y-119390535D01*
X102709465Y-119585120D01*
X102938273Y-119738005D01*
X103192510Y-119843314D01*
X103462408Y-119897000D01*
X103737592Y-119897000D01*
X104007490Y-119843314D01*
X104261727Y-119738005D01*
X104490535Y-119585120D01*
X104650000Y-119425655D01*
X104809465Y-119585120D01*
X105038273Y-119738005D01*
X105292510Y-119843314D01*
X105562408Y-119897000D01*
X105837592Y-119897000D01*
X106107490Y-119843314D01*
X106361727Y-119738005D01*
X106590535Y-119585120D01*
X106785120Y-119390535D01*
X106938005Y-119161727D01*
X107000000Y-119012059D01*
X107061995Y-119161727D01*
X107214880Y-119390535D01*
X107409465Y-119585120D01*
X107638273Y-119738005D01*
X107892510Y-119843314D01*
X108162408Y-119897000D01*
X108437592Y-119897000D01*
X108707490Y-119843314D01*
X108961727Y-119738005D01*
X109190535Y-119585120D01*
X109310090Y-119465565D01*
X109614040Y-119465565D01*
X109681020Y-119705656D01*
X109930048Y-119822756D01*
X110197135Y-119889023D01*
X110472017Y-119901910D01*
X110744133Y-119860922D01*
X111003023Y-119767636D01*
X111118980Y-119705656D01*
X111185960Y-119465565D01*
X110400000Y-118679605D01*
X109614040Y-119465565D01*
X109310090Y-119465565D01*
X109385120Y-119390535D01*
X109496396Y-119223999D01*
X110220395Y-118500000D01*
X110579605Y-118500000D01*
X111365565Y-119285960D01*
X111605656Y-119218980D01*
X111722756Y-118969952D01*
X111789023Y-118702865D01*
X111801910Y-118427983D01*
X111760922Y-118155867D01*
X111667636Y-117896977D01*
X111605656Y-117781020D01*
X111365565Y-117714040D01*
X110579605Y-118500000D01*
X110220395Y-118500000D01*
X109496396Y-117776001D01*
X109385120Y-117609465D01*
X109190535Y-117414880D01*
X108961727Y-117261995D01*
X108707490Y-117156686D01*
X108437592Y-117103000D01*
X108162408Y-117103000D01*
X107892510Y-117156686D01*
X107638273Y-117261995D01*
X107409465Y-117414880D01*
X107214880Y-117609465D01*
X107061995Y-117838273D01*
X107000000Y-117987941D01*
X106938005Y-117838273D01*
X106785120Y-117609465D01*
X106590535Y-117414880D01*
X106361727Y-117261995D01*
X106107490Y-117156686D01*
X106072636Y-117149753D01*
X107359981Y-115862408D01*
X109003000Y-115862408D01*
X109003000Y-116137592D01*
X109056686Y-116407490D01*
X109161995Y-116661727D01*
X109314880Y-116890535D01*
X109509465Y-117085120D01*
X109738273Y-117238005D01*
X109765401Y-117249242D01*
X109681020Y-117294344D01*
X109614040Y-117534435D01*
X110400000Y-118320395D01*
X111185960Y-117534435D01*
X111118980Y-117294344D01*
X111028467Y-117251782D01*
X111061727Y-117238005D01*
X111290535Y-117085120D01*
X111485120Y-116890535D01*
X111638005Y-116661727D01*
X111743314Y-116407490D01*
X111797000Y-116137592D01*
X111797000Y-116000000D01*
X122307815Y-116000000D01*
X122336487Y-116291111D01*
X122421401Y-116571034D01*
X122559294Y-116829014D01*
X122744866Y-117055134D01*
X122970986Y-117240706D01*
X123228966Y-117378599D01*
X123508889Y-117463513D01*
X123727050Y-117485000D01*
X123872950Y-117485000D01*
X124091111Y-117463513D01*
X124371034Y-117378599D01*
X124629014Y-117240706D01*
X124855134Y-117055134D01*
X125040706Y-116829014D01*
X125070000Y-116774209D01*
X125099294Y-116829014D01*
X125284866Y-117055134D01*
X125510986Y-117240706D01*
X125768966Y-117378599D01*
X126048889Y-117463513D01*
X126267050Y-117485000D01*
X126412950Y-117485000D01*
X126631111Y-117463513D01*
X126911034Y-117378599D01*
X127169014Y-117240706D01*
X127395134Y-117055134D01*
X127580706Y-116829014D01*
X127610000Y-116774209D01*
X127639294Y-116829014D01*
X127824866Y-117055134D01*
X128050986Y-117240706D01*
X128308966Y-117378599D01*
X128588889Y-117463513D01*
X128807050Y-117485000D01*
X128952950Y-117485000D01*
X129171111Y-117463513D01*
X129451034Y-117378599D01*
X129709014Y-117240706D01*
X129935134Y-117055134D01*
X130120706Y-116829014D01*
X130150000Y-116774209D01*
X130179294Y-116829014D01*
X130364866Y-117055134D01*
X130590986Y-117240706D01*
X130848966Y-117378599D01*
X131128889Y-117463513D01*
X131347050Y-117485000D01*
X131492950Y-117485000D01*
X131711111Y-117463513D01*
X131991034Y-117378599D01*
X132249014Y-117240706D01*
X132475134Y-117055134D01*
X132660706Y-116829014D01*
X132690000Y-116774209D01*
X132719294Y-116829014D01*
X132904866Y-117055134D01*
X133130986Y-117240706D01*
X133388966Y-117378599D01*
X133668889Y-117463513D01*
X133887050Y-117485000D01*
X134032950Y-117485000D01*
X134251111Y-117463513D01*
X134531034Y-117378599D01*
X134789014Y-117240706D01*
X135015134Y-117055134D01*
X135039607Y-117025313D01*
X135060498Y-117094180D01*
X135119463Y-117204494D01*
X135198815Y-117301185D01*
X135295506Y-117380537D01*
X135405820Y-117439502D01*
X135525518Y-117475812D01*
X135650000Y-117488072D01*
X136214250Y-117485000D01*
X136373000Y-117326250D01*
X136373000Y-116127000D01*
X136627000Y-116127000D01*
X136627000Y-117326250D01*
X136785750Y-117485000D01*
X137350000Y-117488072D01*
X137474482Y-117475812D01*
X137594180Y-117439502D01*
X137704494Y-117380537D01*
X137801185Y-117301185D01*
X137880537Y-117204494D01*
X137939502Y-117094180D01*
X137975812Y-116974482D01*
X137988072Y-116850000D01*
X137985000Y-116285750D01*
X137826250Y-116127000D01*
X136627000Y-116127000D01*
X136373000Y-116127000D01*
X136353000Y-116127000D01*
X136353000Y-115873000D01*
X136373000Y-115873000D01*
X136373000Y-114673750D01*
X136627000Y-114673750D01*
X136627000Y-115873000D01*
X137826250Y-115873000D01*
X137985000Y-115714250D01*
X137988072Y-115150000D01*
X137975812Y-115025518D01*
X137939502Y-114905820D01*
X137880537Y-114795506D01*
X137801185Y-114698815D01*
X137704494Y-114619463D01*
X137594180Y-114560498D01*
X137474482Y-114524188D01*
X137350000Y-114511928D01*
X136785750Y-114515000D01*
X136627000Y-114673750D01*
X136373000Y-114673750D01*
X136214250Y-114515000D01*
X135650000Y-114511928D01*
X135525518Y-114524188D01*
X135405820Y-114560498D01*
X135295506Y-114619463D01*
X135198815Y-114698815D01*
X135119463Y-114795506D01*
X135060498Y-114905820D01*
X135039607Y-114974687D01*
X135015134Y-114944866D01*
X134789014Y-114759294D01*
X134531034Y-114621401D01*
X134251111Y-114536487D01*
X134032950Y-114515000D01*
X133887050Y-114515000D01*
X133668889Y-114536487D01*
X133388966Y-114621401D01*
X133130986Y-114759294D01*
X132904866Y-114944866D01*
X132719294Y-115170986D01*
X132690000Y-115225791D01*
X132660706Y-115170986D01*
X132475134Y-114944866D01*
X132249014Y-114759294D01*
X131991034Y-114621401D01*
X131711111Y-114536487D01*
X131492950Y-114515000D01*
X131347050Y-114515000D01*
X131128889Y-114536487D01*
X130848966Y-114621401D01*
X130590986Y-114759294D01*
X130364866Y-114944866D01*
X130179294Y-115170986D01*
X130150000Y-115225791D01*
X130120706Y-115170986D01*
X129935134Y-114944866D01*
X129709014Y-114759294D01*
X129451034Y-114621401D01*
X129171111Y-114536487D01*
X128952950Y-114515000D01*
X128807050Y-114515000D01*
X128588889Y-114536487D01*
X128308966Y-114621401D01*
X128050986Y-114759294D01*
X127824866Y-114944866D01*
X127639294Y-115170986D01*
X127610000Y-115225791D01*
X127580706Y-115170986D01*
X127395134Y-114944866D01*
X127169014Y-114759294D01*
X126911034Y-114621401D01*
X126631111Y-114536487D01*
X126412950Y-114515000D01*
X126267050Y-114515000D01*
X126048889Y-114536487D01*
X125768966Y-114621401D01*
X125510986Y-114759294D01*
X125284866Y-114944866D01*
X125099294Y-115170986D01*
X125070000Y-115225791D01*
X125040706Y-115170986D01*
X124855134Y-114944866D01*
X124629014Y-114759294D01*
X124371034Y-114621401D01*
X124091111Y-114536487D01*
X123872950Y-114515000D01*
X123727050Y-114515000D01*
X123508889Y-114536487D01*
X123228966Y-114621401D01*
X122970986Y-114759294D01*
X122744866Y-114944866D01*
X122559294Y-115170986D01*
X122421401Y-115428966D01*
X122336487Y-115708889D01*
X122307815Y-116000000D01*
X111797000Y-116000000D01*
X111797000Y-115862408D01*
X111743314Y-115592510D01*
X111638005Y-115338273D01*
X111485120Y-115109465D01*
X111290535Y-114914880D01*
X111061727Y-114761995D01*
X110807490Y-114656686D01*
X110537592Y-114603000D01*
X110262408Y-114603000D01*
X109992510Y-114656686D01*
X109738273Y-114761995D01*
X109509465Y-114914880D01*
X109314880Y-115109465D01*
X109161995Y-115338273D01*
X109056686Y-115592510D01*
X109003000Y-115862408D01*
X107359981Y-115862408D01*
X114750000Y-108472390D01*
X116396274Y-110118664D01*
X116425556Y-110154344D01*
X116567928Y-110271186D01*
X116730360Y-110358007D01*
X116853143Y-110395253D01*
X116906607Y-110411471D01*
X117089899Y-110429524D01*
X117135831Y-110425000D01*
X140660956Y-110425000D01*
X140730392Y-110509608D01*
X140948899Y-110688932D01*
X141198192Y-110822182D01*
X141468691Y-110904236D01*
X141679508Y-110925000D01*
X141820492Y-110925000D01*
X142031309Y-110904236D01*
X142301808Y-110822182D01*
X142551101Y-110688932D01*
X142769608Y-110509608D01*
X142948932Y-110291101D01*
X143082182Y-110041808D01*
X143164236Y-109771309D01*
X143191943Y-109490000D01*
X143164236Y-109208691D01*
X143082182Y-108938192D01*
X142948932Y-108688899D01*
X142769608Y-108470392D01*
X142551101Y-108291068D01*
X142418142Y-108220000D01*
X142551101Y-108148932D01*
X142769608Y-107969608D01*
X142948932Y-107751101D01*
X143082182Y-107501808D01*
X143164236Y-107231309D01*
X143191943Y-106950000D01*
X143164236Y-106668691D01*
X143082182Y-106398192D01*
X142948932Y-106148899D01*
X142769608Y-105930392D01*
X142551101Y-105751068D01*
X142418142Y-105680000D01*
X142551101Y-105608932D01*
X142769608Y-105429608D01*
X142948932Y-105211101D01*
X143026737Y-105065538D01*
X147484281Y-109523083D01*
X147495697Y-109638986D01*
X147539154Y-109782247D01*
X147609726Y-109914276D01*
X147668362Y-109985724D01*
X147704699Y-110030001D01*
X147820424Y-110124974D01*
X147952453Y-110195546D01*
X148095714Y-110239003D01*
X148145861Y-110243942D01*
X148171068Y-110291101D01*
X148350392Y-110509608D01*
X148568899Y-110688932D01*
X148818192Y-110822182D01*
X149088691Y-110904236D01*
X149299508Y-110925000D01*
X149440492Y-110925000D01*
X149651309Y-110904236D01*
X149921808Y-110822182D01*
X150171101Y-110688932D01*
X150389608Y-110509608D01*
X150568932Y-110291101D01*
X150702182Y-110041808D01*
X150784236Y-109771309D01*
X150811943Y-109490000D01*
X150784236Y-109208691D01*
X150702182Y-108938192D01*
X150568932Y-108688899D01*
X150389608Y-108470392D01*
X150171101Y-108291068D01*
X150038142Y-108220000D01*
X150171101Y-108148932D01*
X150389608Y-107969608D01*
X150568932Y-107751101D01*
X150702182Y-107501808D01*
X150784236Y-107231309D01*
X150811943Y-106950000D01*
X150784236Y-106668691D01*
X150702182Y-106398192D01*
X150568932Y-106148899D01*
X150389608Y-105930392D01*
X150171101Y-105751068D01*
X150038142Y-105680000D01*
X150171101Y-105608932D01*
X150389608Y-105429608D01*
X150568932Y-105211101D01*
X150702182Y-104961808D01*
X150784236Y-104691309D01*
X150811943Y-104410000D01*
X150784236Y-104128691D01*
X150702182Y-103858192D01*
X150568932Y-103608899D01*
X150493643Y-103517159D01*
X151022009Y-102988794D01*
X151051001Y-102965001D01*
X151074795Y-102936008D01*
X151074799Y-102936004D01*
X151145973Y-102849277D01*
X151145974Y-102849276D01*
X151216546Y-102717247D01*
X151260003Y-102573986D01*
X151271000Y-102462333D01*
X151271000Y-102462324D01*
X151274676Y-102425001D01*
X151271000Y-102387678D01*
X151271000Y-101455722D01*
X151274676Y-101418399D01*
X151271000Y-101381076D01*
X151271000Y-101381067D01*
X151260003Y-101269414D01*
X151216546Y-101126153D01*
X151145974Y-100994124D01*
X151123323Y-100966524D01*
X151074799Y-100907396D01*
X151074795Y-100907392D01*
X151051001Y-100878399D01*
X151022008Y-100854605D01*
X150447035Y-100279633D01*
X150568932Y-100131101D01*
X150702182Y-99881808D01*
X150784236Y-99611309D01*
X150811943Y-99330000D01*
X150784236Y-99048691D01*
X150702182Y-98778192D01*
X150568932Y-98528899D01*
X150389608Y-98310392D01*
X150171101Y-98131068D01*
X150130000Y-98109099D01*
X150130000Y-98010901D01*
X150171101Y-97988932D01*
X150389608Y-97809608D01*
X150568932Y-97591101D01*
X150702182Y-97341808D01*
X150784236Y-97071309D01*
X150811943Y-96790000D01*
X150784236Y-96508691D01*
X150702182Y-96238192D01*
X150568932Y-95988899D01*
X150389608Y-95770392D01*
X150171101Y-95591068D01*
X150033318Y-95517421D01*
X150225131Y-95402385D01*
X150433519Y-95213414D01*
X150601037Y-94987420D01*
X150721246Y-94733087D01*
X150761904Y-94599039D01*
X150639915Y-94377000D01*
X149497000Y-94377000D01*
X149497000Y-94397000D01*
X149243000Y-94397000D01*
X149243000Y-94377000D01*
X148100085Y-94377000D01*
X147978096Y-94599039D01*
X148018754Y-94733087D01*
X148138963Y-94987420D01*
X148306481Y-95213414D01*
X148514869Y-95402385D01*
X148706682Y-95517421D01*
X148568899Y-95591068D01*
X148350392Y-95770392D01*
X148171068Y-95988899D01*
X148149099Y-96030000D01*
X147645702Y-96030000D01*
X145516663Y-93900961D01*
X147978096Y-93900961D01*
X148100085Y-94123000D01*
X149243000Y-94123000D01*
X149243000Y-92979376D01*
X149497000Y-92979376D01*
X149497000Y-94123000D01*
X150639915Y-94123000D01*
X150761904Y-93900961D01*
X150721246Y-93766913D01*
X150601037Y-93512580D01*
X150433519Y-93286586D01*
X150225131Y-93097615D01*
X149983881Y-92952930D01*
X149719040Y-92858091D01*
X149497000Y-92979376D01*
X149243000Y-92979376D01*
X149020960Y-92858091D01*
X148756119Y-92952930D01*
X148514869Y-93097615D01*
X148306481Y-93286586D01*
X148138963Y-93512580D01*
X148018754Y-93766913D01*
X147978096Y-93900961D01*
X145516663Y-93900961D01*
X142474367Y-90858665D01*
X145815000Y-90858665D01*
X145815000Y-91141335D01*
X145870147Y-91418574D01*
X145978320Y-91679727D01*
X146135363Y-91914759D01*
X146335241Y-92114637D01*
X146570273Y-92271680D01*
X146831426Y-92379853D01*
X147108665Y-92435000D01*
X147391335Y-92435000D01*
X147668574Y-92379853D01*
X147929727Y-92271680D01*
X148164759Y-92114637D01*
X148286694Y-91992702D01*
X148936903Y-91992702D01*
X149008486Y-92236671D01*
X149263996Y-92357571D01*
X149538184Y-92426300D01*
X149820512Y-92440217D01*
X150100130Y-92398787D01*
X150366292Y-92303603D01*
X150491514Y-92236671D01*
X150563097Y-91992702D01*
X149750000Y-91179605D01*
X148936903Y-91992702D01*
X148286694Y-91992702D01*
X148364637Y-91914759D01*
X148498692Y-91714131D01*
X148513329Y-91741514D01*
X148757298Y-91813097D01*
X149570395Y-91000000D01*
X149929605Y-91000000D01*
X150742702Y-91813097D01*
X150986671Y-91741514D01*
X151107571Y-91486004D01*
X151176300Y-91211816D01*
X151190217Y-90929488D01*
X151148787Y-90649870D01*
X151053603Y-90383708D01*
X150986671Y-90258486D01*
X150742702Y-90186903D01*
X149929605Y-91000000D01*
X149570395Y-91000000D01*
X148757298Y-90186903D01*
X148513329Y-90258486D01*
X148499676Y-90287341D01*
X148364637Y-90085241D01*
X148286694Y-90007298D01*
X148936903Y-90007298D01*
X149750000Y-90820395D01*
X150563097Y-90007298D01*
X150491514Y-89763329D01*
X150236004Y-89642429D01*
X149961816Y-89573700D01*
X149679488Y-89559783D01*
X149399870Y-89601213D01*
X149133708Y-89696397D01*
X149008486Y-89763329D01*
X148936903Y-90007298D01*
X148286694Y-90007298D01*
X148164759Y-89885363D01*
X147929727Y-89728320D01*
X147668574Y-89620147D01*
X147391335Y-89565000D01*
X147108665Y-89565000D01*
X146831426Y-89620147D01*
X146570273Y-89728320D01*
X146335241Y-89885363D01*
X146135363Y-90085241D01*
X145978320Y-90320273D01*
X145870147Y-90581426D01*
X145815000Y-90858665D01*
X142474367Y-90858665D01*
X137744741Y-86129039D01*
X140358096Y-86129039D01*
X140398754Y-86263087D01*
X140518963Y-86517420D01*
X140686481Y-86743414D01*
X140894869Y-86932385D01*
X141136119Y-87077070D01*
X141400960Y-87171909D01*
X141623000Y-87050624D01*
X141623000Y-85907000D01*
X141877000Y-85907000D01*
X141877000Y-87050624D01*
X142099040Y-87171909D01*
X142363881Y-87077070D01*
X142605131Y-86932385D01*
X142813519Y-86743414D01*
X142981037Y-86517420D01*
X143101246Y-86263087D01*
X143141904Y-86129039D01*
X143019915Y-85907000D01*
X141877000Y-85907000D01*
X141623000Y-85907000D01*
X140480085Y-85907000D01*
X140358096Y-86129039D01*
X137744741Y-86129039D01*
X136755001Y-85139300D01*
X140473249Y-85139300D01*
X140398754Y-85296913D01*
X140358096Y-85430961D01*
X140480085Y-85653000D01*
X141623000Y-85653000D01*
X141623000Y-85633000D01*
X141877000Y-85633000D01*
X141877000Y-85653000D01*
X143019915Y-85653000D01*
X143141904Y-85430961D01*
X143101246Y-85296913D01*
X143026751Y-85139300D01*
X144528078Y-85139300D01*
X144565400Y-85142976D01*
X144602722Y-85139300D01*
X144602733Y-85139300D01*
X144714386Y-85128303D01*
X144857647Y-85084846D01*
X144989676Y-85014274D01*
X145105401Y-84919301D01*
X145129204Y-84890297D01*
X148327630Y-81691872D01*
X148350392Y-81719608D01*
X148568899Y-81898932D01*
X148701858Y-81970000D01*
X148568899Y-82041068D01*
X148350392Y-82220392D01*
X148171068Y-82438899D01*
X148037818Y-82688192D01*
X147955764Y-82958691D01*
X147928057Y-83240000D01*
X147955764Y-83521309D01*
X148037818Y-83791808D01*
X148171068Y-84041101D01*
X148350392Y-84259608D01*
X148568899Y-84438932D01*
X148701858Y-84510000D01*
X148568899Y-84581068D01*
X148350392Y-84760392D01*
X148171068Y-84978899D01*
X148037818Y-85228192D01*
X147955764Y-85498691D01*
X147928057Y-85780000D01*
X147955764Y-86061309D01*
X148037818Y-86331808D01*
X148171068Y-86581101D01*
X148350392Y-86799608D01*
X148568899Y-86978932D01*
X148818192Y-87112182D01*
X149088691Y-87194236D01*
X149299508Y-87215000D01*
X149440492Y-87215000D01*
X149651309Y-87194236D01*
X149921808Y-87112182D01*
X150171101Y-86978932D01*
X150389608Y-86799608D01*
X150568932Y-86581101D01*
X150702182Y-86331808D01*
X150784236Y-86061309D01*
X150811943Y-85780000D01*
X150784236Y-85498691D01*
X150702182Y-85228192D01*
X150568932Y-84978899D01*
X150389608Y-84760392D01*
X150171101Y-84581068D01*
X150038142Y-84510000D01*
X150171101Y-84438932D01*
X150389608Y-84259608D01*
X150568932Y-84041101D01*
X150702182Y-83791808D01*
X150784236Y-83521309D01*
X150811943Y-83240000D01*
X150784236Y-82958691D01*
X150702182Y-82688192D01*
X150568932Y-82438899D01*
X150389608Y-82220392D01*
X150171101Y-82041068D01*
X150038142Y-81970000D01*
X150171101Y-81898932D01*
X150389608Y-81719608D01*
X150568932Y-81501101D01*
X150702182Y-81251808D01*
X150784236Y-80981309D01*
X150811943Y-80700000D01*
X150784236Y-80418691D01*
X150702182Y-80148192D01*
X150568932Y-79898899D01*
X150389608Y-79680392D01*
X150171101Y-79501068D01*
X150038142Y-79430000D01*
X150171101Y-79358932D01*
X150389608Y-79179608D01*
X150568932Y-78961101D01*
X150702182Y-78711808D01*
X150784236Y-78441309D01*
X150811943Y-78160000D01*
X150784236Y-77878691D01*
X150702182Y-77608192D01*
X150568932Y-77358899D01*
X150389608Y-77140392D01*
X150171101Y-76961068D01*
X150038142Y-76890000D01*
X150171101Y-76818932D01*
X150389608Y-76639608D01*
X150568932Y-76421101D01*
X150702182Y-76171808D01*
X150784236Y-75901309D01*
X150811943Y-75620000D01*
X150784236Y-75338691D01*
X150702182Y-75068192D01*
X150568932Y-74818899D01*
X150389608Y-74600392D01*
X150171101Y-74421068D01*
X150123942Y-74395861D01*
X150119003Y-74345714D01*
X150108840Y-74312211D01*
X150171101Y-74278932D01*
X150389608Y-74099608D01*
X150568932Y-73881101D01*
X150702182Y-73631808D01*
X150784236Y-73361309D01*
X150811943Y-73080000D01*
X150784236Y-72798691D01*
X150702182Y-72528192D01*
X150568932Y-72278899D01*
X150389608Y-72060392D01*
X150171101Y-71881068D01*
X150123942Y-71855861D01*
X150119003Y-71805714D01*
X150108840Y-71772211D01*
X150171101Y-71738932D01*
X150389608Y-71559608D01*
X150568932Y-71341101D01*
X150702182Y-71091808D01*
X150784236Y-70821309D01*
X150811943Y-70540000D01*
X150784236Y-70258691D01*
X150702182Y-69988192D01*
X150568932Y-69738899D01*
X150389608Y-69520392D01*
X150171101Y-69341068D01*
X150038142Y-69270000D01*
X150171101Y-69198932D01*
X150389608Y-69019608D01*
X150568932Y-68801101D01*
X150702182Y-68551808D01*
X150784236Y-68281309D01*
X150811943Y-68000000D01*
X150784236Y-67718691D01*
X150702182Y-67448192D01*
X150568932Y-67198899D01*
X150389608Y-66980392D01*
X150171101Y-66801068D01*
X149921808Y-66667818D01*
X149651309Y-66585764D01*
X149440492Y-66565000D01*
X149299508Y-66565000D01*
X149088691Y-66585764D01*
X148818192Y-66667818D01*
X148568899Y-66801068D01*
X148350392Y-66980392D01*
X148171068Y-67198899D01*
X148037818Y-67448192D01*
X147955764Y-67718691D01*
X147928057Y-68000000D01*
X147955764Y-68281309D01*
X148037818Y-68551808D01*
X148171068Y-68801101D01*
X148350392Y-69019608D01*
X148568899Y-69198932D01*
X148701858Y-69270000D01*
X148568899Y-69341068D01*
X148350392Y-69520392D01*
X148171068Y-69738899D01*
X148037818Y-69988192D01*
X147955764Y-70258691D01*
X147951006Y-70307004D01*
X142502667Y-64858665D01*
X146065000Y-64858665D01*
X146065000Y-65141335D01*
X146120147Y-65418574D01*
X146228320Y-65679727D01*
X146385363Y-65914759D01*
X146585241Y-66114637D01*
X146820273Y-66271680D01*
X147081426Y-66379853D01*
X147358665Y-66435000D01*
X147641335Y-66435000D01*
X147918574Y-66379853D01*
X148179727Y-66271680D01*
X148414759Y-66114637D01*
X148536694Y-65992702D01*
X149186903Y-65992702D01*
X149258486Y-66236671D01*
X149513996Y-66357571D01*
X149788184Y-66426300D01*
X150070512Y-66440217D01*
X150350130Y-66398787D01*
X150616292Y-66303603D01*
X150741514Y-66236671D01*
X150813097Y-65992702D01*
X150000000Y-65179605D01*
X149186903Y-65992702D01*
X148536694Y-65992702D01*
X148614637Y-65914759D01*
X148748692Y-65714131D01*
X148763329Y-65741514D01*
X149007298Y-65813097D01*
X149820395Y-65000000D01*
X150179605Y-65000000D01*
X150992702Y-65813097D01*
X151236671Y-65741514D01*
X151357571Y-65486004D01*
X151426300Y-65211816D01*
X151440217Y-64929488D01*
X151398787Y-64649870D01*
X151303603Y-64383708D01*
X151236671Y-64258486D01*
X150992702Y-64186903D01*
X150179605Y-65000000D01*
X149820395Y-65000000D01*
X149007298Y-64186903D01*
X148763329Y-64258486D01*
X148749676Y-64287341D01*
X148614637Y-64085241D01*
X148536694Y-64007298D01*
X149186903Y-64007298D01*
X150000000Y-64820395D01*
X150813097Y-64007298D01*
X150741514Y-63763329D01*
X150486004Y-63642429D01*
X150211816Y-63573700D01*
X149929488Y-63559783D01*
X149649870Y-63601213D01*
X149383708Y-63696397D01*
X149258486Y-63763329D01*
X149186903Y-64007298D01*
X148536694Y-64007298D01*
X148414759Y-63885363D01*
X148179727Y-63728320D01*
X147918574Y-63620147D01*
X147641335Y-63565000D01*
X147358665Y-63565000D01*
X147081426Y-63620147D01*
X146820273Y-63728320D01*
X146585241Y-63885363D01*
X146385363Y-64085241D01*
X146228320Y-64320273D01*
X146120147Y-64581426D01*
X146065000Y-64858665D01*
X142502667Y-64858665D01*
X137863004Y-60219003D01*
X137839201Y-60189999D01*
X137723476Y-60095026D01*
X137591447Y-60024454D01*
X137448186Y-59980997D01*
X137336533Y-59970000D01*
X137336522Y-59970000D01*
X137299200Y-59966324D01*
X137261878Y-59970000D01*
X135907114Y-59970000D01*
X135973513Y-59751111D01*
X136002185Y-59460000D01*
X135973513Y-59168889D01*
X135888599Y-58888966D01*
X135750706Y-58630986D01*
X135565134Y-58404866D01*
X135339014Y-58219294D01*
X135081034Y-58081401D01*
X134801111Y-57996487D01*
X134582950Y-57975000D01*
X134437050Y-57975000D01*
X134218889Y-57996487D01*
X133938966Y-58081401D01*
X133680986Y-58219294D01*
X133454866Y-58404866D01*
X133269294Y-58630986D01*
X133240000Y-58685791D01*
X133210706Y-58630986D01*
X133025134Y-58404866D01*
X132799014Y-58219294D01*
X132541034Y-58081401D01*
X132261111Y-57996487D01*
X132042950Y-57975000D01*
X131897050Y-57975000D01*
X131678889Y-57996487D01*
X131398966Y-58081401D01*
X131140986Y-58219294D01*
X130914866Y-58404866D01*
X130729294Y-58630986D01*
X130700000Y-58685791D01*
X130670706Y-58630986D01*
X130485134Y-58404866D01*
X130259014Y-58219294D01*
X130001034Y-58081401D01*
X129721111Y-57996487D01*
X129502950Y-57975000D01*
X129357050Y-57975000D01*
X129138889Y-57996487D01*
X128858966Y-58081401D01*
X128600986Y-58219294D01*
X128374866Y-58404866D01*
X128189294Y-58630986D01*
X128160000Y-58685791D01*
X128130706Y-58630986D01*
X127945134Y-58404866D01*
X127719014Y-58219294D01*
X127461034Y-58081401D01*
X127181111Y-57996487D01*
X126962950Y-57975000D01*
X126817050Y-57975000D01*
X126598889Y-57996487D01*
X126318966Y-58081401D01*
X126060986Y-58219294D01*
X125834866Y-58404866D01*
X125649294Y-58630986D01*
X125620000Y-58685791D01*
X125590706Y-58630986D01*
X125405134Y-58404866D01*
X125179014Y-58219294D01*
X124921034Y-58081401D01*
X124641111Y-57996487D01*
X124422950Y-57975000D01*
X124277050Y-57975000D01*
X124058889Y-57996487D01*
X123778966Y-58081401D01*
X123520986Y-58219294D01*
X123441406Y-58284604D01*
X122911703Y-57754902D01*
X122887901Y-57725899D01*
X122772176Y-57630926D01*
X122640147Y-57560354D01*
X122496886Y-57516897D01*
X122385233Y-57505900D01*
X122385222Y-57505900D01*
X122347900Y-57502224D01*
X122310578Y-57505900D01*
X121378533Y-57505900D01*
X121341200Y-57502223D01*
X121303867Y-57505900D01*
X121192214Y-57516897D01*
X121048953Y-57560354D01*
X120916924Y-57630926D01*
X120801199Y-57725899D01*
X120777401Y-57754897D01*
X120216547Y-58315751D01*
X120099014Y-58219294D01*
X119841034Y-58081401D01*
X119561111Y-57996487D01*
X119342950Y-57975000D01*
X119197050Y-57975000D01*
X118978889Y-57996487D01*
X118698966Y-58081401D01*
X118440986Y-58219294D01*
X118214866Y-58404866D01*
X118029294Y-58630986D01*
X118000000Y-58685791D01*
X117970706Y-58630986D01*
X117785134Y-58404866D01*
X117559014Y-58219294D01*
X117301034Y-58081401D01*
X117021111Y-57996487D01*
X116802950Y-57975000D01*
X116657050Y-57975000D01*
X116438889Y-57996487D01*
X116158966Y-58081401D01*
X115900986Y-58219294D01*
X115674866Y-58404866D01*
X115489294Y-58630986D01*
X115460000Y-58685791D01*
X115430706Y-58630986D01*
X115245134Y-58404866D01*
X115019014Y-58219294D01*
X114761034Y-58081401D01*
X114481111Y-57996487D01*
X114262950Y-57975000D01*
X114117050Y-57975000D01*
X113898889Y-57996487D01*
X113618966Y-58081401D01*
X113360986Y-58219294D01*
X113134866Y-58404866D01*
X112949294Y-58630986D01*
X112920000Y-58685791D01*
X112890706Y-58630986D01*
X112705134Y-58404866D01*
X112479014Y-58219294D01*
X112221034Y-58081401D01*
X111941111Y-57996487D01*
X111722950Y-57975000D01*
X111577050Y-57975000D01*
X111358889Y-57996487D01*
X111078966Y-58081401D01*
X110820986Y-58219294D01*
X110594866Y-58404866D01*
X110409294Y-58630986D01*
X110380000Y-58685791D01*
X110350706Y-58630986D01*
X110165134Y-58404866D01*
X109939014Y-58219294D01*
X109681034Y-58081401D01*
X109401111Y-57996487D01*
X109182950Y-57975000D01*
X109037050Y-57975000D01*
X108818889Y-57996487D01*
X108538966Y-58081401D01*
X108280986Y-58219294D01*
X108054866Y-58404866D01*
X107869294Y-58630986D01*
X107840000Y-58685791D01*
X107810706Y-58630986D01*
X107625134Y-58404866D01*
X107399014Y-58219294D01*
X107141034Y-58081401D01*
X106861111Y-57996487D01*
X106642950Y-57975000D01*
X106497050Y-57975000D01*
X106278889Y-57996487D01*
X105998966Y-58081401D01*
X105740986Y-58219294D01*
X105514866Y-58404866D01*
X105329294Y-58630986D01*
X105300000Y-58685791D01*
X105270706Y-58630986D01*
X105085134Y-58404866D01*
X104859014Y-58219294D01*
X104601034Y-58081401D01*
X104321111Y-57996487D01*
X104102950Y-57975000D01*
X103957050Y-57975000D01*
X103738889Y-57996487D01*
X103458966Y-58081401D01*
X103200986Y-58219294D01*
X102974866Y-58404866D01*
X102789294Y-58630986D01*
X102760000Y-58685791D01*
X102730706Y-58630986D01*
X102545134Y-58404866D01*
X102319014Y-58219294D01*
X102061034Y-58081401D01*
X101781111Y-57996487D01*
X101562950Y-57975000D01*
X101417050Y-57975000D01*
X101198889Y-57996487D01*
X100918966Y-58081401D01*
X100660986Y-58219294D01*
X100434866Y-58404866D01*
X100249294Y-58630986D01*
X100220000Y-58685791D01*
X100190706Y-58630986D01*
X100005134Y-58404866D01*
X99779014Y-58219294D01*
X99521034Y-58081401D01*
X99241111Y-57996487D01*
X99022950Y-57975000D01*
X98877050Y-57975000D01*
X98658889Y-57996487D01*
X98378966Y-58081401D01*
X98120986Y-58219294D01*
X98041461Y-58284559D01*
X97530603Y-57773702D01*
X97506801Y-57744699D01*
X97391076Y-57649726D01*
X97259047Y-57579154D01*
X97115786Y-57535697D01*
X97004133Y-57524700D01*
X97004122Y-57524700D01*
X96966800Y-57521024D01*
X96929478Y-57524700D01*
X95942625Y-57524700D01*
X95905300Y-57521024D01*
X95867975Y-57524700D01*
X95867967Y-57524700D01*
X95756314Y-57535697D01*
X95613053Y-57579154D01*
X95481024Y-57649726D01*
X95365299Y-57744699D01*
X95341501Y-57773698D01*
X94807155Y-58308043D01*
X94699014Y-58219294D01*
X94441034Y-58081401D01*
X94161111Y-57996487D01*
X93942950Y-57975000D01*
X93797050Y-57975000D01*
X93578889Y-57996487D01*
X93298966Y-58081401D01*
X93040986Y-58219294D01*
X92814866Y-58404866D01*
X92629294Y-58630986D01*
X92600000Y-58685791D01*
X92570706Y-58630986D01*
X92385134Y-58404866D01*
X92159014Y-58219294D01*
X91901034Y-58081401D01*
X91621111Y-57996487D01*
X91402950Y-57975000D01*
X91257050Y-57975000D01*
X91038889Y-57996487D01*
X90758966Y-58081401D01*
X90500986Y-58219294D01*
X90274866Y-58404866D01*
X90089294Y-58630986D01*
X90054799Y-58695523D01*
X89985178Y-58578645D01*
X89790269Y-58362412D01*
X89556920Y-58188359D01*
X89294099Y-58063175D01*
X89146890Y-58018524D01*
X88917000Y-58139845D01*
X88917000Y-59333000D01*
X88937000Y-59333000D01*
X88937000Y-59587000D01*
X88917000Y-59587000D01*
X88917000Y-59607000D01*
X88663000Y-59607000D01*
X88663000Y-59587000D01*
X86377000Y-59587000D01*
X86377000Y-59607000D01*
X86123000Y-59607000D01*
X86123000Y-59587000D01*
X84929186Y-59587000D01*
X84808519Y-59816891D01*
X84905843Y-60091252D01*
X85054822Y-60341355D01*
X85231626Y-60537502D01*
X85155820Y-60560498D01*
X85045506Y-60619463D01*
X84948815Y-60698815D01*
X84869463Y-60795506D01*
X84810498Y-60905820D01*
X84774188Y-61025518D01*
X84761928Y-61150000D01*
X84761928Y-62850000D01*
X84774188Y-62974482D01*
X84810498Y-63094180D01*
X84869463Y-63204494D01*
X84948815Y-63301185D01*
X85045506Y-63380537D01*
X85155820Y-63439502D01*
X85275518Y-63475812D01*
X85400000Y-63488072D01*
X87100000Y-63488072D01*
X87224482Y-63475812D01*
X87344180Y-63439502D01*
X87454494Y-63380537D01*
X87551185Y-63301185D01*
X87630537Y-63204494D01*
X87689502Y-63094180D01*
X87710393Y-63025313D01*
X87734866Y-63055134D01*
X87960986Y-63240706D01*
X88218966Y-63378599D01*
X88498889Y-63463513D01*
X88717050Y-63485000D01*
X88862950Y-63485000D01*
X89081111Y-63463513D01*
X89361034Y-63378599D01*
X89619014Y-63240706D01*
X89845134Y-63055134D01*
X90030706Y-62829014D01*
X90060000Y-62774209D01*
X90089294Y-62829014D01*
X90274866Y-63055134D01*
X90500986Y-63240706D01*
X90758966Y-63378599D01*
X91038889Y-63463513D01*
X91257050Y-63485000D01*
X91402950Y-63485000D01*
X91621111Y-63463513D01*
X91901034Y-63378599D01*
X92159014Y-63240706D01*
X92385134Y-63055134D01*
X92570706Y-62829014D01*
X92600000Y-62774209D01*
X92629294Y-62829014D01*
X92814866Y-63055134D01*
X93040986Y-63240706D01*
X93298966Y-63378599D01*
X93578889Y-63463513D01*
X93797050Y-63485000D01*
X93942950Y-63485000D01*
X94161111Y-63463513D01*
X94380001Y-63397113D01*
X94380000Y-72343398D01*
X88750087Y-77973312D01*
X88688932Y-77858899D01*
X88509608Y-77640392D01*
X88291101Y-77461068D01*
X88158142Y-77390000D01*
X88291101Y-77318932D01*
X88509608Y-77139608D01*
X88688932Y-76921101D01*
X88822182Y-76671808D01*
X88904236Y-76401309D01*
X88931943Y-76120000D01*
X88904236Y-75838691D01*
X88891864Y-75797907D01*
X89006102Y-75845226D01*
X89206061Y-75885000D01*
X89409939Y-75885000D01*
X89609898Y-75845226D01*
X89798256Y-75767205D01*
X89967774Y-75653937D01*
X90111937Y-75509774D01*
X90225205Y-75340256D01*
X90303226Y-75151898D01*
X90343000Y-74951939D01*
X90343000Y-74748061D01*
X90303226Y-74548102D01*
X90225205Y-74359744D01*
X90111937Y-74190226D01*
X89967774Y-74046063D01*
X89798256Y-73932795D01*
X89609898Y-73854774D01*
X89409939Y-73815000D01*
X89206061Y-73815000D01*
X89006102Y-73854774D01*
X88891864Y-73902093D01*
X88904236Y-73861309D01*
X88931943Y-73580000D01*
X88904236Y-73298691D01*
X88822182Y-73028192D01*
X88688932Y-72778899D01*
X88613643Y-72687159D01*
X89127704Y-72173098D01*
X89156701Y-72149301D01*
X89206280Y-72088889D01*
X89251674Y-72033577D01*
X89322246Y-71901547D01*
X89330700Y-71873676D01*
X89365703Y-71758286D01*
X89376700Y-71646633D01*
X89376700Y-71646624D01*
X89380376Y-71609301D01*
X89376700Y-71571978D01*
X89376700Y-70611222D01*
X89380376Y-70573899D01*
X89376700Y-70536576D01*
X89376700Y-70536567D01*
X89365703Y-70424914D01*
X89322246Y-70281653D01*
X89277968Y-70198815D01*
X89251674Y-70149623D01*
X89180499Y-70062897D01*
X89156701Y-70033899D01*
X89127702Y-70010100D01*
X88567125Y-69449524D01*
X88688932Y-69301101D01*
X88822182Y-69051808D01*
X88904236Y-68781309D01*
X88931943Y-68500000D01*
X88904236Y-68218691D01*
X88822182Y-67948192D01*
X88688932Y-67698899D01*
X88509608Y-67480392D01*
X88291101Y-67301068D01*
X88041808Y-67167818D01*
X87771309Y-67085764D01*
X87560492Y-67065000D01*
X87419508Y-67065000D01*
X87208691Y-67085764D01*
X86938192Y-67167818D01*
X86688899Y-67301068D01*
X86470392Y-67480392D01*
X86447630Y-67508128D01*
X85803004Y-66863502D01*
X85779201Y-66834499D01*
X85663476Y-66739526D01*
X85531447Y-66668954D01*
X85388186Y-66625497D01*
X85276533Y-66614500D01*
X85276522Y-66614500D01*
X85239200Y-66610824D01*
X85201878Y-66614500D01*
X71153025Y-66614500D01*
X71115700Y-66610824D01*
X71078375Y-66614500D01*
X71078367Y-66614500D01*
X70966714Y-66625497D01*
X70823453Y-66668954D01*
X70691424Y-66739526D01*
X70575699Y-66834499D01*
X70551901Y-66863497D01*
X68132750Y-69282649D01*
X68128599Y-69268966D01*
X67990706Y-69010986D01*
X67805134Y-68784866D01*
X67579014Y-68599294D01*
X67524209Y-68570000D01*
X67579014Y-68540706D01*
X67805134Y-68355134D01*
X67990706Y-68129014D01*
X68128599Y-67871034D01*
X68213513Y-67591111D01*
X68242185Y-67300000D01*
X68213513Y-67008889D01*
X68128599Y-66728966D01*
X67990706Y-66470986D01*
X67805134Y-66244866D01*
X67579014Y-66059294D01*
X67524209Y-66030000D01*
X67579014Y-66000706D01*
X67805134Y-65815134D01*
X67903725Y-65695000D01*
X68054368Y-65695000D01*
X68100300Y-65699524D01*
X68146232Y-65695000D01*
X68283592Y-65681471D01*
X68459840Y-65628007D01*
X68622272Y-65541186D01*
X68764644Y-65424344D01*
X68793930Y-65388659D01*
X71997589Y-62185000D01*
X73077379Y-62185000D01*
X73110498Y-62294180D01*
X73169463Y-62404494D01*
X73248815Y-62501185D01*
X73345506Y-62580537D01*
X73455820Y-62639502D01*
X73575518Y-62675812D01*
X73700000Y-62688072D01*
X75300000Y-62688072D01*
X75424482Y-62675812D01*
X75544180Y-62639502D01*
X75654494Y-62580537D01*
X75751185Y-62501185D01*
X75830537Y-62404494D01*
X75889502Y-62294180D01*
X75925812Y-62174482D01*
X75938072Y-62050000D01*
X75938072Y-60450000D01*
X75925812Y-60325518D01*
X75889502Y-60205820D01*
X75830537Y-60095506D01*
X75751185Y-59998815D01*
X75654494Y-59919463D01*
X75544180Y-59860498D01*
X75424482Y-59824188D01*
X75300000Y-59811928D01*
X75292785Y-59811928D01*
X75313097Y-59742702D01*
X74500000Y-58929605D01*
X73686903Y-59742702D01*
X73707215Y-59811928D01*
X73700000Y-59811928D01*
X73575518Y-59824188D01*
X73455820Y-59860498D01*
X73345506Y-59919463D01*
X73248815Y-59998815D01*
X73169463Y-60095506D01*
X73110498Y-60205820D01*
X73077379Y-60315000D01*
X71656235Y-60315000D01*
X71610300Y-60310476D01*
X71427008Y-60328528D01*
X71250759Y-60381993D01*
X71194180Y-60412235D01*
X71088328Y-60468814D01*
X70945956Y-60585656D01*
X70916670Y-60621341D01*
X67817760Y-63720251D01*
X67805134Y-63704866D01*
X67579014Y-63519294D01*
X67321034Y-63381401D01*
X67041111Y-63296487D01*
X66822950Y-63275000D01*
X66677050Y-63275000D01*
X66458889Y-63296487D01*
X66178966Y-63381401D01*
X65920986Y-63519294D01*
X65694866Y-63704866D01*
X65509294Y-63930986D01*
X65478416Y-63988756D01*
X65307588Y-63759731D01*
X65091355Y-63564822D01*
X64841252Y-63415843D01*
X64566891Y-63318519D01*
X64337000Y-63439186D01*
X64337000Y-64633000D01*
X64357000Y-64633000D01*
X64357000Y-64887000D01*
X64337000Y-64887000D01*
X64337000Y-64907000D01*
X64083000Y-64907000D01*
X64083000Y-64887000D01*
X62889845Y-64887000D01*
X62768524Y-65116890D01*
X62813175Y-65264099D01*
X62938359Y-65526920D01*
X63112412Y-65760269D01*
X63328645Y-65955178D01*
X63445523Y-66024799D01*
X63380986Y-66059294D01*
X63154866Y-66244866D01*
X62969294Y-66470986D01*
X62831401Y-66728966D01*
X62746487Y-67008889D01*
X62717815Y-67300000D01*
X62746487Y-67591111D01*
X62831401Y-67871034D01*
X62969294Y-68129014D01*
X63034604Y-68208594D01*
X61562498Y-69680701D01*
X61533500Y-69704499D01*
X61509702Y-69733497D01*
X61509701Y-69733498D01*
X61438526Y-69820224D01*
X61367954Y-69952254D01*
X61324498Y-70095515D01*
X61309824Y-70244500D01*
X60710000Y-70244500D01*
X60710000Y-64403110D01*
X62768524Y-64403110D01*
X62889845Y-64633000D01*
X64083000Y-64633000D01*
X64083000Y-63439186D01*
X63853109Y-63318519D01*
X63578748Y-63415843D01*
X63328645Y-63564822D01*
X63112412Y-63759731D01*
X62938359Y-63993080D01*
X62813175Y-64255901D01*
X62768524Y-64403110D01*
X60710000Y-64403110D01*
X60710000Y-58820512D01*
X73059783Y-58820512D01*
X73101213Y-59100130D01*
X73196397Y-59366292D01*
X73263329Y-59491514D01*
X73507298Y-59563097D01*
X74320395Y-58750000D01*
X74679605Y-58750000D01*
X75492702Y-59563097D01*
X75736671Y-59491514D01*
X75857571Y-59236004D01*
X75890882Y-59103109D01*
X84808519Y-59103109D01*
X84929186Y-59333000D01*
X86123000Y-59333000D01*
X86123000Y-58139845D01*
X86377000Y-58139845D01*
X86377000Y-59333000D01*
X88663000Y-59333000D01*
X88663000Y-58139845D01*
X88433110Y-58018524D01*
X88285901Y-58063175D01*
X88023080Y-58188359D01*
X87789731Y-58362412D01*
X87594822Y-58578645D01*
X87520000Y-58704255D01*
X87445178Y-58578645D01*
X87250269Y-58362412D01*
X87016920Y-58188359D01*
X86754099Y-58063175D01*
X86606890Y-58018524D01*
X86377000Y-58139845D01*
X86123000Y-58139845D01*
X85893110Y-58018524D01*
X85745901Y-58063175D01*
X85483080Y-58188359D01*
X85249731Y-58362412D01*
X85054822Y-58578645D01*
X84905843Y-58828748D01*
X84808519Y-59103109D01*
X75890882Y-59103109D01*
X75926300Y-58961816D01*
X75940217Y-58679488D01*
X75898787Y-58399870D01*
X75803603Y-58133708D01*
X75736671Y-58008486D01*
X75492702Y-57936903D01*
X74679605Y-58750000D01*
X74320395Y-58750000D01*
X73507298Y-57936903D01*
X73263329Y-58008486D01*
X73142429Y-58263996D01*
X73073700Y-58538184D01*
X73059783Y-58820512D01*
X60710000Y-58820512D01*
X60710000Y-57757298D01*
X73686903Y-57757298D01*
X74500000Y-58570395D01*
X75313097Y-57757298D01*
X75241514Y-57513329D01*
X74986004Y-57392429D01*
X74711816Y-57323700D01*
X74429488Y-57309783D01*
X74149870Y-57351213D01*
X73883708Y-57446397D01*
X73758486Y-57513329D01*
X73686903Y-57757298D01*
X60710000Y-57757298D01*
X60710000Y-54279872D01*
X63265000Y-54279872D01*
X63265000Y-54720128D01*
X63350890Y-55151925D01*
X63519369Y-55558669D01*
X63763962Y-55924729D01*
X64075271Y-56236038D01*
X64441331Y-56480631D01*
X64848075Y-56649110D01*
X65279872Y-56735000D01*
X65720128Y-56735000D01*
X66151925Y-56649110D01*
X66558669Y-56480631D01*
X66924729Y-56236038D01*
X67236038Y-55924729D01*
X67480631Y-55558669D01*
X67649110Y-55151925D01*
X67735000Y-54720128D01*
X67735000Y-54279872D01*
X152265000Y-54279872D01*
X152265000Y-54720128D01*
X152350890Y-55151925D01*
X152519369Y-55558669D01*
X152763962Y-55924729D01*
X153075271Y-56236038D01*
X153441331Y-56480631D01*
X153848075Y-56649110D01*
X154279872Y-56735000D01*
X154720128Y-56735000D01*
X155151925Y-56649110D01*
X155558669Y-56480631D01*
X155924729Y-56236038D01*
X156236038Y-55924729D01*
X156480631Y-55558669D01*
X156649110Y-55151925D01*
X156735000Y-54720128D01*
X156735000Y-54279872D01*
X156649110Y-53848075D01*
X156480631Y-53441331D01*
X156236038Y-53075271D01*
X155924729Y-52763962D01*
X155558669Y-52519369D01*
X155151925Y-52350890D01*
X154720128Y-52265000D01*
X154279872Y-52265000D01*
X153848075Y-52350890D01*
X153441331Y-52519369D01*
X153075271Y-52763962D01*
X152763962Y-53075271D01*
X152519369Y-53441331D01*
X152350890Y-53848075D01*
X152265000Y-54279872D01*
X67735000Y-54279872D01*
X67649110Y-53848075D01*
X67480631Y-53441331D01*
X67236038Y-53075271D01*
X66924729Y-52763962D01*
X66558669Y-52519369D01*
X66151925Y-52350890D01*
X65720128Y-52265000D01*
X65279872Y-52265000D01*
X64848075Y-52350890D01*
X64441331Y-52519369D01*
X64075271Y-52763962D01*
X63763962Y-53075271D01*
X63519369Y-53441331D01*
X63350890Y-53848075D01*
X63265000Y-54279872D01*
X60710000Y-54279872D01*
X60710000Y-50710000D01*
X159290000Y-50710000D01*
X159290001Y-124290000D01*
G36*
X86470392Y-77139608D02*
G01*
X86688899Y-77318932D01*
X86821858Y-77390000D01*
X86688899Y-77461068D01*
X86470392Y-77640392D01*
X86291068Y-77858899D01*
X86157818Y-78108192D01*
X86075764Y-78378691D01*
X86048057Y-78660000D01*
X86075764Y-78941309D01*
X86157818Y-79211808D01*
X86291068Y-79461101D01*
X86391960Y-79584038D01*
X85803698Y-80172301D01*
X85774700Y-80196099D01*
X85750902Y-80225097D01*
X85750901Y-80225098D01*
X85679726Y-80311824D01*
X85609154Y-80443854D01*
X85587648Y-80514754D01*
X85565698Y-80587114D01*
X85555202Y-80693676D01*
X85551024Y-80736100D01*
X85554701Y-80773432D01*
X85554700Y-89303378D01*
X85551024Y-89340700D01*
X85554700Y-89378022D01*
X85554700Y-89378032D01*
X85565697Y-89489685D01*
X85592789Y-89578996D01*
X85609154Y-89632946D01*
X85679726Y-89764976D01*
X85706626Y-89797753D01*
X85774699Y-89880701D01*
X85803702Y-89904503D01*
X86366357Y-90467159D01*
X86291068Y-90558899D01*
X86157818Y-90808192D01*
X86075764Y-91078691D01*
X86048057Y-91360000D01*
X86075764Y-91641309D01*
X86157818Y-91911808D01*
X86291068Y-92161101D01*
X86470392Y-92379608D01*
X86688899Y-92558932D01*
X86821858Y-92630000D01*
X86688899Y-92701068D01*
X86470392Y-92880392D01*
X86291068Y-93098899D01*
X86157818Y-93348192D01*
X86075764Y-93618691D01*
X86048057Y-93900000D01*
X86075764Y-94181309D01*
X86089292Y-94225906D01*
X85814198Y-94501001D01*
X85785200Y-94524799D01*
X85761402Y-94553797D01*
X85761401Y-94553798D01*
X85690226Y-94640524D01*
X85619654Y-94772554D01*
X85589380Y-94872358D01*
X85576198Y-94915814D01*
X85565695Y-95022453D01*
X85561524Y-95064800D01*
X85565201Y-95102132D01*
X85565200Y-96886277D01*
X85561524Y-96923600D01*
X85565200Y-96960922D01*
X85565200Y-96960932D01*
X85576197Y-97072585D01*
X85614443Y-97198666D01*
X85619654Y-97215846D01*
X85690226Y-97347876D01*
X85723920Y-97388932D01*
X85785199Y-97463601D01*
X85814202Y-97487403D01*
X86387813Y-98061015D01*
X86291068Y-98178899D01*
X86157818Y-98428192D01*
X86075764Y-98698691D01*
X86048057Y-98980000D01*
X86075764Y-99261309D01*
X86089292Y-99305906D01*
X85813998Y-99581201D01*
X85785000Y-99604999D01*
X85761202Y-99633997D01*
X85761201Y-99633998D01*
X85690026Y-99720724D01*
X85619454Y-99852754D01*
X85607004Y-99893799D01*
X85577704Y-99990392D01*
X85575998Y-99996015D01*
X85561324Y-100145000D01*
X85565001Y-100182332D01*
X85565001Y-100812712D01*
X80935000Y-96182711D01*
X80935000Y-85344396D01*
X81114637Y-85164759D01*
X81271680Y-84929727D01*
X81379853Y-84668574D01*
X81435000Y-84391335D01*
X81435000Y-84108665D01*
X81379853Y-83831426D01*
X81271680Y-83570273D01*
X81114637Y-83335241D01*
X80914759Y-83135363D01*
X80679727Y-82978320D01*
X80418574Y-82870147D01*
X80141335Y-82815000D01*
X79858665Y-82815000D01*
X79581426Y-82870147D01*
X79320273Y-82978320D01*
X79085241Y-83135363D01*
X78885363Y-83335241D01*
X78751308Y-83535869D01*
X78736671Y-83508486D01*
X78492702Y-83436903D01*
X77679605Y-84250000D01*
X78492702Y-85063097D01*
X78736671Y-84991514D01*
X78750324Y-84962659D01*
X78885363Y-85164759D01*
X79065001Y-85344397D01*
X79065000Y-96524068D01*
X79060476Y-96570000D01*
X79067471Y-96641015D01*
X79078529Y-96753291D01*
X79131993Y-96929539D01*
X79218814Y-97091971D01*
X79335656Y-97234344D01*
X79371341Y-97263630D01*
X86058785Y-103951074D01*
X86048057Y-104060000D01*
X86075764Y-104341309D01*
X86157818Y-104611808D01*
X86212815Y-104714700D01*
X74537933Y-104714700D01*
X74500600Y-104711023D01*
X74463267Y-104714700D01*
X74351614Y-104725697D01*
X74208353Y-104769154D01*
X74076324Y-104839726D01*
X73960599Y-104934699D01*
X73936801Y-104963697D01*
X73292370Y-105608128D01*
X73269608Y-105580392D01*
X73051101Y-105401068D01*
X72918142Y-105330000D01*
X73051101Y-105258932D01*
X73269608Y-105079608D01*
X73448932Y-104861101D01*
X73582182Y-104611808D01*
X73664236Y-104341309D01*
X73691943Y-104060000D01*
X73664236Y-103778691D01*
X73582182Y-103508192D01*
X73448932Y-103258899D01*
X73269608Y-103040392D01*
X73051101Y-102861068D01*
X72988840Y-102827789D01*
X72999003Y-102794286D01*
X73003942Y-102744139D01*
X73051101Y-102718932D01*
X73269608Y-102539608D01*
X73448932Y-102321101D01*
X73582182Y-102071808D01*
X73664236Y-101801309D01*
X73691943Y-101520000D01*
X73664236Y-101238691D01*
X73582182Y-100968192D01*
X73448932Y-100718899D01*
X73269608Y-100500392D01*
X73051101Y-100321068D01*
X72918142Y-100250000D01*
X73051101Y-100178932D01*
X73269608Y-99999608D01*
X73448932Y-99781101D01*
X73582182Y-99531808D01*
X73664236Y-99261309D01*
X73691943Y-98980000D01*
X73664236Y-98698691D01*
X73582182Y-98428192D01*
X73448932Y-98178899D01*
X73269608Y-97960392D01*
X73051101Y-97781068D01*
X72918142Y-97710000D01*
X73051101Y-97638932D01*
X73269608Y-97459608D01*
X73448932Y-97241101D01*
X73582182Y-96991808D01*
X73664236Y-96721309D01*
X73691943Y-96440000D01*
X73664236Y-96158691D01*
X73582182Y-95888192D01*
X73448932Y-95638899D01*
X73373643Y-95547159D01*
X73924904Y-94995898D01*
X73953901Y-94972101D01*
X74000177Y-94915714D01*
X74048874Y-94856377D01*
X74119446Y-94724347D01*
X74132981Y-94679726D01*
X74162903Y-94581086D01*
X74173900Y-94469433D01*
X74173900Y-94469423D01*
X74177576Y-94432100D01*
X74173900Y-94394777D01*
X74173900Y-90954125D01*
X74177576Y-90916800D01*
X74173900Y-90879475D01*
X74173900Y-90879467D01*
X74162903Y-90767814D01*
X74119446Y-90624553D01*
X74048874Y-90492524D01*
X73953901Y-90376799D01*
X73924902Y-90353001D01*
X73333571Y-89761669D01*
X73448932Y-89621101D01*
X73582182Y-89371808D01*
X73664236Y-89101309D01*
X73691943Y-88820000D01*
X73664236Y-88538691D01*
X73582182Y-88268192D01*
X73448932Y-88018899D01*
X73269608Y-87800392D01*
X73051101Y-87621068D01*
X72918142Y-87550000D01*
X73051101Y-87478932D01*
X73269608Y-87299608D01*
X73448932Y-87081101D01*
X73582182Y-86831808D01*
X73664236Y-86561309D01*
X73691943Y-86280000D01*
X73664236Y-85998691D01*
X73582182Y-85728192D01*
X73448932Y-85478899D01*
X73269608Y-85260392D01*
X73248053Y-85242702D01*
X76686903Y-85242702D01*
X76758486Y-85486671D01*
X77013996Y-85607571D01*
X77288184Y-85676300D01*
X77570512Y-85690217D01*
X77850130Y-85648787D01*
X78116292Y-85553603D01*
X78241514Y-85486671D01*
X78313097Y-85242702D01*
X77500000Y-84429605D01*
X76686903Y-85242702D01*
X73248053Y-85242702D01*
X73051101Y-85081068D01*
X72913318Y-85007421D01*
X73105131Y-84892385D01*
X73313519Y-84703414D01*
X73481037Y-84477420D01*
X73555198Y-84320512D01*
X76059783Y-84320512D01*
X76101213Y-84600130D01*
X76196397Y-84866292D01*
X76263329Y-84991514D01*
X76507298Y-85063097D01*
X77320395Y-84250000D01*
X76507298Y-83436903D01*
X76263329Y-83508486D01*
X76142429Y-83763996D01*
X76073700Y-84038184D01*
X76059783Y-84320512D01*
X73555198Y-84320512D01*
X73601246Y-84223087D01*
X73641904Y-84089039D01*
X73519915Y-83867000D01*
X72377000Y-83867000D01*
X72377000Y-83887000D01*
X72123000Y-83887000D01*
X72123000Y-83867000D01*
X70980085Y-83867000D01*
X70858096Y-84089039D01*
X70898754Y-84223087D01*
X71018963Y-84477420D01*
X71186481Y-84703414D01*
X71394869Y-84892385D01*
X71586682Y-85007421D01*
X71448899Y-85081068D01*
X71230392Y-85260392D01*
X71051068Y-85478899D01*
X70917818Y-85728192D01*
X70835764Y-85998691D01*
X70808057Y-86280000D01*
X70835764Y-86561309D01*
X70917818Y-86831808D01*
X71051068Y-87081101D01*
X71230392Y-87299608D01*
X71448899Y-87478932D01*
X71581858Y-87550000D01*
X71448899Y-87621068D01*
X71230392Y-87800392D01*
X71051068Y-88018899D01*
X70985594Y-88141392D01*
X64325054Y-81480853D01*
X64501111Y-81463513D01*
X64781034Y-81378599D01*
X65039014Y-81240706D01*
X65265134Y-81055134D01*
X65289607Y-81025313D01*
X65310498Y-81094180D01*
X65369463Y-81204494D01*
X65448815Y-81301185D01*
X65545506Y-81380537D01*
X65655820Y-81439502D01*
X65775518Y-81475812D01*
X65900000Y-81488072D01*
X67600000Y-81488072D01*
X67724482Y-81475812D01*
X67844180Y-81439502D01*
X67954494Y-81380537D01*
X68051185Y-81301185D01*
X68130537Y-81204494D01*
X68189502Y-81094180D01*
X68225812Y-80974482D01*
X68238072Y-80850000D01*
X68238072Y-79490000D01*
X69117799Y-79490000D01*
X69955601Y-80327803D01*
X69979399Y-80356801D01*
X70095124Y-80451774D01*
X70227153Y-80522346D01*
X70370414Y-80565803D01*
X70482067Y-80576800D01*
X70482076Y-80576800D01*
X70519399Y-80580476D01*
X70556722Y-80576800D01*
X70955978Y-80576800D01*
X70917818Y-80648192D01*
X70835764Y-80918691D01*
X70808057Y-81200000D01*
X70835764Y-81481309D01*
X70917818Y-81751808D01*
X71051068Y-82001101D01*
X71230392Y-82219608D01*
X71448899Y-82398932D01*
X71586682Y-82472579D01*
X71394869Y-82587615D01*
X71186481Y-82776586D01*
X71018963Y-83002580D01*
X70898754Y-83256913D01*
X70858096Y-83390961D01*
X70980085Y-83613000D01*
X72123000Y-83613000D01*
X72123000Y-83593000D01*
X72377000Y-83593000D01*
X72377000Y-83613000D01*
X73519915Y-83613000D01*
X73641904Y-83390961D01*
X73601363Y-83257298D01*
X76686903Y-83257298D01*
X77500000Y-84070395D01*
X78313097Y-83257298D01*
X78241514Y-83013329D01*
X77986004Y-82892429D01*
X77711816Y-82823700D01*
X77429488Y-82809783D01*
X77149870Y-82851213D01*
X76883708Y-82946397D01*
X76758486Y-83013329D01*
X76686903Y-83257298D01*
X73601363Y-83257298D01*
X73601246Y-83256913D01*
X73481037Y-83002580D01*
X73313519Y-82776586D01*
X73105131Y-82587615D01*
X72913318Y-82472579D01*
X73051101Y-82398932D01*
X73269608Y-82219608D01*
X73448932Y-82001101D01*
X73582182Y-81751808D01*
X73664236Y-81481309D01*
X73691943Y-81200000D01*
X73664236Y-80918691D01*
X73582182Y-80648192D01*
X73544022Y-80576800D01*
X82630578Y-80576800D01*
X82667900Y-80580476D01*
X82705222Y-80576800D01*
X82705233Y-80576800D01*
X82816886Y-80565803D01*
X82960147Y-80522346D01*
X83092176Y-80451774D01*
X83207901Y-80356801D01*
X83231704Y-80327797D01*
X86447630Y-77111872D01*
X86470392Y-77139608D01*
X86470392Y-77139608D01*
G37*
X86470392Y-77139608D02*
X86688899Y-77318932D01*
X86821858Y-77390000D01*
X86688899Y-77461068D01*
X86470392Y-77640392D01*
X86291068Y-77858899D01*
X86157818Y-78108192D01*
X86075764Y-78378691D01*
X86048057Y-78660000D01*
X86075764Y-78941309D01*
X86157818Y-79211808D01*
X86291068Y-79461101D01*
X86391960Y-79584038D01*
X85803698Y-80172301D01*
X85774700Y-80196099D01*
X85750902Y-80225097D01*
X85750901Y-80225098D01*
X85679726Y-80311824D01*
X85609154Y-80443854D01*
X85587648Y-80514754D01*
X85565698Y-80587114D01*
X85555202Y-80693676D01*
X85551024Y-80736100D01*
X85554701Y-80773432D01*
X85554700Y-89303378D01*
X85551024Y-89340700D01*
X85554700Y-89378022D01*
X85554700Y-89378032D01*
X85565697Y-89489685D01*
X85592789Y-89578996D01*
X85609154Y-89632946D01*
X85679726Y-89764976D01*
X85706626Y-89797753D01*
X85774699Y-89880701D01*
X85803702Y-89904503D01*
X86366357Y-90467159D01*
X86291068Y-90558899D01*
X86157818Y-90808192D01*
X86075764Y-91078691D01*
X86048057Y-91360000D01*
X86075764Y-91641309D01*
X86157818Y-91911808D01*
X86291068Y-92161101D01*
X86470392Y-92379608D01*
X86688899Y-92558932D01*
X86821858Y-92630000D01*
X86688899Y-92701068D01*
X86470392Y-92880392D01*
X86291068Y-93098899D01*
X86157818Y-93348192D01*
X86075764Y-93618691D01*
X86048057Y-93900000D01*
X86075764Y-94181309D01*
X86089292Y-94225906D01*
X85814198Y-94501001D01*
X85785200Y-94524799D01*
X85761402Y-94553797D01*
X85761401Y-94553798D01*
X85690226Y-94640524D01*
X85619654Y-94772554D01*
X85589380Y-94872358D01*
X85576198Y-94915814D01*
X85565695Y-95022453D01*
X85561524Y-95064800D01*
X85565201Y-95102132D01*
X85565200Y-96886277D01*
X85561524Y-96923600D01*
X85565200Y-96960922D01*
X85565200Y-96960932D01*
X85576197Y-97072585D01*
X85614443Y-97198666D01*
X85619654Y-97215846D01*
X85690226Y-97347876D01*
X85723920Y-97388932D01*
X85785199Y-97463601D01*
X85814202Y-97487403D01*
X86387813Y-98061015D01*
X86291068Y-98178899D01*
X86157818Y-98428192D01*
X86075764Y-98698691D01*
X86048057Y-98980000D01*
X86075764Y-99261309D01*
X86089292Y-99305906D01*
X85813998Y-99581201D01*
X85785000Y-99604999D01*
X85761202Y-99633997D01*
X85761201Y-99633998D01*
X85690026Y-99720724D01*
X85619454Y-99852754D01*
X85607004Y-99893799D01*
X85577704Y-99990392D01*
X85575998Y-99996015D01*
X85561324Y-100145000D01*
X85565001Y-100182332D01*
X85565001Y-100812712D01*
X80935000Y-96182711D01*
X80935000Y-85344396D01*
X81114637Y-85164759D01*
X81271680Y-84929727D01*
X81379853Y-84668574D01*
X81435000Y-84391335D01*
X81435000Y-84108665D01*
X81379853Y-83831426D01*
X81271680Y-83570273D01*
X81114637Y-83335241D01*
X80914759Y-83135363D01*
X80679727Y-82978320D01*
X80418574Y-82870147D01*
X80141335Y-82815000D01*
X79858665Y-82815000D01*
X79581426Y-82870147D01*
X79320273Y-82978320D01*
X79085241Y-83135363D01*
X78885363Y-83335241D01*
X78751308Y-83535869D01*
X78736671Y-83508486D01*
X78492702Y-83436903D01*
X77679605Y-84250000D01*
X78492702Y-85063097D01*
X78736671Y-84991514D01*
X78750324Y-84962659D01*
X78885363Y-85164759D01*
X79065001Y-85344397D01*
X79065000Y-96524068D01*
X79060476Y-96570000D01*
X79067471Y-96641015D01*
X79078529Y-96753291D01*
X79131993Y-96929539D01*
X79218814Y-97091971D01*
X79335656Y-97234344D01*
X79371341Y-97263630D01*
X86058785Y-103951074D01*
X86048057Y-104060000D01*
X86075764Y-104341309D01*
X86157818Y-104611808D01*
X86212815Y-104714700D01*
X74537933Y-104714700D01*
X74500600Y-104711023D01*
X74463267Y-104714700D01*
X74351614Y-104725697D01*
X74208353Y-104769154D01*
X74076324Y-104839726D01*
X73960599Y-104934699D01*
X73936801Y-104963697D01*
X73292370Y-105608128D01*
X73269608Y-105580392D01*
X73051101Y-105401068D01*
X72918142Y-105330000D01*
X73051101Y-105258932D01*
X73269608Y-105079608D01*
X73448932Y-104861101D01*
X73582182Y-104611808D01*
X73664236Y-104341309D01*
X73691943Y-104060000D01*
X73664236Y-103778691D01*
X73582182Y-103508192D01*
X73448932Y-103258899D01*
X73269608Y-103040392D01*
X73051101Y-102861068D01*
X72988840Y-102827789D01*
X72999003Y-102794286D01*
X73003942Y-102744139D01*
X73051101Y-102718932D01*
X73269608Y-102539608D01*
X73448932Y-102321101D01*
X73582182Y-102071808D01*
X73664236Y-101801309D01*
X73691943Y-101520000D01*
X73664236Y-101238691D01*
X73582182Y-100968192D01*
X73448932Y-100718899D01*
X73269608Y-100500392D01*
X73051101Y-100321068D01*
X72918142Y-100250000D01*
X73051101Y-100178932D01*
X73269608Y-99999608D01*
X73448932Y-99781101D01*
X73582182Y-99531808D01*
X73664236Y-99261309D01*
X73691943Y-98980000D01*
X73664236Y-98698691D01*
X73582182Y-98428192D01*
X73448932Y-98178899D01*
X73269608Y-97960392D01*
X73051101Y-97781068D01*
X72918142Y-97710000D01*
X73051101Y-97638932D01*
X73269608Y-97459608D01*
X73448932Y-97241101D01*
X73582182Y-96991808D01*
X73664236Y-96721309D01*
X73691943Y-96440000D01*
X73664236Y-96158691D01*
X73582182Y-95888192D01*
X73448932Y-95638899D01*
X73373643Y-95547159D01*
X73924904Y-94995898D01*
X73953901Y-94972101D01*
X74000177Y-94915714D01*
X74048874Y-94856377D01*
X74119446Y-94724347D01*
X74132981Y-94679726D01*
X74162903Y-94581086D01*
X74173900Y-94469433D01*
X74173900Y-94469423D01*
X74177576Y-94432100D01*
X74173900Y-94394777D01*
X74173900Y-90954125D01*
X74177576Y-90916800D01*
X74173900Y-90879475D01*
X74173900Y-90879467D01*
X74162903Y-90767814D01*
X74119446Y-90624553D01*
X74048874Y-90492524D01*
X73953901Y-90376799D01*
X73924902Y-90353001D01*
X73333571Y-89761669D01*
X73448932Y-89621101D01*
X73582182Y-89371808D01*
X73664236Y-89101309D01*
X73691943Y-88820000D01*
X73664236Y-88538691D01*
X73582182Y-88268192D01*
X73448932Y-88018899D01*
X73269608Y-87800392D01*
X73051101Y-87621068D01*
X72918142Y-87550000D01*
X73051101Y-87478932D01*
X73269608Y-87299608D01*
X73448932Y-87081101D01*
X73582182Y-86831808D01*
X73664236Y-86561309D01*
X73691943Y-86280000D01*
X73664236Y-85998691D01*
X73582182Y-85728192D01*
X73448932Y-85478899D01*
X73269608Y-85260392D01*
X73248053Y-85242702D01*
X76686903Y-85242702D01*
X76758486Y-85486671D01*
X77013996Y-85607571D01*
X77288184Y-85676300D01*
X77570512Y-85690217D01*
X77850130Y-85648787D01*
X78116292Y-85553603D01*
X78241514Y-85486671D01*
X78313097Y-85242702D01*
X77500000Y-84429605D01*
X76686903Y-85242702D01*
X73248053Y-85242702D01*
X73051101Y-85081068D01*
X72913318Y-85007421D01*
X73105131Y-84892385D01*
X73313519Y-84703414D01*
X73481037Y-84477420D01*
X73555198Y-84320512D01*
X76059783Y-84320512D01*
X76101213Y-84600130D01*
X76196397Y-84866292D01*
X76263329Y-84991514D01*
X76507298Y-85063097D01*
X77320395Y-84250000D01*
X76507298Y-83436903D01*
X76263329Y-83508486D01*
X76142429Y-83763996D01*
X76073700Y-84038184D01*
X76059783Y-84320512D01*
X73555198Y-84320512D01*
X73601246Y-84223087D01*
X73641904Y-84089039D01*
X73519915Y-83867000D01*
X72377000Y-83867000D01*
X72377000Y-83887000D01*
X72123000Y-83887000D01*
X72123000Y-83867000D01*
X70980085Y-83867000D01*
X70858096Y-84089039D01*
X70898754Y-84223087D01*
X71018963Y-84477420D01*
X71186481Y-84703414D01*
X71394869Y-84892385D01*
X71586682Y-85007421D01*
X71448899Y-85081068D01*
X71230392Y-85260392D01*
X71051068Y-85478899D01*
X70917818Y-85728192D01*
X70835764Y-85998691D01*
X70808057Y-86280000D01*
X70835764Y-86561309D01*
X70917818Y-86831808D01*
X71051068Y-87081101D01*
X71230392Y-87299608D01*
X71448899Y-87478932D01*
X71581858Y-87550000D01*
X71448899Y-87621068D01*
X71230392Y-87800392D01*
X71051068Y-88018899D01*
X70985594Y-88141392D01*
X64325054Y-81480853D01*
X64501111Y-81463513D01*
X64781034Y-81378599D01*
X65039014Y-81240706D01*
X65265134Y-81055134D01*
X65289607Y-81025313D01*
X65310498Y-81094180D01*
X65369463Y-81204494D01*
X65448815Y-81301185D01*
X65545506Y-81380537D01*
X65655820Y-81439502D01*
X65775518Y-81475812D01*
X65900000Y-81488072D01*
X67600000Y-81488072D01*
X67724482Y-81475812D01*
X67844180Y-81439502D01*
X67954494Y-81380537D01*
X68051185Y-81301185D01*
X68130537Y-81204494D01*
X68189502Y-81094180D01*
X68225812Y-80974482D01*
X68238072Y-80850000D01*
X68238072Y-79490000D01*
X69117799Y-79490000D01*
X69955601Y-80327803D01*
X69979399Y-80356801D01*
X70095124Y-80451774D01*
X70227153Y-80522346D01*
X70370414Y-80565803D01*
X70482067Y-80576800D01*
X70482076Y-80576800D01*
X70519399Y-80580476D01*
X70556722Y-80576800D01*
X70955978Y-80576800D01*
X70917818Y-80648192D01*
X70835764Y-80918691D01*
X70808057Y-81200000D01*
X70835764Y-81481309D01*
X70917818Y-81751808D01*
X71051068Y-82001101D01*
X71230392Y-82219608D01*
X71448899Y-82398932D01*
X71586682Y-82472579D01*
X71394869Y-82587615D01*
X71186481Y-82776586D01*
X71018963Y-83002580D01*
X70898754Y-83256913D01*
X70858096Y-83390961D01*
X70980085Y-83613000D01*
X72123000Y-83613000D01*
X72123000Y-83593000D01*
X72377000Y-83593000D01*
X72377000Y-83613000D01*
X73519915Y-83613000D01*
X73641904Y-83390961D01*
X73601363Y-83257298D01*
X76686903Y-83257298D01*
X77500000Y-84070395D01*
X78313097Y-83257298D01*
X78241514Y-83013329D01*
X77986004Y-82892429D01*
X77711816Y-82823700D01*
X77429488Y-82809783D01*
X77149870Y-82851213D01*
X76883708Y-82946397D01*
X76758486Y-83013329D01*
X76686903Y-83257298D01*
X73601363Y-83257298D01*
X73601246Y-83256913D01*
X73481037Y-83002580D01*
X73313519Y-82776586D01*
X73105131Y-82587615D01*
X72913318Y-82472579D01*
X73051101Y-82398932D01*
X73269608Y-82219608D01*
X73448932Y-82001101D01*
X73582182Y-81751808D01*
X73664236Y-81481309D01*
X73691943Y-81200000D01*
X73664236Y-80918691D01*
X73582182Y-80648192D01*
X73544022Y-80576800D01*
X82630578Y-80576800D01*
X82667900Y-80580476D01*
X82705222Y-80576800D01*
X82705233Y-80576800D01*
X82816886Y-80565803D01*
X82960147Y-80522346D01*
X83092176Y-80451774D01*
X83207901Y-80356801D01*
X83231704Y-80327797D01*
X86447630Y-77111872D01*
X86470392Y-77139608D01*
G36*
X113036487Y-73748889D02*
G01*
X113007815Y-74040000D01*
X113036487Y-74331111D01*
X113121401Y-74611034D01*
X113259294Y-74869014D01*
X113444866Y-75095134D01*
X113670986Y-75280706D01*
X113725791Y-75310000D01*
X113670986Y-75339294D01*
X113444866Y-75524866D01*
X113259294Y-75750986D01*
X113121401Y-76008966D01*
X113036487Y-76288889D01*
X113007815Y-76580000D01*
X113036487Y-76871111D01*
X113121401Y-77151034D01*
X113259294Y-77409014D01*
X113444866Y-77635134D01*
X113670986Y-77820706D01*
X113928966Y-77958599D01*
X114208889Y-78043513D01*
X114427050Y-78065000D01*
X114572950Y-78065000D01*
X114791111Y-78043513D01*
X115071034Y-77958599D01*
X115329014Y-77820706D01*
X115555134Y-77635134D01*
X115740706Y-77409014D01*
X115771584Y-77351244D01*
X115942412Y-77580269D01*
X116158645Y-77775178D01*
X116408748Y-77924157D01*
X116683109Y-78021481D01*
X116913000Y-77900814D01*
X116913000Y-76707000D01*
X116893000Y-76707000D01*
X116893000Y-76453000D01*
X116913000Y-76453000D01*
X116913000Y-76433000D01*
X117167000Y-76433000D01*
X117167000Y-76453000D01*
X117187000Y-76453000D01*
X117187000Y-76707000D01*
X117167000Y-76707000D01*
X117167000Y-77900814D01*
X117396891Y-78021481D01*
X117455300Y-78000762D01*
X117455300Y-78008297D01*
X110126673Y-85336925D01*
X110068932Y-85228899D01*
X109889608Y-85010392D01*
X109671101Y-84831068D01*
X109533318Y-84757421D01*
X109725131Y-84642385D01*
X109933519Y-84453414D01*
X110101037Y-84227420D01*
X110221246Y-83973087D01*
X110261904Y-83839039D01*
X110139915Y-83617000D01*
X108997000Y-83617000D01*
X108997000Y-83637000D01*
X108743000Y-83637000D01*
X108743000Y-83617000D01*
X107600085Y-83617000D01*
X107478096Y-83839039D01*
X107518754Y-83973087D01*
X107638963Y-84227420D01*
X107806481Y-84453414D01*
X108014869Y-84642385D01*
X108206682Y-84757421D01*
X108068899Y-84831068D01*
X107850392Y-85010392D01*
X107671068Y-85228899D01*
X107537818Y-85478192D01*
X107455764Y-85748691D01*
X107428057Y-86030000D01*
X107455764Y-86311309D01*
X107537818Y-86581808D01*
X107671068Y-86831101D01*
X107850392Y-87049608D01*
X108068899Y-87228932D01*
X108201858Y-87300000D01*
X108068899Y-87371068D01*
X107850392Y-87550392D01*
X107671068Y-87768899D01*
X107537818Y-88018192D01*
X107455764Y-88288691D01*
X107428057Y-88570000D01*
X107455764Y-88851309D01*
X107537818Y-89121808D01*
X107671068Y-89371101D01*
X107850392Y-89589608D01*
X108068899Y-89768932D01*
X108201858Y-89840000D01*
X108068899Y-89911068D01*
X107850392Y-90090392D01*
X107671068Y-90308899D01*
X107645861Y-90356058D01*
X107595714Y-90360997D01*
X107452453Y-90404454D01*
X107320424Y-90475026D01*
X107204699Y-90569999D01*
X107180901Y-90598997D01*
X103619899Y-94160000D01*
X102594864Y-94160000D01*
X102664236Y-93931309D01*
X102691943Y-93650000D01*
X102664236Y-93368691D01*
X102582182Y-93098192D01*
X102448932Y-92848899D01*
X102269608Y-92630392D01*
X102051101Y-92451068D01*
X101918142Y-92380000D01*
X102051101Y-92308932D01*
X102269608Y-92129608D01*
X102448932Y-91911101D01*
X102582182Y-91661808D01*
X102664236Y-91391309D01*
X102691943Y-91110000D01*
X102664236Y-90828691D01*
X102582182Y-90558192D01*
X102448932Y-90308899D01*
X102269608Y-90090392D01*
X102051101Y-89911068D01*
X101918142Y-89840000D01*
X102051101Y-89768932D01*
X102269608Y-89589608D01*
X102448932Y-89371101D01*
X102582182Y-89121808D01*
X102664236Y-88851309D01*
X102691943Y-88570000D01*
X102664236Y-88288691D01*
X102582182Y-88018192D01*
X102448932Y-87768899D01*
X102269608Y-87550392D01*
X102051101Y-87371068D01*
X101913318Y-87297421D01*
X102105131Y-87182385D01*
X102313519Y-86993414D01*
X102481037Y-86767420D01*
X102601246Y-86513087D01*
X102641904Y-86379039D01*
X102519915Y-86157000D01*
X101377000Y-86157000D01*
X101377000Y-86177000D01*
X101123000Y-86177000D01*
X101123000Y-86157000D01*
X99980085Y-86157000D01*
X99858096Y-86379039D01*
X99898754Y-86513087D01*
X100018963Y-86767420D01*
X100186481Y-86993414D01*
X100394869Y-87182385D01*
X100586682Y-87297421D01*
X100448899Y-87371068D01*
X100230392Y-87550392D01*
X100051068Y-87768899D01*
X99917818Y-88018192D01*
X99835764Y-88288691D01*
X99808057Y-88570000D01*
X99835764Y-88851309D01*
X99917818Y-89121808D01*
X100051068Y-89371101D01*
X100230392Y-89589608D01*
X100448899Y-89768932D01*
X100581858Y-89840000D01*
X100448899Y-89911068D01*
X100230392Y-90090392D01*
X100051068Y-90308899D01*
X100029099Y-90350000D01*
X99232622Y-90350000D01*
X99195299Y-90346324D01*
X99157976Y-90350000D01*
X99157967Y-90350000D01*
X99046314Y-90360997D01*
X98903053Y-90404454D01*
X98771024Y-90475026D01*
X98655299Y-90569999D01*
X98631501Y-90598997D01*
X94292371Y-94938128D01*
X94269608Y-94910392D01*
X94051101Y-94731068D01*
X93801808Y-94597818D01*
X93531309Y-94515764D01*
X93320492Y-94495000D01*
X93179508Y-94495000D01*
X92968691Y-94515764D01*
X92851700Y-94551252D01*
X92851700Y-89839601D01*
X95698599Y-86992702D01*
X96436903Y-86992702D01*
X96508486Y-87236671D01*
X96763996Y-87357571D01*
X97038184Y-87426300D01*
X97320512Y-87440217D01*
X97600130Y-87398787D01*
X97866292Y-87303603D01*
X97991514Y-87236671D01*
X98063097Y-86992702D01*
X97250000Y-86179605D01*
X96436903Y-86992702D01*
X95698599Y-86992702D01*
X95991196Y-86700106D01*
X96013329Y-86741514D01*
X96257298Y-86813097D01*
X97070395Y-86000000D01*
X97056253Y-85985858D01*
X97235858Y-85806253D01*
X97250000Y-85820395D01*
X97264143Y-85806253D01*
X97443748Y-85985858D01*
X97429605Y-86000000D01*
X98242702Y-86813097D01*
X98486671Y-86741514D01*
X98607571Y-86486004D01*
X98676300Y-86211816D01*
X98690217Y-85929488D01*
X98648787Y-85649870D01*
X98602343Y-85520000D01*
X99911474Y-85520000D01*
X99898754Y-85546913D01*
X99858096Y-85680961D01*
X99980085Y-85903000D01*
X101123000Y-85903000D01*
X101123000Y-85883000D01*
X101377000Y-85883000D01*
X101377000Y-85903000D01*
X102519915Y-85903000D01*
X102641904Y-85680961D01*
X102601246Y-85546913D01*
X102588526Y-85520000D01*
X103897378Y-85520000D01*
X103934700Y-85523676D01*
X103972022Y-85520000D01*
X103972033Y-85520000D01*
X104083686Y-85509003D01*
X104226947Y-85465546D01*
X104358976Y-85394974D01*
X104474701Y-85300001D01*
X104498504Y-85270997D01*
X107827630Y-81941872D01*
X107850392Y-81969608D01*
X108068899Y-82148932D01*
X108206682Y-82222579D01*
X108014869Y-82337615D01*
X107806481Y-82526586D01*
X107638963Y-82752580D01*
X107518754Y-83006913D01*
X107478096Y-83140961D01*
X107600085Y-83363000D01*
X108743000Y-83363000D01*
X108743000Y-83343000D01*
X108997000Y-83343000D01*
X108997000Y-83363000D01*
X110139915Y-83363000D01*
X110261904Y-83140961D01*
X110221246Y-83006913D01*
X110101037Y-82752580D01*
X109933519Y-82526586D01*
X109725131Y-82337615D01*
X109533318Y-82222579D01*
X109671101Y-82148932D01*
X109889608Y-81969608D01*
X110068932Y-81751101D01*
X110202182Y-81501808D01*
X110284236Y-81231309D01*
X110311943Y-80950000D01*
X110284236Y-80668691D01*
X110202182Y-80398192D01*
X110068932Y-80148899D01*
X109889608Y-79930392D01*
X109671101Y-79751068D01*
X109538142Y-79680000D01*
X109671101Y-79608932D01*
X109889608Y-79429608D01*
X110068932Y-79211101D01*
X110202182Y-78961808D01*
X110284236Y-78691309D01*
X110311943Y-78410000D01*
X110284236Y-78128691D01*
X110202182Y-77858192D01*
X110068932Y-77608899D01*
X109889608Y-77390392D01*
X109671101Y-77211068D01*
X109538142Y-77140000D01*
X109671101Y-77068932D01*
X109889608Y-76889608D01*
X110068932Y-76671101D01*
X110202182Y-76421808D01*
X110284236Y-76151309D01*
X110311943Y-75870000D01*
X110284236Y-75588691D01*
X110202182Y-75318192D01*
X110068932Y-75068899D01*
X109889608Y-74850392D01*
X109671101Y-74671068D01*
X109538142Y-74600000D01*
X109671101Y-74528932D01*
X109889608Y-74349608D01*
X110068932Y-74131101D01*
X110202182Y-73881808D01*
X110284236Y-73611309D01*
X110292244Y-73530000D01*
X113102886Y-73530000D01*
X113036487Y-73748889D01*
X113036487Y-73748889D01*
G37*
X113036487Y-73748889D02*
X113007815Y-74040000D01*
X113036487Y-74331111D01*
X113121401Y-74611034D01*
X113259294Y-74869014D01*
X113444866Y-75095134D01*
X113670986Y-75280706D01*
X113725791Y-75310000D01*
X113670986Y-75339294D01*
X113444866Y-75524866D01*
X113259294Y-75750986D01*
X113121401Y-76008966D01*
X113036487Y-76288889D01*
X113007815Y-76580000D01*
X113036487Y-76871111D01*
X113121401Y-77151034D01*
X113259294Y-77409014D01*
X113444866Y-77635134D01*
X113670986Y-77820706D01*
X113928966Y-77958599D01*
X114208889Y-78043513D01*
X114427050Y-78065000D01*
X114572950Y-78065000D01*
X114791111Y-78043513D01*
X115071034Y-77958599D01*
X115329014Y-77820706D01*
X115555134Y-77635134D01*
X115740706Y-77409014D01*
X115771584Y-77351244D01*
X115942412Y-77580269D01*
X116158645Y-77775178D01*
X116408748Y-77924157D01*
X116683109Y-78021481D01*
X116913000Y-77900814D01*
X116913000Y-76707000D01*
X116893000Y-76707000D01*
X116893000Y-76453000D01*
X116913000Y-76453000D01*
X116913000Y-76433000D01*
X117167000Y-76433000D01*
X117167000Y-76453000D01*
X117187000Y-76453000D01*
X117187000Y-76707000D01*
X117167000Y-76707000D01*
X117167000Y-77900814D01*
X117396891Y-78021481D01*
X117455300Y-78000762D01*
X117455300Y-78008297D01*
X110126673Y-85336925D01*
X110068932Y-85228899D01*
X109889608Y-85010392D01*
X109671101Y-84831068D01*
X109533318Y-84757421D01*
X109725131Y-84642385D01*
X109933519Y-84453414D01*
X110101037Y-84227420D01*
X110221246Y-83973087D01*
X110261904Y-83839039D01*
X110139915Y-83617000D01*
X108997000Y-83617000D01*
X108997000Y-83637000D01*
X108743000Y-83637000D01*
X108743000Y-83617000D01*
X107600085Y-83617000D01*
X107478096Y-83839039D01*
X107518754Y-83973087D01*
X107638963Y-84227420D01*
X107806481Y-84453414D01*
X108014869Y-84642385D01*
X108206682Y-84757421D01*
X108068899Y-84831068D01*
X107850392Y-85010392D01*
X107671068Y-85228899D01*
X107537818Y-85478192D01*
X107455764Y-85748691D01*
X107428057Y-86030000D01*
X107455764Y-86311309D01*
X107537818Y-86581808D01*
X107671068Y-86831101D01*
X107850392Y-87049608D01*
X108068899Y-87228932D01*
X108201858Y-87300000D01*
X108068899Y-87371068D01*
X107850392Y-87550392D01*
X107671068Y-87768899D01*
X107537818Y-88018192D01*
X107455764Y-88288691D01*
X107428057Y-88570000D01*
X107455764Y-88851309D01*
X107537818Y-89121808D01*
X107671068Y-89371101D01*
X107850392Y-89589608D01*
X108068899Y-89768932D01*
X108201858Y-89840000D01*
X108068899Y-89911068D01*
X107850392Y-90090392D01*
X107671068Y-90308899D01*
X107645861Y-90356058D01*
X107595714Y-90360997D01*
X107452453Y-90404454D01*
X107320424Y-90475026D01*
X107204699Y-90569999D01*
X107180901Y-90598997D01*
X103619899Y-94160000D01*
X102594864Y-94160000D01*
X102664236Y-93931309D01*
X102691943Y-93650000D01*
X102664236Y-93368691D01*
X102582182Y-93098192D01*
X102448932Y-92848899D01*
X102269608Y-92630392D01*
X102051101Y-92451068D01*
X101918142Y-92380000D01*
X102051101Y-92308932D01*
X102269608Y-92129608D01*
X102448932Y-91911101D01*
X102582182Y-91661808D01*
X102664236Y-91391309D01*
X102691943Y-91110000D01*
X102664236Y-90828691D01*
X102582182Y-90558192D01*
X102448932Y-90308899D01*
X102269608Y-90090392D01*
X102051101Y-89911068D01*
X101918142Y-89840000D01*
X102051101Y-89768932D01*
X102269608Y-89589608D01*
X102448932Y-89371101D01*
X102582182Y-89121808D01*
X102664236Y-88851309D01*
X102691943Y-88570000D01*
X102664236Y-88288691D01*
X102582182Y-88018192D01*
X102448932Y-87768899D01*
X102269608Y-87550392D01*
X102051101Y-87371068D01*
X101913318Y-87297421D01*
X102105131Y-87182385D01*
X102313519Y-86993414D01*
X102481037Y-86767420D01*
X102601246Y-86513087D01*
X102641904Y-86379039D01*
X102519915Y-86157000D01*
X101377000Y-86157000D01*
X101377000Y-86177000D01*
X101123000Y-86177000D01*
X101123000Y-86157000D01*
X99980085Y-86157000D01*
X99858096Y-86379039D01*
X99898754Y-86513087D01*
X100018963Y-86767420D01*
X100186481Y-86993414D01*
X100394869Y-87182385D01*
X100586682Y-87297421D01*
X100448899Y-87371068D01*
X100230392Y-87550392D01*
X100051068Y-87768899D01*
X99917818Y-88018192D01*
X99835764Y-88288691D01*
X99808057Y-88570000D01*
X99835764Y-88851309D01*
X99917818Y-89121808D01*
X100051068Y-89371101D01*
X100230392Y-89589608D01*
X100448899Y-89768932D01*
X100581858Y-89840000D01*
X100448899Y-89911068D01*
X100230392Y-90090392D01*
X100051068Y-90308899D01*
X100029099Y-90350000D01*
X99232622Y-90350000D01*
X99195299Y-90346324D01*
X99157976Y-90350000D01*
X99157967Y-90350000D01*
X99046314Y-90360997D01*
X98903053Y-90404454D01*
X98771024Y-90475026D01*
X98655299Y-90569999D01*
X98631501Y-90598997D01*
X94292371Y-94938128D01*
X94269608Y-94910392D01*
X94051101Y-94731068D01*
X93801808Y-94597818D01*
X93531309Y-94515764D01*
X93320492Y-94495000D01*
X93179508Y-94495000D01*
X92968691Y-94515764D01*
X92851700Y-94551252D01*
X92851700Y-89839601D01*
X95698599Y-86992702D01*
X96436903Y-86992702D01*
X96508486Y-87236671D01*
X96763996Y-87357571D01*
X97038184Y-87426300D01*
X97320512Y-87440217D01*
X97600130Y-87398787D01*
X97866292Y-87303603D01*
X97991514Y-87236671D01*
X98063097Y-86992702D01*
X97250000Y-86179605D01*
X96436903Y-86992702D01*
X95698599Y-86992702D01*
X95991196Y-86700106D01*
X96013329Y-86741514D01*
X96257298Y-86813097D01*
X97070395Y-86000000D01*
X97056253Y-85985858D01*
X97235858Y-85806253D01*
X97250000Y-85820395D01*
X97264143Y-85806253D01*
X97443748Y-85985858D01*
X97429605Y-86000000D01*
X98242702Y-86813097D01*
X98486671Y-86741514D01*
X98607571Y-86486004D01*
X98676300Y-86211816D01*
X98690217Y-85929488D01*
X98648787Y-85649870D01*
X98602343Y-85520000D01*
X99911474Y-85520000D01*
X99898754Y-85546913D01*
X99858096Y-85680961D01*
X99980085Y-85903000D01*
X101123000Y-85903000D01*
X101123000Y-85883000D01*
X101377000Y-85883000D01*
X101377000Y-85903000D01*
X102519915Y-85903000D01*
X102641904Y-85680961D01*
X102601246Y-85546913D01*
X102588526Y-85520000D01*
X103897378Y-85520000D01*
X103934700Y-85523676D01*
X103972022Y-85520000D01*
X103972033Y-85520000D01*
X104083686Y-85509003D01*
X104226947Y-85465546D01*
X104358976Y-85394974D01*
X104474701Y-85300001D01*
X104498504Y-85270997D01*
X107827630Y-81941872D01*
X107850392Y-81969608D01*
X108068899Y-82148932D01*
X108206682Y-82222579D01*
X108014869Y-82337615D01*
X107806481Y-82526586D01*
X107638963Y-82752580D01*
X107518754Y-83006913D01*
X107478096Y-83140961D01*
X107600085Y-83363000D01*
X108743000Y-83363000D01*
X108743000Y-83343000D01*
X108997000Y-83343000D01*
X108997000Y-83363000D01*
X110139915Y-83363000D01*
X110261904Y-83140961D01*
X110221246Y-83006913D01*
X110101037Y-82752580D01*
X109933519Y-82526586D01*
X109725131Y-82337615D01*
X109533318Y-82222579D01*
X109671101Y-82148932D01*
X109889608Y-81969608D01*
X110068932Y-81751101D01*
X110202182Y-81501808D01*
X110284236Y-81231309D01*
X110311943Y-80950000D01*
X110284236Y-80668691D01*
X110202182Y-80398192D01*
X110068932Y-80148899D01*
X109889608Y-79930392D01*
X109671101Y-79751068D01*
X109538142Y-79680000D01*
X109671101Y-79608932D01*
X109889608Y-79429608D01*
X110068932Y-79211101D01*
X110202182Y-78961808D01*
X110284236Y-78691309D01*
X110311943Y-78410000D01*
X110284236Y-78128691D01*
X110202182Y-77858192D01*
X110068932Y-77608899D01*
X109889608Y-77390392D01*
X109671101Y-77211068D01*
X109538142Y-77140000D01*
X109671101Y-77068932D01*
X109889608Y-76889608D01*
X110068932Y-76671101D01*
X110202182Y-76421808D01*
X110284236Y-76151309D01*
X110311943Y-75870000D01*
X110284236Y-75588691D01*
X110202182Y-75318192D01*
X110068932Y-75068899D01*
X109889608Y-74850392D01*
X109671101Y-74671068D01*
X109538142Y-74600000D01*
X109671101Y-74528932D01*
X109889608Y-74349608D01*
X110068932Y-74131101D01*
X110202182Y-73881808D01*
X110284236Y-73611309D01*
X110292244Y-73530000D01*
X113102886Y-73530000D01*
X113036487Y-73748889D01*
M02*
