M48
; DRILL file {KiCad (5.1.4-0-10_14)} date 2021 March 24, Wednesday 21:09:08
; FORMAT={-:-/ absolute / metric / decimal}
; #@! TF.CreationDate,2021-03-24T21:09:08+09:00
; #@! TF.GenerationSoftware,Kicad,Pcbnew,(5.1.4-0-10_14)
FMAT,2
METRIC
T1C0.400
T2C0.800
T3C1.000
T4C1.016
T5C1.200
T6C3.200
%
G90
G05
T1
X115.522Y-83.414
X117.247Y-113.753
X131.0Y-95.5
X132.837Y-69.026
T2
X132.5Y-67.5
X135.0Y-67.5
X73.84Y-99.0
X84.0Y-99.0
X73.0Y-69.76
X73.0Y-85.0
X75.54Y-69.76
X75.54Y-85.0
X78.08Y-69.76
X78.08Y-85.0
X80.62Y-69.76
X80.62Y-85.0
X83.16Y-69.76
X83.16Y-85.0
X85.7Y-69.76
X85.7Y-85.0
X88.24Y-69.76
X88.24Y-85.0
X90.78Y-69.76
X90.78Y-85.0
X93.32Y-69.76
X93.32Y-85.0
X95.86Y-69.76
X95.86Y-85.0
X98.4Y-69.76
X98.4Y-85.0
X100.94Y-69.76
X100.94Y-85.0
X103.48Y-69.76
X103.48Y-85.0
X106.02Y-69.76
X106.02Y-85.0
X108.56Y-69.76
X108.56Y-85.0
X111.1Y-69.76
X111.1Y-85.0
X113.64Y-69.76
X113.64Y-85.0
X116.18Y-69.76
X116.18Y-85.0
X118.72Y-69.76
X118.72Y-85.0
X121.26Y-69.76
X121.26Y-85.0
X132.5Y-92.0
X135.0Y-92.0
X99.5Y-108.0
X109.66Y-108.0
X104.0Y-104.0
X106.5Y-104.0
X73.84Y-95.5
X84.0Y-95.5
X88.5Y-88.5
X91.0Y-88.5
X74.5Y-58.75
X74.5Y-61.25
X127.5Y-95.0
X127.5Y-97.54
X127.5Y-100.08
X127.5Y-102.62
X127.5Y-105.16
X127.5Y-107.7
X127.5Y-110.24
X135.12Y-95.0
X135.12Y-97.54
X135.12Y-100.08
X135.12Y-102.62
X135.12Y-105.16
X135.12Y-107.7
X135.12Y-110.24
X66.5Y-95.5
X88.5Y-93.38
X88.5Y-101.0
X91.04Y-93.38
X91.04Y-101.0
X93.58Y-93.38
X93.58Y-101.0
X96.12Y-93.38
X96.12Y-101.0
X98.66Y-93.38
X98.66Y-101.0
X101.2Y-93.38
X101.2Y-101.0
X103.74Y-93.38
X103.74Y-101.0
X106.28Y-93.38
X106.28Y-101.0
X108.82Y-93.38
X108.82Y-101.0
X111.36Y-93.38
X111.36Y-101.0
X113.9Y-93.38
X113.9Y-101.0
X116.44Y-93.38
X116.44Y-101.0
X118.98Y-93.38
X118.98Y-101.0
X121.52Y-93.38
X121.52Y-101.0
X69.0Y-95.5
X74.0Y-92.0
X84.16Y-92.0
X127.25Y-70.5
X127.25Y-73.04
X127.25Y-75.58
X127.25Y-78.12
X127.25Y-80.66
X127.25Y-83.2
X127.25Y-85.74
X127.25Y-88.28
X134.87Y-70.5
X134.87Y-73.04
X134.87Y-75.58
X134.87Y-78.12
X134.87Y-80.66
X134.87Y-83.2
X82.5Y-88.5
X85.0Y-88.5
X134.87Y-85.74
X134.87Y-88.28
X100.18Y-66.0
X102.72Y-66.0
X105.26Y-66.0
X107.8Y-66.0
X110.34Y-66.0
X112.88Y-66.0
X115.42Y-66.0
X117.96Y-66.0
X120.5Y-66.0
T3
X86.25Y-59.46
X86.25Y-62.0
X88.79Y-59.46
X88.79Y-62.0
X91.33Y-59.46
X91.33Y-62.0
X93.87Y-59.46
X93.87Y-62.0
X96.41Y-59.46
X96.41Y-62.0
X98.95Y-59.46
X98.95Y-62.0
X101.49Y-59.46
X101.49Y-62.0
X104.03Y-59.46
X104.03Y-62.0
X106.57Y-59.46
X106.57Y-62.0
X109.11Y-59.46
X109.11Y-62.0
X111.65Y-59.46
X111.65Y-62.0
X114.19Y-59.46
X114.19Y-62.0
X116.73Y-59.46
X116.73Y-62.0
X119.27Y-59.46
X119.27Y-62.0
X121.81Y-59.46
X121.81Y-62.0
X124.35Y-59.46
X124.35Y-62.0
X126.89Y-59.46
X126.89Y-62.0
X129.43Y-59.46
X129.43Y-62.0
X131.97Y-59.46
X131.97Y-62.0
X134.51Y-59.46
X134.51Y-62.0
X64.21Y-64.76
X64.21Y-67.3
X64.21Y-69.84
X64.21Y-72.38
X123.8Y-116.0
X150.75Y-71.0
X150.75Y-73.54
X150.75Y-76.08
X150.75Y-78.62
X153.29Y-71.0
X66.75Y-67.3
X66.75Y-64.76
X116.5Y-105.96
X116.5Y-108.5
X119.04Y-105.96
X119.04Y-108.5
X121.58Y-105.96
X121.58Y-108.5
X66.75Y-69.84
X126.34Y-116.0
X128.88Y-116.0
X131.42Y-116.0
X133.96Y-116.0
X136.5Y-116.0
X64.21Y-74.92
X64.21Y-77.46
X64.21Y-80.0
X66.75Y-72.38
X66.75Y-74.92
X66.75Y-77.46
X66.75Y-80.0
X144.75Y-85.0
X147.29Y-85.0
X149.83Y-85.0
X153.29Y-73.54
X153.29Y-76.08
X153.29Y-78.62
X142.25Y-71.0
X142.25Y-73.54
X142.25Y-76.08
X142.25Y-78.62
X144.79Y-71.0
X144.79Y-73.54
X144.79Y-76.08
X144.79Y-78.62
T4
X103.6Y-116.0
X103.6Y-118.5
X105.7Y-118.5
X108.3Y-118.5
X110.4Y-116.0
X110.4Y-118.5
T6
X65.5Y-54.5
X154.5Y-120.5
X65.5Y-120.5
X154.5Y-54.5
T2
G00X100.25Y-120.8
M15
G01X100.25Y-122.2
M16
G05
G00X106.3Y-122.3
M15
G01X107.7Y-122.3
M16
G05
G00X113.75Y-120.8
M15
G01X113.75Y-122.2
M16
G05
T5
G00X63.2Y-107.9
M15
G01X63.2Y-107.1
M16
G05
G00X66.3Y-112.0
M15
G01X67.1Y-112.0
M16
G05
G00X69.6Y-104.6
M15
G01X70.4Y-104.6
M16
G05
G00X71.3Y-102.1
M15
G01X72.1Y-102.1
M16
G05
G00X74.5Y-112.2
M15
G01X74.5Y-111.4
M16
G05
T0
M30
