G04 #@! TF.GenerationSoftware,KiCad,Pcbnew,(5.1.4-0-10_14)*
G04 #@! TF.CreationDate,2021-03-24T21:09:03+09:00*
G04 #@! TF.ProjectId,KZ80-PS2KBD,4b5a3830-2d50-4533-924b-42442e6b6963,rev?*
G04 #@! TF.SameCoordinates,Original*
G04 #@! TF.FileFunction,Legend,Top*
G04 #@! TF.FilePolarity,Positive*
%FSLAX46Y46*%
G04 Gerber Fmt 4.6, Leading zero omitted, Abs format (unit mm)*
G04 Created by KiCad (PCBNEW (5.1.4-0-10_14)) date 2021-03-24 21:09:03*
%MOMM*%
%LPD*%
G04 APERTURE LIST*
%ADD10C,0.300000*%
%ADD11C,0.150000*%
%ADD12C,0.120000*%
%ADD13C,0.254000*%
%ADD14C,0.200000*%
%ADD15O,2.000000X2.000000*%
%ADD16C,2.000000*%
%ADD17O,3.400000X2.400000*%
%ADD18O,2.400000X3.400000*%
%ADD19C,3.600000*%
%ADD20R,2.000000X2.000000*%
%ADD21R,2.100000X2.100000*%
%ADD22O,2.100000X2.100000*%
%ADD23C,1.924000*%
%ADD24R,1.600000X3.200000*%
%ADD25R,3.200000X1.600000*%
G04 APERTURE END LIST*
D10*
X62464285Y-115535714D02*
X62392857Y-115607142D01*
X62178571Y-115678571D01*
X62035714Y-115678571D01*
X61821428Y-115607142D01*
X61678571Y-115464285D01*
X61607142Y-115321428D01*
X61535714Y-115035714D01*
X61535714Y-114821428D01*
X61607142Y-114535714D01*
X61678571Y-114392857D01*
X61821428Y-114250000D01*
X62035714Y-114178571D01*
X62178571Y-114178571D01*
X62392857Y-114250000D01*
X62464285Y-114321428D01*
X63107142Y-115678571D02*
X63107142Y-114178571D01*
X63607142Y-115250000D01*
X64107142Y-114178571D01*
X64107142Y-115678571D01*
X64607142Y-114178571D02*
X65464285Y-114178571D01*
X65035714Y-115678571D02*
X65035714Y-114178571D01*
X65964285Y-115107142D02*
X67107142Y-115107142D01*
X68107142Y-114178571D02*
X68392857Y-114178571D01*
X68535714Y-114250000D01*
X68678571Y-114392857D01*
X68750000Y-114678571D01*
X68750000Y-115178571D01*
X68678571Y-115464285D01*
X68535714Y-115607142D01*
X68392857Y-115678571D01*
X68107142Y-115678571D01*
X67964285Y-115607142D01*
X67821428Y-115464285D01*
X67750000Y-115178571D01*
X67750000Y-114678571D01*
X67821428Y-114392857D01*
X67964285Y-114250000D01*
X68107142Y-114178571D01*
X69392857Y-114178571D02*
X69392857Y-115392857D01*
X69464285Y-115535714D01*
X69535714Y-115607142D01*
X69678571Y-115678571D01*
X69964285Y-115678571D01*
X70107142Y-115607142D01*
X70178571Y-115535714D01*
X70250000Y-115392857D01*
X70250000Y-114178571D01*
X70750000Y-114178571D02*
X71607142Y-114178571D01*
X71178571Y-115678571D02*
X71178571Y-114178571D01*
D11*
X142880952Y-82452380D02*
X142880952Y-81452380D01*
X144071428Y-81404761D02*
X143214285Y-82690476D01*
X144595238Y-81452380D02*
X144785714Y-81452380D01*
X144880952Y-81500000D01*
X144976190Y-81595238D01*
X145023809Y-81785714D01*
X145023809Y-82119047D01*
X144976190Y-82309523D01*
X144880952Y-82404761D01*
X144785714Y-82452380D01*
X144595238Y-82452380D01*
X144500000Y-82404761D01*
X144404761Y-82309523D01*
X144357142Y-82119047D01*
X144357142Y-81785714D01*
X144404761Y-81595238D01*
X144500000Y-81500000D01*
X144595238Y-81452380D01*
X146166666Y-82166666D02*
X146642857Y-82166666D01*
X146071428Y-82452380D02*
X146404761Y-81452380D01*
X146738095Y-82452380D01*
X147071428Y-82452380D02*
X147071428Y-81452380D01*
X147309523Y-81452380D01*
X147452380Y-81500000D01*
X147547619Y-81595238D01*
X147595238Y-81690476D01*
X147642857Y-81880952D01*
X147642857Y-82023809D01*
X147595238Y-82214285D01*
X147547619Y-82309523D01*
X147452380Y-82404761D01*
X147309523Y-82452380D01*
X147071428Y-82452380D01*
X148071428Y-82452380D02*
X148071428Y-81452380D01*
X148309523Y-81452380D01*
X148452380Y-81500000D01*
X148547619Y-81595238D01*
X148595238Y-81690476D01*
X148642857Y-81880952D01*
X148642857Y-82023809D01*
X148595238Y-82214285D01*
X148547619Y-82309523D01*
X148452380Y-82404761D01*
X148309523Y-82452380D01*
X148071428Y-82452380D01*
X149642857Y-82452380D02*
X149309523Y-81976190D01*
X149071428Y-82452380D02*
X149071428Y-81452380D01*
X149452380Y-81452380D01*
X149547619Y-81500000D01*
X149595238Y-81547619D01*
X149642857Y-81642857D01*
X149642857Y-81785714D01*
X149595238Y-81880952D01*
X149547619Y-81928571D01*
X149452380Y-81976190D01*
X149071428Y-81976190D01*
X151119047Y-81452380D02*
X151119047Y-82166666D01*
X151071428Y-82309523D01*
X150976190Y-82404761D01*
X150833333Y-82452380D01*
X150738095Y-82452380D01*
X151595238Y-82452380D02*
X151595238Y-81452380D01*
X151976190Y-81452380D01*
X152071428Y-81500000D01*
X152119047Y-81547619D01*
X152166666Y-81642857D01*
X152166666Y-81785714D01*
X152119047Y-81880952D01*
X152071428Y-81928571D01*
X151976190Y-81976190D01*
X151595238Y-81976190D01*
X126261904Y-113904761D02*
X126404761Y-113952380D01*
X126642857Y-113952380D01*
X126738095Y-113904761D01*
X126785714Y-113857142D01*
X126833333Y-113761904D01*
X126833333Y-113666666D01*
X126785714Y-113571428D01*
X126738095Y-113523809D01*
X126642857Y-113476190D01*
X126452380Y-113428571D01*
X126357142Y-113380952D01*
X126309523Y-113333333D01*
X126261904Y-113238095D01*
X126261904Y-113142857D01*
X126309523Y-113047619D01*
X126357142Y-113000000D01*
X126452380Y-112952380D01*
X126690476Y-112952380D01*
X126833333Y-113000000D01*
X127261904Y-113428571D02*
X127595238Y-113428571D01*
X127738095Y-113952380D02*
X127261904Y-113952380D01*
X127261904Y-112952380D01*
X127738095Y-112952380D01*
X128738095Y-113952380D02*
X128404761Y-113476190D01*
X128166666Y-113952380D02*
X128166666Y-112952380D01*
X128547619Y-112952380D01*
X128642857Y-113000000D01*
X128690476Y-113047619D01*
X128738095Y-113142857D01*
X128738095Y-113285714D01*
X128690476Y-113380952D01*
X128642857Y-113428571D01*
X128547619Y-113476190D01*
X128166666Y-113476190D01*
X129166666Y-113952380D02*
X129166666Y-112952380D01*
X129595238Y-113666666D02*
X130071428Y-113666666D01*
X129500000Y-113952380D02*
X129833333Y-112952380D01*
X130166666Y-113952380D01*
X130976190Y-113952380D02*
X130500000Y-113952380D01*
X130500000Y-112952380D01*
X132642857Y-113857142D02*
X132595238Y-113904761D01*
X132452380Y-113952380D01*
X132357142Y-113952380D01*
X132214285Y-113904761D01*
X132119047Y-113809523D01*
X132071428Y-113714285D01*
X132023809Y-113523809D01*
X132023809Y-113380952D01*
X132071428Y-113190476D01*
X132119047Y-113095238D01*
X132214285Y-113000000D01*
X132357142Y-112952380D01*
X132452380Y-112952380D01*
X132595238Y-113000000D01*
X132642857Y-113047619D01*
X133261904Y-112952380D02*
X133452380Y-112952380D01*
X133547619Y-113000000D01*
X133642857Y-113095238D01*
X133690476Y-113285714D01*
X133690476Y-113619047D01*
X133642857Y-113809523D01*
X133547619Y-113904761D01*
X133452380Y-113952380D01*
X133261904Y-113952380D01*
X133166666Y-113904761D01*
X133071428Y-113809523D01*
X133023809Y-113619047D01*
X133023809Y-113285714D01*
X133071428Y-113095238D01*
X133166666Y-113000000D01*
X133261904Y-112952380D01*
X134119047Y-113952380D02*
X134119047Y-112952380D01*
X134690476Y-113952380D01*
X134690476Y-112952380D01*
D10*
X131821428Y-97821428D02*
X131821428Y-98821428D01*
X130321428Y-98178571D01*
X131321428Y-100035714D02*
X130321428Y-100035714D01*
X131892857Y-99678571D02*
X130821428Y-99321428D01*
X130821428Y-100250000D01*
X130321428Y-100821428D02*
X131821428Y-100821428D01*
X131107142Y-100821428D02*
X131107142Y-101678571D01*
X130321428Y-101678571D02*
X131821428Y-101678571D01*
X130464285Y-103250000D02*
X130392857Y-103178571D01*
X130321428Y-102964285D01*
X130321428Y-102821428D01*
X130392857Y-102607142D01*
X130535714Y-102464285D01*
X130678571Y-102392857D01*
X130964285Y-102321428D01*
X131178571Y-102321428D01*
X131464285Y-102392857D01*
X131607142Y-102464285D01*
X131750000Y-102607142D01*
X131821428Y-102821428D01*
X131821428Y-102964285D01*
X131750000Y-103178571D01*
X131678571Y-103250000D01*
X131821428Y-104178571D02*
X131821428Y-104321428D01*
X131750000Y-104464285D01*
X131678571Y-104535714D01*
X131535714Y-104607142D01*
X131250000Y-104678571D01*
X130892857Y-104678571D01*
X130607142Y-104607142D01*
X130464285Y-104535714D01*
X130392857Y-104464285D01*
X130321428Y-104321428D01*
X130321428Y-104178571D01*
X130392857Y-104035714D01*
X130464285Y-103964285D01*
X130607142Y-103892857D01*
X130892857Y-103821428D01*
X131250000Y-103821428D01*
X131535714Y-103892857D01*
X131678571Y-103964285D01*
X131750000Y-104035714D01*
X131821428Y-104178571D01*
X131821428Y-105607142D02*
X131821428Y-105750000D01*
X131750000Y-105892857D01*
X131678571Y-105964285D01*
X131535714Y-106035714D01*
X131250000Y-106107142D01*
X130892857Y-106107142D01*
X130607142Y-106035714D01*
X130464285Y-105964285D01*
X130392857Y-105892857D01*
X130321428Y-105750000D01*
X130321428Y-105607142D01*
X130392857Y-105464285D01*
X130464285Y-105392857D01*
X130607142Y-105321428D01*
X130892857Y-105250000D01*
X131250000Y-105250000D01*
X131535714Y-105321428D01*
X131678571Y-105392857D01*
X131750000Y-105464285D01*
X131821428Y-105607142D01*
X131821428Y-73857142D02*
X131821428Y-74857142D01*
X130321428Y-74214285D01*
X131321428Y-76071428D02*
X130321428Y-76071428D01*
X131892857Y-75714285D02*
X130821428Y-75357142D01*
X130821428Y-76285714D01*
X130321428Y-76857142D02*
X131821428Y-76857142D01*
X131107142Y-76857142D02*
X131107142Y-77714285D01*
X130321428Y-77714285D02*
X131821428Y-77714285D01*
X130464285Y-79285714D02*
X130392857Y-79214285D01*
X130321428Y-79000000D01*
X130321428Y-78857142D01*
X130392857Y-78642857D01*
X130535714Y-78500000D01*
X130678571Y-78428571D01*
X130964285Y-78357142D01*
X131178571Y-78357142D01*
X131464285Y-78428571D01*
X131607142Y-78500000D01*
X131750000Y-78642857D01*
X131821428Y-78857142D01*
X131821428Y-79000000D01*
X131750000Y-79214285D01*
X131678571Y-79285714D01*
X130321428Y-80714285D02*
X130321428Y-79857142D01*
X130321428Y-80285714D02*
X131821428Y-80285714D01*
X131607142Y-80142857D01*
X131464285Y-80000000D01*
X131392857Y-79857142D01*
X131821428Y-81214285D02*
X131821428Y-82142857D01*
X131250000Y-81642857D01*
X131250000Y-81857142D01*
X131178571Y-82000000D01*
X131107142Y-82071428D01*
X130964285Y-82142857D01*
X130607142Y-82142857D01*
X130464285Y-82071428D01*
X130392857Y-82000000D01*
X130321428Y-81857142D01*
X130321428Y-81428571D01*
X130392857Y-81285714D01*
X130464285Y-81214285D01*
X130321428Y-82857142D02*
X130321428Y-83142857D01*
X130392857Y-83285714D01*
X130464285Y-83357142D01*
X130678571Y-83500000D01*
X130964285Y-83571428D01*
X131535714Y-83571428D01*
X131678571Y-83500000D01*
X131750000Y-83428571D01*
X131821428Y-83285714D01*
X131821428Y-83000000D01*
X131750000Y-82857142D01*
X131678571Y-82785714D01*
X131535714Y-82714285D01*
X131178571Y-82714285D01*
X131035714Y-82785714D01*
X130964285Y-82857142D01*
X130892857Y-83000000D01*
X130892857Y-83285714D01*
X130964285Y-83428571D01*
X131035714Y-83500000D01*
X131178571Y-83571428D01*
X98178571Y-97250000D02*
X98892857Y-97250000D01*
X98035714Y-97678571D02*
X98535714Y-96178571D01*
X99035714Y-97678571D01*
X99321428Y-96178571D02*
X100178571Y-96178571D01*
X99750000Y-97678571D02*
X99750000Y-96178571D01*
X100678571Y-97678571D02*
X100678571Y-96678571D01*
X100678571Y-96821428D02*
X100750000Y-96750000D01*
X100892857Y-96678571D01*
X101107142Y-96678571D01*
X101250000Y-96750000D01*
X101321428Y-96892857D01*
X101321428Y-97678571D01*
X101321428Y-96892857D02*
X101392857Y-96750000D01*
X101535714Y-96678571D01*
X101750000Y-96678571D01*
X101892857Y-96750000D01*
X101964285Y-96892857D01*
X101964285Y-97678571D01*
X103250000Y-97607142D02*
X103107142Y-97678571D01*
X102821428Y-97678571D01*
X102678571Y-97607142D01*
X102607142Y-97464285D01*
X102607142Y-96892857D01*
X102678571Y-96750000D01*
X102821428Y-96678571D01*
X103107142Y-96678571D01*
X103250000Y-96750000D01*
X103321428Y-96892857D01*
X103321428Y-97035714D01*
X102607142Y-97178571D01*
X104607142Y-96678571D02*
X104607142Y-97892857D01*
X104535714Y-98035714D01*
X104464285Y-98107142D01*
X104321428Y-98178571D01*
X104107142Y-98178571D01*
X103964285Y-98107142D01*
X104607142Y-97607142D02*
X104464285Y-97678571D01*
X104178571Y-97678571D01*
X104035714Y-97607142D01*
X103964285Y-97535714D01*
X103892857Y-97392857D01*
X103892857Y-96964285D01*
X103964285Y-96821428D01*
X104035714Y-96750000D01*
X104178571Y-96678571D01*
X104464285Y-96678571D01*
X104607142Y-96750000D01*
X105964285Y-97678571D02*
X105964285Y-96892857D01*
X105892857Y-96750000D01*
X105750000Y-96678571D01*
X105464285Y-96678571D01*
X105321428Y-96750000D01*
X105964285Y-97607142D02*
X105821428Y-97678571D01*
X105464285Y-97678571D01*
X105321428Y-97607142D01*
X105250000Y-97464285D01*
X105250000Y-97321428D01*
X105321428Y-97178571D01*
X105464285Y-97107142D01*
X105821428Y-97107142D01*
X105964285Y-97035714D01*
X106535714Y-96178571D02*
X107464285Y-96178571D01*
X106964285Y-96750000D01*
X107178571Y-96750000D01*
X107321428Y-96821428D01*
X107392857Y-96892857D01*
X107464285Y-97035714D01*
X107464285Y-97392857D01*
X107392857Y-97535714D01*
X107321428Y-97607142D01*
X107178571Y-97678571D01*
X106750000Y-97678571D01*
X106607142Y-97607142D01*
X106535714Y-97535714D01*
X108035714Y-96321428D02*
X108107142Y-96250000D01*
X108250000Y-96178571D01*
X108607142Y-96178571D01*
X108750000Y-96250000D01*
X108821428Y-96321428D01*
X108892857Y-96464285D01*
X108892857Y-96607142D01*
X108821428Y-96821428D01*
X107964285Y-97678571D01*
X108892857Y-97678571D01*
X109750000Y-96821428D02*
X109607142Y-96750000D01*
X109535714Y-96678571D01*
X109464285Y-96535714D01*
X109464285Y-96464285D01*
X109535714Y-96321428D01*
X109607142Y-96250000D01*
X109750000Y-96178571D01*
X110035714Y-96178571D01*
X110178571Y-96250000D01*
X110250000Y-96321428D01*
X110321428Y-96464285D01*
X110321428Y-96535714D01*
X110250000Y-96678571D01*
X110178571Y-96750000D01*
X110035714Y-96821428D01*
X109750000Y-96821428D01*
X109607142Y-96892857D01*
X109535714Y-96964285D01*
X109464285Y-97107142D01*
X109464285Y-97392857D01*
X109535714Y-97535714D01*
X109607142Y-97607142D01*
X109750000Y-97678571D01*
X110035714Y-97678571D01*
X110178571Y-97607142D01*
X110250000Y-97535714D01*
X110321428Y-97392857D01*
X110321428Y-97107142D01*
X110250000Y-96964285D01*
X110178571Y-96892857D01*
X110035714Y-96821428D01*
X110964285Y-97678571D02*
X110964285Y-96178571D01*
X111535714Y-96178571D01*
X111678571Y-96250000D01*
X111750000Y-96321428D01*
X111821428Y-96464285D01*
X111821428Y-96678571D01*
X111750000Y-96821428D01*
X111678571Y-96892857D01*
X111535714Y-96964285D01*
X110964285Y-96964285D01*
X92857142Y-77321428D02*
X92714285Y-77250000D01*
X92642857Y-77178571D01*
X92571428Y-77035714D01*
X92571428Y-76964285D01*
X92642857Y-76821428D01*
X92714285Y-76750000D01*
X92857142Y-76678571D01*
X93142857Y-76678571D01*
X93285714Y-76750000D01*
X93357142Y-76821428D01*
X93428571Y-76964285D01*
X93428571Y-77035714D01*
X93357142Y-77178571D01*
X93285714Y-77250000D01*
X93142857Y-77321428D01*
X92857142Y-77321428D01*
X92714285Y-77392857D01*
X92642857Y-77464285D01*
X92571428Y-77607142D01*
X92571428Y-77892857D01*
X92642857Y-78035714D01*
X92714285Y-78107142D01*
X92857142Y-78178571D01*
X93142857Y-78178571D01*
X93285714Y-78107142D01*
X93357142Y-78035714D01*
X93428571Y-77892857D01*
X93428571Y-77607142D01*
X93357142Y-77464285D01*
X93285714Y-77392857D01*
X93142857Y-77321428D01*
X94000000Y-76821428D02*
X94071428Y-76750000D01*
X94214285Y-76678571D01*
X94571428Y-76678571D01*
X94714285Y-76750000D01*
X94785714Y-76821428D01*
X94857142Y-76964285D01*
X94857142Y-77107142D01*
X94785714Y-77321428D01*
X93928571Y-78178571D01*
X94857142Y-78178571D01*
X96214285Y-76678571D02*
X95500000Y-76678571D01*
X95428571Y-77392857D01*
X95500000Y-77321428D01*
X95642857Y-77250000D01*
X96000000Y-77250000D01*
X96142857Y-77321428D01*
X96214285Y-77392857D01*
X96285714Y-77535714D01*
X96285714Y-77892857D01*
X96214285Y-78035714D01*
X96142857Y-78107142D01*
X96000000Y-78178571D01*
X95642857Y-78178571D01*
X95500000Y-78107142D01*
X95428571Y-78035714D01*
X97642857Y-76678571D02*
X96928571Y-76678571D01*
X96857142Y-77392857D01*
X96928571Y-77321428D01*
X97071428Y-77250000D01*
X97428571Y-77250000D01*
X97571428Y-77321428D01*
X97642857Y-77392857D01*
X97714285Y-77535714D01*
X97714285Y-77892857D01*
X97642857Y-78035714D01*
X97571428Y-78107142D01*
X97428571Y-78178571D01*
X97071428Y-78178571D01*
X96928571Y-78107142D01*
X96857142Y-78035714D01*
X98785714Y-78750000D02*
X98714285Y-78678571D01*
X98571428Y-78464285D01*
X98500000Y-78321428D01*
X98428571Y-78107142D01*
X98357142Y-77750000D01*
X98357142Y-77464285D01*
X98428571Y-77107142D01*
X98500000Y-76892857D01*
X98571428Y-76750000D01*
X98714285Y-76535714D01*
X98785714Y-76464285D01*
X99357142Y-78178571D02*
X99357142Y-76678571D01*
X99928571Y-76678571D01*
X100071428Y-76750000D01*
X100142857Y-76821428D01*
X100214285Y-76964285D01*
X100214285Y-77178571D01*
X100142857Y-77321428D01*
X100071428Y-77392857D01*
X99928571Y-77464285D01*
X99357142Y-77464285D01*
X100857142Y-78178571D02*
X100857142Y-76678571D01*
X101428571Y-76678571D01*
X101571428Y-76750000D01*
X101642857Y-76821428D01*
X101714285Y-76964285D01*
X101714285Y-77178571D01*
X101642857Y-77321428D01*
X101571428Y-77392857D01*
X101428571Y-77464285D01*
X100857142Y-77464285D01*
X102357142Y-78178571D02*
X102357142Y-76678571D01*
X102928571Y-78750000D02*
X103000000Y-78678571D01*
X103142857Y-78464285D01*
X103214285Y-78321428D01*
X103285714Y-78107142D01*
X103357142Y-77750000D01*
X103357142Y-77464285D01*
X103285714Y-77107142D01*
X103214285Y-76892857D01*
X103142857Y-76750000D01*
X103000000Y-76535714D01*
X102928571Y-76464285D01*
D11*
X156059523Y-78952380D02*
X155488095Y-78952380D01*
X155773809Y-78952380D02*
X155773809Y-77952380D01*
X155678571Y-78095238D01*
X155583333Y-78190476D01*
X155488095Y-78238095D01*
X156630952Y-78380952D02*
X156535714Y-78333333D01*
X156488095Y-78285714D01*
X156440476Y-78190476D01*
X156440476Y-78142857D01*
X156488095Y-78047619D01*
X156535714Y-78000000D01*
X156630952Y-77952380D01*
X156821428Y-77952380D01*
X156916666Y-78000000D01*
X156964285Y-78047619D01*
X157011904Y-78142857D01*
X157011904Y-78190476D01*
X156964285Y-78285714D01*
X156916666Y-78333333D01*
X156821428Y-78380952D01*
X156630952Y-78380952D01*
X156535714Y-78428571D01*
X156488095Y-78476190D01*
X156440476Y-78571428D01*
X156440476Y-78761904D01*
X156488095Y-78857142D01*
X156535714Y-78904761D01*
X156630952Y-78952380D01*
X156821428Y-78952380D01*
X156916666Y-78904761D01*
X156964285Y-78857142D01*
X157011904Y-78761904D01*
X157011904Y-78571428D01*
X156964285Y-78476190D01*
X156916666Y-78428571D01*
X156821428Y-78380952D01*
X156059523Y-76452380D02*
X155488095Y-76452380D01*
X155773809Y-76452380D02*
X155773809Y-75452380D01*
X155678571Y-75595238D01*
X155583333Y-75690476D01*
X155488095Y-75738095D01*
X156678571Y-75452380D02*
X156773809Y-75452380D01*
X156869047Y-75500000D01*
X156916666Y-75547619D01*
X156964285Y-75642857D01*
X157011904Y-75833333D01*
X157011904Y-76071428D01*
X156964285Y-76261904D01*
X156916666Y-76357142D01*
X156869047Y-76404761D01*
X156773809Y-76452380D01*
X156678571Y-76452380D01*
X156583333Y-76404761D01*
X156535714Y-76357142D01*
X156488095Y-76261904D01*
X156440476Y-76071428D01*
X156440476Y-75833333D01*
X156488095Y-75642857D01*
X156535714Y-75547619D01*
X156583333Y-75500000D01*
X156678571Y-75452380D01*
X155726190Y-72952380D02*
X155821428Y-72952380D01*
X155916666Y-73000000D01*
X155964285Y-73047619D01*
X156011904Y-73142857D01*
X156059523Y-73333333D01*
X156059523Y-73571428D01*
X156011904Y-73761904D01*
X155964285Y-73857142D01*
X155916666Y-73904761D01*
X155821428Y-73952380D01*
X155726190Y-73952380D01*
X155630952Y-73904761D01*
X155583333Y-73857142D01*
X155535714Y-73761904D01*
X155488095Y-73571428D01*
X155488095Y-73333333D01*
X155535714Y-73142857D01*
X155583333Y-73047619D01*
X155630952Y-73000000D01*
X155726190Y-72952380D01*
X156630952Y-73380952D02*
X156535714Y-73333333D01*
X156488095Y-73285714D01*
X156440476Y-73190476D01*
X156440476Y-73142857D01*
X156488095Y-73047619D01*
X156535714Y-73000000D01*
X156630952Y-72952380D01*
X156821428Y-72952380D01*
X156916666Y-73000000D01*
X156964285Y-73047619D01*
X157011904Y-73142857D01*
X157011904Y-73190476D01*
X156964285Y-73285714D01*
X156916666Y-73333333D01*
X156821428Y-73380952D01*
X156630952Y-73380952D01*
X156535714Y-73428571D01*
X156488095Y-73476190D01*
X156440476Y-73571428D01*
X156440476Y-73761904D01*
X156488095Y-73857142D01*
X156535714Y-73904761D01*
X156630952Y-73952380D01*
X156821428Y-73952380D01*
X156916666Y-73904761D01*
X156964285Y-73857142D01*
X157011904Y-73761904D01*
X157011904Y-73571428D01*
X156964285Y-73476190D01*
X156916666Y-73428571D01*
X156821428Y-73380952D01*
X155726190Y-70202380D02*
X155821428Y-70202380D01*
X155916666Y-70250000D01*
X155964285Y-70297619D01*
X156011904Y-70392857D01*
X156059523Y-70583333D01*
X156059523Y-70821428D01*
X156011904Y-71011904D01*
X155964285Y-71107142D01*
X155916666Y-71154761D01*
X155821428Y-71202380D01*
X155726190Y-71202380D01*
X155630952Y-71154761D01*
X155583333Y-71107142D01*
X155535714Y-71011904D01*
X155488095Y-70821428D01*
X155488095Y-70583333D01*
X155535714Y-70392857D01*
X155583333Y-70297619D01*
X155630952Y-70250000D01*
X155726190Y-70202380D01*
X156678571Y-70202380D02*
X156773809Y-70202380D01*
X156869047Y-70250000D01*
X156916666Y-70297619D01*
X156964285Y-70392857D01*
X157011904Y-70583333D01*
X157011904Y-70821428D01*
X156964285Y-71011904D01*
X156916666Y-71107142D01*
X156869047Y-71154761D01*
X156773809Y-71202380D01*
X156678571Y-71202380D01*
X156583333Y-71154761D01*
X156535714Y-71107142D01*
X156488095Y-71011904D01*
X156440476Y-70821428D01*
X156440476Y-70583333D01*
X156488095Y-70392857D01*
X156535714Y-70297619D01*
X156583333Y-70250000D01*
X156678571Y-70202380D01*
X138964285Y-78202380D02*
X138773809Y-78202380D01*
X138678571Y-78250000D01*
X138630952Y-78297619D01*
X138535714Y-78440476D01*
X138488095Y-78630952D01*
X138488095Y-79011904D01*
X138535714Y-79107142D01*
X138583333Y-79154761D01*
X138678571Y-79202380D01*
X138869047Y-79202380D01*
X138964285Y-79154761D01*
X139011904Y-79107142D01*
X139059523Y-79011904D01*
X139059523Y-78773809D01*
X139011904Y-78678571D01*
X138964285Y-78630952D01*
X138869047Y-78583333D01*
X138678571Y-78583333D01*
X138583333Y-78630952D01*
X138535714Y-78678571D01*
X138488095Y-78773809D01*
X139678571Y-78202380D02*
X139773809Y-78202380D01*
X139869047Y-78250000D01*
X139916666Y-78297619D01*
X139964285Y-78392857D01*
X140011904Y-78583333D01*
X140011904Y-78821428D01*
X139964285Y-79011904D01*
X139916666Y-79107142D01*
X139869047Y-79154761D01*
X139773809Y-79202380D01*
X139678571Y-79202380D01*
X139583333Y-79154761D01*
X139535714Y-79107142D01*
X139488095Y-79011904D01*
X139440476Y-78821428D01*
X139440476Y-78583333D01*
X139488095Y-78392857D01*
X139535714Y-78297619D01*
X139583333Y-78250000D01*
X139678571Y-78202380D01*
X138964285Y-75785714D02*
X138964285Y-76452380D01*
X138726190Y-75404761D02*
X138488095Y-76119047D01*
X139107142Y-76119047D01*
X139678571Y-75452380D02*
X139773809Y-75452380D01*
X139869047Y-75500000D01*
X139916666Y-75547619D01*
X139964285Y-75642857D01*
X140011904Y-75833333D01*
X140011904Y-76071428D01*
X139964285Y-76261904D01*
X139916666Y-76357142D01*
X139869047Y-76404761D01*
X139773809Y-76452380D01*
X139678571Y-76452380D01*
X139583333Y-76404761D01*
X139535714Y-76357142D01*
X139488095Y-76261904D01*
X139440476Y-76071428D01*
X139440476Y-75833333D01*
X139488095Y-75642857D01*
X139535714Y-75547619D01*
X139583333Y-75500000D01*
X139678571Y-75452380D01*
X138488095Y-73047619D02*
X138535714Y-73000000D01*
X138630952Y-72952380D01*
X138869047Y-72952380D01*
X138964285Y-73000000D01*
X139011904Y-73047619D01*
X139059523Y-73142857D01*
X139059523Y-73238095D01*
X139011904Y-73380952D01*
X138440476Y-73952380D01*
X139059523Y-73952380D01*
X139678571Y-72952380D02*
X139773809Y-72952380D01*
X139869047Y-73000000D01*
X139916666Y-73047619D01*
X139964285Y-73142857D01*
X140011904Y-73333333D01*
X140011904Y-73571428D01*
X139964285Y-73761904D01*
X139916666Y-73857142D01*
X139869047Y-73904761D01*
X139773809Y-73952380D01*
X139678571Y-73952380D01*
X139583333Y-73904761D01*
X139535714Y-73857142D01*
X139488095Y-73761904D01*
X139440476Y-73571428D01*
X139440476Y-73333333D01*
X139488095Y-73142857D01*
X139535714Y-73047619D01*
X139583333Y-73000000D01*
X139678571Y-72952380D01*
X138726190Y-70452380D02*
X138821428Y-70452380D01*
X138916666Y-70500000D01*
X138964285Y-70547619D01*
X139011904Y-70642857D01*
X139059523Y-70833333D01*
X139059523Y-71071428D01*
X139011904Y-71261904D01*
X138964285Y-71357142D01*
X138916666Y-71404761D01*
X138821428Y-71452380D01*
X138726190Y-71452380D01*
X138630952Y-71404761D01*
X138583333Y-71357142D01*
X138535714Y-71261904D01*
X138488095Y-71071428D01*
X138488095Y-70833333D01*
X138535714Y-70642857D01*
X138583333Y-70547619D01*
X138630952Y-70500000D01*
X138726190Y-70452380D01*
X139678571Y-70452380D02*
X139773809Y-70452380D01*
X139869047Y-70500000D01*
X139916666Y-70547619D01*
X139964285Y-70642857D01*
X140011904Y-70833333D01*
X140011904Y-71071428D01*
X139964285Y-71261904D01*
X139916666Y-71357142D01*
X139869047Y-71404761D01*
X139773809Y-71452380D01*
X139678571Y-71452380D01*
X139583333Y-71404761D01*
X139535714Y-71357142D01*
X139488095Y-71261904D01*
X139440476Y-71071428D01*
X139440476Y-70833333D01*
X139488095Y-70642857D01*
X139535714Y-70547619D01*
X139583333Y-70500000D01*
X139678571Y-70452380D01*
X149226190Y-87452380D02*
X149321428Y-87452380D01*
X149416666Y-87500000D01*
X149464285Y-87547619D01*
X149511904Y-87642857D01*
X149559523Y-87833333D01*
X149559523Y-88071428D01*
X149511904Y-88261904D01*
X149464285Y-88357142D01*
X149416666Y-88404761D01*
X149321428Y-88452380D01*
X149226190Y-88452380D01*
X149130952Y-88404761D01*
X149083333Y-88357142D01*
X149035714Y-88261904D01*
X148988095Y-88071428D01*
X148988095Y-87833333D01*
X149035714Y-87642857D01*
X149083333Y-87547619D01*
X149130952Y-87500000D01*
X149226190Y-87452380D01*
X150178571Y-87452380D02*
X150273809Y-87452380D01*
X150369047Y-87500000D01*
X150416666Y-87547619D01*
X150464285Y-87642857D01*
X150511904Y-87833333D01*
X150511904Y-88071428D01*
X150464285Y-88261904D01*
X150416666Y-88357142D01*
X150369047Y-88404761D01*
X150273809Y-88452380D01*
X150178571Y-88452380D01*
X150083333Y-88404761D01*
X150035714Y-88357142D01*
X149988095Y-88261904D01*
X149940476Y-88071428D01*
X149940476Y-87833333D01*
X149988095Y-87642857D01*
X150035714Y-87547619D01*
X150083333Y-87500000D01*
X150178571Y-87452380D01*
X144178571Y-87880952D02*
X144083333Y-87833333D01*
X144035714Y-87785714D01*
X143988095Y-87690476D01*
X143988095Y-87642857D01*
X144035714Y-87547619D01*
X144083333Y-87500000D01*
X144178571Y-87452380D01*
X144369047Y-87452380D01*
X144464285Y-87500000D01*
X144511904Y-87547619D01*
X144559523Y-87642857D01*
X144559523Y-87690476D01*
X144511904Y-87785714D01*
X144464285Y-87833333D01*
X144369047Y-87880952D01*
X144178571Y-87880952D01*
X144083333Y-87928571D01*
X144035714Y-87976190D01*
X143988095Y-88071428D01*
X143988095Y-88261904D01*
X144035714Y-88357142D01*
X144083333Y-88404761D01*
X144178571Y-88452380D01*
X144369047Y-88452380D01*
X144464285Y-88404761D01*
X144511904Y-88357142D01*
X144559523Y-88261904D01*
X144559523Y-88071428D01*
X144511904Y-87976190D01*
X144464285Y-87928571D01*
X144369047Y-87880952D01*
X145178571Y-87452380D02*
X145273809Y-87452380D01*
X145369047Y-87500000D01*
X145416666Y-87547619D01*
X145464285Y-87642857D01*
X145511904Y-87833333D01*
X145511904Y-88071428D01*
X145464285Y-88261904D01*
X145416666Y-88357142D01*
X145369047Y-88404761D01*
X145273809Y-88452380D01*
X145178571Y-88452380D01*
X145083333Y-88404761D01*
X145035714Y-88357142D01*
X144988095Y-88261904D01*
X144940476Y-88071428D01*
X144940476Y-87833333D01*
X144988095Y-87642857D01*
X145035714Y-87547619D01*
X145083333Y-87500000D01*
X145178571Y-87452380D01*
X117523809Y-111952380D02*
X117523809Y-110952380D01*
X118571428Y-111857142D02*
X118523809Y-111904761D01*
X118380952Y-111952380D01*
X118285714Y-111952380D01*
X118142857Y-111904761D01*
X118047619Y-111809523D01*
X118000000Y-111714285D01*
X117952380Y-111523809D01*
X117952380Y-111380952D01*
X118000000Y-111190476D01*
X118047619Y-111095238D01*
X118142857Y-111000000D01*
X118285714Y-110952380D01*
X118380952Y-110952380D01*
X118523809Y-111000000D01*
X118571428Y-111047619D01*
X118952380Y-111904761D02*
X119095238Y-111952380D01*
X119333333Y-111952380D01*
X119428571Y-111904761D01*
X119476190Y-111857142D01*
X119523809Y-111761904D01*
X119523809Y-111666666D01*
X119476190Y-111571428D01*
X119428571Y-111523809D01*
X119333333Y-111476190D01*
X119142857Y-111428571D01*
X119047619Y-111380952D01*
X119000000Y-111333333D01*
X118952380Y-111238095D01*
X118952380Y-111142857D01*
X119000000Y-111047619D01*
X119047619Y-111000000D01*
X119142857Y-110952380D01*
X119380952Y-110952380D01*
X119523809Y-111000000D01*
X119952380Y-111952380D02*
X119952380Y-110952380D01*
X120333333Y-110952380D01*
X120428571Y-111000000D01*
X120476190Y-111047619D01*
X120523809Y-111142857D01*
X120523809Y-111285714D01*
X120476190Y-111380952D01*
X120428571Y-111428571D01*
X120333333Y-111476190D01*
X119952380Y-111476190D01*
D10*
X74980714Y-117628571D02*
X74623571Y-117628571D01*
X74623571Y-115485714D01*
X74980714Y-115485714D01*
X75552142Y-117128571D02*
X75552142Y-115628571D01*
X76409285Y-117128571D02*
X75766428Y-116271428D01*
X76409285Y-115628571D02*
X75552142Y-116485714D01*
X76909285Y-115628571D02*
X77909285Y-115628571D01*
X76909285Y-117128571D01*
X77909285Y-117128571D01*
X78695000Y-116271428D02*
X78552142Y-116200000D01*
X78480714Y-116128571D01*
X78409285Y-115985714D01*
X78409285Y-115914285D01*
X78480714Y-115771428D01*
X78552142Y-115700000D01*
X78695000Y-115628571D01*
X78980714Y-115628571D01*
X79123571Y-115700000D01*
X79195000Y-115771428D01*
X79266428Y-115914285D01*
X79266428Y-115985714D01*
X79195000Y-116128571D01*
X79123571Y-116200000D01*
X78980714Y-116271428D01*
X78695000Y-116271428D01*
X78552142Y-116342857D01*
X78480714Y-116414285D01*
X78409285Y-116557142D01*
X78409285Y-116842857D01*
X78480714Y-116985714D01*
X78552142Y-117057142D01*
X78695000Y-117128571D01*
X78980714Y-117128571D01*
X79123571Y-117057142D01*
X79195000Y-116985714D01*
X79266428Y-116842857D01*
X79266428Y-116557142D01*
X79195000Y-116414285D01*
X79123571Y-116342857D01*
X78980714Y-116271428D01*
X80195000Y-115628571D02*
X80337857Y-115628571D01*
X80480714Y-115700000D01*
X80552142Y-115771428D01*
X80623571Y-115914285D01*
X80695000Y-116200000D01*
X80695000Y-116557142D01*
X80623571Y-116842857D01*
X80552142Y-116985714D01*
X80480714Y-117057142D01*
X80337857Y-117128571D01*
X80195000Y-117128571D01*
X80052142Y-117057142D01*
X79980714Y-116985714D01*
X79909285Y-116842857D01*
X79837857Y-116557142D01*
X79837857Y-116200000D01*
X79909285Y-115914285D01*
X79980714Y-115771428D01*
X80052142Y-115700000D01*
X80195000Y-115628571D01*
X81337857Y-116557142D02*
X82480714Y-116557142D01*
X83195000Y-117128571D02*
X83195000Y-115628571D01*
X83766428Y-115628571D01*
X83909285Y-115700000D01*
X83980714Y-115771428D01*
X84052142Y-115914285D01*
X84052142Y-116128571D01*
X83980714Y-116271428D01*
X83909285Y-116342857D01*
X83766428Y-116414285D01*
X83195000Y-116414285D01*
X84623571Y-117057142D02*
X84837857Y-117128571D01*
X85195000Y-117128571D01*
X85337857Y-117057142D01*
X85409285Y-116985714D01*
X85480714Y-116842857D01*
X85480714Y-116700000D01*
X85409285Y-116557142D01*
X85337857Y-116485714D01*
X85195000Y-116414285D01*
X84909285Y-116342857D01*
X84766428Y-116271428D01*
X84695000Y-116200000D01*
X84623571Y-116057142D01*
X84623571Y-115914285D01*
X84695000Y-115771428D01*
X84766428Y-115700000D01*
X84909285Y-115628571D01*
X85266428Y-115628571D01*
X85480714Y-115700000D01*
X86052142Y-115771428D02*
X86123571Y-115700000D01*
X86266428Y-115628571D01*
X86623571Y-115628571D01*
X86766428Y-115700000D01*
X86837857Y-115771428D01*
X86909285Y-115914285D01*
X86909285Y-116057142D01*
X86837857Y-116271428D01*
X85980714Y-117128571D01*
X86909285Y-117128571D01*
X87552142Y-117128571D02*
X87552142Y-115628571D01*
X88409285Y-117128571D02*
X87766428Y-116271428D01*
X88409285Y-115628571D02*
X87552142Y-116485714D01*
X89552142Y-116342857D02*
X89766428Y-116414285D01*
X89837857Y-116485714D01*
X89909285Y-116628571D01*
X89909285Y-116842857D01*
X89837857Y-116985714D01*
X89766428Y-117057142D01*
X89623571Y-117128571D01*
X89052142Y-117128571D01*
X89052142Y-115628571D01*
X89552142Y-115628571D01*
X89695000Y-115700000D01*
X89766428Y-115771428D01*
X89837857Y-115914285D01*
X89837857Y-116057142D01*
X89766428Y-116200000D01*
X89695000Y-116271428D01*
X89552142Y-116342857D01*
X89052142Y-116342857D01*
X90552142Y-117128571D02*
X90552142Y-115628571D01*
X90909285Y-115628571D01*
X91123571Y-115700000D01*
X91266428Y-115842857D01*
X91337857Y-115985714D01*
X91409285Y-116271428D01*
X91409285Y-116485714D01*
X91337857Y-116771428D01*
X91266428Y-116914285D01*
X91123571Y-117057142D01*
X90909285Y-117128571D01*
X90552142Y-117128571D01*
X91909285Y-117628571D02*
X92266428Y-117628571D01*
X92266428Y-115485714D01*
X91909285Y-115485714D01*
X93909285Y-117128571D02*
X93409285Y-116414285D01*
X93052142Y-117128571D02*
X93052142Y-115628571D01*
X93623571Y-115628571D01*
X93766428Y-115700000D01*
X93837857Y-115771428D01*
X93909285Y-115914285D01*
X93909285Y-116128571D01*
X93837857Y-116271428D01*
X93766428Y-116342857D01*
X93623571Y-116414285D01*
X93052142Y-116414285D01*
X94552142Y-116342857D02*
X95052142Y-116342857D01*
X95266428Y-117128571D02*
X94552142Y-117128571D01*
X94552142Y-115628571D01*
X95266428Y-115628571D01*
X95695000Y-115628571D02*
X96195000Y-117128571D01*
X96695000Y-115628571D01*
X97123571Y-115771428D02*
X97195000Y-115700000D01*
X97337857Y-115628571D01*
X97695000Y-115628571D01*
X97837857Y-115700000D01*
X97909285Y-115771428D01*
X97980714Y-115914285D01*
X97980714Y-116057142D01*
X97909285Y-116271428D01*
X97052142Y-117128571D01*
X97980714Y-117128571D01*
X74552142Y-119678571D02*
X74552142Y-118178571D01*
X75052142Y-119250000D01*
X75552142Y-118178571D01*
X75552142Y-119678571D01*
X76195000Y-119607142D02*
X76409285Y-119678571D01*
X76766428Y-119678571D01*
X76909285Y-119607142D01*
X76980714Y-119535714D01*
X77052142Y-119392857D01*
X77052142Y-119250000D01*
X76980714Y-119107142D01*
X76909285Y-119035714D01*
X76766428Y-118964285D01*
X76480714Y-118892857D01*
X76337857Y-118821428D01*
X76266428Y-118750000D01*
X76195000Y-118607142D01*
X76195000Y-118464285D01*
X76266428Y-118321428D01*
X76337857Y-118250000D01*
X76480714Y-118178571D01*
X76837857Y-118178571D01*
X77052142Y-118250000D01*
X77552142Y-118178571D02*
X78552142Y-119678571D01*
X78552142Y-118178571D02*
X77552142Y-119678571D01*
X80266428Y-119678571D02*
X80266428Y-118178571D01*
X81123571Y-119678571D02*
X80480714Y-118821428D01*
X81123571Y-118178571D02*
X80266428Y-119035714D01*
X81766428Y-118892857D02*
X82266428Y-118892857D01*
X82480714Y-119678571D02*
X81766428Y-119678571D01*
X81766428Y-118178571D01*
X82480714Y-118178571D01*
X83409285Y-118964285D02*
X83409285Y-119678571D01*
X82909285Y-118178571D02*
X83409285Y-118964285D01*
X83909285Y-118178571D01*
X84909285Y-118892857D02*
X85123571Y-118964285D01*
X85195000Y-119035714D01*
X85266428Y-119178571D01*
X85266428Y-119392857D01*
X85195000Y-119535714D01*
X85123571Y-119607142D01*
X84980714Y-119678571D01*
X84409285Y-119678571D01*
X84409285Y-118178571D01*
X84909285Y-118178571D01*
X85052142Y-118250000D01*
X85123571Y-118321428D01*
X85195000Y-118464285D01*
X85195000Y-118607142D01*
X85123571Y-118750000D01*
X85052142Y-118821428D01*
X84909285Y-118892857D01*
X84409285Y-118892857D01*
X86195000Y-118178571D02*
X86480714Y-118178571D01*
X86623571Y-118250000D01*
X86766428Y-118392857D01*
X86837857Y-118678571D01*
X86837857Y-119178571D01*
X86766428Y-119464285D01*
X86623571Y-119607142D01*
X86480714Y-119678571D01*
X86195000Y-119678571D01*
X86052142Y-119607142D01*
X85909285Y-119464285D01*
X85837857Y-119178571D01*
X85837857Y-118678571D01*
X85909285Y-118392857D01*
X86052142Y-118250000D01*
X86195000Y-118178571D01*
X87409285Y-119250000D02*
X88123571Y-119250000D01*
X87266428Y-119678571D02*
X87766428Y-118178571D01*
X88266428Y-119678571D01*
X89623571Y-119678571D02*
X89123571Y-118964285D01*
X88766428Y-119678571D02*
X88766428Y-118178571D01*
X89337857Y-118178571D01*
X89480714Y-118250000D01*
X89552142Y-118321428D01*
X89623571Y-118464285D01*
X89623571Y-118678571D01*
X89552142Y-118821428D01*
X89480714Y-118892857D01*
X89337857Y-118964285D01*
X88766428Y-118964285D01*
X90266428Y-119678571D02*
X90266428Y-118178571D01*
X90623571Y-118178571D01*
X90837857Y-118250000D01*
X90980714Y-118392857D01*
X91052142Y-118535714D01*
X91123571Y-118821428D01*
X91123571Y-119035714D01*
X91052142Y-119321428D01*
X90980714Y-119464285D01*
X90837857Y-119607142D01*
X90623571Y-119678571D01*
X90266428Y-119678571D01*
X74480714Y-121800000D02*
X75195000Y-121800000D01*
X74337857Y-122228571D02*
X74837857Y-120728571D01*
X75337857Y-122228571D01*
X75837857Y-122228571D02*
X75837857Y-120728571D01*
X76195000Y-120728571D01*
X76409285Y-120800000D01*
X76552142Y-120942857D01*
X76623571Y-121085714D01*
X76695000Y-121371428D01*
X76695000Y-121585714D01*
X76623571Y-121871428D01*
X76552142Y-122014285D01*
X76409285Y-122157142D01*
X76195000Y-122228571D01*
X75837857Y-122228571D01*
X77266428Y-121800000D02*
X77980714Y-121800000D01*
X77123571Y-122228571D02*
X77623571Y-120728571D01*
X78123571Y-122228571D01*
X78623571Y-122228571D02*
X78623571Y-120728571D01*
X79195000Y-120728571D01*
X79337857Y-120800000D01*
X79409285Y-120871428D01*
X79480714Y-121014285D01*
X79480714Y-121228571D01*
X79409285Y-121371428D01*
X79337857Y-121442857D01*
X79195000Y-121514285D01*
X78623571Y-121514285D01*
X79909285Y-120728571D02*
X80766428Y-120728571D01*
X80337857Y-122228571D02*
X80337857Y-120728571D01*
X81552142Y-120728571D02*
X81837857Y-120728571D01*
X81980714Y-120800000D01*
X82123571Y-120942857D01*
X82195000Y-121228571D01*
X82195000Y-121728571D01*
X82123571Y-122014285D01*
X81980714Y-122157142D01*
X81837857Y-122228571D01*
X81552142Y-122228571D01*
X81409285Y-122157142D01*
X81266428Y-122014285D01*
X81195000Y-121728571D01*
X81195000Y-121228571D01*
X81266428Y-120942857D01*
X81409285Y-120800000D01*
X81552142Y-120728571D01*
X83695000Y-122228571D02*
X83195000Y-121514285D01*
X82837857Y-122228571D02*
X82837857Y-120728571D01*
X83409285Y-120728571D01*
X83552142Y-120800000D01*
X83623571Y-120871428D01*
X83695000Y-121014285D01*
X83695000Y-121228571D01*
X83623571Y-121371428D01*
X83552142Y-121442857D01*
X83409285Y-121514285D01*
X82837857Y-121514285D01*
D12*
X74880000Y-99000000D02*
X75650000Y-99000000D01*
X82960000Y-99000000D02*
X82190000Y-99000000D01*
X75650000Y-100370000D02*
X82190000Y-100370000D01*
X75650000Y-97630000D02*
X75650000Y-100370000D01*
X82190000Y-97630000D02*
X75650000Y-97630000D01*
X82190000Y-100370000D02*
X82190000Y-97630000D01*
X74880000Y-95500000D02*
X75650000Y-95500000D01*
X82960000Y-95500000D02*
X82190000Y-95500000D01*
X75650000Y-96870000D02*
X82190000Y-96870000D01*
X75650000Y-94130000D02*
X75650000Y-96870000D01*
X82190000Y-94130000D02*
X75650000Y-94130000D01*
X82190000Y-96870000D02*
X82190000Y-94130000D01*
X83120000Y-92000000D02*
X82350000Y-92000000D01*
X75040000Y-92000000D02*
X75810000Y-92000000D01*
X82350000Y-90630000D02*
X75810000Y-90630000D01*
X82350000Y-93370000D02*
X82350000Y-90630000D01*
X75810000Y-93370000D02*
X82350000Y-93370000D01*
X75810000Y-90630000D02*
X75810000Y-93370000D01*
D13*
X57424000Y-107449000D02*
G75*
G03X57424000Y-107449000I-103000J0D01*
G01*
D14*
X75700000Y-101700000D02*
X75700000Y-110628000D01*
X61500000Y-113300000D02*
X65605000Y-113300000D01*
X61500000Y-110500000D02*
X61500000Y-113300000D01*
X58000000Y-110500000D02*
X61500000Y-110500000D01*
X58000000Y-104500000D02*
X58000000Y-110500000D01*
X61500000Y-104500000D02*
X58000000Y-104500000D01*
X61500000Y-101700000D02*
X61500000Y-104500000D01*
X68600000Y-101700000D02*
X61500000Y-101700000D01*
D12*
X68379000Y-94580000D02*
X67121000Y-94580000D01*
X68379000Y-96420000D02*
X67121000Y-96420000D01*
X84379000Y-87580000D02*
X83121000Y-87580000D01*
X84379000Y-89420000D02*
X83121000Y-89420000D01*
X77120000Y-60000000D02*
G75*
G03X77120000Y-60000000I-2620000J0D01*
G01*
X71920000Y-60000000D02*
X77080000Y-60000000D01*
X71920000Y-59960000D02*
X77080000Y-59960000D01*
X71921000Y-59920000D02*
X77079000Y-59920000D01*
X71922000Y-59880000D02*
X77078000Y-59880000D01*
X71924000Y-59840000D02*
X77076000Y-59840000D01*
X71927000Y-59800000D02*
X77073000Y-59800000D01*
X71931000Y-59760000D02*
X73460000Y-59760000D01*
X75540000Y-59760000D02*
X77069000Y-59760000D01*
X71935000Y-59720000D02*
X73460000Y-59720000D01*
X75540000Y-59720000D02*
X77065000Y-59720000D01*
X71939000Y-59680000D02*
X73460000Y-59680000D01*
X75540000Y-59680000D02*
X77061000Y-59680000D01*
X71944000Y-59640000D02*
X73460000Y-59640000D01*
X75540000Y-59640000D02*
X77056000Y-59640000D01*
X71950000Y-59600000D02*
X73460000Y-59600000D01*
X75540000Y-59600000D02*
X77050000Y-59600000D01*
X71957000Y-59560000D02*
X73460000Y-59560000D01*
X75540000Y-59560000D02*
X77043000Y-59560000D01*
X71964000Y-59520000D02*
X73460000Y-59520000D01*
X75540000Y-59520000D02*
X77036000Y-59520000D01*
X71972000Y-59480000D02*
X73460000Y-59480000D01*
X75540000Y-59480000D02*
X77028000Y-59480000D01*
X71980000Y-59440000D02*
X73460000Y-59440000D01*
X75540000Y-59440000D02*
X77020000Y-59440000D01*
X71989000Y-59400000D02*
X73460000Y-59400000D01*
X75540000Y-59400000D02*
X77011000Y-59400000D01*
X71999000Y-59360000D02*
X73460000Y-59360000D01*
X75540000Y-59360000D02*
X77001000Y-59360000D01*
X72009000Y-59320000D02*
X73460000Y-59320000D01*
X75540000Y-59320000D02*
X76991000Y-59320000D01*
X72020000Y-59279000D02*
X73460000Y-59279000D01*
X75540000Y-59279000D02*
X76980000Y-59279000D01*
X72032000Y-59239000D02*
X73460000Y-59239000D01*
X75540000Y-59239000D02*
X76968000Y-59239000D01*
X72045000Y-59199000D02*
X73460000Y-59199000D01*
X75540000Y-59199000D02*
X76955000Y-59199000D01*
X72058000Y-59159000D02*
X73460000Y-59159000D01*
X75540000Y-59159000D02*
X76942000Y-59159000D01*
X72072000Y-59119000D02*
X73460000Y-59119000D01*
X75540000Y-59119000D02*
X76928000Y-59119000D01*
X72086000Y-59079000D02*
X73460000Y-59079000D01*
X75540000Y-59079000D02*
X76914000Y-59079000D01*
X72102000Y-59039000D02*
X73460000Y-59039000D01*
X75540000Y-59039000D02*
X76898000Y-59039000D01*
X72118000Y-58999000D02*
X73460000Y-58999000D01*
X75540000Y-58999000D02*
X76882000Y-58999000D01*
X72135000Y-58959000D02*
X73460000Y-58959000D01*
X75540000Y-58959000D02*
X76865000Y-58959000D01*
X72152000Y-58919000D02*
X73460000Y-58919000D01*
X75540000Y-58919000D02*
X76848000Y-58919000D01*
X72171000Y-58879000D02*
X73460000Y-58879000D01*
X75540000Y-58879000D02*
X76829000Y-58879000D01*
X72190000Y-58839000D02*
X73460000Y-58839000D01*
X75540000Y-58839000D02*
X76810000Y-58839000D01*
X72210000Y-58799000D02*
X73460000Y-58799000D01*
X75540000Y-58799000D02*
X76790000Y-58799000D01*
X72232000Y-58759000D02*
X73460000Y-58759000D01*
X75540000Y-58759000D02*
X76768000Y-58759000D01*
X72253000Y-58719000D02*
X73460000Y-58719000D01*
X75540000Y-58719000D02*
X76747000Y-58719000D01*
X72276000Y-58679000D02*
X73460000Y-58679000D01*
X75540000Y-58679000D02*
X76724000Y-58679000D01*
X72300000Y-58639000D02*
X73460000Y-58639000D01*
X75540000Y-58639000D02*
X76700000Y-58639000D01*
X72325000Y-58599000D02*
X73460000Y-58599000D01*
X75540000Y-58599000D02*
X76675000Y-58599000D01*
X72351000Y-58559000D02*
X73460000Y-58559000D01*
X75540000Y-58559000D02*
X76649000Y-58559000D01*
X72378000Y-58519000D02*
X73460000Y-58519000D01*
X75540000Y-58519000D02*
X76622000Y-58519000D01*
X72405000Y-58479000D02*
X73460000Y-58479000D01*
X75540000Y-58479000D02*
X76595000Y-58479000D01*
X72435000Y-58439000D02*
X73460000Y-58439000D01*
X75540000Y-58439000D02*
X76565000Y-58439000D01*
X72465000Y-58399000D02*
X73460000Y-58399000D01*
X75540000Y-58399000D02*
X76535000Y-58399000D01*
X72496000Y-58359000D02*
X73460000Y-58359000D01*
X75540000Y-58359000D02*
X76504000Y-58359000D01*
X72529000Y-58319000D02*
X73460000Y-58319000D01*
X75540000Y-58319000D02*
X76471000Y-58319000D01*
X72563000Y-58279000D02*
X73460000Y-58279000D01*
X75540000Y-58279000D02*
X76437000Y-58279000D01*
X72599000Y-58239000D02*
X73460000Y-58239000D01*
X75540000Y-58239000D02*
X76401000Y-58239000D01*
X72636000Y-58199000D02*
X73460000Y-58199000D01*
X75540000Y-58199000D02*
X76364000Y-58199000D01*
X72674000Y-58159000D02*
X73460000Y-58159000D01*
X75540000Y-58159000D02*
X76326000Y-58159000D01*
X72715000Y-58119000D02*
X73460000Y-58119000D01*
X75540000Y-58119000D02*
X76285000Y-58119000D01*
X72757000Y-58079000D02*
X73460000Y-58079000D01*
X75540000Y-58079000D02*
X76243000Y-58079000D01*
X72801000Y-58039000D02*
X73460000Y-58039000D01*
X75540000Y-58039000D02*
X76199000Y-58039000D01*
X72847000Y-57999000D02*
X73460000Y-57999000D01*
X75540000Y-57999000D02*
X76153000Y-57999000D01*
X72895000Y-57959000D02*
X73460000Y-57959000D01*
X75540000Y-57959000D02*
X76105000Y-57959000D01*
X72946000Y-57919000D02*
X73460000Y-57919000D01*
X75540000Y-57919000D02*
X76054000Y-57919000D01*
X73000000Y-57879000D02*
X73460000Y-57879000D01*
X75540000Y-57879000D02*
X76000000Y-57879000D01*
X73057000Y-57839000D02*
X73460000Y-57839000D01*
X75540000Y-57839000D02*
X75943000Y-57839000D01*
X73117000Y-57799000D02*
X73460000Y-57799000D01*
X75540000Y-57799000D02*
X75883000Y-57799000D01*
X73181000Y-57759000D02*
X73460000Y-57759000D01*
X75540000Y-57759000D02*
X75819000Y-57759000D01*
X73249000Y-57719000D02*
X73460000Y-57719000D01*
X75540000Y-57719000D02*
X75751000Y-57719000D01*
X73322000Y-57679000D02*
X75678000Y-57679000D01*
X73402000Y-57639000D02*
X75598000Y-57639000D01*
X73489000Y-57599000D02*
X75511000Y-57599000D01*
X73585000Y-57559000D02*
X75415000Y-57559000D01*
X73695000Y-57519000D02*
X75305000Y-57519000D01*
X73823000Y-57479000D02*
X75177000Y-57479000D01*
X73982000Y-57439000D02*
X75018000Y-57439000D01*
X74216000Y-57399000D02*
X74784000Y-57399000D01*
X73025000Y-62804775D02*
X73025000Y-62304775D01*
X72775000Y-62554775D02*
X73275000Y-62554775D01*
X134379000Y-91080000D02*
X133121000Y-91080000D01*
X134379000Y-92920000D02*
X133121000Y-92920000D01*
X133121000Y-66580000D02*
X134379000Y-66580000D01*
X133121000Y-68420000D02*
X134379000Y-68420000D01*
X104621000Y-104920000D02*
X105879000Y-104920000D01*
X104621000Y-103080000D02*
X105879000Y-103080000D01*
X89121000Y-87580000D02*
X90379000Y-87580000D01*
X89121000Y-89420000D02*
X90379000Y-89420000D01*
X151160000Y-86330000D02*
X151160000Y-83670000D01*
X146020000Y-86330000D02*
X151160000Y-86330000D01*
X146020000Y-83670000D02*
X151160000Y-83670000D01*
X146020000Y-86330000D02*
X146020000Y-83670000D01*
X144750000Y-86330000D02*
X143420000Y-86330000D01*
X143420000Y-86330000D02*
X143420000Y-85000000D01*
X137830000Y-117440000D02*
X122470000Y-117440000D01*
X122470000Y-117440000D02*
X122470000Y-120100000D01*
X122470000Y-120100000D02*
X137830000Y-120100000D01*
X137830000Y-120100000D02*
X137830000Y-117440000D01*
X136880000Y-120100000D02*
X136880000Y-126100000D01*
X136880000Y-126100000D02*
X136120000Y-126100000D01*
X136120000Y-126100000D02*
X136120000Y-120100000D01*
X136820000Y-120100000D02*
X136820000Y-126100000D01*
X136700000Y-120100000D02*
X136700000Y-126100000D01*
X136580000Y-120100000D02*
X136580000Y-126100000D01*
X136460000Y-120100000D02*
X136460000Y-126100000D01*
X136340000Y-120100000D02*
X136340000Y-126100000D01*
X136220000Y-120100000D02*
X136220000Y-126100000D01*
X136880000Y-117110000D02*
X136880000Y-117440000D01*
X136120000Y-117110000D02*
X136120000Y-117440000D01*
X135230000Y-117440000D02*
X135230000Y-120100000D01*
X134340000Y-120100000D02*
X134340000Y-126100000D01*
X134340000Y-126100000D02*
X133580000Y-126100000D01*
X133580000Y-126100000D02*
X133580000Y-120100000D01*
X134340000Y-117042929D02*
X134340000Y-117440000D01*
X133580000Y-117042929D02*
X133580000Y-117440000D01*
X132690000Y-117440000D02*
X132690000Y-120100000D01*
X131800000Y-120100000D02*
X131800000Y-126100000D01*
X131800000Y-126100000D02*
X131040000Y-126100000D01*
X131040000Y-126100000D02*
X131040000Y-120100000D01*
X131800000Y-117042929D02*
X131800000Y-117440000D01*
X131040000Y-117042929D02*
X131040000Y-117440000D01*
X130150000Y-117440000D02*
X130150000Y-120100000D01*
X129260000Y-120100000D02*
X129260000Y-126100000D01*
X129260000Y-126100000D02*
X128500000Y-126100000D01*
X128500000Y-126100000D02*
X128500000Y-120100000D01*
X129260000Y-117042929D02*
X129260000Y-117440000D01*
X128500000Y-117042929D02*
X128500000Y-117440000D01*
X127610000Y-117440000D02*
X127610000Y-120100000D01*
X126720000Y-120100000D02*
X126720000Y-126100000D01*
X126720000Y-126100000D02*
X125960000Y-126100000D01*
X125960000Y-126100000D02*
X125960000Y-120100000D01*
X126720000Y-117042929D02*
X126720000Y-117440000D01*
X125960000Y-117042929D02*
X125960000Y-117440000D01*
X125070000Y-117440000D02*
X125070000Y-120100000D01*
X124180000Y-120100000D02*
X124180000Y-126100000D01*
X124180000Y-126100000D02*
X123420000Y-126100000D01*
X123420000Y-126100000D02*
X123420000Y-120100000D01*
X124180000Y-117042929D02*
X124180000Y-117440000D01*
X123420000Y-117042929D02*
X123420000Y-117440000D01*
X136500000Y-114730000D02*
X137770000Y-114730000D01*
X137770000Y-114730000D02*
X137770000Y-116000000D01*
X122910000Y-109830000D02*
X122910000Y-104630000D01*
X117770000Y-109830000D02*
X122910000Y-109830000D01*
X115170000Y-104630000D02*
X122910000Y-104630000D01*
X117770000Y-109830000D02*
X117770000Y-107230000D01*
X117770000Y-107230000D02*
X115170000Y-107230000D01*
X115170000Y-107230000D02*
X115170000Y-104630000D01*
X116500000Y-109830000D02*
X115170000Y-109830000D01*
X115170000Y-109830000D02*
X115170000Y-108500000D01*
X140920000Y-69670000D02*
X142250000Y-69670000D01*
X140920000Y-71000000D02*
X140920000Y-69670000D01*
X143520000Y-69670000D02*
X146120000Y-69670000D01*
X143520000Y-72270000D02*
X143520000Y-69670000D01*
X140920000Y-72270000D02*
X143520000Y-72270000D01*
X146120000Y-69670000D02*
X146120000Y-79950000D01*
X140920000Y-72270000D02*
X140920000Y-79950000D01*
X140920000Y-79950000D02*
X146120000Y-79950000D01*
X149420000Y-79950000D02*
X154620000Y-79950000D01*
X149420000Y-72270000D02*
X149420000Y-79950000D01*
X154620000Y-69670000D02*
X154620000Y-79950000D01*
X149420000Y-72270000D02*
X152020000Y-72270000D01*
X152020000Y-72270000D02*
X152020000Y-69670000D01*
X152020000Y-69670000D02*
X154620000Y-69670000D01*
X149420000Y-71000000D02*
X149420000Y-69670000D01*
X149420000Y-69670000D02*
X150750000Y-69670000D01*
X68080000Y-63430000D02*
X62880000Y-63430000D01*
X68080000Y-78730000D02*
X68080000Y-63430000D01*
X62880000Y-81330000D02*
X62880000Y-63430000D01*
X68080000Y-78730000D02*
X65480000Y-78730000D01*
X65480000Y-78730000D02*
X65480000Y-81330000D01*
X65480000Y-81330000D02*
X62880000Y-81330000D01*
X68080000Y-80000000D02*
X68080000Y-81330000D01*
X68080000Y-81330000D02*
X66750000Y-81330000D01*
X84920000Y-58020000D02*
X135840000Y-58020000D01*
X135840000Y-58020000D02*
X135840000Y-55360000D01*
X135840000Y-55360000D02*
X84920000Y-55360000D01*
X84920000Y-55360000D02*
X84920000Y-58020000D01*
X85870000Y-55360000D02*
X85870000Y-49360000D01*
X85870000Y-49360000D02*
X86630000Y-49360000D01*
X86630000Y-49360000D02*
X86630000Y-55360000D01*
X85930000Y-55360000D02*
X85930000Y-49360000D01*
X86050000Y-55360000D02*
X86050000Y-49360000D01*
X86170000Y-55360000D02*
X86170000Y-49360000D01*
X86290000Y-55360000D02*
X86290000Y-49360000D01*
X86410000Y-55360000D02*
X86410000Y-49360000D01*
X86530000Y-55360000D02*
X86530000Y-49360000D01*
X85870000Y-58417071D02*
X85870000Y-58020000D01*
X86630000Y-58417071D02*
X86630000Y-58020000D01*
X85870000Y-60890000D02*
X85870000Y-60502929D01*
X86630000Y-60890000D02*
X86630000Y-60502929D01*
X87520000Y-58020000D02*
X87520000Y-55360000D01*
X88410000Y-55360000D02*
X88410000Y-49360000D01*
X88410000Y-49360000D02*
X89170000Y-49360000D01*
X89170000Y-49360000D02*
X89170000Y-55360000D01*
X88410000Y-58417071D02*
X88410000Y-58020000D01*
X89170000Y-58417071D02*
X89170000Y-58020000D01*
X88410000Y-60957071D02*
X88410000Y-60502929D01*
X89170000Y-60957071D02*
X89170000Y-60502929D01*
X90060000Y-58020000D02*
X90060000Y-55360000D01*
X90950000Y-55360000D02*
X90950000Y-49360000D01*
X90950000Y-49360000D02*
X91710000Y-49360000D01*
X91710000Y-49360000D02*
X91710000Y-55360000D01*
X90950000Y-58417071D02*
X90950000Y-58020000D01*
X91710000Y-58417071D02*
X91710000Y-58020000D01*
X90950000Y-60957071D02*
X90950000Y-60502929D01*
X91710000Y-60957071D02*
X91710000Y-60502929D01*
X92600000Y-58020000D02*
X92600000Y-55360000D01*
X93490000Y-55360000D02*
X93490000Y-49360000D01*
X93490000Y-49360000D02*
X94250000Y-49360000D01*
X94250000Y-49360000D02*
X94250000Y-55360000D01*
X93490000Y-58417071D02*
X93490000Y-58020000D01*
X94250000Y-58417071D02*
X94250000Y-58020000D01*
X93490000Y-60957071D02*
X93490000Y-60502929D01*
X94250000Y-60957071D02*
X94250000Y-60502929D01*
X95140000Y-58020000D02*
X95140000Y-55360000D01*
X96030000Y-55360000D02*
X96030000Y-49360000D01*
X96030000Y-49360000D02*
X96790000Y-49360000D01*
X96790000Y-49360000D02*
X96790000Y-55360000D01*
X96030000Y-58417071D02*
X96030000Y-58020000D01*
X96790000Y-58417071D02*
X96790000Y-58020000D01*
X96030000Y-60957071D02*
X96030000Y-60502929D01*
X96790000Y-60957071D02*
X96790000Y-60502929D01*
X97680000Y-58020000D02*
X97680000Y-55360000D01*
X98570000Y-55360000D02*
X98570000Y-49360000D01*
X98570000Y-49360000D02*
X99330000Y-49360000D01*
X99330000Y-49360000D02*
X99330000Y-55360000D01*
X98570000Y-58417071D02*
X98570000Y-58020000D01*
X99330000Y-58417071D02*
X99330000Y-58020000D01*
X98570000Y-60957071D02*
X98570000Y-60502929D01*
X99330000Y-60957071D02*
X99330000Y-60502929D01*
X100220000Y-58020000D02*
X100220000Y-55360000D01*
X101110000Y-55360000D02*
X101110000Y-49360000D01*
X101110000Y-49360000D02*
X101870000Y-49360000D01*
X101870000Y-49360000D02*
X101870000Y-55360000D01*
X101110000Y-58417071D02*
X101110000Y-58020000D01*
X101870000Y-58417071D02*
X101870000Y-58020000D01*
X101110000Y-60957071D02*
X101110000Y-60502929D01*
X101870000Y-60957071D02*
X101870000Y-60502929D01*
X102760000Y-58020000D02*
X102760000Y-55360000D01*
X103650000Y-55360000D02*
X103650000Y-49360000D01*
X103650000Y-49360000D02*
X104410000Y-49360000D01*
X104410000Y-49360000D02*
X104410000Y-55360000D01*
X103650000Y-58417071D02*
X103650000Y-58020000D01*
X104410000Y-58417071D02*
X104410000Y-58020000D01*
X103650000Y-60957071D02*
X103650000Y-60502929D01*
X104410000Y-60957071D02*
X104410000Y-60502929D01*
X105300000Y-58020000D02*
X105300000Y-55360000D01*
X106190000Y-55360000D02*
X106190000Y-49360000D01*
X106190000Y-49360000D02*
X106950000Y-49360000D01*
X106950000Y-49360000D02*
X106950000Y-55360000D01*
X106190000Y-58417071D02*
X106190000Y-58020000D01*
X106950000Y-58417071D02*
X106950000Y-58020000D01*
X106190000Y-60957071D02*
X106190000Y-60502929D01*
X106950000Y-60957071D02*
X106950000Y-60502929D01*
X107840000Y-58020000D02*
X107840000Y-55360000D01*
X108730000Y-55360000D02*
X108730000Y-49360000D01*
X108730000Y-49360000D02*
X109490000Y-49360000D01*
X109490000Y-49360000D02*
X109490000Y-55360000D01*
X108730000Y-58417071D02*
X108730000Y-58020000D01*
X109490000Y-58417071D02*
X109490000Y-58020000D01*
X108730000Y-60957071D02*
X108730000Y-60502929D01*
X109490000Y-60957071D02*
X109490000Y-60502929D01*
X110380000Y-58020000D02*
X110380000Y-55360000D01*
X111270000Y-55360000D02*
X111270000Y-49360000D01*
X111270000Y-49360000D02*
X112030000Y-49360000D01*
X112030000Y-49360000D02*
X112030000Y-55360000D01*
X111270000Y-58417071D02*
X111270000Y-58020000D01*
X112030000Y-58417071D02*
X112030000Y-58020000D01*
X111270000Y-60957071D02*
X111270000Y-60502929D01*
X112030000Y-60957071D02*
X112030000Y-60502929D01*
X112920000Y-58020000D02*
X112920000Y-55360000D01*
X113810000Y-55360000D02*
X113810000Y-49360000D01*
X113810000Y-49360000D02*
X114570000Y-49360000D01*
X114570000Y-49360000D02*
X114570000Y-55360000D01*
X113810000Y-58417071D02*
X113810000Y-58020000D01*
X114570000Y-58417071D02*
X114570000Y-58020000D01*
X113810000Y-60957071D02*
X113810000Y-60502929D01*
X114570000Y-60957071D02*
X114570000Y-60502929D01*
X115460000Y-58020000D02*
X115460000Y-55360000D01*
X116350000Y-55360000D02*
X116350000Y-49360000D01*
X116350000Y-49360000D02*
X117110000Y-49360000D01*
X117110000Y-49360000D02*
X117110000Y-55360000D01*
X116350000Y-58417071D02*
X116350000Y-58020000D01*
X117110000Y-58417071D02*
X117110000Y-58020000D01*
X116350000Y-60957071D02*
X116350000Y-60502929D01*
X117110000Y-60957071D02*
X117110000Y-60502929D01*
X118000000Y-58020000D02*
X118000000Y-55360000D01*
X118890000Y-55360000D02*
X118890000Y-49360000D01*
X118890000Y-49360000D02*
X119650000Y-49360000D01*
X119650000Y-49360000D02*
X119650000Y-55360000D01*
X118890000Y-58417071D02*
X118890000Y-58020000D01*
X119650000Y-58417071D02*
X119650000Y-58020000D01*
X118890000Y-60957071D02*
X118890000Y-60502929D01*
X119650000Y-60957071D02*
X119650000Y-60502929D01*
X120540000Y-58020000D02*
X120540000Y-55360000D01*
X121430000Y-55360000D02*
X121430000Y-49360000D01*
X121430000Y-49360000D02*
X122190000Y-49360000D01*
X122190000Y-49360000D02*
X122190000Y-55360000D01*
X121430000Y-58417071D02*
X121430000Y-58020000D01*
X122190000Y-58417071D02*
X122190000Y-58020000D01*
X121430000Y-60957071D02*
X121430000Y-60502929D01*
X122190000Y-60957071D02*
X122190000Y-60502929D01*
X123080000Y-58020000D02*
X123080000Y-55360000D01*
X123970000Y-55360000D02*
X123970000Y-49360000D01*
X123970000Y-49360000D02*
X124730000Y-49360000D01*
X124730000Y-49360000D02*
X124730000Y-55360000D01*
X123970000Y-58417071D02*
X123970000Y-58020000D01*
X124730000Y-58417071D02*
X124730000Y-58020000D01*
X123970000Y-60957071D02*
X123970000Y-60502929D01*
X124730000Y-60957071D02*
X124730000Y-60502929D01*
X125620000Y-58020000D02*
X125620000Y-55360000D01*
X126510000Y-55360000D02*
X126510000Y-49360000D01*
X126510000Y-49360000D02*
X127270000Y-49360000D01*
X127270000Y-49360000D02*
X127270000Y-55360000D01*
X126510000Y-58417071D02*
X126510000Y-58020000D01*
X127270000Y-58417071D02*
X127270000Y-58020000D01*
X126510000Y-60957071D02*
X126510000Y-60502929D01*
X127270000Y-60957071D02*
X127270000Y-60502929D01*
X128160000Y-58020000D02*
X128160000Y-55360000D01*
X129050000Y-55360000D02*
X129050000Y-49360000D01*
X129050000Y-49360000D02*
X129810000Y-49360000D01*
X129810000Y-49360000D02*
X129810000Y-55360000D01*
X129050000Y-58417071D02*
X129050000Y-58020000D01*
X129810000Y-58417071D02*
X129810000Y-58020000D01*
X129050000Y-60957071D02*
X129050000Y-60502929D01*
X129810000Y-60957071D02*
X129810000Y-60502929D01*
X130700000Y-58020000D02*
X130700000Y-55360000D01*
X131590000Y-55360000D02*
X131590000Y-49360000D01*
X131590000Y-49360000D02*
X132350000Y-49360000D01*
X132350000Y-49360000D02*
X132350000Y-55360000D01*
X131590000Y-58417071D02*
X131590000Y-58020000D01*
X132350000Y-58417071D02*
X132350000Y-58020000D01*
X131590000Y-60957071D02*
X131590000Y-60502929D01*
X132350000Y-60957071D02*
X132350000Y-60502929D01*
X133240000Y-58020000D02*
X133240000Y-55360000D01*
X134130000Y-55360000D02*
X134130000Y-49360000D01*
X134130000Y-49360000D02*
X134890000Y-49360000D01*
X134890000Y-49360000D02*
X134890000Y-55360000D01*
X134130000Y-58417071D02*
X134130000Y-58020000D01*
X134890000Y-58417071D02*
X134890000Y-58020000D01*
X134130000Y-60957071D02*
X134130000Y-60502929D01*
X134890000Y-60957071D02*
X134890000Y-60502929D01*
X86250000Y-63270000D02*
X84980000Y-63270000D01*
X84980000Y-63270000D02*
X84980000Y-62000000D01*
X132310000Y-93670000D02*
G75*
G02X130310000Y-93670000I-1000000J0D01*
G01*
X130310000Y-93670000D02*
X128660000Y-93670000D01*
X128660000Y-93670000D02*
X128660000Y-111570000D01*
X128660000Y-111570000D02*
X133960000Y-111570000D01*
X133960000Y-111570000D02*
X133960000Y-93670000D01*
X133960000Y-93670000D02*
X132310000Y-93670000D01*
X126170000Y-93610000D02*
X126170000Y-111630000D01*
X126170000Y-111630000D02*
X136450000Y-111630000D01*
X136450000Y-111630000D02*
X136450000Y-93610000D01*
X136450000Y-93610000D02*
X126170000Y-93610000D01*
X132060000Y-69170000D02*
G75*
G02X130060000Y-69170000I-1000000J0D01*
G01*
X130060000Y-69170000D02*
X128410000Y-69170000D01*
X128410000Y-69170000D02*
X128410000Y-89610000D01*
X128410000Y-89610000D02*
X133710000Y-89610000D01*
X133710000Y-89610000D02*
X133710000Y-69170000D01*
X133710000Y-69170000D02*
X132060000Y-69170000D01*
X125920000Y-69110000D02*
X125920000Y-89670000D01*
X125920000Y-89670000D02*
X136200000Y-89670000D01*
X136200000Y-89670000D02*
X136200000Y-69110000D01*
X136200000Y-69110000D02*
X125920000Y-69110000D01*
X87170000Y-96190000D02*
G75*
G02X87170000Y-98190000I0J-1000000D01*
G01*
X87170000Y-98190000D02*
X87170000Y-99840000D01*
X87170000Y-99840000D02*
X122850000Y-99840000D01*
X122850000Y-99840000D02*
X122850000Y-94540000D01*
X122850000Y-94540000D02*
X87170000Y-94540000D01*
X87170000Y-94540000D02*
X87170000Y-96190000D01*
X87110000Y-102330000D02*
X122910000Y-102330000D01*
X122910000Y-102330000D02*
X122910000Y-92050000D01*
X122910000Y-92050000D02*
X87110000Y-92050000D01*
X87110000Y-92050000D02*
X87110000Y-102330000D01*
X71670000Y-76380000D02*
G75*
G02X71670000Y-78380000I0J-1000000D01*
G01*
X71670000Y-78380000D02*
X71670000Y-83840000D01*
X71670000Y-83840000D02*
X122590000Y-83840000D01*
X122590000Y-83840000D02*
X122590000Y-70920000D01*
X122590000Y-70920000D02*
X71670000Y-70920000D01*
X71670000Y-70920000D02*
X71670000Y-76380000D01*
X71610000Y-86330000D02*
X122650000Y-86330000D01*
X122650000Y-86330000D02*
X122650000Y-68430000D01*
X122650000Y-68430000D02*
X71610000Y-68430000D01*
X71610000Y-68430000D02*
X71610000Y-86330000D01*
X121940000Y-67400000D02*
X121940000Y-64600000D01*
X121940000Y-64600000D02*
X98740000Y-64600000D01*
X98740000Y-64600000D02*
X98740000Y-67400000D01*
X98740000Y-67400000D02*
X121940000Y-67400000D01*
X119230000Y-67400000D02*
X119230000Y-64600000D01*
X101310000Y-106630000D02*
X101310000Y-109370000D01*
X101310000Y-109370000D02*
X107850000Y-109370000D01*
X107850000Y-109370000D02*
X107850000Y-106630000D01*
X107850000Y-106630000D02*
X101310000Y-106630000D01*
X100540000Y-108000000D02*
X101310000Y-108000000D01*
X108620000Y-108000000D02*
X107850000Y-108000000D01*
D11*
X99989600Y-125002400D02*
X99989600Y-123224400D01*
X114010400Y-119770000D02*
X114010400Y-111997600D01*
X114010400Y-111997600D02*
X99989600Y-111997600D01*
X99989600Y-111997600D02*
X99989600Y-119770000D01*
X99989600Y-125002400D02*
X114010400Y-125002400D01*
X114010400Y-125002400D02*
X114010400Y-123224400D01*
X78843333Y-99292380D02*
X78510000Y-98816190D01*
X78271904Y-99292380D02*
X78271904Y-98292380D01*
X78652857Y-98292380D01*
X78748095Y-98340000D01*
X78795714Y-98387619D01*
X78843333Y-98482857D01*
X78843333Y-98625714D01*
X78795714Y-98720952D01*
X78748095Y-98768571D01*
X78652857Y-98816190D01*
X78271904Y-98816190D01*
X79700476Y-98625714D02*
X79700476Y-99292380D01*
X79462380Y-98244761D02*
X79224285Y-98959047D01*
X79843333Y-98959047D01*
X78993333Y-96032380D02*
X78660000Y-95556190D01*
X78421904Y-96032380D02*
X78421904Y-95032380D01*
X78802857Y-95032380D01*
X78898095Y-95080000D01*
X78945714Y-95127619D01*
X78993333Y-95222857D01*
X78993333Y-95365714D01*
X78945714Y-95460952D01*
X78898095Y-95508571D01*
X78802857Y-95556190D01*
X78421904Y-95556190D01*
X79326666Y-95032380D02*
X79945714Y-95032380D01*
X79612380Y-95413333D01*
X79755238Y-95413333D01*
X79850476Y-95460952D01*
X79898095Y-95508571D01*
X79945714Y-95603809D01*
X79945714Y-95841904D01*
X79898095Y-95937142D01*
X79850476Y-95984761D01*
X79755238Y-96032380D01*
X79469523Y-96032380D01*
X79374285Y-95984761D01*
X79326666Y-95937142D01*
X78923333Y-92452380D02*
X78590000Y-91976190D01*
X78351904Y-92452380D02*
X78351904Y-91452380D01*
X78732857Y-91452380D01*
X78828095Y-91500000D01*
X78875714Y-91547619D01*
X78923333Y-91642857D01*
X78923333Y-91785714D01*
X78875714Y-91880952D01*
X78828095Y-91928571D01*
X78732857Y-91976190D01*
X78351904Y-91976190D01*
X79304285Y-91547619D02*
X79351904Y-91500000D01*
X79447142Y-91452380D01*
X79685238Y-91452380D01*
X79780476Y-91500000D01*
X79828095Y-91547619D01*
X79875714Y-91642857D01*
X79875714Y-91738095D01*
X79828095Y-91880952D01*
X79256666Y-92452380D01*
X79875714Y-92452380D01*
D13*
X69754666Y-106897523D02*
X69754666Y-107804666D01*
X69694190Y-107986095D01*
X69573238Y-108107047D01*
X69391809Y-108167523D01*
X69270857Y-108167523D01*
X70540857Y-107441809D02*
X70419904Y-107381333D01*
X70359428Y-107320857D01*
X70298952Y-107199904D01*
X70298952Y-107139428D01*
X70359428Y-107018476D01*
X70419904Y-106958000D01*
X70540857Y-106897523D01*
X70782761Y-106897523D01*
X70903714Y-106958000D01*
X70964190Y-107018476D01*
X71024666Y-107139428D01*
X71024666Y-107199904D01*
X70964190Y-107320857D01*
X70903714Y-107381333D01*
X70782761Y-107441809D01*
X70540857Y-107441809D01*
X70419904Y-107502285D01*
X70359428Y-107562761D01*
X70298952Y-107683714D01*
X70298952Y-107925619D01*
X70359428Y-108046571D01*
X70419904Y-108107047D01*
X70540857Y-108167523D01*
X70782761Y-108167523D01*
X70903714Y-108107047D01*
X70964190Y-108046571D01*
X71024666Y-107925619D01*
X71024666Y-107683714D01*
X70964190Y-107562761D01*
X70903714Y-107502285D01*
X70782761Y-107441809D01*
D11*
X67583333Y-97907142D02*
X67535714Y-97954761D01*
X67392857Y-98002380D01*
X67297619Y-98002380D01*
X67154761Y-97954761D01*
X67059523Y-97859523D01*
X67011904Y-97764285D01*
X66964285Y-97573809D01*
X66964285Y-97430952D01*
X67011904Y-97240476D01*
X67059523Y-97145238D01*
X67154761Y-97050000D01*
X67297619Y-97002380D01*
X67392857Y-97002380D01*
X67535714Y-97050000D01*
X67583333Y-97097619D01*
X67916666Y-97002380D02*
X68583333Y-97002380D01*
X68154761Y-98002380D01*
X79333333Y-88857142D02*
X79285714Y-88904761D01*
X79142857Y-88952380D01*
X79047619Y-88952380D01*
X78904761Y-88904761D01*
X78809523Y-88809523D01*
X78761904Y-88714285D01*
X78714285Y-88523809D01*
X78714285Y-88380952D01*
X78761904Y-88190476D01*
X78809523Y-88095238D01*
X78904761Y-88000000D01*
X79047619Y-87952380D01*
X79142857Y-87952380D01*
X79285714Y-88000000D01*
X79333333Y-88047619D01*
X80190476Y-87952380D02*
X80000000Y-87952380D01*
X79904761Y-88000000D01*
X79857142Y-88047619D01*
X79761904Y-88190476D01*
X79714285Y-88380952D01*
X79714285Y-88761904D01*
X79761904Y-88857142D01*
X79809523Y-88904761D01*
X79904761Y-88952380D01*
X80095238Y-88952380D01*
X80190476Y-88904761D01*
X80238095Y-88857142D01*
X80285714Y-88761904D01*
X80285714Y-88523809D01*
X80238095Y-88428571D01*
X80190476Y-88380952D01*
X80095238Y-88333333D01*
X79904761Y-88333333D01*
X79809523Y-88380952D01*
X79761904Y-88428571D01*
X79714285Y-88523809D01*
X71107142Y-60166666D02*
X71154761Y-60214285D01*
X71202380Y-60357142D01*
X71202380Y-60452380D01*
X71154761Y-60595238D01*
X71059523Y-60690476D01*
X70964285Y-60738095D01*
X70773809Y-60785714D01*
X70630952Y-60785714D01*
X70440476Y-60738095D01*
X70345238Y-60690476D01*
X70250000Y-60595238D01*
X70202380Y-60452380D01*
X70202380Y-60357142D01*
X70250000Y-60214285D01*
X70297619Y-60166666D01*
X71202380Y-59214285D02*
X71202380Y-59785714D01*
X71202380Y-59500000D02*
X70202380Y-59500000D01*
X70345238Y-59595238D01*
X70440476Y-59690476D01*
X70488095Y-59785714D01*
X137333333Y-92357142D02*
X137285714Y-92404761D01*
X137142857Y-92452380D01*
X137047619Y-92452380D01*
X136904761Y-92404761D01*
X136809523Y-92309523D01*
X136761904Y-92214285D01*
X136714285Y-92023809D01*
X136714285Y-91880952D01*
X136761904Y-91690476D01*
X136809523Y-91595238D01*
X136904761Y-91500000D01*
X137047619Y-91452380D01*
X137142857Y-91452380D01*
X137285714Y-91500000D01*
X137333333Y-91547619D01*
X138238095Y-91452380D02*
X137761904Y-91452380D01*
X137714285Y-91928571D01*
X137761904Y-91880952D01*
X137857142Y-91833333D01*
X138095238Y-91833333D01*
X138190476Y-91880952D01*
X138238095Y-91928571D01*
X138285714Y-92023809D01*
X138285714Y-92261904D01*
X138238095Y-92357142D01*
X138190476Y-92404761D01*
X138095238Y-92452380D01*
X137857142Y-92452380D01*
X137761904Y-92404761D01*
X137714285Y-92357142D01*
X137833333Y-67857142D02*
X137785714Y-67904761D01*
X137642857Y-67952380D01*
X137547619Y-67952380D01*
X137404761Y-67904761D01*
X137309523Y-67809523D01*
X137261904Y-67714285D01*
X137214285Y-67523809D01*
X137214285Y-67380952D01*
X137261904Y-67190476D01*
X137309523Y-67095238D01*
X137404761Y-67000000D01*
X137547619Y-66952380D01*
X137642857Y-66952380D01*
X137785714Y-67000000D01*
X137833333Y-67047619D01*
X138690476Y-67285714D02*
X138690476Y-67952380D01*
X138452380Y-66904761D02*
X138214285Y-67619047D01*
X138833333Y-67619047D01*
X108833333Y-104357142D02*
X108785714Y-104404761D01*
X108642857Y-104452380D01*
X108547619Y-104452380D01*
X108404761Y-104404761D01*
X108309523Y-104309523D01*
X108261904Y-104214285D01*
X108214285Y-104023809D01*
X108214285Y-103880952D01*
X108261904Y-103690476D01*
X108309523Y-103595238D01*
X108404761Y-103500000D01*
X108547619Y-103452380D01*
X108642857Y-103452380D01*
X108785714Y-103500000D01*
X108833333Y-103547619D01*
X109166666Y-103452380D02*
X109785714Y-103452380D01*
X109452380Y-103833333D01*
X109595238Y-103833333D01*
X109690476Y-103880952D01*
X109738095Y-103928571D01*
X109785714Y-104023809D01*
X109785714Y-104261904D01*
X109738095Y-104357142D01*
X109690476Y-104404761D01*
X109595238Y-104452380D01*
X109309523Y-104452380D01*
X109214285Y-104404761D01*
X109166666Y-104357142D01*
X93333333Y-88857142D02*
X93285714Y-88904761D01*
X93142857Y-88952380D01*
X93047619Y-88952380D01*
X92904761Y-88904761D01*
X92809523Y-88809523D01*
X92761904Y-88714285D01*
X92714285Y-88523809D01*
X92714285Y-88380952D01*
X92761904Y-88190476D01*
X92809523Y-88095238D01*
X92904761Y-88000000D01*
X93047619Y-87952380D01*
X93142857Y-87952380D01*
X93285714Y-88000000D01*
X93333333Y-88047619D01*
X93714285Y-88047619D02*
X93761904Y-88000000D01*
X93857142Y-87952380D01*
X94095238Y-87952380D01*
X94190476Y-88000000D01*
X94238095Y-88047619D01*
X94285714Y-88142857D01*
X94285714Y-88238095D01*
X94238095Y-88380952D01*
X93666666Y-88952380D01*
X94285714Y-88952380D01*
X141872380Y-85833333D02*
X142586666Y-85833333D01*
X142729523Y-85880952D01*
X142824761Y-85976190D01*
X142872380Y-86119047D01*
X142872380Y-86214285D01*
X142872380Y-85357142D02*
X141872380Y-85357142D01*
X141872380Y-84976190D01*
X141920000Y-84880952D01*
X141967619Y-84833333D01*
X142062857Y-84785714D01*
X142205714Y-84785714D01*
X142300952Y-84833333D01*
X142348571Y-84880952D01*
X142396190Y-84976190D01*
X142396190Y-85357142D01*
X142872380Y-83833333D02*
X142872380Y-84404761D01*
X142872380Y-84119047D02*
X141872380Y-84119047D01*
X142015238Y-84214285D01*
X142110476Y-84309523D01*
X142158095Y-84404761D01*
X138222380Y-120718333D02*
X138936666Y-120718333D01*
X139079523Y-120765952D01*
X139174761Y-120861190D01*
X139222380Y-121004047D01*
X139222380Y-121099285D01*
X139222380Y-119718333D02*
X139222380Y-120289761D01*
X139222380Y-120004047D02*
X138222380Y-120004047D01*
X138365238Y-120099285D01*
X138460476Y-120194523D01*
X138508095Y-120289761D01*
X113622380Y-107563333D02*
X114336666Y-107563333D01*
X114479523Y-107610952D01*
X114574761Y-107706190D01*
X114622380Y-107849047D01*
X114622380Y-107944285D01*
X113622380Y-106658571D02*
X113622380Y-106849047D01*
X113670000Y-106944285D01*
X113717619Y-106991904D01*
X113860476Y-107087142D01*
X114050952Y-107134761D01*
X114431904Y-107134761D01*
X114527142Y-107087142D01*
X114574761Y-107039523D01*
X114622380Y-106944285D01*
X114622380Y-106753809D01*
X114574761Y-106658571D01*
X114527142Y-106610952D01*
X114431904Y-106563333D01*
X114193809Y-106563333D01*
X114098571Y-106610952D01*
X114050952Y-106658571D01*
X114003333Y-106753809D01*
X114003333Y-106944285D01*
X114050952Y-107039523D01*
X114098571Y-107087142D01*
X114193809Y-107134761D01*
X143186666Y-68122380D02*
X143186666Y-68836666D01*
X143139047Y-68979523D01*
X143043809Y-69074761D01*
X142900952Y-69122380D01*
X142805714Y-69122380D01*
X144139047Y-68122380D02*
X143662857Y-68122380D01*
X143615238Y-68598571D01*
X143662857Y-68550952D01*
X143758095Y-68503333D01*
X143996190Y-68503333D01*
X144091428Y-68550952D01*
X144139047Y-68598571D01*
X144186666Y-68693809D01*
X144186666Y-68931904D01*
X144139047Y-69027142D01*
X144091428Y-69074761D01*
X143996190Y-69122380D01*
X143758095Y-69122380D01*
X143662857Y-69074761D01*
X143615238Y-69027142D01*
X151686666Y-68122380D02*
X151686666Y-68836666D01*
X151639047Y-68979523D01*
X151543809Y-69074761D01*
X151400952Y-69122380D01*
X151305714Y-69122380D01*
X152591428Y-68455714D02*
X152591428Y-69122380D01*
X152353333Y-68074761D02*
X152115238Y-68789047D01*
X152734285Y-68789047D01*
X65146666Y-81782380D02*
X65146666Y-82496666D01*
X65099047Y-82639523D01*
X65003809Y-82734761D01*
X64860952Y-82782380D01*
X64765714Y-82782380D01*
X65527619Y-81782380D02*
X66194285Y-81782380D01*
X65765714Y-82782380D01*
X83432380Y-56678333D02*
X84146666Y-56678333D01*
X84289523Y-56725952D01*
X84384761Y-56821190D01*
X84432380Y-56964047D01*
X84432380Y-57059285D01*
X83432380Y-56297380D02*
X83432380Y-55678333D01*
X83813333Y-56011666D01*
X83813333Y-55868809D01*
X83860952Y-55773571D01*
X83908571Y-55725952D01*
X84003809Y-55678333D01*
X84241904Y-55678333D01*
X84337142Y-55725952D01*
X84384761Y-55773571D01*
X84432380Y-55868809D01*
X84432380Y-56154523D01*
X84384761Y-56249761D01*
X84337142Y-56297380D01*
X126488095Y-91952380D02*
X126488095Y-92761904D01*
X126535714Y-92857142D01*
X126583333Y-92904761D01*
X126678571Y-92952380D01*
X126869047Y-92952380D01*
X126964285Y-92904761D01*
X127011904Y-92857142D01*
X127059523Y-92761904D01*
X127059523Y-91952380D01*
X127488095Y-92047619D02*
X127535714Y-92000000D01*
X127630952Y-91952380D01*
X127869047Y-91952380D01*
X127964285Y-92000000D01*
X128011904Y-92047619D01*
X128059523Y-92142857D01*
X128059523Y-92238095D01*
X128011904Y-92380952D01*
X127440476Y-92952380D01*
X128059523Y-92952380D01*
X126238095Y-67202380D02*
X126238095Y-68011904D01*
X126285714Y-68107142D01*
X126333333Y-68154761D01*
X126428571Y-68202380D01*
X126619047Y-68202380D01*
X126714285Y-68154761D01*
X126761904Y-68107142D01*
X126809523Y-68011904D01*
X126809523Y-67202380D01*
X127809523Y-68202380D02*
X127238095Y-68202380D01*
X127523809Y-68202380D02*
X127523809Y-67202380D01*
X127428571Y-67345238D01*
X127333333Y-67440476D01*
X127238095Y-67488095D01*
X85622380Y-97951904D02*
X86431904Y-97951904D01*
X86527142Y-97904285D01*
X86574761Y-97856666D01*
X86622380Y-97761428D01*
X86622380Y-97570952D01*
X86574761Y-97475714D01*
X86527142Y-97428095D01*
X86431904Y-97380476D01*
X85622380Y-97380476D01*
X85955714Y-96475714D02*
X86622380Y-96475714D01*
X85574761Y-96713809D02*
X86289047Y-96951904D01*
X86289047Y-96332857D01*
X70122380Y-78141904D02*
X70931904Y-78141904D01*
X71027142Y-78094285D01*
X71074761Y-78046666D01*
X71122380Y-77951428D01*
X71122380Y-77760952D01*
X71074761Y-77665714D01*
X71027142Y-77618095D01*
X70931904Y-77570476D01*
X70122380Y-77570476D01*
X70122380Y-77189523D02*
X70122380Y-76570476D01*
X70503333Y-76903809D01*
X70503333Y-76760952D01*
X70550952Y-76665714D01*
X70598571Y-76618095D01*
X70693809Y-76570476D01*
X70931904Y-76570476D01*
X71027142Y-76618095D01*
X71074761Y-76665714D01*
X71122380Y-76760952D01*
X71122380Y-77046666D01*
X71074761Y-77141904D01*
X71027142Y-77189523D01*
X95309523Y-66452380D02*
X94976190Y-65976190D01*
X94738095Y-66452380D02*
X94738095Y-65452380D01*
X95119047Y-65452380D01*
X95214285Y-65500000D01*
X95261904Y-65547619D01*
X95309523Y-65642857D01*
X95309523Y-65785714D01*
X95261904Y-65880952D01*
X95214285Y-65928571D01*
X95119047Y-65976190D01*
X94738095Y-65976190D01*
X95738095Y-66452380D02*
X95738095Y-65452380D01*
X96309523Y-66452380D01*
X96309523Y-65452380D01*
X97309523Y-66452380D02*
X96738095Y-66452380D01*
X97023809Y-66452380D02*
X97023809Y-65452380D01*
X96928571Y-65595238D01*
X96833333Y-65690476D01*
X96738095Y-65738095D01*
X104583333Y-108452380D02*
X104250000Y-107976190D01*
X104011904Y-108452380D02*
X104011904Y-107452380D01*
X104392857Y-107452380D01*
X104488095Y-107500000D01*
X104535714Y-107547619D01*
X104583333Y-107642857D01*
X104583333Y-107785714D01*
X104535714Y-107880952D01*
X104488095Y-107928571D01*
X104392857Y-107976190D01*
X104011904Y-107976190D01*
X105535714Y-108452380D02*
X104964285Y-108452380D01*
X105250000Y-108452380D02*
X105250000Y-107452380D01*
X105154761Y-107595238D01*
X105059523Y-107690476D01*
X104964285Y-107738095D01*
X103880952Y-114227980D02*
X103880952Y-113227980D01*
X104261904Y-113227980D01*
X104357142Y-113275600D01*
X104404761Y-113323219D01*
X104452380Y-113418457D01*
X104452380Y-113561314D01*
X104404761Y-113656552D01*
X104357142Y-113704171D01*
X104261904Y-113751790D01*
X103880952Y-113751790D01*
X104833333Y-114180361D02*
X104976190Y-114227980D01*
X105214285Y-114227980D01*
X105309523Y-114180361D01*
X105357142Y-114132742D01*
X105404761Y-114037504D01*
X105404761Y-113942266D01*
X105357142Y-113847028D01*
X105309523Y-113799409D01*
X105214285Y-113751790D01*
X105023809Y-113704171D01*
X104928571Y-113656552D01*
X104880952Y-113608933D01*
X104833333Y-113513695D01*
X104833333Y-113418457D01*
X104880952Y-113323219D01*
X104928571Y-113275600D01*
X105023809Y-113227980D01*
X105261904Y-113227980D01*
X105404761Y-113275600D01*
X106547619Y-113180361D02*
X105690476Y-114466076D01*
X106833333Y-113323219D02*
X106880952Y-113275600D01*
X106976190Y-113227980D01*
X107214285Y-113227980D01*
X107309523Y-113275600D01*
X107357142Y-113323219D01*
X107404761Y-113418457D01*
X107404761Y-113513695D01*
X107357142Y-113656552D01*
X106785714Y-114227980D01*
X107404761Y-114227980D01*
X108595238Y-114227980D02*
X108595238Y-113227980D01*
X109166666Y-114227980D02*
X108738095Y-113656552D01*
X109166666Y-113227980D02*
X108595238Y-113799409D01*
X109928571Y-113704171D02*
X110071428Y-113751790D01*
X110119047Y-113799409D01*
X110166666Y-113894647D01*
X110166666Y-114037504D01*
X110119047Y-114132742D01*
X110071428Y-114180361D01*
X109976190Y-114227980D01*
X109595238Y-114227980D01*
X109595238Y-113227980D01*
X109928571Y-113227980D01*
X110023809Y-113275600D01*
X110071428Y-113323219D01*
X110119047Y-113418457D01*
X110119047Y-113513695D01*
X110071428Y-113608933D01*
X110023809Y-113656552D01*
X109928571Y-113704171D01*
X109595238Y-113704171D01*
%LPC*%
D15*
X73840000Y-99000000D03*
D16*
X84000000Y-99000000D03*
D15*
X73840000Y-95500000D03*
D16*
X84000000Y-95500000D03*
D15*
X84160000Y-92000000D03*
D16*
X74000000Y-92000000D03*
D17*
X66700000Y-112000000D03*
D18*
X74500000Y-111800000D03*
D17*
X70000000Y-104600000D03*
X71700000Y-102100000D03*
D18*
X63200000Y-107500000D03*
D16*
X66500000Y-95500000D03*
X69000000Y-95500000D03*
X82500000Y-88500000D03*
X85000000Y-88500000D03*
D19*
X154500000Y-120500000D03*
X65500000Y-120500000D03*
X154500000Y-54500000D03*
X65500000Y-54500000D03*
D20*
X74500000Y-61250000D03*
D16*
X74500000Y-58750000D03*
X132500000Y-92000000D03*
X135000000Y-92000000D03*
X132500000Y-67500000D03*
X135000000Y-67500000D03*
X106500000Y-104000000D03*
X104000000Y-104000000D03*
X88500000Y-88500000D03*
X91000000Y-88500000D03*
D21*
X144750000Y-85000000D03*
D22*
X147290000Y-85000000D03*
X149830000Y-85000000D03*
D21*
X136500000Y-116000000D03*
D22*
X133960000Y-116000000D03*
X131420000Y-116000000D03*
X128880000Y-116000000D03*
X126340000Y-116000000D03*
X123800000Y-116000000D03*
D21*
X116500000Y-108500000D03*
D22*
X116500000Y-105960000D03*
X119040000Y-108500000D03*
X119040000Y-105960000D03*
X121580000Y-108500000D03*
X121580000Y-105960000D03*
X144790000Y-78620000D03*
X142250000Y-78620000D03*
X144790000Y-76080000D03*
X142250000Y-76080000D03*
X144790000Y-73540000D03*
X142250000Y-73540000D03*
X144790000Y-71000000D03*
D21*
X142250000Y-71000000D03*
X150750000Y-71000000D03*
D22*
X153290000Y-71000000D03*
X150750000Y-73540000D03*
X153290000Y-73540000D03*
X150750000Y-76080000D03*
X153290000Y-76080000D03*
X150750000Y-78620000D03*
X153290000Y-78620000D03*
D21*
X66750000Y-80000000D03*
D22*
X64210000Y-80000000D03*
X66750000Y-77460000D03*
X64210000Y-77460000D03*
X66750000Y-74920000D03*
X64210000Y-74920000D03*
X66750000Y-72380000D03*
X64210000Y-72380000D03*
X66750000Y-69840000D03*
X64210000Y-69840000D03*
X66750000Y-67300000D03*
X64210000Y-67300000D03*
X66750000Y-64760000D03*
X64210000Y-64760000D03*
D21*
X86250000Y-62000000D03*
D22*
X86250000Y-59460000D03*
X88790000Y-62000000D03*
X88790000Y-59460000D03*
X91330000Y-62000000D03*
X91330000Y-59460000D03*
X93870000Y-62000000D03*
X93870000Y-59460000D03*
X96410000Y-62000000D03*
X96410000Y-59460000D03*
X98950000Y-62000000D03*
X98950000Y-59460000D03*
X101490000Y-62000000D03*
X101490000Y-59460000D03*
X104030000Y-62000000D03*
X104030000Y-59460000D03*
X106570000Y-62000000D03*
X106570000Y-59460000D03*
X109110000Y-62000000D03*
X109110000Y-59460000D03*
X111650000Y-62000000D03*
X111650000Y-59460000D03*
X114190000Y-62000000D03*
X114190000Y-59460000D03*
X116730000Y-62000000D03*
X116730000Y-59460000D03*
X119270000Y-62000000D03*
X119270000Y-59460000D03*
X121810000Y-62000000D03*
X121810000Y-59460000D03*
X124350000Y-62000000D03*
X124350000Y-59460000D03*
X126890000Y-62000000D03*
X126890000Y-59460000D03*
X129430000Y-62000000D03*
X129430000Y-59460000D03*
X131970000Y-62000000D03*
X131970000Y-59460000D03*
X134510000Y-62000000D03*
X134510000Y-59460000D03*
D20*
X127500000Y-95000000D03*
D15*
X135120000Y-110240000D03*
X127500000Y-97540000D03*
X135120000Y-107700000D03*
X127500000Y-100080000D03*
X135120000Y-105160000D03*
X127500000Y-102620000D03*
X135120000Y-102620000D03*
X127500000Y-105160000D03*
X135120000Y-100080000D03*
X127500000Y-107700000D03*
X135120000Y-97540000D03*
X127500000Y-110240000D03*
X135120000Y-95000000D03*
D20*
X127250000Y-70500000D03*
D15*
X134870000Y-88280000D03*
X127250000Y-73040000D03*
X134870000Y-85740000D03*
X127250000Y-75580000D03*
X134870000Y-83200000D03*
X127250000Y-78120000D03*
X134870000Y-80660000D03*
X127250000Y-80660000D03*
X134870000Y-78120000D03*
X127250000Y-83200000D03*
X134870000Y-75580000D03*
X127250000Y-85740000D03*
X134870000Y-73040000D03*
X127250000Y-88280000D03*
X134870000Y-70500000D03*
D20*
X88500000Y-101000000D03*
D15*
X121520000Y-93380000D03*
X91040000Y-101000000D03*
X118980000Y-93380000D03*
X93580000Y-101000000D03*
X116440000Y-93380000D03*
X96120000Y-101000000D03*
X113900000Y-93380000D03*
X98660000Y-101000000D03*
X111360000Y-93380000D03*
X101200000Y-101000000D03*
X108820000Y-93380000D03*
X103740000Y-101000000D03*
X106280000Y-93380000D03*
X106280000Y-101000000D03*
X103740000Y-93380000D03*
X108820000Y-101000000D03*
X101200000Y-93380000D03*
X111360000Y-101000000D03*
X98660000Y-93380000D03*
X113900000Y-101000000D03*
X96120000Y-93380000D03*
X116440000Y-101000000D03*
X93580000Y-93380000D03*
X118980000Y-101000000D03*
X91040000Y-93380000D03*
X121520000Y-101000000D03*
X88500000Y-93380000D03*
D20*
X73000000Y-85000000D03*
D15*
X121260000Y-69760000D03*
X75540000Y-85000000D03*
X118720000Y-69760000D03*
X78080000Y-85000000D03*
X116180000Y-69760000D03*
X80620000Y-85000000D03*
X113640000Y-69760000D03*
X83160000Y-85000000D03*
X111100000Y-69760000D03*
X85700000Y-85000000D03*
X108560000Y-69760000D03*
X88240000Y-85000000D03*
X106020000Y-69760000D03*
X90780000Y-85000000D03*
X103480000Y-69760000D03*
X93320000Y-85000000D03*
X100940000Y-69760000D03*
X95860000Y-85000000D03*
X98400000Y-69760000D03*
X98400000Y-85000000D03*
X95860000Y-69760000D03*
X100940000Y-85000000D03*
X93320000Y-69760000D03*
X103480000Y-85000000D03*
X90780000Y-69760000D03*
X106020000Y-85000000D03*
X88240000Y-69760000D03*
X108560000Y-85000000D03*
X85700000Y-69760000D03*
X111100000Y-85000000D03*
X83160000Y-69760000D03*
X113640000Y-85000000D03*
X80620000Y-69760000D03*
X116180000Y-85000000D03*
X78080000Y-69760000D03*
X118720000Y-85000000D03*
X75540000Y-69760000D03*
X121260000Y-85000000D03*
X73000000Y-69760000D03*
D20*
X120500000Y-66000000D03*
D15*
X117960000Y-66000000D03*
X115420000Y-66000000D03*
X112880000Y-66000000D03*
X110340000Y-66000000D03*
X107800000Y-66000000D03*
X105260000Y-66000000D03*
X102720000Y-66000000D03*
X100180000Y-66000000D03*
D16*
X99500000Y-108000000D03*
D15*
X109660000Y-108000000D03*
D23*
X108300000Y-118500000D03*
X105700000Y-118500000D03*
X110400000Y-118500000D03*
X103600000Y-118500000D03*
X110400000Y-116000000D03*
X103600000Y-116000000D03*
D24*
X100250000Y-121500000D03*
X113750000Y-121500000D03*
D25*
X107000000Y-122300000D03*
M02*
