G04 #@! TF.GenerationSoftware,KiCad,Pcbnew,(5.1.4-0-10_14)*
G04 #@! TF.CreationDate,2021-08-12T19:57:57+09:00*
G04 #@! TF.ProjectId,KZ80-PS2KBD,4b5a3830-2d50-4533-924b-42442e6b6963,rev?*
G04 #@! TF.SameCoordinates,Original*
G04 #@! TF.FileFunction,Soldermask,Top*
G04 #@! TF.FilePolarity,Negative*
%FSLAX46Y46*%
G04 Gerber Fmt 4.6, Leading zero omitted, Abs format (unit mm)*
G04 Created by KiCad (PCBNEW (5.1.4-0-10_14)) date 2021-08-12 19:57:57*
%MOMM*%
%LPD*%
G04 APERTURE LIST*
%ADD10O,2.000000X2.000000*%
%ADD11C,2.000000*%
%ADD12O,3.400000X2.400000*%
%ADD13O,2.400000X3.400000*%
%ADD14C,3.600000*%
%ADD15R,2.000000X2.000000*%
%ADD16R,2.100000X2.100000*%
%ADD17O,2.100000X2.100000*%
%ADD18C,1.924000*%
%ADD19R,1.600000X3.200000*%
%ADD20R,3.200000X1.600000*%
G04 APERTURE END LIST*
D10*
X73840000Y-99000000D03*
D11*
X84000000Y-99000000D03*
D10*
X73840000Y-95500000D03*
D11*
X84000000Y-95500000D03*
D10*
X84160000Y-92000000D03*
D11*
X74000000Y-92000000D03*
D12*
X66700000Y-112000000D03*
D13*
X74500000Y-111800000D03*
D12*
X70000000Y-104600000D03*
X71700000Y-102100000D03*
D13*
X63200000Y-107500000D03*
D11*
X66500000Y-95500000D03*
X69000000Y-95500000D03*
X82500000Y-88500000D03*
X85000000Y-88500000D03*
D14*
X154500000Y-120500000D03*
X65500000Y-120500000D03*
X154500000Y-54500000D03*
X65500000Y-54500000D03*
D15*
X74500000Y-61250000D03*
D11*
X74500000Y-58750000D03*
X132500000Y-92000000D03*
X135000000Y-92000000D03*
X132500000Y-67500000D03*
X135000000Y-67500000D03*
X106500000Y-104000000D03*
X104000000Y-104000000D03*
X108500000Y-78500000D03*
X108500000Y-76000000D03*
D16*
X144750000Y-85000000D03*
D17*
X147290000Y-85000000D03*
X149830000Y-85000000D03*
D16*
X136500000Y-116000000D03*
D17*
X133960000Y-116000000D03*
X131420000Y-116000000D03*
X128880000Y-116000000D03*
X126340000Y-116000000D03*
X123800000Y-116000000D03*
D16*
X116500000Y-108500000D03*
D17*
X116500000Y-105960000D03*
X119040000Y-108500000D03*
X119040000Y-105960000D03*
X121580000Y-108500000D03*
X121580000Y-105960000D03*
X144790000Y-78620000D03*
X142250000Y-78620000D03*
X144790000Y-76080000D03*
X142250000Y-76080000D03*
X144790000Y-73540000D03*
X142250000Y-73540000D03*
X144790000Y-71000000D03*
D16*
X142250000Y-71000000D03*
X150750000Y-71000000D03*
D17*
X153290000Y-71000000D03*
X150750000Y-73540000D03*
X153290000Y-73540000D03*
X150750000Y-76080000D03*
X153290000Y-76080000D03*
X150750000Y-78620000D03*
X153290000Y-78620000D03*
D16*
X66750000Y-80000000D03*
D17*
X64210000Y-80000000D03*
X66750000Y-77460000D03*
X64210000Y-77460000D03*
X66750000Y-74920000D03*
X64210000Y-74920000D03*
X66750000Y-72380000D03*
X64210000Y-72380000D03*
X66750000Y-69840000D03*
X64210000Y-69840000D03*
X66750000Y-67300000D03*
X64210000Y-67300000D03*
X66750000Y-64760000D03*
X64210000Y-64760000D03*
D16*
X86250000Y-62000000D03*
D17*
X86250000Y-59460000D03*
X88790000Y-62000000D03*
X88790000Y-59460000D03*
X91330000Y-62000000D03*
X91330000Y-59460000D03*
X93870000Y-62000000D03*
X93870000Y-59460000D03*
X96410000Y-62000000D03*
X96410000Y-59460000D03*
X98950000Y-62000000D03*
X98950000Y-59460000D03*
X101490000Y-62000000D03*
X101490000Y-59460000D03*
X104030000Y-62000000D03*
X104030000Y-59460000D03*
X106570000Y-62000000D03*
X106570000Y-59460000D03*
X109110000Y-62000000D03*
X109110000Y-59460000D03*
X111650000Y-62000000D03*
X111650000Y-59460000D03*
X114190000Y-62000000D03*
X114190000Y-59460000D03*
X116730000Y-62000000D03*
X116730000Y-59460000D03*
X119270000Y-62000000D03*
X119270000Y-59460000D03*
X121810000Y-62000000D03*
X121810000Y-59460000D03*
X124350000Y-62000000D03*
X124350000Y-59460000D03*
X126890000Y-62000000D03*
X126890000Y-59460000D03*
X129430000Y-62000000D03*
X129430000Y-59460000D03*
X131970000Y-62000000D03*
X131970000Y-59460000D03*
X134510000Y-62000000D03*
X134510000Y-59460000D03*
D15*
X127500000Y-95000000D03*
D10*
X135120000Y-110240000D03*
X127500000Y-97540000D03*
X135120000Y-107700000D03*
X127500000Y-100080000D03*
X135120000Y-105160000D03*
X127500000Y-102620000D03*
X135120000Y-102620000D03*
X127500000Y-105160000D03*
X135120000Y-100080000D03*
X127500000Y-107700000D03*
X135120000Y-97540000D03*
X127500000Y-110240000D03*
X135120000Y-95000000D03*
D15*
X127250000Y-70500000D03*
D10*
X134870000Y-88280000D03*
X127250000Y-73040000D03*
X134870000Y-85740000D03*
X127250000Y-75580000D03*
X134870000Y-83200000D03*
X127250000Y-78120000D03*
X134870000Y-80660000D03*
X127250000Y-80660000D03*
X134870000Y-78120000D03*
X127250000Y-83200000D03*
X134870000Y-75580000D03*
X127250000Y-85740000D03*
X134870000Y-73040000D03*
X127250000Y-88280000D03*
X134870000Y-70500000D03*
D15*
X88500000Y-101000000D03*
D10*
X121520000Y-93380000D03*
X91040000Y-101000000D03*
X118980000Y-93380000D03*
X93580000Y-101000000D03*
X116440000Y-93380000D03*
X96120000Y-101000000D03*
X113900000Y-93380000D03*
X98660000Y-101000000D03*
X111360000Y-93380000D03*
X101200000Y-101000000D03*
X108820000Y-93380000D03*
X103740000Y-101000000D03*
X106280000Y-93380000D03*
X106280000Y-101000000D03*
X103740000Y-93380000D03*
X108820000Y-101000000D03*
X101200000Y-93380000D03*
X111360000Y-101000000D03*
X98660000Y-93380000D03*
X113900000Y-101000000D03*
X96120000Y-93380000D03*
X116440000Y-101000000D03*
X93580000Y-93380000D03*
X118980000Y-101000000D03*
X91040000Y-93380000D03*
X121520000Y-101000000D03*
X88500000Y-93380000D03*
D15*
X73000000Y-85000000D03*
D10*
X121260000Y-69760000D03*
X75540000Y-85000000D03*
X118720000Y-69760000D03*
X78080000Y-85000000D03*
X116180000Y-69760000D03*
X80620000Y-85000000D03*
X113640000Y-69760000D03*
X83160000Y-85000000D03*
X111100000Y-69760000D03*
X85700000Y-85000000D03*
X108560000Y-69760000D03*
X88240000Y-85000000D03*
X106020000Y-69760000D03*
X90780000Y-85000000D03*
X103480000Y-69760000D03*
X93320000Y-85000000D03*
X100940000Y-69760000D03*
X95860000Y-85000000D03*
X98400000Y-69760000D03*
X98400000Y-85000000D03*
X95860000Y-69760000D03*
X100940000Y-85000000D03*
X93320000Y-69760000D03*
X103480000Y-85000000D03*
X90780000Y-69760000D03*
X106020000Y-85000000D03*
X88240000Y-69760000D03*
X108560000Y-85000000D03*
X85700000Y-69760000D03*
X111100000Y-85000000D03*
X83160000Y-69760000D03*
X113640000Y-85000000D03*
X80620000Y-69760000D03*
X116180000Y-85000000D03*
X78080000Y-69760000D03*
X118720000Y-85000000D03*
X75540000Y-69760000D03*
X121260000Y-85000000D03*
X73000000Y-69760000D03*
D15*
X120500000Y-66000000D03*
D10*
X117960000Y-66000000D03*
X115420000Y-66000000D03*
X112880000Y-66000000D03*
X110340000Y-66000000D03*
X107800000Y-66000000D03*
X105260000Y-66000000D03*
X102720000Y-66000000D03*
X100180000Y-66000000D03*
D11*
X99500000Y-108000000D03*
D10*
X109660000Y-108000000D03*
D18*
X108300000Y-118500000D03*
X105700000Y-118500000D03*
X110400000Y-118500000D03*
X103600000Y-118500000D03*
X110400000Y-116000000D03*
X103600000Y-116000000D03*
D19*
X100250000Y-121500000D03*
X113750000Y-121500000D03*
D20*
X107000000Y-122300000D03*
M02*
