G04 #@! TF.GenerationSoftware,KiCad,Pcbnew,(5.1.4-0-10_14)*
G04 #@! TF.CreationDate,2021-03-22T17:32:21+09:00*
G04 #@! TF.ProjectId,KZ80-PS2KBD,4b5a3830-2d50-4533-924b-42442e6b6963,rev?*
G04 #@! TF.SameCoordinates,Original*
G04 #@! TF.FileFunction,Copper,L1,Top*
G04 #@! TF.FilePolarity,Positive*
%FSLAX46Y46*%
G04 Gerber Fmt 4.6, Leading zero omitted, Abs format (unit mm)*
G04 Created by KiCad (PCBNEW (5.1.4-0-10_14)) date 2021-03-22 17:32:21*
%MOMM*%
%LPD*%
G04 APERTURE LIST*
%ADD10O,1.600000X1.600000*%
%ADD11C,1.600000*%
%ADD12O,3.000000X2.000000*%
%ADD13O,2.000000X3.000000*%
%ADD14R,1.600000X1.600000*%
%ADD15R,1.700000X1.700000*%
%ADD16O,1.700000X1.700000*%
%ADD17C,1.524000*%
%ADD18R,1.200000X2.800000*%
%ADD19R,2.800000X1.200000*%
%ADD20C,0.800000*%
%ADD21C,0.600000*%
%ADD22C,0.250000*%
%ADD23C,0.254000*%
G04 APERTURE END LIST*
D10*
X157150000Y-93030000D03*
D11*
X146990000Y-93030000D03*
D10*
X141500000Y-107210000D03*
D11*
X141500000Y-97050000D03*
D10*
X137560000Y-96820000D03*
D11*
X137560000Y-106980000D03*
D12*
X154020000Y-97390000D03*
D13*
X146220000Y-97590000D03*
D12*
X150720000Y-104790000D03*
X149020000Y-107290000D03*
D13*
X157520000Y-101890000D03*
D11*
X138590000Y-110590000D03*
X141090000Y-110590000D03*
X138260000Y-93770000D03*
X140760000Y-93770000D03*
D14*
X74500000Y-61250000D03*
D11*
X74500000Y-58750000D03*
X131530000Y-90750000D03*
X129030000Y-90750000D03*
X147500000Y-65000000D03*
X150000000Y-65000000D03*
X97250000Y-86000000D03*
X97250000Y-83500000D03*
X77500000Y-84250000D03*
X80000000Y-84250000D03*
D15*
X126250000Y-85000000D03*
D16*
X128790000Y-85000000D03*
X131330000Y-85000000D03*
D15*
X136500000Y-116000000D03*
D16*
X133960000Y-116000000D03*
X131420000Y-116000000D03*
X128880000Y-116000000D03*
X126340000Y-116000000D03*
X123800000Y-116000000D03*
D15*
X114500000Y-71500000D03*
D16*
X117040000Y-71500000D03*
X114500000Y-74040000D03*
X117040000Y-74040000D03*
X114500000Y-76580000D03*
X117040000Y-76580000D03*
X126290000Y-78620000D03*
X123750000Y-78620000D03*
X126290000Y-76080000D03*
X123750000Y-76080000D03*
X126290000Y-73540000D03*
X123750000Y-73540000D03*
X126290000Y-71000000D03*
D15*
X123750000Y-71000000D03*
X132250000Y-71000000D03*
D16*
X134790000Y-71000000D03*
X132250000Y-73540000D03*
X134790000Y-73540000D03*
X132250000Y-76080000D03*
X134790000Y-76080000D03*
X132250000Y-78620000D03*
X134790000Y-78620000D03*
D15*
X66750000Y-80000000D03*
D16*
X64210000Y-80000000D03*
X66750000Y-77460000D03*
X64210000Y-77460000D03*
X66750000Y-74920000D03*
X64210000Y-74920000D03*
X66750000Y-72380000D03*
X64210000Y-72380000D03*
X66750000Y-69840000D03*
X64210000Y-69840000D03*
X66750000Y-67300000D03*
X64210000Y-67300000D03*
X66750000Y-64760000D03*
X64210000Y-64760000D03*
D15*
X86250000Y-62000000D03*
D16*
X86250000Y-59460000D03*
X88790000Y-62000000D03*
X88790000Y-59460000D03*
X91330000Y-62000000D03*
X91330000Y-59460000D03*
X93870000Y-62000000D03*
X93870000Y-59460000D03*
X96410000Y-62000000D03*
X96410000Y-59460000D03*
X98950000Y-62000000D03*
X98950000Y-59460000D03*
X101490000Y-62000000D03*
X101490000Y-59460000D03*
X104030000Y-62000000D03*
X104030000Y-59460000D03*
X106570000Y-62000000D03*
X106570000Y-59460000D03*
X109110000Y-62000000D03*
X109110000Y-59460000D03*
X111650000Y-62000000D03*
X111650000Y-59460000D03*
X114190000Y-62000000D03*
X114190000Y-59460000D03*
X116730000Y-62000000D03*
X116730000Y-59460000D03*
X119270000Y-62000000D03*
X119270000Y-59460000D03*
X121810000Y-62000000D03*
X121810000Y-59460000D03*
X124350000Y-62000000D03*
X124350000Y-59460000D03*
X126890000Y-62000000D03*
X126890000Y-59460000D03*
X129430000Y-62000000D03*
X129430000Y-59460000D03*
X131970000Y-62000000D03*
X131970000Y-59460000D03*
X134510000Y-62000000D03*
X134510000Y-59460000D03*
D14*
X123530000Y-94000000D03*
D10*
X131150000Y-109240000D03*
X123530000Y-96540000D03*
X131150000Y-106700000D03*
X123530000Y-99080000D03*
X131150000Y-104160000D03*
X123530000Y-101620000D03*
X131150000Y-101620000D03*
X123530000Y-104160000D03*
X131150000Y-99080000D03*
X123530000Y-106700000D03*
X131150000Y-96540000D03*
X123530000Y-109240000D03*
X131150000Y-94000000D03*
D14*
X141750000Y-68000000D03*
D10*
X149370000Y-85780000D03*
X141750000Y-70540000D03*
X149370000Y-83240000D03*
X141750000Y-73080000D03*
X149370000Y-80700000D03*
X141750000Y-75620000D03*
X149370000Y-78160000D03*
X141750000Y-78160000D03*
X149370000Y-75620000D03*
X141750000Y-80700000D03*
X149370000Y-73080000D03*
X141750000Y-83240000D03*
X149370000Y-70540000D03*
X141750000Y-85780000D03*
X149370000Y-68000000D03*
D14*
X101250000Y-68250000D03*
D10*
X108870000Y-101270000D03*
X101250000Y-70790000D03*
X108870000Y-98730000D03*
X101250000Y-73330000D03*
X108870000Y-96190000D03*
X101250000Y-75870000D03*
X108870000Y-93650000D03*
X101250000Y-78410000D03*
X108870000Y-91110000D03*
X101250000Y-80950000D03*
X108870000Y-88570000D03*
X101250000Y-83490000D03*
X108870000Y-86030000D03*
X101250000Y-86030000D03*
X108870000Y-83490000D03*
X101250000Y-88570000D03*
X108870000Y-80950000D03*
X101250000Y-91110000D03*
X108870000Y-78410000D03*
X101250000Y-93650000D03*
X108870000Y-75870000D03*
X101250000Y-96190000D03*
X108870000Y-73330000D03*
X101250000Y-98730000D03*
X108870000Y-70790000D03*
X101250000Y-101270000D03*
X108870000Y-68250000D03*
D14*
X72250000Y-68500000D03*
D10*
X87490000Y-116760000D03*
X72250000Y-71040000D03*
X87490000Y-114220000D03*
X72250000Y-73580000D03*
X87490000Y-111680000D03*
X72250000Y-76120000D03*
X87490000Y-109140000D03*
X72250000Y-78660000D03*
X87490000Y-106600000D03*
X72250000Y-81200000D03*
X87490000Y-104060000D03*
X72250000Y-83740000D03*
X87490000Y-101520000D03*
X72250000Y-86280000D03*
X87490000Y-98980000D03*
X72250000Y-88820000D03*
X87490000Y-96440000D03*
X72250000Y-91360000D03*
X87490000Y-93900000D03*
X72250000Y-93900000D03*
X87490000Y-91360000D03*
X72250000Y-96440000D03*
X87490000Y-88820000D03*
X72250000Y-98980000D03*
X87490000Y-86280000D03*
X72250000Y-101520000D03*
X87490000Y-83740000D03*
X72250000Y-104060000D03*
X87490000Y-81200000D03*
X72250000Y-106600000D03*
X87490000Y-78660000D03*
X72250000Y-109140000D03*
X87490000Y-76120000D03*
X72250000Y-111680000D03*
X87490000Y-73580000D03*
X72250000Y-114220000D03*
X87490000Y-71040000D03*
X72250000Y-116760000D03*
X87490000Y-68500000D03*
D14*
X93250000Y-116250000D03*
D10*
X93250000Y-113710000D03*
X93250000Y-111170000D03*
X93250000Y-108630000D03*
X93250000Y-106090000D03*
X93250000Y-103550000D03*
X93250000Y-101010000D03*
X93250000Y-98470000D03*
X93250000Y-95930000D03*
D11*
X114750000Y-94750000D03*
D10*
X114750000Y-84590000D03*
D17*
X108300000Y-118500000D03*
X105700000Y-118500000D03*
X110400000Y-118500000D03*
X103600000Y-118500000D03*
X110400000Y-116000000D03*
X103600000Y-116000000D03*
D18*
X100250000Y-121500000D03*
X113750000Y-121500000D03*
D19*
X107000000Y-122300000D03*
D20*
X82000000Y-102500000D03*
X99000000Y-114500000D03*
X127000000Y-107000000D03*
X77000000Y-92500000D03*
X106034900Y-84424000D03*
X111630800Y-83913200D03*
X136188000Y-80700000D03*
D21*
X150000000Y-65000000D02*
X142646000Y-57646000D01*
X142646000Y-57646000D02*
X90604000Y-57646000D01*
X90604000Y-57646000D02*
X88790000Y-59460000D01*
X108870000Y-83490000D02*
X110170300Y-83490000D01*
X117040000Y-77255100D02*
X116405200Y-77255100D01*
X116405200Y-77255100D02*
X110170300Y-83490000D01*
X132680400Y-85780000D02*
X132680400Y-84434000D01*
X132680400Y-84434000D02*
X131700100Y-83453700D01*
X131700100Y-83453700D02*
X123238600Y-83453700D01*
X123238600Y-83453700D02*
X117040000Y-77255100D01*
X132680400Y-85780000D02*
X132680400Y-89599600D01*
X132680400Y-89599600D02*
X131530000Y-90750000D01*
X140449700Y-85780000D02*
X132680400Y-85780000D01*
X117040000Y-76580000D02*
X117040000Y-77255100D01*
X141750000Y-85780000D02*
X140449700Y-85780000D01*
X101250000Y-86030000D02*
X97280000Y-86030000D01*
X97280000Y-86030000D02*
X97250000Y-86000000D01*
X136500000Y-110590000D02*
X138590000Y-110590000D01*
X124830300Y-109240000D02*
X126180300Y-110590000D01*
X126180300Y-110590000D02*
X136500000Y-110590000D01*
X136500000Y-110590000D02*
X136500000Y-114649700D01*
X136500000Y-116000000D02*
X136500000Y-114649700D01*
X123530000Y-109240000D02*
X124830300Y-109240000D01*
X87439700Y-59460000D02*
X86250000Y-59460000D01*
X138590000Y-110590000D02*
X140592700Y-108587300D01*
X140592700Y-108587300D02*
X142602800Y-108587300D01*
X142602800Y-108587300D02*
X149300100Y-101890000D01*
X149300100Y-101890000D02*
X157520000Y-101890000D01*
X88790000Y-59460000D02*
X87439700Y-59460000D01*
X101250000Y-83490000D02*
X99949700Y-83490000D01*
X97250000Y-83500000D02*
X99939700Y-83500000D01*
X99939700Y-83500000D02*
X99949700Y-83490000D01*
X101883500Y-83490000D02*
X101250000Y-83490000D01*
X101883500Y-83490000D02*
X102550300Y-83490000D01*
X87490000Y-104060000D02*
X80000000Y-96570000D01*
X80000000Y-96570000D02*
X80000000Y-84250000D01*
X114750000Y-94750000D02*
X118750000Y-90750000D01*
X118750000Y-90750000D02*
X129030000Y-90750000D01*
X102550300Y-83490000D02*
X102550300Y-83550600D01*
X102550300Y-83550600D02*
X107569700Y-88570000D01*
X108870000Y-88570000D02*
X107569700Y-88570000D01*
X131150000Y-94000000D02*
X132450300Y-94000000D01*
X132450300Y-94000000D02*
X134732100Y-91718200D01*
X134732100Y-91718200D02*
X145272800Y-91718200D01*
X145272800Y-91718200D02*
X150687500Y-86303500D01*
X150687500Y-86303500D02*
X150687500Y-69317500D01*
X150687500Y-69317500D02*
X149370000Y-68000000D01*
X68100300Y-64760000D02*
X71610300Y-61250000D01*
X71610300Y-61250000D02*
X74500000Y-61250000D01*
X66750000Y-64760000D02*
X68100300Y-64760000D01*
X88790000Y-62000000D02*
X86250000Y-62000000D01*
D22*
X106034900Y-84424000D02*
X106034900Y-81498900D01*
X106034900Y-81498900D02*
X101531300Y-76995300D01*
X101531300Y-76995300D02*
X101250000Y-76995300D01*
X101250000Y-75870000D02*
X101250000Y-76995300D01*
X72250000Y-111680000D02*
X73375300Y-111680000D01*
X93250000Y-113710000D02*
X92124700Y-113710000D01*
X92124700Y-113710000D02*
X91220000Y-112805300D01*
X91220000Y-112805300D02*
X74500600Y-112805300D01*
X74500600Y-112805300D02*
X73375300Y-111680000D01*
X94404700Y-111170000D02*
X97844700Y-111170000D01*
X97844700Y-111170000D02*
X107744700Y-101270000D01*
X93250000Y-111170000D02*
X94404700Y-111170000D01*
X73375300Y-114220000D02*
X74503900Y-115348600D01*
X74503900Y-115348600D02*
X88391400Y-115348600D01*
X88391400Y-115348600D02*
X88827400Y-114912600D01*
X88827400Y-114912600D02*
X93673700Y-114912600D01*
X93673700Y-114912600D02*
X94404700Y-114181600D01*
X94404700Y-114181600D02*
X94404700Y-111170000D01*
X72250000Y-114220000D02*
X73375300Y-114220000D01*
X108870000Y-101270000D02*
X107744700Y-101270000D01*
X107744700Y-98730000D02*
X97844700Y-108630000D01*
X97844700Y-108630000D02*
X93250000Y-108630000D01*
X72250000Y-116760000D02*
X72250000Y-115634700D01*
X93250000Y-108630000D02*
X92124700Y-108630000D01*
X92124700Y-108630000D02*
X90344700Y-110410000D01*
X90344700Y-110410000D02*
X71889100Y-110410000D01*
X71889100Y-110410000D02*
X71124700Y-111174400D01*
X71124700Y-111174400D02*
X71124700Y-114790800D01*
X71124700Y-114790800D02*
X71968600Y-115634700D01*
X71968600Y-115634700D02*
X72250000Y-115634700D01*
X108870000Y-98730000D02*
X107744700Y-98730000D01*
X117040000Y-74040000D02*
X117040000Y-75215300D01*
X108870000Y-96190000D02*
X108870000Y-95064700D01*
X108870000Y-95064700D02*
X109151300Y-95064700D01*
X109151300Y-95064700D02*
X109997200Y-94218800D01*
X109997200Y-94218800D02*
X109997200Y-88078400D01*
X109997200Y-88078400D02*
X109218800Y-87300000D01*
X109218800Y-87300000D02*
X108496400Y-87300000D01*
X108496400Y-87300000D02*
X107734100Y-86537700D01*
X107734100Y-86537700D02*
X107734100Y-83029200D01*
X107734100Y-83029200D02*
X108543300Y-82220000D01*
X108543300Y-82220000D02*
X110555900Y-82220000D01*
X110555900Y-82220000D02*
X115864700Y-76911200D01*
X115864700Y-76911200D02*
X115864700Y-76023200D01*
X115864700Y-76023200D02*
X116672600Y-75215300D01*
X116672600Y-75215300D02*
X117040000Y-75215300D01*
X108307400Y-96190000D02*
X108870000Y-96190000D01*
X108307400Y-96190000D02*
X107744700Y-96190000D01*
X93250000Y-106090000D02*
X94375300Y-106090000D01*
X94375300Y-106090000D02*
X98126000Y-106090000D01*
X98126000Y-106090000D02*
X107744700Y-96471300D01*
X107744700Y-96471300D02*
X107744700Y-96190000D01*
X108870000Y-93650000D02*
X107744700Y-93650000D01*
X93250000Y-103550000D02*
X94375300Y-103550000D01*
X94375300Y-103550000D02*
X100610000Y-97315300D01*
X100610000Y-97315300D02*
X104079400Y-97315300D01*
X104079400Y-97315300D02*
X107744700Y-93650000D01*
X108870000Y-91110000D02*
X107744700Y-91110000D01*
X93250000Y-101010000D02*
X94375300Y-101010000D01*
X94375300Y-101010000D02*
X100465300Y-94920000D01*
X100465300Y-94920000D02*
X103934700Y-94920000D01*
X103934700Y-94920000D02*
X107744700Y-91110000D01*
X93250000Y-95930000D02*
X94375300Y-95930000D01*
X94375300Y-95930000D02*
X99195300Y-91110000D01*
X99195300Y-91110000D02*
X101250000Y-91110000D01*
X64210000Y-80000000D02*
X65385300Y-80000000D01*
X72250000Y-73580000D02*
X72250000Y-74705300D01*
X72250000Y-74705300D02*
X71219600Y-74705300D01*
X71219600Y-74705300D02*
X67100200Y-78824700D01*
X67100200Y-78824700D02*
X65752500Y-78824700D01*
X65752500Y-78824700D02*
X65385300Y-79191900D01*
X65385300Y-79191900D02*
X65385300Y-80000000D01*
X106570000Y-62000000D02*
X106570000Y-60824700D01*
X72250000Y-78660000D02*
X73375300Y-78660000D01*
X73375300Y-78660000D02*
X77040700Y-74994600D01*
X77040700Y-74994600D02*
X87732100Y-74994600D01*
X87732100Y-74994600D02*
X95234600Y-67492100D01*
X95234600Y-67492100D02*
X95234600Y-61510600D01*
X95234600Y-61510600D02*
X95945400Y-60799800D01*
X95945400Y-60799800D02*
X96734400Y-60799800D01*
X96734400Y-60799800D02*
X97680000Y-59854200D01*
X97680000Y-59854200D02*
X97680000Y-58971200D01*
X97680000Y-58971200D02*
X98379800Y-58271400D01*
X98379800Y-58271400D02*
X104515700Y-58271400D01*
X104515700Y-58271400D02*
X105394700Y-59150400D01*
X105394700Y-59150400D02*
X105394700Y-60016800D01*
X105394700Y-60016800D02*
X106202600Y-60824700D01*
X106202600Y-60824700D02*
X106570000Y-60824700D01*
X133614700Y-71000000D02*
X133614700Y-70191900D01*
X133614700Y-70191900D02*
X133247500Y-69824700D01*
X133247500Y-69824700D02*
X112159900Y-69824700D01*
X112159900Y-69824700D02*
X109924600Y-72060000D01*
X109924600Y-72060000D02*
X100899200Y-72060000D01*
X100899200Y-72060000D02*
X99158800Y-73800400D01*
X99158800Y-73800400D02*
X99158800Y-78725900D01*
X99158800Y-78725900D02*
X95359600Y-82525100D01*
X95359600Y-82525100D02*
X95359600Y-91591900D01*
X95359600Y-91591900D02*
X90253600Y-96697900D01*
X90253600Y-96697900D02*
X90253600Y-100352800D01*
X90253600Y-100352800D02*
X87907200Y-102699200D01*
X87907200Y-102699200D02*
X87013600Y-102699200D01*
X87013600Y-102699200D02*
X84803500Y-100489100D01*
X84803500Y-100489100D02*
X84803500Y-87416900D01*
X84803500Y-87416900D02*
X78586600Y-81200000D01*
X78586600Y-81200000D02*
X72250000Y-81200000D01*
X134790000Y-71000000D02*
X133614700Y-71000000D01*
X104030000Y-60635300D02*
X104397400Y-60635300D01*
X104397400Y-60635300D02*
X105205300Y-61443200D01*
X105205300Y-61443200D02*
X105205300Y-62504400D01*
X105205300Y-62504400D02*
X103292700Y-64417000D01*
X103292700Y-64417000D02*
X102979600Y-64417000D01*
X102979600Y-64417000D02*
X98708400Y-68688200D01*
X98708400Y-68688200D02*
X98708400Y-78539400D01*
X98708400Y-78539400D02*
X94909200Y-82338600D01*
X94909200Y-82338600D02*
X94909200Y-91405400D01*
X94909200Y-91405400D02*
X88801900Y-97512700D01*
X88801900Y-97512700D02*
X88801900Y-99364200D01*
X88801900Y-99364200D02*
X87771400Y-100394700D01*
X87771400Y-100394700D02*
X87490000Y-100394700D01*
X104030000Y-59460000D02*
X104030000Y-60635300D01*
X87490000Y-101520000D02*
X87490000Y-100394700D01*
X104030000Y-62000000D02*
X104030000Y-62693800D01*
X104030000Y-62693800D02*
X98032800Y-68691000D01*
X98032800Y-68691000D02*
X98032800Y-77941200D01*
X98032800Y-77941200D02*
X94458800Y-81515200D01*
X94458800Y-81515200D02*
X94458800Y-91135600D01*
X94458800Y-91135600D02*
X87739700Y-97854700D01*
X87739700Y-97854700D02*
X87490000Y-97854700D01*
X87490000Y-98980000D02*
X87490000Y-97854700D01*
X101490000Y-60635300D02*
X101857400Y-60635300D01*
X101857400Y-60635300D02*
X102665300Y-61443200D01*
X102665300Y-61443200D02*
X102665300Y-63385500D01*
X102665300Y-63385500D02*
X97582500Y-68468300D01*
X97582500Y-68468300D02*
X97582500Y-77754600D01*
X97582500Y-77754600D02*
X94008400Y-81328700D01*
X94008400Y-81328700D02*
X94008400Y-89077600D01*
X94008400Y-89077600D02*
X87771300Y-95314700D01*
X87771300Y-95314700D02*
X87490000Y-95314700D01*
X101490000Y-59460000D02*
X101490000Y-60635300D01*
X87490000Y-96440000D02*
X87490000Y-95314700D01*
X101490000Y-63175300D02*
X97132200Y-67533100D01*
X97132200Y-67533100D02*
X97132200Y-77568000D01*
X97132200Y-77568000D02*
X93332900Y-81367300D01*
X93332900Y-81367300D02*
X93332900Y-87213100D01*
X93332900Y-87213100D02*
X87771300Y-92774700D01*
X87771300Y-92774700D02*
X87490000Y-92774700D01*
X101490000Y-62000000D02*
X101490000Y-63175300D01*
X87490000Y-93900000D02*
X87490000Y-92774700D01*
X66750000Y-67300000D02*
X65574700Y-67300000D01*
X72250000Y-93900000D02*
X72250000Y-92774700D01*
X72250000Y-92774700D02*
X71968700Y-92774700D01*
X71968700Y-92774700D02*
X62110900Y-82916900D01*
X62110900Y-82916900D02*
X62110900Y-70212100D01*
X62110900Y-70212100D02*
X63847700Y-68475300D01*
X63847700Y-68475300D02*
X64766800Y-68475300D01*
X64766800Y-68475300D02*
X65574700Y-67667400D01*
X65574700Y-67667400D02*
X65574700Y-67300000D01*
X98950000Y-60635300D02*
X98582600Y-60635300D01*
X98582600Y-60635300D02*
X97774700Y-61443200D01*
X97774700Y-61443200D02*
X97774700Y-63230900D01*
X97774700Y-63230900D02*
X96187000Y-64818600D01*
X96187000Y-64818600D02*
X96187000Y-76638500D01*
X96187000Y-76638500D02*
X87815500Y-85010000D01*
X87815500Y-85010000D02*
X87133600Y-85010000D01*
X87133600Y-85010000D02*
X86345800Y-85797800D01*
X86345800Y-85797800D02*
X86345800Y-89371800D01*
X86345800Y-89371800D02*
X87208700Y-90234700D01*
X87208700Y-90234700D02*
X87490000Y-90234700D01*
X98950000Y-59460000D02*
X98950000Y-60635300D01*
X87490000Y-91360000D02*
X87490000Y-90234700D01*
X64210000Y-69840000D02*
X64210000Y-71015300D01*
X64210000Y-71015300D02*
X63842700Y-71015300D01*
X63842700Y-71015300D02*
X62569400Y-72288600D01*
X62569400Y-72288600D02*
X62569400Y-80779000D01*
X62569400Y-80779000D02*
X71880400Y-90090000D01*
X71880400Y-90090000D02*
X72589100Y-90090000D01*
X72589100Y-90090000D02*
X73391000Y-90891900D01*
X73391000Y-90891900D02*
X73391000Y-94455000D01*
X73391000Y-94455000D02*
X72531300Y-95314700D01*
X72531300Y-95314700D02*
X72250000Y-95314700D01*
X72250000Y-96440000D02*
X72250000Y-95314700D01*
X98950000Y-63175300D02*
X96681900Y-65443400D01*
X96681900Y-65443400D02*
X96681900Y-77381400D01*
X96681900Y-77381400D02*
X92657500Y-81405800D01*
X92657500Y-81405800D02*
X92657500Y-82808500D01*
X92657500Y-82808500D02*
X87771300Y-87694700D01*
X87771300Y-87694700D02*
X87490000Y-87694700D01*
X98950000Y-62000000D02*
X98950000Y-63175300D01*
X87490000Y-88820000D02*
X87490000Y-87694700D01*
X96410000Y-62000000D02*
X96410000Y-63175300D01*
X87490000Y-83740000D02*
X87490000Y-82614700D01*
X87490000Y-82614700D02*
X87771300Y-82614700D01*
X87771300Y-82614700D02*
X95736600Y-74649400D01*
X95736600Y-74649400D02*
X95736600Y-63848700D01*
X95736600Y-63848700D02*
X96410000Y-63175300D01*
X108870000Y-73330000D02*
X107744700Y-73330000D01*
X72250000Y-109140000D02*
X73375300Y-109140000D01*
X73375300Y-109140000D02*
X77185300Y-105330000D01*
X77185300Y-105330000D02*
X87811800Y-105330000D01*
X87811800Y-105330000D02*
X91255000Y-101886800D01*
X91255000Y-101886800D02*
X91255000Y-96333500D01*
X91255000Y-96333500D02*
X95976500Y-91612000D01*
X95976500Y-91612000D02*
X95976500Y-82545100D01*
X95976500Y-82545100D02*
X99852200Y-78669400D01*
X99852200Y-78669400D02*
X99852200Y-75648800D01*
X99852200Y-75648800D02*
X101045700Y-74455300D01*
X101045700Y-74455300D02*
X106619400Y-74455300D01*
X106619400Y-74455300D02*
X107744700Y-73330000D01*
X64210000Y-72380000D02*
X64210000Y-73555300D01*
X87490000Y-76120000D02*
X86364700Y-76120000D01*
X86364700Y-76120000D02*
X82554700Y-79930000D01*
X82554700Y-79930000D02*
X70770400Y-79930000D01*
X70770400Y-79930000D02*
X69511600Y-81188800D01*
X69511600Y-81188800D02*
X63701800Y-81188800D01*
X63701800Y-81188800D02*
X63026300Y-80513300D01*
X63026300Y-80513300D02*
X63026300Y-74433000D01*
X63026300Y-74433000D02*
X63904000Y-73555300D01*
X63904000Y-73555300D02*
X64210000Y-73555300D01*
X66750000Y-72380000D02*
X66750000Y-71204700D01*
X66750000Y-71204700D02*
X67458000Y-71204700D01*
X67458000Y-71204700D02*
X71288100Y-67374600D01*
X71288100Y-67374600D02*
X87959600Y-67374600D01*
X87959600Y-67374600D02*
X88658000Y-68073000D01*
X88658000Y-68073000D02*
X88658000Y-71568000D01*
X88658000Y-71568000D02*
X87771300Y-72454700D01*
X87771300Y-72454700D02*
X87490000Y-72454700D01*
X87490000Y-73580000D02*
X87490000Y-72454700D01*
X64210000Y-74920000D02*
X65385300Y-74920000D01*
X87490000Y-71040000D02*
X86364700Y-71040000D01*
X86364700Y-71040000D02*
X85239400Y-72165300D01*
X85239400Y-72165300D02*
X71404900Y-72165300D01*
X71404900Y-72165300D02*
X67474900Y-76095300D01*
X67474900Y-76095300D02*
X66193200Y-76095300D01*
X66193200Y-76095300D02*
X65385300Y-75287400D01*
X65385300Y-75287400D02*
X65385300Y-74920000D01*
X66750000Y-74920000D02*
X67925300Y-74920000D01*
X87490000Y-68500000D02*
X86364700Y-68500000D01*
X86364700Y-68500000D02*
X85239400Y-69625300D01*
X85239400Y-69625300D02*
X72044700Y-69625300D01*
X72044700Y-69625300D02*
X67925300Y-73744700D01*
X67925300Y-73744700D02*
X67925300Y-74920000D01*
X128880000Y-116000000D02*
X127704700Y-116000000D01*
X111630800Y-83913200D02*
X111630800Y-98980800D01*
X111630800Y-98980800D02*
X127704700Y-115054700D01*
X127704700Y-115054700D02*
X127704700Y-116000000D01*
X123750000Y-78620000D02*
X124925300Y-78620000D01*
X149370000Y-85780000D02*
X148244700Y-85780000D01*
X148244700Y-85780000D02*
X147119400Y-84654700D01*
X147119400Y-84654700D02*
X134952000Y-84654700D01*
X134952000Y-84654700D02*
X130092600Y-79795300D01*
X130092600Y-79795300D02*
X125733200Y-79795300D01*
X125733200Y-79795300D02*
X124925300Y-78987400D01*
X124925300Y-78987400D02*
X124925300Y-78620000D01*
X119270000Y-59460000D02*
X120445300Y-59460000D01*
X141750000Y-70540000D02*
X140624700Y-70540000D01*
X140624700Y-70540000D02*
X133260000Y-63175300D01*
X133260000Y-63175300D02*
X128941000Y-63175300D01*
X128941000Y-63175300D02*
X128160000Y-62394300D01*
X128160000Y-62394300D02*
X128160000Y-61547700D01*
X128160000Y-61547700D02*
X127247600Y-60635300D01*
X127247600Y-60635300D02*
X121253200Y-60635300D01*
X121253200Y-60635300D02*
X120445300Y-59827400D01*
X120445300Y-59827400D02*
X120445300Y-59460000D01*
X121810000Y-62000000D02*
X122985300Y-62000000D01*
X141750000Y-73080000D02*
X138772500Y-73080000D01*
X138772500Y-73080000D02*
X133911900Y-68219400D01*
X133911900Y-68219400D02*
X128837400Y-68219400D01*
X128837400Y-68219400D02*
X122985300Y-62367300D01*
X122985300Y-62367300D02*
X122985300Y-62000000D01*
X123750000Y-73540000D02*
X124925300Y-73540000D01*
X149370000Y-80700000D02*
X148244700Y-80700000D01*
X148244700Y-80700000D02*
X147119400Y-79574700D01*
X147119400Y-79574700D02*
X139499400Y-79574700D01*
X139499400Y-79574700D02*
X137274700Y-77350000D01*
X137274700Y-77350000D02*
X130928400Y-77350000D01*
X130928400Y-77350000D02*
X128293700Y-74715300D01*
X128293700Y-74715300D02*
X125733200Y-74715300D01*
X125733200Y-74715300D02*
X124925300Y-73907400D01*
X124925300Y-73907400D02*
X124925300Y-73540000D01*
X123750000Y-71000000D02*
X124925300Y-71000000D01*
X149370000Y-78160000D02*
X148244700Y-78160000D01*
X148244700Y-78160000D02*
X147119400Y-77034700D01*
X147119400Y-77034700D02*
X141131500Y-77034700D01*
X141131500Y-77034700D02*
X136272100Y-72175300D01*
X136272100Y-72175300D02*
X125733200Y-72175300D01*
X125733200Y-72175300D02*
X124925300Y-71367400D01*
X124925300Y-71367400D02*
X124925300Y-71000000D01*
X132250000Y-73540000D02*
X133425300Y-73540000D01*
X141750000Y-78160000D02*
X140624700Y-78160000D01*
X140624700Y-78160000D02*
X137180000Y-74715300D01*
X137180000Y-74715300D02*
X134233200Y-74715300D01*
X134233200Y-74715300D02*
X133425300Y-73907400D01*
X133425300Y-73907400D02*
X133425300Y-73540000D01*
X125525300Y-62000000D02*
X125525300Y-62367400D01*
X125525300Y-62367400D02*
X128286800Y-65128900D01*
X128286800Y-65128900D02*
X132095200Y-65128900D01*
X132095200Y-65128900D02*
X138921000Y-71954700D01*
X138921000Y-71954700D02*
X144579400Y-71954700D01*
X144579400Y-71954700D02*
X148244700Y-75620000D01*
X124350000Y-62000000D02*
X125525300Y-62000000D01*
X149370000Y-75620000D02*
X148244700Y-75620000D01*
X141750000Y-80700000D02*
X136188000Y-80700000D01*
X121810000Y-59460000D02*
X122985300Y-59460000D01*
X149370000Y-73080000D02*
X149370000Y-71954700D01*
X149370000Y-71954700D02*
X148704500Y-71954700D01*
X148704500Y-71954700D02*
X135034500Y-58284700D01*
X135034500Y-58284700D02*
X123793200Y-58284700D01*
X123793200Y-58284700D02*
X122985300Y-59092600D01*
X122985300Y-59092600D02*
X122985300Y-59460000D01*
X132250000Y-78620000D02*
X133425300Y-78620000D01*
X141750000Y-83240000D02*
X137678000Y-83240000D01*
X137678000Y-83240000D02*
X133425300Y-78987300D01*
X133425300Y-78987300D02*
X133425300Y-78620000D01*
X131330000Y-85000000D02*
X131330000Y-86175300D01*
X131150000Y-104160000D02*
X131150000Y-103034700D01*
X131150000Y-103034700D02*
X131431300Y-103034700D01*
X131431300Y-103034700D02*
X132305200Y-102160800D01*
X132305200Y-102160800D02*
X132305200Y-101134600D01*
X132305200Y-101134600D02*
X131520600Y-100350000D01*
X131520600Y-100350000D02*
X130772500Y-100350000D01*
X130772500Y-100350000D02*
X130010100Y-99587600D01*
X130010100Y-99587600D02*
X130010100Y-93548300D01*
X130010100Y-93548300D02*
X130280000Y-93278400D01*
X130280000Y-93278400D02*
X130280000Y-87225300D01*
X130280000Y-87225300D02*
X131330000Y-86175300D01*
X131150000Y-101620000D02*
X123530000Y-101620000D01*
X141500000Y-107210000D02*
X140374700Y-107210000D01*
X140374700Y-107210000D02*
X140144700Y-106980000D01*
X140144700Y-106980000D02*
X137560000Y-106980000D01*
X154020000Y-97390000D02*
X152194700Y-97390000D01*
X152194700Y-97390000D02*
X147834700Y-93030000D01*
X147834700Y-93030000D02*
X146990000Y-93030000D01*
D23*
G36*
X159290001Y-124290000D02*
G01*
X60710000Y-124290000D01*
X60710000Y-120279872D01*
X63265000Y-120279872D01*
X63265000Y-120720128D01*
X63350890Y-121151925D01*
X63519369Y-121558669D01*
X63763962Y-121924729D01*
X64075271Y-122236038D01*
X64441331Y-122480631D01*
X64848075Y-122649110D01*
X65279872Y-122735000D01*
X65720128Y-122735000D01*
X66151925Y-122649110D01*
X66558669Y-122480631D01*
X66924729Y-122236038D01*
X67236038Y-121924729D01*
X67480631Y-121558669D01*
X67649110Y-121151925D01*
X67735000Y-120720128D01*
X67735000Y-120279872D01*
X67699222Y-120100000D01*
X99011928Y-120100000D01*
X99011928Y-122900000D01*
X99024188Y-123024482D01*
X99060498Y-123144180D01*
X99119463Y-123254494D01*
X99198815Y-123351185D01*
X99295506Y-123430537D01*
X99405820Y-123489502D01*
X99525518Y-123525812D01*
X99650000Y-123538072D01*
X100850000Y-123538072D01*
X100974482Y-123525812D01*
X101094180Y-123489502D01*
X101204494Y-123430537D01*
X101301185Y-123351185D01*
X101380537Y-123254494D01*
X101439502Y-123144180D01*
X101475812Y-123024482D01*
X101488072Y-122900000D01*
X101488072Y-121700000D01*
X104961928Y-121700000D01*
X104961928Y-122900000D01*
X104974188Y-123024482D01*
X105010498Y-123144180D01*
X105069463Y-123254494D01*
X105148815Y-123351185D01*
X105245506Y-123430537D01*
X105355820Y-123489502D01*
X105475518Y-123525812D01*
X105600000Y-123538072D01*
X108400000Y-123538072D01*
X108524482Y-123525812D01*
X108644180Y-123489502D01*
X108754494Y-123430537D01*
X108851185Y-123351185D01*
X108930537Y-123254494D01*
X108989502Y-123144180D01*
X109025812Y-123024482D01*
X109038072Y-122900000D01*
X109038072Y-121700000D01*
X109025812Y-121575518D01*
X108989502Y-121455820D01*
X108930537Y-121345506D01*
X108851185Y-121248815D01*
X108754494Y-121169463D01*
X108644180Y-121110498D01*
X108524482Y-121074188D01*
X108400000Y-121061928D01*
X105600000Y-121061928D01*
X105475518Y-121074188D01*
X105355820Y-121110498D01*
X105245506Y-121169463D01*
X105148815Y-121248815D01*
X105069463Y-121345506D01*
X105010498Y-121455820D01*
X104974188Y-121575518D01*
X104961928Y-121700000D01*
X101488072Y-121700000D01*
X101488072Y-120100000D01*
X112511928Y-120100000D01*
X112511928Y-122900000D01*
X112524188Y-123024482D01*
X112560498Y-123144180D01*
X112619463Y-123254494D01*
X112698815Y-123351185D01*
X112795506Y-123430537D01*
X112905820Y-123489502D01*
X113025518Y-123525812D01*
X113150000Y-123538072D01*
X114350000Y-123538072D01*
X114474482Y-123525812D01*
X114594180Y-123489502D01*
X114704494Y-123430537D01*
X114801185Y-123351185D01*
X114880537Y-123254494D01*
X114939502Y-123144180D01*
X114975812Y-123024482D01*
X114988072Y-122900000D01*
X114988072Y-120279872D01*
X152265000Y-120279872D01*
X152265000Y-120720128D01*
X152350890Y-121151925D01*
X152519369Y-121558669D01*
X152763962Y-121924729D01*
X153075271Y-122236038D01*
X153441331Y-122480631D01*
X153848075Y-122649110D01*
X154279872Y-122735000D01*
X154720128Y-122735000D01*
X155151925Y-122649110D01*
X155558669Y-122480631D01*
X155924729Y-122236038D01*
X156236038Y-121924729D01*
X156480631Y-121558669D01*
X156649110Y-121151925D01*
X156735000Y-120720128D01*
X156735000Y-120279872D01*
X156649110Y-119848075D01*
X156480631Y-119441331D01*
X156236038Y-119075271D01*
X155924729Y-118763962D01*
X155558669Y-118519369D01*
X155151925Y-118350890D01*
X154720128Y-118265000D01*
X154279872Y-118265000D01*
X153848075Y-118350890D01*
X153441331Y-118519369D01*
X153075271Y-118763962D01*
X152763962Y-119075271D01*
X152519369Y-119441331D01*
X152350890Y-119848075D01*
X152265000Y-120279872D01*
X114988072Y-120279872D01*
X114988072Y-120100000D01*
X114975812Y-119975518D01*
X114939502Y-119855820D01*
X114880537Y-119745506D01*
X114801185Y-119648815D01*
X114704494Y-119569463D01*
X114594180Y-119510498D01*
X114474482Y-119474188D01*
X114350000Y-119461928D01*
X113150000Y-119461928D01*
X113025518Y-119474188D01*
X112905820Y-119510498D01*
X112795506Y-119569463D01*
X112698815Y-119648815D01*
X112619463Y-119745506D01*
X112560498Y-119855820D01*
X112524188Y-119975518D01*
X112511928Y-120100000D01*
X101488072Y-120100000D01*
X101475812Y-119975518D01*
X101439502Y-119855820D01*
X101380537Y-119745506D01*
X101301185Y-119648815D01*
X101204494Y-119569463D01*
X101094180Y-119510498D01*
X100974482Y-119474188D01*
X100850000Y-119461928D01*
X99650000Y-119461928D01*
X99525518Y-119474188D01*
X99405820Y-119510498D01*
X99295506Y-119569463D01*
X99198815Y-119648815D01*
X99119463Y-119745506D01*
X99060498Y-119855820D01*
X99024188Y-119975518D01*
X99011928Y-120100000D01*
X67699222Y-120100000D01*
X67649110Y-119848075D01*
X67480631Y-119441331D01*
X67236038Y-119075271D01*
X66924729Y-118763962D01*
X66558669Y-118519369D01*
X66151925Y-118350890D01*
X65720128Y-118265000D01*
X65279872Y-118265000D01*
X64848075Y-118350890D01*
X64441331Y-118519369D01*
X64075271Y-118763962D01*
X63763962Y-119075271D01*
X63519369Y-119441331D01*
X63350890Y-119848075D01*
X63265000Y-120279872D01*
X60710000Y-120279872D01*
X60710000Y-70212100D01*
X61347224Y-70212100D01*
X61350901Y-70249432D01*
X61350900Y-82879578D01*
X61347224Y-82916900D01*
X61350900Y-82954222D01*
X61350900Y-82954232D01*
X61361897Y-83065885D01*
X61396535Y-83180074D01*
X61405354Y-83209146D01*
X61475926Y-83341176D01*
X61493837Y-83363000D01*
X61570899Y-83456901D01*
X61599903Y-83480704D01*
X71126357Y-93007160D01*
X71051068Y-93098899D01*
X70917818Y-93348192D01*
X70835764Y-93618691D01*
X70808057Y-93900000D01*
X70835764Y-94181309D01*
X70917818Y-94451808D01*
X71051068Y-94701101D01*
X71230392Y-94919608D01*
X71448899Y-95098932D01*
X71511160Y-95132211D01*
X71500997Y-95165714D01*
X71496058Y-95215861D01*
X71448899Y-95241068D01*
X71230392Y-95420392D01*
X71051068Y-95638899D01*
X70917818Y-95888192D01*
X70835764Y-96158691D01*
X70808057Y-96440000D01*
X70835764Y-96721309D01*
X70917818Y-96991808D01*
X71051068Y-97241101D01*
X71230392Y-97459608D01*
X71448899Y-97638932D01*
X71581858Y-97710000D01*
X71448899Y-97781068D01*
X71230392Y-97960392D01*
X71051068Y-98178899D01*
X70917818Y-98428192D01*
X70835764Y-98698691D01*
X70808057Y-98980000D01*
X70835764Y-99261309D01*
X70917818Y-99531808D01*
X71051068Y-99781101D01*
X71230392Y-99999608D01*
X71448899Y-100178932D01*
X71581858Y-100250000D01*
X71448899Y-100321068D01*
X71230392Y-100500392D01*
X71051068Y-100718899D01*
X70917818Y-100968192D01*
X70835764Y-101238691D01*
X70808057Y-101520000D01*
X70835764Y-101801309D01*
X70917818Y-102071808D01*
X71051068Y-102321101D01*
X71230392Y-102539608D01*
X71448899Y-102718932D01*
X71581858Y-102790000D01*
X71448899Y-102861068D01*
X71230392Y-103040392D01*
X71051068Y-103258899D01*
X70917818Y-103508192D01*
X70835764Y-103778691D01*
X70808057Y-104060000D01*
X70835764Y-104341309D01*
X70917818Y-104611808D01*
X71051068Y-104861101D01*
X71230392Y-105079608D01*
X71448899Y-105258932D01*
X71581858Y-105330000D01*
X71448899Y-105401068D01*
X71230392Y-105580392D01*
X71051068Y-105798899D01*
X70917818Y-106048192D01*
X70835764Y-106318691D01*
X70808057Y-106600000D01*
X70835764Y-106881309D01*
X70917818Y-107151808D01*
X71051068Y-107401101D01*
X71230392Y-107619608D01*
X71448899Y-107798932D01*
X71581858Y-107870000D01*
X71448899Y-107941068D01*
X71230392Y-108120392D01*
X71051068Y-108338899D01*
X70917818Y-108588192D01*
X70835764Y-108858691D01*
X70808057Y-109140000D01*
X70835764Y-109421309D01*
X70917818Y-109691808D01*
X71051068Y-109941101D01*
X71155701Y-110068597D01*
X70613702Y-110610597D01*
X70584699Y-110634399D01*
X70551379Y-110675000D01*
X70489726Y-110750124D01*
X70462096Y-110801816D01*
X70419154Y-110882154D01*
X70375697Y-111025415D01*
X70364700Y-111137068D01*
X70364700Y-111137078D01*
X70361024Y-111174400D01*
X70364700Y-111211723D01*
X70364701Y-114753468D01*
X70361024Y-114790800D01*
X70364701Y-114828133D01*
X70374296Y-114925546D01*
X70375698Y-114939785D01*
X70419154Y-115083046D01*
X70489726Y-115215076D01*
X70554871Y-115294454D01*
X70584700Y-115330801D01*
X70613698Y-115354599D01*
X71126312Y-115867214D01*
X71051068Y-115958899D01*
X70917818Y-116208192D01*
X70835764Y-116478691D01*
X70808057Y-116760000D01*
X70835764Y-117041309D01*
X70917818Y-117311808D01*
X71051068Y-117561101D01*
X71230392Y-117779608D01*
X71448899Y-117958932D01*
X71698192Y-118092182D01*
X71968691Y-118174236D01*
X72179508Y-118195000D01*
X72320492Y-118195000D01*
X72531309Y-118174236D01*
X72801808Y-118092182D01*
X73051101Y-117958932D01*
X73269608Y-117779608D01*
X73448932Y-117561101D01*
X73582182Y-117311808D01*
X73664236Y-117041309D01*
X73691943Y-116760000D01*
X73664236Y-116478691D01*
X73582182Y-116208192D01*
X73448932Y-115958899D01*
X73269608Y-115740392D01*
X73051101Y-115561068D01*
X73003942Y-115535861D01*
X72999003Y-115485714D01*
X72988840Y-115452211D01*
X73051101Y-115418932D01*
X73269608Y-115239608D01*
X73292370Y-115211872D01*
X73940105Y-115859608D01*
X73963899Y-115888601D01*
X73992892Y-115912395D01*
X73992896Y-115912399D01*
X74049557Y-115958899D01*
X74079624Y-115983574D01*
X74211653Y-116054146D01*
X74354914Y-116097603D01*
X74466567Y-116108600D01*
X74466576Y-116108600D01*
X74503899Y-116112276D01*
X74541222Y-116108600D01*
X86211051Y-116108600D01*
X86157818Y-116208192D01*
X86075764Y-116478691D01*
X86048057Y-116760000D01*
X86075764Y-117041309D01*
X86157818Y-117311808D01*
X86291068Y-117561101D01*
X86470392Y-117779608D01*
X86688899Y-117958932D01*
X86938192Y-118092182D01*
X87208691Y-118174236D01*
X87419508Y-118195000D01*
X87560492Y-118195000D01*
X87771309Y-118174236D01*
X88041808Y-118092182D01*
X88291101Y-117958932D01*
X88509608Y-117779608D01*
X88688932Y-117561101D01*
X88822182Y-117311808D01*
X88904236Y-117041309D01*
X88931943Y-116760000D01*
X88904236Y-116478691D01*
X88822182Y-116208192D01*
X88727355Y-116030783D01*
X88815676Y-115983574D01*
X88931401Y-115888601D01*
X88955204Y-115859597D01*
X89142201Y-115672600D01*
X91811928Y-115672600D01*
X91811928Y-117050000D01*
X91824188Y-117174482D01*
X91860498Y-117294180D01*
X91919463Y-117404494D01*
X91998815Y-117501185D01*
X92095506Y-117580537D01*
X92205820Y-117639502D01*
X92325518Y-117675812D01*
X92450000Y-117688072D01*
X94050000Y-117688072D01*
X94174482Y-117675812D01*
X94294180Y-117639502D01*
X94404494Y-117580537D01*
X94501185Y-117501185D01*
X94580537Y-117404494D01*
X94639502Y-117294180D01*
X94675812Y-117174482D01*
X94688072Y-117050000D01*
X94688072Y-115862408D01*
X102203000Y-115862408D01*
X102203000Y-116137592D01*
X102256686Y-116407490D01*
X102361995Y-116661727D01*
X102514880Y-116890535D01*
X102709465Y-117085120D01*
X102938273Y-117238005D01*
X102967231Y-117250000D01*
X102938273Y-117261995D01*
X102709465Y-117414880D01*
X102514880Y-117609465D01*
X102361995Y-117838273D01*
X102256686Y-118092510D01*
X102203000Y-118362408D01*
X102203000Y-118637592D01*
X102256686Y-118907490D01*
X102361995Y-119161727D01*
X102514880Y-119390535D01*
X102709465Y-119585120D01*
X102938273Y-119738005D01*
X103192510Y-119843314D01*
X103462408Y-119897000D01*
X103737592Y-119897000D01*
X104007490Y-119843314D01*
X104261727Y-119738005D01*
X104490535Y-119585120D01*
X104650000Y-119425655D01*
X104809465Y-119585120D01*
X105038273Y-119738005D01*
X105292510Y-119843314D01*
X105562408Y-119897000D01*
X105837592Y-119897000D01*
X106107490Y-119843314D01*
X106361727Y-119738005D01*
X106590535Y-119585120D01*
X106785120Y-119390535D01*
X106938005Y-119161727D01*
X107000000Y-119012059D01*
X107061995Y-119161727D01*
X107214880Y-119390535D01*
X107409465Y-119585120D01*
X107638273Y-119738005D01*
X107892510Y-119843314D01*
X108162408Y-119897000D01*
X108437592Y-119897000D01*
X108707490Y-119843314D01*
X108961727Y-119738005D01*
X109190535Y-119585120D01*
X109310090Y-119465565D01*
X109614040Y-119465565D01*
X109681020Y-119705656D01*
X109930048Y-119822756D01*
X110197135Y-119889023D01*
X110472017Y-119901910D01*
X110744133Y-119860922D01*
X111003023Y-119767636D01*
X111118980Y-119705656D01*
X111185960Y-119465565D01*
X110400000Y-118679605D01*
X109614040Y-119465565D01*
X109310090Y-119465565D01*
X109385120Y-119390535D01*
X109496396Y-119223999D01*
X110220395Y-118500000D01*
X110579605Y-118500000D01*
X111365565Y-119285960D01*
X111605656Y-119218980D01*
X111722756Y-118969952D01*
X111789023Y-118702865D01*
X111801910Y-118427983D01*
X111760922Y-118155867D01*
X111667636Y-117896977D01*
X111605656Y-117781020D01*
X111365565Y-117714040D01*
X110579605Y-118500000D01*
X110220395Y-118500000D01*
X109496396Y-117776001D01*
X109385120Y-117609465D01*
X109190535Y-117414880D01*
X108961727Y-117261995D01*
X108707490Y-117156686D01*
X108437592Y-117103000D01*
X108162408Y-117103000D01*
X107892510Y-117156686D01*
X107638273Y-117261995D01*
X107409465Y-117414880D01*
X107214880Y-117609465D01*
X107061995Y-117838273D01*
X107000000Y-117987941D01*
X106938005Y-117838273D01*
X106785120Y-117609465D01*
X106590535Y-117414880D01*
X106361727Y-117261995D01*
X106107490Y-117156686D01*
X105837592Y-117103000D01*
X105562408Y-117103000D01*
X105292510Y-117156686D01*
X105038273Y-117261995D01*
X104809465Y-117414880D01*
X104650000Y-117574345D01*
X104490535Y-117414880D01*
X104261727Y-117261995D01*
X104232769Y-117250000D01*
X104261727Y-117238005D01*
X104490535Y-117085120D01*
X104685120Y-116890535D01*
X104838005Y-116661727D01*
X104943314Y-116407490D01*
X104997000Y-116137592D01*
X104997000Y-115862408D01*
X109003000Y-115862408D01*
X109003000Y-116137592D01*
X109056686Y-116407490D01*
X109161995Y-116661727D01*
X109314880Y-116890535D01*
X109509465Y-117085120D01*
X109738273Y-117238005D01*
X109765401Y-117249242D01*
X109681020Y-117294344D01*
X109614040Y-117534435D01*
X110400000Y-118320395D01*
X111185960Y-117534435D01*
X111118980Y-117294344D01*
X111028467Y-117251782D01*
X111061727Y-117238005D01*
X111290535Y-117085120D01*
X111485120Y-116890535D01*
X111638005Y-116661727D01*
X111743314Y-116407490D01*
X111797000Y-116137592D01*
X111797000Y-115862408D01*
X111743314Y-115592510D01*
X111638005Y-115338273D01*
X111485120Y-115109465D01*
X111290535Y-114914880D01*
X111061727Y-114761995D01*
X110807490Y-114656686D01*
X110537592Y-114603000D01*
X110262408Y-114603000D01*
X109992510Y-114656686D01*
X109738273Y-114761995D01*
X109509465Y-114914880D01*
X109314880Y-115109465D01*
X109161995Y-115338273D01*
X109056686Y-115592510D01*
X109003000Y-115862408D01*
X104997000Y-115862408D01*
X104943314Y-115592510D01*
X104838005Y-115338273D01*
X104685120Y-115109465D01*
X104490535Y-114914880D01*
X104261727Y-114761995D01*
X104007490Y-114656686D01*
X103737592Y-114603000D01*
X103462408Y-114603000D01*
X103192510Y-114656686D01*
X102938273Y-114761995D01*
X102709465Y-114914880D01*
X102514880Y-115109465D01*
X102361995Y-115338273D01*
X102256686Y-115592510D01*
X102203000Y-115862408D01*
X94688072Y-115862408D01*
X94688072Y-115450000D01*
X94675812Y-115325518D01*
X94639502Y-115205820D01*
X94580537Y-115095506D01*
X94573802Y-115087299D01*
X94915704Y-114745398D01*
X94944701Y-114721601D01*
X94983971Y-114673750D01*
X95039674Y-114605877D01*
X95110246Y-114473847D01*
X95132162Y-114401598D01*
X95153703Y-114330586D01*
X95164700Y-114218933D01*
X95164700Y-114218924D01*
X95168376Y-114181601D01*
X95164700Y-114144278D01*
X95164700Y-111930000D01*
X97807378Y-111930000D01*
X97844700Y-111933676D01*
X97882022Y-111930000D01*
X97882033Y-111930000D01*
X97993686Y-111919003D01*
X98136947Y-111875546D01*
X98268976Y-111804974D01*
X98384701Y-111710001D01*
X98408504Y-111680997D01*
X107827630Y-102261872D01*
X107850392Y-102289608D01*
X108068899Y-102468932D01*
X108318192Y-102602182D01*
X108588691Y-102684236D01*
X108799508Y-102705000D01*
X108940492Y-102705000D01*
X109151309Y-102684236D01*
X109421808Y-102602182D01*
X109671101Y-102468932D01*
X109889608Y-102289608D01*
X110068932Y-102071101D01*
X110202182Y-101821808D01*
X110284236Y-101551309D01*
X110311943Y-101270000D01*
X110284236Y-100988691D01*
X110202182Y-100718192D01*
X110068932Y-100468899D01*
X109889608Y-100250392D01*
X109671101Y-100071068D01*
X109538142Y-100000000D01*
X109671101Y-99928932D01*
X109889608Y-99749608D01*
X110068932Y-99531101D01*
X110202182Y-99281808D01*
X110284236Y-99011309D01*
X110311943Y-98730000D01*
X110284236Y-98448691D01*
X110202182Y-98178192D01*
X110068932Y-97928899D01*
X109889608Y-97710392D01*
X109671101Y-97531068D01*
X109538142Y-97460000D01*
X109671101Y-97388932D01*
X109889608Y-97209608D01*
X110068932Y-96991101D01*
X110202182Y-96741808D01*
X110284236Y-96471309D01*
X110311943Y-96190000D01*
X110284236Y-95908691D01*
X110202182Y-95638192D01*
X110068932Y-95388899D01*
X109993643Y-95297159D01*
X110508204Y-94782598D01*
X110537201Y-94758801D01*
X110632174Y-94643076D01*
X110702746Y-94511047D01*
X110746203Y-94367786D01*
X110757200Y-94256133D01*
X110757200Y-94256124D01*
X110760876Y-94218801D01*
X110757200Y-94181478D01*
X110757200Y-88115723D01*
X110760876Y-88078400D01*
X110757200Y-88041077D01*
X110757200Y-88041067D01*
X110746203Y-87929414D01*
X110702746Y-87786153D01*
X110632174Y-87654124D01*
X110537201Y-87538399D01*
X110508202Y-87514601D01*
X109958844Y-86965243D01*
X110068932Y-86831101D01*
X110202182Y-86581808D01*
X110284236Y-86311309D01*
X110311943Y-86030000D01*
X110284236Y-85748691D01*
X110202182Y-85478192D01*
X110068932Y-85228899D01*
X109889608Y-85010392D01*
X109671101Y-84831068D01*
X109533318Y-84757421D01*
X109725131Y-84642385D01*
X109933519Y-84453414D01*
X110101037Y-84227420D01*
X110221246Y-83973087D01*
X110261904Y-83839039D01*
X110139915Y-83617000D01*
X108997000Y-83617000D01*
X108997000Y-83637000D01*
X108743000Y-83637000D01*
X108743000Y-83617000D01*
X108723000Y-83617000D01*
X108723000Y-83363000D01*
X108743000Y-83363000D01*
X108743000Y-83343000D01*
X108997000Y-83343000D01*
X108997000Y-83363000D01*
X110139915Y-83363000D01*
X110261904Y-83140961D01*
X110221246Y-83006913D01*
X110208526Y-82980000D01*
X110518578Y-82980000D01*
X110555900Y-82983676D01*
X110593222Y-82980000D01*
X110593233Y-82980000D01*
X110704886Y-82969003D01*
X110848147Y-82925546D01*
X110980176Y-82854974D01*
X111095901Y-82760001D01*
X111119704Y-82730997D01*
X116114929Y-77735773D01*
X116158645Y-77775178D01*
X116408748Y-77924157D01*
X116683109Y-78021481D01*
X116913000Y-77900814D01*
X116913000Y-76707000D01*
X117167000Y-76707000D01*
X117167000Y-77900814D01*
X117396891Y-78021481D01*
X117671252Y-77924157D01*
X117921355Y-77775178D01*
X118137588Y-77580269D01*
X118311641Y-77346920D01*
X118436825Y-77084099D01*
X118481476Y-76936890D01*
X118360155Y-76707000D01*
X117167000Y-76707000D01*
X116913000Y-76707000D01*
X116893000Y-76707000D01*
X116893000Y-76453000D01*
X116913000Y-76453000D01*
X116913000Y-76433000D01*
X117167000Y-76433000D01*
X117167000Y-76453000D01*
X118360155Y-76453000D01*
X118481476Y-76223110D01*
X118436825Y-76075901D01*
X118311641Y-75813080D01*
X118137588Y-75579731D01*
X117921355Y-75384822D01*
X117804477Y-75315201D01*
X117869014Y-75280706D01*
X118095134Y-75095134D01*
X118280706Y-74869014D01*
X118418599Y-74611034D01*
X118503513Y-74331111D01*
X118532185Y-74040000D01*
X118503513Y-73748889D01*
X118418599Y-73468966D01*
X118280706Y-73210986D01*
X118095134Y-72984866D01*
X117869014Y-72799294D01*
X117814209Y-72770000D01*
X117869014Y-72740706D01*
X118095134Y-72555134D01*
X118280706Y-72329014D01*
X118418599Y-72071034D01*
X118503513Y-71791111D01*
X118532185Y-71500000D01*
X118503513Y-71208889D01*
X118418599Y-70928966D01*
X118280706Y-70670986D01*
X118209893Y-70584700D01*
X122261928Y-70584700D01*
X122261928Y-71850000D01*
X122274188Y-71974482D01*
X122310498Y-72094180D01*
X122369463Y-72204494D01*
X122448815Y-72301185D01*
X122545506Y-72380537D01*
X122655820Y-72439502D01*
X122724687Y-72460393D01*
X122694866Y-72484866D01*
X122509294Y-72710986D01*
X122371401Y-72968966D01*
X122286487Y-73248889D01*
X122257815Y-73540000D01*
X122286487Y-73831111D01*
X122371401Y-74111034D01*
X122509294Y-74369014D01*
X122694866Y-74595134D01*
X122920986Y-74780706D01*
X122975791Y-74810000D01*
X122920986Y-74839294D01*
X122694866Y-75024866D01*
X122509294Y-75250986D01*
X122371401Y-75508966D01*
X122286487Y-75788889D01*
X122257815Y-76080000D01*
X122286487Y-76371111D01*
X122371401Y-76651034D01*
X122509294Y-76909014D01*
X122694866Y-77135134D01*
X122920986Y-77320706D01*
X122975791Y-77350000D01*
X122920986Y-77379294D01*
X122694866Y-77564866D01*
X122509294Y-77790986D01*
X122371401Y-78048966D01*
X122286487Y-78328889D01*
X122257815Y-78620000D01*
X122286487Y-78911111D01*
X122371401Y-79191034D01*
X122509294Y-79449014D01*
X122694866Y-79675134D01*
X122920986Y-79860706D01*
X123178966Y-79998599D01*
X123458889Y-80083513D01*
X123677050Y-80105000D01*
X123822950Y-80105000D01*
X124041111Y-80083513D01*
X124321034Y-79998599D01*
X124579014Y-79860706D01*
X124658540Y-79795441D01*
X125169401Y-80306302D01*
X125193199Y-80335301D01*
X125222197Y-80359099D01*
X125308923Y-80430274D01*
X125440953Y-80500846D01*
X125584214Y-80544303D01*
X125695867Y-80555300D01*
X125695876Y-80555300D01*
X125733199Y-80558976D01*
X125770522Y-80555300D01*
X129777799Y-80555300D01*
X134388205Y-85165708D01*
X134411999Y-85194701D01*
X134440992Y-85218495D01*
X134440996Y-85218499D01*
X134502529Y-85268997D01*
X134527724Y-85289674D01*
X134659753Y-85360246D01*
X134803014Y-85403703D01*
X134914667Y-85414700D01*
X134914676Y-85414700D01*
X134951999Y-85418376D01*
X134989322Y-85414700D01*
X140363028Y-85414700D01*
X140358096Y-85430961D01*
X140480085Y-85653000D01*
X141623000Y-85653000D01*
X141623000Y-85633000D01*
X141877000Y-85633000D01*
X141877000Y-85653000D01*
X143019915Y-85653000D01*
X143141904Y-85430961D01*
X143136972Y-85414700D01*
X146804599Y-85414700D01*
X147680901Y-86291003D01*
X147704699Y-86320001D01*
X147820424Y-86414974D01*
X147952453Y-86485546D01*
X148095714Y-86529003D01*
X148145861Y-86533942D01*
X148171068Y-86581101D01*
X148350392Y-86799608D01*
X148568899Y-86978932D01*
X148647673Y-87021037D01*
X144885511Y-90783200D01*
X134778035Y-90783200D01*
X134732100Y-90778676D01*
X134548808Y-90796728D01*
X134372559Y-90850193D01*
X134348603Y-90862998D01*
X134210128Y-90937014D01*
X134067756Y-91053856D01*
X134038476Y-91089534D01*
X132157531Y-92970480D01*
X131951101Y-92801068D01*
X131701808Y-92667818D01*
X131431309Y-92585764D01*
X131220492Y-92565000D01*
X131079508Y-92565000D01*
X131040000Y-92568891D01*
X131040000Y-92105680D01*
X131043996Y-92107571D01*
X131318184Y-92176300D01*
X131600512Y-92190217D01*
X131880130Y-92148787D01*
X132146292Y-92053603D01*
X132271514Y-91986671D01*
X132343097Y-91742702D01*
X131530000Y-90929605D01*
X131515858Y-90943748D01*
X131336253Y-90764143D01*
X131350395Y-90750000D01*
X131709605Y-90750000D01*
X132522702Y-91563097D01*
X132766671Y-91491514D01*
X132887571Y-91236004D01*
X132956300Y-90961816D01*
X132970217Y-90679488D01*
X132928787Y-90399870D01*
X132833603Y-90133708D01*
X132766671Y-90008486D01*
X132522702Y-89936903D01*
X131709605Y-90750000D01*
X131350395Y-90750000D01*
X131336253Y-90735858D01*
X131515858Y-90556253D01*
X131530000Y-90570395D01*
X132343097Y-89757298D01*
X132271514Y-89513329D01*
X132016004Y-89392429D01*
X131741816Y-89323700D01*
X131459488Y-89309783D01*
X131179870Y-89351213D01*
X131040000Y-89401233D01*
X131040000Y-87540101D01*
X131841003Y-86739099D01*
X131870001Y-86715301D01*
X131964974Y-86599576D01*
X132035546Y-86467547D01*
X132079003Y-86324286D01*
X132083246Y-86281205D01*
X132159014Y-86240706D01*
X132295080Y-86129039D01*
X140358096Y-86129039D01*
X140398754Y-86263087D01*
X140518963Y-86517420D01*
X140686481Y-86743414D01*
X140894869Y-86932385D01*
X141136119Y-87077070D01*
X141400960Y-87171909D01*
X141623000Y-87050624D01*
X141623000Y-85907000D01*
X141877000Y-85907000D01*
X141877000Y-87050624D01*
X142099040Y-87171909D01*
X142363881Y-87077070D01*
X142605131Y-86932385D01*
X142813519Y-86743414D01*
X142981037Y-86517420D01*
X143101246Y-86263087D01*
X143141904Y-86129039D01*
X143019915Y-85907000D01*
X141877000Y-85907000D01*
X141623000Y-85907000D01*
X140480085Y-85907000D01*
X140358096Y-86129039D01*
X132295080Y-86129039D01*
X132385134Y-86055134D01*
X132570706Y-85829014D01*
X132708599Y-85571034D01*
X132793513Y-85291111D01*
X132822185Y-85000000D01*
X132793513Y-84708889D01*
X132708599Y-84428966D01*
X132570706Y-84170986D01*
X132385134Y-83944866D01*
X132159014Y-83759294D01*
X131901034Y-83621401D01*
X131621111Y-83536487D01*
X131402950Y-83515000D01*
X131257050Y-83515000D01*
X131038889Y-83536487D01*
X130758966Y-83621401D01*
X130500986Y-83759294D01*
X130274866Y-83944866D01*
X130089294Y-84170986D01*
X130060000Y-84225791D01*
X130030706Y-84170986D01*
X129845134Y-83944866D01*
X129619014Y-83759294D01*
X129361034Y-83621401D01*
X129081111Y-83536487D01*
X128862950Y-83515000D01*
X128717050Y-83515000D01*
X128498889Y-83536487D01*
X128218966Y-83621401D01*
X127960986Y-83759294D01*
X127734866Y-83944866D01*
X127710393Y-83974687D01*
X127689502Y-83905820D01*
X127630537Y-83795506D01*
X127551185Y-83698815D01*
X127454494Y-83619463D01*
X127344180Y-83560498D01*
X127224482Y-83524188D01*
X127100000Y-83511928D01*
X125400000Y-83511928D01*
X125275518Y-83524188D01*
X125155820Y-83560498D01*
X125045506Y-83619463D01*
X124948815Y-83698815D01*
X124869463Y-83795506D01*
X124810498Y-83905820D01*
X124774188Y-84025518D01*
X124761928Y-84150000D01*
X124761928Y-85850000D01*
X124774188Y-85974482D01*
X124810498Y-86094180D01*
X124869463Y-86204494D01*
X124948815Y-86301185D01*
X125045506Y-86380537D01*
X125155820Y-86439502D01*
X125275518Y-86475812D01*
X125400000Y-86488072D01*
X127100000Y-86488072D01*
X127224482Y-86475812D01*
X127344180Y-86439502D01*
X127454494Y-86380537D01*
X127551185Y-86301185D01*
X127630537Y-86204494D01*
X127689502Y-86094180D01*
X127710393Y-86025313D01*
X127734866Y-86055134D01*
X127960986Y-86240706D01*
X128218966Y-86378599D01*
X128498889Y-86463513D01*
X128717050Y-86485000D01*
X128862950Y-86485000D01*
X129081111Y-86463513D01*
X129361034Y-86378599D01*
X129619014Y-86240706D01*
X129845134Y-86055134D01*
X130030706Y-85829014D01*
X130060000Y-85774209D01*
X130089294Y-85829014D01*
X130274866Y-86055134D01*
X130330064Y-86100434D01*
X129768998Y-86661501D01*
X129740000Y-86685299D01*
X129716202Y-86714297D01*
X129716201Y-86714298D01*
X129645026Y-86801024D01*
X129574454Y-86933054D01*
X129556361Y-86992702D01*
X129530998Y-87076314D01*
X129520001Y-87187967D01*
X129516324Y-87225300D01*
X129520001Y-87262632D01*
X129520001Y-89399733D01*
X129448574Y-89370147D01*
X129171335Y-89315000D01*
X128888665Y-89315000D01*
X128611426Y-89370147D01*
X128350273Y-89478320D01*
X128115241Y-89635363D01*
X127935604Y-89815000D01*
X118795931Y-89815000D01*
X118749999Y-89810476D01*
X118566707Y-89828529D01*
X118544581Y-89835241D01*
X118390460Y-89881993D01*
X118228028Y-89968814D01*
X118085656Y-90085656D01*
X118056374Y-90121336D01*
X114862711Y-93315000D01*
X114608665Y-93315000D01*
X114331426Y-93370147D01*
X114070273Y-93478320D01*
X113835241Y-93635363D01*
X113635363Y-93835241D01*
X113478320Y-94070273D01*
X113370147Y-94331426D01*
X113315000Y-94608665D01*
X113315000Y-94891335D01*
X113370147Y-95168574D01*
X113478320Y-95429727D01*
X113635363Y-95664759D01*
X113835241Y-95864637D01*
X114070273Y-96021680D01*
X114331426Y-96129853D01*
X114608665Y-96185000D01*
X114891335Y-96185000D01*
X115168574Y-96129853D01*
X115429727Y-96021680D01*
X115664759Y-95864637D01*
X115864637Y-95664759D01*
X116021680Y-95429727D01*
X116129853Y-95168574D01*
X116185000Y-94891335D01*
X116185000Y-94637289D01*
X119137290Y-91685000D01*
X127935604Y-91685000D01*
X128115241Y-91864637D01*
X128350273Y-92021680D01*
X128611426Y-92129853D01*
X128888665Y-92185000D01*
X129171335Y-92185000D01*
X129448574Y-92129853D01*
X129520000Y-92100267D01*
X129520000Y-92963599D01*
X129499098Y-92984501D01*
X129470100Y-93008299D01*
X129446302Y-93037297D01*
X129446301Y-93037298D01*
X129375126Y-93124024D01*
X129304554Y-93256054D01*
X129280408Y-93335656D01*
X129261098Y-93399314D01*
X129253127Y-93480245D01*
X129246424Y-93548300D01*
X129250101Y-93585632D01*
X129250100Y-99550277D01*
X129246424Y-99587600D01*
X129250100Y-99624922D01*
X129250100Y-99624932D01*
X129261097Y-99736585D01*
X129292163Y-99838996D01*
X129304554Y-99879846D01*
X129375126Y-100011876D01*
X129412777Y-100057753D01*
X129470099Y-100127601D01*
X129499102Y-100151403D01*
X130048218Y-100700521D01*
X129951068Y-100818899D01*
X129929099Y-100860000D01*
X124750901Y-100860000D01*
X124728932Y-100818899D01*
X124549608Y-100600392D01*
X124331101Y-100421068D01*
X124198142Y-100350000D01*
X124331101Y-100278932D01*
X124549608Y-100099608D01*
X124728932Y-99881101D01*
X124862182Y-99631808D01*
X124944236Y-99361309D01*
X124971943Y-99080000D01*
X124944236Y-98798691D01*
X124862182Y-98528192D01*
X124728932Y-98278899D01*
X124549608Y-98060392D01*
X124331101Y-97881068D01*
X124198142Y-97810000D01*
X124331101Y-97738932D01*
X124549608Y-97559608D01*
X124728932Y-97341101D01*
X124862182Y-97091808D01*
X124944236Y-96821309D01*
X124971943Y-96540000D01*
X124944236Y-96258691D01*
X124862182Y-95988192D01*
X124728932Y-95738899D01*
X124549608Y-95520392D01*
X124436518Y-95427581D01*
X124454482Y-95425812D01*
X124574180Y-95389502D01*
X124684494Y-95330537D01*
X124781185Y-95251185D01*
X124860537Y-95154494D01*
X124919502Y-95044180D01*
X124955812Y-94924482D01*
X124968072Y-94800000D01*
X124968072Y-93200000D01*
X124955812Y-93075518D01*
X124919502Y-92955820D01*
X124860537Y-92845506D01*
X124781185Y-92748815D01*
X124684494Y-92669463D01*
X124574180Y-92610498D01*
X124454482Y-92574188D01*
X124330000Y-92561928D01*
X122730000Y-92561928D01*
X122605518Y-92574188D01*
X122485820Y-92610498D01*
X122375506Y-92669463D01*
X122278815Y-92748815D01*
X122199463Y-92845506D01*
X122140498Y-92955820D01*
X122104188Y-93075518D01*
X122091928Y-93200000D01*
X122091928Y-94800000D01*
X122104188Y-94924482D01*
X122140498Y-95044180D01*
X122199463Y-95154494D01*
X122278815Y-95251185D01*
X122375506Y-95330537D01*
X122485820Y-95389502D01*
X122605518Y-95425812D01*
X122623482Y-95427581D01*
X122510392Y-95520392D01*
X122331068Y-95738899D01*
X122197818Y-95988192D01*
X122115764Y-96258691D01*
X122088057Y-96540000D01*
X122115764Y-96821309D01*
X122197818Y-97091808D01*
X122331068Y-97341101D01*
X122510392Y-97559608D01*
X122728899Y-97738932D01*
X122861858Y-97810000D01*
X122728899Y-97881068D01*
X122510392Y-98060392D01*
X122331068Y-98278899D01*
X122197818Y-98528192D01*
X122115764Y-98798691D01*
X122088057Y-99080000D01*
X122115764Y-99361309D01*
X122197818Y-99631808D01*
X122331068Y-99881101D01*
X122510392Y-100099608D01*
X122728899Y-100278932D01*
X122861858Y-100350000D01*
X122728899Y-100421068D01*
X122510392Y-100600392D01*
X122331068Y-100818899D01*
X122197818Y-101068192D01*
X122115764Y-101338691D01*
X122088057Y-101620000D01*
X122115764Y-101901309D01*
X122197818Y-102171808D01*
X122331068Y-102421101D01*
X122510392Y-102639608D01*
X122728899Y-102818932D01*
X122861858Y-102890000D01*
X122728899Y-102961068D01*
X122510392Y-103140392D01*
X122331068Y-103358899D01*
X122197818Y-103608192D01*
X122115764Y-103878691D01*
X122088057Y-104160000D01*
X122115764Y-104441309D01*
X122197818Y-104711808D01*
X122331068Y-104961101D01*
X122510392Y-105179608D01*
X122728899Y-105358932D01*
X122861858Y-105430000D01*
X122728899Y-105501068D01*
X122510392Y-105680392D01*
X122331068Y-105898899D01*
X122197818Y-106148192D01*
X122115764Y-106418691D01*
X122088057Y-106700000D01*
X122115764Y-106981309D01*
X122197818Y-107251808D01*
X122331068Y-107501101D01*
X122510392Y-107719608D01*
X122728899Y-107898932D01*
X122866682Y-107972579D01*
X122674869Y-108087615D01*
X122466481Y-108276586D01*
X122298963Y-108502580D01*
X122275989Y-108551187D01*
X112390800Y-98665999D01*
X112390800Y-84616911D01*
X112417711Y-84590000D01*
X113308057Y-84590000D01*
X113335764Y-84871309D01*
X113417818Y-85141808D01*
X113551068Y-85391101D01*
X113730392Y-85609608D01*
X113948899Y-85788932D01*
X114198192Y-85922182D01*
X114468691Y-86004236D01*
X114679508Y-86025000D01*
X114820492Y-86025000D01*
X115031309Y-86004236D01*
X115301808Y-85922182D01*
X115551101Y-85788932D01*
X115769608Y-85609608D01*
X115948932Y-85391101D01*
X116082182Y-85141808D01*
X116164236Y-84871309D01*
X116191943Y-84590000D01*
X116164236Y-84308691D01*
X116082182Y-84038192D01*
X115948932Y-83788899D01*
X115769608Y-83570392D01*
X115551101Y-83391068D01*
X115301808Y-83257818D01*
X115031309Y-83175764D01*
X114820492Y-83155000D01*
X114679508Y-83155000D01*
X114468691Y-83175764D01*
X114198192Y-83257818D01*
X113948899Y-83391068D01*
X113730392Y-83570392D01*
X113551068Y-83788899D01*
X113417818Y-84038192D01*
X113335764Y-84308691D01*
X113308057Y-84590000D01*
X112417711Y-84590000D01*
X112434737Y-84572974D01*
X112548005Y-84403456D01*
X112626026Y-84215098D01*
X112665800Y-84015139D01*
X112665800Y-83811261D01*
X112626026Y-83611302D01*
X112548005Y-83422944D01*
X112434737Y-83253426D01*
X112290574Y-83109263D01*
X112121056Y-82995995D01*
X111932698Y-82917974D01*
X111732739Y-82878200D01*
X111528861Y-82878200D01*
X111328902Y-82917974D01*
X111140544Y-82995995D01*
X110971026Y-83109263D01*
X110826863Y-83253426D01*
X110713595Y-83422944D01*
X110635574Y-83611302D01*
X110595800Y-83811261D01*
X110595800Y-84015139D01*
X110635574Y-84215098D01*
X110713595Y-84403456D01*
X110826863Y-84572974D01*
X110870800Y-84616911D01*
X110870801Y-98943467D01*
X110867124Y-98980800D01*
X110870801Y-99018133D01*
X110881798Y-99129786D01*
X110894980Y-99173242D01*
X110925254Y-99273046D01*
X110995826Y-99405076D01*
X111065522Y-99490000D01*
X111090800Y-99520801D01*
X111119798Y-99544599D01*
X126106054Y-114530857D01*
X126048889Y-114536487D01*
X125768966Y-114621401D01*
X125510986Y-114759294D01*
X125284866Y-114944866D01*
X125099294Y-115170986D01*
X125070000Y-115225791D01*
X125040706Y-115170986D01*
X124855134Y-114944866D01*
X124629014Y-114759294D01*
X124371034Y-114621401D01*
X124091111Y-114536487D01*
X123872950Y-114515000D01*
X123727050Y-114515000D01*
X123508889Y-114536487D01*
X123228966Y-114621401D01*
X122970986Y-114759294D01*
X122744866Y-114944866D01*
X122559294Y-115170986D01*
X122421401Y-115428966D01*
X122336487Y-115708889D01*
X122307815Y-116000000D01*
X122336487Y-116291111D01*
X122421401Y-116571034D01*
X122559294Y-116829014D01*
X122744866Y-117055134D01*
X122970986Y-117240706D01*
X123228966Y-117378599D01*
X123508889Y-117463513D01*
X123727050Y-117485000D01*
X123872950Y-117485000D01*
X124091111Y-117463513D01*
X124371034Y-117378599D01*
X124629014Y-117240706D01*
X124855134Y-117055134D01*
X125040706Y-116829014D01*
X125070000Y-116774209D01*
X125099294Y-116829014D01*
X125284866Y-117055134D01*
X125510986Y-117240706D01*
X125768966Y-117378599D01*
X126048889Y-117463513D01*
X126267050Y-117485000D01*
X126412950Y-117485000D01*
X126631111Y-117463513D01*
X126911034Y-117378599D01*
X127169014Y-117240706D01*
X127395134Y-117055134D01*
X127580706Y-116829014D01*
X127610000Y-116774209D01*
X127639294Y-116829014D01*
X127824866Y-117055134D01*
X128050986Y-117240706D01*
X128308966Y-117378599D01*
X128588889Y-117463513D01*
X128807050Y-117485000D01*
X128952950Y-117485000D01*
X129171111Y-117463513D01*
X129451034Y-117378599D01*
X129709014Y-117240706D01*
X129935134Y-117055134D01*
X130120706Y-116829014D01*
X130150000Y-116774209D01*
X130179294Y-116829014D01*
X130364866Y-117055134D01*
X130590986Y-117240706D01*
X130848966Y-117378599D01*
X131128889Y-117463513D01*
X131347050Y-117485000D01*
X131492950Y-117485000D01*
X131711111Y-117463513D01*
X131991034Y-117378599D01*
X132249014Y-117240706D01*
X132475134Y-117055134D01*
X132660706Y-116829014D01*
X132690000Y-116774209D01*
X132719294Y-116829014D01*
X132904866Y-117055134D01*
X133130986Y-117240706D01*
X133388966Y-117378599D01*
X133668889Y-117463513D01*
X133887050Y-117485000D01*
X134032950Y-117485000D01*
X134251111Y-117463513D01*
X134531034Y-117378599D01*
X134789014Y-117240706D01*
X135015134Y-117055134D01*
X135039607Y-117025313D01*
X135060498Y-117094180D01*
X135119463Y-117204494D01*
X135198815Y-117301185D01*
X135295506Y-117380537D01*
X135405820Y-117439502D01*
X135525518Y-117475812D01*
X135650000Y-117488072D01*
X136214250Y-117485000D01*
X136373000Y-117326250D01*
X136373000Y-116127000D01*
X136627000Y-116127000D01*
X136627000Y-117326250D01*
X136785750Y-117485000D01*
X137350000Y-117488072D01*
X137474482Y-117475812D01*
X137594180Y-117439502D01*
X137704494Y-117380537D01*
X137801185Y-117301185D01*
X137880537Y-117204494D01*
X137939502Y-117094180D01*
X137975812Y-116974482D01*
X137988072Y-116850000D01*
X137985000Y-116285750D01*
X137826250Y-116127000D01*
X136627000Y-116127000D01*
X136373000Y-116127000D01*
X136353000Y-116127000D01*
X136353000Y-115873000D01*
X136373000Y-115873000D01*
X136373000Y-114673750D01*
X136627000Y-114673750D01*
X136627000Y-115873000D01*
X137826250Y-115873000D01*
X137985000Y-115714250D01*
X137988072Y-115150000D01*
X137975812Y-115025518D01*
X137939502Y-114905820D01*
X137880537Y-114795506D01*
X137801185Y-114698815D01*
X137704494Y-114619463D01*
X137594180Y-114560498D01*
X137474482Y-114524188D01*
X137350000Y-114511928D01*
X136785750Y-114515000D01*
X136627000Y-114673750D01*
X136373000Y-114673750D01*
X136214250Y-114515000D01*
X135650000Y-114511928D01*
X135525518Y-114524188D01*
X135405820Y-114560498D01*
X135295506Y-114619463D01*
X135198815Y-114698815D01*
X135119463Y-114795506D01*
X135060498Y-114905820D01*
X135039607Y-114974687D01*
X135015134Y-114944866D01*
X134789014Y-114759294D01*
X134531034Y-114621401D01*
X134251111Y-114536487D01*
X134032950Y-114515000D01*
X133887050Y-114515000D01*
X133668889Y-114536487D01*
X133388966Y-114621401D01*
X133130986Y-114759294D01*
X132904866Y-114944866D01*
X132719294Y-115170986D01*
X132690000Y-115225791D01*
X132660706Y-115170986D01*
X132475134Y-114944866D01*
X132249014Y-114759294D01*
X131991034Y-114621401D01*
X131711111Y-114536487D01*
X131492950Y-114515000D01*
X131347050Y-114515000D01*
X131128889Y-114536487D01*
X130848966Y-114621401D01*
X130590986Y-114759294D01*
X130364866Y-114944866D01*
X130179294Y-115170986D01*
X130150000Y-115225791D01*
X130120706Y-115170986D01*
X129935134Y-114944866D01*
X129709014Y-114759294D01*
X129451034Y-114621401D01*
X129171111Y-114536487D01*
X128952950Y-114515000D01*
X128807050Y-114515000D01*
X128588889Y-114536487D01*
X128327624Y-114615741D01*
X128305350Y-114588600D01*
X128268499Y-114543696D01*
X128268495Y-114543692D01*
X128244701Y-114514699D01*
X128215710Y-114490907D01*
X125307505Y-111582702D01*
X137776903Y-111582702D01*
X137848486Y-111826671D01*
X138103996Y-111947571D01*
X138378184Y-112016300D01*
X138660512Y-112030217D01*
X138940130Y-111988787D01*
X139206292Y-111893603D01*
X139331514Y-111826671D01*
X139403097Y-111582702D01*
X138590000Y-110769605D01*
X137776903Y-111582702D01*
X125307505Y-111582702D01*
X124217638Y-110492836D01*
X124385131Y-110392385D01*
X124593519Y-110203414D01*
X124761037Y-109977420D01*
X124881246Y-109723087D01*
X124921904Y-109589039D01*
X124799915Y-109367000D01*
X123657000Y-109367000D01*
X123657000Y-109387000D01*
X123403000Y-109387000D01*
X123403000Y-109367000D01*
X123383000Y-109367000D01*
X123383000Y-109113000D01*
X123403000Y-109113000D01*
X123403000Y-109093000D01*
X123657000Y-109093000D01*
X123657000Y-109113000D01*
X124799915Y-109113000D01*
X124921904Y-108890961D01*
X124881246Y-108756913D01*
X124761037Y-108502580D01*
X124593519Y-108276586D01*
X124385131Y-108087615D01*
X124193318Y-107972579D01*
X124331101Y-107898932D01*
X124549608Y-107719608D01*
X124728932Y-107501101D01*
X124862182Y-107251808D01*
X124944236Y-106981309D01*
X124971943Y-106700000D01*
X124944236Y-106418691D01*
X124862182Y-106148192D01*
X124728932Y-105898899D01*
X124549608Y-105680392D01*
X124331101Y-105501068D01*
X124198142Y-105430000D01*
X124331101Y-105358932D01*
X124549608Y-105179608D01*
X124728932Y-104961101D01*
X124862182Y-104711808D01*
X124944236Y-104441309D01*
X124971943Y-104160000D01*
X124944236Y-103878691D01*
X124862182Y-103608192D01*
X124728932Y-103358899D01*
X124549608Y-103140392D01*
X124331101Y-102961068D01*
X124198142Y-102890000D01*
X124331101Y-102818932D01*
X124549608Y-102639608D01*
X124728932Y-102421101D01*
X124750901Y-102380000D01*
X129929099Y-102380000D01*
X129951068Y-102421101D01*
X130130392Y-102639608D01*
X130348899Y-102818932D01*
X130411160Y-102852211D01*
X130400997Y-102885714D01*
X130396058Y-102935861D01*
X130348899Y-102961068D01*
X130130392Y-103140392D01*
X129951068Y-103358899D01*
X129817818Y-103608192D01*
X129735764Y-103878691D01*
X129708057Y-104160000D01*
X129735764Y-104441309D01*
X129817818Y-104711808D01*
X129951068Y-104961101D01*
X130130392Y-105179608D01*
X130348899Y-105358932D01*
X130481858Y-105430000D01*
X130348899Y-105501068D01*
X130130392Y-105680392D01*
X129951068Y-105898899D01*
X129817818Y-106148192D01*
X129735764Y-106418691D01*
X129708057Y-106700000D01*
X129735764Y-106981309D01*
X129817818Y-107251808D01*
X129951068Y-107501101D01*
X130130392Y-107719608D01*
X130348899Y-107898932D01*
X130481858Y-107970000D01*
X130348899Y-108041068D01*
X130130392Y-108220392D01*
X129951068Y-108438899D01*
X129817818Y-108688192D01*
X129735764Y-108958691D01*
X129708057Y-109240000D01*
X129735764Y-109521309D01*
X129817818Y-109791808D01*
X129951068Y-110041101D01*
X130130392Y-110259608D01*
X130348899Y-110438932D01*
X130598192Y-110572182D01*
X130868691Y-110654236D01*
X131079508Y-110675000D01*
X131220492Y-110675000D01*
X131367588Y-110660512D01*
X137149783Y-110660512D01*
X137191213Y-110940130D01*
X137286397Y-111206292D01*
X137353329Y-111331514D01*
X137597298Y-111403097D01*
X138410395Y-110590000D01*
X138769605Y-110590000D01*
X139582702Y-111403097D01*
X139826671Y-111331514D01*
X139840324Y-111302659D01*
X139975363Y-111504759D01*
X140175241Y-111704637D01*
X140410273Y-111861680D01*
X140671426Y-111969853D01*
X140948665Y-112025000D01*
X141231335Y-112025000D01*
X141508574Y-111969853D01*
X141769727Y-111861680D01*
X142004759Y-111704637D01*
X142204637Y-111504759D01*
X142361680Y-111269727D01*
X142469853Y-111008574D01*
X142525000Y-110731335D01*
X142525000Y-110448665D01*
X142469853Y-110171426D01*
X142361680Y-109910273D01*
X142204637Y-109675241D01*
X142004759Y-109475363D01*
X141769727Y-109318320D01*
X141508574Y-109210147D01*
X141231335Y-109155000D01*
X140948665Y-109155000D01*
X140671426Y-109210147D01*
X140410273Y-109318320D01*
X140175241Y-109475363D01*
X139975363Y-109675241D01*
X139841308Y-109875869D01*
X139826671Y-109848486D01*
X139582702Y-109776903D01*
X138769605Y-110590000D01*
X138410395Y-110590000D01*
X137597298Y-109776903D01*
X137353329Y-109848486D01*
X137232429Y-110103996D01*
X137163700Y-110378184D01*
X137149783Y-110660512D01*
X131367588Y-110660512D01*
X131431309Y-110654236D01*
X131701808Y-110572182D01*
X131951101Y-110438932D01*
X132169608Y-110259608D01*
X132348932Y-110041101D01*
X132482182Y-109791808D01*
X132541185Y-109597298D01*
X137776903Y-109597298D01*
X138590000Y-110410395D01*
X139403097Y-109597298D01*
X139331514Y-109353329D01*
X139076004Y-109232429D01*
X138801816Y-109163700D01*
X138519488Y-109149783D01*
X138239870Y-109191213D01*
X137973708Y-109286397D01*
X137848486Y-109353329D01*
X137776903Y-109597298D01*
X132541185Y-109597298D01*
X132564236Y-109521309D01*
X132591943Y-109240000D01*
X132564236Y-108958691D01*
X132482182Y-108688192D01*
X132348932Y-108438899D01*
X132169608Y-108220392D01*
X131951101Y-108041068D01*
X131818142Y-107970000D01*
X131951101Y-107898932D01*
X132169608Y-107719608D01*
X132348932Y-107501101D01*
X132482182Y-107251808D01*
X132564236Y-106981309D01*
X132578285Y-106838665D01*
X136125000Y-106838665D01*
X136125000Y-107121335D01*
X136180147Y-107398574D01*
X136288320Y-107659727D01*
X136445363Y-107894759D01*
X136645241Y-108094637D01*
X136880273Y-108251680D01*
X137141426Y-108359853D01*
X137418665Y-108415000D01*
X137701335Y-108415000D01*
X137978574Y-108359853D01*
X138239727Y-108251680D01*
X138474759Y-108094637D01*
X138674637Y-107894759D01*
X138778043Y-107740000D01*
X139826491Y-107740000D01*
X139834699Y-107750001D01*
X139950424Y-107844974D01*
X140082453Y-107915546D01*
X140225714Y-107959003D01*
X140275861Y-107963942D01*
X140301068Y-108011101D01*
X140480392Y-108229608D01*
X140698899Y-108408932D01*
X140948192Y-108542182D01*
X141218691Y-108624236D01*
X141429508Y-108645000D01*
X141570492Y-108645000D01*
X141781309Y-108624236D01*
X142051808Y-108542182D01*
X142301101Y-108408932D01*
X142519608Y-108229608D01*
X142698932Y-108011101D01*
X142832182Y-107761808D01*
X142914236Y-107491309D01*
X142934063Y-107290000D01*
X146877089Y-107290000D01*
X146908657Y-107610516D01*
X147002148Y-107918715D01*
X147153969Y-108202752D01*
X147358286Y-108451714D01*
X147607248Y-108656031D01*
X147891285Y-108807852D01*
X148199484Y-108901343D01*
X148439678Y-108925000D01*
X149600322Y-108925000D01*
X149840516Y-108901343D01*
X150148715Y-108807852D01*
X150432752Y-108656031D01*
X150681714Y-108451714D01*
X150886031Y-108202752D01*
X151037852Y-107918715D01*
X151131343Y-107610516D01*
X151162911Y-107290000D01*
X151131343Y-106969484D01*
X151037852Y-106661285D01*
X150911555Y-106425000D01*
X151300322Y-106425000D01*
X151540516Y-106401343D01*
X151848715Y-106307852D01*
X152132752Y-106156031D01*
X152381714Y-105951714D01*
X152586031Y-105702752D01*
X152737852Y-105418715D01*
X152831343Y-105110516D01*
X152862911Y-104790000D01*
X152831343Y-104469484D01*
X152737852Y-104161285D01*
X152586031Y-103877248D01*
X152381714Y-103628286D01*
X152132752Y-103423969D01*
X151848715Y-103272148D01*
X151540516Y-103178657D01*
X151300322Y-103155000D01*
X150139678Y-103155000D01*
X149899484Y-103178657D01*
X149591285Y-103272148D01*
X149307248Y-103423969D01*
X149058286Y-103628286D01*
X148853969Y-103877248D01*
X148702148Y-104161285D01*
X148608657Y-104469484D01*
X148577089Y-104790000D01*
X148608657Y-105110516D01*
X148702148Y-105418715D01*
X148828445Y-105655000D01*
X148439678Y-105655000D01*
X148199484Y-105678657D01*
X147891285Y-105772148D01*
X147607248Y-105923969D01*
X147358286Y-106128286D01*
X147153969Y-106377248D01*
X147002148Y-106661285D01*
X146908657Y-106969484D01*
X146877089Y-107290000D01*
X142934063Y-107290000D01*
X142941943Y-107210000D01*
X142914236Y-106928691D01*
X142832182Y-106658192D01*
X142698932Y-106408899D01*
X142519608Y-106190392D01*
X142301101Y-106011068D01*
X142051808Y-105877818D01*
X141781309Y-105795764D01*
X141570492Y-105775000D01*
X141429508Y-105775000D01*
X141218691Y-105795764D01*
X140948192Y-105877818D01*
X140698899Y-106011068D01*
X140480392Y-106190392D01*
X140416495Y-106268250D01*
X140293686Y-106230997D01*
X140182033Y-106220000D01*
X140182022Y-106220000D01*
X140144700Y-106216324D01*
X140107378Y-106220000D01*
X138778043Y-106220000D01*
X138674637Y-106065241D01*
X138474759Y-105865363D01*
X138239727Y-105708320D01*
X137978574Y-105600147D01*
X137701335Y-105545000D01*
X137418665Y-105545000D01*
X137141426Y-105600147D01*
X136880273Y-105708320D01*
X136645241Y-105865363D01*
X136445363Y-106065241D01*
X136288320Y-106300273D01*
X136180147Y-106561426D01*
X136125000Y-106838665D01*
X132578285Y-106838665D01*
X132591943Y-106700000D01*
X132564236Y-106418691D01*
X132482182Y-106148192D01*
X132348932Y-105898899D01*
X132169608Y-105680392D01*
X131951101Y-105501068D01*
X131818142Y-105430000D01*
X131951101Y-105358932D01*
X132169608Y-105179608D01*
X132348932Y-104961101D01*
X132482182Y-104711808D01*
X132564236Y-104441309D01*
X132591943Y-104160000D01*
X132564236Y-103878691D01*
X132482182Y-103608192D01*
X132348932Y-103358899D01*
X132273643Y-103267159D01*
X132816204Y-102724598D01*
X132845201Y-102700801D01*
X132940174Y-102585076D01*
X133010746Y-102453047D01*
X133054203Y-102309786D01*
X133065200Y-102198133D01*
X133065200Y-102198124D01*
X133068876Y-102160801D01*
X133065200Y-102123478D01*
X133065200Y-102017000D01*
X155885000Y-102017000D01*
X155885000Y-102517000D01*
X155941193Y-102833532D01*
X156058058Y-103133020D01*
X156231105Y-103403954D01*
X156453683Y-103635922D01*
X156717239Y-103820010D01*
X157011645Y-103949144D01*
X157139566Y-103980124D01*
X157393000Y-103860777D01*
X157393000Y-102017000D01*
X157647000Y-102017000D01*
X157647000Y-103860777D01*
X157900434Y-103980124D01*
X158028355Y-103949144D01*
X158322761Y-103820010D01*
X158586317Y-103635922D01*
X158808895Y-103403954D01*
X158981942Y-103133020D01*
X159098807Y-102833532D01*
X159155000Y-102517000D01*
X159155000Y-102017000D01*
X157647000Y-102017000D01*
X157393000Y-102017000D01*
X155885000Y-102017000D01*
X133065200Y-102017000D01*
X133065200Y-101263000D01*
X155885000Y-101263000D01*
X155885000Y-101763000D01*
X157393000Y-101763000D01*
X157393000Y-99919223D01*
X157647000Y-99919223D01*
X157647000Y-101763000D01*
X159155000Y-101763000D01*
X159155000Y-101263000D01*
X159098807Y-100946468D01*
X158981942Y-100646980D01*
X158808895Y-100376046D01*
X158586317Y-100144078D01*
X158322761Y-99959990D01*
X158028355Y-99830856D01*
X157900434Y-99799876D01*
X157647000Y-99919223D01*
X157393000Y-99919223D01*
X157139566Y-99799876D01*
X157011645Y-99830856D01*
X156717239Y-99959990D01*
X156453683Y-100144078D01*
X156231105Y-100376046D01*
X156058058Y-100646980D01*
X155941193Y-100946468D01*
X155885000Y-101263000D01*
X133065200Y-101263000D01*
X133065200Y-101171923D01*
X133068876Y-101134600D01*
X133065200Y-101097277D01*
X133065200Y-101097267D01*
X133054203Y-100985614D01*
X133010746Y-100842353D01*
X132974357Y-100774275D01*
X132940174Y-100710323D01*
X132868999Y-100623597D01*
X132845201Y-100594599D01*
X132816202Y-100570801D01*
X132248671Y-100003270D01*
X132348932Y-99881101D01*
X132482182Y-99631808D01*
X132564236Y-99361309D01*
X132591943Y-99080000D01*
X132564236Y-98798691D01*
X132482182Y-98528192D01*
X132348932Y-98278899D01*
X132169608Y-98060392D01*
X131951101Y-97881068D01*
X131818142Y-97810000D01*
X131951101Y-97738932D01*
X132169608Y-97559608D01*
X132348932Y-97341101D01*
X132482182Y-97091808D01*
X132564236Y-96821309D01*
X132564364Y-96820000D01*
X136118057Y-96820000D01*
X136145764Y-97101309D01*
X136227818Y-97371808D01*
X136361068Y-97621101D01*
X136540392Y-97839608D01*
X136758899Y-98018932D01*
X137008192Y-98152182D01*
X137278691Y-98234236D01*
X137489508Y-98255000D01*
X137630492Y-98255000D01*
X137841309Y-98234236D01*
X138111808Y-98152182D01*
X138361101Y-98018932D01*
X138579608Y-97839608D01*
X138758932Y-97621101D01*
X138892182Y-97371808D01*
X138974236Y-97101309D01*
X138993210Y-96908665D01*
X140065000Y-96908665D01*
X140065000Y-97191335D01*
X140120147Y-97468574D01*
X140228320Y-97729727D01*
X140385363Y-97964759D01*
X140585241Y-98164637D01*
X140820273Y-98321680D01*
X141081426Y-98429853D01*
X141358665Y-98485000D01*
X141641335Y-98485000D01*
X141918574Y-98429853D01*
X142179727Y-98321680D01*
X142414759Y-98164637D01*
X142614637Y-97964759D01*
X142771680Y-97729727D01*
X142879853Y-97468574D01*
X142935000Y-97191335D01*
X142935000Y-97009678D01*
X144585000Y-97009678D01*
X144585000Y-98170321D01*
X144608657Y-98410515D01*
X144702148Y-98718714D01*
X144853969Y-99002751D01*
X145058286Y-99251714D01*
X145307248Y-99456031D01*
X145591285Y-99607852D01*
X145899484Y-99701343D01*
X146220000Y-99732911D01*
X146540515Y-99701343D01*
X146848714Y-99607852D01*
X147132751Y-99456031D01*
X147381714Y-99251714D01*
X147586031Y-99002752D01*
X147737852Y-98718715D01*
X147831343Y-98410516D01*
X147855000Y-98170322D01*
X147855000Y-97009678D01*
X147831343Y-96769484D01*
X147737852Y-96461285D01*
X147586031Y-96177248D01*
X147381714Y-95928286D01*
X147132752Y-95723969D01*
X146848715Y-95572148D01*
X146540516Y-95478657D01*
X146220000Y-95447089D01*
X145899485Y-95478657D01*
X145591286Y-95572148D01*
X145307249Y-95723969D01*
X145058287Y-95928286D01*
X144853970Y-96177248D01*
X144702148Y-96461285D01*
X144608657Y-96769484D01*
X144585000Y-97009678D01*
X142935000Y-97009678D01*
X142935000Y-96908665D01*
X142879853Y-96631426D01*
X142771680Y-96370273D01*
X142614637Y-96135241D01*
X142414759Y-95935363D01*
X142179727Y-95778320D01*
X141918574Y-95670147D01*
X141641335Y-95615000D01*
X141358665Y-95615000D01*
X141081426Y-95670147D01*
X140820273Y-95778320D01*
X140585241Y-95935363D01*
X140385363Y-96135241D01*
X140228320Y-96370273D01*
X140120147Y-96631426D01*
X140065000Y-96908665D01*
X138993210Y-96908665D01*
X139001943Y-96820000D01*
X138974236Y-96538691D01*
X138892182Y-96268192D01*
X138758932Y-96018899D01*
X138579608Y-95800392D01*
X138361101Y-95621068D01*
X138111808Y-95487818D01*
X137841309Y-95405764D01*
X137630492Y-95385000D01*
X137489508Y-95385000D01*
X137278691Y-95405764D01*
X137008192Y-95487818D01*
X136758899Y-95621068D01*
X136540392Y-95800392D01*
X136361068Y-96018899D01*
X136227818Y-96268192D01*
X136145764Y-96538691D01*
X136118057Y-96820000D01*
X132564364Y-96820000D01*
X132591943Y-96540000D01*
X132564236Y-96258691D01*
X132482182Y-95988192D01*
X132348932Y-95738899D01*
X132169608Y-95520392D01*
X131951101Y-95341068D01*
X131818142Y-95270000D01*
X131951101Y-95198932D01*
X132169608Y-95019608D01*
X132239044Y-94935000D01*
X132404368Y-94935000D01*
X132450300Y-94939524D01*
X132496232Y-94935000D01*
X132633592Y-94921471D01*
X132809840Y-94868007D01*
X132972272Y-94781186D01*
X133114644Y-94664344D01*
X133143930Y-94628659D01*
X135119390Y-92653200D01*
X137348478Y-92653200D01*
X137345241Y-92655363D01*
X137145363Y-92855241D01*
X136988320Y-93090273D01*
X136880147Y-93351426D01*
X136825000Y-93628665D01*
X136825000Y-93911335D01*
X136880147Y-94188574D01*
X136988320Y-94449727D01*
X137145363Y-94684759D01*
X137345241Y-94884637D01*
X137580273Y-95041680D01*
X137841426Y-95149853D01*
X138118665Y-95205000D01*
X138401335Y-95205000D01*
X138678574Y-95149853D01*
X138939727Y-95041680D01*
X139174759Y-94884637D01*
X139374637Y-94684759D01*
X139510000Y-94482173D01*
X139645363Y-94684759D01*
X139845241Y-94884637D01*
X140080273Y-95041680D01*
X140341426Y-95149853D01*
X140618665Y-95205000D01*
X140901335Y-95205000D01*
X141178574Y-95149853D01*
X141439727Y-95041680D01*
X141674759Y-94884637D01*
X141874637Y-94684759D01*
X142031680Y-94449727D01*
X142139853Y-94188574D01*
X142195000Y-93911335D01*
X142195000Y-93628665D01*
X142139853Y-93351426D01*
X142031680Y-93090273D01*
X141874637Y-92855241D01*
X141674759Y-92655363D01*
X141671522Y-92653200D01*
X145226868Y-92653200D01*
X145272800Y-92657724D01*
X145318732Y-92653200D01*
X145456092Y-92639671D01*
X145618905Y-92590282D01*
X145610147Y-92611426D01*
X145555000Y-92888665D01*
X145555000Y-93171335D01*
X145610147Y-93448574D01*
X145718320Y-93709727D01*
X145875363Y-93944759D01*
X146075241Y-94144637D01*
X146310273Y-94301680D01*
X146571426Y-94409853D01*
X146848665Y-94465000D01*
X147131335Y-94465000D01*
X147408574Y-94409853D01*
X147669727Y-94301680D01*
X147886642Y-94156743D01*
X151630901Y-97901003D01*
X151654699Y-97930001D01*
X151683697Y-97953799D01*
X151770423Y-98024974D01*
X151836685Y-98060392D01*
X151902453Y-98095546D01*
X152045714Y-98139003D01*
X152067595Y-98141158D01*
X152153969Y-98302752D01*
X152358286Y-98551714D01*
X152607248Y-98756031D01*
X152891285Y-98907852D01*
X153199484Y-99001343D01*
X153439678Y-99025000D01*
X154600322Y-99025000D01*
X154840516Y-99001343D01*
X155148715Y-98907852D01*
X155432752Y-98756031D01*
X155681714Y-98551714D01*
X155886031Y-98302752D01*
X156037852Y-98018715D01*
X156131343Y-97710516D01*
X156162911Y-97390000D01*
X156131343Y-97069484D01*
X156037852Y-96761285D01*
X155886031Y-96477248D01*
X155681714Y-96228286D01*
X155432752Y-96023969D01*
X155148715Y-95872148D01*
X154840516Y-95778657D01*
X154600322Y-95755000D01*
X153439678Y-95755000D01*
X153199484Y-95778657D01*
X152891285Y-95872148D01*
X152607248Y-96023969D01*
X152358286Y-96228286D01*
X152245373Y-96365871D01*
X149258541Y-93379039D01*
X155758096Y-93379039D01*
X155798754Y-93513087D01*
X155918963Y-93767420D01*
X156086481Y-93993414D01*
X156294869Y-94182385D01*
X156536119Y-94327070D01*
X156800960Y-94421909D01*
X157023000Y-94300624D01*
X157023000Y-93157000D01*
X157277000Y-93157000D01*
X157277000Y-94300624D01*
X157499040Y-94421909D01*
X157763881Y-94327070D01*
X158005131Y-94182385D01*
X158213519Y-93993414D01*
X158381037Y-93767420D01*
X158501246Y-93513087D01*
X158541904Y-93379039D01*
X158419915Y-93157000D01*
X157277000Y-93157000D01*
X157023000Y-93157000D01*
X155880085Y-93157000D01*
X155758096Y-93379039D01*
X149258541Y-93379039D01*
X148560463Y-92680961D01*
X155758096Y-92680961D01*
X155880085Y-92903000D01*
X157023000Y-92903000D01*
X157023000Y-91759376D01*
X157277000Y-91759376D01*
X157277000Y-92903000D01*
X158419915Y-92903000D01*
X158541904Y-92680961D01*
X158501246Y-92546913D01*
X158381037Y-92292580D01*
X158213519Y-92066586D01*
X158005131Y-91877615D01*
X157763881Y-91732930D01*
X157499040Y-91638091D01*
X157277000Y-91759376D01*
X157023000Y-91759376D01*
X156800960Y-91638091D01*
X156536119Y-91732930D01*
X156294869Y-91877615D01*
X156086481Y-92066586D01*
X155918963Y-92292580D01*
X155798754Y-92546913D01*
X155758096Y-92680961D01*
X148560463Y-92680961D01*
X148398504Y-92519003D01*
X148374701Y-92489999D01*
X148291157Y-92421436D01*
X148261680Y-92350273D01*
X148104637Y-92115241D01*
X147904759Y-91915363D01*
X147669727Y-91758320D01*
X147408574Y-91650147D01*
X147131335Y-91595000D01*
X146848665Y-91595000D01*
X146685916Y-91627373D01*
X151316166Y-86997124D01*
X151351844Y-86967844D01*
X151468686Y-86825472D01*
X151555507Y-86663040D01*
X151593946Y-86536324D01*
X151608971Y-86486793D01*
X151627024Y-86303501D01*
X151622500Y-86257569D01*
X151622500Y-69363431D01*
X151627024Y-69317499D01*
X151608971Y-69134207D01*
X151580120Y-69039099D01*
X151555507Y-68957960D01*
X151468686Y-68795528D01*
X151351844Y-68653156D01*
X151316164Y-68623874D01*
X150801215Y-68108925D01*
X150811943Y-68000000D01*
X150784236Y-67718691D01*
X150702182Y-67448192D01*
X150568932Y-67198899D01*
X150389608Y-66980392D01*
X150171101Y-66801068D01*
X149921808Y-66667818D01*
X149651309Y-66585764D01*
X149440492Y-66565000D01*
X149299508Y-66565000D01*
X149088691Y-66585764D01*
X148818192Y-66667818D01*
X148568899Y-66801068D01*
X148350392Y-66980392D01*
X148171068Y-67198899D01*
X148037818Y-67448192D01*
X147955764Y-67718691D01*
X147928057Y-68000000D01*
X147955764Y-68281309D01*
X148037818Y-68551808D01*
X148171068Y-68801101D01*
X148350392Y-69019608D01*
X148568899Y-69198932D01*
X148701858Y-69270000D01*
X148568899Y-69341068D01*
X148350392Y-69520392D01*
X148171068Y-69738899D01*
X148037818Y-69988192D01*
X147985446Y-70160843D01*
X142683268Y-64858665D01*
X146065000Y-64858665D01*
X146065000Y-65141335D01*
X146120147Y-65418574D01*
X146228320Y-65679727D01*
X146385363Y-65914759D01*
X146585241Y-66114637D01*
X146820273Y-66271680D01*
X147081426Y-66379853D01*
X147358665Y-66435000D01*
X147641335Y-66435000D01*
X147918574Y-66379853D01*
X148179727Y-66271680D01*
X148414759Y-66114637D01*
X148536694Y-65992702D01*
X149186903Y-65992702D01*
X149258486Y-66236671D01*
X149513996Y-66357571D01*
X149788184Y-66426300D01*
X150070512Y-66440217D01*
X150350130Y-66398787D01*
X150616292Y-66303603D01*
X150741514Y-66236671D01*
X150813097Y-65992702D01*
X150000000Y-65179605D01*
X149186903Y-65992702D01*
X148536694Y-65992702D01*
X148614637Y-65914759D01*
X148748692Y-65714131D01*
X148763329Y-65741514D01*
X149007298Y-65813097D01*
X149820395Y-65000000D01*
X150179605Y-65000000D01*
X150992702Y-65813097D01*
X151236671Y-65741514D01*
X151357571Y-65486004D01*
X151426300Y-65211816D01*
X151440217Y-64929488D01*
X151398787Y-64649870D01*
X151303603Y-64383708D01*
X151236671Y-64258486D01*
X150992702Y-64186903D01*
X150179605Y-65000000D01*
X149820395Y-65000000D01*
X149007298Y-64186903D01*
X148763329Y-64258486D01*
X148749676Y-64287341D01*
X148614637Y-64085241D01*
X148536694Y-64007298D01*
X149186903Y-64007298D01*
X150000000Y-64820395D01*
X150813097Y-64007298D01*
X150741514Y-63763329D01*
X150486004Y-63642429D01*
X150211816Y-63573700D01*
X149929488Y-63559783D01*
X149649870Y-63601213D01*
X149383708Y-63696397D01*
X149258486Y-63763329D01*
X149186903Y-64007298D01*
X148536694Y-64007298D01*
X148414759Y-63885363D01*
X148179727Y-63728320D01*
X147918574Y-63620147D01*
X147641335Y-63565000D01*
X147358665Y-63565000D01*
X147081426Y-63620147D01*
X146820273Y-63728320D01*
X146585241Y-63885363D01*
X146385363Y-64085241D01*
X146228320Y-64320273D01*
X146120147Y-64581426D01*
X146065000Y-64858665D01*
X142683268Y-64858665D01*
X135598304Y-57773703D01*
X135574501Y-57744699D01*
X135458776Y-57649726D01*
X135326747Y-57579154D01*
X135183486Y-57535697D01*
X135071833Y-57524700D01*
X135071822Y-57524700D01*
X135034500Y-57521024D01*
X134997178Y-57524700D01*
X123830522Y-57524700D01*
X123793199Y-57521024D01*
X123755876Y-57524700D01*
X123755867Y-57524700D01*
X123644214Y-57535697D01*
X123500953Y-57579154D01*
X123368923Y-57649726D01*
X123298403Y-57707601D01*
X123253199Y-57744699D01*
X123229401Y-57773698D01*
X122718540Y-58284559D01*
X122639014Y-58219294D01*
X122381034Y-58081401D01*
X122101111Y-57996487D01*
X121882950Y-57975000D01*
X121737050Y-57975000D01*
X121518889Y-57996487D01*
X121238966Y-58081401D01*
X120980986Y-58219294D01*
X120754866Y-58404866D01*
X120569294Y-58630986D01*
X120540000Y-58685791D01*
X120510706Y-58630986D01*
X120325134Y-58404866D01*
X120099014Y-58219294D01*
X119841034Y-58081401D01*
X119561111Y-57996487D01*
X119342950Y-57975000D01*
X119197050Y-57975000D01*
X118978889Y-57996487D01*
X118698966Y-58081401D01*
X118440986Y-58219294D01*
X118214866Y-58404866D01*
X118029294Y-58630986D01*
X118000000Y-58685791D01*
X117970706Y-58630986D01*
X117785134Y-58404866D01*
X117559014Y-58219294D01*
X117301034Y-58081401D01*
X117021111Y-57996487D01*
X116802950Y-57975000D01*
X116657050Y-57975000D01*
X116438889Y-57996487D01*
X116158966Y-58081401D01*
X115900986Y-58219294D01*
X115674866Y-58404866D01*
X115489294Y-58630986D01*
X115460000Y-58685791D01*
X115430706Y-58630986D01*
X115245134Y-58404866D01*
X115019014Y-58219294D01*
X114761034Y-58081401D01*
X114481111Y-57996487D01*
X114262950Y-57975000D01*
X114117050Y-57975000D01*
X113898889Y-57996487D01*
X113618966Y-58081401D01*
X113360986Y-58219294D01*
X113134866Y-58404866D01*
X112949294Y-58630986D01*
X112920000Y-58685791D01*
X112890706Y-58630986D01*
X112705134Y-58404866D01*
X112479014Y-58219294D01*
X112221034Y-58081401D01*
X111941111Y-57996487D01*
X111722950Y-57975000D01*
X111577050Y-57975000D01*
X111358889Y-57996487D01*
X111078966Y-58081401D01*
X110820986Y-58219294D01*
X110594866Y-58404866D01*
X110409294Y-58630986D01*
X110380000Y-58685791D01*
X110350706Y-58630986D01*
X110165134Y-58404866D01*
X109939014Y-58219294D01*
X109681034Y-58081401D01*
X109401111Y-57996487D01*
X109182950Y-57975000D01*
X109037050Y-57975000D01*
X108818889Y-57996487D01*
X108538966Y-58081401D01*
X108280986Y-58219294D01*
X108054866Y-58404866D01*
X107869294Y-58630986D01*
X107840000Y-58685791D01*
X107810706Y-58630986D01*
X107625134Y-58404866D01*
X107399014Y-58219294D01*
X107141034Y-58081401D01*
X106861111Y-57996487D01*
X106642950Y-57975000D01*
X106497050Y-57975000D01*
X106278889Y-57996487D01*
X105998966Y-58081401D01*
X105740986Y-58219294D01*
X105629714Y-58310613D01*
X105079503Y-57760402D01*
X105055701Y-57731399D01*
X104939976Y-57636426D01*
X104807947Y-57565854D01*
X104664686Y-57522397D01*
X104553033Y-57511400D01*
X104553022Y-57511400D01*
X104515700Y-57507724D01*
X104478378Y-57511400D01*
X98417125Y-57511400D01*
X98379800Y-57507724D01*
X98342475Y-57511400D01*
X98342467Y-57511400D01*
X98230814Y-57522397D01*
X98087553Y-57565854D01*
X97955524Y-57636426D01*
X97839799Y-57731399D01*
X97816001Y-57760398D01*
X97303875Y-58272524D01*
X97239014Y-58219294D01*
X96981034Y-58081401D01*
X96701111Y-57996487D01*
X96482950Y-57975000D01*
X96337050Y-57975000D01*
X96118889Y-57996487D01*
X95838966Y-58081401D01*
X95580986Y-58219294D01*
X95354866Y-58404866D01*
X95169294Y-58630986D01*
X95140000Y-58685791D01*
X95110706Y-58630986D01*
X94925134Y-58404866D01*
X94699014Y-58219294D01*
X94441034Y-58081401D01*
X94161111Y-57996487D01*
X93942950Y-57975000D01*
X93797050Y-57975000D01*
X93578889Y-57996487D01*
X93298966Y-58081401D01*
X93040986Y-58219294D01*
X92814866Y-58404866D01*
X92629294Y-58630986D01*
X92600000Y-58685791D01*
X92570706Y-58630986D01*
X92385134Y-58404866D01*
X92159014Y-58219294D01*
X91901034Y-58081401D01*
X91621111Y-57996487D01*
X91402950Y-57975000D01*
X91257050Y-57975000D01*
X91038889Y-57996487D01*
X90758966Y-58081401D01*
X90500986Y-58219294D01*
X90274866Y-58404866D01*
X90089294Y-58630986D01*
X90054799Y-58695523D01*
X89985178Y-58578645D01*
X89790269Y-58362412D01*
X89556920Y-58188359D01*
X89294099Y-58063175D01*
X89146890Y-58018524D01*
X88917000Y-58139845D01*
X88917000Y-59333000D01*
X88937000Y-59333000D01*
X88937000Y-59587000D01*
X88917000Y-59587000D01*
X88917000Y-59607000D01*
X88663000Y-59607000D01*
X88663000Y-59587000D01*
X86377000Y-59587000D01*
X86377000Y-59607000D01*
X86123000Y-59607000D01*
X86123000Y-59587000D01*
X84929186Y-59587000D01*
X84808519Y-59816891D01*
X84905843Y-60091252D01*
X85054822Y-60341355D01*
X85231626Y-60537502D01*
X85155820Y-60560498D01*
X85045506Y-60619463D01*
X84948815Y-60698815D01*
X84869463Y-60795506D01*
X84810498Y-60905820D01*
X84774188Y-61025518D01*
X84761928Y-61150000D01*
X84761928Y-62850000D01*
X84774188Y-62974482D01*
X84810498Y-63094180D01*
X84869463Y-63204494D01*
X84948815Y-63301185D01*
X85045506Y-63380537D01*
X85155820Y-63439502D01*
X85275518Y-63475812D01*
X85400000Y-63488072D01*
X87100000Y-63488072D01*
X87224482Y-63475812D01*
X87344180Y-63439502D01*
X87454494Y-63380537D01*
X87551185Y-63301185D01*
X87630537Y-63204494D01*
X87689502Y-63094180D01*
X87710393Y-63025313D01*
X87734866Y-63055134D01*
X87960986Y-63240706D01*
X88218966Y-63378599D01*
X88498889Y-63463513D01*
X88717050Y-63485000D01*
X88862950Y-63485000D01*
X89081111Y-63463513D01*
X89361034Y-63378599D01*
X89619014Y-63240706D01*
X89845134Y-63055134D01*
X90030706Y-62829014D01*
X90060000Y-62774209D01*
X90089294Y-62829014D01*
X90274866Y-63055134D01*
X90500986Y-63240706D01*
X90758966Y-63378599D01*
X91038889Y-63463513D01*
X91257050Y-63485000D01*
X91402950Y-63485000D01*
X91621111Y-63463513D01*
X91901034Y-63378599D01*
X92159014Y-63240706D01*
X92385134Y-63055134D01*
X92570706Y-62829014D01*
X92600000Y-62774209D01*
X92629294Y-62829014D01*
X92814866Y-63055134D01*
X93040986Y-63240706D01*
X93298966Y-63378599D01*
X93578889Y-63463513D01*
X93797050Y-63485000D01*
X93942950Y-63485000D01*
X94161111Y-63463513D01*
X94441034Y-63378599D01*
X94474601Y-63360657D01*
X94474600Y-67177298D01*
X88753048Y-72898851D01*
X88688932Y-72778899D01*
X88613643Y-72687159D01*
X89169003Y-72131799D01*
X89198001Y-72108001D01*
X89292974Y-71992276D01*
X89363546Y-71860247D01*
X89407003Y-71716986D01*
X89418000Y-71605333D01*
X89418000Y-71605324D01*
X89421676Y-71568001D01*
X89418000Y-71530678D01*
X89418000Y-68110325D01*
X89421676Y-68073000D01*
X89418000Y-68035675D01*
X89418000Y-68035667D01*
X89407003Y-67924014D01*
X89363546Y-67780753D01*
X89292974Y-67648724D01*
X89198001Y-67532999D01*
X89169004Y-67509202D01*
X88523403Y-66863602D01*
X88499601Y-66834599D01*
X88383876Y-66739626D01*
X88251847Y-66669054D01*
X88108586Y-66625597D01*
X87996933Y-66614600D01*
X87996922Y-66614600D01*
X87959600Y-66610924D01*
X87922278Y-66614600D01*
X71325422Y-66614600D01*
X71288099Y-66610924D01*
X71250776Y-66614600D01*
X71250767Y-66614600D01*
X71139114Y-66625597D01*
X70995853Y-66669054D01*
X70863824Y-66739626D01*
X70748099Y-66834599D01*
X70724301Y-66863597D01*
X68172898Y-69415000D01*
X68128599Y-69268966D01*
X67990706Y-69010986D01*
X67805134Y-68784866D01*
X67579014Y-68599294D01*
X67524209Y-68570000D01*
X67579014Y-68540706D01*
X67805134Y-68355134D01*
X67990706Y-68129014D01*
X68128599Y-67871034D01*
X68213513Y-67591111D01*
X68242185Y-67300000D01*
X68213513Y-67008889D01*
X68128599Y-66728966D01*
X67990706Y-66470986D01*
X67805134Y-66244866D01*
X67579014Y-66059294D01*
X67524209Y-66030000D01*
X67579014Y-66000706D01*
X67805134Y-65815134D01*
X67903725Y-65695000D01*
X68054368Y-65695000D01*
X68100300Y-65699524D01*
X68146232Y-65695000D01*
X68283592Y-65681471D01*
X68459840Y-65628007D01*
X68622272Y-65541186D01*
X68764644Y-65424344D01*
X68793930Y-65388659D01*
X71997589Y-62185000D01*
X73077379Y-62185000D01*
X73110498Y-62294180D01*
X73169463Y-62404494D01*
X73248815Y-62501185D01*
X73345506Y-62580537D01*
X73455820Y-62639502D01*
X73575518Y-62675812D01*
X73700000Y-62688072D01*
X75300000Y-62688072D01*
X75424482Y-62675812D01*
X75544180Y-62639502D01*
X75654494Y-62580537D01*
X75751185Y-62501185D01*
X75830537Y-62404494D01*
X75889502Y-62294180D01*
X75925812Y-62174482D01*
X75938072Y-62050000D01*
X75938072Y-60450000D01*
X75925812Y-60325518D01*
X75889502Y-60205820D01*
X75830537Y-60095506D01*
X75751185Y-59998815D01*
X75654494Y-59919463D01*
X75544180Y-59860498D01*
X75424482Y-59824188D01*
X75300000Y-59811928D01*
X75292785Y-59811928D01*
X75313097Y-59742702D01*
X74500000Y-58929605D01*
X73686903Y-59742702D01*
X73707215Y-59811928D01*
X73700000Y-59811928D01*
X73575518Y-59824188D01*
X73455820Y-59860498D01*
X73345506Y-59919463D01*
X73248815Y-59998815D01*
X73169463Y-60095506D01*
X73110498Y-60205820D01*
X73077379Y-60315000D01*
X71656235Y-60315000D01*
X71610300Y-60310476D01*
X71427008Y-60328528D01*
X71250759Y-60381993D01*
X71194180Y-60412235D01*
X71088328Y-60468814D01*
X70945956Y-60585656D01*
X70916670Y-60621341D01*
X67817760Y-63720251D01*
X67805134Y-63704866D01*
X67579014Y-63519294D01*
X67321034Y-63381401D01*
X67041111Y-63296487D01*
X66822950Y-63275000D01*
X66677050Y-63275000D01*
X66458889Y-63296487D01*
X66178966Y-63381401D01*
X65920986Y-63519294D01*
X65694866Y-63704866D01*
X65509294Y-63930986D01*
X65478416Y-63988756D01*
X65307588Y-63759731D01*
X65091355Y-63564822D01*
X64841252Y-63415843D01*
X64566891Y-63318519D01*
X64337000Y-63439186D01*
X64337000Y-64633000D01*
X64357000Y-64633000D01*
X64357000Y-64887000D01*
X64337000Y-64887000D01*
X64337000Y-64907000D01*
X64083000Y-64907000D01*
X64083000Y-64887000D01*
X62889845Y-64887000D01*
X62768524Y-65116890D01*
X62813175Y-65264099D01*
X62938359Y-65526920D01*
X63112412Y-65760269D01*
X63328645Y-65955178D01*
X63445523Y-66024799D01*
X63380986Y-66059294D01*
X63154866Y-66244866D01*
X62969294Y-66470986D01*
X62831401Y-66728966D01*
X62746487Y-67008889D01*
X62717815Y-67300000D01*
X62746487Y-67591111D01*
X62831401Y-67871034D01*
X62969294Y-68129014D01*
X63036858Y-68211341D01*
X61599898Y-69648301D01*
X61570900Y-69672099D01*
X61547102Y-69701097D01*
X61547101Y-69701098D01*
X61475926Y-69787824D01*
X61405354Y-69919854D01*
X61389025Y-69973686D01*
X61366005Y-70049577D01*
X61361898Y-70063115D01*
X61347224Y-70212100D01*
X60710000Y-70212100D01*
X60710000Y-64403110D01*
X62768524Y-64403110D01*
X62889845Y-64633000D01*
X64083000Y-64633000D01*
X64083000Y-63439186D01*
X63853109Y-63318519D01*
X63578748Y-63415843D01*
X63328645Y-63564822D01*
X63112412Y-63759731D01*
X62938359Y-63993080D01*
X62813175Y-64255901D01*
X62768524Y-64403110D01*
X60710000Y-64403110D01*
X60710000Y-58820512D01*
X73059783Y-58820512D01*
X73101213Y-59100130D01*
X73196397Y-59366292D01*
X73263329Y-59491514D01*
X73507298Y-59563097D01*
X74320395Y-58750000D01*
X74679605Y-58750000D01*
X75492702Y-59563097D01*
X75736671Y-59491514D01*
X75857571Y-59236004D01*
X75890882Y-59103109D01*
X84808519Y-59103109D01*
X84929186Y-59333000D01*
X86123000Y-59333000D01*
X86123000Y-58139845D01*
X86377000Y-58139845D01*
X86377000Y-59333000D01*
X88663000Y-59333000D01*
X88663000Y-58139845D01*
X88433110Y-58018524D01*
X88285901Y-58063175D01*
X88023080Y-58188359D01*
X87789731Y-58362412D01*
X87594822Y-58578645D01*
X87520000Y-58704255D01*
X87445178Y-58578645D01*
X87250269Y-58362412D01*
X87016920Y-58188359D01*
X86754099Y-58063175D01*
X86606890Y-58018524D01*
X86377000Y-58139845D01*
X86123000Y-58139845D01*
X85893110Y-58018524D01*
X85745901Y-58063175D01*
X85483080Y-58188359D01*
X85249731Y-58362412D01*
X85054822Y-58578645D01*
X84905843Y-58828748D01*
X84808519Y-59103109D01*
X75890882Y-59103109D01*
X75926300Y-58961816D01*
X75940217Y-58679488D01*
X75898787Y-58399870D01*
X75803603Y-58133708D01*
X75736671Y-58008486D01*
X75492702Y-57936903D01*
X74679605Y-58750000D01*
X74320395Y-58750000D01*
X73507298Y-57936903D01*
X73263329Y-58008486D01*
X73142429Y-58263996D01*
X73073700Y-58538184D01*
X73059783Y-58820512D01*
X60710000Y-58820512D01*
X60710000Y-57757298D01*
X73686903Y-57757298D01*
X74500000Y-58570395D01*
X75313097Y-57757298D01*
X75241514Y-57513329D01*
X74986004Y-57392429D01*
X74711816Y-57323700D01*
X74429488Y-57309783D01*
X74149870Y-57351213D01*
X73883708Y-57446397D01*
X73758486Y-57513329D01*
X73686903Y-57757298D01*
X60710000Y-57757298D01*
X60710000Y-54279872D01*
X63265000Y-54279872D01*
X63265000Y-54720128D01*
X63350890Y-55151925D01*
X63519369Y-55558669D01*
X63763962Y-55924729D01*
X64075271Y-56236038D01*
X64441331Y-56480631D01*
X64848075Y-56649110D01*
X65279872Y-56735000D01*
X65720128Y-56735000D01*
X66151925Y-56649110D01*
X66558669Y-56480631D01*
X66924729Y-56236038D01*
X67236038Y-55924729D01*
X67480631Y-55558669D01*
X67649110Y-55151925D01*
X67735000Y-54720128D01*
X67735000Y-54279872D01*
X152265000Y-54279872D01*
X152265000Y-54720128D01*
X152350890Y-55151925D01*
X152519369Y-55558669D01*
X152763962Y-55924729D01*
X153075271Y-56236038D01*
X153441331Y-56480631D01*
X153848075Y-56649110D01*
X154279872Y-56735000D01*
X154720128Y-56735000D01*
X155151925Y-56649110D01*
X155558669Y-56480631D01*
X155924729Y-56236038D01*
X156236038Y-55924729D01*
X156480631Y-55558669D01*
X156649110Y-55151925D01*
X156735000Y-54720128D01*
X156735000Y-54279872D01*
X156649110Y-53848075D01*
X156480631Y-53441331D01*
X156236038Y-53075271D01*
X155924729Y-52763962D01*
X155558669Y-52519369D01*
X155151925Y-52350890D01*
X154720128Y-52265000D01*
X154279872Y-52265000D01*
X153848075Y-52350890D01*
X153441331Y-52519369D01*
X153075271Y-52763962D01*
X152763962Y-53075271D01*
X152519369Y-53441331D01*
X152350890Y-53848075D01*
X152265000Y-54279872D01*
X67735000Y-54279872D01*
X67649110Y-53848075D01*
X67480631Y-53441331D01*
X67236038Y-53075271D01*
X66924729Y-52763962D01*
X66558669Y-52519369D01*
X66151925Y-52350890D01*
X65720128Y-52265000D01*
X65279872Y-52265000D01*
X64848075Y-52350890D01*
X64441331Y-52519369D01*
X64075271Y-52763962D01*
X63763962Y-53075271D01*
X63519369Y-53441331D01*
X63350890Y-53848075D01*
X63265000Y-54279872D01*
X60710000Y-54279872D01*
X60710000Y-50710000D01*
X159290000Y-50710000D01*
X159290001Y-124290000D01*
X159290001Y-124290000D01*
G37*
X159290001Y-124290000D02*
X60710000Y-124290000D01*
X60710000Y-120279872D01*
X63265000Y-120279872D01*
X63265000Y-120720128D01*
X63350890Y-121151925D01*
X63519369Y-121558669D01*
X63763962Y-121924729D01*
X64075271Y-122236038D01*
X64441331Y-122480631D01*
X64848075Y-122649110D01*
X65279872Y-122735000D01*
X65720128Y-122735000D01*
X66151925Y-122649110D01*
X66558669Y-122480631D01*
X66924729Y-122236038D01*
X67236038Y-121924729D01*
X67480631Y-121558669D01*
X67649110Y-121151925D01*
X67735000Y-120720128D01*
X67735000Y-120279872D01*
X67699222Y-120100000D01*
X99011928Y-120100000D01*
X99011928Y-122900000D01*
X99024188Y-123024482D01*
X99060498Y-123144180D01*
X99119463Y-123254494D01*
X99198815Y-123351185D01*
X99295506Y-123430537D01*
X99405820Y-123489502D01*
X99525518Y-123525812D01*
X99650000Y-123538072D01*
X100850000Y-123538072D01*
X100974482Y-123525812D01*
X101094180Y-123489502D01*
X101204494Y-123430537D01*
X101301185Y-123351185D01*
X101380537Y-123254494D01*
X101439502Y-123144180D01*
X101475812Y-123024482D01*
X101488072Y-122900000D01*
X101488072Y-121700000D01*
X104961928Y-121700000D01*
X104961928Y-122900000D01*
X104974188Y-123024482D01*
X105010498Y-123144180D01*
X105069463Y-123254494D01*
X105148815Y-123351185D01*
X105245506Y-123430537D01*
X105355820Y-123489502D01*
X105475518Y-123525812D01*
X105600000Y-123538072D01*
X108400000Y-123538072D01*
X108524482Y-123525812D01*
X108644180Y-123489502D01*
X108754494Y-123430537D01*
X108851185Y-123351185D01*
X108930537Y-123254494D01*
X108989502Y-123144180D01*
X109025812Y-123024482D01*
X109038072Y-122900000D01*
X109038072Y-121700000D01*
X109025812Y-121575518D01*
X108989502Y-121455820D01*
X108930537Y-121345506D01*
X108851185Y-121248815D01*
X108754494Y-121169463D01*
X108644180Y-121110498D01*
X108524482Y-121074188D01*
X108400000Y-121061928D01*
X105600000Y-121061928D01*
X105475518Y-121074188D01*
X105355820Y-121110498D01*
X105245506Y-121169463D01*
X105148815Y-121248815D01*
X105069463Y-121345506D01*
X105010498Y-121455820D01*
X104974188Y-121575518D01*
X104961928Y-121700000D01*
X101488072Y-121700000D01*
X101488072Y-120100000D01*
X112511928Y-120100000D01*
X112511928Y-122900000D01*
X112524188Y-123024482D01*
X112560498Y-123144180D01*
X112619463Y-123254494D01*
X112698815Y-123351185D01*
X112795506Y-123430537D01*
X112905820Y-123489502D01*
X113025518Y-123525812D01*
X113150000Y-123538072D01*
X114350000Y-123538072D01*
X114474482Y-123525812D01*
X114594180Y-123489502D01*
X114704494Y-123430537D01*
X114801185Y-123351185D01*
X114880537Y-123254494D01*
X114939502Y-123144180D01*
X114975812Y-123024482D01*
X114988072Y-122900000D01*
X114988072Y-120279872D01*
X152265000Y-120279872D01*
X152265000Y-120720128D01*
X152350890Y-121151925D01*
X152519369Y-121558669D01*
X152763962Y-121924729D01*
X153075271Y-122236038D01*
X153441331Y-122480631D01*
X153848075Y-122649110D01*
X154279872Y-122735000D01*
X154720128Y-122735000D01*
X155151925Y-122649110D01*
X155558669Y-122480631D01*
X155924729Y-122236038D01*
X156236038Y-121924729D01*
X156480631Y-121558669D01*
X156649110Y-121151925D01*
X156735000Y-120720128D01*
X156735000Y-120279872D01*
X156649110Y-119848075D01*
X156480631Y-119441331D01*
X156236038Y-119075271D01*
X155924729Y-118763962D01*
X155558669Y-118519369D01*
X155151925Y-118350890D01*
X154720128Y-118265000D01*
X154279872Y-118265000D01*
X153848075Y-118350890D01*
X153441331Y-118519369D01*
X153075271Y-118763962D01*
X152763962Y-119075271D01*
X152519369Y-119441331D01*
X152350890Y-119848075D01*
X152265000Y-120279872D01*
X114988072Y-120279872D01*
X114988072Y-120100000D01*
X114975812Y-119975518D01*
X114939502Y-119855820D01*
X114880537Y-119745506D01*
X114801185Y-119648815D01*
X114704494Y-119569463D01*
X114594180Y-119510498D01*
X114474482Y-119474188D01*
X114350000Y-119461928D01*
X113150000Y-119461928D01*
X113025518Y-119474188D01*
X112905820Y-119510498D01*
X112795506Y-119569463D01*
X112698815Y-119648815D01*
X112619463Y-119745506D01*
X112560498Y-119855820D01*
X112524188Y-119975518D01*
X112511928Y-120100000D01*
X101488072Y-120100000D01*
X101475812Y-119975518D01*
X101439502Y-119855820D01*
X101380537Y-119745506D01*
X101301185Y-119648815D01*
X101204494Y-119569463D01*
X101094180Y-119510498D01*
X100974482Y-119474188D01*
X100850000Y-119461928D01*
X99650000Y-119461928D01*
X99525518Y-119474188D01*
X99405820Y-119510498D01*
X99295506Y-119569463D01*
X99198815Y-119648815D01*
X99119463Y-119745506D01*
X99060498Y-119855820D01*
X99024188Y-119975518D01*
X99011928Y-120100000D01*
X67699222Y-120100000D01*
X67649110Y-119848075D01*
X67480631Y-119441331D01*
X67236038Y-119075271D01*
X66924729Y-118763962D01*
X66558669Y-118519369D01*
X66151925Y-118350890D01*
X65720128Y-118265000D01*
X65279872Y-118265000D01*
X64848075Y-118350890D01*
X64441331Y-118519369D01*
X64075271Y-118763962D01*
X63763962Y-119075271D01*
X63519369Y-119441331D01*
X63350890Y-119848075D01*
X63265000Y-120279872D01*
X60710000Y-120279872D01*
X60710000Y-70212100D01*
X61347224Y-70212100D01*
X61350901Y-70249432D01*
X61350900Y-82879578D01*
X61347224Y-82916900D01*
X61350900Y-82954222D01*
X61350900Y-82954232D01*
X61361897Y-83065885D01*
X61396535Y-83180074D01*
X61405354Y-83209146D01*
X61475926Y-83341176D01*
X61493837Y-83363000D01*
X61570899Y-83456901D01*
X61599903Y-83480704D01*
X71126357Y-93007160D01*
X71051068Y-93098899D01*
X70917818Y-93348192D01*
X70835764Y-93618691D01*
X70808057Y-93900000D01*
X70835764Y-94181309D01*
X70917818Y-94451808D01*
X71051068Y-94701101D01*
X71230392Y-94919608D01*
X71448899Y-95098932D01*
X71511160Y-95132211D01*
X71500997Y-95165714D01*
X71496058Y-95215861D01*
X71448899Y-95241068D01*
X71230392Y-95420392D01*
X71051068Y-95638899D01*
X70917818Y-95888192D01*
X70835764Y-96158691D01*
X70808057Y-96440000D01*
X70835764Y-96721309D01*
X70917818Y-96991808D01*
X71051068Y-97241101D01*
X71230392Y-97459608D01*
X71448899Y-97638932D01*
X71581858Y-97710000D01*
X71448899Y-97781068D01*
X71230392Y-97960392D01*
X71051068Y-98178899D01*
X70917818Y-98428192D01*
X70835764Y-98698691D01*
X70808057Y-98980000D01*
X70835764Y-99261309D01*
X70917818Y-99531808D01*
X71051068Y-99781101D01*
X71230392Y-99999608D01*
X71448899Y-100178932D01*
X71581858Y-100250000D01*
X71448899Y-100321068D01*
X71230392Y-100500392D01*
X71051068Y-100718899D01*
X70917818Y-100968192D01*
X70835764Y-101238691D01*
X70808057Y-101520000D01*
X70835764Y-101801309D01*
X70917818Y-102071808D01*
X71051068Y-102321101D01*
X71230392Y-102539608D01*
X71448899Y-102718932D01*
X71581858Y-102790000D01*
X71448899Y-102861068D01*
X71230392Y-103040392D01*
X71051068Y-103258899D01*
X70917818Y-103508192D01*
X70835764Y-103778691D01*
X70808057Y-104060000D01*
X70835764Y-104341309D01*
X70917818Y-104611808D01*
X71051068Y-104861101D01*
X71230392Y-105079608D01*
X71448899Y-105258932D01*
X71581858Y-105330000D01*
X71448899Y-105401068D01*
X71230392Y-105580392D01*
X71051068Y-105798899D01*
X70917818Y-106048192D01*
X70835764Y-106318691D01*
X70808057Y-106600000D01*
X70835764Y-106881309D01*
X70917818Y-107151808D01*
X71051068Y-107401101D01*
X71230392Y-107619608D01*
X71448899Y-107798932D01*
X71581858Y-107870000D01*
X71448899Y-107941068D01*
X71230392Y-108120392D01*
X71051068Y-108338899D01*
X70917818Y-108588192D01*
X70835764Y-108858691D01*
X70808057Y-109140000D01*
X70835764Y-109421309D01*
X70917818Y-109691808D01*
X71051068Y-109941101D01*
X71155701Y-110068597D01*
X70613702Y-110610597D01*
X70584699Y-110634399D01*
X70551379Y-110675000D01*
X70489726Y-110750124D01*
X70462096Y-110801816D01*
X70419154Y-110882154D01*
X70375697Y-111025415D01*
X70364700Y-111137068D01*
X70364700Y-111137078D01*
X70361024Y-111174400D01*
X70364700Y-111211723D01*
X70364701Y-114753468D01*
X70361024Y-114790800D01*
X70364701Y-114828133D01*
X70374296Y-114925546D01*
X70375698Y-114939785D01*
X70419154Y-115083046D01*
X70489726Y-115215076D01*
X70554871Y-115294454D01*
X70584700Y-115330801D01*
X70613698Y-115354599D01*
X71126312Y-115867214D01*
X71051068Y-115958899D01*
X70917818Y-116208192D01*
X70835764Y-116478691D01*
X70808057Y-116760000D01*
X70835764Y-117041309D01*
X70917818Y-117311808D01*
X71051068Y-117561101D01*
X71230392Y-117779608D01*
X71448899Y-117958932D01*
X71698192Y-118092182D01*
X71968691Y-118174236D01*
X72179508Y-118195000D01*
X72320492Y-118195000D01*
X72531309Y-118174236D01*
X72801808Y-118092182D01*
X73051101Y-117958932D01*
X73269608Y-117779608D01*
X73448932Y-117561101D01*
X73582182Y-117311808D01*
X73664236Y-117041309D01*
X73691943Y-116760000D01*
X73664236Y-116478691D01*
X73582182Y-116208192D01*
X73448932Y-115958899D01*
X73269608Y-115740392D01*
X73051101Y-115561068D01*
X73003942Y-115535861D01*
X72999003Y-115485714D01*
X72988840Y-115452211D01*
X73051101Y-115418932D01*
X73269608Y-115239608D01*
X73292370Y-115211872D01*
X73940105Y-115859608D01*
X73963899Y-115888601D01*
X73992892Y-115912395D01*
X73992896Y-115912399D01*
X74049557Y-115958899D01*
X74079624Y-115983574D01*
X74211653Y-116054146D01*
X74354914Y-116097603D01*
X74466567Y-116108600D01*
X74466576Y-116108600D01*
X74503899Y-116112276D01*
X74541222Y-116108600D01*
X86211051Y-116108600D01*
X86157818Y-116208192D01*
X86075764Y-116478691D01*
X86048057Y-116760000D01*
X86075764Y-117041309D01*
X86157818Y-117311808D01*
X86291068Y-117561101D01*
X86470392Y-117779608D01*
X86688899Y-117958932D01*
X86938192Y-118092182D01*
X87208691Y-118174236D01*
X87419508Y-118195000D01*
X87560492Y-118195000D01*
X87771309Y-118174236D01*
X88041808Y-118092182D01*
X88291101Y-117958932D01*
X88509608Y-117779608D01*
X88688932Y-117561101D01*
X88822182Y-117311808D01*
X88904236Y-117041309D01*
X88931943Y-116760000D01*
X88904236Y-116478691D01*
X88822182Y-116208192D01*
X88727355Y-116030783D01*
X88815676Y-115983574D01*
X88931401Y-115888601D01*
X88955204Y-115859597D01*
X89142201Y-115672600D01*
X91811928Y-115672600D01*
X91811928Y-117050000D01*
X91824188Y-117174482D01*
X91860498Y-117294180D01*
X91919463Y-117404494D01*
X91998815Y-117501185D01*
X92095506Y-117580537D01*
X92205820Y-117639502D01*
X92325518Y-117675812D01*
X92450000Y-117688072D01*
X94050000Y-117688072D01*
X94174482Y-117675812D01*
X94294180Y-117639502D01*
X94404494Y-117580537D01*
X94501185Y-117501185D01*
X94580537Y-117404494D01*
X94639502Y-117294180D01*
X94675812Y-117174482D01*
X94688072Y-117050000D01*
X94688072Y-115862408D01*
X102203000Y-115862408D01*
X102203000Y-116137592D01*
X102256686Y-116407490D01*
X102361995Y-116661727D01*
X102514880Y-116890535D01*
X102709465Y-117085120D01*
X102938273Y-117238005D01*
X102967231Y-117250000D01*
X102938273Y-117261995D01*
X102709465Y-117414880D01*
X102514880Y-117609465D01*
X102361995Y-117838273D01*
X102256686Y-118092510D01*
X102203000Y-118362408D01*
X102203000Y-118637592D01*
X102256686Y-118907490D01*
X102361995Y-119161727D01*
X102514880Y-119390535D01*
X102709465Y-119585120D01*
X102938273Y-119738005D01*
X103192510Y-119843314D01*
X103462408Y-119897000D01*
X103737592Y-119897000D01*
X104007490Y-119843314D01*
X104261727Y-119738005D01*
X104490535Y-119585120D01*
X104650000Y-119425655D01*
X104809465Y-119585120D01*
X105038273Y-119738005D01*
X105292510Y-119843314D01*
X105562408Y-119897000D01*
X105837592Y-119897000D01*
X106107490Y-119843314D01*
X106361727Y-119738005D01*
X106590535Y-119585120D01*
X106785120Y-119390535D01*
X106938005Y-119161727D01*
X107000000Y-119012059D01*
X107061995Y-119161727D01*
X107214880Y-119390535D01*
X107409465Y-119585120D01*
X107638273Y-119738005D01*
X107892510Y-119843314D01*
X108162408Y-119897000D01*
X108437592Y-119897000D01*
X108707490Y-119843314D01*
X108961727Y-119738005D01*
X109190535Y-119585120D01*
X109310090Y-119465565D01*
X109614040Y-119465565D01*
X109681020Y-119705656D01*
X109930048Y-119822756D01*
X110197135Y-119889023D01*
X110472017Y-119901910D01*
X110744133Y-119860922D01*
X111003023Y-119767636D01*
X111118980Y-119705656D01*
X111185960Y-119465565D01*
X110400000Y-118679605D01*
X109614040Y-119465565D01*
X109310090Y-119465565D01*
X109385120Y-119390535D01*
X109496396Y-119223999D01*
X110220395Y-118500000D01*
X110579605Y-118500000D01*
X111365565Y-119285960D01*
X111605656Y-119218980D01*
X111722756Y-118969952D01*
X111789023Y-118702865D01*
X111801910Y-118427983D01*
X111760922Y-118155867D01*
X111667636Y-117896977D01*
X111605656Y-117781020D01*
X111365565Y-117714040D01*
X110579605Y-118500000D01*
X110220395Y-118500000D01*
X109496396Y-117776001D01*
X109385120Y-117609465D01*
X109190535Y-117414880D01*
X108961727Y-117261995D01*
X108707490Y-117156686D01*
X108437592Y-117103000D01*
X108162408Y-117103000D01*
X107892510Y-117156686D01*
X107638273Y-117261995D01*
X107409465Y-117414880D01*
X107214880Y-117609465D01*
X107061995Y-117838273D01*
X107000000Y-117987941D01*
X106938005Y-117838273D01*
X106785120Y-117609465D01*
X106590535Y-117414880D01*
X106361727Y-117261995D01*
X106107490Y-117156686D01*
X105837592Y-117103000D01*
X105562408Y-117103000D01*
X105292510Y-117156686D01*
X105038273Y-117261995D01*
X104809465Y-117414880D01*
X104650000Y-117574345D01*
X104490535Y-117414880D01*
X104261727Y-117261995D01*
X104232769Y-117250000D01*
X104261727Y-117238005D01*
X104490535Y-117085120D01*
X104685120Y-116890535D01*
X104838005Y-116661727D01*
X104943314Y-116407490D01*
X104997000Y-116137592D01*
X104997000Y-115862408D01*
X109003000Y-115862408D01*
X109003000Y-116137592D01*
X109056686Y-116407490D01*
X109161995Y-116661727D01*
X109314880Y-116890535D01*
X109509465Y-117085120D01*
X109738273Y-117238005D01*
X109765401Y-117249242D01*
X109681020Y-117294344D01*
X109614040Y-117534435D01*
X110400000Y-118320395D01*
X111185960Y-117534435D01*
X111118980Y-117294344D01*
X111028467Y-117251782D01*
X111061727Y-117238005D01*
X111290535Y-117085120D01*
X111485120Y-116890535D01*
X111638005Y-116661727D01*
X111743314Y-116407490D01*
X111797000Y-116137592D01*
X111797000Y-115862408D01*
X111743314Y-115592510D01*
X111638005Y-115338273D01*
X111485120Y-115109465D01*
X111290535Y-114914880D01*
X111061727Y-114761995D01*
X110807490Y-114656686D01*
X110537592Y-114603000D01*
X110262408Y-114603000D01*
X109992510Y-114656686D01*
X109738273Y-114761995D01*
X109509465Y-114914880D01*
X109314880Y-115109465D01*
X109161995Y-115338273D01*
X109056686Y-115592510D01*
X109003000Y-115862408D01*
X104997000Y-115862408D01*
X104943314Y-115592510D01*
X104838005Y-115338273D01*
X104685120Y-115109465D01*
X104490535Y-114914880D01*
X104261727Y-114761995D01*
X104007490Y-114656686D01*
X103737592Y-114603000D01*
X103462408Y-114603000D01*
X103192510Y-114656686D01*
X102938273Y-114761995D01*
X102709465Y-114914880D01*
X102514880Y-115109465D01*
X102361995Y-115338273D01*
X102256686Y-115592510D01*
X102203000Y-115862408D01*
X94688072Y-115862408D01*
X94688072Y-115450000D01*
X94675812Y-115325518D01*
X94639502Y-115205820D01*
X94580537Y-115095506D01*
X94573802Y-115087299D01*
X94915704Y-114745398D01*
X94944701Y-114721601D01*
X94983971Y-114673750D01*
X95039674Y-114605877D01*
X95110246Y-114473847D01*
X95132162Y-114401598D01*
X95153703Y-114330586D01*
X95164700Y-114218933D01*
X95164700Y-114218924D01*
X95168376Y-114181601D01*
X95164700Y-114144278D01*
X95164700Y-111930000D01*
X97807378Y-111930000D01*
X97844700Y-111933676D01*
X97882022Y-111930000D01*
X97882033Y-111930000D01*
X97993686Y-111919003D01*
X98136947Y-111875546D01*
X98268976Y-111804974D01*
X98384701Y-111710001D01*
X98408504Y-111680997D01*
X107827630Y-102261872D01*
X107850392Y-102289608D01*
X108068899Y-102468932D01*
X108318192Y-102602182D01*
X108588691Y-102684236D01*
X108799508Y-102705000D01*
X108940492Y-102705000D01*
X109151309Y-102684236D01*
X109421808Y-102602182D01*
X109671101Y-102468932D01*
X109889608Y-102289608D01*
X110068932Y-102071101D01*
X110202182Y-101821808D01*
X110284236Y-101551309D01*
X110311943Y-101270000D01*
X110284236Y-100988691D01*
X110202182Y-100718192D01*
X110068932Y-100468899D01*
X109889608Y-100250392D01*
X109671101Y-100071068D01*
X109538142Y-100000000D01*
X109671101Y-99928932D01*
X109889608Y-99749608D01*
X110068932Y-99531101D01*
X110202182Y-99281808D01*
X110284236Y-99011309D01*
X110311943Y-98730000D01*
X110284236Y-98448691D01*
X110202182Y-98178192D01*
X110068932Y-97928899D01*
X109889608Y-97710392D01*
X109671101Y-97531068D01*
X109538142Y-97460000D01*
X109671101Y-97388932D01*
X109889608Y-97209608D01*
X110068932Y-96991101D01*
X110202182Y-96741808D01*
X110284236Y-96471309D01*
X110311943Y-96190000D01*
X110284236Y-95908691D01*
X110202182Y-95638192D01*
X110068932Y-95388899D01*
X109993643Y-95297159D01*
X110508204Y-94782598D01*
X110537201Y-94758801D01*
X110632174Y-94643076D01*
X110702746Y-94511047D01*
X110746203Y-94367786D01*
X110757200Y-94256133D01*
X110757200Y-94256124D01*
X110760876Y-94218801D01*
X110757200Y-94181478D01*
X110757200Y-88115723D01*
X110760876Y-88078400D01*
X110757200Y-88041077D01*
X110757200Y-88041067D01*
X110746203Y-87929414D01*
X110702746Y-87786153D01*
X110632174Y-87654124D01*
X110537201Y-87538399D01*
X110508202Y-87514601D01*
X109958844Y-86965243D01*
X110068932Y-86831101D01*
X110202182Y-86581808D01*
X110284236Y-86311309D01*
X110311943Y-86030000D01*
X110284236Y-85748691D01*
X110202182Y-85478192D01*
X110068932Y-85228899D01*
X109889608Y-85010392D01*
X109671101Y-84831068D01*
X109533318Y-84757421D01*
X109725131Y-84642385D01*
X109933519Y-84453414D01*
X110101037Y-84227420D01*
X110221246Y-83973087D01*
X110261904Y-83839039D01*
X110139915Y-83617000D01*
X108997000Y-83617000D01*
X108997000Y-83637000D01*
X108743000Y-83637000D01*
X108743000Y-83617000D01*
X108723000Y-83617000D01*
X108723000Y-83363000D01*
X108743000Y-83363000D01*
X108743000Y-83343000D01*
X108997000Y-83343000D01*
X108997000Y-83363000D01*
X110139915Y-83363000D01*
X110261904Y-83140961D01*
X110221246Y-83006913D01*
X110208526Y-82980000D01*
X110518578Y-82980000D01*
X110555900Y-82983676D01*
X110593222Y-82980000D01*
X110593233Y-82980000D01*
X110704886Y-82969003D01*
X110848147Y-82925546D01*
X110980176Y-82854974D01*
X111095901Y-82760001D01*
X111119704Y-82730997D01*
X116114929Y-77735773D01*
X116158645Y-77775178D01*
X116408748Y-77924157D01*
X116683109Y-78021481D01*
X116913000Y-77900814D01*
X116913000Y-76707000D01*
X117167000Y-76707000D01*
X117167000Y-77900814D01*
X117396891Y-78021481D01*
X117671252Y-77924157D01*
X117921355Y-77775178D01*
X118137588Y-77580269D01*
X118311641Y-77346920D01*
X118436825Y-77084099D01*
X118481476Y-76936890D01*
X118360155Y-76707000D01*
X117167000Y-76707000D01*
X116913000Y-76707000D01*
X116893000Y-76707000D01*
X116893000Y-76453000D01*
X116913000Y-76453000D01*
X116913000Y-76433000D01*
X117167000Y-76433000D01*
X117167000Y-76453000D01*
X118360155Y-76453000D01*
X118481476Y-76223110D01*
X118436825Y-76075901D01*
X118311641Y-75813080D01*
X118137588Y-75579731D01*
X117921355Y-75384822D01*
X117804477Y-75315201D01*
X117869014Y-75280706D01*
X118095134Y-75095134D01*
X118280706Y-74869014D01*
X118418599Y-74611034D01*
X118503513Y-74331111D01*
X118532185Y-74040000D01*
X118503513Y-73748889D01*
X118418599Y-73468966D01*
X118280706Y-73210986D01*
X118095134Y-72984866D01*
X117869014Y-72799294D01*
X117814209Y-72770000D01*
X117869014Y-72740706D01*
X118095134Y-72555134D01*
X118280706Y-72329014D01*
X118418599Y-72071034D01*
X118503513Y-71791111D01*
X118532185Y-71500000D01*
X118503513Y-71208889D01*
X118418599Y-70928966D01*
X118280706Y-70670986D01*
X118209893Y-70584700D01*
X122261928Y-70584700D01*
X122261928Y-71850000D01*
X122274188Y-71974482D01*
X122310498Y-72094180D01*
X122369463Y-72204494D01*
X122448815Y-72301185D01*
X122545506Y-72380537D01*
X122655820Y-72439502D01*
X122724687Y-72460393D01*
X122694866Y-72484866D01*
X122509294Y-72710986D01*
X122371401Y-72968966D01*
X122286487Y-73248889D01*
X122257815Y-73540000D01*
X122286487Y-73831111D01*
X122371401Y-74111034D01*
X122509294Y-74369014D01*
X122694866Y-74595134D01*
X122920986Y-74780706D01*
X122975791Y-74810000D01*
X122920986Y-74839294D01*
X122694866Y-75024866D01*
X122509294Y-75250986D01*
X122371401Y-75508966D01*
X122286487Y-75788889D01*
X122257815Y-76080000D01*
X122286487Y-76371111D01*
X122371401Y-76651034D01*
X122509294Y-76909014D01*
X122694866Y-77135134D01*
X122920986Y-77320706D01*
X122975791Y-77350000D01*
X122920986Y-77379294D01*
X122694866Y-77564866D01*
X122509294Y-77790986D01*
X122371401Y-78048966D01*
X122286487Y-78328889D01*
X122257815Y-78620000D01*
X122286487Y-78911111D01*
X122371401Y-79191034D01*
X122509294Y-79449014D01*
X122694866Y-79675134D01*
X122920986Y-79860706D01*
X123178966Y-79998599D01*
X123458889Y-80083513D01*
X123677050Y-80105000D01*
X123822950Y-80105000D01*
X124041111Y-80083513D01*
X124321034Y-79998599D01*
X124579014Y-79860706D01*
X124658540Y-79795441D01*
X125169401Y-80306302D01*
X125193199Y-80335301D01*
X125222197Y-80359099D01*
X125308923Y-80430274D01*
X125440953Y-80500846D01*
X125584214Y-80544303D01*
X125695867Y-80555300D01*
X125695876Y-80555300D01*
X125733199Y-80558976D01*
X125770522Y-80555300D01*
X129777799Y-80555300D01*
X134388205Y-85165708D01*
X134411999Y-85194701D01*
X134440992Y-85218495D01*
X134440996Y-85218499D01*
X134502529Y-85268997D01*
X134527724Y-85289674D01*
X134659753Y-85360246D01*
X134803014Y-85403703D01*
X134914667Y-85414700D01*
X134914676Y-85414700D01*
X134951999Y-85418376D01*
X134989322Y-85414700D01*
X140363028Y-85414700D01*
X140358096Y-85430961D01*
X140480085Y-85653000D01*
X141623000Y-85653000D01*
X141623000Y-85633000D01*
X141877000Y-85633000D01*
X141877000Y-85653000D01*
X143019915Y-85653000D01*
X143141904Y-85430961D01*
X143136972Y-85414700D01*
X146804599Y-85414700D01*
X147680901Y-86291003D01*
X147704699Y-86320001D01*
X147820424Y-86414974D01*
X147952453Y-86485546D01*
X148095714Y-86529003D01*
X148145861Y-86533942D01*
X148171068Y-86581101D01*
X148350392Y-86799608D01*
X148568899Y-86978932D01*
X148647673Y-87021037D01*
X144885511Y-90783200D01*
X134778035Y-90783200D01*
X134732100Y-90778676D01*
X134548808Y-90796728D01*
X134372559Y-90850193D01*
X134348603Y-90862998D01*
X134210128Y-90937014D01*
X134067756Y-91053856D01*
X134038476Y-91089534D01*
X132157531Y-92970480D01*
X131951101Y-92801068D01*
X131701808Y-92667818D01*
X131431309Y-92585764D01*
X131220492Y-92565000D01*
X131079508Y-92565000D01*
X131040000Y-92568891D01*
X131040000Y-92105680D01*
X131043996Y-92107571D01*
X131318184Y-92176300D01*
X131600512Y-92190217D01*
X131880130Y-92148787D01*
X132146292Y-92053603D01*
X132271514Y-91986671D01*
X132343097Y-91742702D01*
X131530000Y-90929605D01*
X131515858Y-90943748D01*
X131336253Y-90764143D01*
X131350395Y-90750000D01*
X131709605Y-90750000D01*
X132522702Y-91563097D01*
X132766671Y-91491514D01*
X132887571Y-91236004D01*
X132956300Y-90961816D01*
X132970217Y-90679488D01*
X132928787Y-90399870D01*
X132833603Y-90133708D01*
X132766671Y-90008486D01*
X132522702Y-89936903D01*
X131709605Y-90750000D01*
X131350395Y-90750000D01*
X131336253Y-90735858D01*
X131515858Y-90556253D01*
X131530000Y-90570395D01*
X132343097Y-89757298D01*
X132271514Y-89513329D01*
X132016004Y-89392429D01*
X131741816Y-89323700D01*
X131459488Y-89309783D01*
X131179870Y-89351213D01*
X131040000Y-89401233D01*
X131040000Y-87540101D01*
X131841003Y-86739099D01*
X131870001Y-86715301D01*
X131964974Y-86599576D01*
X132035546Y-86467547D01*
X132079003Y-86324286D01*
X132083246Y-86281205D01*
X132159014Y-86240706D01*
X132295080Y-86129039D01*
X140358096Y-86129039D01*
X140398754Y-86263087D01*
X140518963Y-86517420D01*
X140686481Y-86743414D01*
X140894869Y-86932385D01*
X141136119Y-87077070D01*
X141400960Y-87171909D01*
X141623000Y-87050624D01*
X141623000Y-85907000D01*
X141877000Y-85907000D01*
X141877000Y-87050624D01*
X142099040Y-87171909D01*
X142363881Y-87077070D01*
X142605131Y-86932385D01*
X142813519Y-86743414D01*
X142981037Y-86517420D01*
X143101246Y-86263087D01*
X143141904Y-86129039D01*
X143019915Y-85907000D01*
X141877000Y-85907000D01*
X141623000Y-85907000D01*
X140480085Y-85907000D01*
X140358096Y-86129039D01*
X132295080Y-86129039D01*
X132385134Y-86055134D01*
X132570706Y-85829014D01*
X132708599Y-85571034D01*
X132793513Y-85291111D01*
X132822185Y-85000000D01*
X132793513Y-84708889D01*
X132708599Y-84428966D01*
X132570706Y-84170986D01*
X132385134Y-83944866D01*
X132159014Y-83759294D01*
X131901034Y-83621401D01*
X131621111Y-83536487D01*
X131402950Y-83515000D01*
X131257050Y-83515000D01*
X131038889Y-83536487D01*
X130758966Y-83621401D01*
X130500986Y-83759294D01*
X130274866Y-83944866D01*
X130089294Y-84170986D01*
X130060000Y-84225791D01*
X130030706Y-84170986D01*
X129845134Y-83944866D01*
X129619014Y-83759294D01*
X129361034Y-83621401D01*
X129081111Y-83536487D01*
X128862950Y-83515000D01*
X128717050Y-83515000D01*
X128498889Y-83536487D01*
X128218966Y-83621401D01*
X127960986Y-83759294D01*
X127734866Y-83944866D01*
X127710393Y-83974687D01*
X127689502Y-83905820D01*
X127630537Y-83795506D01*
X127551185Y-83698815D01*
X127454494Y-83619463D01*
X127344180Y-83560498D01*
X127224482Y-83524188D01*
X127100000Y-83511928D01*
X125400000Y-83511928D01*
X125275518Y-83524188D01*
X125155820Y-83560498D01*
X125045506Y-83619463D01*
X124948815Y-83698815D01*
X124869463Y-83795506D01*
X124810498Y-83905820D01*
X124774188Y-84025518D01*
X124761928Y-84150000D01*
X124761928Y-85850000D01*
X124774188Y-85974482D01*
X124810498Y-86094180D01*
X124869463Y-86204494D01*
X124948815Y-86301185D01*
X125045506Y-86380537D01*
X125155820Y-86439502D01*
X125275518Y-86475812D01*
X125400000Y-86488072D01*
X127100000Y-86488072D01*
X127224482Y-86475812D01*
X127344180Y-86439502D01*
X127454494Y-86380537D01*
X127551185Y-86301185D01*
X127630537Y-86204494D01*
X127689502Y-86094180D01*
X127710393Y-86025313D01*
X127734866Y-86055134D01*
X127960986Y-86240706D01*
X128218966Y-86378599D01*
X128498889Y-86463513D01*
X128717050Y-86485000D01*
X128862950Y-86485000D01*
X129081111Y-86463513D01*
X129361034Y-86378599D01*
X129619014Y-86240706D01*
X129845134Y-86055134D01*
X130030706Y-85829014D01*
X130060000Y-85774209D01*
X130089294Y-85829014D01*
X130274866Y-86055134D01*
X130330064Y-86100434D01*
X129768998Y-86661501D01*
X129740000Y-86685299D01*
X129716202Y-86714297D01*
X129716201Y-86714298D01*
X129645026Y-86801024D01*
X129574454Y-86933054D01*
X129556361Y-86992702D01*
X129530998Y-87076314D01*
X129520001Y-87187967D01*
X129516324Y-87225300D01*
X129520001Y-87262632D01*
X129520001Y-89399733D01*
X129448574Y-89370147D01*
X129171335Y-89315000D01*
X128888665Y-89315000D01*
X128611426Y-89370147D01*
X128350273Y-89478320D01*
X128115241Y-89635363D01*
X127935604Y-89815000D01*
X118795931Y-89815000D01*
X118749999Y-89810476D01*
X118566707Y-89828529D01*
X118544581Y-89835241D01*
X118390460Y-89881993D01*
X118228028Y-89968814D01*
X118085656Y-90085656D01*
X118056374Y-90121336D01*
X114862711Y-93315000D01*
X114608665Y-93315000D01*
X114331426Y-93370147D01*
X114070273Y-93478320D01*
X113835241Y-93635363D01*
X113635363Y-93835241D01*
X113478320Y-94070273D01*
X113370147Y-94331426D01*
X113315000Y-94608665D01*
X113315000Y-94891335D01*
X113370147Y-95168574D01*
X113478320Y-95429727D01*
X113635363Y-95664759D01*
X113835241Y-95864637D01*
X114070273Y-96021680D01*
X114331426Y-96129853D01*
X114608665Y-96185000D01*
X114891335Y-96185000D01*
X115168574Y-96129853D01*
X115429727Y-96021680D01*
X115664759Y-95864637D01*
X115864637Y-95664759D01*
X116021680Y-95429727D01*
X116129853Y-95168574D01*
X116185000Y-94891335D01*
X116185000Y-94637289D01*
X119137290Y-91685000D01*
X127935604Y-91685000D01*
X128115241Y-91864637D01*
X128350273Y-92021680D01*
X128611426Y-92129853D01*
X128888665Y-92185000D01*
X129171335Y-92185000D01*
X129448574Y-92129853D01*
X129520000Y-92100267D01*
X129520000Y-92963599D01*
X129499098Y-92984501D01*
X129470100Y-93008299D01*
X129446302Y-93037297D01*
X129446301Y-93037298D01*
X129375126Y-93124024D01*
X129304554Y-93256054D01*
X129280408Y-93335656D01*
X129261098Y-93399314D01*
X129253127Y-93480245D01*
X129246424Y-93548300D01*
X129250101Y-93585632D01*
X129250100Y-99550277D01*
X129246424Y-99587600D01*
X129250100Y-99624922D01*
X129250100Y-99624932D01*
X129261097Y-99736585D01*
X129292163Y-99838996D01*
X129304554Y-99879846D01*
X129375126Y-100011876D01*
X129412777Y-100057753D01*
X129470099Y-100127601D01*
X129499102Y-100151403D01*
X130048218Y-100700521D01*
X129951068Y-100818899D01*
X129929099Y-100860000D01*
X124750901Y-100860000D01*
X124728932Y-100818899D01*
X124549608Y-100600392D01*
X124331101Y-100421068D01*
X124198142Y-100350000D01*
X124331101Y-100278932D01*
X124549608Y-100099608D01*
X124728932Y-99881101D01*
X124862182Y-99631808D01*
X124944236Y-99361309D01*
X124971943Y-99080000D01*
X124944236Y-98798691D01*
X124862182Y-98528192D01*
X124728932Y-98278899D01*
X124549608Y-98060392D01*
X124331101Y-97881068D01*
X124198142Y-97810000D01*
X124331101Y-97738932D01*
X124549608Y-97559608D01*
X124728932Y-97341101D01*
X124862182Y-97091808D01*
X124944236Y-96821309D01*
X124971943Y-96540000D01*
X124944236Y-96258691D01*
X124862182Y-95988192D01*
X124728932Y-95738899D01*
X124549608Y-95520392D01*
X124436518Y-95427581D01*
X124454482Y-95425812D01*
X124574180Y-95389502D01*
X124684494Y-95330537D01*
X124781185Y-95251185D01*
X124860537Y-95154494D01*
X124919502Y-95044180D01*
X124955812Y-94924482D01*
X124968072Y-94800000D01*
X124968072Y-93200000D01*
X124955812Y-93075518D01*
X124919502Y-92955820D01*
X124860537Y-92845506D01*
X124781185Y-92748815D01*
X124684494Y-92669463D01*
X124574180Y-92610498D01*
X124454482Y-92574188D01*
X124330000Y-92561928D01*
X122730000Y-92561928D01*
X122605518Y-92574188D01*
X122485820Y-92610498D01*
X122375506Y-92669463D01*
X122278815Y-92748815D01*
X122199463Y-92845506D01*
X122140498Y-92955820D01*
X122104188Y-93075518D01*
X122091928Y-93200000D01*
X122091928Y-94800000D01*
X122104188Y-94924482D01*
X122140498Y-95044180D01*
X122199463Y-95154494D01*
X122278815Y-95251185D01*
X122375506Y-95330537D01*
X122485820Y-95389502D01*
X122605518Y-95425812D01*
X122623482Y-95427581D01*
X122510392Y-95520392D01*
X122331068Y-95738899D01*
X122197818Y-95988192D01*
X122115764Y-96258691D01*
X122088057Y-96540000D01*
X122115764Y-96821309D01*
X122197818Y-97091808D01*
X122331068Y-97341101D01*
X122510392Y-97559608D01*
X122728899Y-97738932D01*
X122861858Y-97810000D01*
X122728899Y-97881068D01*
X122510392Y-98060392D01*
X122331068Y-98278899D01*
X122197818Y-98528192D01*
X122115764Y-98798691D01*
X122088057Y-99080000D01*
X122115764Y-99361309D01*
X122197818Y-99631808D01*
X122331068Y-99881101D01*
X122510392Y-100099608D01*
X122728899Y-100278932D01*
X122861858Y-100350000D01*
X122728899Y-100421068D01*
X122510392Y-100600392D01*
X122331068Y-100818899D01*
X122197818Y-101068192D01*
X122115764Y-101338691D01*
X122088057Y-101620000D01*
X122115764Y-101901309D01*
X122197818Y-102171808D01*
X122331068Y-102421101D01*
X122510392Y-102639608D01*
X122728899Y-102818932D01*
X122861858Y-102890000D01*
X122728899Y-102961068D01*
X122510392Y-103140392D01*
X122331068Y-103358899D01*
X122197818Y-103608192D01*
X122115764Y-103878691D01*
X122088057Y-104160000D01*
X122115764Y-104441309D01*
X122197818Y-104711808D01*
X122331068Y-104961101D01*
X122510392Y-105179608D01*
X122728899Y-105358932D01*
X122861858Y-105430000D01*
X122728899Y-105501068D01*
X122510392Y-105680392D01*
X122331068Y-105898899D01*
X122197818Y-106148192D01*
X122115764Y-106418691D01*
X122088057Y-106700000D01*
X122115764Y-106981309D01*
X122197818Y-107251808D01*
X122331068Y-107501101D01*
X122510392Y-107719608D01*
X122728899Y-107898932D01*
X122866682Y-107972579D01*
X122674869Y-108087615D01*
X122466481Y-108276586D01*
X122298963Y-108502580D01*
X122275989Y-108551187D01*
X112390800Y-98665999D01*
X112390800Y-84616911D01*
X112417711Y-84590000D01*
X113308057Y-84590000D01*
X113335764Y-84871309D01*
X113417818Y-85141808D01*
X113551068Y-85391101D01*
X113730392Y-85609608D01*
X113948899Y-85788932D01*
X114198192Y-85922182D01*
X114468691Y-86004236D01*
X114679508Y-86025000D01*
X114820492Y-86025000D01*
X115031309Y-86004236D01*
X115301808Y-85922182D01*
X115551101Y-85788932D01*
X115769608Y-85609608D01*
X115948932Y-85391101D01*
X116082182Y-85141808D01*
X116164236Y-84871309D01*
X116191943Y-84590000D01*
X116164236Y-84308691D01*
X116082182Y-84038192D01*
X115948932Y-83788899D01*
X115769608Y-83570392D01*
X115551101Y-83391068D01*
X115301808Y-83257818D01*
X115031309Y-83175764D01*
X114820492Y-83155000D01*
X114679508Y-83155000D01*
X114468691Y-83175764D01*
X114198192Y-83257818D01*
X113948899Y-83391068D01*
X113730392Y-83570392D01*
X113551068Y-83788899D01*
X113417818Y-84038192D01*
X113335764Y-84308691D01*
X113308057Y-84590000D01*
X112417711Y-84590000D01*
X112434737Y-84572974D01*
X112548005Y-84403456D01*
X112626026Y-84215098D01*
X112665800Y-84015139D01*
X112665800Y-83811261D01*
X112626026Y-83611302D01*
X112548005Y-83422944D01*
X112434737Y-83253426D01*
X112290574Y-83109263D01*
X112121056Y-82995995D01*
X111932698Y-82917974D01*
X111732739Y-82878200D01*
X111528861Y-82878200D01*
X111328902Y-82917974D01*
X111140544Y-82995995D01*
X110971026Y-83109263D01*
X110826863Y-83253426D01*
X110713595Y-83422944D01*
X110635574Y-83611302D01*
X110595800Y-83811261D01*
X110595800Y-84015139D01*
X110635574Y-84215098D01*
X110713595Y-84403456D01*
X110826863Y-84572974D01*
X110870800Y-84616911D01*
X110870801Y-98943467D01*
X110867124Y-98980800D01*
X110870801Y-99018133D01*
X110881798Y-99129786D01*
X110894980Y-99173242D01*
X110925254Y-99273046D01*
X110995826Y-99405076D01*
X111065522Y-99490000D01*
X111090800Y-99520801D01*
X111119798Y-99544599D01*
X126106054Y-114530857D01*
X126048889Y-114536487D01*
X125768966Y-114621401D01*
X125510986Y-114759294D01*
X125284866Y-114944866D01*
X125099294Y-115170986D01*
X125070000Y-115225791D01*
X125040706Y-115170986D01*
X124855134Y-114944866D01*
X124629014Y-114759294D01*
X124371034Y-114621401D01*
X124091111Y-114536487D01*
X123872950Y-114515000D01*
X123727050Y-114515000D01*
X123508889Y-114536487D01*
X123228966Y-114621401D01*
X122970986Y-114759294D01*
X122744866Y-114944866D01*
X122559294Y-115170986D01*
X122421401Y-115428966D01*
X122336487Y-115708889D01*
X122307815Y-116000000D01*
X122336487Y-116291111D01*
X122421401Y-116571034D01*
X122559294Y-116829014D01*
X122744866Y-117055134D01*
X122970986Y-117240706D01*
X123228966Y-117378599D01*
X123508889Y-117463513D01*
X123727050Y-117485000D01*
X123872950Y-117485000D01*
X124091111Y-117463513D01*
X124371034Y-117378599D01*
X124629014Y-117240706D01*
X124855134Y-117055134D01*
X125040706Y-116829014D01*
X125070000Y-116774209D01*
X125099294Y-116829014D01*
X125284866Y-117055134D01*
X125510986Y-117240706D01*
X125768966Y-117378599D01*
X126048889Y-117463513D01*
X126267050Y-117485000D01*
X126412950Y-117485000D01*
X126631111Y-117463513D01*
X126911034Y-117378599D01*
X127169014Y-117240706D01*
X127395134Y-117055134D01*
X127580706Y-116829014D01*
X127610000Y-116774209D01*
X127639294Y-116829014D01*
X127824866Y-117055134D01*
X128050986Y-117240706D01*
X128308966Y-117378599D01*
X128588889Y-117463513D01*
X128807050Y-117485000D01*
X128952950Y-117485000D01*
X129171111Y-117463513D01*
X129451034Y-117378599D01*
X129709014Y-117240706D01*
X129935134Y-117055134D01*
X130120706Y-116829014D01*
X130150000Y-116774209D01*
X130179294Y-116829014D01*
X130364866Y-117055134D01*
X130590986Y-117240706D01*
X130848966Y-117378599D01*
X131128889Y-117463513D01*
X131347050Y-117485000D01*
X131492950Y-117485000D01*
X131711111Y-117463513D01*
X131991034Y-117378599D01*
X132249014Y-117240706D01*
X132475134Y-117055134D01*
X132660706Y-116829014D01*
X132690000Y-116774209D01*
X132719294Y-116829014D01*
X132904866Y-117055134D01*
X133130986Y-117240706D01*
X133388966Y-117378599D01*
X133668889Y-117463513D01*
X133887050Y-117485000D01*
X134032950Y-117485000D01*
X134251111Y-117463513D01*
X134531034Y-117378599D01*
X134789014Y-117240706D01*
X135015134Y-117055134D01*
X135039607Y-117025313D01*
X135060498Y-117094180D01*
X135119463Y-117204494D01*
X135198815Y-117301185D01*
X135295506Y-117380537D01*
X135405820Y-117439502D01*
X135525518Y-117475812D01*
X135650000Y-117488072D01*
X136214250Y-117485000D01*
X136373000Y-117326250D01*
X136373000Y-116127000D01*
X136627000Y-116127000D01*
X136627000Y-117326250D01*
X136785750Y-117485000D01*
X137350000Y-117488072D01*
X137474482Y-117475812D01*
X137594180Y-117439502D01*
X137704494Y-117380537D01*
X137801185Y-117301185D01*
X137880537Y-117204494D01*
X137939502Y-117094180D01*
X137975812Y-116974482D01*
X137988072Y-116850000D01*
X137985000Y-116285750D01*
X137826250Y-116127000D01*
X136627000Y-116127000D01*
X136373000Y-116127000D01*
X136353000Y-116127000D01*
X136353000Y-115873000D01*
X136373000Y-115873000D01*
X136373000Y-114673750D01*
X136627000Y-114673750D01*
X136627000Y-115873000D01*
X137826250Y-115873000D01*
X137985000Y-115714250D01*
X137988072Y-115150000D01*
X137975812Y-115025518D01*
X137939502Y-114905820D01*
X137880537Y-114795506D01*
X137801185Y-114698815D01*
X137704494Y-114619463D01*
X137594180Y-114560498D01*
X137474482Y-114524188D01*
X137350000Y-114511928D01*
X136785750Y-114515000D01*
X136627000Y-114673750D01*
X136373000Y-114673750D01*
X136214250Y-114515000D01*
X135650000Y-114511928D01*
X135525518Y-114524188D01*
X135405820Y-114560498D01*
X135295506Y-114619463D01*
X135198815Y-114698815D01*
X135119463Y-114795506D01*
X135060498Y-114905820D01*
X135039607Y-114974687D01*
X135015134Y-114944866D01*
X134789014Y-114759294D01*
X134531034Y-114621401D01*
X134251111Y-114536487D01*
X134032950Y-114515000D01*
X133887050Y-114515000D01*
X133668889Y-114536487D01*
X133388966Y-114621401D01*
X133130986Y-114759294D01*
X132904866Y-114944866D01*
X132719294Y-115170986D01*
X132690000Y-115225791D01*
X132660706Y-115170986D01*
X132475134Y-114944866D01*
X132249014Y-114759294D01*
X131991034Y-114621401D01*
X131711111Y-114536487D01*
X131492950Y-114515000D01*
X131347050Y-114515000D01*
X131128889Y-114536487D01*
X130848966Y-114621401D01*
X130590986Y-114759294D01*
X130364866Y-114944866D01*
X130179294Y-115170986D01*
X130150000Y-115225791D01*
X130120706Y-115170986D01*
X129935134Y-114944866D01*
X129709014Y-114759294D01*
X129451034Y-114621401D01*
X129171111Y-114536487D01*
X128952950Y-114515000D01*
X128807050Y-114515000D01*
X128588889Y-114536487D01*
X128327624Y-114615741D01*
X128305350Y-114588600D01*
X128268499Y-114543696D01*
X128268495Y-114543692D01*
X128244701Y-114514699D01*
X128215710Y-114490907D01*
X125307505Y-111582702D01*
X137776903Y-111582702D01*
X137848486Y-111826671D01*
X138103996Y-111947571D01*
X138378184Y-112016300D01*
X138660512Y-112030217D01*
X138940130Y-111988787D01*
X139206292Y-111893603D01*
X139331514Y-111826671D01*
X139403097Y-111582702D01*
X138590000Y-110769605D01*
X137776903Y-111582702D01*
X125307505Y-111582702D01*
X124217638Y-110492836D01*
X124385131Y-110392385D01*
X124593519Y-110203414D01*
X124761037Y-109977420D01*
X124881246Y-109723087D01*
X124921904Y-109589039D01*
X124799915Y-109367000D01*
X123657000Y-109367000D01*
X123657000Y-109387000D01*
X123403000Y-109387000D01*
X123403000Y-109367000D01*
X123383000Y-109367000D01*
X123383000Y-109113000D01*
X123403000Y-109113000D01*
X123403000Y-109093000D01*
X123657000Y-109093000D01*
X123657000Y-109113000D01*
X124799915Y-109113000D01*
X124921904Y-108890961D01*
X124881246Y-108756913D01*
X124761037Y-108502580D01*
X124593519Y-108276586D01*
X124385131Y-108087615D01*
X124193318Y-107972579D01*
X124331101Y-107898932D01*
X124549608Y-107719608D01*
X124728932Y-107501101D01*
X124862182Y-107251808D01*
X124944236Y-106981309D01*
X124971943Y-106700000D01*
X124944236Y-106418691D01*
X124862182Y-106148192D01*
X124728932Y-105898899D01*
X124549608Y-105680392D01*
X124331101Y-105501068D01*
X124198142Y-105430000D01*
X124331101Y-105358932D01*
X124549608Y-105179608D01*
X124728932Y-104961101D01*
X124862182Y-104711808D01*
X124944236Y-104441309D01*
X124971943Y-104160000D01*
X124944236Y-103878691D01*
X124862182Y-103608192D01*
X124728932Y-103358899D01*
X124549608Y-103140392D01*
X124331101Y-102961068D01*
X124198142Y-102890000D01*
X124331101Y-102818932D01*
X124549608Y-102639608D01*
X124728932Y-102421101D01*
X124750901Y-102380000D01*
X129929099Y-102380000D01*
X129951068Y-102421101D01*
X130130392Y-102639608D01*
X130348899Y-102818932D01*
X130411160Y-102852211D01*
X130400997Y-102885714D01*
X130396058Y-102935861D01*
X130348899Y-102961068D01*
X130130392Y-103140392D01*
X129951068Y-103358899D01*
X129817818Y-103608192D01*
X129735764Y-103878691D01*
X129708057Y-104160000D01*
X129735764Y-104441309D01*
X129817818Y-104711808D01*
X129951068Y-104961101D01*
X130130392Y-105179608D01*
X130348899Y-105358932D01*
X130481858Y-105430000D01*
X130348899Y-105501068D01*
X130130392Y-105680392D01*
X129951068Y-105898899D01*
X129817818Y-106148192D01*
X129735764Y-106418691D01*
X129708057Y-106700000D01*
X129735764Y-106981309D01*
X129817818Y-107251808D01*
X129951068Y-107501101D01*
X130130392Y-107719608D01*
X130348899Y-107898932D01*
X130481858Y-107970000D01*
X130348899Y-108041068D01*
X130130392Y-108220392D01*
X129951068Y-108438899D01*
X129817818Y-108688192D01*
X129735764Y-108958691D01*
X129708057Y-109240000D01*
X129735764Y-109521309D01*
X129817818Y-109791808D01*
X129951068Y-110041101D01*
X130130392Y-110259608D01*
X130348899Y-110438932D01*
X130598192Y-110572182D01*
X130868691Y-110654236D01*
X131079508Y-110675000D01*
X131220492Y-110675000D01*
X131367588Y-110660512D01*
X137149783Y-110660512D01*
X137191213Y-110940130D01*
X137286397Y-111206292D01*
X137353329Y-111331514D01*
X137597298Y-111403097D01*
X138410395Y-110590000D01*
X138769605Y-110590000D01*
X139582702Y-111403097D01*
X139826671Y-111331514D01*
X139840324Y-111302659D01*
X139975363Y-111504759D01*
X140175241Y-111704637D01*
X140410273Y-111861680D01*
X140671426Y-111969853D01*
X140948665Y-112025000D01*
X141231335Y-112025000D01*
X141508574Y-111969853D01*
X141769727Y-111861680D01*
X142004759Y-111704637D01*
X142204637Y-111504759D01*
X142361680Y-111269727D01*
X142469853Y-111008574D01*
X142525000Y-110731335D01*
X142525000Y-110448665D01*
X142469853Y-110171426D01*
X142361680Y-109910273D01*
X142204637Y-109675241D01*
X142004759Y-109475363D01*
X141769727Y-109318320D01*
X141508574Y-109210147D01*
X141231335Y-109155000D01*
X140948665Y-109155000D01*
X140671426Y-109210147D01*
X140410273Y-109318320D01*
X140175241Y-109475363D01*
X139975363Y-109675241D01*
X139841308Y-109875869D01*
X139826671Y-109848486D01*
X139582702Y-109776903D01*
X138769605Y-110590000D01*
X138410395Y-110590000D01*
X137597298Y-109776903D01*
X137353329Y-109848486D01*
X137232429Y-110103996D01*
X137163700Y-110378184D01*
X137149783Y-110660512D01*
X131367588Y-110660512D01*
X131431309Y-110654236D01*
X131701808Y-110572182D01*
X131951101Y-110438932D01*
X132169608Y-110259608D01*
X132348932Y-110041101D01*
X132482182Y-109791808D01*
X132541185Y-109597298D01*
X137776903Y-109597298D01*
X138590000Y-110410395D01*
X139403097Y-109597298D01*
X139331514Y-109353329D01*
X139076004Y-109232429D01*
X138801816Y-109163700D01*
X138519488Y-109149783D01*
X138239870Y-109191213D01*
X137973708Y-109286397D01*
X137848486Y-109353329D01*
X137776903Y-109597298D01*
X132541185Y-109597298D01*
X132564236Y-109521309D01*
X132591943Y-109240000D01*
X132564236Y-108958691D01*
X132482182Y-108688192D01*
X132348932Y-108438899D01*
X132169608Y-108220392D01*
X131951101Y-108041068D01*
X131818142Y-107970000D01*
X131951101Y-107898932D01*
X132169608Y-107719608D01*
X132348932Y-107501101D01*
X132482182Y-107251808D01*
X132564236Y-106981309D01*
X132578285Y-106838665D01*
X136125000Y-106838665D01*
X136125000Y-107121335D01*
X136180147Y-107398574D01*
X136288320Y-107659727D01*
X136445363Y-107894759D01*
X136645241Y-108094637D01*
X136880273Y-108251680D01*
X137141426Y-108359853D01*
X137418665Y-108415000D01*
X137701335Y-108415000D01*
X137978574Y-108359853D01*
X138239727Y-108251680D01*
X138474759Y-108094637D01*
X138674637Y-107894759D01*
X138778043Y-107740000D01*
X139826491Y-107740000D01*
X139834699Y-107750001D01*
X139950424Y-107844974D01*
X140082453Y-107915546D01*
X140225714Y-107959003D01*
X140275861Y-107963942D01*
X140301068Y-108011101D01*
X140480392Y-108229608D01*
X140698899Y-108408932D01*
X140948192Y-108542182D01*
X141218691Y-108624236D01*
X141429508Y-108645000D01*
X141570492Y-108645000D01*
X141781309Y-108624236D01*
X142051808Y-108542182D01*
X142301101Y-108408932D01*
X142519608Y-108229608D01*
X142698932Y-108011101D01*
X142832182Y-107761808D01*
X142914236Y-107491309D01*
X142934063Y-107290000D01*
X146877089Y-107290000D01*
X146908657Y-107610516D01*
X147002148Y-107918715D01*
X147153969Y-108202752D01*
X147358286Y-108451714D01*
X147607248Y-108656031D01*
X147891285Y-108807852D01*
X148199484Y-108901343D01*
X148439678Y-108925000D01*
X149600322Y-108925000D01*
X149840516Y-108901343D01*
X150148715Y-108807852D01*
X150432752Y-108656031D01*
X150681714Y-108451714D01*
X150886031Y-108202752D01*
X151037852Y-107918715D01*
X151131343Y-107610516D01*
X151162911Y-107290000D01*
X151131343Y-106969484D01*
X151037852Y-106661285D01*
X150911555Y-106425000D01*
X151300322Y-106425000D01*
X151540516Y-106401343D01*
X151848715Y-106307852D01*
X152132752Y-106156031D01*
X152381714Y-105951714D01*
X152586031Y-105702752D01*
X152737852Y-105418715D01*
X152831343Y-105110516D01*
X152862911Y-104790000D01*
X152831343Y-104469484D01*
X152737852Y-104161285D01*
X152586031Y-103877248D01*
X152381714Y-103628286D01*
X152132752Y-103423969D01*
X151848715Y-103272148D01*
X151540516Y-103178657D01*
X151300322Y-103155000D01*
X150139678Y-103155000D01*
X149899484Y-103178657D01*
X149591285Y-103272148D01*
X149307248Y-103423969D01*
X149058286Y-103628286D01*
X148853969Y-103877248D01*
X148702148Y-104161285D01*
X148608657Y-104469484D01*
X148577089Y-104790000D01*
X148608657Y-105110516D01*
X148702148Y-105418715D01*
X148828445Y-105655000D01*
X148439678Y-105655000D01*
X148199484Y-105678657D01*
X147891285Y-105772148D01*
X147607248Y-105923969D01*
X147358286Y-106128286D01*
X147153969Y-106377248D01*
X147002148Y-106661285D01*
X146908657Y-106969484D01*
X146877089Y-107290000D01*
X142934063Y-107290000D01*
X142941943Y-107210000D01*
X142914236Y-106928691D01*
X142832182Y-106658192D01*
X142698932Y-106408899D01*
X142519608Y-106190392D01*
X142301101Y-106011068D01*
X142051808Y-105877818D01*
X141781309Y-105795764D01*
X141570492Y-105775000D01*
X141429508Y-105775000D01*
X141218691Y-105795764D01*
X140948192Y-105877818D01*
X140698899Y-106011068D01*
X140480392Y-106190392D01*
X140416495Y-106268250D01*
X140293686Y-106230997D01*
X140182033Y-106220000D01*
X140182022Y-106220000D01*
X140144700Y-106216324D01*
X140107378Y-106220000D01*
X138778043Y-106220000D01*
X138674637Y-106065241D01*
X138474759Y-105865363D01*
X138239727Y-105708320D01*
X137978574Y-105600147D01*
X137701335Y-105545000D01*
X137418665Y-105545000D01*
X137141426Y-105600147D01*
X136880273Y-105708320D01*
X136645241Y-105865363D01*
X136445363Y-106065241D01*
X136288320Y-106300273D01*
X136180147Y-106561426D01*
X136125000Y-106838665D01*
X132578285Y-106838665D01*
X132591943Y-106700000D01*
X132564236Y-106418691D01*
X132482182Y-106148192D01*
X132348932Y-105898899D01*
X132169608Y-105680392D01*
X131951101Y-105501068D01*
X131818142Y-105430000D01*
X131951101Y-105358932D01*
X132169608Y-105179608D01*
X132348932Y-104961101D01*
X132482182Y-104711808D01*
X132564236Y-104441309D01*
X132591943Y-104160000D01*
X132564236Y-103878691D01*
X132482182Y-103608192D01*
X132348932Y-103358899D01*
X132273643Y-103267159D01*
X132816204Y-102724598D01*
X132845201Y-102700801D01*
X132940174Y-102585076D01*
X133010746Y-102453047D01*
X133054203Y-102309786D01*
X133065200Y-102198133D01*
X133065200Y-102198124D01*
X133068876Y-102160801D01*
X133065200Y-102123478D01*
X133065200Y-102017000D01*
X155885000Y-102017000D01*
X155885000Y-102517000D01*
X155941193Y-102833532D01*
X156058058Y-103133020D01*
X156231105Y-103403954D01*
X156453683Y-103635922D01*
X156717239Y-103820010D01*
X157011645Y-103949144D01*
X157139566Y-103980124D01*
X157393000Y-103860777D01*
X157393000Y-102017000D01*
X157647000Y-102017000D01*
X157647000Y-103860777D01*
X157900434Y-103980124D01*
X158028355Y-103949144D01*
X158322761Y-103820010D01*
X158586317Y-103635922D01*
X158808895Y-103403954D01*
X158981942Y-103133020D01*
X159098807Y-102833532D01*
X159155000Y-102517000D01*
X159155000Y-102017000D01*
X157647000Y-102017000D01*
X157393000Y-102017000D01*
X155885000Y-102017000D01*
X133065200Y-102017000D01*
X133065200Y-101263000D01*
X155885000Y-101263000D01*
X155885000Y-101763000D01*
X157393000Y-101763000D01*
X157393000Y-99919223D01*
X157647000Y-99919223D01*
X157647000Y-101763000D01*
X159155000Y-101763000D01*
X159155000Y-101263000D01*
X159098807Y-100946468D01*
X158981942Y-100646980D01*
X158808895Y-100376046D01*
X158586317Y-100144078D01*
X158322761Y-99959990D01*
X158028355Y-99830856D01*
X157900434Y-99799876D01*
X157647000Y-99919223D01*
X157393000Y-99919223D01*
X157139566Y-99799876D01*
X157011645Y-99830856D01*
X156717239Y-99959990D01*
X156453683Y-100144078D01*
X156231105Y-100376046D01*
X156058058Y-100646980D01*
X155941193Y-100946468D01*
X155885000Y-101263000D01*
X133065200Y-101263000D01*
X133065200Y-101171923D01*
X133068876Y-101134600D01*
X133065200Y-101097277D01*
X133065200Y-101097267D01*
X133054203Y-100985614D01*
X133010746Y-100842353D01*
X132974357Y-100774275D01*
X132940174Y-100710323D01*
X132868999Y-100623597D01*
X132845201Y-100594599D01*
X132816202Y-100570801D01*
X132248671Y-100003270D01*
X132348932Y-99881101D01*
X132482182Y-99631808D01*
X132564236Y-99361309D01*
X132591943Y-99080000D01*
X132564236Y-98798691D01*
X132482182Y-98528192D01*
X132348932Y-98278899D01*
X132169608Y-98060392D01*
X131951101Y-97881068D01*
X131818142Y-97810000D01*
X131951101Y-97738932D01*
X132169608Y-97559608D01*
X132348932Y-97341101D01*
X132482182Y-97091808D01*
X132564236Y-96821309D01*
X132564364Y-96820000D01*
X136118057Y-96820000D01*
X136145764Y-97101309D01*
X136227818Y-97371808D01*
X136361068Y-97621101D01*
X136540392Y-97839608D01*
X136758899Y-98018932D01*
X137008192Y-98152182D01*
X137278691Y-98234236D01*
X137489508Y-98255000D01*
X137630492Y-98255000D01*
X137841309Y-98234236D01*
X138111808Y-98152182D01*
X138361101Y-98018932D01*
X138579608Y-97839608D01*
X138758932Y-97621101D01*
X138892182Y-97371808D01*
X138974236Y-97101309D01*
X138993210Y-96908665D01*
X140065000Y-96908665D01*
X140065000Y-97191335D01*
X140120147Y-97468574D01*
X140228320Y-97729727D01*
X140385363Y-97964759D01*
X140585241Y-98164637D01*
X140820273Y-98321680D01*
X141081426Y-98429853D01*
X141358665Y-98485000D01*
X141641335Y-98485000D01*
X141918574Y-98429853D01*
X142179727Y-98321680D01*
X142414759Y-98164637D01*
X142614637Y-97964759D01*
X142771680Y-97729727D01*
X142879853Y-97468574D01*
X142935000Y-97191335D01*
X142935000Y-97009678D01*
X144585000Y-97009678D01*
X144585000Y-98170321D01*
X144608657Y-98410515D01*
X144702148Y-98718714D01*
X144853969Y-99002751D01*
X145058286Y-99251714D01*
X145307248Y-99456031D01*
X145591285Y-99607852D01*
X145899484Y-99701343D01*
X146220000Y-99732911D01*
X146540515Y-99701343D01*
X146848714Y-99607852D01*
X147132751Y-99456031D01*
X147381714Y-99251714D01*
X147586031Y-99002752D01*
X147737852Y-98718715D01*
X147831343Y-98410516D01*
X147855000Y-98170322D01*
X147855000Y-97009678D01*
X147831343Y-96769484D01*
X147737852Y-96461285D01*
X147586031Y-96177248D01*
X147381714Y-95928286D01*
X147132752Y-95723969D01*
X146848715Y-95572148D01*
X146540516Y-95478657D01*
X146220000Y-95447089D01*
X145899485Y-95478657D01*
X145591286Y-95572148D01*
X145307249Y-95723969D01*
X145058287Y-95928286D01*
X144853970Y-96177248D01*
X144702148Y-96461285D01*
X144608657Y-96769484D01*
X144585000Y-97009678D01*
X142935000Y-97009678D01*
X142935000Y-96908665D01*
X142879853Y-96631426D01*
X142771680Y-96370273D01*
X142614637Y-96135241D01*
X142414759Y-95935363D01*
X142179727Y-95778320D01*
X141918574Y-95670147D01*
X141641335Y-95615000D01*
X141358665Y-95615000D01*
X141081426Y-95670147D01*
X140820273Y-95778320D01*
X140585241Y-95935363D01*
X140385363Y-96135241D01*
X140228320Y-96370273D01*
X140120147Y-96631426D01*
X140065000Y-96908665D01*
X138993210Y-96908665D01*
X139001943Y-96820000D01*
X138974236Y-96538691D01*
X138892182Y-96268192D01*
X138758932Y-96018899D01*
X138579608Y-95800392D01*
X138361101Y-95621068D01*
X138111808Y-95487818D01*
X137841309Y-95405764D01*
X137630492Y-95385000D01*
X137489508Y-95385000D01*
X137278691Y-95405764D01*
X137008192Y-95487818D01*
X136758899Y-95621068D01*
X136540392Y-95800392D01*
X136361068Y-96018899D01*
X136227818Y-96268192D01*
X136145764Y-96538691D01*
X136118057Y-96820000D01*
X132564364Y-96820000D01*
X132591943Y-96540000D01*
X132564236Y-96258691D01*
X132482182Y-95988192D01*
X132348932Y-95738899D01*
X132169608Y-95520392D01*
X131951101Y-95341068D01*
X131818142Y-95270000D01*
X131951101Y-95198932D01*
X132169608Y-95019608D01*
X132239044Y-94935000D01*
X132404368Y-94935000D01*
X132450300Y-94939524D01*
X132496232Y-94935000D01*
X132633592Y-94921471D01*
X132809840Y-94868007D01*
X132972272Y-94781186D01*
X133114644Y-94664344D01*
X133143930Y-94628659D01*
X135119390Y-92653200D01*
X137348478Y-92653200D01*
X137345241Y-92655363D01*
X137145363Y-92855241D01*
X136988320Y-93090273D01*
X136880147Y-93351426D01*
X136825000Y-93628665D01*
X136825000Y-93911335D01*
X136880147Y-94188574D01*
X136988320Y-94449727D01*
X137145363Y-94684759D01*
X137345241Y-94884637D01*
X137580273Y-95041680D01*
X137841426Y-95149853D01*
X138118665Y-95205000D01*
X138401335Y-95205000D01*
X138678574Y-95149853D01*
X138939727Y-95041680D01*
X139174759Y-94884637D01*
X139374637Y-94684759D01*
X139510000Y-94482173D01*
X139645363Y-94684759D01*
X139845241Y-94884637D01*
X140080273Y-95041680D01*
X140341426Y-95149853D01*
X140618665Y-95205000D01*
X140901335Y-95205000D01*
X141178574Y-95149853D01*
X141439727Y-95041680D01*
X141674759Y-94884637D01*
X141874637Y-94684759D01*
X142031680Y-94449727D01*
X142139853Y-94188574D01*
X142195000Y-93911335D01*
X142195000Y-93628665D01*
X142139853Y-93351426D01*
X142031680Y-93090273D01*
X141874637Y-92855241D01*
X141674759Y-92655363D01*
X141671522Y-92653200D01*
X145226868Y-92653200D01*
X145272800Y-92657724D01*
X145318732Y-92653200D01*
X145456092Y-92639671D01*
X145618905Y-92590282D01*
X145610147Y-92611426D01*
X145555000Y-92888665D01*
X145555000Y-93171335D01*
X145610147Y-93448574D01*
X145718320Y-93709727D01*
X145875363Y-93944759D01*
X146075241Y-94144637D01*
X146310273Y-94301680D01*
X146571426Y-94409853D01*
X146848665Y-94465000D01*
X147131335Y-94465000D01*
X147408574Y-94409853D01*
X147669727Y-94301680D01*
X147886642Y-94156743D01*
X151630901Y-97901003D01*
X151654699Y-97930001D01*
X151683697Y-97953799D01*
X151770423Y-98024974D01*
X151836685Y-98060392D01*
X151902453Y-98095546D01*
X152045714Y-98139003D01*
X152067595Y-98141158D01*
X152153969Y-98302752D01*
X152358286Y-98551714D01*
X152607248Y-98756031D01*
X152891285Y-98907852D01*
X153199484Y-99001343D01*
X153439678Y-99025000D01*
X154600322Y-99025000D01*
X154840516Y-99001343D01*
X155148715Y-98907852D01*
X155432752Y-98756031D01*
X155681714Y-98551714D01*
X155886031Y-98302752D01*
X156037852Y-98018715D01*
X156131343Y-97710516D01*
X156162911Y-97390000D01*
X156131343Y-97069484D01*
X156037852Y-96761285D01*
X155886031Y-96477248D01*
X155681714Y-96228286D01*
X155432752Y-96023969D01*
X155148715Y-95872148D01*
X154840516Y-95778657D01*
X154600322Y-95755000D01*
X153439678Y-95755000D01*
X153199484Y-95778657D01*
X152891285Y-95872148D01*
X152607248Y-96023969D01*
X152358286Y-96228286D01*
X152245373Y-96365871D01*
X149258541Y-93379039D01*
X155758096Y-93379039D01*
X155798754Y-93513087D01*
X155918963Y-93767420D01*
X156086481Y-93993414D01*
X156294869Y-94182385D01*
X156536119Y-94327070D01*
X156800960Y-94421909D01*
X157023000Y-94300624D01*
X157023000Y-93157000D01*
X157277000Y-93157000D01*
X157277000Y-94300624D01*
X157499040Y-94421909D01*
X157763881Y-94327070D01*
X158005131Y-94182385D01*
X158213519Y-93993414D01*
X158381037Y-93767420D01*
X158501246Y-93513087D01*
X158541904Y-93379039D01*
X158419915Y-93157000D01*
X157277000Y-93157000D01*
X157023000Y-93157000D01*
X155880085Y-93157000D01*
X155758096Y-93379039D01*
X149258541Y-93379039D01*
X148560463Y-92680961D01*
X155758096Y-92680961D01*
X155880085Y-92903000D01*
X157023000Y-92903000D01*
X157023000Y-91759376D01*
X157277000Y-91759376D01*
X157277000Y-92903000D01*
X158419915Y-92903000D01*
X158541904Y-92680961D01*
X158501246Y-92546913D01*
X158381037Y-92292580D01*
X158213519Y-92066586D01*
X158005131Y-91877615D01*
X157763881Y-91732930D01*
X157499040Y-91638091D01*
X157277000Y-91759376D01*
X157023000Y-91759376D01*
X156800960Y-91638091D01*
X156536119Y-91732930D01*
X156294869Y-91877615D01*
X156086481Y-92066586D01*
X155918963Y-92292580D01*
X155798754Y-92546913D01*
X155758096Y-92680961D01*
X148560463Y-92680961D01*
X148398504Y-92519003D01*
X148374701Y-92489999D01*
X148291157Y-92421436D01*
X148261680Y-92350273D01*
X148104637Y-92115241D01*
X147904759Y-91915363D01*
X147669727Y-91758320D01*
X147408574Y-91650147D01*
X147131335Y-91595000D01*
X146848665Y-91595000D01*
X146685916Y-91627373D01*
X151316166Y-86997124D01*
X151351844Y-86967844D01*
X151468686Y-86825472D01*
X151555507Y-86663040D01*
X151593946Y-86536324D01*
X151608971Y-86486793D01*
X151627024Y-86303501D01*
X151622500Y-86257569D01*
X151622500Y-69363431D01*
X151627024Y-69317499D01*
X151608971Y-69134207D01*
X151580120Y-69039099D01*
X151555507Y-68957960D01*
X151468686Y-68795528D01*
X151351844Y-68653156D01*
X151316164Y-68623874D01*
X150801215Y-68108925D01*
X150811943Y-68000000D01*
X150784236Y-67718691D01*
X150702182Y-67448192D01*
X150568932Y-67198899D01*
X150389608Y-66980392D01*
X150171101Y-66801068D01*
X149921808Y-66667818D01*
X149651309Y-66585764D01*
X149440492Y-66565000D01*
X149299508Y-66565000D01*
X149088691Y-66585764D01*
X148818192Y-66667818D01*
X148568899Y-66801068D01*
X148350392Y-66980392D01*
X148171068Y-67198899D01*
X148037818Y-67448192D01*
X147955764Y-67718691D01*
X147928057Y-68000000D01*
X147955764Y-68281309D01*
X148037818Y-68551808D01*
X148171068Y-68801101D01*
X148350392Y-69019608D01*
X148568899Y-69198932D01*
X148701858Y-69270000D01*
X148568899Y-69341068D01*
X148350392Y-69520392D01*
X148171068Y-69738899D01*
X148037818Y-69988192D01*
X147985446Y-70160843D01*
X142683268Y-64858665D01*
X146065000Y-64858665D01*
X146065000Y-65141335D01*
X146120147Y-65418574D01*
X146228320Y-65679727D01*
X146385363Y-65914759D01*
X146585241Y-66114637D01*
X146820273Y-66271680D01*
X147081426Y-66379853D01*
X147358665Y-66435000D01*
X147641335Y-66435000D01*
X147918574Y-66379853D01*
X148179727Y-66271680D01*
X148414759Y-66114637D01*
X148536694Y-65992702D01*
X149186903Y-65992702D01*
X149258486Y-66236671D01*
X149513996Y-66357571D01*
X149788184Y-66426300D01*
X150070512Y-66440217D01*
X150350130Y-66398787D01*
X150616292Y-66303603D01*
X150741514Y-66236671D01*
X150813097Y-65992702D01*
X150000000Y-65179605D01*
X149186903Y-65992702D01*
X148536694Y-65992702D01*
X148614637Y-65914759D01*
X148748692Y-65714131D01*
X148763329Y-65741514D01*
X149007298Y-65813097D01*
X149820395Y-65000000D01*
X150179605Y-65000000D01*
X150992702Y-65813097D01*
X151236671Y-65741514D01*
X151357571Y-65486004D01*
X151426300Y-65211816D01*
X151440217Y-64929488D01*
X151398787Y-64649870D01*
X151303603Y-64383708D01*
X151236671Y-64258486D01*
X150992702Y-64186903D01*
X150179605Y-65000000D01*
X149820395Y-65000000D01*
X149007298Y-64186903D01*
X148763329Y-64258486D01*
X148749676Y-64287341D01*
X148614637Y-64085241D01*
X148536694Y-64007298D01*
X149186903Y-64007298D01*
X150000000Y-64820395D01*
X150813097Y-64007298D01*
X150741514Y-63763329D01*
X150486004Y-63642429D01*
X150211816Y-63573700D01*
X149929488Y-63559783D01*
X149649870Y-63601213D01*
X149383708Y-63696397D01*
X149258486Y-63763329D01*
X149186903Y-64007298D01*
X148536694Y-64007298D01*
X148414759Y-63885363D01*
X148179727Y-63728320D01*
X147918574Y-63620147D01*
X147641335Y-63565000D01*
X147358665Y-63565000D01*
X147081426Y-63620147D01*
X146820273Y-63728320D01*
X146585241Y-63885363D01*
X146385363Y-64085241D01*
X146228320Y-64320273D01*
X146120147Y-64581426D01*
X146065000Y-64858665D01*
X142683268Y-64858665D01*
X135598304Y-57773703D01*
X135574501Y-57744699D01*
X135458776Y-57649726D01*
X135326747Y-57579154D01*
X135183486Y-57535697D01*
X135071833Y-57524700D01*
X135071822Y-57524700D01*
X135034500Y-57521024D01*
X134997178Y-57524700D01*
X123830522Y-57524700D01*
X123793199Y-57521024D01*
X123755876Y-57524700D01*
X123755867Y-57524700D01*
X123644214Y-57535697D01*
X123500953Y-57579154D01*
X123368923Y-57649726D01*
X123298403Y-57707601D01*
X123253199Y-57744699D01*
X123229401Y-57773698D01*
X122718540Y-58284559D01*
X122639014Y-58219294D01*
X122381034Y-58081401D01*
X122101111Y-57996487D01*
X121882950Y-57975000D01*
X121737050Y-57975000D01*
X121518889Y-57996487D01*
X121238966Y-58081401D01*
X120980986Y-58219294D01*
X120754866Y-58404866D01*
X120569294Y-58630986D01*
X120540000Y-58685791D01*
X120510706Y-58630986D01*
X120325134Y-58404866D01*
X120099014Y-58219294D01*
X119841034Y-58081401D01*
X119561111Y-57996487D01*
X119342950Y-57975000D01*
X119197050Y-57975000D01*
X118978889Y-57996487D01*
X118698966Y-58081401D01*
X118440986Y-58219294D01*
X118214866Y-58404866D01*
X118029294Y-58630986D01*
X118000000Y-58685791D01*
X117970706Y-58630986D01*
X117785134Y-58404866D01*
X117559014Y-58219294D01*
X117301034Y-58081401D01*
X117021111Y-57996487D01*
X116802950Y-57975000D01*
X116657050Y-57975000D01*
X116438889Y-57996487D01*
X116158966Y-58081401D01*
X115900986Y-58219294D01*
X115674866Y-58404866D01*
X115489294Y-58630986D01*
X115460000Y-58685791D01*
X115430706Y-58630986D01*
X115245134Y-58404866D01*
X115019014Y-58219294D01*
X114761034Y-58081401D01*
X114481111Y-57996487D01*
X114262950Y-57975000D01*
X114117050Y-57975000D01*
X113898889Y-57996487D01*
X113618966Y-58081401D01*
X113360986Y-58219294D01*
X113134866Y-58404866D01*
X112949294Y-58630986D01*
X112920000Y-58685791D01*
X112890706Y-58630986D01*
X112705134Y-58404866D01*
X112479014Y-58219294D01*
X112221034Y-58081401D01*
X111941111Y-57996487D01*
X111722950Y-57975000D01*
X111577050Y-57975000D01*
X111358889Y-57996487D01*
X111078966Y-58081401D01*
X110820986Y-58219294D01*
X110594866Y-58404866D01*
X110409294Y-58630986D01*
X110380000Y-58685791D01*
X110350706Y-58630986D01*
X110165134Y-58404866D01*
X109939014Y-58219294D01*
X109681034Y-58081401D01*
X109401111Y-57996487D01*
X109182950Y-57975000D01*
X109037050Y-57975000D01*
X108818889Y-57996487D01*
X108538966Y-58081401D01*
X108280986Y-58219294D01*
X108054866Y-58404866D01*
X107869294Y-58630986D01*
X107840000Y-58685791D01*
X107810706Y-58630986D01*
X107625134Y-58404866D01*
X107399014Y-58219294D01*
X107141034Y-58081401D01*
X106861111Y-57996487D01*
X106642950Y-57975000D01*
X106497050Y-57975000D01*
X106278889Y-57996487D01*
X105998966Y-58081401D01*
X105740986Y-58219294D01*
X105629714Y-58310613D01*
X105079503Y-57760402D01*
X105055701Y-57731399D01*
X104939976Y-57636426D01*
X104807947Y-57565854D01*
X104664686Y-57522397D01*
X104553033Y-57511400D01*
X104553022Y-57511400D01*
X104515700Y-57507724D01*
X104478378Y-57511400D01*
X98417125Y-57511400D01*
X98379800Y-57507724D01*
X98342475Y-57511400D01*
X98342467Y-57511400D01*
X98230814Y-57522397D01*
X98087553Y-57565854D01*
X97955524Y-57636426D01*
X97839799Y-57731399D01*
X97816001Y-57760398D01*
X97303875Y-58272524D01*
X97239014Y-58219294D01*
X96981034Y-58081401D01*
X96701111Y-57996487D01*
X96482950Y-57975000D01*
X96337050Y-57975000D01*
X96118889Y-57996487D01*
X95838966Y-58081401D01*
X95580986Y-58219294D01*
X95354866Y-58404866D01*
X95169294Y-58630986D01*
X95140000Y-58685791D01*
X95110706Y-58630986D01*
X94925134Y-58404866D01*
X94699014Y-58219294D01*
X94441034Y-58081401D01*
X94161111Y-57996487D01*
X93942950Y-57975000D01*
X93797050Y-57975000D01*
X93578889Y-57996487D01*
X93298966Y-58081401D01*
X93040986Y-58219294D01*
X92814866Y-58404866D01*
X92629294Y-58630986D01*
X92600000Y-58685791D01*
X92570706Y-58630986D01*
X92385134Y-58404866D01*
X92159014Y-58219294D01*
X91901034Y-58081401D01*
X91621111Y-57996487D01*
X91402950Y-57975000D01*
X91257050Y-57975000D01*
X91038889Y-57996487D01*
X90758966Y-58081401D01*
X90500986Y-58219294D01*
X90274866Y-58404866D01*
X90089294Y-58630986D01*
X90054799Y-58695523D01*
X89985178Y-58578645D01*
X89790269Y-58362412D01*
X89556920Y-58188359D01*
X89294099Y-58063175D01*
X89146890Y-58018524D01*
X88917000Y-58139845D01*
X88917000Y-59333000D01*
X88937000Y-59333000D01*
X88937000Y-59587000D01*
X88917000Y-59587000D01*
X88917000Y-59607000D01*
X88663000Y-59607000D01*
X88663000Y-59587000D01*
X86377000Y-59587000D01*
X86377000Y-59607000D01*
X86123000Y-59607000D01*
X86123000Y-59587000D01*
X84929186Y-59587000D01*
X84808519Y-59816891D01*
X84905843Y-60091252D01*
X85054822Y-60341355D01*
X85231626Y-60537502D01*
X85155820Y-60560498D01*
X85045506Y-60619463D01*
X84948815Y-60698815D01*
X84869463Y-60795506D01*
X84810498Y-60905820D01*
X84774188Y-61025518D01*
X84761928Y-61150000D01*
X84761928Y-62850000D01*
X84774188Y-62974482D01*
X84810498Y-63094180D01*
X84869463Y-63204494D01*
X84948815Y-63301185D01*
X85045506Y-63380537D01*
X85155820Y-63439502D01*
X85275518Y-63475812D01*
X85400000Y-63488072D01*
X87100000Y-63488072D01*
X87224482Y-63475812D01*
X87344180Y-63439502D01*
X87454494Y-63380537D01*
X87551185Y-63301185D01*
X87630537Y-63204494D01*
X87689502Y-63094180D01*
X87710393Y-63025313D01*
X87734866Y-63055134D01*
X87960986Y-63240706D01*
X88218966Y-63378599D01*
X88498889Y-63463513D01*
X88717050Y-63485000D01*
X88862950Y-63485000D01*
X89081111Y-63463513D01*
X89361034Y-63378599D01*
X89619014Y-63240706D01*
X89845134Y-63055134D01*
X90030706Y-62829014D01*
X90060000Y-62774209D01*
X90089294Y-62829014D01*
X90274866Y-63055134D01*
X90500986Y-63240706D01*
X90758966Y-63378599D01*
X91038889Y-63463513D01*
X91257050Y-63485000D01*
X91402950Y-63485000D01*
X91621111Y-63463513D01*
X91901034Y-63378599D01*
X92159014Y-63240706D01*
X92385134Y-63055134D01*
X92570706Y-62829014D01*
X92600000Y-62774209D01*
X92629294Y-62829014D01*
X92814866Y-63055134D01*
X93040986Y-63240706D01*
X93298966Y-63378599D01*
X93578889Y-63463513D01*
X93797050Y-63485000D01*
X93942950Y-63485000D01*
X94161111Y-63463513D01*
X94441034Y-63378599D01*
X94474601Y-63360657D01*
X94474600Y-67177298D01*
X88753048Y-72898851D01*
X88688932Y-72778899D01*
X88613643Y-72687159D01*
X89169003Y-72131799D01*
X89198001Y-72108001D01*
X89292974Y-71992276D01*
X89363546Y-71860247D01*
X89407003Y-71716986D01*
X89418000Y-71605333D01*
X89418000Y-71605324D01*
X89421676Y-71568001D01*
X89418000Y-71530678D01*
X89418000Y-68110325D01*
X89421676Y-68073000D01*
X89418000Y-68035675D01*
X89418000Y-68035667D01*
X89407003Y-67924014D01*
X89363546Y-67780753D01*
X89292974Y-67648724D01*
X89198001Y-67532999D01*
X89169004Y-67509202D01*
X88523403Y-66863602D01*
X88499601Y-66834599D01*
X88383876Y-66739626D01*
X88251847Y-66669054D01*
X88108586Y-66625597D01*
X87996933Y-66614600D01*
X87996922Y-66614600D01*
X87959600Y-66610924D01*
X87922278Y-66614600D01*
X71325422Y-66614600D01*
X71288099Y-66610924D01*
X71250776Y-66614600D01*
X71250767Y-66614600D01*
X71139114Y-66625597D01*
X70995853Y-66669054D01*
X70863824Y-66739626D01*
X70748099Y-66834599D01*
X70724301Y-66863597D01*
X68172898Y-69415000D01*
X68128599Y-69268966D01*
X67990706Y-69010986D01*
X67805134Y-68784866D01*
X67579014Y-68599294D01*
X67524209Y-68570000D01*
X67579014Y-68540706D01*
X67805134Y-68355134D01*
X67990706Y-68129014D01*
X68128599Y-67871034D01*
X68213513Y-67591111D01*
X68242185Y-67300000D01*
X68213513Y-67008889D01*
X68128599Y-66728966D01*
X67990706Y-66470986D01*
X67805134Y-66244866D01*
X67579014Y-66059294D01*
X67524209Y-66030000D01*
X67579014Y-66000706D01*
X67805134Y-65815134D01*
X67903725Y-65695000D01*
X68054368Y-65695000D01*
X68100300Y-65699524D01*
X68146232Y-65695000D01*
X68283592Y-65681471D01*
X68459840Y-65628007D01*
X68622272Y-65541186D01*
X68764644Y-65424344D01*
X68793930Y-65388659D01*
X71997589Y-62185000D01*
X73077379Y-62185000D01*
X73110498Y-62294180D01*
X73169463Y-62404494D01*
X73248815Y-62501185D01*
X73345506Y-62580537D01*
X73455820Y-62639502D01*
X73575518Y-62675812D01*
X73700000Y-62688072D01*
X75300000Y-62688072D01*
X75424482Y-62675812D01*
X75544180Y-62639502D01*
X75654494Y-62580537D01*
X75751185Y-62501185D01*
X75830537Y-62404494D01*
X75889502Y-62294180D01*
X75925812Y-62174482D01*
X75938072Y-62050000D01*
X75938072Y-60450000D01*
X75925812Y-60325518D01*
X75889502Y-60205820D01*
X75830537Y-60095506D01*
X75751185Y-59998815D01*
X75654494Y-59919463D01*
X75544180Y-59860498D01*
X75424482Y-59824188D01*
X75300000Y-59811928D01*
X75292785Y-59811928D01*
X75313097Y-59742702D01*
X74500000Y-58929605D01*
X73686903Y-59742702D01*
X73707215Y-59811928D01*
X73700000Y-59811928D01*
X73575518Y-59824188D01*
X73455820Y-59860498D01*
X73345506Y-59919463D01*
X73248815Y-59998815D01*
X73169463Y-60095506D01*
X73110498Y-60205820D01*
X73077379Y-60315000D01*
X71656235Y-60315000D01*
X71610300Y-60310476D01*
X71427008Y-60328528D01*
X71250759Y-60381993D01*
X71194180Y-60412235D01*
X71088328Y-60468814D01*
X70945956Y-60585656D01*
X70916670Y-60621341D01*
X67817760Y-63720251D01*
X67805134Y-63704866D01*
X67579014Y-63519294D01*
X67321034Y-63381401D01*
X67041111Y-63296487D01*
X66822950Y-63275000D01*
X66677050Y-63275000D01*
X66458889Y-63296487D01*
X66178966Y-63381401D01*
X65920986Y-63519294D01*
X65694866Y-63704866D01*
X65509294Y-63930986D01*
X65478416Y-63988756D01*
X65307588Y-63759731D01*
X65091355Y-63564822D01*
X64841252Y-63415843D01*
X64566891Y-63318519D01*
X64337000Y-63439186D01*
X64337000Y-64633000D01*
X64357000Y-64633000D01*
X64357000Y-64887000D01*
X64337000Y-64887000D01*
X64337000Y-64907000D01*
X64083000Y-64907000D01*
X64083000Y-64887000D01*
X62889845Y-64887000D01*
X62768524Y-65116890D01*
X62813175Y-65264099D01*
X62938359Y-65526920D01*
X63112412Y-65760269D01*
X63328645Y-65955178D01*
X63445523Y-66024799D01*
X63380986Y-66059294D01*
X63154866Y-66244866D01*
X62969294Y-66470986D01*
X62831401Y-66728966D01*
X62746487Y-67008889D01*
X62717815Y-67300000D01*
X62746487Y-67591111D01*
X62831401Y-67871034D01*
X62969294Y-68129014D01*
X63036858Y-68211341D01*
X61599898Y-69648301D01*
X61570900Y-69672099D01*
X61547102Y-69701097D01*
X61547101Y-69701098D01*
X61475926Y-69787824D01*
X61405354Y-69919854D01*
X61389025Y-69973686D01*
X61366005Y-70049577D01*
X61361898Y-70063115D01*
X61347224Y-70212100D01*
X60710000Y-70212100D01*
X60710000Y-64403110D01*
X62768524Y-64403110D01*
X62889845Y-64633000D01*
X64083000Y-64633000D01*
X64083000Y-63439186D01*
X63853109Y-63318519D01*
X63578748Y-63415843D01*
X63328645Y-63564822D01*
X63112412Y-63759731D01*
X62938359Y-63993080D01*
X62813175Y-64255901D01*
X62768524Y-64403110D01*
X60710000Y-64403110D01*
X60710000Y-58820512D01*
X73059783Y-58820512D01*
X73101213Y-59100130D01*
X73196397Y-59366292D01*
X73263329Y-59491514D01*
X73507298Y-59563097D01*
X74320395Y-58750000D01*
X74679605Y-58750000D01*
X75492702Y-59563097D01*
X75736671Y-59491514D01*
X75857571Y-59236004D01*
X75890882Y-59103109D01*
X84808519Y-59103109D01*
X84929186Y-59333000D01*
X86123000Y-59333000D01*
X86123000Y-58139845D01*
X86377000Y-58139845D01*
X86377000Y-59333000D01*
X88663000Y-59333000D01*
X88663000Y-58139845D01*
X88433110Y-58018524D01*
X88285901Y-58063175D01*
X88023080Y-58188359D01*
X87789731Y-58362412D01*
X87594822Y-58578645D01*
X87520000Y-58704255D01*
X87445178Y-58578645D01*
X87250269Y-58362412D01*
X87016920Y-58188359D01*
X86754099Y-58063175D01*
X86606890Y-58018524D01*
X86377000Y-58139845D01*
X86123000Y-58139845D01*
X85893110Y-58018524D01*
X85745901Y-58063175D01*
X85483080Y-58188359D01*
X85249731Y-58362412D01*
X85054822Y-58578645D01*
X84905843Y-58828748D01*
X84808519Y-59103109D01*
X75890882Y-59103109D01*
X75926300Y-58961816D01*
X75940217Y-58679488D01*
X75898787Y-58399870D01*
X75803603Y-58133708D01*
X75736671Y-58008486D01*
X75492702Y-57936903D01*
X74679605Y-58750000D01*
X74320395Y-58750000D01*
X73507298Y-57936903D01*
X73263329Y-58008486D01*
X73142429Y-58263996D01*
X73073700Y-58538184D01*
X73059783Y-58820512D01*
X60710000Y-58820512D01*
X60710000Y-57757298D01*
X73686903Y-57757298D01*
X74500000Y-58570395D01*
X75313097Y-57757298D01*
X75241514Y-57513329D01*
X74986004Y-57392429D01*
X74711816Y-57323700D01*
X74429488Y-57309783D01*
X74149870Y-57351213D01*
X73883708Y-57446397D01*
X73758486Y-57513329D01*
X73686903Y-57757298D01*
X60710000Y-57757298D01*
X60710000Y-54279872D01*
X63265000Y-54279872D01*
X63265000Y-54720128D01*
X63350890Y-55151925D01*
X63519369Y-55558669D01*
X63763962Y-55924729D01*
X64075271Y-56236038D01*
X64441331Y-56480631D01*
X64848075Y-56649110D01*
X65279872Y-56735000D01*
X65720128Y-56735000D01*
X66151925Y-56649110D01*
X66558669Y-56480631D01*
X66924729Y-56236038D01*
X67236038Y-55924729D01*
X67480631Y-55558669D01*
X67649110Y-55151925D01*
X67735000Y-54720128D01*
X67735000Y-54279872D01*
X152265000Y-54279872D01*
X152265000Y-54720128D01*
X152350890Y-55151925D01*
X152519369Y-55558669D01*
X152763962Y-55924729D01*
X153075271Y-56236038D01*
X153441331Y-56480631D01*
X153848075Y-56649110D01*
X154279872Y-56735000D01*
X154720128Y-56735000D01*
X155151925Y-56649110D01*
X155558669Y-56480631D01*
X155924729Y-56236038D01*
X156236038Y-55924729D01*
X156480631Y-55558669D01*
X156649110Y-55151925D01*
X156735000Y-54720128D01*
X156735000Y-54279872D01*
X156649110Y-53848075D01*
X156480631Y-53441331D01*
X156236038Y-53075271D01*
X155924729Y-52763962D01*
X155558669Y-52519369D01*
X155151925Y-52350890D01*
X154720128Y-52265000D01*
X154279872Y-52265000D01*
X153848075Y-52350890D01*
X153441331Y-52519369D01*
X153075271Y-52763962D01*
X152763962Y-53075271D01*
X152519369Y-53441331D01*
X152350890Y-53848075D01*
X152265000Y-54279872D01*
X67735000Y-54279872D01*
X67649110Y-53848075D01*
X67480631Y-53441331D01*
X67236038Y-53075271D01*
X66924729Y-52763962D01*
X66558669Y-52519369D01*
X66151925Y-52350890D01*
X65720128Y-52265000D01*
X65279872Y-52265000D01*
X64848075Y-52350890D01*
X64441331Y-52519369D01*
X64075271Y-52763962D01*
X63763962Y-53075271D01*
X63519369Y-53441331D01*
X63350890Y-53848075D01*
X63265000Y-54279872D01*
X60710000Y-54279872D01*
X60710000Y-50710000D01*
X159290000Y-50710000D01*
X159290001Y-124290000D01*
G36*
X70808057Y-81200000D02*
G01*
X70835764Y-81481309D01*
X70917818Y-81751808D01*
X71051068Y-82001101D01*
X71230392Y-82219608D01*
X71448899Y-82398932D01*
X71586682Y-82472579D01*
X71394869Y-82587615D01*
X71186481Y-82776586D01*
X71018963Y-83002580D01*
X70898754Y-83256913D01*
X70858096Y-83390961D01*
X70980085Y-83613000D01*
X72123000Y-83613000D01*
X72123000Y-83593000D01*
X72377000Y-83593000D01*
X72377000Y-83613000D01*
X73519915Y-83613000D01*
X73641904Y-83390961D01*
X73601363Y-83257298D01*
X76686903Y-83257298D01*
X77500000Y-84070395D01*
X78313097Y-83257298D01*
X78241514Y-83013329D01*
X77986004Y-82892429D01*
X77711816Y-82823700D01*
X77429488Y-82809783D01*
X77149870Y-82851213D01*
X76883708Y-82946397D01*
X76758486Y-83013329D01*
X76686903Y-83257298D01*
X73601363Y-83257298D01*
X73601246Y-83256913D01*
X73481037Y-83002580D01*
X73313519Y-82776586D01*
X73105131Y-82587615D01*
X72913318Y-82472579D01*
X73051101Y-82398932D01*
X73269608Y-82219608D01*
X73448932Y-82001101D01*
X73470901Y-81960000D01*
X78271799Y-81960000D01*
X79302197Y-82990398D01*
X79085241Y-83135363D01*
X78885363Y-83335241D01*
X78751308Y-83535869D01*
X78736671Y-83508486D01*
X78492702Y-83436903D01*
X77679605Y-84250000D01*
X78492702Y-85063097D01*
X78736671Y-84991514D01*
X78750324Y-84962659D01*
X78885363Y-85164759D01*
X79065001Y-85344397D01*
X79065000Y-96524068D01*
X79060476Y-96570000D01*
X79065000Y-96615931D01*
X79078529Y-96753291D01*
X79131993Y-96929539D01*
X79218814Y-97091971D01*
X79335656Y-97234344D01*
X79371341Y-97263630D01*
X86058785Y-103951074D01*
X86048057Y-104060000D01*
X86075764Y-104341309D01*
X86145136Y-104570000D01*
X77222625Y-104570000D01*
X77185300Y-104566324D01*
X77147975Y-104570000D01*
X77147967Y-104570000D01*
X77036314Y-104580997D01*
X76893053Y-104624454D01*
X76761024Y-104695026D01*
X76645299Y-104789999D01*
X76621501Y-104818997D01*
X73292371Y-108148128D01*
X73269608Y-108120392D01*
X73051101Y-107941068D01*
X72918142Y-107870000D01*
X73051101Y-107798932D01*
X73269608Y-107619608D01*
X73448932Y-107401101D01*
X73582182Y-107151808D01*
X73664236Y-106881309D01*
X73691943Y-106600000D01*
X73664236Y-106318691D01*
X73582182Y-106048192D01*
X73448932Y-105798899D01*
X73269608Y-105580392D01*
X73051101Y-105401068D01*
X72918142Y-105330000D01*
X73051101Y-105258932D01*
X73269608Y-105079608D01*
X73448932Y-104861101D01*
X73582182Y-104611808D01*
X73664236Y-104341309D01*
X73691943Y-104060000D01*
X73664236Y-103778691D01*
X73582182Y-103508192D01*
X73448932Y-103258899D01*
X73269608Y-103040392D01*
X73051101Y-102861068D01*
X72918142Y-102790000D01*
X73051101Y-102718932D01*
X73269608Y-102539608D01*
X73448932Y-102321101D01*
X73582182Y-102071808D01*
X73664236Y-101801309D01*
X73691943Y-101520000D01*
X73664236Y-101238691D01*
X73582182Y-100968192D01*
X73448932Y-100718899D01*
X73269608Y-100500392D01*
X73051101Y-100321068D01*
X72918142Y-100250000D01*
X73051101Y-100178932D01*
X73269608Y-99999608D01*
X73448932Y-99781101D01*
X73582182Y-99531808D01*
X73664236Y-99261309D01*
X73691943Y-98980000D01*
X73664236Y-98698691D01*
X73582182Y-98428192D01*
X73448932Y-98178899D01*
X73269608Y-97960392D01*
X73051101Y-97781068D01*
X72918142Y-97710000D01*
X73051101Y-97638932D01*
X73269608Y-97459608D01*
X73448932Y-97241101D01*
X73582182Y-96991808D01*
X73664236Y-96721309D01*
X73691943Y-96440000D01*
X73664236Y-96158691D01*
X73582182Y-95888192D01*
X73448932Y-95638899D01*
X73373643Y-95547159D01*
X73902008Y-95018795D01*
X73931001Y-94995001D01*
X73954795Y-94966008D01*
X73954799Y-94966004D01*
X74025973Y-94879277D01*
X74031998Y-94868006D01*
X74096546Y-94747247D01*
X74140003Y-94603986D01*
X74151000Y-94492333D01*
X74151000Y-94492324D01*
X74154676Y-94455001D01*
X74151000Y-94417678D01*
X74151000Y-90929223D01*
X74154676Y-90891900D01*
X74151000Y-90854577D01*
X74151000Y-90854567D01*
X74140003Y-90742914D01*
X74096546Y-90599653D01*
X74025974Y-90467624D01*
X73931001Y-90351899D01*
X73902004Y-90328102D01*
X73334472Y-89760571D01*
X73448932Y-89621101D01*
X73582182Y-89371808D01*
X73664236Y-89101309D01*
X73691943Y-88820000D01*
X73664236Y-88538691D01*
X73582182Y-88268192D01*
X73448932Y-88018899D01*
X73269608Y-87800392D01*
X73051101Y-87621068D01*
X72918142Y-87550000D01*
X73051101Y-87478932D01*
X73269608Y-87299608D01*
X73448932Y-87081101D01*
X73582182Y-86831808D01*
X73664236Y-86561309D01*
X73691943Y-86280000D01*
X73664236Y-85998691D01*
X73582182Y-85728192D01*
X73448932Y-85478899D01*
X73269608Y-85260392D01*
X73248053Y-85242702D01*
X76686903Y-85242702D01*
X76758486Y-85486671D01*
X77013996Y-85607571D01*
X77288184Y-85676300D01*
X77570512Y-85690217D01*
X77850130Y-85648787D01*
X78116292Y-85553603D01*
X78241514Y-85486671D01*
X78313097Y-85242702D01*
X77500000Y-84429605D01*
X76686903Y-85242702D01*
X73248053Y-85242702D01*
X73051101Y-85081068D01*
X72913318Y-85007421D01*
X73105131Y-84892385D01*
X73313519Y-84703414D01*
X73481037Y-84477420D01*
X73555198Y-84320512D01*
X76059783Y-84320512D01*
X76101213Y-84600130D01*
X76196397Y-84866292D01*
X76263329Y-84991514D01*
X76507298Y-85063097D01*
X77320395Y-84250000D01*
X76507298Y-83436903D01*
X76263329Y-83508486D01*
X76142429Y-83763996D01*
X76073700Y-84038184D01*
X76059783Y-84320512D01*
X73555198Y-84320512D01*
X73601246Y-84223087D01*
X73641904Y-84089039D01*
X73519915Y-83867000D01*
X72377000Y-83867000D01*
X72377000Y-83887000D01*
X72123000Y-83887000D01*
X72123000Y-83867000D01*
X70980085Y-83867000D01*
X70858096Y-84089039D01*
X70898754Y-84223087D01*
X71018963Y-84477420D01*
X71186481Y-84703414D01*
X71394869Y-84892385D01*
X71586682Y-85007421D01*
X71448899Y-85081068D01*
X71230392Y-85260392D01*
X71051068Y-85478899D01*
X70917818Y-85728192D01*
X70835764Y-85998691D01*
X70808057Y-86280000D01*
X70835764Y-86561309D01*
X70917818Y-86831808D01*
X71051068Y-87081101D01*
X71230392Y-87299608D01*
X71448899Y-87478932D01*
X71581858Y-87550000D01*
X71448899Y-87621068D01*
X71230392Y-87800392D01*
X71051068Y-88018899D01*
X70992909Y-88127706D01*
X64814001Y-81948800D01*
X69474278Y-81948800D01*
X69511600Y-81952476D01*
X69548922Y-81948800D01*
X69548933Y-81948800D01*
X69660586Y-81937803D01*
X69803847Y-81894346D01*
X69935876Y-81823774D01*
X70051601Y-81728801D01*
X70075404Y-81699797D01*
X70833497Y-80941704D01*
X70808057Y-81200000D01*
X70808057Y-81200000D01*
G37*
X70808057Y-81200000D02*
X70835764Y-81481309D01*
X70917818Y-81751808D01*
X71051068Y-82001101D01*
X71230392Y-82219608D01*
X71448899Y-82398932D01*
X71586682Y-82472579D01*
X71394869Y-82587615D01*
X71186481Y-82776586D01*
X71018963Y-83002580D01*
X70898754Y-83256913D01*
X70858096Y-83390961D01*
X70980085Y-83613000D01*
X72123000Y-83613000D01*
X72123000Y-83593000D01*
X72377000Y-83593000D01*
X72377000Y-83613000D01*
X73519915Y-83613000D01*
X73641904Y-83390961D01*
X73601363Y-83257298D01*
X76686903Y-83257298D01*
X77500000Y-84070395D01*
X78313097Y-83257298D01*
X78241514Y-83013329D01*
X77986004Y-82892429D01*
X77711816Y-82823700D01*
X77429488Y-82809783D01*
X77149870Y-82851213D01*
X76883708Y-82946397D01*
X76758486Y-83013329D01*
X76686903Y-83257298D01*
X73601363Y-83257298D01*
X73601246Y-83256913D01*
X73481037Y-83002580D01*
X73313519Y-82776586D01*
X73105131Y-82587615D01*
X72913318Y-82472579D01*
X73051101Y-82398932D01*
X73269608Y-82219608D01*
X73448932Y-82001101D01*
X73470901Y-81960000D01*
X78271799Y-81960000D01*
X79302197Y-82990398D01*
X79085241Y-83135363D01*
X78885363Y-83335241D01*
X78751308Y-83535869D01*
X78736671Y-83508486D01*
X78492702Y-83436903D01*
X77679605Y-84250000D01*
X78492702Y-85063097D01*
X78736671Y-84991514D01*
X78750324Y-84962659D01*
X78885363Y-85164759D01*
X79065001Y-85344397D01*
X79065000Y-96524068D01*
X79060476Y-96570000D01*
X79065000Y-96615931D01*
X79078529Y-96753291D01*
X79131993Y-96929539D01*
X79218814Y-97091971D01*
X79335656Y-97234344D01*
X79371341Y-97263630D01*
X86058785Y-103951074D01*
X86048057Y-104060000D01*
X86075764Y-104341309D01*
X86145136Y-104570000D01*
X77222625Y-104570000D01*
X77185300Y-104566324D01*
X77147975Y-104570000D01*
X77147967Y-104570000D01*
X77036314Y-104580997D01*
X76893053Y-104624454D01*
X76761024Y-104695026D01*
X76645299Y-104789999D01*
X76621501Y-104818997D01*
X73292371Y-108148128D01*
X73269608Y-108120392D01*
X73051101Y-107941068D01*
X72918142Y-107870000D01*
X73051101Y-107798932D01*
X73269608Y-107619608D01*
X73448932Y-107401101D01*
X73582182Y-107151808D01*
X73664236Y-106881309D01*
X73691943Y-106600000D01*
X73664236Y-106318691D01*
X73582182Y-106048192D01*
X73448932Y-105798899D01*
X73269608Y-105580392D01*
X73051101Y-105401068D01*
X72918142Y-105330000D01*
X73051101Y-105258932D01*
X73269608Y-105079608D01*
X73448932Y-104861101D01*
X73582182Y-104611808D01*
X73664236Y-104341309D01*
X73691943Y-104060000D01*
X73664236Y-103778691D01*
X73582182Y-103508192D01*
X73448932Y-103258899D01*
X73269608Y-103040392D01*
X73051101Y-102861068D01*
X72918142Y-102790000D01*
X73051101Y-102718932D01*
X73269608Y-102539608D01*
X73448932Y-102321101D01*
X73582182Y-102071808D01*
X73664236Y-101801309D01*
X73691943Y-101520000D01*
X73664236Y-101238691D01*
X73582182Y-100968192D01*
X73448932Y-100718899D01*
X73269608Y-100500392D01*
X73051101Y-100321068D01*
X72918142Y-100250000D01*
X73051101Y-100178932D01*
X73269608Y-99999608D01*
X73448932Y-99781101D01*
X73582182Y-99531808D01*
X73664236Y-99261309D01*
X73691943Y-98980000D01*
X73664236Y-98698691D01*
X73582182Y-98428192D01*
X73448932Y-98178899D01*
X73269608Y-97960392D01*
X73051101Y-97781068D01*
X72918142Y-97710000D01*
X73051101Y-97638932D01*
X73269608Y-97459608D01*
X73448932Y-97241101D01*
X73582182Y-96991808D01*
X73664236Y-96721309D01*
X73691943Y-96440000D01*
X73664236Y-96158691D01*
X73582182Y-95888192D01*
X73448932Y-95638899D01*
X73373643Y-95547159D01*
X73902008Y-95018795D01*
X73931001Y-94995001D01*
X73954795Y-94966008D01*
X73954799Y-94966004D01*
X74025973Y-94879277D01*
X74031998Y-94868006D01*
X74096546Y-94747247D01*
X74140003Y-94603986D01*
X74151000Y-94492333D01*
X74151000Y-94492324D01*
X74154676Y-94455001D01*
X74151000Y-94417678D01*
X74151000Y-90929223D01*
X74154676Y-90891900D01*
X74151000Y-90854577D01*
X74151000Y-90854567D01*
X74140003Y-90742914D01*
X74096546Y-90599653D01*
X74025974Y-90467624D01*
X73931001Y-90351899D01*
X73902004Y-90328102D01*
X73334472Y-89760571D01*
X73448932Y-89621101D01*
X73582182Y-89371808D01*
X73664236Y-89101309D01*
X73691943Y-88820000D01*
X73664236Y-88538691D01*
X73582182Y-88268192D01*
X73448932Y-88018899D01*
X73269608Y-87800392D01*
X73051101Y-87621068D01*
X72918142Y-87550000D01*
X73051101Y-87478932D01*
X73269608Y-87299608D01*
X73448932Y-87081101D01*
X73582182Y-86831808D01*
X73664236Y-86561309D01*
X73691943Y-86280000D01*
X73664236Y-85998691D01*
X73582182Y-85728192D01*
X73448932Y-85478899D01*
X73269608Y-85260392D01*
X73248053Y-85242702D01*
X76686903Y-85242702D01*
X76758486Y-85486671D01*
X77013996Y-85607571D01*
X77288184Y-85676300D01*
X77570512Y-85690217D01*
X77850130Y-85648787D01*
X78116292Y-85553603D01*
X78241514Y-85486671D01*
X78313097Y-85242702D01*
X77500000Y-84429605D01*
X76686903Y-85242702D01*
X73248053Y-85242702D01*
X73051101Y-85081068D01*
X72913318Y-85007421D01*
X73105131Y-84892385D01*
X73313519Y-84703414D01*
X73481037Y-84477420D01*
X73555198Y-84320512D01*
X76059783Y-84320512D01*
X76101213Y-84600130D01*
X76196397Y-84866292D01*
X76263329Y-84991514D01*
X76507298Y-85063097D01*
X77320395Y-84250000D01*
X76507298Y-83436903D01*
X76263329Y-83508486D01*
X76142429Y-83763996D01*
X76073700Y-84038184D01*
X76059783Y-84320512D01*
X73555198Y-84320512D01*
X73601246Y-84223087D01*
X73641904Y-84089039D01*
X73519915Y-83867000D01*
X72377000Y-83867000D01*
X72377000Y-83887000D01*
X72123000Y-83887000D01*
X72123000Y-83867000D01*
X70980085Y-83867000D01*
X70858096Y-84089039D01*
X70898754Y-84223087D01*
X71018963Y-84477420D01*
X71186481Y-84703414D01*
X71394869Y-84892385D01*
X71586682Y-85007421D01*
X71448899Y-85081068D01*
X71230392Y-85260392D01*
X71051068Y-85478899D01*
X70917818Y-85728192D01*
X70835764Y-85998691D01*
X70808057Y-86280000D01*
X70835764Y-86561309D01*
X70917818Y-86831808D01*
X71051068Y-87081101D01*
X71230392Y-87299608D01*
X71448899Y-87478932D01*
X71581858Y-87550000D01*
X71448899Y-87621068D01*
X71230392Y-87800392D01*
X71051068Y-88018899D01*
X70992909Y-88127706D01*
X64814001Y-81948800D01*
X69474278Y-81948800D01*
X69511600Y-81952476D01*
X69548922Y-81948800D01*
X69548933Y-81948800D01*
X69660586Y-81937803D01*
X69803847Y-81894346D01*
X69935876Y-81823774D01*
X70051601Y-81728801D01*
X70075404Y-81699797D01*
X70833497Y-80941704D01*
X70808057Y-81200000D01*
G36*
X100230392Y-84509608D02*
G01*
X100448899Y-84688932D01*
X100586682Y-84762579D01*
X100394869Y-84877615D01*
X100186481Y-85066586D01*
X100018963Y-85292580D01*
X99898754Y-85546913D01*
X99858096Y-85680961D01*
X99980085Y-85903000D01*
X101123000Y-85903000D01*
X101123000Y-85883000D01*
X101377000Y-85883000D01*
X101377000Y-85903000D01*
X102519915Y-85903000D01*
X102641904Y-85680961D01*
X102601246Y-85546913D01*
X102481037Y-85292580D01*
X102313519Y-85066586D01*
X102105131Y-84877615D01*
X101913318Y-84762579D01*
X102051101Y-84688932D01*
X102224246Y-84546835D01*
X106876070Y-89198659D01*
X106905356Y-89234344D01*
X107047728Y-89351186D01*
X107109969Y-89384454D01*
X107210159Y-89438007D01*
X107386408Y-89491472D01*
X107569700Y-89509524D01*
X107615635Y-89505000D01*
X107780956Y-89505000D01*
X107850392Y-89589608D01*
X108068899Y-89768932D01*
X108201858Y-89840000D01*
X108068899Y-89911068D01*
X107850392Y-90090392D01*
X107671068Y-90308899D01*
X107645861Y-90356058D01*
X107595714Y-90360997D01*
X107452453Y-90404454D01*
X107320424Y-90475026D01*
X107204699Y-90569999D01*
X107180901Y-90598997D01*
X103619899Y-94160000D01*
X102594864Y-94160000D01*
X102664236Y-93931309D01*
X102691943Y-93650000D01*
X102664236Y-93368691D01*
X102582182Y-93098192D01*
X102448932Y-92848899D01*
X102269608Y-92630392D01*
X102051101Y-92451068D01*
X101918142Y-92380000D01*
X102051101Y-92308932D01*
X102269608Y-92129608D01*
X102448932Y-91911101D01*
X102582182Y-91661808D01*
X102664236Y-91391309D01*
X102691943Y-91110000D01*
X102664236Y-90828691D01*
X102582182Y-90558192D01*
X102448932Y-90308899D01*
X102269608Y-90090392D01*
X102051101Y-89911068D01*
X101918142Y-89840000D01*
X102051101Y-89768932D01*
X102269608Y-89589608D01*
X102448932Y-89371101D01*
X102582182Y-89121808D01*
X102664236Y-88851309D01*
X102691943Y-88570000D01*
X102664236Y-88288691D01*
X102582182Y-88018192D01*
X102448932Y-87768899D01*
X102269608Y-87550392D01*
X102051101Y-87371068D01*
X101913318Y-87297421D01*
X102105131Y-87182385D01*
X102313519Y-86993414D01*
X102481037Y-86767420D01*
X102601246Y-86513087D01*
X102641904Y-86379039D01*
X102519915Y-86157000D01*
X101377000Y-86157000D01*
X101377000Y-86177000D01*
X101123000Y-86177000D01*
X101123000Y-86157000D01*
X99980085Y-86157000D01*
X99858096Y-86379039D01*
X99898754Y-86513087D01*
X100018963Y-86767420D01*
X100186481Y-86993414D01*
X100394869Y-87182385D01*
X100586682Y-87297421D01*
X100448899Y-87371068D01*
X100230392Y-87550392D01*
X100051068Y-87768899D01*
X99917818Y-88018192D01*
X99835764Y-88288691D01*
X99808057Y-88570000D01*
X99835764Y-88851309D01*
X99917818Y-89121808D01*
X100051068Y-89371101D01*
X100230392Y-89589608D01*
X100448899Y-89768932D01*
X100581858Y-89840000D01*
X100448899Y-89911068D01*
X100230392Y-90090392D01*
X100051068Y-90308899D01*
X100029099Y-90350000D01*
X99232622Y-90350000D01*
X99195299Y-90346324D01*
X99157976Y-90350000D01*
X99157967Y-90350000D01*
X99046314Y-90360997D01*
X98903053Y-90404454D01*
X98771024Y-90475026D01*
X98655299Y-90569999D01*
X98631501Y-90598997D01*
X94292371Y-94938128D01*
X94269608Y-94910392D01*
X94051101Y-94731068D01*
X93973638Y-94689663D01*
X96487504Y-92175798D01*
X96516501Y-92152001D01*
X96611474Y-92036276D01*
X96682046Y-91904247D01*
X96725503Y-91760986D01*
X96736500Y-91649333D01*
X96736500Y-91649324D01*
X96740176Y-91612001D01*
X96736500Y-91574678D01*
X96736500Y-87344561D01*
X96763996Y-87357571D01*
X97038184Y-87426300D01*
X97320512Y-87440217D01*
X97600130Y-87398787D01*
X97866292Y-87303603D01*
X97991514Y-87236671D01*
X98063097Y-86992702D01*
X97250000Y-86179605D01*
X97235858Y-86193748D01*
X97056253Y-86014143D01*
X97070395Y-86000000D01*
X97429605Y-86000000D01*
X98242702Y-86813097D01*
X98486671Y-86741514D01*
X98607571Y-86486004D01*
X98676300Y-86211816D01*
X98690217Y-85929488D01*
X98648787Y-85649870D01*
X98553603Y-85383708D01*
X98486671Y-85258486D01*
X98242702Y-85186903D01*
X97429605Y-86000000D01*
X97070395Y-86000000D01*
X97056253Y-85985858D01*
X97235858Y-85806253D01*
X97250000Y-85820395D01*
X98063097Y-85007298D01*
X97991514Y-84763329D01*
X97962659Y-84749676D01*
X98164759Y-84614637D01*
X98344396Y-84435000D01*
X99893768Y-84435000D01*
X99939700Y-84439524D01*
X99985632Y-84435000D01*
X100087162Y-84425000D01*
X100160956Y-84425000D01*
X100230392Y-84509608D01*
X100230392Y-84509608D01*
G37*
X100230392Y-84509608D02*
X100448899Y-84688932D01*
X100586682Y-84762579D01*
X100394869Y-84877615D01*
X100186481Y-85066586D01*
X100018963Y-85292580D01*
X99898754Y-85546913D01*
X99858096Y-85680961D01*
X99980085Y-85903000D01*
X101123000Y-85903000D01*
X101123000Y-85883000D01*
X101377000Y-85883000D01*
X101377000Y-85903000D01*
X102519915Y-85903000D01*
X102641904Y-85680961D01*
X102601246Y-85546913D01*
X102481037Y-85292580D01*
X102313519Y-85066586D01*
X102105131Y-84877615D01*
X101913318Y-84762579D01*
X102051101Y-84688932D01*
X102224246Y-84546835D01*
X106876070Y-89198659D01*
X106905356Y-89234344D01*
X107047728Y-89351186D01*
X107109969Y-89384454D01*
X107210159Y-89438007D01*
X107386408Y-89491472D01*
X107569700Y-89509524D01*
X107615635Y-89505000D01*
X107780956Y-89505000D01*
X107850392Y-89589608D01*
X108068899Y-89768932D01*
X108201858Y-89840000D01*
X108068899Y-89911068D01*
X107850392Y-90090392D01*
X107671068Y-90308899D01*
X107645861Y-90356058D01*
X107595714Y-90360997D01*
X107452453Y-90404454D01*
X107320424Y-90475026D01*
X107204699Y-90569999D01*
X107180901Y-90598997D01*
X103619899Y-94160000D01*
X102594864Y-94160000D01*
X102664236Y-93931309D01*
X102691943Y-93650000D01*
X102664236Y-93368691D01*
X102582182Y-93098192D01*
X102448932Y-92848899D01*
X102269608Y-92630392D01*
X102051101Y-92451068D01*
X101918142Y-92380000D01*
X102051101Y-92308932D01*
X102269608Y-92129608D01*
X102448932Y-91911101D01*
X102582182Y-91661808D01*
X102664236Y-91391309D01*
X102691943Y-91110000D01*
X102664236Y-90828691D01*
X102582182Y-90558192D01*
X102448932Y-90308899D01*
X102269608Y-90090392D01*
X102051101Y-89911068D01*
X101918142Y-89840000D01*
X102051101Y-89768932D01*
X102269608Y-89589608D01*
X102448932Y-89371101D01*
X102582182Y-89121808D01*
X102664236Y-88851309D01*
X102691943Y-88570000D01*
X102664236Y-88288691D01*
X102582182Y-88018192D01*
X102448932Y-87768899D01*
X102269608Y-87550392D01*
X102051101Y-87371068D01*
X101913318Y-87297421D01*
X102105131Y-87182385D01*
X102313519Y-86993414D01*
X102481037Y-86767420D01*
X102601246Y-86513087D01*
X102641904Y-86379039D01*
X102519915Y-86157000D01*
X101377000Y-86157000D01*
X101377000Y-86177000D01*
X101123000Y-86177000D01*
X101123000Y-86157000D01*
X99980085Y-86157000D01*
X99858096Y-86379039D01*
X99898754Y-86513087D01*
X100018963Y-86767420D01*
X100186481Y-86993414D01*
X100394869Y-87182385D01*
X100586682Y-87297421D01*
X100448899Y-87371068D01*
X100230392Y-87550392D01*
X100051068Y-87768899D01*
X99917818Y-88018192D01*
X99835764Y-88288691D01*
X99808057Y-88570000D01*
X99835764Y-88851309D01*
X99917818Y-89121808D01*
X100051068Y-89371101D01*
X100230392Y-89589608D01*
X100448899Y-89768932D01*
X100581858Y-89840000D01*
X100448899Y-89911068D01*
X100230392Y-90090392D01*
X100051068Y-90308899D01*
X100029099Y-90350000D01*
X99232622Y-90350000D01*
X99195299Y-90346324D01*
X99157976Y-90350000D01*
X99157967Y-90350000D01*
X99046314Y-90360997D01*
X98903053Y-90404454D01*
X98771024Y-90475026D01*
X98655299Y-90569999D01*
X98631501Y-90598997D01*
X94292371Y-94938128D01*
X94269608Y-94910392D01*
X94051101Y-94731068D01*
X93973638Y-94689663D01*
X96487504Y-92175798D01*
X96516501Y-92152001D01*
X96611474Y-92036276D01*
X96682046Y-91904247D01*
X96725503Y-91760986D01*
X96736500Y-91649333D01*
X96736500Y-91649324D01*
X96740176Y-91612001D01*
X96736500Y-91574678D01*
X96736500Y-87344561D01*
X96763996Y-87357571D01*
X97038184Y-87426300D01*
X97320512Y-87440217D01*
X97600130Y-87398787D01*
X97866292Y-87303603D01*
X97991514Y-87236671D01*
X98063097Y-86992702D01*
X97250000Y-86179605D01*
X97235858Y-86193748D01*
X97056253Y-86014143D01*
X97070395Y-86000000D01*
X97429605Y-86000000D01*
X98242702Y-86813097D01*
X98486671Y-86741514D01*
X98607571Y-86486004D01*
X98676300Y-86211816D01*
X98690217Y-85929488D01*
X98648787Y-85649870D01*
X98553603Y-85383708D01*
X98486671Y-85258486D01*
X98242702Y-85186903D01*
X97429605Y-86000000D01*
X97070395Y-86000000D01*
X97056253Y-85985858D01*
X97235858Y-85806253D01*
X97250000Y-85820395D01*
X98063097Y-85007298D01*
X97991514Y-84763329D01*
X97962659Y-84749676D01*
X98164759Y-84614637D01*
X98344396Y-84435000D01*
X99893768Y-84435000D01*
X99939700Y-84439524D01*
X99985632Y-84435000D01*
X100087162Y-84425000D01*
X100160956Y-84425000D01*
X100230392Y-84509608D01*
M02*
