G04 #@! TF.GenerationSoftware,KiCad,Pcbnew,(5.1.4-0)*
G04 #@! TF.CreationDate,2020-03-18T19:54:09+09:00*
G04 #@! TF.ProjectId,KZ80-PS2KBD,4b5a3830-2d50-4533-924b-42442e6b6963,rev?*
G04 #@! TF.SameCoordinates,Original*
G04 #@! TF.FileFunction,Copper,L2,Bot*
G04 #@! TF.FilePolarity,Positive*
%FSLAX46Y46*%
G04 Gerber Fmt 4.6, Leading zero omitted, Abs format (unit mm)*
G04 Created by KiCad (PCBNEW (5.1.4-0)) date 2020-03-18 19:54:09*
%MOMM*%
%LPD*%
G04 APERTURE LIST*
%ADD10R,1.600000X1.600000*%
%ADD11C,1.600000*%
%ADD12R,1.700000X1.700000*%
%ADD13O,1.700000X1.700000*%
%ADD14O,1.600000X1.600000*%
%ADD15C,1.524000*%
%ADD16R,1.200000X2.800000*%
%ADD17R,2.800000X1.200000*%
%ADD18C,0.800000*%
%ADD19C,0.250000*%
%ADD20C,0.600000*%
%ADD21C,0.254000*%
G04 APERTURE END LIST*
D10*
X74500000Y-61250000D03*
D11*
X74500000Y-58750000D03*
X149750000Y-91000000D03*
X147250000Y-91000000D03*
X147500000Y-65000000D03*
X150000000Y-65000000D03*
X97250000Y-86000000D03*
X97250000Y-83500000D03*
X77500000Y-84250000D03*
X80000000Y-84250000D03*
D12*
X126250000Y-85000000D03*
D13*
X128790000Y-85000000D03*
X131330000Y-85000000D03*
D12*
X136500000Y-116000000D03*
D13*
X133960000Y-116000000D03*
X131420000Y-116000000D03*
X128880000Y-116000000D03*
X126340000Y-116000000D03*
X123800000Y-116000000D03*
D12*
X114500000Y-71500000D03*
D13*
X117040000Y-71500000D03*
X114500000Y-74040000D03*
X117040000Y-74040000D03*
X114500000Y-76580000D03*
X117040000Y-76580000D03*
X126290000Y-78620000D03*
X123750000Y-78620000D03*
X126290000Y-76080000D03*
X123750000Y-76080000D03*
X126290000Y-73540000D03*
X123750000Y-73540000D03*
X126290000Y-71000000D03*
D12*
X123750000Y-71000000D03*
X132250000Y-71000000D03*
D13*
X134790000Y-71000000D03*
X132250000Y-73540000D03*
X134790000Y-73540000D03*
X132250000Y-76080000D03*
X134790000Y-76080000D03*
X132250000Y-78620000D03*
X134790000Y-78620000D03*
D12*
X66750000Y-80000000D03*
D13*
X64210000Y-80000000D03*
X66750000Y-77460000D03*
X64210000Y-77460000D03*
X66750000Y-74920000D03*
X64210000Y-74920000D03*
X66750000Y-72380000D03*
X64210000Y-72380000D03*
X66750000Y-69840000D03*
X64210000Y-69840000D03*
X66750000Y-67300000D03*
X64210000Y-67300000D03*
X66750000Y-64760000D03*
X64210000Y-64760000D03*
D12*
X86250000Y-62000000D03*
D13*
X86250000Y-59460000D03*
X88790000Y-62000000D03*
X88790000Y-59460000D03*
X91330000Y-62000000D03*
X91330000Y-59460000D03*
X93870000Y-62000000D03*
X93870000Y-59460000D03*
X96410000Y-62000000D03*
X96410000Y-59460000D03*
X98950000Y-62000000D03*
X98950000Y-59460000D03*
X101490000Y-62000000D03*
X101490000Y-59460000D03*
X104030000Y-62000000D03*
X104030000Y-59460000D03*
X106570000Y-62000000D03*
X106570000Y-59460000D03*
X109110000Y-62000000D03*
X109110000Y-59460000D03*
X111650000Y-62000000D03*
X111650000Y-59460000D03*
X114190000Y-62000000D03*
X114190000Y-59460000D03*
X116730000Y-62000000D03*
X116730000Y-59460000D03*
X119270000Y-62000000D03*
X119270000Y-59460000D03*
X121810000Y-62000000D03*
X121810000Y-59460000D03*
X124350000Y-62000000D03*
X124350000Y-59460000D03*
X126890000Y-62000000D03*
X126890000Y-59460000D03*
X129430000Y-62000000D03*
X129430000Y-59460000D03*
X131970000Y-62000000D03*
X131970000Y-59460000D03*
X134510000Y-62000000D03*
X134510000Y-59460000D03*
D10*
X141750000Y-94250000D03*
D14*
X149370000Y-109490000D03*
X141750000Y-96790000D03*
X149370000Y-106950000D03*
X141750000Y-99330000D03*
X149370000Y-104410000D03*
X141750000Y-101870000D03*
X149370000Y-101870000D03*
X141750000Y-104410000D03*
X149370000Y-99330000D03*
X141750000Y-106950000D03*
X149370000Y-96790000D03*
X141750000Y-109490000D03*
X149370000Y-94250000D03*
D10*
X141750000Y-68000000D03*
D14*
X149370000Y-85780000D03*
X141750000Y-70540000D03*
X149370000Y-83240000D03*
X141750000Y-73080000D03*
X149370000Y-80700000D03*
X141750000Y-75620000D03*
X149370000Y-78160000D03*
X141750000Y-78160000D03*
X149370000Y-75620000D03*
X141750000Y-80700000D03*
X149370000Y-73080000D03*
X141750000Y-83240000D03*
X149370000Y-70540000D03*
X141750000Y-85780000D03*
X149370000Y-68000000D03*
D10*
X101250000Y-68250000D03*
D14*
X108870000Y-101270000D03*
X101250000Y-70790000D03*
X108870000Y-98730000D03*
X101250000Y-73330000D03*
X108870000Y-96190000D03*
X101250000Y-75870000D03*
X108870000Y-93650000D03*
X101250000Y-78410000D03*
X108870000Y-91110000D03*
X101250000Y-80950000D03*
X108870000Y-88570000D03*
X101250000Y-83490000D03*
X108870000Y-86030000D03*
X101250000Y-86030000D03*
X108870000Y-83490000D03*
X101250000Y-88570000D03*
X108870000Y-80950000D03*
X101250000Y-91110000D03*
X108870000Y-78410000D03*
X101250000Y-93650000D03*
X108870000Y-75870000D03*
X101250000Y-96190000D03*
X108870000Y-73330000D03*
X101250000Y-98730000D03*
X108870000Y-70790000D03*
X101250000Y-101270000D03*
X108870000Y-68250000D03*
D10*
X72250000Y-68500000D03*
D14*
X87490000Y-116760000D03*
X72250000Y-71040000D03*
X87490000Y-114220000D03*
X72250000Y-73580000D03*
X87490000Y-111680000D03*
X72250000Y-76120000D03*
X87490000Y-109140000D03*
X72250000Y-78660000D03*
X87490000Y-106600000D03*
X72250000Y-81200000D03*
X87490000Y-104060000D03*
X72250000Y-83740000D03*
X87490000Y-101520000D03*
X72250000Y-86280000D03*
X87490000Y-98980000D03*
X72250000Y-88820000D03*
X87490000Y-96440000D03*
X72250000Y-91360000D03*
X87490000Y-93900000D03*
X72250000Y-93900000D03*
X87490000Y-91360000D03*
X72250000Y-96440000D03*
X87490000Y-88820000D03*
X72250000Y-98980000D03*
X87490000Y-86280000D03*
X72250000Y-101520000D03*
X87490000Y-83740000D03*
X72250000Y-104060000D03*
X87490000Y-81200000D03*
X72250000Y-106600000D03*
X87490000Y-78660000D03*
X72250000Y-109140000D03*
X87490000Y-76120000D03*
X72250000Y-111680000D03*
X87490000Y-73580000D03*
X72250000Y-114220000D03*
X87490000Y-71040000D03*
X72250000Y-116760000D03*
X87490000Y-68500000D03*
D10*
X93250000Y-116250000D03*
D14*
X93250000Y-113710000D03*
X93250000Y-111170000D03*
X93250000Y-108630000D03*
X93250000Y-106090000D03*
X93250000Y-103550000D03*
X93250000Y-101010000D03*
X93250000Y-98470000D03*
X93250000Y-95930000D03*
D11*
X114750000Y-94750000D03*
D14*
X114750000Y-84590000D03*
D15*
X108300000Y-118500000D03*
X105700000Y-118500000D03*
X110400000Y-118500000D03*
X103600000Y-118500000D03*
X110400000Y-116000000D03*
X103600000Y-116000000D03*
D16*
X100250000Y-121500000D03*
X113750000Y-121500000D03*
D17*
X107000000Y-122300000D03*
D18*
X104604200Y-87029300D03*
X81021900Y-83124600D03*
D19*
X101250000Y-78410000D02*
X101250000Y-79535300D01*
X108300000Y-118500000D02*
X102375300Y-112575300D01*
X102375300Y-112575300D02*
X102375300Y-80467800D01*
X102375300Y-80467800D02*
X101442800Y-79535300D01*
X101442800Y-79535300D02*
X101250000Y-79535300D01*
D20*
X75843300Y-83740000D02*
X75843300Y-60093300D01*
X77500000Y-84250000D02*
X76353300Y-84250000D01*
X76353300Y-84250000D02*
X75843300Y-83740000D01*
X75843300Y-83740000D02*
X73550300Y-83740000D01*
X75843300Y-60093300D02*
X74500000Y-58750000D01*
X86250000Y-59460000D02*
X76476600Y-59460000D01*
X76476600Y-59460000D02*
X75843300Y-60093300D01*
X72250000Y-83740000D02*
X73550300Y-83740000D01*
X110400000Y-118500000D02*
X109133900Y-119766100D01*
X109133900Y-119766100D02*
X102504100Y-119766100D01*
X102504100Y-119766100D02*
X102337700Y-119599700D01*
X102337700Y-119599700D02*
X87313000Y-119599700D01*
X87313000Y-119599700D02*
X77500000Y-109786700D01*
X77500000Y-109786700D02*
X77500000Y-84250000D01*
X150000000Y-65000000D02*
X143782300Y-71217700D01*
X143782300Y-71217700D02*
X143782300Y-83747700D01*
X143782300Y-83747700D02*
X141750000Y-85780000D01*
X149750000Y-91000000D02*
X150675200Y-91925200D01*
X150675200Y-91925200D02*
X150675200Y-110059200D01*
X150675200Y-110059200D02*
X149944100Y-110790300D01*
X149944100Y-110790300D02*
X144350600Y-110790300D01*
X144350600Y-110790300D02*
X143050300Y-109490000D01*
X136500000Y-116000000D02*
X134000000Y-118500000D01*
X134000000Y-118500000D02*
X110400000Y-118500000D01*
X141750000Y-109490000D02*
X140449700Y-109490000D01*
X136500000Y-116000000D02*
X136500000Y-114649700D01*
X136500000Y-114649700D02*
X140449700Y-110700000D01*
X140449700Y-110700000D02*
X140449700Y-109490000D01*
X107569700Y-83490000D02*
X104604200Y-86455500D01*
X104604200Y-86455500D02*
X104604200Y-87029300D01*
X108870000Y-83490000D02*
X107569700Y-83490000D01*
X141750000Y-109490000D02*
X143050300Y-109490000D01*
X86250000Y-62000000D02*
X86250000Y-63350300D01*
X80000000Y-84250000D02*
X80000000Y-69600300D01*
X80000000Y-69600300D02*
X86250000Y-63350300D01*
X87490000Y-104060000D02*
X80000000Y-96570000D01*
X80000000Y-96570000D02*
X80000000Y-84250000D01*
X149370000Y-68000000D02*
X147250000Y-70120000D01*
X147250000Y-70120000D02*
X147250000Y-91000000D01*
X147250000Y-91000000D02*
X149199700Y-92949700D01*
X149199700Y-92949700D02*
X149370000Y-92949700D01*
X149370000Y-94250000D02*
X149370000Y-92949700D01*
X93250000Y-116250000D02*
X91949700Y-116250000D01*
X91949700Y-116250000D02*
X90131500Y-118068200D01*
X90131500Y-118068200D02*
X86950000Y-118068200D01*
X86950000Y-118068200D02*
X86169700Y-117287900D01*
X86169700Y-117287900D02*
X86169700Y-105380300D01*
X86169700Y-105380300D02*
X87490000Y-104060000D01*
X111396100Y-89795700D02*
X114750000Y-93149700D01*
X114750000Y-93149700D02*
X114750000Y-94750000D01*
X110170300Y-88570000D02*
X111396100Y-89795700D01*
X111396100Y-89795700D02*
X118396100Y-82795700D01*
X118396100Y-82795700D02*
X118396100Y-72856100D01*
X118396100Y-72856100D02*
X117040000Y-71500000D01*
X108870000Y-88570000D02*
X110170300Y-88570000D01*
D19*
X101250000Y-76995300D02*
X101531500Y-76995300D01*
X101531500Y-76995300D02*
X102825700Y-78289500D01*
X102825700Y-78289500D02*
X102825700Y-108425700D01*
X102825700Y-108425700D02*
X110400000Y-116000000D01*
X101250000Y-75870000D02*
X101250000Y-76995300D01*
X149370000Y-96790000D02*
X149370000Y-95664700D01*
X111650000Y-62000000D02*
X112825300Y-62000000D01*
X112825300Y-62000000D02*
X112825300Y-61632600D01*
X112825300Y-61632600D02*
X113633200Y-60824700D01*
X113633200Y-60824700D02*
X117066300Y-60824700D01*
X117066300Y-60824700D02*
X118000000Y-59891000D01*
X118000000Y-59891000D02*
X118000000Y-58992800D01*
X118000000Y-58992800D02*
X118745200Y-58247600D01*
X118745200Y-58247600D02*
X134997600Y-58247600D01*
X134997600Y-58247600D02*
X142885600Y-66135600D01*
X142885600Y-66135600D02*
X142885600Y-83696000D01*
X142885600Y-83696000D02*
X142071600Y-84510000D01*
X142071600Y-84510000D02*
X141409300Y-84510000D01*
X141409300Y-84510000D02*
X140616700Y-85302600D01*
X140616700Y-85302600D02*
X140616700Y-87192700D01*
X140616700Y-87192700D02*
X149088700Y-95664700D01*
X149088700Y-95664700D02*
X149370000Y-95664700D01*
X149370000Y-96790000D02*
X149370000Y-99330000D01*
X93250000Y-113710000D02*
X93250000Y-112584700D01*
X93250000Y-112584700D02*
X93531300Y-112584700D01*
X93531300Y-112584700D02*
X101250000Y-104866000D01*
X101250000Y-104866000D02*
X101250000Y-101270000D01*
X87490000Y-116760000D02*
X87490000Y-115634700D01*
X93250000Y-106090000D02*
X93250000Y-107215300D01*
X93250000Y-107215300D02*
X93046000Y-107215300D01*
X93046000Y-107215300D02*
X90625000Y-109636300D01*
X90625000Y-109636300D02*
X90625000Y-112781000D01*
X90625000Y-112781000D02*
X87771300Y-115634700D01*
X87771300Y-115634700D02*
X87490000Y-115634700D01*
X117040000Y-74040000D02*
X117040000Y-72864700D01*
X108870000Y-96190000D02*
X108870000Y-95064700D01*
X108870000Y-95064700D02*
X108588700Y-95064700D01*
X108588700Y-95064700D02*
X103853400Y-90329400D01*
X103853400Y-90329400D02*
X103853400Y-81804100D01*
X103853400Y-81804100D02*
X108372900Y-77284600D01*
X108372900Y-77284600D02*
X109086000Y-77284600D01*
X109086000Y-77284600D02*
X111904700Y-74465900D01*
X111904700Y-74465900D02*
X111904700Y-71875700D01*
X111904700Y-71875700D02*
X113455800Y-70324600D01*
X113455800Y-70324600D02*
X115531100Y-70324600D01*
X115531100Y-70324600D02*
X115864700Y-70658200D01*
X115864700Y-70658200D02*
X115864700Y-72056800D01*
X115864700Y-72056800D02*
X116672600Y-72864700D01*
X116672600Y-72864700D02*
X117040000Y-72864700D01*
X93250000Y-104675300D02*
X93013900Y-104675300D01*
X93013900Y-104675300D02*
X91674300Y-106014900D01*
X91674300Y-106014900D02*
X91674300Y-107338000D01*
X91674300Y-107338000D02*
X88615300Y-110397000D01*
X88615300Y-110397000D02*
X88615300Y-112250800D01*
X88615300Y-112250800D02*
X87771400Y-113094700D01*
X87771400Y-113094700D02*
X87490000Y-113094700D01*
X87490000Y-114220000D02*
X87490000Y-113094700D01*
X93250000Y-103550000D02*
X93250000Y-104675300D01*
X114500000Y-71500000D02*
X114500000Y-72675300D01*
X108870000Y-93650000D02*
X108870000Y-92524700D01*
X108870000Y-92524700D02*
X108588700Y-92524700D01*
X108588700Y-92524700D02*
X107276600Y-91212600D01*
X107276600Y-91212600D02*
X107276600Y-85956700D01*
X107276600Y-85956700D02*
X108473300Y-84760000D01*
X108473300Y-84760000D02*
X109215200Y-84760000D01*
X109215200Y-84760000D02*
X112548000Y-81427200D01*
X112548000Y-81427200D02*
X112548000Y-74260000D01*
X112548000Y-74260000D02*
X114132700Y-72675300D01*
X114132700Y-72675300D02*
X114500000Y-72675300D01*
X114500000Y-74040000D02*
X114500000Y-75215300D01*
X108870000Y-91110000D02*
X108870000Y-89984700D01*
X108870000Y-89984700D02*
X108588700Y-89984700D01*
X108588700Y-89984700D02*
X107727000Y-89123000D01*
X107727000Y-89123000D02*
X107727000Y-88084000D01*
X107727000Y-88084000D02*
X108511000Y-87300000D01*
X108511000Y-87300000D02*
X109195200Y-87300000D01*
X109195200Y-87300000D02*
X113324700Y-83170500D01*
X113324700Y-83170500D02*
X113324700Y-76023200D01*
X113324700Y-76023200D02*
X114132600Y-75215300D01*
X114132600Y-75215300D02*
X114500000Y-75215300D01*
X93250000Y-102135300D02*
X92968700Y-102135300D01*
X92968700Y-102135300D02*
X91037400Y-104066600D01*
X91037400Y-104066600D02*
X91037400Y-107184200D01*
X91037400Y-107184200D02*
X87666900Y-110554700D01*
X87666900Y-110554700D02*
X87490000Y-110554700D01*
X87490000Y-111680000D02*
X87490000Y-110554700D01*
X93250000Y-101010000D02*
X93250000Y-102135300D01*
X101250000Y-88570000D02*
X101250000Y-89695300D01*
X93250000Y-99032600D02*
X100124700Y-92157900D01*
X100124700Y-92157900D02*
X100124700Y-90539200D01*
X100124700Y-90539200D02*
X100968600Y-89695300D01*
X100968600Y-89695300D02*
X101250000Y-89695300D01*
X93250000Y-99032600D02*
X93250000Y-99595300D01*
X93250000Y-98470000D02*
X93250000Y-99032600D01*
X87490000Y-109140000D02*
X87490000Y-108014700D01*
X93250000Y-99595300D02*
X92968700Y-99595300D01*
X92968700Y-99595300D02*
X89985700Y-102578300D01*
X89985700Y-102578300D02*
X89985700Y-105800300D01*
X89985700Y-105800300D02*
X87771300Y-108014700D01*
X87771300Y-108014700D02*
X87490000Y-108014700D01*
X87490000Y-105474700D02*
X87727100Y-105474700D01*
X87727100Y-105474700D02*
X89252200Y-103949600D01*
X89252200Y-103949600D02*
X89252200Y-100771800D01*
X89252200Y-100771800D02*
X92968700Y-97055300D01*
X92968700Y-97055300D02*
X93250000Y-97055300D01*
X93250000Y-95930000D02*
X93250000Y-97055300D01*
X87490000Y-106600000D02*
X87490000Y-105474700D01*
X64210000Y-77460000D02*
X64210000Y-76284700D01*
X64210000Y-76284700D02*
X64577400Y-76284700D01*
X64577400Y-76284700D02*
X65385300Y-75476800D01*
X65385300Y-75476800D02*
X65385300Y-69503700D01*
X65385300Y-69503700D02*
X66389000Y-68500000D01*
X66389000Y-68500000D02*
X72250000Y-68500000D01*
X72250000Y-71040000D02*
X72250000Y-72165300D01*
X72250000Y-72165300D02*
X72044700Y-72165300D01*
X72044700Y-72165300D02*
X66750000Y-77460000D01*
X64210000Y-80000000D02*
X65385300Y-80000000D01*
X72250000Y-73580000D02*
X72250000Y-74705300D01*
X72250000Y-74705300D02*
X71246800Y-74705300D01*
X71246800Y-74705300D02*
X67127400Y-78824700D01*
X67127400Y-78824700D02*
X65752500Y-78824700D01*
X65752500Y-78824700D02*
X65385300Y-79191900D01*
X65385300Y-79191900D02*
X65385300Y-80000000D01*
X72250000Y-76120000D02*
X71124700Y-76120000D01*
X66750000Y-80000000D02*
X67925300Y-80000000D01*
X71124700Y-76120000D02*
X71124700Y-76800600D01*
X71124700Y-76800600D02*
X67925300Y-80000000D01*
X134790000Y-73540000D02*
X134790000Y-71000000D01*
X134790000Y-76080000D02*
X134790000Y-73540000D01*
X134790000Y-78620000D02*
X134790000Y-76080000D01*
X104030000Y-59460000D02*
X104030000Y-60635300D01*
X87490000Y-101520000D02*
X87490000Y-100394700D01*
X87490000Y-100394700D02*
X87771400Y-100394700D01*
X87771400Y-100394700D02*
X88615300Y-99550800D01*
X88615300Y-99550800D02*
X88615300Y-98973200D01*
X88615300Y-98973200D02*
X100041500Y-87547000D01*
X100041500Y-87547000D02*
X100041500Y-67382700D01*
X100041500Y-67382700D02*
X102888400Y-64535800D01*
X102888400Y-64535800D02*
X103340700Y-64535800D01*
X103340700Y-64535800D02*
X105205300Y-62671200D01*
X105205300Y-62671200D02*
X105205300Y-61443200D01*
X105205300Y-61443200D02*
X104397400Y-60635300D01*
X104397400Y-60635300D02*
X104030000Y-60635300D01*
X116730000Y-59460000D02*
X115554700Y-59460000D01*
X115554700Y-59460000D02*
X115554700Y-59092700D01*
X115554700Y-59092700D02*
X114721600Y-58259600D01*
X114721600Y-58259600D02*
X95898400Y-58259600D01*
X95898400Y-58259600D02*
X95140000Y-59018000D01*
X95140000Y-59018000D02*
X95140000Y-64990400D01*
X95140000Y-64990400D02*
X87892900Y-72237500D01*
X87892900Y-72237500D02*
X87237300Y-72237500D01*
X87237300Y-72237500D02*
X81021900Y-78452900D01*
X81021900Y-78452900D02*
X81021900Y-83124600D01*
X87490000Y-97854700D02*
X87771300Y-97854700D01*
X87771300Y-97854700D02*
X99449800Y-86176200D01*
X99449800Y-86176200D02*
X99449800Y-67337500D01*
X99449800Y-67337500D02*
X103612000Y-63175300D01*
X103612000Y-63175300D02*
X104030000Y-63175300D01*
X87490000Y-98980000D02*
X87490000Y-97854700D01*
X104030000Y-62000000D02*
X104030000Y-63175300D01*
X101490000Y-59460000D02*
X101490000Y-60635300D01*
X87490000Y-96440000D02*
X87490000Y-95314700D01*
X87490000Y-95314700D02*
X87771300Y-95314700D01*
X87771300Y-95314700D02*
X93600700Y-89485300D01*
X93600700Y-89485300D02*
X93600700Y-72275900D01*
X93600700Y-72275900D02*
X102665300Y-63211300D01*
X102665300Y-63211300D02*
X102665300Y-61443200D01*
X102665300Y-61443200D02*
X101857400Y-60635300D01*
X101857400Y-60635300D02*
X101490000Y-60635300D01*
X64210000Y-68475300D02*
X63842700Y-68475300D01*
X63842700Y-68475300D02*
X63014600Y-69303400D01*
X63014600Y-69303400D02*
X63014600Y-81186500D01*
X63014600Y-81186500D02*
X72062800Y-90234700D01*
X72062800Y-90234700D02*
X72250000Y-90234700D01*
X72250000Y-91360000D02*
X72250000Y-90234700D01*
X64210000Y-67300000D02*
X64210000Y-68475300D01*
X101490000Y-63175300D02*
X92700100Y-71965200D01*
X92700100Y-71965200D02*
X92700100Y-87845900D01*
X92700100Y-87845900D02*
X87771300Y-92774700D01*
X87771300Y-92774700D02*
X87490000Y-92774700D01*
X101490000Y-62000000D02*
X101490000Y-63175300D01*
X87490000Y-93900000D02*
X87490000Y-92774700D01*
X66750000Y-67300000D02*
X65574700Y-67300000D01*
X72250000Y-93900000D02*
X72250000Y-92774700D01*
X72250000Y-92774700D02*
X71968700Y-92774700D01*
X71968700Y-92774700D02*
X62562800Y-83368800D01*
X62562800Y-83368800D02*
X62562800Y-67220200D01*
X62562800Y-67220200D02*
X63658300Y-66124700D01*
X63658300Y-66124700D02*
X64766800Y-66124700D01*
X64766800Y-66124700D02*
X65574700Y-66932600D01*
X65574700Y-66932600D02*
X65574700Y-67300000D01*
X87490000Y-90234700D02*
X87771300Y-90234700D01*
X87771300Y-90234700D02*
X90727800Y-87278200D01*
X90727800Y-87278200D02*
X90727800Y-73300600D01*
X90727800Y-73300600D02*
X100125300Y-63903100D01*
X100125300Y-63903100D02*
X100125300Y-61443200D01*
X100125300Y-61443200D02*
X99317400Y-60635300D01*
X99317400Y-60635300D02*
X98950000Y-60635300D01*
X98950000Y-59460000D02*
X98950000Y-60635300D01*
X87490000Y-91360000D02*
X87490000Y-90234700D01*
X87490000Y-87694700D02*
X87771400Y-87694700D01*
X87771400Y-87694700D02*
X89827200Y-85638900D01*
X89827200Y-85638900D02*
X89827200Y-73085600D01*
X89827200Y-73085600D02*
X98950000Y-63962800D01*
X98950000Y-63962800D02*
X98950000Y-63175300D01*
X98950000Y-62000000D02*
X98950000Y-63175300D01*
X87490000Y-88820000D02*
X87490000Y-87694700D01*
X72250000Y-98980000D02*
X72250000Y-97854700D01*
X72250000Y-97854700D02*
X72531300Y-97854700D01*
X72531300Y-97854700D02*
X73396300Y-96989700D01*
X73396300Y-96989700D02*
X73396300Y-85832000D01*
X73396300Y-85832000D02*
X72574300Y-85010000D01*
X72574300Y-85010000D02*
X71928200Y-85010000D01*
X71928200Y-85010000D02*
X71082300Y-84164100D01*
X71082300Y-84164100D02*
X71082300Y-78235400D01*
X71082300Y-78235400D02*
X71927700Y-77390000D01*
X71927700Y-77390000D02*
X72651600Y-77390000D01*
X72651600Y-77390000D02*
X73417600Y-76624000D01*
X73417600Y-76624000D02*
X73417600Y-70602800D01*
X73417600Y-70602800D02*
X72654800Y-69840000D01*
X72654800Y-69840000D02*
X66750000Y-69840000D01*
X96410000Y-59460000D02*
X96410000Y-60635300D01*
X87490000Y-86280000D02*
X87490000Y-85154700D01*
X87490000Y-85154700D02*
X87771300Y-85154700D01*
X87771300Y-85154700D02*
X89065700Y-83860300D01*
X89065700Y-83860300D02*
X89065700Y-73133400D01*
X89065700Y-73133400D02*
X97585300Y-64613800D01*
X97585300Y-64613800D02*
X97585300Y-61443200D01*
X97585300Y-61443200D02*
X96777400Y-60635300D01*
X96777400Y-60635300D02*
X96410000Y-60635300D01*
X87490000Y-82614700D02*
X87753700Y-82614700D01*
X87753700Y-82614700D02*
X88615300Y-81753100D01*
X88615300Y-81753100D02*
X88615300Y-72946900D01*
X88615300Y-72946900D02*
X96410000Y-65152200D01*
X96410000Y-65152200D02*
X96410000Y-63175300D01*
X96410000Y-62000000D02*
X96410000Y-63175300D01*
X87490000Y-83740000D02*
X87490000Y-82614700D01*
X102375300Y-68250000D02*
X103533000Y-67092300D01*
X103533000Y-67092300D02*
X114996400Y-67092300D01*
X114996400Y-67092300D02*
X122005700Y-74101600D01*
X122005700Y-74101600D02*
X122005700Y-78543800D01*
X122005700Y-78543800D02*
X127425400Y-83963500D01*
X127425400Y-83963500D02*
X127425400Y-86130700D01*
X127425400Y-86130700D02*
X140624700Y-99330000D01*
X141750000Y-99330000D02*
X140624700Y-99330000D01*
X101250000Y-68250000D02*
X102375300Y-68250000D01*
X101250000Y-73330000D02*
X101250000Y-74455300D01*
X101250000Y-74455300D02*
X101531300Y-74455300D01*
X101531300Y-74455300D02*
X103276100Y-76200100D01*
X103276100Y-76200100D02*
X103276100Y-92206000D01*
X103276100Y-92206000D02*
X108530100Y-97460000D01*
X108530100Y-97460000D02*
X109215700Y-97460000D01*
X109215700Y-97460000D02*
X126340000Y-114584300D01*
X126340000Y-114584300D02*
X126340000Y-116000000D01*
X102375300Y-70790000D02*
X103505900Y-69659400D01*
X103505900Y-69659400D02*
X116926600Y-69659400D01*
X116926600Y-69659400D02*
X120531700Y-73264500D01*
X120531700Y-73264500D02*
X120531700Y-106476400D01*
X120531700Y-106476400D02*
X128880000Y-114824700D01*
X128880000Y-116000000D02*
X128880000Y-114824700D01*
X101250000Y-70790000D02*
X102375300Y-70790000D01*
X126877700Y-71000000D02*
X126290000Y-71587700D01*
X126290000Y-71587700D02*
X126290000Y-73540000D01*
X126877700Y-71000000D02*
X127465300Y-71000000D01*
X126290000Y-71000000D02*
X126877700Y-71000000D01*
X141750000Y-68000000D02*
X130465300Y-68000000D01*
X130465300Y-68000000D02*
X127465300Y-71000000D01*
X126290000Y-76080000D02*
X126290000Y-78620000D01*
X126290000Y-73540000D02*
X126290000Y-76080000D01*
X141750000Y-75620000D02*
X140624700Y-75620000D01*
X132250000Y-71000000D02*
X133425300Y-71000000D01*
X133425300Y-71000000D02*
X133425300Y-70698100D01*
X133425300Y-70698100D02*
X134298700Y-69824700D01*
X134298700Y-69824700D02*
X135392000Y-69824700D01*
X135392000Y-69824700D02*
X140624700Y-75057400D01*
X140624700Y-75057400D02*
X140624700Y-75620000D01*
X132250000Y-76080000D02*
X132250000Y-77255300D01*
X141750000Y-80700000D02*
X135203600Y-80700000D01*
X135203600Y-80700000D02*
X133425300Y-78921700D01*
X133425300Y-78921700D02*
X133425300Y-78063200D01*
X133425300Y-78063200D02*
X132617400Y-77255300D01*
X132617400Y-77255300D02*
X132250000Y-77255300D01*
X141750000Y-83240000D02*
X136870000Y-83240000D01*
X136870000Y-83240000D02*
X132250000Y-78620000D01*
X149370000Y-109490000D02*
X148244700Y-109490000D01*
X148244700Y-109490000D02*
X148244700Y-109208700D01*
X148244700Y-109208700D02*
X142176000Y-103140000D01*
X142176000Y-103140000D02*
X141428500Y-103140000D01*
X141428500Y-103140000D02*
X126250000Y-87961500D01*
X126250000Y-87961500D02*
X126250000Y-85000000D01*
X131330000Y-85000000D02*
X130154700Y-85000000D01*
X130154700Y-85000000D02*
X130154700Y-84222800D01*
X130154700Y-84222800D02*
X125075400Y-79143500D01*
X125075400Y-79143500D02*
X125075400Y-70274600D01*
X125075400Y-70274600D02*
X125525300Y-69824700D01*
X125525300Y-69824700D02*
X125525300Y-61443200D01*
X125525300Y-61443200D02*
X124717400Y-60635300D01*
X124717400Y-60635300D02*
X124350000Y-60635300D01*
X148244700Y-104410000D02*
X148244700Y-104128700D01*
X148244700Y-104128700D02*
X142176000Y-98060000D01*
X142176000Y-98060000D02*
X141424100Y-98060000D01*
X141424100Y-98060000D02*
X131330000Y-87965900D01*
X131330000Y-87965900D02*
X131330000Y-85000000D01*
X124350000Y-59460000D02*
X124350000Y-60635300D01*
X149370000Y-104410000D02*
X148244700Y-104410000D01*
X149370000Y-106950000D02*
X149370000Y-104410000D01*
X114750000Y-84590000D02*
X114750000Y-83464700D01*
X114750000Y-83464700D02*
X114500000Y-83214700D01*
X114500000Y-83214700D02*
X114500000Y-76580000D01*
D21*
G36*
X159290001Y-124290000D02*
G01*
X60710000Y-124290000D01*
X60710000Y-120279872D01*
X63265000Y-120279872D01*
X63265000Y-120720128D01*
X63350890Y-121151925D01*
X63519369Y-121558669D01*
X63763962Y-121924729D01*
X64075271Y-122236038D01*
X64441331Y-122480631D01*
X64848075Y-122649110D01*
X65279872Y-122735000D01*
X65720128Y-122735000D01*
X66151925Y-122649110D01*
X66558669Y-122480631D01*
X66924729Y-122236038D01*
X67236038Y-121924729D01*
X67480631Y-121558669D01*
X67649110Y-121151925D01*
X67735000Y-120720128D01*
X67735000Y-120279872D01*
X67699222Y-120100000D01*
X99011928Y-120100000D01*
X99011928Y-122900000D01*
X99024188Y-123024482D01*
X99060498Y-123144180D01*
X99119463Y-123254494D01*
X99198815Y-123351185D01*
X99295506Y-123430537D01*
X99405820Y-123489502D01*
X99525518Y-123525812D01*
X99650000Y-123538072D01*
X100850000Y-123538072D01*
X100974482Y-123525812D01*
X101094180Y-123489502D01*
X101204494Y-123430537D01*
X101301185Y-123351185D01*
X101380537Y-123254494D01*
X101439502Y-123144180D01*
X101475812Y-123024482D01*
X101488072Y-122900000D01*
X101488072Y-121700000D01*
X104961928Y-121700000D01*
X104961928Y-122900000D01*
X104974188Y-123024482D01*
X105010498Y-123144180D01*
X105069463Y-123254494D01*
X105148815Y-123351185D01*
X105245506Y-123430537D01*
X105355820Y-123489502D01*
X105475518Y-123525812D01*
X105600000Y-123538072D01*
X108400000Y-123538072D01*
X108524482Y-123525812D01*
X108644180Y-123489502D01*
X108754494Y-123430537D01*
X108851185Y-123351185D01*
X108930537Y-123254494D01*
X108989502Y-123144180D01*
X109025812Y-123024482D01*
X109038072Y-122900000D01*
X109038072Y-121700000D01*
X109025812Y-121575518D01*
X108989502Y-121455820D01*
X108930537Y-121345506D01*
X108851185Y-121248815D01*
X108754494Y-121169463D01*
X108644180Y-121110498D01*
X108524482Y-121074188D01*
X108400000Y-121061928D01*
X105600000Y-121061928D01*
X105475518Y-121074188D01*
X105355820Y-121110498D01*
X105245506Y-121169463D01*
X105148815Y-121248815D01*
X105069463Y-121345506D01*
X105010498Y-121455820D01*
X104974188Y-121575518D01*
X104961928Y-121700000D01*
X101488072Y-121700000D01*
X101488072Y-120100000D01*
X112511928Y-120100000D01*
X112511928Y-122900000D01*
X112524188Y-123024482D01*
X112560498Y-123144180D01*
X112619463Y-123254494D01*
X112698815Y-123351185D01*
X112795506Y-123430537D01*
X112905820Y-123489502D01*
X113025518Y-123525812D01*
X113150000Y-123538072D01*
X114350000Y-123538072D01*
X114474482Y-123525812D01*
X114594180Y-123489502D01*
X114704494Y-123430537D01*
X114801185Y-123351185D01*
X114880537Y-123254494D01*
X114939502Y-123144180D01*
X114975812Y-123024482D01*
X114988072Y-122900000D01*
X114988072Y-120279872D01*
X152265000Y-120279872D01*
X152265000Y-120720128D01*
X152350890Y-121151925D01*
X152519369Y-121558669D01*
X152763962Y-121924729D01*
X153075271Y-122236038D01*
X153441331Y-122480631D01*
X153848075Y-122649110D01*
X154279872Y-122735000D01*
X154720128Y-122735000D01*
X155151925Y-122649110D01*
X155558669Y-122480631D01*
X155924729Y-122236038D01*
X156236038Y-121924729D01*
X156480631Y-121558669D01*
X156649110Y-121151925D01*
X156735000Y-120720128D01*
X156735000Y-120279872D01*
X156649110Y-119848075D01*
X156480631Y-119441331D01*
X156236038Y-119075271D01*
X155924729Y-118763962D01*
X155558669Y-118519369D01*
X155151925Y-118350890D01*
X154720128Y-118265000D01*
X154279872Y-118265000D01*
X153848075Y-118350890D01*
X153441331Y-118519369D01*
X153075271Y-118763962D01*
X152763962Y-119075271D01*
X152519369Y-119441331D01*
X152350890Y-119848075D01*
X152265000Y-120279872D01*
X114988072Y-120279872D01*
X114988072Y-120100000D01*
X114975812Y-119975518D01*
X114939502Y-119855820D01*
X114880537Y-119745506D01*
X114801185Y-119648815D01*
X114704494Y-119569463D01*
X114594180Y-119510498D01*
X114474482Y-119474188D01*
X114350000Y-119461928D01*
X113150000Y-119461928D01*
X113025518Y-119474188D01*
X112905820Y-119510498D01*
X112795506Y-119569463D01*
X112698815Y-119648815D01*
X112619463Y-119745506D01*
X112560498Y-119855820D01*
X112524188Y-119975518D01*
X112511928Y-120100000D01*
X101488072Y-120100000D01*
X101475812Y-119975518D01*
X101439502Y-119855820D01*
X101380537Y-119745506D01*
X101301185Y-119648815D01*
X101204494Y-119569463D01*
X101094180Y-119510498D01*
X100974482Y-119474188D01*
X100850000Y-119461928D01*
X99650000Y-119461928D01*
X99525518Y-119474188D01*
X99405820Y-119510498D01*
X99295506Y-119569463D01*
X99198815Y-119648815D01*
X99119463Y-119745506D01*
X99060498Y-119855820D01*
X99024188Y-119975518D01*
X99011928Y-120100000D01*
X67699222Y-120100000D01*
X67649110Y-119848075D01*
X67480631Y-119441331D01*
X67236038Y-119075271D01*
X66924729Y-118763962D01*
X66558669Y-118519369D01*
X66151925Y-118350890D01*
X65720128Y-118265000D01*
X65279872Y-118265000D01*
X64848075Y-118350890D01*
X64441331Y-118519369D01*
X64075271Y-118763962D01*
X63763962Y-119075271D01*
X63519369Y-119441331D01*
X63350890Y-119848075D01*
X63265000Y-120279872D01*
X60710000Y-120279872D01*
X60710000Y-67220200D01*
X61799124Y-67220200D01*
X61802801Y-67257533D01*
X61802800Y-83331478D01*
X61799124Y-83368800D01*
X61802800Y-83406122D01*
X61802800Y-83406132D01*
X61813797Y-83517785D01*
X61848961Y-83633708D01*
X61857254Y-83661046D01*
X61927826Y-83793076D01*
X61965547Y-83839039D01*
X62022799Y-83908801D01*
X62051803Y-83932604D01*
X71126357Y-93007159D01*
X71051068Y-93098899D01*
X70917818Y-93348192D01*
X70835764Y-93618691D01*
X70808057Y-93900000D01*
X70835764Y-94181309D01*
X70917818Y-94451808D01*
X71051068Y-94701101D01*
X71230392Y-94919608D01*
X71448899Y-95098932D01*
X71581858Y-95170000D01*
X71448899Y-95241068D01*
X71230392Y-95420392D01*
X71051068Y-95638899D01*
X70917818Y-95888192D01*
X70835764Y-96158691D01*
X70808057Y-96440000D01*
X70835764Y-96721309D01*
X70917818Y-96991808D01*
X71051068Y-97241101D01*
X71230392Y-97459608D01*
X71448899Y-97638932D01*
X71511160Y-97672211D01*
X71500997Y-97705714D01*
X71496058Y-97755861D01*
X71448899Y-97781068D01*
X71230392Y-97960392D01*
X71051068Y-98178899D01*
X70917818Y-98428192D01*
X70835764Y-98698691D01*
X70808057Y-98980000D01*
X70835764Y-99261309D01*
X70917818Y-99531808D01*
X71051068Y-99781101D01*
X71230392Y-99999608D01*
X71448899Y-100178932D01*
X71581858Y-100250000D01*
X71448899Y-100321068D01*
X71230392Y-100500392D01*
X71051068Y-100718899D01*
X70917818Y-100968192D01*
X70835764Y-101238691D01*
X70808057Y-101520000D01*
X70835764Y-101801309D01*
X70917818Y-102071808D01*
X71051068Y-102321101D01*
X71230392Y-102539608D01*
X71448899Y-102718932D01*
X71581858Y-102790000D01*
X71448899Y-102861068D01*
X71230392Y-103040392D01*
X71051068Y-103258899D01*
X70917818Y-103508192D01*
X70835764Y-103778691D01*
X70808057Y-104060000D01*
X70835764Y-104341309D01*
X70917818Y-104611808D01*
X71051068Y-104861101D01*
X71230392Y-105079608D01*
X71448899Y-105258932D01*
X71581858Y-105330000D01*
X71448899Y-105401068D01*
X71230392Y-105580392D01*
X71051068Y-105798899D01*
X70917818Y-106048192D01*
X70835764Y-106318691D01*
X70808057Y-106600000D01*
X70835764Y-106881309D01*
X70917818Y-107151808D01*
X71051068Y-107401101D01*
X71230392Y-107619608D01*
X71448899Y-107798932D01*
X71581858Y-107870000D01*
X71448899Y-107941068D01*
X71230392Y-108120392D01*
X71051068Y-108338899D01*
X70917818Y-108588192D01*
X70835764Y-108858691D01*
X70808057Y-109140000D01*
X70835764Y-109421309D01*
X70917818Y-109691808D01*
X71051068Y-109941101D01*
X71230392Y-110159608D01*
X71448899Y-110338932D01*
X71581858Y-110410000D01*
X71448899Y-110481068D01*
X71230392Y-110660392D01*
X71051068Y-110878899D01*
X70917818Y-111128192D01*
X70835764Y-111398691D01*
X70808057Y-111680000D01*
X70835764Y-111961309D01*
X70917818Y-112231808D01*
X71051068Y-112481101D01*
X71230392Y-112699608D01*
X71448899Y-112878932D01*
X71581858Y-112950000D01*
X71448899Y-113021068D01*
X71230392Y-113200392D01*
X71051068Y-113418899D01*
X70917818Y-113668192D01*
X70835764Y-113938691D01*
X70808057Y-114220000D01*
X70835764Y-114501309D01*
X70917818Y-114771808D01*
X71051068Y-115021101D01*
X71230392Y-115239608D01*
X71448899Y-115418932D01*
X71581858Y-115490000D01*
X71448899Y-115561068D01*
X71230392Y-115740392D01*
X71051068Y-115958899D01*
X70917818Y-116208192D01*
X70835764Y-116478691D01*
X70808057Y-116760000D01*
X70835764Y-117041309D01*
X70917818Y-117311808D01*
X71051068Y-117561101D01*
X71230392Y-117779608D01*
X71448899Y-117958932D01*
X71698192Y-118092182D01*
X71968691Y-118174236D01*
X72179508Y-118195000D01*
X72320492Y-118195000D01*
X72531309Y-118174236D01*
X72801808Y-118092182D01*
X73051101Y-117958932D01*
X73269608Y-117779608D01*
X73448932Y-117561101D01*
X73582182Y-117311808D01*
X73664236Y-117041309D01*
X73691943Y-116760000D01*
X73664236Y-116478691D01*
X73582182Y-116208192D01*
X73448932Y-115958899D01*
X73269608Y-115740392D01*
X73051101Y-115561068D01*
X72918142Y-115490000D01*
X73051101Y-115418932D01*
X73269608Y-115239608D01*
X73448932Y-115021101D01*
X73582182Y-114771808D01*
X73664236Y-114501309D01*
X73691943Y-114220000D01*
X73664236Y-113938691D01*
X73582182Y-113668192D01*
X73448932Y-113418899D01*
X73269608Y-113200392D01*
X73051101Y-113021068D01*
X72918142Y-112950000D01*
X73051101Y-112878932D01*
X73269608Y-112699608D01*
X73448932Y-112481101D01*
X73582182Y-112231808D01*
X73664236Y-111961309D01*
X73691943Y-111680000D01*
X73664236Y-111398691D01*
X73582182Y-111128192D01*
X73448932Y-110878899D01*
X73269608Y-110660392D01*
X73051101Y-110481068D01*
X72918142Y-110410000D01*
X73051101Y-110338932D01*
X73269608Y-110159608D01*
X73448932Y-109941101D01*
X73582182Y-109691808D01*
X73664236Y-109421309D01*
X73691943Y-109140000D01*
X73664236Y-108858691D01*
X73582182Y-108588192D01*
X73448932Y-108338899D01*
X73269608Y-108120392D01*
X73051101Y-107941068D01*
X72918142Y-107870000D01*
X73051101Y-107798932D01*
X73269608Y-107619608D01*
X73448932Y-107401101D01*
X73582182Y-107151808D01*
X73664236Y-106881309D01*
X73691943Y-106600000D01*
X73664236Y-106318691D01*
X73582182Y-106048192D01*
X73448932Y-105798899D01*
X73269608Y-105580392D01*
X73051101Y-105401068D01*
X72918142Y-105330000D01*
X73051101Y-105258932D01*
X73269608Y-105079608D01*
X73448932Y-104861101D01*
X73582182Y-104611808D01*
X73664236Y-104341309D01*
X73691943Y-104060000D01*
X73664236Y-103778691D01*
X73582182Y-103508192D01*
X73448932Y-103258899D01*
X73269608Y-103040392D01*
X73051101Y-102861068D01*
X72918142Y-102790000D01*
X73051101Y-102718932D01*
X73269608Y-102539608D01*
X73448932Y-102321101D01*
X73582182Y-102071808D01*
X73664236Y-101801309D01*
X73691943Y-101520000D01*
X73664236Y-101238691D01*
X73582182Y-100968192D01*
X73448932Y-100718899D01*
X73269608Y-100500392D01*
X73051101Y-100321068D01*
X72918142Y-100250000D01*
X73051101Y-100178932D01*
X73269608Y-99999608D01*
X73448932Y-99781101D01*
X73582182Y-99531808D01*
X73664236Y-99261309D01*
X73691943Y-98980000D01*
X73664236Y-98698691D01*
X73582182Y-98428192D01*
X73448932Y-98178899D01*
X73373643Y-98087159D01*
X73907304Y-97553498D01*
X73936301Y-97529701D01*
X74031274Y-97413976D01*
X74101846Y-97281947D01*
X74145303Y-97138686D01*
X74156300Y-97027033D01*
X74156300Y-97027025D01*
X74159976Y-96989700D01*
X74156300Y-96952375D01*
X74156300Y-85869333D01*
X74159977Y-85832000D01*
X74145303Y-85683014D01*
X74101846Y-85539753D01*
X74031274Y-85407724D01*
X73960099Y-85320997D01*
X73936301Y-85291999D01*
X73907302Y-85268201D01*
X73881804Y-85242702D01*
X76686903Y-85242702D01*
X76758486Y-85486671D01*
X77013996Y-85607571D01*
X77288184Y-85676300D01*
X77570512Y-85690217D01*
X77850130Y-85648787D01*
X78116292Y-85553603D01*
X78241514Y-85486671D01*
X78313097Y-85242702D01*
X77500000Y-84429605D01*
X76686903Y-85242702D01*
X73881804Y-85242702D01*
X73325863Y-84686761D01*
X73481037Y-84477420D01*
X73555198Y-84320512D01*
X76059783Y-84320512D01*
X76101213Y-84600130D01*
X76196397Y-84866292D01*
X76263329Y-84991514D01*
X76507298Y-85063097D01*
X77320395Y-84250000D01*
X77679605Y-84250000D01*
X78492702Y-85063097D01*
X78736671Y-84991514D01*
X78750324Y-84962659D01*
X78885363Y-85164759D01*
X79065001Y-85344397D01*
X79065000Y-96524068D01*
X79060476Y-96570000D01*
X79067471Y-96641015D01*
X79078529Y-96753291D01*
X79131993Y-96929539D01*
X79218814Y-97091971D01*
X79335656Y-97234344D01*
X79371341Y-97263630D01*
X86058785Y-103951074D01*
X86048057Y-104060000D01*
X86058785Y-104168925D01*
X85541036Y-104686675D01*
X85505357Y-104715956D01*
X85388515Y-104858328D01*
X85330137Y-104967547D01*
X85301694Y-105020760D01*
X85248229Y-105197009D01*
X85230176Y-105380300D01*
X85234701Y-105426242D01*
X85234700Y-117241968D01*
X85230176Y-117287900D01*
X85234700Y-117333831D01*
X85248229Y-117471191D01*
X85301693Y-117647439D01*
X85388514Y-117809871D01*
X85505356Y-117952244D01*
X85541041Y-117981530D01*
X86256370Y-118696859D01*
X86285656Y-118732544D01*
X86428028Y-118849386D01*
X86590460Y-118936207D01*
X86766708Y-118989671D01*
X86950000Y-119007724D01*
X86995932Y-119003200D01*
X90085568Y-119003200D01*
X90131500Y-119007724D01*
X90177432Y-119003200D01*
X90314792Y-118989671D01*
X90491040Y-118936207D01*
X90653472Y-118849386D01*
X90795844Y-118732544D01*
X90825130Y-118696859D01*
X92010893Y-117511097D01*
X92095506Y-117580537D01*
X92205820Y-117639502D01*
X92325518Y-117675812D01*
X92450000Y-117688072D01*
X94050000Y-117688072D01*
X94174482Y-117675812D01*
X94294180Y-117639502D01*
X94404494Y-117580537D01*
X94501185Y-117501185D01*
X94580537Y-117404494D01*
X94639502Y-117294180D01*
X94675812Y-117174482D01*
X94688072Y-117050000D01*
X94688072Y-115450000D01*
X94675812Y-115325518D01*
X94639502Y-115205820D01*
X94580537Y-115095506D01*
X94501185Y-114998815D01*
X94404494Y-114919463D01*
X94294180Y-114860498D01*
X94174482Y-114824188D01*
X94156518Y-114822419D01*
X94269608Y-114729608D01*
X94448932Y-114511101D01*
X94582182Y-114261808D01*
X94664236Y-113991309D01*
X94691943Y-113710000D01*
X94664236Y-113428691D01*
X94582182Y-113158192D01*
X94448932Y-112908899D01*
X94373643Y-112817158D01*
X101615300Y-105575502D01*
X101615300Y-112537978D01*
X101611624Y-112575300D01*
X101615300Y-112612622D01*
X101615300Y-112612632D01*
X101626297Y-112724285D01*
X101650009Y-112802453D01*
X101669754Y-112867546D01*
X101740326Y-112999576D01*
X101780171Y-113048126D01*
X101835299Y-113115301D01*
X101864303Y-113139104D01*
X103350465Y-114625267D01*
X103192510Y-114656686D01*
X102938273Y-114761995D01*
X102709465Y-114914880D01*
X102514880Y-115109465D01*
X102361995Y-115338273D01*
X102256686Y-115592510D01*
X102203000Y-115862408D01*
X102203000Y-116137592D01*
X102256686Y-116407490D01*
X102361995Y-116661727D01*
X102514880Y-116890535D01*
X102709465Y-117085120D01*
X102938273Y-117238005D01*
X102967231Y-117250000D01*
X102938273Y-117261995D01*
X102709465Y-117414880D01*
X102514880Y-117609465D01*
X102361995Y-117838273D01*
X102256686Y-118092510D01*
X102203000Y-118362408D01*
X102203000Y-118637592D01*
X102256686Y-118907490D01*
X102361995Y-119161727D01*
X102514880Y-119390535D01*
X102709465Y-119585120D01*
X102938273Y-119738005D01*
X103192510Y-119843314D01*
X103462408Y-119897000D01*
X103737592Y-119897000D01*
X104007490Y-119843314D01*
X104261727Y-119738005D01*
X104490535Y-119585120D01*
X104650000Y-119425655D01*
X104809465Y-119585120D01*
X105038273Y-119738005D01*
X105292510Y-119843314D01*
X105562408Y-119897000D01*
X105837592Y-119897000D01*
X106107490Y-119843314D01*
X106361727Y-119738005D01*
X106590535Y-119585120D01*
X106785120Y-119390535D01*
X106938005Y-119161727D01*
X107000000Y-119012059D01*
X107061995Y-119161727D01*
X107214880Y-119390535D01*
X107409465Y-119585120D01*
X107638273Y-119738005D01*
X107892510Y-119843314D01*
X108162408Y-119897000D01*
X108437592Y-119897000D01*
X108707490Y-119843314D01*
X108961727Y-119738005D01*
X109190535Y-119585120D01*
X109310090Y-119465565D01*
X109614040Y-119465565D01*
X109681020Y-119705656D01*
X109930048Y-119822756D01*
X110197135Y-119889023D01*
X110472017Y-119901910D01*
X110744133Y-119860922D01*
X111003023Y-119767636D01*
X111118980Y-119705656D01*
X111185960Y-119465565D01*
X110400000Y-118679605D01*
X109614040Y-119465565D01*
X109310090Y-119465565D01*
X109385120Y-119390535D01*
X109496396Y-119223999D01*
X110220395Y-118500000D01*
X110579605Y-118500000D01*
X111365565Y-119285960D01*
X111605656Y-119218980D01*
X111722756Y-118969952D01*
X111789023Y-118702865D01*
X111801910Y-118427983D01*
X111760922Y-118155867D01*
X111667636Y-117896977D01*
X111605656Y-117781020D01*
X111365565Y-117714040D01*
X110579605Y-118500000D01*
X110220395Y-118500000D01*
X109496396Y-117776001D01*
X109385120Y-117609465D01*
X109190535Y-117414880D01*
X108961727Y-117261995D01*
X108707490Y-117156686D01*
X108437592Y-117103000D01*
X108162408Y-117103000D01*
X108008430Y-117133628D01*
X103135300Y-112260499D01*
X103135300Y-109810101D01*
X109033628Y-115708430D01*
X109003000Y-115862408D01*
X109003000Y-116137592D01*
X109056686Y-116407490D01*
X109161995Y-116661727D01*
X109314880Y-116890535D01*
X109509465Y-117085120D01*
X109738273Y-117238005D01*
X109765401Y-117249242D01*
X109681020Y-117294344D01*
X109614040Y-117534435D01*
X110400000Y-118320395D01*
X111185960Y-117534435D01*
X111118980Y-117294344D01*
X111028467Y-117251782D01*
X111061727Y-117238005D01*
X111290535Y-117085120D01*
X111485120Y-116890535D01*
X111638005Y-116661727D01*
X111743314Y-116407490D01*
X111797000Y-116137592D01*
X111797000Y-115862408D01*
X111743314Y-115592510D01*
X111638005Y-115338273D01*
X111485120Y-115109465D01*
X111290535Y-114914880D01*
X111061727Y-114761995D01*
X110807490Y-114656686D01*
X110537592Y-114603000D01*
X110262408Y-114603000D01*
X110108430Y-114633628D01*
X103585700Y-108110899D01*
X103585700Y-93590401D01*
X107785167Y-97789869D01*
X107671068Y-97928899D01*
X107537818Y-98178192D01*
X107455764Y-98448691D01*
X107428057Y-98730000D01*
X107455764Y-99011309D01*
X107537818Y-99281808D01*
X107671068Y-99531101D01*
X107850392Y-99749608D01*
X108068899Y-99928932D01*
X108201858Y-100000000D01*
X108068899Y-100071068D01*
X107850392Y-100250392D01*
X107671068Y-100468899D01*
X107537818Y-100718192D01*
X107455764Y-100988691D01*
X107428057Y-101270000D01*
X107455764Y-101551309D01*
X107537818Y-101821808D01*
X107671068Y-102071101D01*
X107850392Y-102289608D01*
X108068899Y-102468932D01*
X108318192Y-102602182D01*
X108588691Y-102684236D01*
X108799508Y-102705000D01*
X108940492Y-102705000D01*
X109151309Y-102684236D01*
X109421808Y-102602182D01*
X109671101Y-102468932D01*
X109889608Y-102289608D01*
X110068932Y-102071101D01*
X110202182Y-101821808D01*
X110284236Y-101551309D01*
X110311943Y-101270000D01*
X110284236Y-100988691D01*
X110202182Y-100718192D01*
X110068932Y-100468899D01*
X109889608Y-100250392D01*
X109671101Y-100071068D01*
X109538142Y-100000000D01*
X109671101Y-99928932D01*
X109889608Y-99749608D01*
X110068932Y-99531101D01*
X110118766Y-99437867D01*
X125472103Y-114791205D01*
X125284866Y-114944866D01*
X125099294Y-115170986D01*
X125070000Y-115225791D01*
X125040706Y-115170986D01*
X124855134Y-114944866D01*
X124629014Y-114759294D01*
X124371034Y-114621401D01*
X124091111Y-114536487D01*
X123872950Y-114515000D01*
X123727050Y-114515000D01*
X123508889Y-114536487D01*
X123228966Y-114621401D01*
X122970986Y-114759294D01*
X122744866Y-114944866D01*
X122559294Y-115170986D01*
X122421401Y-115428966D01*
X122336487Y-115708889D01*
X122307815Y-116000000D01*
X122336487Y-116291111D01*
X122421401Y-116571034D01*
X122559294Y-116829014D01*
X122744866Y-117055134D01*
X122970986Y-117240706D01*
X123228966Y-117378599D01*
X123508889Y-117463513D01*
X123727050Y-117485000D01*
X123872950Y-117485000D01*
X124091111Y-117463513D01*
X124371034Y-117378599D01*
X124629014Y-117240706D01*
X124855134Y-117055134D01*
X125040706Y-116829014D01*
X125070000Y-116774209D01*
X125099294Y-116829014D01*
X125284866Y-117055134D01*
X125510986Y-117240706D01*
X125768966Y-117378599D01*
X126048889Y-117463513D01*
X126267050Y-117485000D01*
X126412950Y-117485000D01*
X126631111Y-117463513D01*
X126911034Y-117378599D01*
X127169014Y-117240706D01*
X127395134Y-117055134D01*
X127580706Y-116829014D01*
X127610000Y-116774209D01*
X127639294Y-116829014D01*
X127824866Y-117055134D01*
X128050986Y-117240706D01*
X128308966Y-117378599D01*
X128588889Y-117463513D01*
X128807050Y-117485000D01*
X128952950Y-117485000D01*
X129171111Y-117463513D01*
X129451034Y-117378599D01*
X129709014Y-117240706D01*
X129935134Y-117055134D01*
X130120706Y-116829014D01*
X130150000Y-116774209D01*
X130179294Y-116829014D01*
X130364866Y-117055134D01*
X130590986Y-117240706D01*
X130848966Y-117378599D01*
X131128889Y-117463513D01*
X131347050Y-117485000D01*
X131492950Y-117485000D01*
X131711111Y-117463513D01*
X131991034Y-117378599D01*
X132249014Y-117240706D01*
X132475134Y-117055134D01*
X132660706Y-116829014D01*
X132690000Y-116774209D01*
X132719294Y-116829014D01*
X132904866Y-117055134D01*
X133130986Y-117240706D01*
X133388966Y-117378599D01*
X133668889Y-117463513D01*
X133887050Y-117485000D01*
X134032950Y-117485000D01*
X134251111Y-117463513D01*
X134531034Y-117378599D01*
X134789014Y-117240706D01*
X135015134Y-117055134D01*
X135039607Y-117025313D01*
X135060498Y-117094180D01*
X135119463Y-117204494D01*
X135198815Y-117301185D01*
X135295506Y-117380537D01*
X135405820Y-117439502D01*
X135525518Y-117475812D01*
X135650000Y-117488072D01*
X136214250Y-117485000D01*
X136373000Y-117326250D01*
X136373000Y-116127000D01*
X136627000Y-116127000D01*
X136627000Y-117326250D01*
X136785750Y-117485000D01*
X137350000Y-117488072D01*
X137474482Y-117475812D01*
X137594180Y-117439502D01*
X137704494Y-117380537D01*
X137801185Y-117301185D01*
X137880537Y-117204494D01*
X137939502Y-117094180D01*
X137975812Y-116974482D01*
X137988072Y-116850000D01*
X137985000Y-116285750D01*
X137826250Y-116127000D01*
X136627000Y-116127000D01*
X136373000Y-116127000D01*
X136353000Y-116127000D01*
X136353000Y-115873000D01*
X136373000Y-115873000D01*
X136373000Y-114673750D01*
X136627000Y-114673750D01*
X136627000Y-115873000D01*
X137826250Y-115873000D01*
X137985000Y-115714250D01*
X137988072Y-115150000D01*
X137975812Y-115025518D01*
X137939502Y-114905820D01*
X137880537Y-114795506D01*
X137801185Y-114698815D01*
X137704494Y-114619463D01*
X137594180Y-114560498D01*
X137474482Y-114524188D01*
X137350000Y-114511928D01*
X136785750Y-114515000D01*
X136627000Y-114673750D01*
X136373000Y-114673750D01*
X136214250Y-114515000D01*
X135650000Y-114511928D01*
X135525518Y-114524188D01*
X135405820Y-114560498D01*
X135295506Y-114619463D01*
X135198815Y-114698815D01*
X135119463Y-114795506D01*
X135060498Y-114905820D01*
X135039607Y-114974687D01*
X135015134Y-114944866D01*
X134789014Y-114759294D01*
X134531034Y-114621401D01*
X134251111Y-114536487D01*
X134032950Y-114515000D01*
X133887050Y-114515000D01*
X133668889Y-114536487D01*
X133388966Y-114621401D01*
X133130986Y-114759294D01*
X132904866Y-114944866D01*
X132719294Y-115170986D01*
X132690000Y-115225791D01*
X132660706Y-115170986D01*
X132475134Y-114944866D01*
X132249014Y-114759294D01*
X131991034Y-114621401D01*
X131711111Y-114536487D01*
X131492950Y-114515000D01*
X131347050Y-114515000D01*
X131128889Y-114536487D01*
X130848966Y-114621401D01*
X130590986Y-114759294D01*
X130364866Y-114944866D01*
X130179294Y-115170986D01*
X130150000Y-115225791D01*
X130120706Y-115170986D01*
X129935134Y-114944866D01*
X129709014Y-114759294D01*
X129633246Y-114718795D01*
X129629003Y-114675714D01*
X129585546Y-114532453D01*
X129533624Y-114435315D01*
X129514974Y-114400423D01*
X129443799Y-114313697D01*
X129420001Y-114284699D01*
X129391003Y-114260901D01*
X124969141Y-109839039D01*
X140358096Y-109839039D01*
X140398754Y-109973087D01*
X140518963Y-110227420D01*
X140686481Y-110453414D01*
X140894869Y-110642385D01*
X141136119Y-110787070D01*
X141400960Y-110881909D01*
X141623000Y-110760624D01*
X141623000Y-109617000D01*
X141877000Y-109617000D01*
X141877000Y-110760624D01*
X142099040Y-110881909D01*
X142363881Y-110787070D01*
X142605131Y-110642385D01*
X142813519Y-110453414D01*
X142981037Y-110227420D01*
X143101246Y-109973087D01*
X143141904Y-109839039D01*
X143019915Y-109617000D01*
X141877000Y-109617000D01*
X141623000Y-109617000D01*
X140480085Y-109617000D01*
X140358096Y-109839039D01*
X124969141Y-109839039D01*
X121291700Y-106161599D01*
X121291700Y-78808176D01*
X121300154Y-78836046D01*
X121370726Y-78968076D01*
X121440567Y-79053176D01*
X121465700Y-79083801D01*
X121494698Y-79107599D01*
X125899026Y-83511928D01*
X125400000Y-83511928D01*
X125275518Y-83524188D01*
X125155820Y-83560498D01*
X125045506Y-83619463D01*
X124948815Y-83698815D01*
X124869463Y-83795506D01*
X124810498Y-83905820D01*
X124774188Y-84025518D01*
X124761928Y-84150000D01*
X124761928Y-85850000D01*
X124774188Y-85974482D01*
X124810498Y-86094180D01*
X124869463Y-86204494D01*
X124948815Y-86301185D01*
X125045506Y-86380537D01*
X125155820Y-86439502D01*
X125275518Y-86475812D01*
X125400000Y-86488072D01*
X125490000Y-86488072D01*
X125490000Y-87924177D01*
X125486324Y-87961500D01*
X125490000Y-87998822D01*
X125490000Y-87998832D01*
X125500997Y-88110485D01*
X125522683Y-88181974D01*
X125544454Y-88253746D01*
X125615026Y-88385776D01*
X125643946Y-88421015D01*
X125709999Y-88501501D01*
X125739003Y-88525304D01*
X140673461Y-103459763D01*
X140551068Y-103608899D01*
X140417818Y-103858192D01*
X140335764Y-104128691D01*
X140308057Y-104410000D01*
X140335764Y-104691309D01*
X140417818Y-104961808D01*
X140551068Y-105211101D01*
X140730392Y-105429608D01*
X140948899Y-105608932D01*
X141081858Y-105680000D01*
X140948899Y-105751068D01*
X140730392Y-105930392D01*
X140551068Y-106148899D01*
X140417818Y-106398192D01*
X140335764Y-106668691D01*
X140308057Y-106950000D01*
X140335764Y-107231309D01*
X140417818Y-107501808D01*
X140551068Y-107751101D01*
X140730392Y-107969608D01*
X140948899Y-108148932D01*
X141086682Y-108222579D01*
X140894869Y-108337615D01*
X140686481Y-108526586D01*
X140518963Y-108752580D01*
X140398754Y-109006913D01*
X140358096Y-109140961D01*
X140480085Y-109363000D01*
X141623000Y-109363000D01*
X141623000Y-109343000D01*
X141877000Y-109343000D01*
X141877000Y-109363000D01*
X143019915Y-109363000D01*
X143141904Y-109140961D01*
X143101246Y-109006913D01*
X142981037Y-108752580D01*
X142813519Y-108526586D01*
X142605131Y-108337615D01*
X142413318Y-108222579D01*
X142551101Y-108148932D01*
X142769608Y-107969608D01*
X142948932Y-107751101D01*
X143082182Y-107501808D01*
X143164236Y-107231309D01*
X143191943Y-106950000D01*
X143164236Y-106668691D01*
X143082182Y-106398192D01*
X142948932Y-106148899D01*
X142769608Y-105930392D01*
X142551101Y-105751068D01*
X142418142Y-105680000D01*
X142551101Y-105608932D01*
X142769608Y-105429608D01*
X142948932Y-105211101D01*
X143026737Y-105065538D01*
X147484281Y-109523083D01*
X147495697Y-109638986D01*
X147539154Y-109782247D01*
X147609726Y-109914276D01*
X147657693Y-109972724D01*
X147704699Y-110030001D01*
X147820424Y-110124974D01*
X147952453Y-110195546D01*
X148095714Y-110239003D01*
X148145861Y-110243942D01*
X148171068Y-110291101D01*
X148350392Y-110509608D01*
X148568899Y-110688932D01*
X148818192Y-110822182D01*
X149088691Y-110904236D01*
X149299508Y-110925000D01*
X149440492Y-110925000D01*
X149651309Y-110904236D01*
X149921808Y-110822182D01*
X150171101Y-110688932D01*
X150389608Y-110509608D01*
X150568932Y-110291101D01*
X150702182Y-110041808D01*
X150784236Y-109771309D01*
X150811943Y-109490000D01*
X150784236Y-109208691D01*
X150702182Y-108938192D01*
X150568932Y-108688899D01*
X150389608Y-108470392D01*
X150171101Y-108291068D01*
X150038142Y-108220000D01*
X150171101Y-108148932D01*
X150389608Y-107969608D01*
X150568932Y-107751101D01*
X150702182Y-107501808D01*
X150784236Y-107231309D01*
X150811943Y-106950000D01*
X150784236Y-106668691D01*
X150702182Y-106398192D01*
X150568932Y-106148899D01*
X150389608Y-105930392D01*
X150171101Y-105751068D01*
X150130000Y-105729099D01*
X150130000Y-105630901D01*
X150171101Y-105608932D01*
X150389608Y-105429608D01*
X150568932Y-105211101D01*
X150702182Y-104961808D01*
X150784236Y-104691309D01*
X150811943Y-104410000D01*
X150784236Y-104128691D01*
X150702182Y-103858192D01*
X150568932Y-103608899D01*
X150389608Y-103390392D01*
X150171101Y-103211068D01*
X150038142Y-103140000D01*
X150171101Y-103068932D01*
X150389608Y-102889608D01*
X150568932Y-102671101D01*
X150702182Y-102421808D01*
X150784236Y-102151309D01*
X150811943Y-101870000D01*
X150784236Y-101588691D01*
X150702182Y-101318192D01*
X150568932Y-101068899D01*
X150389608Y-100850392D01*
X150171101Y-100671068D01*
X150038142Y-100600000D01*
X150171101Y-100528932D01*
X150389608Y-100349608D01*
X150568932Y-100131101D01*
X150702182Y-99881808D01*
X150784236Y-99611309D01*
X150811943Y-99330000D01*
X150784236Y-99048691D01*
X150702182Y-98778192D01*
X150568932Y-98528899D01*
X150389608Y-98310392D01*
X150171101Y-98131068D01*
X150130000Y-98109099D01*
X150130000Y-98010901D01*
X150171101Y-97988932D01*
X150389608Y-97809608D01*
X150568932Y-97591101D01*
X150702182Y-97341808D01*
X150784236Y-97071309D01*
X150811943Y-96790000D01*
X150784236Y-96508691D01*
X150702182Y-96238192D01*
X150568932Y-95988899D01*
X150389608Y-95770392D01*
X150171101Y-95591068D01*
X150123942Y-95565861D01*
X150119003Y-95515714D01*
X150108840Y-95482211D01*
X150171101Y-95448932D01*
X150389608Y-95269608D01*
X150568932Y-95051101D01*
X150702182Y-94801808D01*
X150784236Y-94531309D01*
X150811943Y-94250000D01*
X150784236Y-93968691D01*
X150702182Y-93698192D01*
X150568932Y-93448899D01*
X150389608Y-93230392D01*
X150305000Y-93160956D01*
X150305000Y-92995632D01*
X150309524Y-92949700D01*
X150291471Y-92766408D01*
X150238007Y-92590160D01*
X150151186Y-92427728D01*
X150121239Y-92391238D01*
X150366292Y-92303603D01*
X150491514Y-92236671D01*
X150563097Y-91992702D01*
X149750000Y-91179605D01*
X149735858Y-91193748D01*
X149556253Y-91014143D01*
X149570395Y-91000000D01*
X149929605Y-91000000D01*
X150742702Y-91813097D01*
X150986671Y-91741514D01*
X151107571Y-91486004D01*
X151176300Y-91211816D01*
X151190217Y-90929488D01*
X151148787Y-90649870D01*
X151053603Y-90383708D01*
X150986671Y-90258486D01*
X150742702Y-90186903D01*
X149929605Y-91000000D01*
X149570395Y-91000000D01*
X148757298Y-90186903D01*
X148513329Y-90258486D01*
X148499676Y-90287341D01*
X148364637Y-90085241D01*
X148286694Y-90007298D01*
X148936903Y-90007298D01*
X149750000Y-90820395D01*
X150563097Y-90007298D01*
X150491514Y-89763329D01*
X150236004Y-89642429D01*
X149961816Y-89573700D01*
X149679488Y-89559783D01*
X149399870Y-89601213D01*
X149133708Y-89696397D01*
X149008486Y-89763329D01*
X148936903Y-90007298D01*
X148286694Y-90007298D01*
X148185000Y-89905604D01*
X148185000Y-86598077D01*
X148350392Y-86799608D01*
X148568899Y-86978932D01*
X148818192Y-87112182D01*
X149088691Y-87194236D01*
X149299508Y-87215000D01*
X149440492Y-87215000D01*
X149651309Y-87194236D01*
X149921808Y-87112182D01*
X150171101Y-86978932D01*
X150389608Y-86799608D01*
X150568932Y-86581101D01*
X150702182Y-86331808D01*
X150784236Y-86061309D01*
X150811943Y-85780000D01*
X150784236Y-85498691D01*
X150702182Y-85228192D01*
X150568932Y-84978899D01*
X150389608Y-84760392D01*
X150171101Y-84581068D01*
X150038142Y-84510000D01*
X150171101Y-84438932D01*
X150389608Y-84259608D01*
X150568932Y-84041101D01*
X150702182Y-83791808D01*
X150784236Y-83521309D01*
X150811943Y-83240000D01*
X150784236Y-82958691D01*
X150702182Y-82688192D01*
X150568932Y-82438899D01*
X150389608Y-82220392D01*
X150171101Y-82041068D01*
X150038142Y-81970000D01*
X150171101Y-81898932D01*
X150389608Y-81719608D01*
X150568932Y-81501101D01*
X150702182Y-81251808D01*
X150784236Y-80981309D01*
X150811943Y-80700000D01*
X150784236Y-80418691D01*
X150702182Y-80148192D01*
X150568932Y-79898899D01*
X150389608Y-79680392D01*
X150171101Y-79501068D01*
X150038142Y-79430000D01*
X150171101Y-79358932D01*
X150389608Y-79179608D01*
X150568932Y-78961101D01*
X150702182Y-78711808D01*
X150784236Y-78441309D01*
X150811943Y-78160000D01*
X150784236Y-77878691D01*
X150702182Y-77608192D01*
X150568932Y-77358899D01*
X150389608Y-77140392D01*
X150171101Y-76961068D01*
X150038142Y-76890000D01*
X150171101Y-76818932D01*
X150389608Y-76639608D01*
X150568932Y-76421101D01*
X150702182Y-76171808D01*
X150784236Y-75901309D01*
X150811943Y-75620000D01*
X150784236Y-75338691D01*
X150702182Y-75068192D01*
X150568932Y-74818899D01*
X150389608Y-74600392D01*
X150171101Y-74421068D01*
X150038142Y-74350000D01*
X150171101Y-74278932D01*
X150389608Y-74099608D01*
X150568932Y-73881101D01*
X150702182Y-73631808D01*
X150784236Y-73361309D01*
X150811943Y-73080000D01*
X150784236Y-72798691D01*
X150702182Y-72528192D01*
X150568932Y-72278899D01*
X150389608Y-72060392D01*
X150171101Y-71881068D01*
X150038142Y-71810000D01*
X150171101Y-71738932D01*
X150389608Y-71559608D01*
X150568932Y-71341101D01*
X150702182Y-71091808D01*
X150784236Y-70821309D01*
X150811943Y-70540000D01*
X150784236Y-70258691D01*
X150702182Y-69988192D01*
X150568932Y-69738899D01*
X150389608Y-69520392D01*
X150171101Y-69341068D01*
X150038142Y-69270000D01*
X150171101Y-69198932D01*
X150389608Y-69019608D01*
X150568932Y-68801101D01*
X150702182Y-68551808D01*
X150784236Y-68281309D01*
X150811943Y-68000000D01*
X150784236Y-67718691D01*
X150702182Y-67448192D01*
X150568932Y-67198899D01*
X150389608Y-66980392D01*
X150171101Y-66801068D01*
X149921808Y-66667818D01*
X149651309Y-66585764D01*
X149440492Y-66565000D01*
X149299508Y-66565000D01*
X149088691Y-66585764D01*
X148818192Y-66667818D01*
X148568899Y-66801068D01*
X148350392Y-66980392D01*
X148171068Y-67198899D01*
X148037818Y-67448192D01*
X147955764Y-67718691D01*
X147928057Y-68000000D01*
X147938785Y-68108926D01*
X146621341Y-69426370D01*
X146585656Y-69455656D01*
X146468814Y-69598029D01*
X146381993Y-69760461D01*
X146339566Y-69900324D01*
X146328529Y-69936709D01*
X146310476Y-70120000D01*
X146315000Y-70165932D01*
X146315001Y-89905603D01*
X146135363Y-90085241D01*
X145978320Y-90320273D01*
X145870147Y-90581426D01*
X145815000Y-90858665D01*
X145815000Y-91141335D01*
X145858420Y-91359618D01*
X141575417Y-87076616D01*
X141623000Y-87050624D01*
X141623000Y-85907000D01*
X141877000Y-85907000D01*
X141877000Y-87050624D01*
X142099040Y-87171909D01*
X142363881Y-87077070D01*
X142605131Y-86932385D01*
X142813519Y-86743414D01*
X142981037Y-86517420D01*
X143101246Y-86263087D01*
X143141904Y-86129039D01*
X143019915Y-85907000D01*
X141877000Y-85907000D01*
X141623000Y-85907000D01*
X141603000Y-85907000D01*
X141603000Y-85653000D01*
X141623000Y-85653000D01*
X141623000Y-85633000D01*
X141877000Y-85633000D01*
X141877000Y-85653000D01*
X143019915Y-85653000D01*
X143141904Y-85430961D01*
X143101246Y-85296913D01*
X142981037Y-85042580D01*
X142824713Y-84831688D01*
X143396602Y-84259799D01*
X143425601Y-84236001D01*
X143520574Y-84120276D01*
X143591146Y-83988247D01*
X143634603Y-83844986D01*
X143645600Y-83733333D01*
X143645600Y-83733323D01*
X143649276Y-83696000D01*
X143645600Y-83658677D01*
X143645600Y-66172933D01*
X143649277Y-66135600D01*
X143634603Y-65986614D01*
X143591146Y-65843353D01*
X143520574Y-65711324D01*
X143449399Y-65624597D01*
X143425601Y-65595599D01*
X143396604Y-65571802D01*
X142683467Y-64858665D01*
X146065000Y-64858665D01*
X146065000Y-65141335D01*
X146120147Y-65418574D01*
X146228320Y-65679727D01*
X146385363Y-65914759D01*
X146585241Y-66114637D01*
X146820273Y-66271680D01*
X147081426Y-66379853D01*
X147358665Y-66435000D01*
X147641335Y-66435000D01*
X147918574Y-66379853D01*
X148179727Y-66271680D01*
X148414759Y-66114637D01*
X148536694Y-65992702D01*
X149186903Y-65992702D01*
X149258486Y-66236671D01*
X149513996Y-66357571D01*
X149788184Y-66426300D01*
X150070512Y-66440217D01*
X150350130Y-66398787D01*
X150616292Y-66303603D01*
X150741514Y-66236671D01*
X150813097Y-65992702D01*
X150000000Y-65179605D01*
X149186903Y-65992702D01*
X148536694Y-65992702D01*
X148614637Y-65914759D01*
X148748692Y-65714131D01*
X148763329Y-65741514D01*
X149007298Y-65813097D01*
X149820395Y-65000000D01*
X150179605Y-65000000D01*
X150992702Y-65813097D01*
X151236671Y-65741514D01*
X151357571Y-65486004D01*
X151426300Y-65211816D01*
X151440217Y-64929488D01*
X151398787Y-64649870D01*
X151303603Y-64383708D01*
X151236671Y-64258486D01*
X150992702Y-64186903D01*
X150179605Y-65000000D01*
X149820395Y-65000000D01*
X149007298Y-64186903D01*
X148763329Y-64258486D01*
X148749676Y-64287341D01*
X148614637Y-64085241D01*
X148536694Y-64007298D01*
X149186903Y-64007298D01*
X150000000Y-64820395D01*
X150813097Y-64007298D01*
X150741514Y-63763329D01*
X150486004Y-63642429D01*
X150211816Y-63573700D01*
X149929488Y-63559783D01*
X149649870Y-63601213D01*
X149383708Y-63696397D01*
X149258486Y-63763329D01*
X149186903Y-64007298D01*
X148536694Y-64007298D01*
X148414759Y-63885363D01*
X148179727Y-63728320D01*
X147918574Y-63620147D01*
X147641335Y-63565000D01*
X147358665Y-63565000D01*
X147081426Y-63620147D01*
X146820273Y-63728320D01*
X146585241Y-63885363D01*
X146385363Y-64085241D01*
X146228320Y-64320273D01*
X146120147Y-64581426D01*
X146065000Y-64858665D01*
X142683467Y-64858665D01*
X135561404Y-57736603D01*
X135537601Y-57707599D01*
X135421876Y-57612626D01*
X135289847Y-57542054D01*
X135146586Y-57498597D01*
X135034933Y-57487600D01*
X135034922Y-57487600D01*
X134997600Y-57483924D01*
X134960278Y-57487600D01*
X118782523Y-57487600D01*
X118745200Y-57483924D01*
X118707877Y-57487600D01*
X118707867Y-57487600D01*
X118596214Y-57498597D01*
X118452953Y-57542054D01*
X118320923Y-57612626D01*
X118237283Y-57681268D01*
X118205199Y-57707599D01*
X118181401Y-57736598D01*
X117635739Y-58282260D01*
X117559014Y-58219294D01*
X117301034Y-58081401D01*
X117021111Y-57996487D01*
X116802950Y-57975000D01*
X116657050Y-57975000D01*
X116438889Y-57996487D01*
X116158966Y-58081401D01*
X115900986Y-58219294D01*
X115821406Y-58284604D01*
X115285403Y-57748602D01*
X115261601Y-57719599D01*
X115145876Y-57624626D01*
X115013847Y-57554054D01*
X114870586Y-57510597D01*
X114758933Y-57499600D01*
X114758922Y-57499600D01*
X114721600Y-57495924D01*
X114684278Y-57499600D01*
X95935733Y-57499600D01*
X95898400Y-57495923D01*
X95861067Y-57499600D01*
X95749414Y-57510597D01*
X95606153Y-57554054D01*
X95474124Y-57624626D01*
X95358399Y-57719599D01*
X95334601Y-57748598D01*
X94789580Y-58293619D01*
X94699014Y-58219294D01*
X94441034Y-58081401D01*
X94161111Y-57996487D01*
X93942950Y-57975000D01*
X93797050Y-57975000D01*
X93578889Y-57996487D01*
X93298966Y-58081401D01*
X93040986Y-58219294D01*
X92814866Y-58404866D01*
X92629294Y-58630986D01*
X92600000Y-58685791D01*
X92570706Y-58630986D01*
X92385134Y-58404866D01*
X92159014Y-58219294D01*
X91901034Y-58081401D01*
X91621111Y-57996487D01*
X91402950Y-57975000D01*
X91257050Y-57975000D01*
X91038889Y-57996487D01*
X90758966Y-58081401D01*
X90500986Y-58219294D01*
X90274866Y-58404866D01*
X90089294Y-58630986D01*
X90054799Y-58695523D01*
X89985178Y-58578645D01*
X89790269Y-58362412D01*
X89556920Y-58188359D01*
X89294099Y-58063175D01*
X89146890Y-58018524D01*
X88917000Y-58139845D01*
X88917000Y-59333000D01*
X88937000Y-59333000D01*
X88937000Y-59587000D01*
X88917000Y-59587000D01*
X88917000Y-59607000D01*
X88663000Y-59607000D01*
X88663000Y-59587000D01*
X86377000Y-59587000D01*
X86377000Y-59607000D01*
X86123000Y-59607000D01*
X86123000Y-59587000D01*
X84929186Y-59587000D01*
X84808519Y-59816891D01*
X84905843Y-60091252D01*
X85054822Y-60341355D01*
X85231626Y-60537502D01*
X85155820Y-60560498D01*
X85045506Y-60619463D01*
X84948815Y-60698815D01*
X84869463Y-60795506D01*
X84810498Y-60905820D01*
X84774188Y-61025518D01*
X84761928Y-61150000D01*
X84761928Y-62850000D01*
X84774188Y-62974482D01*
X84810498Y-63094180D01*
X84869463Y-63204494D01*
X84948815Y-63301185D01*
X84964200Y-63313811D01*
X79371336Y-68906675D01*
X79335657Y-68935956D01*
X79218815Y-69078328D01*
X79159272Y-69189726D01*
X79131994Y-69240760D01*
X79078529Y-69417009D01*
X79060476Y-69600300D01*
X79065001Y-69646242D01*
X79065000Y-83155604D01*
X78885363Y-83335241D01*
X78751308Y-83535869D01*
X78736671Y-83508486D01*
X78492702Y-83436903D01*
X77679605Y-84250000D01*
X77320395Y-84250000D01*
X76507298Y-83436903D01*
X76263329Y-83508486D01*
X76142429Y-83763996D01*
X76073700Y-84038184D01*
X76059783Y-84320512D01*
X73555198Y-84320512D01*
X73601246Y-84223087D01*
X73641904Y-84089039D01*
X73519915Y-83867000D01*
X72377000Y-83867000D01*
X72377000Y-83887000D01*
X72123000Y-83887000D01*
X72123000Y-83867000D01*
X72103000Y-83867000D01*
X72103000Y-83613000D01*
X72123000Y-83613000D01*
X72123000Y-83593000D01*
X72377000Y-83593000D01*
X72377000Y-83613000D01*
X73519915Y-83613000D01*
X73641904Y-83390961D01*
X73601363Y-83257298D01*
X76686903Y-83257298D01*
X77500000Y-84070395D01*
X78313097Y-83257298D01*
X78241514Y-83013329D01*
X77986004Y-82892429D01*
X77711816Y-82823700D01*
X77429488Y-82809783D01*
X77149870Y-82851213D01*
X76883708Y-82946397D01*
X76758486Y-83013329D01*
X76686903Y-83257298D01*
X73601363Y-83257298D01*
X73601246Y-83256913D01*
X73481037Y-83002580D01*
X73313519Y-82776586D01*
X73105131Y-82587615D01*
X72913318Y-82472579D01*
X73051101Y-82398932D01*
X73269608Y-82219608D01*
X73448932Y-82001101D01*
X73582182Y-81751808D01*
X73664236Y-81481309D01*
X73691943Y-81200000D01*
X73664236Y-80918691D01*
X73582182Y-80648192D01*
X73448932Y-80398899D01*
X73269608Y-80180392D01*
X73051101Y-80001068D01*
X72918142Y-79930000D01*
X73051101Y-79858932D01*
X73269608Y-79679608D01*
X73448932Y-79461101D01*
X73582182Y-79211808D01*
X73664236Y-78941309D01*
X73691943Y-78660000D01*
X73664236Y-78378691D01*
X73582182Y-78108192D01*
X73448932Y-77858899D01*
X73362644Y-77753757D01*
X73928604Y-77187798D01*
X73957601Y-77164001D01*
X74052574Y-77048276D01*
X74123146Y-76916247D01*
X74166603Y-76772986D01*
X74177600Y-76661333D01*
X74177600Y-76661332D01*
X74181277Y-76624000D01*
X74177600Y-76586667D01*
X74177600Y-70640122D01*
X74181276Y-70602799D01*
X74177600Y-70565476D01*
X74177600Y-70565467D01*
X74166603Y-70453814D01*
X74123146Y-70310553D01*
X74106279Y-70278998D01*
X74052574Y-70178523D01*
X73981399Y-70091797D01*
X73957601Y-70062799D01*
X73928602Y-70039001D01*
X73564111Y-69674509D01*
X73580537Y-69654494D01*
X73639502Y-69544180D01*
X73675812Y-69424482D01*
X73688072Y-69300000D01*
X73688072Y-67700000D01*
X73675812Y-67575518D01*
X73639502Y-67455820D01*
X73580537Y-67345506D01*
X73501185Y-67248815D01*
X73404494Y-67169463D01*
X73294180Y-67110498D01*
X73174482Y-67074188D01*
X73050000Y-67061928D01*
X71450000Y-67061928D01*
X71325518Y-67074188D01*
X71205820Y-67110498D01*
X71095506Y-67169463D01*
X70998815Y-67248815D01*
X70919463Y-67345506D01*
X70860498Y-67455820D01*
X70824188Y-67575518D01*
X70811928Y-67700000D01*
X70811928Y-67740000D01*
X68168348Y-67740000D01*
X68213513Y-67591111D01*
X68242185Y-67300000D01*
X68213513Y-67008889D01*
X68128599Y-66728966D01*
X67990706Y-66470986D01*
X67805134Y-66244866D01*
X67579014Y-66059294D01*
X67524209Y-66030000D01*
X67579014Y-66000706D01*
X67805134Y-65815134D01*
X67990706Y-65589014D01*
X68128599Y-65331034D01*
X68213513Y-65051111D01*
X68242185Y-64760000D01*
X68213513Y-64468889D01*
X68128599Y-64188966D01*
X67990706Y-63930986D01*
X67805134Y-63704866D01*
X67579014Y-63519294D01*
X67321034Y-63381401D01*
X67041111Y-63296487D01*
X66822950Y-63275000D01*
X66677050Y-63275000D01*
X66458889Y-63296487D01*
X66178966Y-63381401D01*
X65920986Y-63519294D01*
X65694866Y-63704866D01*
X65509294Y-63930986D01*
X65478416Y-63988756D01*
X65307588Y-63759731D01*
X65091355Y-63564822D01*
X64841252Y-63415843D01*
X64566891Y-63318519D01*
X64337000Y-63439186D01*
X64337000Y-64633000D01*
X64357000Y-64633000D01*
X64357000Y-64887000D01*
X64337000Y-64887000D01*
X64337000Y-64907000D01*
X64083000Y-64907000D01*
X64083000Y-64887000D01*
X62889845Y-64887000D01*
X62768524Y-65116890D01*
X62813175Y-65264099D01*
X62938359Y-65526920D01*
X63042141Y-65666058D01*
X62051798Y-66656401D01*
X62022800Y-66680199D01*
X61999002Y-66709197D01*
X61999001Y-66709198D01*
X61927826Y-66795924D01*
X61857254Y-66927954D01*
X61833048Y-67007753D01*
X61813798Y-67071214D01*
X61809929Y-67110498D01*
X61799124Y-67220200D01*
X60710000Y-67220200D01*
X60710000Y-64403110D01*
X62768524Y-64403110D01*
X62889845Y-64633000D01*
X64083000Y-64633000D01*
X64083000Y-63439186D01*
X63853109Y-63318519D01*
X63578748Y-63415843D01*
X63328645Y-63564822D01*
X63112412Y-63759731D01*
X62938359Y-63993080D01*
X62813175Y-64255901D01*
X62768524Y-64403110D01*
X60710000Y-64403110D01*
X60710000Y-60450000D01*
X73061928Y-60450000D01*
X73061928Y-62050000D01*
X73074188Y-62174482D01*
X73110498Y-62294180D01*
X73169463Y-62404494D01*
X73248815Y-62501185D01*
X73345506Y-62580537D01*
X73455820Y-62639502D01*
X73575518Y-62675812D01*
X73700000Y-62688072D01*
X75300000Y-62688072D01*
X75424482Y-62675812D01*
X75544180Y-62639502D01*
X75654494Y-62580537D01*
X75751185Y-62501185D01*
X75830537Y-62404494D01*
X75889502Y-62294180D01*
X75925812Y-62174482D01*
X75938072Y-62050000D01*
X75938072Y-60450000D01*
X75925812Y-60325518D01*
X75889502Y-60205820D01*
X75830537Y-60095506D01*
X75751185Y-59998815D01*
X75654494Y-59919463D01*
X75544180Y-59860498D01*
X75424482Y-59824188D01*
X75300000Y-59811928D01*
X75292785Y-59811928D01*
X75313097Y-59742702D01*
X74500000Y-58929605D01*
X73686903Y-59742702D01*
X73707215Y-59811928D01*
X73700000Y-59811928D01*
X73575518Y-59824188D01*
X73455820Y-59860498D01*
X73345506Y-59919463D01*
X73248815Y-59998815D01*
X73169463Y-60095506D01*
X73110498Y-60205820D01*
X73074188Y-60325518D01*
X73061928Y-60450000D01*
X60710000Y-60450000D01*
X60710000Y-58820512D01*
X73059783Y-58820512D01*
X73101213Y-59100130D01*
X73196397Y-59366292D01*
X73263329Y-59491514D01*
X73507298Y-59563097D01*
X74320395Y-58750000D01*
X74679605Y-58750000D01*
X75492702Y-59563097D01*
X75736671Y-59491514D01*
X75857571Y-59236004D01*
X75890882Y-59103109D01*
X84808519Y-59103109D01*
X84929186Y-59333000D01*
X86123000Y-59333000D01*
X86123000Y-58139845D01*
X86377000Y-58139845D01*
X86377000Y-59333000D01*
X88663000Y-59333000D01*
X88663000Y-58139845D01*
X88433110Y-58018524D01*
X88285901Y-58063175D01*
X88023080Y-58188359D01*
X87789731Y-58362412D01*
X87594822Y-58578645D01*
X87520000Y-58704255D01*
X87445178Y-58578645D01*
X87250269Y-58362412D01*
X87016920Y-58188359D01*
X86754099Y-58063175D01*
X86606890Y-58018524D01*
X86377000Y-58139845D01*
X86123000Y-58139845D01*
X85893110Y-58018524D01*
X85745901Y-58063175D01*
X85483080Y-58188359D01*
X85249731Y-58362412D01*
X85054822Y-58578645D01*
X84905843Y-58828748D01*
X84808519Y-59103109D01*
X75890882Y-59103109D01*
X75926300Y-58961816D01*
X75940217Y-58679488D01*
X75898787Y-58399870D01*
X75803603Y-58133708D01*
X75736671Y-58008486D01*
X75492702Y-57936903D01*
X74679605Y-58750000D01*
X74320395Y-58750000D01*
X73507298Y-57936903D01*
X73263329Y-58008486D01*
X73142429Y-58263996D01*
X73073700Y-58538184D01*
X73059783Y-58820512D01*
X60710000Y-58820512D01*
X60710000Y-57757298D01*
X73686903Y-57757298D01*
X74500000Y-58570395D01*
X75313097Y-57757298D01*
X75241514Y-57513329D01*
X74986004Y-57392429D01*
X74711816Y-57323700D01*
X74429488Y-57309783D01*
X74149870Y-57351213D01*
X73883708Y-57446397D01*
X73758486Y-57513329D01*
X73686903Y-57757298D01*
X60710000Y-57757298D01*
X60710000Y-54279872D01*
X63265000Y-54279872D01*
X63265000Y-54720128D01*
X63350890Y-55151925D01*
X63519369Y-55558669D01*
X63763962Y-55924729D01*
X64075271Y-56236038D01*
X64441331Y-56480631D01*
X64848075Y-56649110D01*
X65279872Y-56735000D01*
X65720128Y-56735000D01*
X66151925Y-56649110D01*
X66558669Y-56480631D01*
X66924729Y-56236038D01*
X67236038Y-55924729D01*
X67480631Y-55558669D01*
X67649110Y-55151925D01*
X67735000Y-54720128D01*
X67735000Y-54279872D01*
X152265000Y-54279872D01*
X152265000Y-54720128D01*
X152350890Y-55151925D01*
X152519369Y-55558669D01*
X152763962Y-55924729D01*
X153075271Y-56236038D01*
X153441331Y-56480631D01*
X153848075Y-56649110D01*
X154279872Y-56735000D01*
X154720128Y-56735000D01*
X155151925Y-56649110D01*
X155558669Y-56480631D01*
X155924729Y-56236038D01*
X156236038Y-55924729D01*
X156480631Y-55558669D01*
X156649110Y-55151925D01*
X156735000Y-54720128D01*
X156735000Y-54279872D01*
X156649110Y-53848075D01*
X156480631Y-53441331D01*
X156236038Y-53075271D01*
X155924729Y-52763962D01*
X155558669Y-52519369D01*
X155151925Y-52350890D01*
X154720128Y-52265000D01*
X154279872Y-52265000D01*
X153848075Y-52350890D01*
X153441331Y-52519369D01*
X153075271Y-52763962D01*
X152763962Y-53075271D01*
X152519369Y-53441331D01*
X152350890Y-53848075D01*
X152265000Y-54279872D01*
X67735000Y-54279872D01*
X67649110Y-53848075D01*
X67480631Y-53441331D01*
X67236038Y-53075271D01*
X66924729Y-52763962D01*
X66558669Y-52519369D01*
X66151925Y-52350890D01*
X65720128Y-52265000D01*
X65279872Y-52265000D01*
X64848075Y-52350890D01*
X64441331Y-52519369D01*
X64075271Y-52763962D01*
X63763962Y-53075271D01*
X63519369Y-53441331D01*
X63350890Y-53848075D01*
X63265000Y-54279872D01*
X60710000Y-54279872D01*
X60710000Y-50710000D01*
X159290000Y-50710000D01*
X159290001Y-124290000D01*
X159290001Y-124290000D01*
G37*
X159290001Y-124290000D02*
X60710000Y-124290000D01*
X60710000Y-120279872D01*
X63265000Y-120279872D01*
X63265000Y-120720128D01*
X63350890Y-121151925D01*
X63519369Y-121558669D01*
X63763962Y-121924729D01*
X64075271Y-122236038D01*
X64441331Y-122480631D01*
X64848075Y-122649110D01*
X65279872Y-122735000D01*
X65720128Y-122735000D01*
X66151925Y-122649110D01*
X66558669Y-122480631D01*
X66924729Y-122236038D01*
X67236038Y-121924729D01*
X67480631Y-121558669D01*
X67649110Y-121151925D01*
X67735000Y-120720128D01*
X67735000Y-120279872D01*
X67699222Y-120100000D01*
X99011928Y-120100000D01*
X99011928Y-122900000D01*
X99024188Y-123024482D01*
X99060498Y-123144180D01*
X99119463Y-123254494D01*
X99198815Y-123351185D01*
X99295506Y-123430537D01*
X99405820Y-123489502D01*
X99525518Y-123525812D01*
X99650000Y-123538072D01*
X100850000Y-123538072D01*
X100974482Y-123525812D01*
X101094180Y-123489502D01*
X101204494Y-123430537D01*
X101301185Y-123351185D01*
X101380537Y-123254494D01*
X101439502Y-123144180D01*
X101475812Y-123024482D01*
X101488072Y-122900000D01*
X101488072Y-121700000D01*
X104961928Y-121700000D01*
X104961928Y-122900000D01*
X104974188Y-123024482D01*
X105010498Y-123144180D01*
X105069463Y-123254494D01*
X105148815Y-123351185D01*
X105245506Y-123430537D01*
X105355820Y-123489502D01*
X105475518Y-123525812D01*
X105600000Y-123538072D01*
X108400000Y-123538072D01*
X108524482Y-123525812D01*
X108644180Y-123489502D01*
X108754494Y-123430537D01*
X108851185Y-123351185D01*
X108930537Y-123254494D01*
X108989502Y-123144180D01*
X109025812Y-123024482D01*
X109038072Y-122900000D01*
X109038072Y-121700000D01*
X109025812Y-121575518D01*
X108989502Y-121455820D01*
X108930537Y-121345506D01*
X108851185Y-121248815D01*
X108754494Y-121169463D01*
X108644180Y-121110498D01*
X108524482Y-121074188D01*
X108400000Y-121061928D01*
X105600000Y-121061928D01*
X105475518Y-121074188D01*
X105355820Y-121110498D01*
X105245506Y-121169463D01*
X105148815Y-121248815D01*
X105069463Y-121345506D01*
X105010498Y-121455820D01*
X104974188Y-121575518D01*
X104961928Y-121700000D01*
X101488072Y-121700000D01*
X101488072Y-120100000D01*
X112511928Y-120100000D01*
X112511928Y-122900000D01*
X112524188Y-123024482D01*
X112560498Y-123144180D01*
X112619463Y-123254494D01*
X112698815Y-123351185D01*
X112795506Y-123430537D01*
X112905820Y-123489502D01*
X113025518Y-123525812D01*
X113150000Y-123538072D01*
X114350000Y-123538072D01*
X114474482Y-123525812D01*
X114594180Y-123489502D01*
X114704494Y-123430537D01*
X114801185Y-123351185D01*
X114880537Y-123254494D01*
X114939502Y-123144180D01*
X114975812Y-123024482D01*
X114988072Y-122900000D01*
X114988072Y-120279872D01*
X152265000Y-120279872D01*
X152265000Y-120720128D01*
X152350890Y-121151925D01*
X152519369Y-121558669D01*
X152763962Y-121924729D01*
X153075271Y-122236038D01*
X153441331Y-122480631D01*
X153848075Y-122649110D01*
X154279872Y-122735000D01*
X154720128Y-122735000D01*
X155151925Y-122649110D01*
X155558669Y-122480631D01*
X155924729Y-122236038D01*
X156236038Y-121924729D01*
X156480631Y-121558669D01*
X156649110Y-121151925D01*
X156735000Y-120720128D01*
X156735000Y-120279872D01*
X156649110Y-119848075D01*
X156480631Y-119441331D01*
X156236038Y-119075271D01*
X155924729Y-118763962D01*
X155558669Y-118519369D01*
X155151925Y-118350890D01*
X154720128Y-118265000D01*
X154279872Y-118265000D01*
X153848075Y-118350890D01*
X153441331Y-118519369D01*
X153075271Y-118763962D01*
X152763962Y-119075271D01*
X152519369Y-119441331D01*
X152350890Y-119848075D01*
X152265000Y-120279872D01*
X114988072Y-120279872D01*
X114988072Y-120100000D01*
X114975812Y-119975518D01*
X114939502Y-119855820D01*
X114880537Y-119745506D01*
X114801185Y-119648815D01*
X114704494Y-119569463D01*
X114594180Y-119510498D01*
X114474482Y-119474188D01*
X114350000Y-119461928D01*
X113150000Y-119461928D01*
X113025518Y-119474188D01*
X112905820Y-119510498D01*
X112795506Y-119569463D01*
X112698815Y-119648815D01*
X112619463Y-119745506D01*
X112560498Y-119855820D01*
X112524188Y-119975518D01*
X112511928Y-120100000D01*
X101488072Y-120100000D01*
X101475812Y-119975518D01*
X101439502Y-119855820D01*
X101380537Y-119745506D01*
X101301185Y-119648815D01*
X101204494Y-119569463D01*
X101094180Y-119510498D01*
X100974482Y-119474188D01*
X100850000Y-119461928D01*
X99650000Y-119461928D01*
X99525518Y-119474188D01*
X99405820Y-119510498D01*
X99295506Y-119569463D01*
X99198815Y-119648815D01*
X99119463Y-119745506D01*
X99060498Y-119855820D01*
X99024188Y-119975518D01*
X99011928Y-120100000D01*
X67699222Y-120100000D01*
X67649110Y-119848075D01*
X67480631Y-119441331D01*
X67236038Y-119075271D01*
X66924729Y-118763962D01*
X66558669Y-118519369D01*
X66151925Y-118350890D01*
X65720128Y-118265000D01*
X65279872Y-118265000D01*
X64848075Y-118350890D01*
X64441331Y-118519369D01*
X64075271Y-118763962D01*
X63763962Y-119075271D01*
X63519369Y-119441331D01*
X63350890Y-119848075D01*
X63265000Y-120279872D01*
X60710000Y-120279872D01*
X60710000Y-67220200D01*
X61799124Y-67220200D01*
X61802801Y-67257533D01*
X61802800Y-83331478D01*
X61799124Y-83368800D01*
X61802800Y-83406122D01*
X61802800Y-83406132D01*
X61813797Y-83517785D01*
X61848961Y-83633708D01*
X61857254Y-83661046D01*
X61927826Y-83793076D01*
X61965547Y-83839039D01*
X62022799Y-83908801D01*
X62051803Y-83932604D01*
X71126357Y-93007159D01*
X71051068Y-93098899D01*
X70917818Y-93348192D01*
X70835764Y-93618691D01*
X70808057Y-93900000D01*
X70835764Y-94181309D01*
X70917818Y-94451808D01*
X71051068Y-94701101D01*
X71230392Y-94919608D01*
X71448899Y-95098932D01*
X71581858Y-95170000D01*
X71448899Y-95241068D01*
X71230392Y-95420392D01*
X71051068Y-95638899D01*
X70917818Y-95888192D01*
X70835764Y-96158691D01*
X70808057Y-96440000D01*
X70835764Y-96721309D01*
X70917818Y-96991808D01*
X71051068Y-97241101D01*
X71230392Y-97459608D01*
X71448899Y-97638932D01*
X71511160Y-97672211D01*
X71500997Y-97705714D01*
X71496058Y-97755861D01*
X71448899Y-97781068D01*
X71230392Y-97960392D01*
X71051068Y-98178899D01*
X70917818Y-98428192D01*
X70835764Y-98698691D01*
X70808057Y-98980000D01*
X70835764Y-99261309D01*
X70917818Y-99531808D01*
X71051068Y-99781101D01*
X71230392Y-99999608D01*
X71448899Y-100178932D01*
X71581858Y-100250000D01*
X71448899Y-100321068D01*
X71230392Y-100500392D01*
X71051068Y-100718899D01*
X70917818Y-100968192D01*
X70835764Y-101238691D01*
X70808057Y-101520000D01*
X70835764Y-101801309D01*
X70917818Y-102071808D01*
X71051068Y-102321101D01*
X71230392Y-102539608D01*
X71448899Y-102718932D01*
X71581858Y-102790000D01*
X71448899Y-102861068D01*
X71230392Y-103040392D01*
X71051068Y-103258899D01*
X70917818Y-103508192D01*
X70835764Y-103778691D01*
X70808057Y-104060000D01*
X70835764Y-104341309D01*
X70917818Y-104611808D01*
X71051068Y-104861101D01*
X71230392Y-105079608D01*
X71448899Y-105258932D01*
X71581858Y-105330000D01*
X71448899Y-105401068D01*
X71230392Y-105580392D01*
X71051068Y-105798899D01*
X70917818Y-106048192D01*
X70835764Y-106318691D01*
X70808057Y-106600000D01*
X70835764Y-106881309D01*
X70917818Y-107151808D01*
X71051068Y-107401101D01*
X71230392Y-107619608D01*
X71448899Y-107798932D01*
X71581858Y-107870000D01*
X71448899Y-107941068D01*
X71230392Y-108120392D01*
X71051068Y-108338899D01*
X70917818Y-108588192D01*
X70835764Y-108858691D01*
X70808057Y-109140000D01*
X70835764Y-109421309D01*
X70917818Y-109691808D01*
X71051068Y-109941101D01*
X71230392Y-110159608D01*
X71448899Y-110338932D01*
X71581858Y-110410000D01*
X71448899Y-110481068D01*
X71230392Y-110660392D01*
X71051068Y-110878899D01*
X70917818Y-111128192D01*
X70835764Y-111398691D01*
X70808057Y-111680000D01*
X70835764Y-111961309D01*
X70917818Y-112231808D01*
X71051068Y-112481101D01*
X71230392Y-112699608D01*
X71448899Y-112878932D01*
X71581858Y-112950000D01*
X71448899Y-113021068D01*
X71230392Y-113200392D01*
X71051068Y-113418899D01*
X70917818Y-113668192D01*
X70835764Y-113938691D01*
X70808057Y-114220000D01*
X70835764Y-114501309D01*
X70917818Y-114771808D01*
X71051068Y-115021101D01*
X71230392Y-115239608D01*
X71448899Y-115418932D01*
X71581858Y-115490000D01*
X71448899Y-115561068D01*
X71230392Y-115740392D01*
X71051068Y-115958899D01*
X70917818Y-116208192D01*
X70835764Y-116478691D01*
X70808057Y-116760000D01*
X70835764Y-117041309D01*
X70917818Y-117311808D01*
X71051068Y-117561101D01*
X71230392Y-117779608D01*
X71448899Y-117958932D01*
X71698192Y-118092182D01*
X71968691Y-118174236D01*
X72179508Y-118195000D01*
X72320492Y-118195000D01*
X72531309Y-118174236D01*
X72801808Y-118092182D01*
X73051101Y-117958932D01*
X73269608Y-117779608D01*
X73448932Y-117561101D01*
X73582182Y-117311808D01*
X73664236Y-117041309D01*
X73691943Y-116760000D01*
X73664236Y-116478691D01*
X73582182Y-116208192D01*
X73448932Y-115958899D01*
X73269608Y-115740392D01*
X73051101Y-115561068D01*
X72918142Y-115490000D01*
X73051101Y-115418932D01*
X73269608Y-115239608D01*
X73448932Y-115021101D01*
X73582182Y-114771808D01*
X73664236Y-114501309D01*
X73691943Y-114220000D01*
X73664236Y-113938691D01*
X73582182Y-113668192D01*
X73448932Y-113418899D01*
X73269608Y-113200392D01*
X73051101Y-113021068D01*
X72918142Y-112950000D01*
X73051101Y-112878932D01*
X73269608Y-112699608D01*
X73448932Y-112481101D01*
X73582182Y-112231808D01*
X73664236Y-111961309D01*
X73691943Y-111680000D01*
X73664236Y-111398691D01*
X73582182Y-111128192D01*
X73448932Y-110878899D01*
X73269608Y-110660392D01*
X73051101Y-110481068D01*
X72918142Y-110410000D01*
X73051101Y-110338932D01*
X73269608Y-110159608D01*
X73448932Y-109941101D01*
X73582182Y-109691808D01*
X73664236Y-109421309D01*
X73691943Y-109140000D01*
X73664236Y-108858691D01*
X73582182Y-108588192D01*
X73448932Y-108338899D01*
X73269608Y-108120392D01*
X73051101Y-107941068D01*
X72918142Y-107870000D01*
X73051101Y-107798932D01*
X73269608Y-107619608D01*
X73448932Y-107401101D01*
X73582182Y-107151808D01*
X73664236Y-106881309D01*
X73691943Y-106600000D01*
X73664236Y-106318691D01*
X73582182Y-106048192D01*
X73448932Y-105798899D01*
X73269608Y-105580392D01*
X73051101Y-105401068D01*
X72918142Y-105330000D01*
X73051101Y-105258932D01*
X73269608Y-105079608D01*
X73448932Y-104861101D01*
X73582182Y-104611808D01*
X73664236Y-104341309D01*
X73691943Y-104060000D01*
X73664236Y-103778691D01*
X73582182Y-103508192D01*
X73448932Y-103258899D01*
X73269608Y-103040392D01*
X73051101Y-102861068D01*
X72918142Y-102790000D01*
X73051101Y-102718932D01*
X73269608Y-102539608D01*
X73448932Y-102321101D01*
X73582182Y-102071808D01*
X73664236Y-101801309D01*
X73691943Y-101520000D01*
X73664236Y-101238691D01*
X73582182Y-100968192D01*
X73448932Y-100718899D01*
X73269608Y-100500392D01*
X73051101Y-100321068D01*
X72918142Y-100250000D01*
X73051101Y-100178932D01*
X73269608Y-99999608D01*
X73448932Y-99781101D01*
X73582182Y-99531808D01*
X73664236Y-99261309D01*
X73691943Y-98980000D01*
X73664236Y-98698691D01*
X73582182Y-98428192D01*
X73448932Y-98178899D01*
X73373643Y-98087159D01*
X73907304Y-97553498D01*
X73936301Y-97529701D01*
X74031274Y-97413976D01*
X74101846Y-97281947D01*
X74145303Y-97138686D01*
X74156300Y-97027033D01*
X74156300Y-97027025D01*
X74159976Y-96989700D01*
X74156300Y-96952375D01*
X74156300Y-85869333D01*
X74159977Y-85832000D01*
X74145303Y-85683014D01*
X74101846Y-85539753D01*
X74031274Y-85407724D01*
X73960099Y-85320997D01*
X73936301Y-85291999D01*
X73907302Y-85268201D01*
X73881804Y-85242702D01*
X76686903Y-85242702D01*
X76758486Y-85486671D01*
X77013996Y-85607571D01*
X77288184Y-85676300D01*
X77570512Y-85690217D01*
X77850130Y-85648787D01*
X78116292Y-85553603D01*
X78241514Y-85486671D01*
X78313097Y-85242702D01*
X77500000Y-84429605D01*
X76686903Y-85242702D01*
X73881804Y-85242702D01*
X73325863Y-84686761D01*
X73481037Y-84477420D01*
X73555198Y-84320512D01*
X76059783Y-84320512D01*
X76101213Y-84600130D01*
X76196397Y-84866292D01*
X76263329Y-84991514D01*
X76507298Y-85063097D01*
X77320395Y-84250000D01*
X77679605Y-84250000D01*
X78492702Y-85063097D01*
X78736671Y-84991514D01*
X78750324Y-84962659D01*
X78885363Y-85164759D01*
X79065001Y-85344397D01*
X79065000Y-96524068D01*
X79060476Y-96570000D01*
X79067471Y-96641015D01*
X79078529Y-96753291D01*
X79131993Y-96929539D01*
X79218814Y-97091971D01*
X79335656Y-97234344D01*
X79371341Y-97263630D01*
X86058785Y-103951074D01*
X86048057Y-104060000D01*
X86058785Y-104168925D01*
X85541036Y-104686675D01*
X85505357Y-104715956D01*
X85388515Y-104858328D01*
X85330137Y-104967547D01*
X85301694Y-105020760D01*
X85248229Y-105197009D01*
X85230176Y-105380300D01*
X85234701Y-105426242D01*
X85234700Y-117241968D01*
X85230176Y-117287900D01*
X85234700Y-117333831D01*
X85248229Y-117471191D01*
X85301693Y-117647439D01*
X85388514Y-117809871D01*
X85505356Y-117952244D01*
X85541041Y-117981530D01*
X86256370Y-118696859D01*
X86285656Y-118732544D01*
X86428028Y-118849386D01*
X86590460Y-118936207D01*
X86766708Y-118989671D01*
X86950000Y-119007724D01*
X86995932Y-119003200D01*
X90085568Y-119003200D01*
X90131500Y-119007724D01*
X90177432Y-119003200D01*
X90314792Y-118989671D01*
X90491040Y-118936207D01*
X90653472Y-118849386D01*
X90795844Y-118732544D01*
X90825130Y-118696859D01*
X92010893Y-117511097D01*
X92095506Y-117580537D01*
X92205820Y-117639502D01*
X92325518Y-117675812D01*
X92450000Y-117688072D01*
X94050000Y-117688072D01*
X94174482Y-117675812D01*
X94294180Y-117639502D01*
X94404494Y-117580537D01*
X94501185Y-117501185D01*
X94580537Y-117404494D01*
X94639502Y-117294180D01*
X94675812Y-117174482D01*
X94688072Y-117050000D01*
X94688072Y-115450000D01*
X94675812Y-115325518D01*
X94639502Y-115205820D01*
X94580537Y-115095506D01*
X94501185Y-114998815D01*
X94404494Y-114919463D01*
X94294180Y-114860498D01*
X94174482Y-114824188D01*
X94156518Y-114822419D01*
X94269608Y-114729608D01*
X94448932Y-114511101D01*
X94582182Y-114261808D01*
X94664236Y-113991309D01*
X94691943Y-113710000D01*
X94664236Y-113428691D01*
X94582182Y-113158192D01*
X94448932Y-112908899D01*
X94373643Y-112817158D01*
X101615300Y-105575502D01*
X101615300Y-112537978D01*
X101611624Y-112575300D01*
X101615300Y-112612622D01*
X101615300Y-112612632D01*
X101626297Y-112724285D01*
X101650009Y-112802453D01*
X101669754Y-112867546D01*
X101740326Y-112999576D01*
X101780171Y-113048126D01*
X101835299Y-113115301D01*
X101864303Y-113139104D01*
X103350465Y-114625267D01*
X103192510Y-114656686D01*
X102938273Y-114761995D01*
X102709465Y-114914880D01*
X102514880Y-115109465D01*
X102361995Y-115338273D01*
X102256686Y-115592510D01*
X102203000Y-115862408D01*
X102203000Y-116137592D01*
X102256686Y-116407490D01*
X102361995Y-116661727D01*
X102514880Y-116890535D01*
X102709465Y-117085120D01*
X102938273Y-117238005D01*
X102967231Y-117250000D01*
X102938273Y-117261995D01*
X102709465Y-117414880D01*
X102514880Y-117609465D01*
X102361995Y-117838273D01*
X102256686Y-118092510D01*
X102203000Y-118362408D01*
X102203000Y-118637592D01*
X102256686Y-118907490D01*
X102361995Y-119161727D01*
X102514880Y-119390535D01*
X102709465Y-119585120D01*
X102938273Y-119738005D01*
X103192510Y-119843314D01*
X103462408Y-119897000D01*
X103737592Y-119897000D01*
X104007490Y-119843314D01*
X104261727Y-119738005D01*
X104490535Y-119585120D01*
X104650000Y-119425655D01*
X104809465Y-119585120D01*
X105038273Y-119738005D01*
X105292510Y-119843314D01*
X105562408Y-119897000D01*
X105837592Y-119897000D01*
X106107490Y-119843314D01*
X106361727Y-119738005D01*
X106590535Y-119585120D01*
X106785120Y-119390535D01*
X106938005Y-119161727D01*
X107000000Y-119012059D01*
X107061995Y-119161727D01*
X107214880Y-119390535D01*
X107409465Y-119585120D01*
X107638273Y-119738005D01*
X107892510Y-119843314D01*
X108162408Y-119897000D01*
X108437592Y-119897000D01*
X108707490Y-119843314D01*
X108961727Y-119738005D01*
X109190535Y-119585120D01*
X109310090Y-119465565D01*
X109614040Y-119465565D01*
X109681020Y-119705656D01*
X109930048Y-119822756D01*
X110197135Y-119889023D01*
X110472017Y-119901910D01*
X110744133Y-119860922D01*
X111003023Y-119767636D01*
X111118980Y-119705656D01*
X111185960Y-119465565D01*
X110400000Y-118679605D01*
X109614040Y-119465565D01*
X109310090Y-119465565D01*
X109385120Y-119390535D01*
X109496396Y-119223999D01*
X110220395Y-118500000D01*
X110579605Y-118500000D01*
X111365565Y-119285960D01*
X111605656Y-119218980D01*
X111722756Y-118969952D01*
X111789023Y-118702865D01*
X111801910Y-118427983D01*
X111760922Y-118155867D01*
X111667636Y-117896977D01*
X111605656Y-117781020D01*
X111365565Y-117714040D01*
X110579605Y-118500000D01*
X110220395Y-118500000D01*
X109496396Y-117776001D01*
X109385120Y-117609465D01*
X109190535Y-117414880D01*
X108961727Y-117261995D01*
X108707490Y-117156686D01*
X108437592Y-117103000D01*
X108162408Y-117103000D01*
X108008430Y-117133628D01*
X103135300Y-112260499D01*
X103135300Y-109810101D01*
X109033628Y-115708430D01*
X109003000Y-115862408D01*
X109003000Y-116137592D01*
X109056686Y-116407490D01*
X109161995Y-116661727D01*
X109314880Y-116890535D01*
X109509465Y-117085120D01*
X109738273Y-117238005D01*
X109765401Y-117249242D01*
X109681020Y-117294344D01*
X109614040Y-117534435D01*
X110400000Y-118320395D01*
X111185960Y-117534435D01*
X111118980Y-117294344D01*
X111028467Y-117251782D01*
X111061727Y-117238005D01*
X111290535Y-117085120D01*
X111485120Y-116890535D01*
X111638005Y-116661727D01*
X111743314Y-116407490D01*
X111797000Y-116137592D01*
X111797000Y-115862408D01*
X111743314Y-115592510D01*
X111638005Y-115338273D01*
X111485120Y-115109465D01*
X111290535Y-114914880D01*
X111061727Y-114761995D01*
X110807490Y-114656686D01*
X110537592Y-114603000D01*
X110262408Y-114603000D01*
X110108430Y-114633628D01*
X103585700Y-108110899D01*
X103585700Y-93590401D01*
X107785167Y-97789869D01*
X107671068Y-97928899D01*
X107537818Y-98178192D01*
X107455764Y-98448691D01*
X107428057Y-98730000D01*
X107455764Y-99011309D01*
X107537818Y-99281808D01*
X107671068Y-99531101D01*
X107850392Y-99749608D01*
X108068899Y-99928932D01*
X108201858Y-100000000D01*
X108068899Y-100071068D01*
X107850392Y-100250392D01*
X107671068Y-100468899D01*
X107537818Y-100718192D01*
X107455764Y-100988691D01*
X107428057Y-101270000D01*
X107455764Y-101551309D01*
X107537818Y-101821808D01*
X107671068Y-102071101D01*
X107850392Y-102289608D01*
X108068899Y-102468932D01*
X108318192Y-102602182D01*
X108588691Y-102684236D01*
X108799508Y-102705000D01*
X108940492Y-102705000D01*
X109151309Y-102684236D01*
X109421808Y-102602182D01*
X109671101Y-102468932D01*
X109889608Y-102289608D01*
X110068932Y-102071101D01*
X110202182Y-101821808D01*
X110284236Y-101551309D01*
X110311943Y-101270000D01*
X110284236Y-100988691D01*
X110202182Y-100718192D01*
X110068932Y-100468899D01*
X109889608Y-100250392D01*
X109671101Y-100071068D01*
X109538142Y-100000000D01*
X109671101Y-99928932D01*
X109889608Y-99749608D01*
X110068932Y-99531101D01*
X110118766Y-99437867D01*
X125472103Y-114791205D01*
X125284866Y-114944866D01*
X125099294Y-115170986D01*
X125070000Y-115225791D01*
X125040706Y-115170986D01*
X124855134Y-114944866D01*
X124629014Y-114759294D01*
X124371034Y-114621401D01*
X124091111Y-114536487D01*
X123872950Y-114515000D01*
X123727050Y-114515000D01*
X123508889Y-114536487D01*
X123228966Y-114621401D01*
X122970986Y-114759294D01*
X122744866Y-114944866D01*
X122559294Y-115170986D01*
X122421401Y-115428966D01*
X122336487Y-115708889D01*
X122307815Y-116000000D01*
X122336487Y-116291111D01*
X122421401Y-116571034D01*
X122559294Y-116829014D01*
X122744866Y-117055134D01*
X122970986Y-117240706D01*
X123228966Y-117378599D01*
X123508889Y-117463513D01*
X123727050Y-117485000D01*
X123872950Y-117485000D01*
X124091111Y-117463513D01*
X124371034Y-117378599D01*
X124629014Y-117240706D01*
X124855134Y-117055134D01*
X125040706Y-116829014D01*
X125070000Y-116774209D01*
X125099294Y-116829014D01*
X125284866Y-117055134D01*
X125510986Y-117240706D01*
X125768966Y-117378599D01*
X126048889Y-117463513D01*
X126267050Y-117485000D01*
X126412950Y-117485000D01*
X126631111Y-117463513D01*
X126911034Y-117378599D01*
X127169014Y-117240706D01*
X127395134Y-117055134D01*
X127580706Y-116829014D01*
X127610000Y-116774209D01*
X127639294Y-116829014D01*
X127824866Y-117055134D01*
X128050986Y-117240706D01*
X128308966Y-117378599D01*
X128588889Y-117463513D01*
X128807050Y-117485000D01*
X128952950Y-117485000D01*
X129171111Y-117463513D01*
X129451034Y-117378599D01*
X129709014Y-117240706D01*
X129935134Y-117055134D01*
X130120706Y-116829014D01*
X130150000Y-116774209D01*
X130179294Y-116829014D01*
X130364866Y-117055134D01*
X130590986Y-117240706D01*
X130848966Y-117378599D01*
X131128889Y-117463513D01*
X131347050Y-117485000D01*
X131492950Y-117485000D01*
X131711111Y-117463513D01*
X131991034Y-117378599D01*
X132249014Y-117240706D01*
X132475134Y-117055134D01*
X132660706Y-116829014D01*
X132690000Y-116774209D01*
X132719294Y-116829014D01*
X132904866Y-117055134D01*
X133130986Y-117240706D01*
X133388966Y-117378599D01*
X133668889Y-117463513D01*
X133887050Y-117485000D01*
X134032950Y-117485000D01*
X134251111Y-117463513D01*
X134531034Y-117378599D01*
X134789014Y-117240706D01*
X135015134Y-117055134D01*
X135039607Y-117025313D01*
X135060498Y-117094180D01*
X135119463Y-117204494D01*
X135198815Y-117301185D01*
X135295506Y-117380537D01*
X135405820Y-117439502D01*
X135525518Y-117475812D01*
X135650000Y-117488072D01*
X136214250Y-117485000D01*
X136373000Y-117326250D01*
X136373000Y-116127000D01*
X136627000Y-116127000D01*
X136627000Y-117326250D01*
X136785750Y-117485000D01*
X137350000Y-117488072D01*
X137474482Y-117475812D01*
X137594180Y-117439502D01*
X137704494Y-117380537D01*
X137801185Y-117301185D01*
X137880537Y-117204494D01*
X137939502Y-117094180D01*
X137975812Y-116974482D01*
X137988072Y-116850000D01*
X137985000Y-116285750D01*
X137826250Y-116127000D01*
X136627000Y-116127000D01*
X136373000Y-116127000D01*
X136353000Y-116127000D01*
X136353000Y-115873000D01*
X136373000Y-115873000D01*
X136373000Y-114673750D01*
X136627000Y-114673750D01*
X136627000Y-115873000D01*
X137826250Y-115873000D01*
X137985000Y-115714250D01*
X137988072Y-115150000D01*
X137975812Y-115025518D01*
X137939502Y-114905820D01*
X137880537Y-114795506D01*
X137801185Y-114698815D01*
X137704494Y-114619463D01*
X137594180Y-114560498D01*
X137474482Y-114524188D01*
X137350000Y-114511928D01*
X136785750Y-114515000D01*
X136627000Y-114673750D01*
X136373000Y-114673750D01*
X136214250Y-114515000D01*
X135650000Y-114511928D01*
X135525518Y-114524188D01*
X135405820Y-114560498D01*
X135295506Y-114619463D01*
X135198815Y-114698815D01*
X135119463Y-114795506D01*
X135060498Y-114905820D01*
X135039607Y-114974687D01*
X135015134Y-114944866D01*
X134789014Y-114759294D01*
X134531034Y-114621401D01*
X134251111Y-114536487D01*
X134032950Y-114515000D01*
X133887050Y-114515000D01*
X133668889Y-114536487D01*
X133388966Y-114621401D01*
X133130986Y-114759294D01*
X132904866Y-114944866D01*
X132719294Y-115170986D01*
X132690000Y-115225791D01*
X132660706Y-115170986D01*
X132475134Y-114944866D01*
X132249014Y-114759294D01*
X131991034Y-114621401D01*
X131711111Y-114536487D01*
X131492950Y-114515000D01*
X131347050Y-114515000D01*
X131128889Y-114536487D01*
X130848966Y-114621401D01*
X130590986Y-114759294D01*
X130364866Y-114944866D01*
X130179294Y-115170986D01*
X130150000Y-115225791D01*
X130120706Y-115170986D01*
X129935134Y-114944866D01*
X129709014Y-114759294D01*
X129633246Y-114718795D01*
X129629003Y-114675714D01*
X129585546Y-114532453D01*
X129533624Y-114435315D01*
X129514974Y-114400423D01*
X129443799Y-114313697D01*
X129420001Y-114284699D01*
X129391003Y-114260901D01*
X124969141Y-109839039D01*
X140358096Y-109839039D01*
X140398754Y-109973087D01*
X140518963Y-110227420D01*
X140686481Y-110453414D01*
X140894869Y-110642385D01*
X141136119Y-110787070D01*
X141400960Y-110881909D01*
X141623000Y-110760624D01*
X141623000Y-109617000D01*
X141877000Y-109617000D01*
X141877000Y-110760624D01*
X142099040Y-110881909D01*
X142363881Y-110787070D01*
X142605131Y-110642385D01*
X142813519Y-110453414D01*
X142981037Y-110227420D01*
X143101246Y-109973087D01*
X143141904Y-109839039D01*
X143019915Y-109617000D01*
X141877000Y-109617000D01*
X141623000Y-109617000D01*
X140480085Y-109617000D01*
X140358096Y-109839039D01*
X124969141Y-109839039D01*
X121291700Y-106161599D01*
X121291700Y-78808176D01*
X121300154Y-78836046D01*
X121370726Y-78968076D01*
X121440567Y-79053176D01*
X121465700Y-79083801D01*
X121494698Y-79107599D01*
X125899026Y-83511928D01*
X125400000Y-83511928D01*
X125275518Y-83524188D01*
X125155820Y-83560498D01*
X125045506Y-83619463D01*
X124948815Y-83698815D01*
X124869463Y-83795506D01*
X124810498Y-83905820D01*
X124774188Y-84025518D01*
X124761928Y-84150000D01*
X124761928Y-85850000D01*
X124774188Y-85974482D01*
X124810498Y-86094180D01*
X124869463Y-86204494D01*
X124948815Y-86301185D01*
X125045506Y-86380537D01*
X125155820Y-86439502D01*
X125275518Y-86475812D01*
X125400000Y-86488072D01*
X125490000Y-86488072D01*
X125490000Y-87924177D01*
X125486324Y-87961500D01*
X125490000Y-87998822D01*
X125490000Y-87998832D01*
X125500997Y-88110485D01*
X125522683Y-88181974D01*
X125544454Y-88253746D01*
X125615026Y-88385776D01*
X125643946Y-88421015D01*
X125709999Y-88501501D01*
X125739003Y-88525304D01*
X140673461Y-103459763D01*
X140551068Y-103608899D01*
X140417818Y-103858192D01*
X140335764Y-104128691D01*
X140308057Y-104410000D01*
X140335764Y-104691309D01*
X140417818Y-104961808D01*
X140551068Y-105211101D01*
X140730392Y-105429608D01*
X140948899Y-105608932D01*
X141081858Y-105680000D01*
X140948899Y-105751068D01*
X140730392Y-105930392D01*
X140551068Y-106148899D01*
X140417818Y-106398192D01*
X140335764Y-106668691D01*
X140308057Y-106950000D01*
X140335764Y-107231309D01*
X140417818Y-107501808D01*
X140551068Y-107751101D01*
X140730392Y-107969608D01*
X140948899Y-108148932D01*
X141086682Y-108222579D01*
X140894869Y-108337615D01*
X140686481Y-108526586D01*
X140518963Y-108752580D01*
X140398754Y-109006913D01*
X140358096Y-109140961D01*
X140480085Y-109363000D01*
X141623000Y-109363000D01*
X141623000Y-109343000D01*
X141877000Y-109343000D01*
X141877000Y-109363000D01*
X143019915Y-109363000D01*
X143141904Y-109140961D01*
X143101246Y-109006913D01*
X142981037Y-108752580D01*
X142813519Y-108526586D01*
X142605131Y-108337615D01*
X142413318Y-108222579D01*
X142551101Y-108148932D01*
X142769608Y-107969608D01*
X142948932Y-107751101D01*
X143082182Y-107501808D01*
X143164236Y-107231309D01*
X143191943Y-106950000D01*
X143164236Y-106668691D01*
X143082182Y-106398192D01*
X142948932Y-106148899D01*
X142769608Y-105930392D01*
X142551101Y-105751068D01*
X142418142Y-105680000D01*
X142551101Y-105608932D01*
X142769608Y-105429608D01*
X142948932Y-105211101D01*
X143026737Y-105065538D01*
X147484281Y-109523083D01*
X147495697Y-109638986D01*
X147539154Y-109782247D01*
X147609726Y-109914276D01*
X147657693Y-109972724D01*
X147704699Y-110030001D01*
X147820424Y-110124974D01*
X147952453Y-110195546D01*
X148095714Y-110239003D01*
X148145861Y-110243942D01*
X148171068Y-110291101D01*
X148350392Y-110509608D01*
X148568899Y-110688932D01*
X148818192Y-110822182D01*
X149088691Y-110904236D01*
X149299508Y-110925000D01*
X149440492Y-110925000D01*
X149651309Y-110904236D01*
X149921808Y-110822182D01*
X150171101Y-110688932D01*
X150389608Y-110509608D01*
X150568932Y-110291101D01*
X150702182Y-110041808D01*
X150784236Y-109771309D01*
X150811943Y-109490000D01*
X150784236Y-109208691D01*
X150702182Y-108938192D01*
X150568932Y-108688899D01*
X150389608Y-108470392D01*
X150171101Y-108291068D01*
X150038142Y-108220000D01*
X150171101Y-108148932D01*
X150389608Y-107969608D01*
X150568932Y-107751101D01*
X150702182Y-107501808D01*
X150784236Y-107231309D01*
X150811943Y-106950000D01*
X150784236Y-106668691D01*
X150702182Y-106398192D01*
X150568932Y-106148899D01*
X150389608Y-105930392D01*
X150171101Y-105751068D01*
X150130000Y-105729099D01*
X150130000Y-105630901D01*
X150171101Y-105608932D01*
X150389608Y-105429608D01*
X150568932Y-105211101D01*
X150702182Y-104961808D01*
X150784236Y-104691309D01*
X150811943Y-104410000D01*
X150784236Y-104128691D01*
X150702182Y-103858192D01*
X150568932Y-103608899D01*
X150389608Y-103390392D01*
X150171101Y-103211068D01*
X150038142Y-103140000D01*
X150171101Y-103068932D01*
X150389608Y-102889608D01*
X150568932Y-102671101D01*
X150702182Y-102421808D01*
X150784236Y-102151309D01*
X150811943Y-101870000D01*
X150784236Y-101588691D01*
X150702182Y-101318192D01*
X150568932Y-101068899D01*
X150389608Y-100850392D01*
X150171101Y-100671068D01*
X150038142Y-100600000D01*
X150171101Y-100528932D01*
X150389608Y-100349608D01*
X150568932Y-100131101D01*
X150702182Y-99881808D01*
X150784236Y-99611309D01*
X150811943Y-99330000D01*
X150784236Y-99048691D01*
X150702182Y-98778192D01*
X150568932Y-98528899D01*
X150389608Y-98310392D01*
X150171101Y-98131068D01*
X150130000Y-98109099D01*
X150130000Y-98010901D01*
X150171101Y-97988932D01*
X150389608Y-97809608D01*
X150568932Y-97591101D01*
X150702182Y-97341808D01*
X150784236Y-97071309D01*
X150811943Y-96790000D01*
X150784236Y-96508691D01*
X150702182Y-96238192D01*
X150568932Y-95988899D01*
X150389608Y-95770392D01*
X150171101Y-95591068D01*
X150123942Y-95565861D01*
X150119003Y-95515714D01*
X150108840Y-95482211D01*
X150171101Y-95448932D01*
X150389608Y-95269608D01*
X150568932Y-95051101D01*
X150702182Y-94801808D01*
X150784236Y-94531309D01*
X150811943Y-94250000D01*
X150784236Y-93968691D01*
X150702182Y-93698192D01*
X150568932Y-93448899D01*
X150389608Y-93230392D01*
X150305000Y-93160956D01*
X150305000Y-92995632D01*
X150309524Y-92949700D01*
X150291471Y-92766408D01*
X150238007Y-92590160D01*
X150151186Y-92427728D01*
X150121239Y-92391238D01*
X150366292Y-92303603D01*
X150491514Y-92236671D01*
X150563097Y-91992702D01*
X149750000Y-91179605D01*
X149735858Y-91193748D01*
X149556253Y-91014143D01*
X149570395Y-91000000D01*
X149929605Y-91000000D01*
X150742702Y-91813097D01*
X150986671Y-91741514D01*
X151107571Y-91486004D01*
X151176300Y-91211816D01*
X151190217Y-90929488D01*
X151148787Y-90649870D01*
X151053603Y-90383708D01*
X150986671Y-90258486D01*
X150742702Y-90186903D01*
X149929605Y-91000000D01*
X149570395Y-91000000D01*
X148757298Y-90186903D01*
X148513329Y-90258486D01*
X148499676Y-90287341D01*
X148364637Y-90085241D01*
X148286694Y-90007298D01*
X148936903Y-90007298D01*
X149750000Y-90820395D01*
X150563097Y-90007298D01*
X150491514Y-89763329D01*
X150236004Y-89642429D01*
X149961816Y-89573700D01*
X149679488Y-89559783D01*
X149399870Y-89601213D01*
X149133708Y-89696397D01*
X149008486Y-89763329D01*
X148936903Y-90007298D01*
X148286694Y-90007298D01*
X148185000Y-89905604D01*
X148185000Y-86598077D01*
X148350392Y-86799608D01*
X148568899Y-86978932D01*
X148818192Y-87112182D01*
X149088691Y-87194236D01*
X149299508Y-87215000D01*
X149440492Y-87215000D01*
X149651309Y-87194236D01*
X149921808Y-87112182D01*
X150171101Y-86978932D01*
X150389608Y-86799608D01*
X150568932Y-86581101D01*
X150702182Y-86331808D01*
X150784236Y-86061309D01*
X150811943Y-85780000D01*
X150784236Y-85498691D01*
X150702182Y-85228192D01*
X150568932Y-84978899D01*
X150389608Y-84760392D01*
X150171101Y-84581068D01*
X150038142Y-84510000D01*
X150171101Y-84438932D01*
X150389608Y-84259608D01*
X150568932Y-84041101D01*
X150702182Y-83791808D01*
X150784236Y-83521309D01*
X150811943Y-83240000D01*
X150784236Y-82958691D01*
X150702182Y-82688192D01*
X150568932Y-82438899D01*
X150389608Y-82220392D01*
X150171101Y-82041068D01*
X150038142Y-81970000D01*
X150171101Y-81898932D01*
X150389608Y-81719608D01*
X150568932Y-81501101D01*
X150702182Y-81251808D01*
X150784236Y-80981309D01*
X150811943Y-80700000D01*
X150784236Y-80418691D01*
X150702182Y-80148192D01*
X150568932Y-79898899D01*
X150389608Y-79680392D01*
X150171101Y-79501068D01*
X150038142Y-79430000D01*
X150171101Y-79358932D01*
X150389608Y-79179608D01*
X150568932Y-78961101D01*
X150702182Y-78711808D01*
X150784236Y-78441309D01*
X150811943Y-78160000D01*
X150784236Y-77878691D01*
X150702182Y-77608192D01*
X150568932Y-77358899D01*
X150389608Y-77140392D01*
X150171101Y-76961068D01*
X150038142Y-76890000D01*
X150171101Y-76818932D01*
X150389608Y-76639608D01*
X150568932Y-76421101D01*
X150702182Y-76171808D01*
X150784236Y-75901309D01*
X150811943Y-75620000D01*
X150784236Y-75338691D01*
X150702182Y-75068192D01*
X150568932Y-74818899D01*
X150389608Y-74600392D01*
X150171101Y-74421068D01*
X150038142Y-74350000D01*
X150171101Y-74278932D01*
X150389608Y-74099608D01*
X150568932Y-73881101D01*
X150702182Y-73631808D01*
X150784236Y-73361309D01*
X150811943Y-73080000D01*
X150784236Y-72798691D01*
X150702182Y-72528192D01*
X150568932Y-72278899D01*
X150389608Y-72060392D01*
X150171101Y-71881068D01*
X150038142Y-71810000D01*
X150171101Y-71738932D01*
X150389608Y-71559608D01*
X150568932Y-71341101D01*
X150702182Y-71091808D01*
X150784236Y-70821309D01*
X150811943Y-70540000D01*
X150784236Y-70258691D01*
X150702182Y-69988192D01*
X150568932Y-69738899D01*
X150389608Y-69520392D01*
X150171101Y-69341068D01*
X150038142Y-69270000D01*
X150171101Y-69198932D01*
X150389608Y-69019608D01*
X150568932Y-68801101D01*
X150702182Y-68551808D01*
X150784236Y-68281309D01*
X150811943Y-68000000D01*
X150784236Y-67718691D01*
X150702182Y-67448192D01*
X150568932Y-67198899D01*
X150389608Y-66980392D01*
X150171101Y-66801068D01*
X149921808Y-66667818D01*
X149651309Y-66585764D01*
X149440492Y-66565000D01*
X149299508Y-66565000D01*
X149088691Y-66585764D01*
X148818192Y-66667818D01*
X148568899Y-66801068D01*
X148350392Y-66980392D01*
X148171068Y-67198899D01*
X148037818Y-67448192D01*
X147955764Y-67718691D01*
X147928057Y-68000000D01*
X147938785Y-68108926D01*
X146621341Y-69426370D01*
X146585656Y-69455656D01*
X146468814Y-69598029D01*
X146381993Y-69760461D01*
X146339566Y-69900324D01*
X146328529Y-69936709D01*
X146310476Y-70120000D01*
X146315000Y-70165932D01*
X146315001Y-89905603D01*
X146135363Y-90085241D01*
X145978320Y-90320273D01*
X145870147Y-90581426D01*
X145815000Y-90858665D01*
X145815000Y-91141335D01*
X145858420Y-91359618D01*
X141575417Y-87076616D01*
X141623000Y-87050624D01*
X141623000Y-85907000D01*
X141877000Y-85907000D01*
X141877000Y-87050624D01*
X142099040Y-87171909D01*
X142363881Y-87077070D01*
X142605131Y-86932385D01*
X142813519Y-86743414D01*
X142981037Y-86517420D01*
X143101246Y-86263087D01*
X143141904Y-86129039D01*
X143019915Y-85907000D01*
X141877000Y-85907000D01*
X141623000Y-85907000D01*
X141603000Y-85907000D01*
X141603000Y-85653000D01*
X141623000Y-85653000D01*
X141623000Y-85633000D01*
X141877000Y-85633000D01*
X141877000Y-85653000D01*
X143019915Y-85653000D01*
X143141904Y-85430961D01*
X143101246Y-85296913D01*
X142981037Y-85042580D01*
X142824713Y-84831688D01*
X143396602Y-84259799D01*
X143425601Y-84236001D01*
X143520574Y-84120276D01*
X143591146Y-83988247D01*
X143634603Y-83844986D01*
X143645600Y-83733333D01*
X143645600Y-83733323D01*
X143649276Y-83696000D01*
X143645600Y-83658677D01*
X143645600Y-66172933D01*
X143649277Y-66135600D01*
X143634603Y-65986614D01*
X143591146Y-65843353D01*
X143520574Y-65711324D01*
X143449399Y-65624597D01*
X143425601Y-65595599D01*
X143396604Y-65571802D01*
X142683467Y-64858665D01*
X146065000Y-64858665D01*
X146065000Y-65141335D01*
X146120147Y-65418574D01*
X146228320Y-65679727D01*
X146385363Y-65914759D01*
X146585241Y-66114637D01*
X146820273Y-66271680D01*
X147081426Y-66379853D01*
X147358665Y-66435000D01*
X147641335Y-66435000D01*
X147918574Y-66379853D01*
X148179727Y-66271680D01*
X148414759Y-66114637D01*
X148536694Y-65992702D01*
X149186903Y-65992702D01*
X149258486Y-66236671D01*
X149513996Y-66357571D01*
X149788184Y-66426300D01*
X150070512Y-66440217D01*
X150350130Y-66398787D01*
X150616292Y-66303603D01*
X150741514Y-66236671D01*
X150813097Y-65992702D01*
X150000000Y-65179605D01*
X149186903Y-65992702D01*
X148536694Y-65992702D01*
X148614637Y-65914759D01*
X148748692Y-65714131D01*
X148763329Y-65741514D01*
X149007298Y-65813097D01*
X149820395Y-65000000D01*
X150179605Y-65000000D01*
X150992702Y-65813097D01*
X151236671Y-65741514D01*
X151357571Y-65486004D01*
X151426300Y-65211816D01*
X151440217Y-64929488D01*
X151398787Y-64649870D01*
X151303603Y-64383708D01*
X151236671Y-64258486D01*
X150992702Y-64186903D01*
X150179605Y-65000000D01*
X149820395Y-65000000D01*
X149007298Y-64186903D01*
X148763329Y-64258486D01*
X148749676Y-64287341D01*
X148614637Y-64085241D01*
X148536694Y-64007298D01*
X149186903Y-64007298D01*
X150000000Y-64820395D01*
X150813097Y-64007298D01*
X150741514Y-63763329D01*
X150486004Y-63642429D01*
X150211816Y-63573700D01*
X149929488Y-63559783D01*
X149649870Y-63601213D01*
X149383708Y-63696397D01*
X149258486Y-63763329D01*
X149186903Y-64007298D01*
X148536694Y-64007298D01*
X148414759Y-63885363D01*
X148179727Y-63728320D01*
X147918574Y-63620147D01*
X147641335Y-63565000D01*
X147358665Y-63565000D01*
X147081426Y-63620147D01*
X146820273Y-63728320D01*
X146585241Y-63885363D01*
X146385363Y-64085241D01*
X146228320Y-64320273D01*
X146120147Y-64581426D01*
X146065000Y-64858665D01*
X142683467Y-64858665D01*
X135561404Y-57736603D01*
X135537601Y-57707599D01*
X135421876Y-57612626D01*
X135289847Y-57542054D01*
X135146586Y-57498597D01*
X135034933Y-57487600D01*
X135034922Y-57487600D01*
X134997600Y-57483924D01*
X134960278Y-57487600D01*
X118782523Y-57487600D01*
X118745200Y-57483924D01*
X118707877Y-57487600D01*
X118707867Y-57487600D01*
X118596214Y-57498597D01*
X118452953Y-57542054D01*
X118320923Y-57612626D01*
X118237283Y-57681268D01*
X118205199Y-57707599D01*
X118181401Y-57736598D01*
X117635739Y-58282260D01*
X117559014Y-58219294D01*
X117301034Y-58081401D01*
X117021111Y-57996487D01*
X116802950Y-57975000D01*
X116657050Y-57975000D01*
X116438889Y-57996487D01*
X116158966Y-58081401D01*
X115900986Y-58219294D01*
X115821406Y-58284604D01*
X115285403Y-57748602D01*
X115261601Y-57719599D01*
X115145876Y-57624626D01*
X115013847Y-57554054D01*
X114870586Y-57510597D01*
X114758933Y-57499600D01*
X114758922Y-57499600D01*
X114721600Y-57495924D01*
X114684278Y-57499600D01*
X95935733Y-57499600D01*
X95898400Y-57495923D01*
X95861067Y-57499600D01*
X95749414Y-57510597D01*
X95606153Y-57554054D01*
X95474124Y-57624626D01*
X95358399Y-57719599D01*
X95334601Y-57748598D01*
X94789580Y-58293619D01*
X94699014Y-58219294D01*
X94441034Y-58081401D01*
X94161111Y-57996487D01*
X93942950Y-57975000D01*
X93797050Y-57975000D01*
X93578889Y-57996487D01*
X93298966Y-58081401D01*
X93040986Y-58219294D01*
X92814866Y-58404866D01*
X92629294Y-58630986D01*
X92600000Y-58685791D01*
X92570706Y-58630986D01*
X92385134Y-58404866D01*
X92159014Y-58219294D01*
X91901034Y-58081401D01*
X91621111Y-57996487D01*
X91402950Y-57975000D01*
X91257050Y-57975000D01*
X91038889Y-57996487D01*
X90758966Y-58081401D01*
X90500986Y-58219294D01*
X90274866Y-58404866D01*
X90089294Y-58630986D01*
X90054799Y-58695523D01*
X89985178Y-58578645D01*
X89790269Y-58362412D01*
X89556920Y-58188359D01*
X89294099Y-58063175D01*
X89146890Y-58018524D01*
X88917000Y-58139845D01*
X88917000Y-59333000D01*
X88937000Y-59333000D01*
X88937000Y-59587000D01*
X88917000Y-59587000D01*
X88917000Y-59607000D01*
X88663000Y-59607000D01*
X88663000Y-59587000D01*
X86377000Y-59587000D01*
X86377000Y-59607000D01*
X86123000Y-59607000D01*
X86123000Y-59587000D01*
X84929186Y-59587000D01*
X84808519Y-59816891D01*
X84905843Y-60091252D01*
X85054822Y-60341355D01*
X85231626Y-60537502D01*
X85155820Y-60560498D01*
X85045506Y-60619463D01*
X84948815Y-60698815D01*
X84869463Y-60795506D01*
X84810498Y-60905820D01*
X84774188Y-61025518D01*
X84761928Y-61150000D01*
X84761928Y-62850000D01*
X84774188Y-62974482D01*
X84810498Y-63094180D01*
X84869463Y-63204494D01*
X84948815Y-63301185D01*
X84964200Y-63313811D01*
X79371336Y-68906675D01*
X79335657Y-68935956D01*
X79218815Y-69078328D01*
X79159272Y-69189726D01*
X79131994Y-69240760D01*
X79078529Y-69417009D01*
X79060476Y-69600300D01*
X79065001Y-69646242D01*
X79065000Y-83155604D01*
X78885363Y-83335241D01*
X78751308Y-83535869D01*
X78736671Y-83508486D01*
X78492702Y-83436903D01*
X77679605Y-84250000D01*
X77320395Y-84250000D01*
X76507298Y-83436903D01*
X76263329Y-83508486D01*
X76142429Y-83763996D01*
X76073700Y-84038184D01*
X76059783Y-84320512D01*
X73555198Y-84320512D01*
X73601246Y-84223087D01*
X73641904Y-84089039D01*
X73519915Y-83867000D01*
X72377000Y-83867000D01*
X72377000Y-83887000D01*
X72123000Y-83887000D01*
X72123000Y-83867000D01*
X72103000Y-83867000D01*
X72103000Y-83613000D01*
X72123000Y-83613000D01*
X72123000Y-83593000D01*
X72377000Y-83593000D01*
X72377000Y-83613000D01*
X73519915Y-83613000D01*
X73641904Y-83390961D01*
X73601363Y-83257298D01*
X76686903Y-83257298D01*
X77500000Y-84070395D01*
X78313097Y-83257298D01*
X78241514Y-83013329D01*
X77986004Y-82892429D01*
X77711816Y-82823700D01*
X77429488Y-82809783D01*
X77149870Y-82851213D01*
X76883708Y-82946397D01*
X76758486Y-83013329D01*
X76686903Y-83257298D01*
X73601363Y-83257298D01*
X73601246Y-83256913D01*
X73481037Y-83002580D01*
X73313519Y-82776586D01*
X73105131Y-82587615D01*
X72913318Y-82472579D01*
X73051101Y-82398932D01*
X73269608Y-82219608D01*
X73448932Y-82001101D01*
X73582182Y-81751808D01*
X73664236Y-81481309D01*
X73691943Y-81200000D01*
X73664236Y-80918691D01*
X73582182Y-80648192D01*
X73448932Y-80398899D01*
X73269608Y-80180392D01*
X73051101Y-80001068D01*
X72918142Y-79930000D01*
X73051101Y-79858932D01*
X73269608Y-79679608D01*
X73448932Y-79461101D01*
X73582182Y-79211808D01*
X73664236Y-78941309D01*
X73691943Y-78660000D01*
X73664236Y-78378691D01*
X73582182Y-78108192D01*
X73448932Y-77858899D01*
X73362644Y-77753757D01*
X73928604Y-77187798D01*
X73957601Y-77164001D01*
X74052574Y-77048276D01*
X74123146Y-76916247D01*
X74166603Y-76772986D01*
X74177600Y-76661333D01*
X74177600Y-76661332D01*
X74181277Y-76624000D01*
X74177600Y-76586667D01*
X74177600Y-70640122D01*
X74181276Y-70602799D01*
X74177600Y-70565476D01*
X74177600Y-70565467D01*
X74166603Y-70453814D01*
X74123146Y-70310553D01*
X74106279Y-70278998D01*
X74052574Y-70178523D01*
X73981399Y-70091797D01*
X73957601Y-70062799D01*
X73928602Y-70039001D01*
X73564111Y-69674509D01*
X73580537Y-69654494D01*
X73639502Y-69544180D01*
X73675812Y-69424482D01*
X73688072Y-69300000D01*
X73688072Y-67700000D01*
X73675812Y-67575518D01*
X73639502Y-67455820D01*
X73580537Y-67345506D01*
X73501185Y-67248815D01*
X73404494Y-67169463D01*
X73294180Y-67110498D01*
X73174482Y-67074188D01*
X73050000Y-67061928D01*
X71450000Y-67061928D01*
X71325518Y-67074188D01*
X71205820Y-67110498D01*
X71095506Y-67169463D01*
X70998815Y-67248815D01*
X70919463Y-67345506D01*
X70860498Y-67455820D01*
X70824188Y-67575518D01*
X70811928Y-67700000D01*
X70811928Y-67740000D01*
X68168348Y-67740000D01*
X68213513Y-67591111D01*
X68242185Y-67300000D01*
X68213513Y-67008889D01*
X68128599Y-66728966D01*
X67990706Y-66470986D01*
X67805134Y-66244866D01*
X67579014Y-66059294D01*
X67524209Y-66030000D01*
X67579014Y-66000706D01*
X67805134Y-65815134D01*
X67990706Y-65589014D01*
X68128599Y-65331034D01*
X68213513Y-65051111D01*
X68242185Y-64760000D01*
X68213513Y-64468889D01*
X68128599Y-64188966D01*
X67990706Y-63930986D01*
X67805134Y-63704866D01*
X67579014Y-63519294D01*
X67321034Y-63381401D01*
X67041111Y-63296487D01*
X66822950Y-63275000D01*
X66677050Y-63275000D01*
X66458889Y-63296487D01*
X66178966Y-63381401D01*
X65920986Y-63519294D01*
X65694866Y-63704866D01*
X65509294Y-63930986D01*
X65478416Y-63988756D01*
X65307588Y-63759731D01*
X65091355Y-63564822D01*
X64841252Y-63415843D01*
X64566891Y-63318519D01*
X64337000Y-63439186D01*
X64337000Y-64633000D01*
X64357000Y-64633000D01*
X64357000Y-64887000D01*
X64337000Y-64887000D01*
X64337000Y-64907000D01*
X64083000Y-64907000D01*
X64083000Y-64887000D01*
X62889845Y-64887000D01*
X62768524Y-65116890D01*
X62813175Y-65264099D01*
X62938359Y-65526920D01*
X63042141Y-65666058D01*
X62051798Y-66656401D01*
X62022800Y-66680199D01*
X61999002Y-66709197D01*
X61999001Y-66709198D01*
X61927826Y-66795924D01*
X61857254Y-66927954D01*
X61833048Y-67007753D01*
X61813798Y-67071214D01*
X61809929Y-67110498D01*
X61799124Y-67220200D01*
X60710000Y-67220200D01*
X60710000Y-64403110D01*
X62768524Y-64403110D01*
X62889845Y-64633000D01*
X64083000Y-64633000D01*
X64083000Y-63439186D01*
X63853109Y-63318519D01*
X63578748Y-63415843D01*
X63328645Y-63564822D01*
X63112412Y-63759731D01*
X62938359Y-63993080D01*
X62813175Y-64255901D01*
X62768524Y-64403110D01*
X60710000Y-64403110D01*
X60710000Y-60450000D01*
X73061928Y-60450000D01*
X73061928Y-62050000D01*
X73074188Y-62174482D01*
X73110498Y-62294180D01*
X73169463Y-62404494D01*
X73248815Y-62501185D01*
X73345506Y-62580537D01*
X73455820Y-62639502D01*
X73575518Y-62675812D01*
X73700000Y-62688072D01*
X75300000Y-62688072D01*
X75424482Y-62675812D01*
X75544180Y-62639502D01*
X75654494Y-62580537D01*
X75751185Y-62501185D01*
X75830537Y-62404494D01*
X75889502Y-62294180D01*
X75925812Y-62174482D01*
X75938072Y-62050000D01*
X75938072Y-60450000D01*
X75925812Y-60325518D01*
X75889502Y-60205820D01*
X75830537Y-60095506D01*
X75751185Y-59998815D01*
X75654494Y-59919463D01*
X75544180Y-59860498D01*
X75424482Y-59824188D01*
X75300000Y-59811928D01*
X75292785Y-59811928D01*
X75313097Y-59742702D01*
X74500000Y-58929605D01*
X73686903Y-59742702D01*
X73707215Y-59811928D01*
X73700000Y-59811928D01*
X73575518Y-59824188D01*
X73455820Y-59860498D01*
X73345506Y-59919463D01*
X73248815Y-59998815D01*
X73169463Y-60095506D01*
X73110498Y-60205820D01*
X73074188Y-60325518D01*
X73061928Y-60450000D01*
X60710000Y-60450000D01*
X60710000Y-58820512D01*
X73059783Y-58820512D01*
X73101213Y-59100130D01*
X73196397Y-59366292D01*
X73263329Y-59491514D01*
X73507298Y-59563097D01*
X74320395Y-58750000D01*
X74679605Y-58750000D01*
X75492702Y-59563097D01*
X75736671Y-59491514D01*
X75857571Y-59236004D01*
X75890882Y-59103109D01*
X84808519Y-59103109D01*
X84929186Y-59333000D01*
X86123000Y-59333000D01*
X86123000Y-58139845D01*
X86377000Y-58139845D01*
X86377000Y-59333000D01*
X88663000Y-59333000D01*
X88663000Y-58139845D01*
X88433110Y-58018524D01*
X88285901Y-58063175D01*
X88023080Y-58188359D01*
X87789731Y-58362412D01*
X87594822Y-58578645D01*
X87520000Y-58704255D01*
X87445178Y-58578645D01*
X87250269Y-58362412D01*
X87016920Y-58188359D01*
X86754099Y-58063175D01*
X86606890Y-58018524D01*
X86377000Y-58139845D01*
X86123000Y-58139845D01*
X85893110Y-58018524D01*
X85745901Y-58063175D01*
X85483080Y-58188359D01*
X85249731Y-58362412D01*
X85054822Y-58578645D01*
X84905843Y-58828748D01*
X84808519Y-59103109D01*
X75890882Y-59103109D01*
X75926300Y-58961816D01*
X75940217Y-58679488D01*
X75898787Y-58399870D01*
X75803603Y-58133708D01*
X75736671Y-58008486D01*
X75492702Y-57936903D01*
X74679605Y-58750000D01*
X74320395Y-58750000D01*
X73507298Y-57936903D01*
X73263329Y-58008486D01*
X73142429Y-58263996D01*
X73073700Y-58538184D01*
X73059783Y-58820512D01*
X60710000Y-58820512D01*
X60710000Y-57757298D01*
X73686903Y-57757298D01*
X74500000Y-58570395D01*
X75313097Y-57757298D01*
X75241514Y-57513329D01*
X74986004Y-57392429D01*
X74711816Y-57323700D01*
X74429488Y-57309783D01*
X74149870Y-57351213D01*
X73883708Y-57446397D01*
X73758486Y-57513329D01*
X73686903Y-57757298D01*
X60710000Y-57757298D01*
X60710000Y-54279872D01*
X63265000Y-54279872D01*
X63265000Y-54720128D01*
X63350890Y-55151925D01*
X63519369Y-55558669D01*
X63763962Y-55924729D01*
X64075271Y-56236038D01*
X64441331Y-56480631D01*
X64848075Y-56649110D01*
X65279872Y-56735000D01*
X65720128Y-56735000D01*
X66151925Y-56649110D01*
X66558669Y-56480631D01*
X66924729Y-56236038D01*
X67236038Y-55924729D01*
X67480631Y-55558669D01*
X67649110Y-55151925D01*
X67735000Y-54720128D01*
X67735000Y-54279872D01*
X152265000Y-54279872D01*
X152265000Y-54720128D01*
X152350890Y-55151925D01*
X152519369Y-55558669D01*
X152763962Y-55924729D01*
X153075271Y-56236038D01*
X153441331Y-56480631D01*
X153848075Y-56649110D01*
X154279872Y-56735000D01*
X154720128Y-56735000D01*
X155151925Y-56649110D01*
X155558669Y-56480631D01*
X155924729Y-56236038D01*
X156236038Y-55924729D01*
X156480631Y-55558669D01*
X156649110Y-55151925D01*
X156735000Y-54720128D01*
X156735000Y-54279872D01*
X156649110Y-53848075D01*
X156480631Y-53441331D01*
X156236038Y-53075271D01*
X155924729Y-52763962D01*
X155558669Y-52519369D01*
X155151925Y-52350890D01*
X154720128Y-52265000D01*
X154279872Y-52265000D01*
X153848075Y-52350890D01*
X153441331Y-52519369D01*
X153075271Y-52763962D01*
X152763962Y-53075271D01*
X152519369Y-53441331D01*
X152350890Y-53848075D01*
X152265000Y-54279872D01*
X67735000Y-54279872D01*
X67649110Y-53848075D01*
X67480631Y-53441331D01*
X67236038Y-53075271D01*
X66924729Y-52763962D01*
X66558669Y-52519369D01*
X66151925Y-52350890D01*
X65720128Y-52265000D01*
X65279872Y-52265000D01*
X64848075Y-52350890D01*
X64441331Y-52519369D01*
X64075271Y-52763962D01*
X63763962Y-53075271D01*
X63519369Y-53441331D01*
X63350890Y-53848075D01*
X63265000Y-54279872D01*
X60710000Y-54279872D01*
X60710000Y-50710000D01*
X159290000Y-50710000D01*
X159290001Y-124290000D01*
G36*
X98689800Y-85861398D02*
G01*
X98681376Y-85869822D01*
X98648787Y-85649870D01*
X98553603Y-85383708D01*
X98486671Y-85258486D01*
X98242702Y-85186903D01*
X97429605Y-86000000D01*
X97443748Y-86014143D01*
X97264143Y-86193748D01*
X97250000Y-86179605D01*
X96436903Y-86992702D01*
X96508486Y-87236671D01*
X96763996Y-87357571D01*
X97038184Y-87426300D01*
X97120824Y-87430374D01*
X88766737Y-95784462D01*
X88688932Y-95638899D01*
X88613643Y-95547159D01*
X94111704Y-90049098D01*
X94140701Y-90025301D01*
X94235674Y-89909576D01*
X94306246Y-89777547D01*
X94349703Y-89634286D01*
X94360700Y-89522633D01*
X94360700Y-89522632D01*
X94364377Y-89485300D01*
X94360700Y-89447967D01*
X94360700Y-86070512D01*
X95809783Y-86070512D01*
X95851213Y-86350130D01*
X95946397Y-86616292D01*
X96013329Y-86741514D01*
X96257298Y-86813097D01*
X97070395Y-86000000D01*
X96257298Y-85186903D01*
X96013329Y-85258486D01*
X95892429Y-85513996D01*
X95823700Y-85788184D01*
X95809783Y-86070512D01*
X94360700Y-86070512D01*
X94360700Y-83358665D01*
X95815000Y-83358665D01*
X95815000Y-83641335D01*
X95870147Y-83918574D01*
X95978320Y-84179727D01*
X96135363Y-84414759D01*
X96335241Y-84614637D01*
X96535869Y-84748692D01*
X96508486Y-84763329D01*
X96436903Y-85007298D01*
X97250000Y-85820395D01*
X98063097Y-85007298D01*
X97991514Y-84763329D01*
X97962659Y-84749676D01*
X98164759Y-84614637D01*
X98364637Y-84414759D01*
X98521680Y-84179727D01*
X98629853Y-83918574D01*
X98685000Y-83641335D01*
X98685000Y-83358665D01*
X98629853Y-83081426D01*
X98521680Y-82820273D01*
X98364637Y-82585241D01*
X98164759Y-82385363D01*
X97929727Y-82228320D01*
X97668574Y-82120147D01*
X97391335Y-82065000D01*
X97108665Y-82065000D01*
X96831426Y-82120147D01*
X96570273Y-82228320D01*
X96335241Y-82385363D01*
X96135363Y-82585241D01*
X95978320Y-82820273D01*
X95870147Y-83081426D01*
X95815000Y-83358665D01*
X94360700Y-83358665D01*
X94360700Y-72590701D01*
X98689801Y-68261601D01*
X98689800Y-85861398D01*
X98689800Y-85861398D01*
G37*
X98689800Y-85861398D02*
X98681376Y-85869822D01*
X98648787Y-85649870D01*
X98553603Y-85383708D01*
X98486671Y-85258486D01*
X98242702Y-85186903D01*
X97429605Y-86000000D01*
X97443748Y-86014143D01*
X97264143Y-86193748D01*
X97250000Y-86179605D01*
X96436903Y-86992702D01*
X96508486Y-87236671D01*
X96763996Y-87357571D01*
X97038184Y-87426300D01*
X97120824Y-87430374D01*
X88766737Y-95784462D01*
X88688932Y-95638899D01*
X88613643Y-95547159D01*
X94111704Y-90049098D01*
X94140701Y-90025301D01*
X94235674Y-89909576D01*
X94306246Y-89777547D01*
X94349703Y-89634286D01*
X94360700Y-89522633D01*
X94360700Y-89522632D01*
X94364377Y-89485300D01*
X94360700Y-89447967D01*
X94360700Y-86070512D01*
X95809783Y-86070512D01*
X95851213Y-86350130D01*
X95946397Y-86616292D01*
X96013329Y-86741514D01*
X96257298Y-86813097D01*
X97070395Y-86000000D01*
X96257298Y-85186903D01*
X96013329Y-85258486D01*
X95892429Y-85513996D01*
X95823700Y-85788184D01*
X95809783Y-86070512D01*
X94360700Y-86070512D01*
X94360700Y-83358665D01*
X95815000Y-83358665D01*
X95815000Y-83641335D01*
X95870147Y-83918574D01*
X95978320Y-84179727D01*
X96135363Y-84414759D01*
X96335241Y-84614637D01*
X96535869Y-84748692D01*
X96508486Y-84763329D01*
X96436903Y-85007298D01*
X97250000Y-85820395D01*
X98063097Y-85007298D01*
X97991514Y-84763329D01*
X97962659Y-84749676D01*
X98164759Y-84614637D01*
X98364637Y-84414759D01*
X98521680Y-84179727D01*
X98629853Y-83918574D01*
X98685000Y-83641335D01*
X98685000Y-83358665D01*
X98629853Y-83081426D01*
X98521680Y-82820273D01*
X98364637Y-82585241D01*
X98164759Y-82385363D01*
X97929727Y-82228320D01*
X97668574Y-82120147D01*
X97391335Y-82065000D01*
X97108665Y-82065000D01*
X96831426Y-82120147D01*
X96570273Y-82228320D01*
X96335241Y-82385363D01*
X96135363Y-82585241D01*
X95978320Y-82820273D01*
X95870147Y-83081426D01*
X95815000Y-83358665D01*
X94360700Y-83358665D01*
X94360700Y-72590701D01*
X98689801Y-68261601D01*
X98689800Y-85861398D01*
G36*
X107671068Y-79211101D02*
G01*
X107850392Y-79429608D01*
X108068899Y-79608932D01*
X108201858Y-79680000D01*
X108068899Y-79751068D01*
X107850392Y-79930392D01*
X107671068Y-80148899D01*
X107537818Y-80398192D01*
X107455764Y-80668691D01*
X107428057Y-80950000D01*
X107455764Y-81231309D01*
X107537818Y-81501808D01*
X107671068Y-81751101D01*
X107850392Y-81969608D01*
X108068899Y-82148932D01*
X108206682Y-82222579D01*
X108014869Y-82337615D01*
X107806481Y-82526586D01*
X107638963Y-82752580D01*
X107518754Y-83006913D01*
X107478096Y-83140961D01*
X107600085Y-83363000D01*
X108743000Y-83363000D01*
X108743000Y-83343000D01*
X108997000Y-83343000D01*
X108997000Y-83363000D01*
X109017000Y-83363000D01*
X109017000Y-83617000D01*
X108997000Y-83617000D01*
X108997000Y-83637000D01*
X108743000Y-83637000D01*
X108743000Y-83617000D01*
X107600085Y-83617000D01*
X107478096Y-83839039D01*
X107518754Y-83973087D01*
X107638963Y-84227420D01*
X107763316Y-84395182D01*
X106765598Y-85392901D01*
X106736600Y-85416699D01*
X106712802Y-85445697D01*
X106712801Y-85445698D01*
X106641626Y-85532424D01*
X106571054Y-85664454D01*
X106551720Y-85728192D01*
X106533296Y-85788932D01*
X106527598Y-85807715D01*
X106512924Y-85956700D01*
X106516601Y-85994032D01*
X106516600Y-91175277D01*
X106512924Y-91212600D01*
X106516600Y-91249922D01*
X106516600Y-91249932D01*
X106527597Y-91361585D01*
X106569722Y-91500454D01*
X106571054Y-91504846D01*
X106641626Y-91636876D01*
X106664169Y-91664344D01*
X106736599Y-91752601D01*
X106765603Y-91776404D01*
X107746357Y-92757159D01*
X107671068Y-92848899D01*
X107593263Y-92994461D01*
X104613400Y-90014599D01*
X104613400Y-82118901D01*
X107618865Y-79113437D01*
X107671068Y-79211101D01*
X107671068Y-79211101D01*
G37*
X107671068Y-79211101D02*
X107850392Y-79429608D01*
X108068899Y-79608932D01*
X108201858Y-79680000D01*
X108068899Y-79751068D01*
X107850392Y-79930392D01*
X107671068Y-80148899D01*
X107537818Y-80398192D01*
X107455764Y-80668691D01*
X107428057Y-80950000D01*
X107455764Y-81231309D01*
X107537818Y-81501808D01*
X107671068Y-81751101D01*
X107850392Y-81969608D01*
X108068899Y-82148932D01*
X108206682Y-82222579D01*
X108014869Y-82337615D01*
X107806481Y-82526586D01*
X107638963Y-82752580D01*
X107518754Y-83006913D01*
X107478096Y-83140961D01*
X107600085Y-83363000D01*
X108743000Y-83363000D01*
X108743000Y-83343000D01*
X108997000Y-83343000D01*
X108997000Y-83363000D01*
X109017000Y-83363000D01*
X109017000Y-83617000D01*
X108997000Y-83617000D01*
X108997000Y-83637000D01*
X108743000Y-83637000D01*
X108743000Y-83617000D01*
X107600085Y-83617000D01*
X107478096Y-83839039D01*
X107518754Y-83973087D01*
X107638963Y-84227420D01*
X107763316Y-84395182D01*
X106765598Y-85392901D01*
X106736600Y-85416699D01*
X106712802Y-85445697D01*
X106712801Y-85445698D01*
X106641626Y-85532424D01*
X106571054Y-85664454D01*
X106551720Y-85728192D01*
X106533296Y-85788932D01*
X106527598Y-85807715D01*
X106512924Y-85956700D01*
X106516601Y-85994032D01*
X106516600Y-91175277D01*
X106512924Y-91212600D01*
X106516600Y-91249922D01*
X106516600Y-91249932D01*
X106527597Y-91361585D01*
X106569722Y-91500454D01*
X106571054Y-91504846D01*
X106641626Y-91636876D01*
X106664169Y-91664344D01*
X106736599Y-91752601D01*
X106765603Y-91776404D01*
X107746357Y-92757159D01*
X107671068Y-92848899D01*
X107593263Y-92994461D01*
X104613400Y-90014599D01*
X104613400Y-82118901D01*
X107618865Y-79113437D01*
X107671068Y-79211101D01*
G36*
X101377000Y-85903000D02*
G01*
X101397000Y-85903000D01*
X101397000Y-86157000D01*
X101377000Y-86157000D01*
X101377000Y-86177000D01*
X101123000Y-86177000D01*
X101123000Y-86157000D01*
X101103000Y-86157000D01*
X101103000Y-85903000D01*
X101123000Y-85903000D01*
X101123000Y-85883000D01*
X101377000Y-85883000D01*
X101377000Y-85903000D01*
X101377000Y-85903000D01*
G37*
X101377000Y-85903000D02*
X101397000Y-85903000D01*
X101397000Y-86157000D01*
X101377000Y-86157000D01*
X101377000Y-86177000D01*
X101123000Y-86177000D01*
X101123000Y-86157000D01*
X101103000Y-86157000D01*
X101103000Y-85903000D01*
X101123000Y-85903000D01*
X101123000Y-85883000D01*
X101377000Y-85883000D01*
X101377000Y-85903000D01*
G36*
X117167000Y-76453000D02*
G01*
X117187000Y-76453000D01*
X117187000Y-76707000D01*
X117167000Y-76707000D01*
X117167000Y-77900814D01*
X117396891Y-78021481D01*
X117461100Y-77998704D01*
X117461100Y-82408411D01*
X115994800Y-83874711D01*
X115948932Y-83788899D01*
X115769608Y-83570392D01*
X115551101Y-83391068D01*
X115503942Y-83365861D01*
X115499003Y-83315714D01*
X115455546Y-83172453D01*
X115384974Y-83040424D01*
X115290001Y-82924699D01*
X115261002Y-82900900D01*
X115260000Y-82899898D01*
X115260000Y-77857595D01*
X115329014Y-77820706D01*
X115555134Y-77635134D01*
X115740706Y-77409014D01*
X115771584Y-77351244D01*
X115942412Y-77580269D01*
X116158645Y-77775178D01*
X116408748Y-77924157D01*
X116683109Y-78021481D01*
X116913000Y-77900814D01*
X116913000Y-76707000D01*
X116893000Y-76707000D01*
X116893000Y-76453000D01*
X116913000Y-76453000D01*
X116913000Y-76433000D01*
X117167000Y-76433000D01*
X117167000Y-76453000D01*
X117167000Y-76453000D01*
G37*
X117167000Y-76453000D02*
X117187000Y-76453000D01*
X117187000Y-76707000D01*
X117167000Y-76707000D01*
X117167000Y-77900814D01*
X117396891Y-78021481D01*
X117461100Y-77998704D01*
X117461100Y-82408411D01*
X115994800Y-83874711D01*
X115948932Y-83788899D01*
X115769608Y-83570392D01*
X115551101Y-83391068D01*
X115503942Y-83365861D01*
X115499003Y-83315714D01*
X115455546Y-83172453D01*
X115384974Y-83040424D01*
X115290001Y-82924699D01*
X115261002Y-82900900D01*
X115260000Y-82899898D01*
X115260000Y-77857595D01*
X115329014Y-77820706D01*
X115555134Y-77635134D01*
X115740706Y-77409014D01*
X115771584Y-77351244D01*
X115942412Y-77580269D01*
X116158645Y-77775178D01*
X116408748Y-77924157D01*
X116683109Y-78021481D01*
X116913000Y-77900814D01*
X116913000Y-76707000D01*
X116893000Y-76707000D01*
X116893000Y-76453000D01*
X116913000Y-76453000D01*
X116913000Y-76433000D01*
X117167000Y-76433000D01*
X117167000Y-76453000D01*
M02*
