M48
; DRILL file {KiCad (5.1.4-0)} date 2019年12月21日 土曜日 12:26:56
; FORMAT={-:-/ absolute / metric / decimal}
; #@! TF.CreationDate,2019-12-21T12:26:56+09:00
; #@! TF.GenerationSoftware,Kicad,Pcbnew,(5.1.4-0)
FMAT,2
METRIC
T1C0.400
T2C0.800
T3C1.000
T4C1.016
T5C3.200
%
G90
G05
T1
X89.308Y-74.85
T2
X147.25Y-91.0
X149.75Y-91.0
X141.75Y-94.25
X141.75Y-96.79
X141.75Y-99.33
X141.75Y-101.87
X141.75Y-104.41
X141.75Y-106.95
X141.75Y-109.49
X149.37Y-94.25
X149.37Y-96.79
X149.37Y-101.87
X149.37Y-104.41
X149.37Y-106.95
X149.37Y-109.49
X147.5Y-65.0
X150.0Y-65.0
X72.25Y-68.5
X72.25Y-71.04
X72.25Y-73.58
X72.25Y-76.12
X72.25Y-78.66
X72.25Y-81.2
X72.25Y-83.74
X72.25Y-86.28
X72.25Y-88.82
X72.25Y-91.36
X72.25Y-93.9
X72.25Y-96.44
X72.25Y-98.98
X72.25Y-101.52
X72.25Y-104.06
X72.25Y-106.6
X72.25Y-109.14
X72.25Y-111.68
X72.25Y-114.22
X87.49Y-71.04
X87.49Y-76.12
X87.49Y-78.66
X87.49Y-81.2
X87.49Y-83.74
X87.49Y-86.28
X87.49Y-88.82
X87.49Y-91.36
X87.49Y-93.9
X87.49Y-96.44
X87.49Y-101.52
X87.49Y-104.06
X87.49Y-106.6
X87.49Y-109.14
X87.49Y-111.68
X87.49Y-114.22
X87.49Y-116.76
X97.25Y-83.5
X97.25Y-86.0
X72.25Y-116.76
X87.49Y-68.5
X87.49Y-73.58
X87.49Y-98.98
X77.5Y-84.25
X80.0Y-84.25
X149.37Y-99.33
X101.25Y-68.25
X101.25Y-70.79
X101.25Y-73.33
X101.25Y-75.87
X101.25Y-78.41
X101.25Y-80.95
X101.25Y-83.49
X101.25Y-86.03
X101.25Y-88.57
X101.25Y-91.11
X101.25Y-93.65
X101.25Y-96.19
X101.25Y-98.73
X101.25Y-101.27
X108.87Y-68.25
X108.87Y-70.79
X108.87Y-73.33
X108.87Y-75.87
X108.87Y-78.41
X108.87Y-80.95
X108.87Y-83.49
X108.87Y-86.03
X108.87Y-88.57
X114.75Y-84.59
X114.75Y-94.75
X108.87Y-91.11
X108.87Y-93.65
X108.87Y-96.19
X108.87Y-98.73
X108.87Y-101.27
X93.25Y-95.93
X93.25Y-98.47
X93.25Y-101.01
X93.25Y-103.55
X93.25Y-106.09
X93.25Y-108.63
X93.25Y-111.17
X93.25Y-113.71
X93.25Y-116.25
X141.75Y-68.0
X141.75Y-70.54
X141.75Y-73.08
X141.75Y-75.62
X141.75Y-78.16
X141.75Y-80.7
X141.75Y-83.24
X141.75Y-85.78
X149.37Y-68.0
X149.37Y-70.54
X149.37Y-73.08
X149.37Y-75.62
X149.37Y-78.16
X149.37Y-80.7
X149.37Y-83.24
X149.37Y-85.78
X74.5Y-58.75
X74.5Y-61.25
T3
X126.25Y-85.0
X128.79Y-85.0
X86.25Y-59.46
X86.25Y-62.0
X88.79Y-59.46
X88.79Y-62.0
X91.33Y-59.46
X123.75Y-71.0
X123.75Y-73.54
X123.75Y-76.08
X123.75Y-78.62
X126.29Y-71.0
X126.29Y-73.54
X126.29Y-76.08
X126.29Y-78.62
X114.5Y-71.5
X114.5Y-74.04
X114.5Y-76.58
X117.04Y-71.5
X117.04Y-74.04
X117.04Y-76.58
X131.33Y-85.0
X91.33Y-62.0
X93.87Y-59.46
X93.87Y-62.0
X96.41Y-59.46
X96.41Y-62.0
X98.95Y-59.46
X98.95Y-62.0
X101.49Y-59.46
X101.49Y-62.0
X104.03Y-59.46
X104.03Y-62.0
X106.57Y-59.46
X106.57Y-62.0
X109.11Y-59.46
X109.11Y-62.0
X111.65Y-59.46
X111.65Y-62.0
X114.19Y-59.46
X114.19Y-62.0
X116.73Y-59.46
X116.73Y-62.0
X119.27Y-59.46
X119.27Y-62.0
X121.81Y-59.46
X132.25Y-71.0
X121.81Y-62.0
X124.35Y-59.46
X124.35Y-62.0
X126.89Y-59.46
X126.89Y-62.0
X129.43Y-59.46
X129.43Y-62.0
X131.97Y-59.46
X131.97Y-62.0
X134.51Y-59.46
X134.51Y-62.0
X123.8Y-116.0
X126.34Y-116.0
X128.88Y-116.0
X131.42Y-116.0
X133.96Y-116.0
X136.5Y-116.0
X64.21Y-64.76
X64.21Y-67.3
X64.21Y-69.84
X64.21Y-72.38
X64.21Y-74.92
X64.21Y-80.0
X66.75Y-67.3
X66.75Y-69.84
X66.75Y-72.38
X66.75Y-74.92
X66.75Y-77.46
X66.75Y-80.0
X132.25Y-73.54
X132.25Y-76.08
X132.25Y-78.62
X134.79Y-71.0
X134.79Y-73.54
X134.79Y-76.08
X134.79Y-78.62
X64.21Y-77.46
X66.75Y-64.76
T4
X103.6Y-116.0
X103.6Y-118.5
X105.7Y-118.5
X108.3Y-118.5
X110.4Y-116.0
X110.4Y-118.5
T5
X65.5Y-120.5
X154.5Y-54.5
X65.5Y-54.5
X154.5Y-120.5
T2
G00X100.25Y-120.8
M15
G01X100.25Y-122.2
M16
G05
G00X106.3Y-122.3
M15
G01X107.7Y-122.3
M16
G05
G00X113.75Y-120.8
M15
G01X113.75Y-122.2
M16
G05
T0
M30
