G04 #@! TF.GenerationSoftware,KiCad,Pcbnew,(5.1.4-0)*
G04 #@! TF.CreationDate,2020-03-18T19:54:09+09:00*
G04 #@! TF.ProjectId,KZ80-PS2KBD,4b5a3830-2d50-4533-924b-42442e6b6963,rev?*
G04 #@! TF.SameCoordinates,Original*
G04 #@! TF.FileFunction,Soldermask,Bot*
G04 #@! TF.FilePolarity,Negative*
%FSLAX46Y46*%
G04 Gerber Fmt 4.6, Leading zero omitted, Abs format (unit mm)*
G04 Created by KiCad (PCBNEW (5.1.4-0)) date 2020-03-18 19:54:09*
%MOMM*%
%LPD*%
G04 APERTURE LIST*
%ADD10C,3.600000*%
%ADD11R,2.000000X2.000000*%
%ADD12C,2.000000*%
%ADD13R,2.100000X2.100000*%
%ADD14O,2.100000X2.100000*%
%ADD15O,2.000000X2.000000*%
%ADD16C,1.924000*%
%ADD17R,1.600000X3.200000*%
%ADD18R,3.200000X1.600000*%
G04 APERTURE END LIST*
D10*
X154500000Y-120500000D03*
X65500000Y-120500000D03*
X154500000Y-54500000D03*
X65500000Y-54500000D03*
D11*
X74500000Y-61250000D03*
D12*
X74500000Y-58750000D03*
X149750000Y-91000000D03*
X147250000Y-91000000D03*
X147500000Y-65000000D03*
X150000000Y-65000000D03*
X97250000Y-86000000D03*
X97250000Y-83500000D03*
X77500000Y-84250000D03*
X80000000Y-84250000D03*
D13*
X126250000Y-85000000D03*
D14*
X128790000Y-85000000D03*
X131330000Y-85000000D03*
D13*
X136500000Y-116000000D03*
D14*
X133960000Y-116000000D03*
X131420000Y-116000000D03*
X128880000Y-116000000D03*
X126340000Y-116000000D03*
X123800000Y-116000000D03*
D13*
X114500000Y-71500000D03*
D14*
X117040000Y-71500000D03*
X114500000Y-74040000D03*
X117040000Y-74040000D03*
X114500000Y-76580000D03*
X117040000Y-76580000D03*
X126290000Y-78620000D03*
X123750000Y-78620000D03*
X126290000Y-76080000D03*
X123750000Y-76080000D03*
X126290000Y-73540000D03*
X123750000Y-73540000D03*
X126290000Y-71000000D03*
D13*
X123750000Y-71000000D03*
X132250000Y-71000000D03*
D14*
X134790000Y-71000000D03*
X132250000Y-73540000D03*
X134790000Y-73540000D03*
X132250000Y-76080000D03*
X134790000Y-76080000D03*
X132250000Y-78620000D03*
X134790000Y-78620000D03*
D13*
X66750000Y-80000000D03*
D14*
X64210000Y-80000000D03*
X66750000Y-77460000D03*
X64210000Y-77460000D03*
X66750000Y-74920000D03*
X64210000Y-74920000D03*
X66750000Y-72380000D03*
X64210000Y-72380000D03*
X66750000Y-69840000D03*
X64210000Y-69840000D03*
X66750000Y-67300000D03*
X64210000Y-67300000D03*
X66750000Y-64760000D03*
X64210000Y-64760000D03*
D13*
X86250000Y-62000000D03*
D14*
X86250000Y-59460000D03*
X88790000Y-62000000D03*
X88790000Y-59460000D03*
X91330000Y-62000000D03*
X91330000Y-59460000D03*
X93870000Y-62000000D03*
X93870000Y-59460000D03*
X96410000Y-62000000D03*
X96410000Y-59460000D03*
X98950000Y-62000000D03*
X98950000Y-59460000D03*
X101490000Y-62000000D03*
X101490000Y-59460000D03*
X104030000Y-62000000D03*
X104030000Y-59460000D03*
X106570000Y-62000000D03*
X106570000Y-59460000D03*
X109110000Y-62000000D03*
X109110000Y-59460000D03*
X111650000Y-62000000D03*
X111650000Y-59460000D03*
X114190000Y-62000000D03*
X114190000Y-59460000D03*
X116730000Y-62000000D03*
X116730000Y-59460000D03*
X119270000Y-62000000D03*
X119270000Y-59460000D03*
X121810000Y-62000000D03*
X121810000Y-59460000D03*
X124350000Y-62000000D03*
X124350000Y-59460000D03*
X126890000Y-62000000D03*
X126890000Y-59460000D03*
X129430000Y-62000000D03*
X129430000Y-59460000D03*
X131970000Y-62000000D03*
X131970000Y-59460000D03*
X134510000Y-62000000D03*
X134510000Y-59460000D03*
D11*
X141750000Y-94250000D03*
D15*
X149370000Y-109490000D03*
X141750000Y-96790000D03*
X149370000Y-106950000D03*
X141750000Y-99330000D03*
X149370000Y-104410000D03*
X141750000Y-101870000D03*
X149370000Y-101870000D03*
X141750000Y-104410000D03*
X149370000Y-99330000D03*
X141750000Y-106950000D03*
X149370000Y-96790000D03*
X141750000Y-109490000D03*
X149370000Y-94250000D03*
D11*
X141750000Y-68000000D03*
D15*
X149370000Y-85780000D03*
X141750000Y-70540000D03*
X149370000Y-83240000D03*
X141750000Y-73080000D03*
X149370000Y-80700000D03*
X141750000Y-75620000D03*
X149370000Y-78160000D03*
X141750000Y-78160000D03*
X149370000Y-75620000D03*
X141750000Y-80700000D03*
X149370000Y-73080000D03*
X141750000Y-83240000D03*
X149370000Y-70540000D03*
X141750000Y-85780000D03*
X149370000Y-68000000D03*
D11*
X101250000Y-68250000D03*
D15*
X108870000Y-101270000D03*
X101250000Y-70790000D03*
X108870000Y-98730000D03*
X101250000Y-73330000D03*
X108870000Y-96190000D03*
X101250000Y-75870000D03*
X108870000Y-93650000D03*
X101250000Y-78410000D03*
X108870000Y-91110000D03*
X101250000Y-80950000D03*
X108870000Y-88570000D03*
X101250000Y-83490000D03*
X108870000Y-86030000D03*
X101250000Y-86030000D03*
X108870000Y-83490000D03*
X101250000Y-88570000D03*
X108870000Y-80950000D03*
X101250000Y-91110000D03*
X108870000Y-78410000D03*
X101250000Y-93650000D03*
X108870000Y-75870000D03*
X101250000Y-96190000D03*
X108870000Y-73330000D03*
X101250000Y-98730000D03*
X108870000Y-70790000D03*
X101250000Y-101270000D03*
X108870000Y-68250000D03*
D11*
X72250000Y-68500000D03*
D15*
X87490000Y-116760000D03*
X72250000Y-71040000D03*
X87490000Y-114220000D03*
X72250000Y-73580000D03*
X87490000Y-111680000D03*
X72250000Y-76120000D03*
X87490000Y-109140000D03*
X72250000Y-78660000D03*
X87490000Y-106600000D03*
X72250000Y-81200000D03*
X87490000Y-104060000D03*
X72250000Y-83740000D03*
X87490000Y-101520000D03*
X72250000Y-86280000D03*
X87490000Y-98980000D03*
X72250000Y-88820000D03*
X87490000Y-96440000D03*
X72250000Y-91360000D03*
X87490000Y-93900000D03*
X72250000Y-93900000D03*
X87490000Y-91360000D03*
X72250000Y-96440000D03*
X87490000Y-88820000D03*
X72250000Y-98980000D03*
X87490000Y-86280000D03*
X72250000Y-101520000D03*
X87490000Y-83740000D03*
X72250000Y-104060000D03*
X87490000Y-81200000D03*
X72250000Y-106600000D03*
X87490000Y-78660000D03*
X72250000Y-109140000D03*
X87490000Y-76120000D03*
X72250000Y-111680000D03*
X87490000Y-73580000D03*
X72250000Y-114220000D03*
X87490000Y-71040000D03*
X72250000Y-116760000D03*
X87490000Y-68500000D03*
D11*
X93250000Y-116250000D03*
D15*
X93250000Y-113710000D03*
X93250000Y-111170000D03*
X93250000Y-108630000D03*
X93250000Y-106090000D03*
X93250000Y-103550000D03*
X93250000Y-101010000D03*
X93250000Y-98470000D03*
X93250000Y-95930000D03*
D12*
X114750000Y-94750000D03*
D15*
X114750000Y-84590000D03*
D16*
X108300000Y-118500000D03*
X105700000Y-118500000D03*
X110400000Y-118500000D03*
X103600000Y-118500000D03*
X110400000Y-116000000D03*
X103600000Y-116000000D03*
D17*
X100250000Y-121500000D03*
X113750000Y-121500000D03*
D18*
X107000000Y-122300000D03*
M02*
