G04 #@! TF.GenerationSoftware,KiCad,Pcbnew,(5.1.4-0-10_14)*
G04 #@! TF.CreationDate,2021-03-22T17:32:21+09:00*
G04 #@! TF.ProjectId,KZ80-PS2KBD,4b5a3830-2d50-4533-924b-42442e6b6963,rev?*
G04 #@! TF.SameCoordinates,Original*
G04 #@! TF.FileFunction,Copper,L2,Bot*
G04 #@! TF.FilePolarity,Positive*
%FSLAX46Y46*%
G04 Gerber Fmt 4.6, Leading zero omitted, Abs format (unit mm)*
G04 Created by KiCad (PCBNEW (5.1.4-0-10_14)) date 2021-03-22 17:32:21*
%MOMM*%
%LPD*%
G04 APERTURE LIST*
%ADD10O,1.600000X1.600000*%
%ADD11C,1.600000*%
%ADD12O,3.000000X2.000000*%
%ADD13O,2.000000X3.000000*%
%ADD14R,1.600000X1.600000*%
%ADD15R,1.700000X1.700000*%
%ADD16O,1.700000X1.700000*%
%ADD17C,1.524000*%
%ADD18R,1.200000X2.800000*%
%ADD19R,2.800000X1.200000*%
%ADD20C,0.800000*%
%ADD21C,0.250000*%
%ADD22C,0.600000*%
%ADD23C,0.254000*%
G04 APERTURE END LIST*
D10*
X157150000Y-93030000D03*
D11*
X146990000Y-93030000D03*
D10*
X141500000Y-107210000D03*
D11*
X141500000Y-97050000D03*
D10*
X137560000Y-96820000D03*
D11*
X137560000Y-106980000D03*
D12*
X154020000Y-97390000D03*
D13*
X146220000Y-97590000D03*
D12*
X150720000Y-104790000D03*
X149020000Y-107290000D03*
D13*
X157520000Y-101890000D03*
D11*
X138590000Y-110590000D03*
X141090000Y-110590000D03*
X138260000Y-93770000D03*
X140760000Y-93770000D03*
D14*
X74500000Y-61250000D03*
D11*
X74500000Y-58750000D03*
X131530000Y-90750000D03*
X129030000Y-90750000D03*
X147500000Y-65000000D03*
X150000000Y-65000000D03*
X97250000Y-86000000D03*
X97250000Y-83500000D03*
X77500000Y-84250000D03*
X80000000Y-84250000D03*
D15*
X126250000Y-85000000D03*
D16*
X128790000Y-85000000D03*
X131330000Y-85000000D03*
D15*
X136500000Y-116000000D03*
D16*
X133960000Y-116000000D03*
X131420000Y-116000000D03*
X128880000Y-116000000D03*
X126340000Y-116000000D03*
X123800000Y-116000000D03*
D15*
X114500000Y-71500000D03*
D16*
X117040000Y-71500000D03*
X114500000Y-74040000D03*
X117040000Y-74040000D03*
X114500000Y-76580000D03*
X117040000Y-76580000D03*
X126290000Y-78620000D03*
X123750000Y-78620000D03*
X126290000Y-76080000D03*
X123750000Y-76080000D03*
X126290000Y-73540000D03*
X123750000Y-73540000D03*
X126290000Y-71000000D03*
D15*
X123750000Y-71000000D03*
X132250000Y-71000000D03*
D16*
X134790000Y-71000000D03*
X132250000Y-73540000D03*
X134790000Y-73540000D03*
X132250000Y-76080000D03*
X134790000Y-76080000D03*
X132250000Y-78620000D03*
X134790000Y-78620000D03*
D15*
X66750000Y-80000000D03*
D16*
X64210000Y-80000000D03*
X66750000Y-77460000D03*
X64210000Y-77460000D03*
X66750000Y-74920000D03*
X64210000Y-74920000D03*
X66750000Y-72380000D03*
X64210000Y-72380000D03*
X66750000Y-69840000D03*
X64210000Y-69840000D03*
X66750000Y-67300000D03*
X64210000Y-67300000D03*
X66750000Y-64760000D03*
X64210000Y-64760000D03*
D15*
X86250000Y-62000000D03*
D16*
X86250000Y-59460000D03*
X88790000Y-62000000D03*
X88790000Y-59460000D03*
X91330000Y-62000000D03*
X91330000Y-59460000D03*
X93870000Y-62000000D03*
X93870000Y-59460000D03*
X96410000Y-62000000D03*
X96410000Y-59460000D03*
X98950000Y-62000000D03*
X98950000Y-59460000D03*
X101490000Y-62000000D03*
X101490000Y-59460000D03*
X104030000Y-62000000D03*
X104030000Y-59460000D03*
X106570000Y-62000000D03*
X106570000Y-59460000D03*
X109110000Y-62000000D03*
X109110000Y-59460000D03*
X111650000Y-62000000D03*
X111650000Y-59460000D03*
X114190000Y-62000000D03*
X114190000Y-59460000D03*
X116730000Y-62000000D03*
X116730000Y-59460000D03*
X119270000Y-62000000D03*
X119270000Y-59460000D03*
X121810000Y-62000000D03*
X121810000Y-59460000D03*
X124350000Y-62000000D03*
X124350000Y-59460000D03*
X126890000Y-62000000D03*
X126890000Y-59460000D03*
X129430000Y-62000000D03*
X129430000Y-59460000D03*
X131970000Y-62000000D03*
X131970000Y-59460000D03*
X134510000Y-62000000D03*
X134510000Y-59460000D03*
D14*
X123530000Y-94000000D03*
D10*
X131150000Y-109240000D03*
X123530000Y-96540000D03*
X131150000Y-106700000D03*
X123530000Y-99080000D03*
X131150000Y-104160000D03*
X123530000Y-101620000D03*
X131150000Y-101620000D03*
X123530000Y-104160000D03*
X131150000Y-99080000D03*
X123530000Y-106700000D03*
X131150000Y-96540000D03*
X123530000Y-109240000D03*
X131150000Y-94000000D03*
D14*
X141750000Y-68000000D03*
D10*
X149370000Y-85780000D03*
X141750000Y-70540000D03*
X149370000Y-83240000D03*
X141750000Y-73080000D03*
X149370000Y-80700000D03*
X141750000Y-75620000D03*
X149370000Y-78160000D03*
X141750000Y-78160000D03*
X149370000Y-75620000D03*
X141750000Y-80700000D03*
X149370000Y-73080000D03*
X141750000Y-83240000D03*
X149370000Y-70540000D03*
X141750000Y-85780000D03*
X149370000Y-68000000D03*
D14*
X101250000Y-68250000D03*
D10*
X108870000Y-101270000D03*
X101250000Y-70790000D03*
X108870000Y-98730000D03*
X101250000Y-73330000D03*
X108870000Y-96190000D03*
X101250000Y-75870000D03*
X108870000Y-93650000D03*
X101250000Y-78410000D03*
X108870000Y-91110000D03*
X101250000Y-80950000D03*
X108870000Y-88570000D03*
X101250000Y-83490000D03*
X108870000Y-86030000D03*
X101250000Y-86030000D03*
X108870000Y-83490000D03*
X101250000Y-88570000D03*
X108870000Y-80950000D03*
X101250000Y-91110000D03*
X108870000Y-78410000D03*
X101250000Y-93650000D03*
X108870000Y-75870000D03*
X101250000Y-96190000D03*
X108870000Y-73330000D03*
X101250000Y-98730000D03*
X108870000Y-70790000D03*
X101250000Y-101270000D03*
X108870000Y-68250000D03*
D14*
X72250000Y-68500000D03*
D10*
X87490000Y-116760000D03*
X72250000Y-71040000D03*
X87490000Y-114220000D03*
X72250000Y-73580000D03*
X87490000Y-111680000D03*
X72250000Y-76120000D03*
X87490000Y-109140000D03*
X72250000Y-78660000D03*
X87490000Y-106600000D03*
X72250000Y-81200000D03*
X87490000Y-104060000D03*
X72250000Y-83740000D03*
X87490000Y-101520000D03*
X72250000Y-86280000D03*
X87490000Y-98980000D03*
X72250000Y-88820000D03*
X87490000Y-96440000D03*
X72250000Y-91360000D03*
X87490000Y-93900000D03*
X72250000Y-93900000D03*
X87490000Y-91360000D03*
X72250000Y-96440000D03*
X87490000Y-88820000D03*
X72250000Y-98980000D03*
X87490000Y-86280000D03*
X72250000Y-101520000D03*
X87490000Y-83740000D03*
X72250000Y-104060000D03*
X87490000Y-81200000D03*
X72250000Y-106600000D03*
X87490000Y-78660000D03*
X72250000Y-109140000D03*
X87490000Y-76120000D03*
X72250000Y-111680000D03*
X87490000Y-73580000D03*
X72250000Y-114220000D03*
X87490000Y-71040000D03*
X72250000Y-116760000D03*
X87490000Y-68500000D03*
D14*
X93250000Y-116250000D03*
D10*
X93250000Y-113710000D03*
X93250000Y-111170000D03*
X93250000Y-108630000D03*
X93250000Y-106090000D03*
X93250000Y-103550000D03*
X93250000Y-101010000D03*
X93250000Y-98470000D03*
X93250000Y-95930000D03*
D11*
X114750000Y-94750000D03*
D10*
X114750000Y-84590000D03*
D17*
X108300000Y-118500000D03*
X105700000Y-118500000D03*
X110400000Y-118500000D03*
X103600000Y-118500000D03*
X110400000Y-116000000D03*
X103600000Y-116000000D03*
D18*
X100250000Y-121500000D03*
X113750000Y-121500000D03*
D19*
X107000000Y-122300000D03*
D20*
X82000000Y-102500000D03*
X99000000Y-114500000D03*
X127000000Y-107000000D03*
X77000000Y-92500000D03*
X106034900Y-84424000D03*
X111630800Y-83913200D03*
X136188000Y-80700000D03*
D21*
X101250000Y-78410000D02*
X101250000Y-79535300D01*
X108300000Y-118500000D02*
X103582400Y-113782400D01*
X103582400Y-113782400D02*
X103582400Y-89306300D01*
X103582400Y-89306300D02*
X101576100Y-87300000D01*
X101576100Y-87300000D02*
X100850400Y-87300000D01*
X100850400Y-87300000D02*
X100124700Y-86574300D01*
X100124700Y-86574300D02*
X100124700Y-80379200D01*
X100124700Y-80379200D02*
X100968600Y-79535300D01*
X100968600Y-79535300D02*
X101250000Y-79535300D01*
D22*
X74115300Y-83175000D02*
X73550300Y-83740000D01*
X77500000Y-84250000D02*
X76425000Y-83175000D01*
X76425000Y-83175000D02*
X74115300Y-83175000D01*
X74115300Y-83175000D02*
X74115300Y-64493400D01*
X74115300Y-64493400D02*
X73031500Y-63409600D01*
X73031500Y-63409600D02*
X73031500Y-60218500D01*
X73031500Y-60218500D02*
X74500000Y-58750000D01*
X73031500Y-63409600D02*
X65560400Y-63409600D01*
X65560400Y-63409600D02*
X64210000Y-64760000D01*
X84899700Y-59460000D02*
X84189700Y-58750000D01*
X84189700Y-58750000D02*
X74500000Y-58750000D01*
X101250000Y-86030000D02*
X102550300Y-86030000D01*
X107569700Y-83490000D02*
X105090300Y-83490000D01*
X105090300Y-83490000D02*
X102550300Y-86030000D01*
X108870000Y-83490000D02*
X107569700Y-83490000D01*
X72250000Y-83740000D02*
X73550300Y-83740000D01*
X141750000Y-85780000D02*
X143050300Y-85780000D01*
X150670300Y-87146200D02*
X144416500Y-87146200D01*
X144416500Y-87146200D02*
X143050300Y-85780000D01*
X150000000Y-65000000D02*
X150670300Y-65670300D01*
X150670300Y-65670300D02*
X150670300Y-87146200D01*
X150670300Y-87146200D02*
X155849700Y-92325600D01*
X155849700Y-92325600D02*
X155849700Y-93030000D01*
X110400000Y-118500000D02*
X119660000Y-109240000D01*
X119660000Y-109240000D02*
X123530000Y-109240000D01*
X157150000Y-93030000D02*
X157150000Y-94330300D01*
X157520000Y-101890000D02*
X157520000Y-94700300D01*
X157520000Y-94700300D02*
X157150000Y-94330300D01*
X157150000Y-93030000D02*
X155849700Y-93030000D01*
X86250000Y-59460000D02*
X84899700Y-59460000D01*
X129030000Y-90750000D02*
X128931700Y-90750000D01*
X128931700Y-90750000D02*
X119326400Y-81144700D01*
X119326400Y-81144700D02*
X119326400Y-73786400D01*
X119326400Y-73786400D02*
X117040000Y-71500000D01*
X129030000Y-90750000D02*
X130979700Y-92699700D01*
X130979700Y-92699700D02*
X131150000Y-92699700D01*
X87490000Y-104060000D02*
X90350600Y-101199400D01*
X90350600Y-101199400D02*
X90350600Y-91031800D01*
X90350600Y-91031800D02*
X97250000Y-84132400D01*
X97250000Y-84132400D02*
X97250000Y-83500000D01*
X87490000Y-104060000D02*
X87040000Y-104060000D01*
X108870000Y-88570000D02*
X114750000Y-94450000D01*
X114750000Y-94450000D02*
X114750000Y-94750000D01*
X87040000Y-104060000D02*
X86189700Y-104060000D01*
X80000000Y-68050300D02*
X74500000Y-62550300D01*
X91949700Y-116250000D02*
X90113300Y-118086400D01*
X90113300Y-118086400D02*
X86943900Y-118086400D01*
X86943900Y-118086400D02*
X86189700Y-117332200D01*
X86189700Y-117332200D02*
X86189700Y-104060000D01*
X86250000Y-62000000D02*
X84899700Y-62000000D01*
X80000000Y-84250000D02*
X80000000Y-68050300D01*
X84899700Y-62000000D02*
X84899700Y-63150600D01*
X84899700Y-63150600D02*
X80000000Y-68050300D01*
X74500000Y-61250000D02*
X74500000Y-62550300D01*
X131150000Y-94000000D02*
X131150000Y-92699700D01*
X93250000Y-116250000D02*
X94550300Y-116250000D01*
X103600000Y-118500000D02*
X96800300Y-118500000D01*
X96800300Y-118500000D02*
X94550300Y-116250000D01*
X149370000Y-68000000D02*
X149370000Y-66699700D01*
X149370000Y-66699700D02*
X149199700Y-66699700D01*
X149199700Y-66699700D02*
X147500000Y-65000000D01*
X93250000Y-116250000D02*
X91949700Y-116250000D01*
D21*
X110400000Y-116000000D02*
X106034900Y-111634900D01*
X106034900Y-111634900D02*
X106034900Y-84424000D01*
X87490000Y-80074700D02*
X87930800Y-80074700D01*
X87930800Y-80074700D02*
X98682200Y-69323300D01*
X98682200Y-69323300D02*
X98682200Y-68752200D01*
X98682200Y-68752200D02*
X101118900Y-66315500D01*
X101118900Y-66315500D02*
X108585700Y-66315500D01*
X108585700Y-66315500D02*
X111051900Y-63849300D01*
X87490000Y-81200000D02*
X87490000Y-80074700D01*
X111051900Y-63849300D02*
X120321700Y-73119100D01*
X120321700Y-73119100D02*
X120321700Y-81255600D01*
X120321700Y-81255600D02*
X126789100Y-87723000D01*
X126789100Y-87723000D02*
X127613300Y-87723000D01*
X127613300Y-87723000D02*
X130155400Y-90265100D01*
X130155400Y-90265100D02*
X130155400Y-90966900D01*
X130155400Y-90966900D02*
X131063900Y-91875400D01*
X131063900Y-91875400D02*
X131311600Y-91875400D01*
X131311600Y-91875400D02*
X132275300Y-92839100D01*
X132275300Y-92839100D02*
X132275300Y-94570800D01*
X132275300Y-94570800D02*
X131431400Y-95414700D01*
X131431400Y-95414700D02*
X131150000Y-95414700D01*
X111051900Y-63849300D02*
X111650000Y-63251200D01*
X111650000Y-63251200D02*
X111650000Y-63175300D01*
X131150000Y-96540000D02*
X131150000Y-95414700D01*
X111650000Y-62000000D02*
X111650000Y-63175300D01*
X131150000Y-96540000D02*
X131150000Y-99080000D01*
X93250000Y-113710000D02*
X93250000Y-112584700D01*
X93250000Y-112584700D02*
X93531300Y-112584700D01*
X93531300Y-112584700D02*
X101250000Y-104866000D01*
X101250000Y-104866000D02*
X101250000Y-101270000D01*
X87490000Y-116760000D02*
X87490000Y-115634700D01*
X93250000Y-106090000D02*
X93250000Y-107215300D01*
X93250000Y-107215300D02*
X93038400Y-107215300D01*
X93038400Y-107215300D02*
X90625000Y-109628700D01*
X90625000Y-109628700D02*
X90625000Y-112781000D01*
X90625000Y-112781000D02*
X87771300Y-115634700D01*
X87771300Y-115634700D02*
X87490000Y-115634700D01*
X108870000Y-92524700D02*
X108588700Y-92524700D01*
X108588700Y-92524700D02*
X107744600Y-91680600D01*
X107744600Y-91680600D02*
X107744600Y-88039100D01*
X107744600Y-88039100D02*
X108483700Y-87300000D01*
X108483700Y-87300000D02*
X109287500Y-87300000D01*
X109287500Y-87300000D02*
X112625400Y-83962100D01*
X112625400Y-83962100D02*
X112625400Y-74182600D01*
X112625400Y-74182600D02*
X114132700Y-72675300D01*
X114132700Y-72675300D02*
X114500000Y-72675300D01*
X114500000Y-71500000D02*
X114500000Y-72675300D01*
X108870000Y-93650000D02*
X108870000Y-92524700D01*
X87490000Y-113094700D02*
X87771300Y-113094700D01*
X87771300Y-113094700D02*
X90174700Y-110691300D01*
X90174700Y-110691300D02*
X90174700Y-107513400D01*
X90174700Y-107513400D02*
X93012800Y-104675300D01*
X93012800Y-104675300D02*
X93250000Y-104675300D01*
X87490000Y-114220000D02*
X87490000Y-113094700D01*
X93250000Y-103550000D02*
X93250000Y-104675300D01*
X87490000Y-110554700D02*
X87771300Y-110554700D01*
X87771300Y-110554700D02*
X89724300Y-108601700D01*
X89724300Y-108601700D02*
X89724300Y-105483400D01*
X89724300Y-105483400D02*
X93072400Y-102135300D01*
X93072400Y-102135300D02*
X93250000Y-102135300D01*
X109995300Y-91110000D02*
X109995300Y-91672700D01*
X109995300Y-91672700D02*
X114208000Y-95885400D01*
X114208000Y-95885400D02*
X115224600Y-95885400D01*
X115224600Y-95885400D02*
X115894800Y-95215200D01*
X115894800Y-95215200D02*
X115894800Y-88285200D01*
X115894800Y-88285200D02*
X113310600Y-85701000D01*
X113310600Y-85701000D02*
X113310600Y-76037300D01*
X113310600Y-76037300D02*
X114132600Y-75215300D01*
X114132600Y-75215300D02*
X114500000Y-75215300D01*
X114500000Y-74040000D02*
X114500000Y-75215300D01*
X108870000Y-91110000D02*
X109995300Y-91110000D01*
X87490000Y-111680000D02*
X87490000Y-110554700D01*
X93250000Y-101010000D02*
X93250000Y-102135300D01*
X93250000Y-98470000D02*
X93250000Y-99595300D01*
X93250000Y-99595300D02*
X92968600Y-99595300D01*
X92968600Y-99595300D02*
X92124700Y-100439200D01*
X92124700Y-100439200D02*
X92124700Y-101758200D01*
X92124700Y-101758200D02*
X88615300Y-105267600D01*
X88615300Y-105267600D02*
X88615300Y-107170800D01*
X88615300Y-107170800D02*
X87771400Y-108014700D01*
X87771400Y-108014700D02*
X87490000Y-108014700D01*
X93250000Y-97907300D02*
X93250000Y-98470000D01*
X87490000Y-109140000D02*
X87490000Y-108014700D01*
X93250000Y-97907300D02*
X93250000Y-97344700D01*
X93250000Y-97344700D02*
X93451300Y-97344700D01*
X93451300Y-97344700D02*
X94375300Y-96420700D01*
X94375300Y-96420700D02*
X94375300Y-96288600D01*
X94375300Y-96288600D02*
X100968600Y-89695300D01*
X100968600Y-89695300D02*
X101250000Y-89695300D01*
X101250000Y-88570000D02*
X101250000Y-89695300D01*
X93250000Y-95930000D02*
X91101800Y-98078200D01*
X91101800Y-98078200D02*
X91101800Y-102067200D01*
X91101800Y-102067200D02*
X87694300Y-105474700D01*
X87694300Y-105474700D02*
X87490000Y-105474700D01*
X87490000Y-106600000D02*
X87490000Y-105474700D01*
X64210000Y-77460000D02*
X64210000Y-76284700D01*
X72250000Y-68500000D02*
X71124700Y-68500000D01*
X71124700Y-68500000D02*
X68741600Y-66116900D01*
X68741600Y-66116900D02*
X63722900Y-66116900D01*
X63722900Y-66116900D02*
X63034700Y-66805100D01*
X63034700Y-66805100D02*
X63034700Y-75476800D01*
X63034700Y-75476800D02*
X63842600Y-76284700D01*
X63842600Y-76284700D02*
X64210000Y-76284700D01*
X66750000Y-77460000D02*
X67925300Y-77460000D01*
X72250000Y-71040000D02*
X72250000Y-72165300D01*
X72250000Y-72165300D02*
X72044700Y-72165300D01*
X72044700Y-72165300D02*
X67925300Y-76284700D01*
X67925300Y-76284700D02*
X67925300Y-77460000D01*
X72250000Y-76120000D02*
X71124700Y-76120000D01*
X66750000Y-80000000D02*
X67925300Y-80000000D01*
X71124700Y-76120000D02*
X71124700Y-76800600D01*
X71124700Y-76800600D02*
X67925300Y-80000000D01*
X134790000Y-71000000D02*
X134790000Y-73540000D01*
X134790000Y-76080000D02*
X134790000Y-73540000D01*
X134790000Y-78620000D02*
X134790000Y-76080000D01*
X115554700Y-59460000D02*
X115554700Y-59092700D01*
X115554700Y-59092700D02*
X114272600Y-57810600D01*
X114272600Y-57810600D02*
X93852300Y-57810600D01*
X93852300Y-57810600D02*
X92600000Y-59062900D01*
X92600000Y-59062900D02*
X92600000Y-59891000D01*
X92600000Y-59891000D02*
X91855600Y-60635400D01*
X91855600Y-60635400D02*
X91030400Y-60635400D01*
X91030400Y-60635400D02*
X89965400Y-61700400D01*
X89965400Y-61700400D02*
X89965400Y-64323000D01*
X89965400Y-64323000D02*
X81364900Y-72923500D01*
X81364900Y-72923500D02*
X81364900Y-84485000D01*
X81364900Y-84485000D02*
X79570000Y-86279900D01*
X79570000Y-86279900D02*
X73375300Y-86279900D01*
X73375300Y-86279900D02*
X73375300Y-86280000D01*
X116730000Y-59460000D02*
X115554700Y-59460000D01*
X72250000Y-86280000D02*
X73375300Y-86280000D01*
X116730000Y-62000000D02*
X115554700Y-62000000D01*
X72250000Y-88820000D02*
X77691000Y-88820000D01*
X77691000Y-88820000D02*
X85792000Y-80719000D01*
X85792000Y-80719000D02*
X85792000Y-71142400D01*
X85792000Y-71142400D02*
X87164400Y-69770000D01*
X87164400Y-69770000D02*
X87817000Y-69770000D01*
X87817000Y-69770000D02*
X92617900Y-64969100D01*
X92617900Y-64969100D02*
X92617900Y-61588200D01*
X92617900Y-61588200D02*
X93381500Y-60824600D01*
X93381500Y-60824600D02*
X94188300Y-60824600D01*
X94188300Y-60824600D02*
X95140000Y-59872900D01*
X95140000Y-59872900D02*
X95140000Y-59066800D01*
X95140000Y-59066800D02*
X95945900Y-58260900D01*
X95945900Y-58260900D02*
X101973100Y-58260900D01*
X101973100Y-58260900D02*
X102854600Y-59142400D01*
X102854600Y-59142400D02*
X102854600Y-60035500D01*
X102854600Y-60035500D02*
X103643800Y-60824700D01*
X103643800Y-60824700D02*
X114746800Y-60824700D01*
X114746800Y-60824700D02*
X115554700Y-61632600D01*
X115554700Y-61632600D02*
X115554700Y-62000000D01*
X64210000Y-67300000D02*
X65385300Y-67300000D01*
X72250000Y-91360000D02*
X72250000Y-90234700D01*
X72250000Y-90234700D02*
X71968700Y-90234700D01*
X71968700Y-90234700D02*
X71084800Y-89350800D01*
X71084800Y-89350800D02*
X71084800Y-78174600D01*
X71084800Y-78174600D02*
X71869400Y-77390000D01*
X71869400Y-77390000D02*
X72622500Y-77390000D01*
X72622500Y-77390000D02*
X73415000Y-76597500D01*
X73415000Y-76597500D02*
X73415000Y-70554100D01*
X73415000Y-70554100D02*
X72486300Y-69625400D01*
X72486300Y-69625400D02*
X70019500Y-69625400D01*
X70019500Y-69625400D02*
X68869400Y-68475300D01*
X68869400Y-68475300D02*
X66193200Y-68475300D01*
X66193200Y-68475300D02*
X65385300Y-67667400D01*
X65385300Y-67667400D02*
X65385300Y-67300000D01*
X72250000Y-96440000D02*
X73393900Y-97583900D01*
X73393900Y-97583900D02*
X73393900Y-99436200D01*
X73393900Y-99436200D02*
X72580100Y-100250000D01*
X72580100Y-100250000D02*
X71926200Y-100250000D01*
X71926200Y-100250000D02*
X70209900Y-101966300D01*
X70209900Y-101966300D02*
X70209900Y-108744600D01*
X70209900Y-108744600D02*
X71875300Y-110410000D01*
X71875300Y-110410000D02*
X75955000Y-110410000D01*
X75955000Y-110410000D02*
X85136200Y-119591200D01*
X85136200Y-119591200D02*
X124440900Y-119591200D01*
X124440900Y-119591200D02*
X127610000Y-116422100D01*
X127610000Y-116422100D02*
X127610000Y-115338500D01*
X127610000Y-115338500D02*
X136335400Y-106613100D01*
X136335400Y-106613100D02*
X136335400Y-95694600D01*
X136335400Y-95694600D02*
X138260000Y-93770000D01*
X66750000Y-69840000D02*
X66750000Y-71015300D01*
X72250000Y-98980000D02*
X72250000Y-97854700D01*
X72250000Y-97854700D02*
X71968700Y-97854700D01*
X71968700Y-97854700D02*
X65574700Y-91460700D01*
X65574700Y-91460700D02*
X65574700Y-71823200D01*
X65574700Y-71823200D02*
X66382600Y-71015300D01*
X66382600Y-71015300D02*
X66750000Y-71015300D01*
X96410000Y-59460000D02*
X96410000Y-60635300D01*
X87490000Y-86280000D02*
X87490000Y-85154700D01*
X87490000Y-85154700D02*
X87208700Y-85154700D01*
X87208700Y-85154700D02*
X86354200Y-84300200D01*
X86354200Y-84300200D02*
X86354200Y-78193400D01*
X86354200Y-78193400D02*
X87302200Y-77245400D01*
X87302200Y-77245400D02*
X87996400Y-77245400D01*
X87996400Y-77245400D02*
X95234700Y-70007100D01*
X95234700Y-70007100D02*
X95234700Y-61443200D01*
X95234700Y-61443200D02*
X96042600Y-60635300D01*
X96042600Y-60635300D02*
X96410000Y-60635300D01*
X108870000Y-80950000D02*
X107744700Y-80950000D01*
X72250000Y-101520000D02*
X70660200Y-103109800D01*
X70660200Y-103109800D02*
X70660200Y-106637400D01*
X70660200Y-106637400D02*
X71795000Y-107772200D01*
X71795000Y-107772200D02*
X72726200Y-107772200D01*
X72726200Y-107772200D02*
X84903200Y-95595200D01*
X84903200Y-95595200D02*
X84903200Y-94800300D01*
X84903200Y-94800300D02*
X87200000Y-92503500D01*
X87200000Y-92503500D02*
X87965800Y-92503500D01*
X87965800Y-92503500D02*
X95990200Y-84479100D01*
X95990200Y-84479100D02*
X95990200Y-82558800D01*
X95990200Y-82558800D02*
X100124700Y-78424300D01*
X100124700Y-78424300D02*
X100124700Y-77943800D01*
X100124700Y-77943800D02*
X100828000Y-77240500D01*
X100828000Y-77240500D02*
X104035200Y-77240500D01*
X104035200Y-77240500D02*
X107744700Y-80950000D01*
X107744700Y-78410000D02*
X107744700Y-78128700D01*
X107744700Y-78128700D02*
X101770300Y-72154300D01*
X101770300Y-72154300D02*
X100759200Y-72154300D01*
X100759200Y-72154300D02*
X99674400Y-73239100D01*
X99674400Y-73239100D02*
X99674400Y-78237700D01*
X99674400Y-78237700D02*
X87822100Y-90090000D01*
X87822100Y-90090000D02*
X87115700Y-90090000D01*
X87115700Y-90090000D02*
X73375300Y-103830400D01*
X73375300Y-103830400D02*
X73375300Y-104060000D01*
X108870000Y-78410000D02*
X107744700Y-78410000D01*
X72250000Y-104060000D02*
X73375300Y-104060000D01*
X72250000Y-106600000D02*
X72250000Y-105474700D01*
X72250000Y-105474700D02*
X71968700Y-105474700D01*
X71968700Y-105474700D02*
X71110600Y-104616600D01*
X71110600Y-104616600D02*
X71110600Y-103606200D01*
X71110600Y-103606200D02*
X71992300Y-102724500D01*
X71992300Y-102724500D02*
X72639700Y-102724500D01*
X72639700Y-102724500D02*
X84934900Y-90429300D01*
X84934900Y-90429300D02*
X84934900Y-89765100D01*
X84934900Y-89765100D02*
X87150000Y-87550000D01*
X87150000Y-87550000D02*
X87866400Y-87550000D01*
X87866400Y-87550000D02*
X99132600Y-76283800D01*
X99132600Y-76283800D02*
X99132600Y-71269800D01*
X99132600Y-71269800D02*
X100786000Y-69616400D01*
X100786000Y-69616400D02*
X102616400Y-69616400D01*
X102616400Y-69616400D02*
X108870000Y-75870000D01*
X88615300Y-78660000D02*
X88615300Y-78116400D01*
X88615300Y-78116400D02*
X101025800Y-65705900D01*
X101025800Y-65705900D02*
X104596200Y-65705900D01*
X104596200Y-65705900D02*
X107934700Y-62367400D01*
X107934700Y-62367400D02*
X107934700Y-62000000D01*
X109110000Y-62000000D02*
X107934700Y-62000000D01*
X87490000Y-78660000D02*
X88615300Y-78660000D01*
X101250000Y-68250000D02*
X102375300Y-68250000D01*
X102375300Y-68250000D02*
X103527500Y-67097800D01*
X103527500Y-67097800D02*
X112310200Y-67097800D01*
X112310200Y-67097800D02*
X115763000Y-70550600D01*
X115763000Y-70550600D02*
X115763000Y-79106800D01*
X115763000Y-79106800D02*
X122033200Y-85377000D01*
X122033200Y-85377000D02*
X122033200Y-97583200D01*
X122033200Y-97583200D02*
X123530000Y-99080000D01*
X101250000Y-73330000D02*
X107600000Y-79680000D01*
X107600000Y-79680000D02*
X109246800Y-79680000D01*
X109246800Y-79680000D02*
X110009700Y-80442900D01*
X110009700Y-80442900D02*
X110009700Y-83947700D01*
X110009700Y-83947700D02*
X109197400Y-84760000D01*
X109197400Y-84760000D02*
X108545400Y-84760000D01*
X108545400Y-84760000D02*
X107221900Y-86083500D01*
X107221900Y-86083500D02*
X107221900Y-93621300D01*
X107221900Y-93621300D02*
X108520600Y-94920000D01*
X108520600Y-94920000D02*
X109251300Y-94920000D01*
X109251300Y-94920000D02*
X122301300Y-107970000D01*
X122301300Y-107970000D02*
X123889000Y-107970000D01*
X123889000Y-107970000D02*
X126340000Y-110421000D01*
X126340000Y-110421000D02*
X126340000Y-116000000D01*
X101250000Y-70790000D02*
X102375300Y-70790000D01*
X102375300Y-70790000D02*
X102375300Y-71071300D01*
X102375300Y-71071300D02*
X108444000Y-77140000D01*
X108444000Y-77140000D02*
X109224000Y-77140000D01*
X109224000Y-77140000D02*
X111630800Y-79546800D01*
X111630800Y-79546800D02*
X111630800Y-83913200D01*
X126290000Y-71000000D02*
X126290000Y-69824700D01*
X141750000Y-68000000D02*
X141750000Y-66874700D01*
X141750000Y-66874700D02*
X135699900Y-60824600D01*
X135699900Y-60824600D02*
X134210400Y-60824600D01*
X134210400Y-60824600D02*
X133240000Y-59854200D01*
X133240000Y-59854200D02*
X133240000Y-58971200D01*
X133240000Y-58971200D02*
X132528500Y-58259700D01*
X132528500Y-58259700D02*
X123857600Y-58259700D01*
X123857600Y-58259700D02*
X123080000Y-59037300D01*
X123080000Y-59037300D02*
X123080000Y-66614700D01*
X123080000Y-66614700D02*
X126290000Y-69824700D01*
X126290000Y-71000000D02*
X126290000Y-73540000D01*
X126290000Y-76080000D02*
X126290000Y-78620000D01*
X126290000Y-73540000D02*
X126290000Y-76080000D01*
X123750000Y-77255300D02*
X124117400Y-77255300D01*
X124117400Y-77255300D02*
X124925300Y-78063200D01*
X124925300Y-78063200D02*
X124925300Y-80111300D01*
X124925300Y-80111300D02*
X127570900Y-82756900D01*
X127570900Y-82756900D02*
X127570900Y-85444000D01*
X127570900Y-85444000D02*
X128753300Y-86626400D01*
X128753300Y-86626400D02*
X132147300Y-86626400D01*
X132147300Y-86626400D02*
X134408400Y-84365300D01*
X134408400Y-84365300D02*
X147119400Y-84365300D01*
X147119400Y-84365300D02*
X148244700Y-83240000D01*
X123750000Y-76080000D02*
X123750000Y-77255300D01*
X149370000Y-83240000D02*
X148244700Y-83240000D01*
X132250000Y-71000000D02*
X133425300Y-71000000D01*
X141750000Y-75620000D02*
X140624700Y-75620000D01*
X140624700Y-75620000D02*
X140624700Y-75162800D01*
X140624700Y-75162800D02*
X135286600Y-69824700D01*
X135286600Y-69824700D02*
X134233200Y-69824700D01*
X134233200Y-69824700D02*
X133425300Y-70632600D01*
X133425300Y-70632600D02*
X133425300Y-71000000D01*
X132250000Y-77255300D02*
X132617400Y-77255300D01*
X132617400Y-77255300D02*
X133425300Y-78063200D01*
X133425300Y-78063200D02*
X133425300Y-78953200D01*
X133425300Y-78953200D02*
X135172100Y-80700000D01*
X135172100Y-80700000D02*
X136188000Y-80700000D01*
X132250000Y-76080000D02*
X132250000Y-77255300D01*
X128790000Y-85000000D02*
X129965300Y-85000000D01*
X149370000Y-70540000D02*
X148244700Y-70540000D01*
X148244700Y-70540000D02*
X148244700Y-70821300D01*
X148244700Y-70821300D02*
X142176000Y-76890000D01*
X142176000Y-76890000D02*
X141173200Y-76890000D01*
X141173200Y-76890000D02*
X131887900Y-86175300D01*
X131887900Y-86175300D02*
X130773200Y-86175300D01*
X130773200Y-86175300D02*
X129965300Y-85367400D01*
X129965300Y-85367400D02*
X129965300Y-85000000D01*
X123530000Y-96540000D02*
X123530000Y-97665300D01*
X123530000Y-96540000D02*
X123530000Y-94000000D01*
X123530000Y-105574700D02*
X123811300Y-105574700D01*
X123811300Y-105574700D02*
X124655300Y-104730700D01*
X124655300Y-104730700D02*
X124655300Y-98509200D01*
X124655300Y-98509200D02*
X123811400Y-97665300D01*
X123811400Y-97665300D02*
X123530000Y-97665300D01*
X123530000Y-106700000D02*
X123530000Y-105574700D01*
X126250000Y-85000000D02*
X128326700Y-87076700D01*
X128326700Y-87076700D02*
X129471900Y-87076700D01*
X129471900Y-87076700D02*
X132761600Y-90366400D01*
X132761600Y-90366400D02*
X132761600Y-106784400D01*
X132761600Y-106784400D02*
X131431300Y-108114700D01*
X131431300Y-108114700D02*
X131150000Y-108114700D01*
X131150000Y-109240000D02*
X131150000Y-108114700D01*
X124350000Y-59460000D02*
X124350000Y-60635300D01*
X131330000Y-85000000D02*
X131330000Y-83824700D01*
X131330000Y-83824700D02*
X130154700Y-82649400D01*
X130154700Y-82649400D02*
X130154700Y-68860400D01*
X130154700Y-68860400D02*
X125525300Y-64231000D01*
X125525300Y-64231000D02*
X125525300Y-61443200D01*
X125525300Y-61443200D02*
X124717400Y-60635300D01*
X124717400Y-60635300D02*
X124350000Y-60635300D01*
X131150000Y-106700000D02*
X131150000Y-104160000D01*
X114750000Y-84590000D02*
X114750000Y-83464700D01*
X114750000Y-83464700D02*
X114750000Y-78005300D01*
X114750000Y-78005300D02*
X114500000Y-77755300D01*
X114750000Y-85715300D02*
X120404500Y-91369800D01*
X120404500Y-91369800D02*
X120404500Y-100190600D01*
X120404500Y-100190600D02*
X123248600Y-103034700D01*
X123248600Y-103034700D02*
X123530000Y-103034700D01*
X114750000Y-84590000D02*
X114750000Y-85715300D01*
X123530000Y-104160000D02*
X123530000Y-103034700D01*
X114500000Y-76580000D02*
X114500000Y-77755300D01*
X137560000Y-96820000D02*
X138685300Y-96820000D01*
X140760000Y-93770000D02*
X138685300Y-95844700D01*
X138685300Y-95844700D02*
X138685300Y-96820000D01*
X141500000Y-107210000D02*
X141500000Y-108335300D01*
X141090000Y-110590000D02*
X141090000Y-108745300D01*
X141090000Y-108745300D02*
X141500000Y-108335300D01*
X141500000Y-97050000D02*
X145520000Y-93030000D01*
X145520000Y-93030000D02*
X146990000Y-93030000D01*
D23*
G36*
X159290001Y-124290000D02*
G01*
X60710000Y-124290000D01*
X60710000Y-120279872D01*
X63265000Y-120279872D01*
X63265000Y-120720128D01*
X63350890Y-121151925D01*
X63519369Y-121558669D01*
X63763962Y-121924729D01*
X64075271Y-122236038D01*
X64441331Y-122480631D01*
X64848075Y-122649110D01*
X65279872Y-122735000D01*
X65720128Y-122735000D01*
X66151925Y-122649110D01*
X66558669Y-122480631D01*
X66924729Y-122236038D01*
X67236038Y-121924729D01*
X67480631Y-121558669D01*
X67649110Y-121151925D01*
X67735000Y-120720128D01*
X67735000Y-120279872D01*
X67649110Y-119848075D01*
X67480631Y-119441331D01*
X67236038Y-119075271D01*
X66924729Y-118763962D01*
X66558669Y-118519369D01*
X66151925Y-118350890D01*
X65720128Y-118265000D01*
X65279872Y-118265000D01*
X64848075Y-118350890D01*
X64441331Y-118519369D01*
X64075271Y-118763962D01*
X63763962Y-119075271D01*
X63519369Y-119441331D01*
X63350890Y-119848075D01*
X63265000Y-120279872D01*
X60710000Y-120279872D01*
X60710000Y-66805100D01*
X62271024Y-66805100D01*
X62274700Y-66842422D01*
X62274701Y-75439468D01*
X62271024Y-75476800D01*
X62274701Y-75514133D01*
X62285698Y-75625786D01*
X62294780Y-75655725D01*
X62329154Y-75769046D01*
X62399726Y-75901076D01*
X62470901Y-75987802D01*
X62494700Y-76016801D01*
X62523698Y-76040599D01*
X63034559Y-76551461D01*
X62969294Y-76630986D01*
X62831401Y-76888966D01*
X62746487Y-77168889D01*
X62717815Y-77460000D01*
X62746487Y-77751111D01*
X62831401Y-78031034D01*
X62969294Y-78289014D01*
X63154866Y-78515134D01*
X63380986Y-78700706D01*
X63435791Y-78730000D01*
X63380986Y-78759294D01*
X63154866Y-78944866D01*
X62969294Y-79170986D01*
X62831401Y-79428966D01*
X62746487Y-79708889D01*
X62717815Y-80000000D01*
X62746487Y-80291111D01*
X62831401Y-80571034D01*
X62969294Y-80829014D01*
X63154866Y-81055134D01*
X63380986Y-81240706D01*
X63638966Y-81378599D01*
X63918889Y-81463513D01*
X64137050Y-81485000D01*
X64282950Y-81485000D01*
X64501111Y-81463513D01*
X64781034Y-81378599D01*
X64814701Y-81360604D01*
X64814700Y-91423378D01*
X64811024Y-91460700D01*
X64814700Y-91498022D01*
X64814700Y-91498032D01*
X64825697Y-91609685D01*
X64858533Y-91717932D01*
X64869154Y-91752946D01*
X64939726Y-91884976D01*
X64967250Y-91918514D01*
X65034699Y-92000701D01*
X65063703Y-92024504D01*
X71126357Y-98087159D01*
X71051068Y-98178899D01*
X70917818Y-98428192D01*
X70835764Y-98698691D01*
X70808057Y-98980000D01*
X70835764Y-99261309D01*
X70917818Y-99531808D01*
X71051068Y-99781101D01*
X71172424Y-99928974D01*
X69698903Y-101402496D01*
X69669899Y-101426299D01*
X69614771Y-101493474D01*
X69574926Y-101542024D01*
X69507063Y-101668986D01*
X69504354Y-101674054D01*
X69460897Y-101817315D01*
X69449900Y-101928968D01*
X69449900Y-101928978D01*
X69446224Y-101966300D01*
X69449900Y-102003623D01*
X69449901Y-108707268D01*
X69446224Y-108744600D01*
X69449901Y-108781933D01*
X69460898Y-108893586D01*
X69461008Y-108893947D01*
X69504354Y-109036846D01*
X69574926Y-109168876D01*
X69630567Y-109236674D01*
X69669900Y-109284601D01*
X69698898Y-109308399D01*
X71149481Y-110758983D01*
X71051068Y-110878899D01*
X70917818Y-111128192D01*
X70835764Y-111398691D01*
X70808057Y-111680000D01*
X70835764Y-111961309D01*
X70917818Y-112231808D01*
X71051068Y-112481101D01*
X71230392Y-112699608D01*
X71448899Y-112878932D01*
X71581858Y-112950000D01*
X71448899Y-113021068D01*
X71230392Y-113200392D01*
X71051068Y-113418899D01*
X70917818Y-113668192D01*
X70835764Y-113938691D01*
X70808057Y-114220000D01*
X70835764Y-114501309D01*
X70917818Y-114771808D01*
X71051068Y-115021101D01*
X71230392Y-115239608D01*
X71448899Y-115418932D01*
X71581858Y-115490000D01*
X71448899Y-115561068D01*
X71230392Y-115740392D01*
X71051068Y-115958899D01*
X70917818Y-116208192D01*
X70835764Y-116478691D01*
X70808057Y-116760000D01*
X70835764Y-117041309D01*
X70917818Y-117311808D01*
X71051068Y-117561101D01*
X71230392Y-117779608D01*
X71448899Y-117958932D01*
X71698192Y-118092182D01*
X71968691Y-118174236D01*
X72179508Y-118195000D01*
X72320492Y-118195000D01*
X72531309Y-118174236D01*
X72801808Y-118092182D01*
X73051101Y-117958932D01*
X73269608Y-117779608D01*
X73448932Y-117561101D01*
X73582182Y-117311808D01*
X73664236Y-117041309D01*
X73691943Y-116760000D01*
X73664236Y-116478691D01*
X73582182Y-116208192D01*
X73448932Y-115958899D01*
X73269608Y-115740392D01*
X73051101Y-115561068D01*
X72918142Y-115490000D01*
X73051101Y-115418932D01*
X73269608Y-115239608D01*
X73448932Y-115021101D01*
X73582182Y-114771808D01*
X73664236Y-114501309D01*
X73691943Y-114220000D01*
X73664236Y-113938691D01*
X73582182Y-113668192D01*
X73448932Y-113418899D01*
X73269608Y-113200392D01*
X73051101Y-113021068D01*
X72918142Y-112950000D01*
X73051101Y-112878932D01*
X73269608Y-112699608D01*
X73448932Y-112481101D01*
X73582182Y-112231808D01*
X73664236Y-111961309D01*
X73691943Y-111680000D01*
X73664236Y-111398691D01*
X73594864Y-111170000D01*
X75640199Y-111170000D01*
X84572401Y-120102203D01*
X84596199Y-120131201D01*
X84625197Y-120154999D01*
X84711924Y-120226174D01*
X84843953Y-120296746D01*
X84987214Y-120340203D01*
X85136200Y-120354877D01*
X85173533Y-120351200D01*
X99011928Y-120351200D01*
X99011928Y-122900000D01*
X99024188Y-123024482D01*
X99060498Y-123144180D01*
X99119463Y-123254494D01*
X99198815Y-123351185D01*
X99295506Y-123430537D01*
X99405820Y-123489502D01*
X99525518Y-123525812D01*
X99650000Y-123538072D01*
X100850000Y-123538072D01*
X100974482Y-123525812D01*
X101094180Y-123489502D01*
X101204494Y-123430537D01*
X101301185Y-123351185D01*
X101380537Y-123254494D01*
X101439502Y-123144180D01*
X101475812Y-123024482D01*
X101488072Y-122900000D01*
X101488072Y-121700000D01*
X104961928Y-121700000D01*
X104961928Y-122900000D01*
X104974188Y-123024482D01*
X105010498Y-123144180D01*
X105069463Y-123254494D01*
X105148815Y-123351185D01*
X105245506Y-123430537D01*
X105355820Y-123489502D01*
X105475518Y-123525812D01*
X105600000Y-123538072D01*
X108400000Y-123538072D01*
X108524482Y-123525812D01*
X108644180Y-123489502D01*
X108754494Y-123430537D01*
X108851185Y-123351185D01*
X108930537Y-123254494D01*
X108989502Y-123144180D01*
X109025812Y-123024482D01*
X109038072Y-122900000D01*
X109038072Y-121700000D01*
X109025812Y-121575518D01*
X108989502Y-121455820D01*
X108930537Y-121345506D01*
X108851185Y-121248815D01*
X108754494Y-121169463D01*
X108644180Y-121110498D01*
X108524482Y-121074188D01*
X108400000Y-121061928D01*
X105600000Y-121061928D01*
X105475518Y-121074188D01*
X105355820Y-121110498D01*
X105245506Y-121169463D01*
X105148815Y-121248815D01*
X105069463Y-121345506D01*
X105010498Y-121455820D01*
X104974188Y-121575518D01*
X104961928Y-121700000D01*
X101488072Y-121700000D01*
X101488072Y-120351200D01*
X112511928Y-120351200D01*
X112511928Y-122900000D01*
X112524188Y-123024482D01*
X112560498Y-123144180D01*
X112619463Y-123254494D01*
X112698815Y-123351185D01*
X112795506Y-123430537D01*
X112905820Y-123489502D01*
X113025518Y-123525812D01*
X113150000Y-123538072D01*
X114350000Y-123538072D01*
X114474482Y-123525812D01*
X114594180Y-123489502D01*
X114704494Y-123430537D01*
X114801185Y-123351185D01*
X114880537Y-123254494D01*
X114939502Y-123144180D01*
X114975812Y-123024482D01*
X114988072Y-122900000D01*
X114988072Y-120351200D01*
X124403578Y-120351200D01*
X124440900Y-120354876D01*
X124478222Y-120351200D01*
X124478233Y-120351200D01*
X124589886Y-120340203D01*
X124733147Y-120296746D01*
X124764715Y-120279872D01*
X152265000Y-120279872D01*
X152265000Y-120720128D01*
X152350890Y-121151925D01*
X152519369Y-121558669D01*
X152763962Y-121924729D01*
X153075271Y-122236038D01*
X153441331Y-122480631D01*
X153848075Y-122649110D01*
X154279872Y-122735000D01*
X154720128Y-122735000D01*
X155151925Y-122649110D01*
X155558669Y-122480631D01*
X155924729Y-122236038D01*
X156236038Y-121924729D01*
X156480631Y-121558669D01*
X156649110Y-121151925D01*
X156735000Y-120720128D01*
X156735000Y-120279872D01*
X156649110Y-119848075D01*
X156480631Y-119441331D01*
X156236038Y-119075271D01*
X155924729Y-118763962D01*
X155558669Y-118519369D01*
X155151925Y-118350890D01*
X154720128Y-118265000D01*
X154279872Y-118265000D01*
X153848075Y-118350890D01*
X153441331Y-118519369D01*
X153075271Y-118763962D01*
X152763962Y-119075271D01*
X152519369Y-119441331D01*
X152350890Y-119848075D01*
X152265000Y-120279872D01*
X124764715Y-120279872D01*
X124865176Y-120226174D01*
X124980901Y-120131201D01*
X125004704Y-120102197D01*
X127949491Y-117157411D01*
X128050986Y-117240706D01*
X128308966Y-117378599D01*
X128588889Y-117463513D01*
X128807050Y-117485000D01*
X128952950Y-117485000D01*
X129171111Y-117463513D01*
X129451034Y-117378599D01*
X129709014Y-117240706D01*
X129935134Y-117055134D01*
X130120706Y-116829014D01*
X130150000Y-116774209D01*
X130179294Y-116829014D01*
X130364866Y-117055134D01*
X130590986Y-117240706D01*
X130848966Y-117378599D01*
X131128889Y-117463513D01*
X131347050Y-117485000D01*
X131492950Y-117485000D01*
X131711111Y-117463513D01*
X131991034Y-117378599D01*
X132249014Y-117240706D01*
X132475134Y-117055134D01*
X132660706Y-116829014D01*
X132690000Y-116774209D01*
X132719294Y-116829014D01*
X132904866Y-117055134D01*
X133130986Y-117240706D01*
X133388966Y-117378599D01*
X133668889Y-117463513D01*
X133887050Y-117485000D01*
X134032950Y-117485000D01*
X134251111Y-117463513D01*
X134531034Y-117378599D01*
X134789014Y-117240706D01*
X135015134Y-117055134D01*
X135039607Y-117025313D01*
X135060498Y-117094180D01*
X135119463Y-117204494D01*
X135198815Y-117301185D01*
X135295506Y-117380537D01*
X135405820Y-117439502D01*
X135525518Y-117475812D01*
X135650000Y-117488072D01*
X136214250Y-117485000D01*
X136373000Y-117326250D01*
X136373000Y-116127000D01*
X136627000Y-116127000D01*
X136627000Y-117326250D01*
X136785750Y-117485000D01*
X137350000Y-117488072D01*
X137474482Y-117475812D01*
X137594180Y-117439502D01*
X137704494Y-117380537D01*
X137801185Y-117301185D01*
X137880537Y-117204494D01*
X137939502Y-117094180D01*
X137975812Y-116974482D01*
X137988072Y-116850000D01*
X137985000Y-116285750D01*
X137826250Y-116127000D01*
X136627000Y-116127000D01*
X136373000Y-116127000D01*
X136353000Y-116127000D01*
X136353000Y-115873000D01*
X136373000Y-115873000D01*
X136373000Y-114673750D01*
X136627000Y-114673750D01*
X136627000Y-115873000D01*
X137826250Y-115873000D01*
X137985000Y-115714250D01*
X137988072Y-115150000D01*
X137975812Y-115025518D01*
X137939502Y-114905820D01*
X137880537Y-114795506D01*
X137801185Y-114698815D01*
X137704494Y-114619463D01*
X137594180Y-114560498D01*
X137474482Y-114524188D01*
X137350000Y-114511928D01*
X136785750Y-114515000D01*
X136627000Y-114673750D01*
X136373000Y-114673750D01*
X136214250Y-114515000D01*
X135650000Y-114511928D01*
X135525518Y-114524188D01*
X135405820Y-114560498D01*
X135295506Y-114619463D01*
X135198815Y-114698815D01*
X135119463Y-114795506D01*
X135060498Y-114905820D01*
X135039607Y-114974687D01*
X135015134Y-114944866D01*
X134789014Y-114759294D01*
X134531034Y-114621401D01*
X134251111Y-114536487D01*
X134032950Y-114515000D01*
X133887050Y-114515000D01*
X133668889Y-114536487D01*
X133388966Y-114621401D01*
X133130986Y-114759294D01*
X132904866Y-114944866D01*
X132719294Y-115170986D01*
X132690000Y-115225791D01*
X132660706Y-115170986D01*
X132475134Y-114944866D01*
X132249014Y-114759294D01*
X131991034Y-114621401D01*
X131711111Y-114536487D01*
X131492950Y-114515000D01*
X131347050Y-114515000D01*
X131128889Y-114536487D01*
X130848966Y-114621401D01*
X130590986Y-114759294D01*
X130364866Y-114944866D01*
X130179294Y-115170986D01*
X130150000Y-115225791D01*
X130120706Y-115170986D01*
X129935134Y-114944866D01*
X129709014Y-114759294D01*
X129451034Y-114621401D01*
X129413336Y-114609965D01*
X132440599Y-111582702D01*
X137776903Y-111582702D01*
X137848486Y-111826671D01*
X138103996Y-111947571D01*
X138378184Y-112016300D01*
X138660512Y-112030217D01*
X138940130Y-111988787D01*
X139206292Y-111893603D01*
X139331514Y-111826671D01*
X139403097Y-111582702D01*
X138590000Y-110769605D01*
X137776903Y-111582702D01*
X132440599Y-111582702D01*
X133362789Y-110660512D01*
X137149783Y-110660512D01*
X137191213Y-110940130D01*
X137286397Y-111206292D01*
X137353329Y-111331514D01*
X137597298Y-111403097D01*
X138410395Y-110590000D01*
X138769605Y-110590000D01*
X139582702Y-111403097D01*
X139826671Y-111331514D01*
X139840324Y-111302659D01*
X139975363Y-111504759D01*
X140175241Y-111704637D01*
X140410273Y-111861680D01*
X140671426Y-111969853D01*
X140948665Y-112025000D01*
X141231335Y-112025000D01*
X141508574Y-111969853D01*
X141769727Y-111861680D01*
X142004759Y-111704637D01*
X142204637Y-111504759D01*
X142361680Y-111269727D01*
X142469853Y-111008574D01*
X142525000Y-110731335D01*
X142525000Y-110448665D01*
X142469853Y-110171426D01*
X142361680Y-109910273D01*
X142204637Y-109675241D01*
X142004759Y-109475363D01*
X141850000Y-109371957D01*
X141850000Y-109060101D01*
X142010997Y-108899104D01*
X142040001Y-108875301D01*
X142134974Y-108759576D01*
X142205546Y-108627547D01*
X142249003Y-108484286D01*
X142253942Y-108434139D01*
X142301101Y-108408932D01*
X142519608Y-108229608D01*
X142698932Y-108011101D01*
X142832182Y-107761808D01*
X142914236Y-107491309D01*
X142934063Y-107290000D01*
X146877089Y-107290000D01*
X146908657Y-107610516D01*
X147002148Y-107918715D01*
X147153969Y-108202752D01*
X147358286Y-108451714D01*
X147607248Y-108656031D01*
X147891285Y-108807852D01*
X148199484Y-108901343D01*
X148439678Y-108925000D01*
X149600322Y-108925000D01*
X149840516Y-108901343D01*
X150148715Y-108807852D01*
X150432752Y-108656031D01*
X150681714Y-108451714D01*
X150886031Y-108202752D01*
X151037852Y-107918715D01*
X151131343Y-107610516D01*
X151162911Y-107290000D01*
X151131343Y-106969484D01*
X151037852Y-106661285D01*
X150911555Y-106425000D01*
X151300322Y-106425000D01*
X151540516Y-106401343D01*
X151848715Y-106307852D01*
X152132752Y-106156031D01*
X152381714Y-105951714D01*
X152586031Y-105702752D01*
X152737852Y-105418715D01*
X152831343Y-105110516D01*
X152862911Y-104790000D01*
X152831343Y-104469484D01*
X152737852Y-104161285D01*
X152586031Y-103877248D01*
X152381714Y-103628286D01*
X152132752Y-103423969D01*
X151848715Y-103272148D01*
X151540516Y-103178657D01*
X151300322Y-103155000D01*
X150139678Y-103155000D01*
X149899484Y-103178657D01*
X149591285Y-103272148D01*
X149307248Y-103423969D01*
X149058286Y-103628286D01*
X148853969Y-103877248D01*
X148702148Y-104161285D01*
X148608657Y-104469484D01*
X148577089Y-104790000D01*
X148608657Y-105110516D01*
X148702148Y-105418715D01*
X148828445Y-105655000D01*
X148439678Y-105655000D01*
X148199484Y-105678657D01*
X147891285Y-105772148D01*
X147607248Y-105923969D01*
X147358286Y-106128286D01*
X147153969Y-106377248D01*
X147002148Y-106661285D01*
X146908657Y-106969484D01*
X146877089Y-107290000D01*
X142934063Y-107290000D01*
X142941943Y-107210000D01*
X142914236Y-106928691D01*
X142832182Y-106658192D01*
X142698932Y-106408899D01*
X142519608Y-106190392D01*
X142301101Y-106011068D01*
X142051808Y-105877818D01*
X141781309Y-105795764D01*
X141570492Y-105775000D01*
X141429508Y-105775000D01*
X141218691Y-105795764D01*
X140948192Y-105877818D01*
X140698899Y-106011068D01*
X140480392Y-106190392D01*
X140301068Y-106408899D01*
X140167818Y-106658192D01*
X140085764Y-106928691D01*
X140058057Y-107210000D01*
X140085764Y-107491309D01*
X140167818Y-107761808D01*
X140301068Y-108011101D01*
X140480392Y-108229608D01*
X140510065Y-108253960D01*
X140455026Y-108321024D01*
X140384454Y-108453054D01*
X140363782Y-108521203D01*
X140340998Y-108596314D01*
X140335247Y-108654701D01*
X140326324Y-108745300D01*
X140330001Y-108782632D01*
X140330001Y-109371956D01*
X140175241Y-109475363D01*
X139975363Y-109675241D01*
X139841308Y-109875869D01*
X139826671Y-109848486D01*
X139582702Y-109776903D01*
X138769605Y-110590000D01*
X138410395Y-110590000D01*
X137597298Y-109776903D01*
X137353329Y-109848486D01*
X137232429Y-110103996D01*
X137163700Y-110378184D01*
X137149783Y-110660512D01*
X133362789Y-110660512D01*
X134426003Y-109597298D01*
X137776903Y-109597298D01*
X138590000Y-110410395D01*
X139403097Y-109597298D01*
X139331514Y-109353329D01*
X139076004Y-109232429D01*
X138801816Y-109163700D01*
X138519488Y-109149783D01*
X138239870Y-109191213D01*
X137973708Y-109286397D01*
X137848486Y-109353329D01*
X137776903Y-109597298D01*
X134426003Y-109597298D01*
X136318463Y-107704839D01*
X136445363Y-107894759D01*
X136645241Y-108094637D01*
X136880273Y-108251680D01*
X137141426Y-108359853D01*
X137418665Y-108415000D01*
X137701335Y-108415000D01*
X137978574Y-108359853D01*
X138239727Y-108251680D01*
X138474759Y-108094637D01*
X138674637Y-107894759D01*
X138831680Y-107659727D01*
X138939853Y-107398574D01*
X138995000Y-107121335D01*
X138995000Y-106838665D01*
X138939853Y-106561426D01*
X138831680Y-106300273D01*
X138674637Y-106065241D01*
X138474759Y-105865363D01*
X138239727Y-105708320D01*
X137978574Y-105600147D01*
X137701335Y-105545000D01*
X137418665Y-105545000D01*
X137141426Y-105600147D01*
X137095400Y-105619212D01*
X137095400Y-102017000D01*
X155885000Y-102017000D01*
X155885000Y-102517000D01*
X155941193Y-102833532D01*
X156058058Y-103133020D01*
X156231105Y-103403954D01*
X156453683Y-103635922D01*
X156717239Y-103820010D01*
X157011645Y-103949144D01*
X157139566Y-103980124D01*
X157393000Y-103860777D01*
X157393000Y-102017000D01*
X157647000Y-102017000D01*
X157647000Y-103860777D01*
X157900434Y-103980124D01*
X158028355Y-103949144D01*
X158322761Y-103820010D01*
X158586317Y-103635922D01*
X158808895Y-103403954D01*
X158981942Y-103133020D01*
X159098807Y-102833532D01*
X159155000Y-102517000D01*
X159155000Y-102017000D01*
X157647000Y-102017000D01*
X157393000Y-102017000D01*
X155885000Y-102017000D01*
X137095400Y-102017000D01*
X137095400Y-101263000D01*
X155885000Y-101263000D01*
X155885000Y-101763000D01*
X157393000Y-101763000D01*
X157393000Y-99919223D01*
X157647000Y-99919223D01*
X157647000Y-101763000D01*
X159155000Y-101763000D01*
X159155000Y-101263000D01*
X159098807Y-100946468D01*
X158981942Y-100646980D01*
X158808895Y-100376046D01*
X158586317Y-100144078D01*
X158322761Y-99959990D01*
X158028355Y-99830856D01*
X157900434Y-99799876D01*
X157647000Y-99919223D01*
X157393000Y-99919223D01*
X157139566Y-99799876D01*
X157011645Y-99830856D01*
X156717239Y-99959990D01*
X156453683Y-100144078D01*
X156231105Y-100376046D01*
X156058058Y-100646980D01*
X155941193Y-100946468D01*
X155885000Y-101263000D01*
X137095400Y-101263000D01*
X137095400Y-98178636D01*
X137278691Y-98234236D01*
X137489508Y-98255000D01*
X137630492Y-98255000D01*
X137841309Y-98234236D01*
X138111808Y-98152182D01*
X138361101Y-98018932D01*
X138579608Y-97839608D01*
X138758932Y-97621101D01*
X138784139Y-97573942D01*
X138834286Y-97569003D01*
X138977547Y-97525546D01*
X139109576Y-97454974D01*
X139225301Y-97360001D01*
X139320274Y-97244276D01*
X139390846Y-97112247D01*
X139434303Y-96968986D01*
X139440244Y-96908665D01*
X140065000Y-96908665D01*
X140065000Y-97191335D01*
X140120147Y-97468574D01*
X140228320Y-97729727D01*
X140385363Y-97964759D01*
X140585241Y-98164637D01*
X140820273Y-98321680D01*
X141081426Y-98429853D01*
X141358665Y-98485000D01*
X141641335Y-98485000D01*
X141918574Y-98429853D01*
X142179727Y-98321680D01*
X142414759Y-98164637D01*
X142614637Y-97964759D01*
X142771680Y-97729727D01*
X142879853Y-97468574D01*
X142935000Y-97191335D01*
X142935000Y-97009678D01*
X144585000Y-97009678D01*
X144585000Y-98170321D01*
X144608657Y-98410515D01*
X144702148Y-98718714D01*
X144853969Y-99002751D01*
X145058286Y-99251714D01*
X145307248Y-99456031D01*
X145591285Y-99607852D01*
X145899484Y-99701343D01*
X146220000Y-99732911D01*
X146540515Y-99701343D01*
X146848714Y-99607852D01*
X147132751Y-99456031D01*
X147381714Y-99251714D01*
X147586031Y-99002752D01*
X147737852Y-98718715D01*
X147831343Y-98410516D01*
X147855000Y-98170322D01*
X147855000Y-97390000D01*
X151877089Y-97390000D01*
X151908657Y-97710516D01*
X152002148Y-98018715D01*
X152153969Y-98302752D01*
X152358286Y-98551714D01*
X152607248Y-98756031D01*
X152891285Y-98907852D01*
X153199484Y-99001343D01*
X153439678Y-99025000D01*
X154600322Y-99025000D01*
X154840516Y-99001343D01*
X155148715Y-98907852D01*
X155432752Y-98756031D01*
X155681714Y-98551714D01*
X155886031Y-98302752D01*
X156037852Y-98018715D01*
X156131343Y-97710516D01*
X156162911Y-97390000D01*
X156131343Y-97069484D01*
X156037852Y-96761285D01*
X155886031Y-96477248D01*
X155681714Y-96228286D01*
X155432752Y-96023969D01*
X155148715Y-95872148D01*
X154840516Y-95778657D01*
X154600322Y-95755000D01*
X153439678Y-95755000D01*
X153199484Y-95778657D01*
X152891285Y-95872148D01*
X152607248Y-96023969D01*
X152358286Y-96228286D01*
X152153969Y-96477248D01*
X152002148Y-96761285D01*
X151908657Y-97069484D01*
X151877089Y-97390000D01*
X147855000Y-97390000D01*
X147855000Y-97009678D01*
X147831343Y-96769484D01*
X147737852Y-96461285D01*
X147586031Y-96177248D01*
X147381714Y-95928286D01*
X147132752Y-95723969D01*
X146848715Y-95572148D01*
X146540516Y-95478657D01*
X146220000Y-95447089D01*
X145899485Y-95478657D01*
X145591286Y-95572148D01*
X145307249Y-95723969D01*
X145058287Y-95928286D01*
X144853970Y-96177248D01*
X144702148Y-96461285D01*
X144608657Y-96769484D01*
X144585000Y-97009678D01*
X142935000Y-97009678D01*
X142935000Y-96908665D01*
X142898688Y-96726113D01*
X145797129Y-93827673D01*
X145875363Y-93944759D01*
X146075241Y-94144637D01*
X146310273Y-94301680D01*
X146571426Y-94409853D01*
X146848665Y-94465000D01*
X147131335Y-94465000D01*
X147408574Y-94409853D01*
X147669727Y-94301680D01*
X147904759Y-94144637D01*
X148104637Y-93944759D01*
X148261680Y-93709727D01*
X148369853Y-93448574D01*
X148383684Y-93379039D01*
X155758096Y-93379039D01*
X155798754Y-93513087D01*
X155918963Y-93767420D01*
X156086481Y-93993414D01*
X156294869Y-94182385D01*
X156536119Y-94327070D01*
X156800960Y-94421909D01*
X157023000Y-94300624D01*
X157023000Y-93157000D01*
X157277000Y-93157000D01*
X157277000Y-94300624D01*
X157499040Y-94421909D01*
X157763881Y-94327070D01*
X158005131Y-94182385D01*
X158213519Y-93993414D01*
X158381037Y-93767420D01*
X158501246Y-93513087D01*
X158541904Y-93379039D01*
X158419915Y-93157000D01*
X157277000Y-93157000D01*
X157023000Y-93157000D01*
X155880085Y-93157000D01*
X155758096Y-93379039D01*
X148383684Y-93379039D01*
X148425000Y-93171335D01*
X148425000Y-92888665D01*
X148383685Y-92680961D01*
X155758096Y-92680961D01*
X155880085Y-92903000D01*
X157023000Y-92903000D01*
X157023000Y-91759376D01*
X157277000Y-91759376D01*
X157277000Y-92903000D01*
X158419915Y-92903000D01*
X158541904Y-92680961D01*
X158501246Y-92546913D01*
X158381037Y-92292580D01*
X158213519Y-92066586D01*
X158005131Y-91877615D01*
X157763881Y-91732930D01*
X157499040Y-91638091D01*
X157277000Y-91759376D01*
X157023000Y-91759376D01*
X156800960Y-91638091D01*
X156536119Y-91732930D01*
X156294869Y-91877615D01*
X156086481Y-92066586D01*
X155918963Y-92292580D01*
X155798754Y-92546913D01*
X155758096Y-92680961D01*
X148383685Y-92680961D01*
X148369853Y-92611426D01*
X148261680Y-92350273D01*
X148104637Y-92115241D01*
X147904759Y-91915363D01*
X147669727Y-91758320D01*
X147408574Y-91650147D01*
X147131335Y-91595000D01*
X146848665Y-91595000D01*
X146571426Y-91650147D01*
X146310273Y-91758320D01*
X146075241Y-91915363D01*
X145875363Y-92115241D01*
X145771957Y-92270000D01*
X145557333Y-92270000D01*
X145520000Y-92266323D01*
X145482667Y-92270000D01*
X145371014Y-92280997D01*
X145227753Y-92324454D01*
X145095724Y-92395026D01*
X144979999Y-92489999D01*
X144956201Y-92518997D01*
X141823887Y-95651312D01*
X141641335Y-95615000D01*
X141358665Y-95615000D01*
X141081426Y-95670147D01*
X140820273Y-95778320D01*
X140585241Y-95935363D01*
X140385363Y-96135241D01*
X140228320Y-96370273D01*
X140120147Y-96631426D01*
X140065000Y-96908665D01*
X139440244Y-96908665D01*
X139445300Y-96857333D01*
X139448977Y-96820000D01*
X139445300Y-96782667D01*
X139445300Y-96159501D01*
X140436114Y-95168688D01*
X140618665Y-95205000D01*
X140901335Y-95205000D01*
X141178574Y-95149853D01*
X141439727Y-95041680D01*
X141674759Y-94884637D01*
X141874637Y-94684759D01*
X142031680Y-94449727D01*
X142139853Y-94188574D01*
X142195000Y-93911335D01*
X142195000Y-93628665D01*
X142139853Y-93351426D01*
X142031680Y-93090273D01*
X141874637Y-92855241D01*
X141674759Y-92655363D01*
X141439727Y-92498320D01*
X141178574Y-92390147D01*
X140901335Y-92335000D01*
X140618665Y-92335000D01*
X140341426Y-92390147D01*
X140080273Y-92498320D01*
X139845241Y-92655363D01*
X139645363Y-92855241D01*
X139510000Y-93057827D01*
X139374637Y-92855241D01*
X139174759Y-92655363D01*
X138939727Y-92498320D01*
X138678574Y-92390147D01*
X138401335Y-92335000D01*
X138118665Y-92335000D01*
X137841426Y-92390147D01*
X137580273Y-92498320D01*
X137345241Y-92655363D01*
X137145363Y-92855241D01*
X136988320Y-93090273D01*
X136880147Y-93351426D01*
X136825000Y-93628665D01*
X136825000Y-93911335D01*
X136861312Y-94093886D01*
X135824398Y-95130801D01*
X135795400Y-95154599D01*
X135771602Y-95183597D01*
X135771601Y-95183598D01*
X135700426Y-95270324D01*
X135629854Y-95402354D01*
X135612027Y-95461124D01*
X135586398Y-95545614D01*
X135581716Y-95593153D01*
X135571724Y-95694600D01*
X135575401Y-95731932D01*
X135575400Y-106298298D01*
X132587381Y-109286317D01*
X132591943Y-109240000D01*
X132564236Y-108958691D01*
X132482182Y-108688192D01*
X132348932Y-108438899D01*
X132273643Y-108347159D01*
X133272603Y-107348199D01*
X133301601Y-107324401D01*
X133396574Y-107208676D01*
X133467146Y-107076647D01*
X133510603Y-106933386D01*
X133521600Y-106821733D01*
X133521600Y-106821724D01*
X133525276Y-106784401D01*
X133521600Y-106747078D01*
X133521600Y-90403722D01*
X133525276Y-90366399D01*
X133521600Y-90329076D01*
X133521600Y-90329067D01*
X133510603Y-90217414D01*
X133467146Y-90074153D01*
X133396574Y-89942124D01*
X133301601Y-89826399D01*
X133272604Y-89802602D01*
X130856401Y-87386400D01*
X132109978Y-87386400D01*
X132147300Y-87390076D01*
X132184622Y-87386400D01*
X132184633Y-87386400D01*
X132296286Y-87375403D01*
X132439547Y-87331946D01*
X132571576Y-87261374D01*
X132687301Y-87166401D01*
X132711104Y-87137397D01*
X133719462Y-86129039D01*
X140358096Y-86129039D01*
X140398754Y-86263087D01*
X140518963Y-86517420D01*
X140686481Y-86743414D01*
X140894869Y-86932385D01*
X141136119Y-87077070D01*
X141400960Y-87171909D01*
X141623000Y-87050624D01*
X141623000Y-85907000D01*
X141877000Y-85907000D01*
X141877000Y-87050624D01*
X142099040Y-87171909D01*
X142363881Y-87077070D01*
X142605131Y-86932385D01*
X142813519Y-86743414D01*
X142981037Y-86517420D01*
X143101246Y-86263087D01*
X143141904Y-86129039D01*
X143019915Y-85907000D01*
X141877000Y-85907000D01*
X141623000Y-85907000D01*
X140480085Y-85907000D01*
X140358096Y-86129039D01*
X133719462Y-86129039D01*
X134723202Y-85125300D01*
X140479866Y-85125300D01*
X140398754Y-85296913D01*
X140358096Y-85430961D01*
X140480085Y-85653000D01*
X141623000Y-85653000D01*
X141623000Y-85633000D01*
X141877000Y-85633000D01*
X141877000Y-85653000D01*
X143019915Y-85653000D01*
X143141904Y-85430961D01*
X143101246Y-85296913D01*
X143020134Y-85125300D01*
X147082078Y-85125300D01*
X147119400Y-85128976D01*
X147156722Y-85125300D01*
X147156733Y-85125300D01*
X147268386Y-85114303D01*
X147411647Y-85070846D01*
X147543676Y-85000274D01*
X147659401Y-84905301D01*
X147683204Y-84876298D01*
X148327630Y-84231872D01*
X148350392Y-84259608D01*
X148568899Y-84438932D01*
X148701858Y-84510000D01*
X148568899Y-84581068D01*
X148350392Y-84760392D01*
X148171068Y-84978899D01*
X148037818Y-85228192D01*
X147955764Y-85498691D01*
X147928057Y-85780000D01*
X147955764Y-86061309D01*
X148037818Y-86331808D01*
X148171068Y-86581101D01*
X148350392Y-86799608D01*
X148568899Y-86978932D01*
X148818192Y-87112182D01*
X149088691Y-87194236D01*
X149299508Y-87215000D01*
X149440492Y-87215000D01*
X149651309Y-87194236D01*
X149921808Y-87112182D01*
X150171101Y-86978932D01*
X150389608Y-86799608D01*
X150568932Y-86581101D01*
X150702182Y-86331808D01*
X150784236Y-86061309D01*
X150811943Y-85780000D01*
X150784236Y-85498691D01*
X150702182Y-85228192D01*
X150568932Y-84978899D01*
X150389608Y-84760392D01*
X150171101Y-84581068D01*
X150038142Y-84510000D01*
X150171101Y-84438932D01*
X150389608Y-84259608D01*
X150568932Y-84041101D01*
X150702182Y-83791808D01*
X150784236Y-83521309D01*
X150811943Y-83240000D01*
X150784236Y-82958691D01*
X150702182Y-82688192D01*
X150568932Y-82438899D01*
X150389608Y-82220392D01*
X150171101Y-82041068D01*
X150038142Y-81970000D01*
X150171101Y-81898932D01*
X150389608Y-81719608D01*
X150568932Y-81501101D01*
X150702182Y-81251808D01*
X150784236Y-80981309D01*
X150811943Y-80700000D01*
X150784236Y-80418691D01*
X150702182Y-80148192D01*
X150568932Y-79898899D01*
X150389608Y-79680392D01*
X150171101Y-79501068D01*
X150038142Y-79430000D01*
X150171101Y-79358932D01*
X150389608Y-79179608D01*
X150568932Y-78961101D01*
X150702182Y-78711808D01*
X150784236Y-78441309D01*
X150811943Y-78160000D01*
X150784236Y-77878691D01*
X150702182Y-77608192D01*
X150568932Y-77358899D01*
X150389608Y-77140392D01*
X150171101Y-76961068D01*
X150038142Y-76890000D01*
X150171101Y-76818932D01*
X150389608Y-76639608D01*
X150568932Y-76421101D01*
X150702182Y-76171808D01*
X150784236Y-75901309D01*
X150811943Y-75620000D01*
X150784236Y-75338691D01*
X150702182Y-75068192D01*
X150568932Y-74818899D01*
X150389608Y-74600392D01*
X150171101Y-74421068D01*
X150038142Y-74350000D01*
X150171101Y-74278932D01*
X150389608Y-74099608D01*
X150568932Y-73881101D01*
X150702182Y-73631808D01*
X150784236Y-73361309D01*
X150811943Y-73080000D01*
X150784236Y-72798691D01*
X150702182Y-72528192D01*
X150568932Y-72278899D01*
X150389608Y-72060392D01*
X150171101Y-71881068D01*
X150038142Y-71810000D01*
X150171101Y-71738932D01*
X150389608Y-71559608D01*
X150568932Y-71341101D01*
X150702182Y-71091808D01*
X150784236Y-70821309D01*
X150811943Y-70540000D01*
X150784236Y-70258691D01*
X150702182Y-69988192D01*
X150568932Y-69738899D01*
X150389608Y-69520392D01*
X150171101Y-69341068D01*
X150038142Y-69270000D01*
X150171101Y-69198932D01*
X150389608Y-69019608D01*
X150568932Y-68801101D01*
X150702182Y-68551808D01*
X150784236Y-68281309D01*
X150811943Y-68000000D01*
X150784236Y-67718691D01*
X150702182Y-67448192D01*
X150568932Y-67198899D01*
X150389608Y-66980392D01*
X150305000Y-66910956D01*
X150305000Y-66745632D01*
X150309524Y-66699700D01*
X150291471Y-66516408D01*
X150259849Y-66412164D01*
X150350130Y-66398787D01*
X150616292Y-66303603D01*
X150741514Y-66236671D01*
X150813097Y-65992702D01*
X150000000Y-65179605D01*
X149985858Y-65193748D01*
X149806253Y-65014143D01*
X149820395Y-65000000D01*
X150179605Y-65000000D01*
X150992702Y-65813097D01*
X151236671Y-65741514D01*
X151357571Y-65486004D01*
X151426300Y-65211816D01*
X151440217Y-64929488D01*
X151398787Y-64649870D01*
X151303603Y-64383708D01*
X151236671Y-64258486D01*
X150992702Y-64186903D01*
X150179605Y-65000000D01*
X149820395Y-65000000D01*
X149007298Y-64186903D01*
X148763329Y-64258486D01*
X148749676Y-64287341D01*
X148614637Y-64085241D01*
X148536694Y-64007298D01*
X149186903Y-64007298D01*
X150000000Y-64820395D01*
X150813097Y-64007298D01*
X150741514Y-63763329D01*
X150486004Y-63642429D01*
X150211816Y-63573700D01*
X149929488Y-63559783D01*
X149649870Y-63601213D01*
X149383708Y-63696397D01*
X149258486Y-63763329D01*
X149186903Y-64007298D01*
X148536694Y-64007298D01*
X148414759Y-63885363D01*
X148179727Y-63728320D01*
X147918574Y-63620147D01*
X147641335Y-63565000D01*
X147358665Y-63565000D01*
X147081426Y-63620147D01*
X146820273Y-63728320D01*
X146585241Y-63885363D01*
X146385363Y-64085241D01*
X146228320Y-64320273D01*
X146120147Y-64581426D01*
X146065000Y-64858665D01*
X146065000Y-65141335D01*
X146120147Y-65418574D01*
X146228320Y-65679727D01*
X146385363Y-65914759D01*
X146585241Y-66114637D01*
X146820273Y-66271680D01*
X147081426Y-66379853D01*
X147358665Y-66435000D01*
X147612711Y-66435000D01*
X148263717Y-67086006D01*
X148171068Y-67198899D01*
X148037818Y-67448192D01*
X147955764Y-67718691D01*
X147928057Y-68000000D01*
X147955764Y-68281309D01*
X148037818Y-68551808D01*
X148171068Y-68801101D01*
X148350392Y-69019608D01*
X148568899Y-69198932D01*
X148701858Y-69270000D01*
X148568899Y-69341068D01*
X148350392Y-69520392D01*
X148171068Y-69738899D01*
X148145861Y-69786058D01*
X148095714Y-69790997D01*
X147952453Y-69834454D01*
X147820424Y-69905026D01*
X147704699Y-69999999D01*
X147609726Y-70115724D01*
X147539154Y-70247753D01*
X147495697Y-70391014D01*
X147484281Y-70506917D01*
X143026737Y-74964462D01*
X142948932Y-74818899D01*
X142769608Y-74600392D01*
X142551101Y-74421068D01*
X142418142Y-74350000D01*
X142551101Y-74278932D01*
X142769608Y-74099608D01*
X142948932Y-73881101D01*
X143082182Y-73631808D01*
X143164236Y-73361309D01*
X143191943Y-73080000D01*
X143164236Y-72798691D01*
X143082182Y-72528192D01*
X142948932Y-72278899D01*
X142769608Y-72060392D01*
X142551101Y-71881068D01*
X142418142Y-71810000D01*
X142551101Y-71738932D01*
X142769608Y-71559608D01*
X142948932Y-71341101D01*
X143082182Y-71091808D01*
X143164236Y-70821309D01*
X143191943Y-70540000D01*
X143164236Y-70258691D01*
X143082182Y-69988192D01*
X142948932Y-69738899D01*
X142769608Y-69520392D01*
X142656518Y-69427581D01*
X142674482Y-69425812D01*
X142794180Y-69389502D01*
X142904494Y-69330537D01*
X143001185Y-69251185D01*
X143080537Y-69154494D01*
X143139502Y-69044180D01*
X143175812Y-68924482D01*
X143188072Y-68800000D01*
X143188072Y-67200000D01*
X143175812Y-67075518D01*
X143139502Y-66955820D01*
X143080537Y-66845506D01*
X143001185Y-66748815D01*
X142904494Y-66669463D01*
X142794180Y-66610498D01*
X142674482Y-66574188D01*
X142550000Y-66561928D01*
X142444575Y-66561928D01*
X142384974Y-66450424D01*
X142342597Y-66398787D01*
X142313799Y-66363696D01*
X142313795Y-66363692D01*
X142290001Y-66334699D01*
X142261008Y-66310905D01*
X136263704Y-60313603D01*
X136239901Y-60284599D01*
X136124176Y-60189626D01*
X135992147Y-60119054D01*
X135862562Y-60079746D01*
X135888599Y-60031034D01*
X135973513Y-59751111D01*
X136002185Y-59460000D01*
X135973513Y-59168889D01*
X135888599Y-58888966D01*
X135750706Y-58630986D01*
X135565134Y-58404866D01*
X135339014Y-58219294D01*
X135081034Y-58081401D01*
X134801111Y-57996487D01*
X134582950Y-57975000D01*
X134437050Y-57975000D01*
X134218889Y-57996487D01*
X133938966Y-58081401D01*
X133680986Y-58219294D01*
X133616125Y-58272524D01*
X133092303Y-57748702D01*
X133068501Y-57719699D01*
X132952776Y-57624726D01*
X132820747Y-57554154D01*
X132677486Y-57510697D01*
X132565833Y-57499700D01*
X132565822Y-57499700D01*
X132528500Y-57496024D01*
X132491178Y-57499700D01*
X123894922Y-57499700D01*
X123857599Y-57496024D01*
X123820276Y-57499700D01*
X123820267Y-57499700D01*
X123708614Y-57510697D01*
X123565353Y-57554154D01*
X123433324Y-57624726D01*
X123433322Y-57624727D01*
X123433323Y-57624727D01*
X123346596Y-57695901D01*
X123346592Y-57695905D01*
X123317599Y-57719699D01*
X123293805Y-57748692D01*
X122740180Y-58302319D01*
X122639014Y-58219294D01*
X122381034Y-58081401D01*
X122101111Y-57996487D01*
X121882950Y-57975000D01*
X121737050Y-57975000D01*
X121518889Y-57996487D01*
X121238966Y-58081401D01*
X120980986Y-58219294D01*
X120754866Y-58404866D01*
X120569294Y-58630986D01*
X120540000Y-58685791D01*
X120510706Y-58630986D01*
X120325134Y-58404866D01*
X120099014Y-58219294D01*
X119841034Y-58081401D01*
X119561111Y-57996487D01*
X119342950Y-57975000D01*
X119197050Y-57975000D01*
X118978889Y-57996487D01*
X118698966Y-58081401D01*
X118440986Y-58219294D01*
X118214866Y-58404866D01*
X118029294Y-58630986D01*
X118000000Y-58685791D01*
X117970706Y-58630986D01*
X117785134Y-58404866D01*
X117559014Y-58219294D01*
X117301034Y-58081401D01*
X117021111Y-57996487D01*
X116802950Y-57975000D01*
X116657050Y-57975000D01*
X116438889Y-57996487D01*
X116158966Y-58081401D01*
X115900986Y-58219294D01*
X115821406Y-58284604D01*
X114836404Y-57299603D01*
X114812601Y-57270599D01*
X114696876Y-57175626D01*
X114564847Y-57105054D01*
X114421586Y-57061597D01*
X114309933Y-57050600D01*
X114309922Y-57050600D01*
X114272600Y-57046924D01*
X114235278Y-57050600D01*
X93889625Y-57050600D01*
X93852300Y-57046924D01*
X93814975Y-57050600D01*
X93814967Y-57050600D01*
X93703314Y-57061597D01*
X93560053Y-57105054D01*
X93428024Y-57175626D01*
X93312299Y-57270599D01*
X93288501Y-57299597D01*
X92274241Y-58313858D01*
X92159014Y-58219294D01*
X91901034Y-58081401D01*
X91621111Y-57996487D01*
X91402950Y-57975000D01*
X91257050Y-57975000D01*
X91038889Y-57996487D01*
X90758966Y-58081401D01*
X90500986Y-58219294D01*
X90274866Y-58404866D01*
X90089294Y-58630986D01*
X90054799Y-58695523D01*
X89985178Y-58578645D01*
X89790269Y-58362412D01*
X89556920Y-58188359D01*
X89294099Y-58063175D01*
X89146890Y-58018524D01*
X88917000Y-58139845D01*
X88917000Y-59333000D01*
X88937000Y-59333000D01*
X88937000Y-59587000D01*
X88917000Y-59587000D01*
X88917000Y-59607000D01*
X88663000Y-59607000D01*
X88663000Y-59587000D01*
X86377000Y-59587000D01*
X86377000Y-59607000D01*
X86123000Y-59607000D01*
X86123000Y-59587000D01*
X84929186Y-59587000D01*
X84808519Y-59816891D01*
X84905843Y-60091252D01*
X85054822Y-60341355D01*
X85231626Y-60537502D01*
X85155820Y-60560498D01*
X85045506Y-60619463D01*
X84948815Y-60698815D01*
X84869463Y-60795506D01*
X84810498Y-60905820D01*
X84774188Y-61025518D01*
X84769482Y-61073302D01*
X84729922Y-61077198D01*
X84716408Y-61078529D01*
X84540160Y-61131993D01*
X84377728Y-61218814D01*
X84235356Y-61335656D01*
X84118514Y-61478028D01*
X84031693Y-61640460D01*
X83978229Y-61816708D01*
X83960176Y-62000000D01*
X83964700Y-62045933D01*
X83964701Y-62763309D01*
X80000000Y-66728011D01*
X75761097Y-62489108D01*
X75830537Y-62404494D01*
X75889502Y-62294180D01*
X75925812Y-62174482D01*
X75938072Y-62050000D01*
X75938072Y-60450000D01*
X75925812Y-60325518D01*
X75889502Y-60205820D01*
X75830537Y-60095506D01*
X75751185Y-59998815D01*
X75654494Y-59919463D01*
X75544180Y-59860498D01*
X75424482Y-59824188D01*
X75300000Y-59811928D01*
X75292785Y-59811928D01*
X75313097Y-59742702D01*
X74500000Y-58929605D01*
X73686903Y-59742702D01*
X73707215Y-59811928D01*
X73700000Y-59811928D01*
X73575518Y-59824188D01*
X73455820Y-59860498D01*
X73345506Y-59919463D01*
X73248815Y-59998815D01*
X73169463Y-60095506D01*
X73110498Y-60205820D01*
X73074188Y-60325518D01*
X73061928Y-60450000D01*
X73061928Y-62050000D01*
X73074188Y-62174482D01*
X73110498Y-62294180D01*
X73169463Y-62404494D01*
X73248815Y-62501185D01*
X73345506Y-62580537D01*
X73455820Y-62639502D01*
X73572756Y-62674974D01*
X73578529Y-62733591D01*
X73631254Y-62907401D01*
X73631994Y-62909840D01*
X73718815Y-63072272D01*
X73835657Y-63214644D01*
X73871336Y-63243925D01*
X79065001Y-68437590D01*
X79065000Y-83155604D01*
X78885363Y-83335241D01*
X78751308Y-83535869D01*
X78736671Y-83508486D01*
X78492702Y-83436903D01*
X77679605Y-84250000D01*
X78492702Y-85063097D01*
X78736671Y-84991514D01*
X78750324Y-84962659D01*
X78885363Y-85164759D01*
X79085241Y-85364637D01*
X79280197Y-85494902D01*
X79255199Y-85519900D01*
X78179346Y-85519900D01*
X78241514Y-85486671D01*
X78313097Y-85242702D01*
X77500000Y-84429605D01*
X76686903Y-85242702D01*
X76758486Y-85486671D01*
X76828712Y-85519900D01*
X73470848Y-85519900D01*
X73448932Y-85478899D01*
X73269608Y-85260392D01*
X73051101Y-85081068D01*
X72913318Y-85007421D01*
X73105131Y-84892385D01*
X73313519Y-84703414D01*
X73481037Y-84477420D01*
X73555198Y-84320512D01*
X76059783Y-84320512D01*
X76101213Y-84600130D01*
X76196397Y-84866292D01*
X76263329Y-84991514D01*
X76507298Y-85063097D01*
X77320395Y-84250000D01*
X76507298Y-83436903D01*
X76263329Y-83508486D01*
X76142429Y-83763996D01*
X76073700Y-84038184D01*
X76059783Y-84320512D01*
X73555198Y-84320512D01*
X73601246Y-84223087D01*
X73641904Y-84089039D01*
X73519915Y-83867000D01*
X72377000Y-83867000D01*
X72377000Y-83887000D01*
X72123000Y-83887000D01*
X72123000Y-83867000D01*
X72103000Y-83867000D01*
X72103000Y-83613000D01*
X72123000Y-83613000D01*
X72123000Y-83593000D01*
X72377000Y-83593000D01*
X72377000Y-83613000D01*
X73519915Y-83613000D01*
X73641904Y-83390961D01*
X73601363Y-83257298D01*
X76686903Y-83257298D01*
X77500000Y-84070395D01*
X78313097Y-83257298D01*
X78241514Y-83013329D01*
X77986004Y-82892429D01*
X77711816Y-82823700D01*
X77429488Y-82809783D01*
X77149870Y-82851213D01*
X76883708Y-82946397D01*
X76758486Y-83013329D01*
X76686903Y-83257298D01*
X73601363Y-83257298D01*
X73601246Y-83256913D01*
X73481037Y-83002580D01*
X73313519Y-82776586D01*
X73105131Y-82587615D01*
X72913318Y-82472579D01*
X73051101Y-82398932D01*
X73269608Y-82219608D01*
X73448932Y-82001101D01*
X73582182Y-81751808D01*
X73664236Y-81481309D01*
X73691943Y-81200000D01*
X73664236Y-80918691D01*
X73582182Y-80648192D01*
X73448932Y-80398899D01*
X73269608Y-80180392D01*
X73051101Y-80001068D01*
X72918142Y-79930000D01*
X73051101Y-79858932D01*
X73269608Y-79679608D01*
X73448932Y-79461101D01*
X73582182Y-79211808D01*
X73664236Y-78941309D01*
X73691943Y-78660000D01*
X73664236Y-78378691D01*
X73582182Y-78108192D01*
X73448932Y-77858899D01*
X73349527Y-77737774D01*
X73926004Y-77161298D01*
X73955001Y-77137501D01*
X74049974Y-77021776D01*
X74120546Y-76889747D01*
X74164003Y-76746486D01*
X74175000Y-76634833D01*
X74175000Y-76634824D01*
X74178676Y-76597501D01*
X74175000Y-76560178D01*
X74175000Y-70591422D01*
X74178676Y-70554099D01*
X74175000Y-70516776D01*
X74175000Y-70516767D01*
X74164003Y-70405114D01*
X74120546Y-70261853D01*
X74081711Y-70189199D01*
X74049974Y-70129823D01*
X73978799Y-70043097D01*
X73955001Y-70014099D01*
X73926003Y-69990301D01*
X73583901Y-69648200D01*
X73639502Y-69544180D01*
X73675812Y-69424482D01*
X73688072Y-69300000D01*
X73688072Y-67700000D01*
X73675812Y-67575518D01*
X73639502Y-67455820D01*
X73580537Y-67345506D01*
X73501185Y-67248815D01*
X73404494Y-67169463D01*
X73294180Y-67110498D01*
X73174482Y-67074188D01*
X73050000Y-67061928D01*
X71450000Y-67061928D01*
X71325518Y-67074188D01*
X71205820Y-67110498D01*
X71095506Y-67169463D01*
X70998815Y-67248815D01*
X70976053Y-67276551D01*
X69305404Y-65605903D01*
X69281601Y-65576899D01*
X69165876Y-65481926D01*
X69033847Y-65411354D01*
X68890586Y-65367897D01*
X68778933Y-65356900D01*
X68778922Y-65356900D01*
X68741600Y-65353224D01*
X68704278Y-65356900D01*
X68114773Y-65356900D01*
X68128599Y-65331034D01*
X68213513Y-65051111D01*
X68242185Y-64760000D01*
X68213513Y-64468889D01*
X68128599Y-64188966D01*
X67990706Y-63930986D01*
X67805134Y-63704866D01*
X67579014Y-63519294D01*
X67321034Y-63381401D01*
X67041111Y-63296487D01*
X66822950Y-63275000D01*
X66677050Y-63275000D01*
X66458889Y-63296487D01*
X66178966Y-63381401D01*
X65920986Y-63519294D01*
X65694866Y-63704866D01*
X65509294Y-63930986D01*
X65478416Y-63988756D01*
X65307588Y-63759731D01*
X65091355Y-63564822D01*
X64841252Y-63415843D01*
X64566891Y-63318519D01*
X64337000Y-63439186D01*
X64337000Y-64633000D01*
X64357000Y-64633000D01*
X64357000Y-64887000D01*
X64337000Y-64887000D01*
X64337000Y-64907000D01*
X64083000Y-64907000D01*
X64083000Y-64887000D01*
X62889845Y-64887000D01*
X62768524Y-65116890D01*
X62813175Y-65264099D01*
X62938359Y-65526920D01*
X63066407Y-65698591D01*
X62523702Y-66241297D01*
X62494699Y-66265099D01*
X62439571Y-66332274D01*
X62399726Y-66380824D01*
X62354252Y-66465900D01*
X62329154Y-66512854D01*
X62285697Y-66656115D01*
X62274700Y-66767768D01*
X62274700Y-66767778D01*
X62271024Y-66805100D01*
X60710000Y-66805100D01*
X60710000Y-64403110D01*
X62768524Y-64403110D01*
X62889845Y-64633000D01*
X64083000Y-64633000D01*
X64083000Y-63439186D01*
X63853109Y-63318519D01*
X63578748Y-63415843D01*
X63328645Y-63564822D01*
X63112412Y-63759731D01*
X62938359Y-63993080D01*
X62813175Y-64255901D01*
X62768524Y-64403110D01*
X60710000Y-64403110D01*
X60710000Y-58820512D01*
X73059783Y-58820512D01*
X73101213Y-59100130D01*
X73196397Y-59366292D01*
X73263329Y-59491514D01*
X73507298Y-59563097D01*
X74320395Y-58750000D01*
X74679605Y-58750000D01*
X75492702Y-59563097D01*
X75736671Y-59491514D01*
X75857571Y-59236004D01*
X75890882Y-59103109D01*
X84808519Y-59103109D01*
X84929186Y-59333000D01*
X86123000Y-59333000D01*
X86123000Y-58139845D01*
X86377000Y-58139845D01*
X86377000Y-59333000D01*
X88663000Y-59333000D01*
X88663000Y-58139845D01*
X88433110Y-58018524D01*
X88285901Y-58063175D01*
X88023080Y-58188359D01*
X87789731Y-58362412D01*
X87594822Y-58578645D01*
X87520000Y-58704255D01*
X87445178Y-58578645D01*
X87250269Y-58362412D01*
X87016920Y-58188359D01*
X86754099Y-58063175D01*
X86606890Y-58018524D01*
X86377000Y-58139845D01*
X86123000Y-58139845D01*
X85893110Y-58018524D01*
X85745901Y-58063175D01*
X85483080Y-58188359D01*
X85249731Y-58362412D01*
X85054822Y-58578645D01*
X84905843Y-58828748D01*
X84808519Y-59103109D01*
X75890882Y-59103109D01*
X75926300Y-58961816D01*
X75940217Y-58679488D01*
X75898787Y-58399870D01*
X75803603Y-58133708D01*
X75736671Y-58008486D01*
X75492702Y-57936903D01*
X74679605Y-58750000D01*
X74320395Y-58750000D01*
X73507298Y-57936903D01*
X73263329Y-58008486D01*
X73142429Y-58263996D01*
X73073700Y-58538184D01*
X73059783Y-58820512D01*
X60710000Y-58820512D01*
X60710000Y-57757298D01*
X73686903Y-57757298D01*
X74500000Y-58570395D01*
X75313097Y-57757298D01*
X75241514Y-57513329D01*
X74986004Y-57392429D01*
X74711816Y-57323700D01*
X74429488Y-57309783D01*
X74149870Y-57351213D01*
X73883708Y-57446397D01*
X73758486Y-57513329D01*
X73686903Y-57757298D01*
X60710000Y-57757298D01*
X60710000Y-54279872D01*
X63265000Y-54279872D01*
X63265000Y-54720128D01*
X63350890Y-55151925D01*
X63519369Y-55558669D01*
X63763962Y-55924729D01*
X64075271Y-56236038D01*
X64441331Y-56480631D01*
X64848075Y-56649110D01*
X65279872Y-56735000D01*
X65720128Y-56735000D01*
X66151925Y-56649110D01*
X66558669Y-56480631D01*
X66924729Y-56236038D01*
X67236038Y-55924729D01*
X67480631Y-55558669D01*
X67649110Y-55151925D01*
X67735000Y-54720128D01*
X67735000Y-54279872D01*
X152265000Y-54279872D01*
X152265000Y-54720128D01*
X152350890Y-55151925D01*
X152519369Y-55558669D01*
X152763962Y-55924729D01*
X153075271Y-56236038D01*
X153441331Y-56480631D01*
X153848075Y-56649110D01*
X154279872Y-56735000D01*
X154720128Y-56735000D01*
X155151925Y-56649110D01*
X155558669Y-56480631D01*
X155924729Y-56236038D01*
X156236038Y-55924729D01*
X156480631Y-55558669D01*
X156649110Y-55151925D01*
X156735000Y-54720128D01*
X156735000Y-54279872D01*
X156649110Y-53848075D01*
X156480631Y-53441331D01*
X156236038Y-53075271D01*
X155924729Y-52763962D01*
X155558669Y-52519369D01*
X155151925Y-52350890D01*
X154720128Y-52265000D01*
X154279872Y-52265000D01*
X153848075Y-52350890D01*
X153441331Y-52519369D01*
X153075271Y-52763962D01*
X152763962Y-53075271D01*
X152519369Y-53441331D01*
X152350890Y-53848075D01*
X152265000Y-54279872D01*
X67735000Y-54279872D01*
X67649110Y-53848075D01*
X67480631Y-53441331D01*
X67236038Y-53075271D01*
X66924729Y-52763962D01*
X66558669Y-52519369D01*
X66151925Y-52350890D01*
X65720128Y-52265000D01*
X65279872Y-52265000D01*
X64848075Y-52350890D01*
X64441331Y-52519369D01*
X64075271Y-52763962D01*
X63763962Y-53075271D01*
X63519369Y-53441331D01*
X63350890Y-53848075D01*
X63265000Y-54279872D01*
X60710000Y-54279872D01*
X60710000Y-50710000D01*
X159290000Y-50710000D01*
X159290001Y-124290000D01*
X159290001Y-124290000D01*
G37*
X159290001Y-124290000D02*
X60710000Y-124290000D01*
X60710000Y-120279872D01*
X63265000Y-120279872D01*
X63265000Y-120720128D01*
X63350890Y-121151925D01*
X63519369Y-121558669D01*
X63763962Y-121924729D01*
X64075271Y-122236038D01*
X64441331Y-122480631D01*
X64848075Y-122649110D01*
X65279872Y-122735000D01*
X65720128Y-122735000D01*
X66151925Y-122649110D01*
X66558669Y-122480631D01*
X66924729Y-122236038D01*
X67236038Y-121924729D01*
X67480631Y-121558669D01*
X67649110Y-121151925D01*
X67735000Y-120720128D01*
X67735000Y-120279872D01*
X67649110Y-119848075D01*
X67480631Y-119441331D01*
X67236038Y-119075271D01*
X66924729Y-118763962D01*
X66558669Y-118519369D01*
X66151925Y-118350890D01*
X65720128Y-118265000D01*
X65279872Y-118265000D01*
X64848075Y-118350890D01*
X64441331Y-118519369D01*
X64075271Y-118763962D01*
X63763962Y-119075271D01*
X63519369Y-119441331D01*
X63350890Y-119848075D01*
X63265000Y-120279872D01*
X60710000Y-120279872D01*
X60710000Y-66805100D01*
X62271024Y-66805100D01*
X62274700Y-66842422D01*
X62274701Y-75439468D01*
X62271024Y-75476800D01*
X62274701Y-75514133D01*
X62285698Y-75625786D01*
X62294780Y-75655725D01*
X62329154Y-75769046D01*
X62399726Y-75901076D01*
X62470901Y-75987802D01*
X62494700Y-76016801D01*
X62523698Y-76040599D01*
X63034559Y-76551461D01*
X62969294Y-76630986D01*
X62831401Y-76888966D01*
X62746487Y-77168889D01*
X62717815Y-77460000D01*
X62746487Y-77751111D01*
X62831401Y-78031034D01*
X62969294Y-78289014D01*
X63154866Y-78515134D01*
X63380986Y-78700706D01*
X63435791Y-78730000D01*
X63380986Y-78759294D01*
X63154866Y-78944866D01*
X62969294Y-79170986D01*
X62831401Y-79428966D01*
X62746487Y-79708889D01*
X62717815Y-80000000D01*
X62746487Y-80291111D01*
X62831401Y-80571034D01*
X62969294Y-80829014D01*
X63154866Y-81055134D01*
X63380986Y-81240706D01*
X63638966Y-81378599D01*
X63918889Y-81463513D01*
X64137050Y-81485000D01*
X64282950Y-81485000D01*
X64501111Y-81463513D01*
X64781034Y-81378599D01*
X64814701Y-81360604D01*
X64814700Y-91423378D01*
X64811024Y-91460700D01*
X64814700Y-91498022D01*
X64814700Y-91498032D01*
X64825697Y-91609685D01*
X64858533Y-91717932D01*
X64869154Y-91752946D01*
X64939726Y-91884976D01*
X64967250Y-91918514D01*
X65034699Y-92000701D01*
X65063703Y-92024504D01*
X71126357Y-98087159D01*
X71051068Y-98178899D01*
X70917818Y-98428192D01*
X70835764Y-98698691D01*
X70808057Y-98980000D01*
X70835764Y-99261309D01*
X70917818Y-99531808D01*
X71051068Y-99781101D01*
X71172424Y-99928974D01*
X69698903Y-101402496D01*
X69669899Y-101426299D01*
X69614771Y-101493474D01*
X69574926Y-101542024D01*
X69507063Y-101668986D01*
X69504354Y-101674054D01*
X69460897Y-101817315D01*
X69449900Y-101928968D01*
X69449900Y-101928978D01*
X69446224Y-101966300D01*
X69449900Y-102003623D01*
X69449901Y-108707268D01*
X69446224Y-108744600D01*
X69449901Y-108781933D01*
X69460898Y-108893586D01*
X69461008Y-108893947D01*
X69504354Y-109036846D01*
X69574926Y-109168876D01*
X69630567Y-109236674D01*
X69669900Y-109284601D01*
X69698898Y-109308399D01*
X71149481Y-110758983D01*
X71051068Y-110878899D01*
X70917818Y-111128192D01*
X70835764Y-111398691D01*
X70808057Y-111680000D01*
X70835764Y-111961309D01*
X70917818Y-112231808D01*
X71051068Y-112481101D01*
X71230392Y-112699608D01*
X71448899Y-112878932D01*
X71581858Y-112950000D01*
X71448899Y-113021068D01*
X71230392Y-113200392D01*
X71051068Y-113418899D01*
X70917818Y-113668192D01*
X70835764Y-113938691D01*
X70808057Y-114220000D01*
X70835764Y-114501309D01*
X70917818Y-114771808D01*
X71051068Y-115021101D01*
X71230392Y-115239608D01*
X71448899Y-115418932D01*
X71581858Y-115490000D01*
X71448899Y-115561068D01*
X71230392Y-115740392D01*
X71051068Y-115958899D01*
X70917818Y-116208192D01*
X70835764Y-116478691D01*
X70808057Y-116760000D01*
X70835764Y-117041309D01*
X70917818Y-117311808D01*
X71051068Y-117561101D01*
X71230392Y-117779608D01*
X71448899Y-117958932D01*
X71698192Y-118092182D01*
X71968691Y-118174236D01*
X72179508Y-118195000D01*
X72320492Y-118195000D01*
X72531309Y-118174236D01*
X72801808Y-118092182D01*
X73051101Y-117958932D01*
X73269608Y-117779608D01*
X73448932Y-117561101D01*
X73582182Y-117311808D01*
X73664236Y-117041309D01*
X73691943Y-116760000D01*
X73664236Y-116478691D01*
X73582182Y-116208192D01*
X73448932Y-115958899D01*
X73269608Y-115740392D01*
X73051101Y-115561068D01*
X72918142Y-115490000D01*
X73051101Y-115418932D01*
X73269608Y-115239608D01*
X73448932Y-115021101D01*
X73582182Y-114771808D01*
X73664236Y-114501309D01*
X73691943Y-114220000D01*
X73664236Y-113938691D01*
X73582182Y-113668192D01*
X73448932Y-113418899D01*
X73269608Y-113200392D01*
X73051101Y-113021068D01*
X72918142Y-112950000D01*
X73051101Y-112878932D01*
X73269608Y-112699608D01*
X73448932Y-112481101D01*
X73582182Y-112231808D01*
X73664236Y-111961309D01*
X73691943Y-111680000D01*
X73664236Y-111398691D01*
X73594864Y-111170000D01*
X75640199Y-111170000D01*
X84572401Y-120102203D01*
X84596199Y-120131201D01*
X84625197Y-120154999D01*
X84711924Y-120226174D01*
X84843953Y-120296746D01*
X84987214Y-120340203D01*
X85136200Y-120354877D01*
X85173533Y-120351200D01*
X99011928Y-120351200D01*
X99011928Y-122900000D01*
X99024188Y-123024482D01*
X99060498Y-123144180D01*
X99119463Y-123254494D01*
X99198815Y-123351185D01*
X99295506Y-123430537D01*
X99405820Y-123489502D01*
X99525518Y-123525812D01*
X99650000Y-123538072D01*
X100850000Y-123538072D01*
X100974482Y-123525812D01*
X101094180Y-123489502D01*
X101204494Y-123430537D01*
X101301185Y-123351185D01*
X101380537Y-123254494D01*
X101439502Y-123144180D01*
X101475812Y-123024482D01*
X101488072Y-122900000D01*
X101488072Y-121700000D01*
X104961928Y-121700000D01*
X104961928Y-122900000D01*
X104974188Y-123024482D01*
X105010498Y-123144180D01*
X105069463Y-123254494D01*
X105148815Y-123351185D01*
X105245506Y-123430537D01*
X105355820Y-123489502D01*
X105475518Y-123525812D01*
X105600000Y-123538072D01*
X108400000Y-123538072D01*
X108524482Y-123525812D01*
X108644180Y-123489502D01*
X108754494Y-123430537D01*
X108851185Y-123351185D01*
X108930537Y-123254494D01*
X108989502Y-123144180D01*
X109025812Y-123024482D01*
X109038072Y-122900000D01*
X109038072Y-121700000D01*
X109025812Y-121575518D01*
X108989502Y-121455820D01*
X108930537Y-121345506D01*
X108851185Y-121248815D01*
X108754494Y-121169463D01*
X108644180Y-121110498D01*
X108524482Y-121074188D01*
X108400000Y-121061928D01*
X105600000Y-121061928D01*
X105475518Y-121074188D01*
X105355820Y-121110498D01*
X105245506Y-121169463D01*
X105148815Y-121248815D01*
X105069463Y-121345506D01*
X105010498Y-121455820D01*
X104974188Y-121575518D01*
X104961928Y-121700000D01*
X101488072Y-121700000D01*
X101488072Y-120351200D01*
X112511928Y-120351200D01*
X112511928Y-122900000D01*
X112524188Y-123024482D01*
X112560498Y-123144180D01*
X112619463Y-123254494D01*
X112698815Y-123351185D01*
X112795506Y-123430537D01*
X112905820Y-123489502D01*
X113025518Y-123525812D01*
X113150000Y-123538072D01*
X114350000Y-123538072D01*
X114474482Y-123525812D01*
X114594180Y-123489502D01*
X114704494Y-123430537D01*
X114801185Y-123351185D01*
X114880537Y-123254494D01*
X114939502Y-123144180D01*
X114975812Y-123024482D01*
X114988072Y-122900000D01*
X114988072Y-120351200D01*
X124403578Y-120351200D01*
X124440900Y-120354876D01*
X124478222Y-120351200D01*
X124478233Y-120351200D01*
X124589886Y-120340203D01*
X124733147Y-120296746D01*
X124764715Y-120279872D01*
X152265000Y-120279872D01*
X152265000Y-120720128D01*
X152350890Y-121151925D01*
X152519369Y-121558669D01*
X152763962Y-121924729D01*
X153075271Y-122236038D01*
X153441331Y-122480631D01*
X153848075Y-122649110D01*
X154279872Y-122735000D01*
X154720128Y-122735000D01*
X155151925Y-122649110D01*
X155558669Y-122480631D01*
X155924729Y-122236038D01*
X156236038Y-121924729D01*
X156480631Y-121558669D01*
X156649110Y-121151925D01*
X156735000Y-120720128D01*
X156735000Y-120279872D01*
X156649110Y-119848075D01*
X156480631Y-119441331D01*
X156236038Y-119075271D01*
X155924729Y-118763962D01*
X155558669Y-118519369D01*
X155151925Y-118350890D01*
X154720128Y-118265000D01*
X154279872Y-118265000D01*
X153848075Y-118350890D01*
X153441331Y-118519369D01*
X153075271Y-118763962D01*
X152763962Y-119075271D01*
X152519369Y-119441331D01*
X152350890Y-119848075D01*
X152265000Y-120279872D01*
X124764715Y-120279872D01*
X124865176Y-120226174D01*
X124980901Y-120131201D01*
X125004704Y-120102197D01*
X127949491Y-117157411D01*
X128050986Y-117240706D01*
X128308966Y-117378599D01*
X128588889Y-117463513D01*
X128807050Y-117485000D01*
X128952950Y-117485000D01*
X129171111Y-117463513D01*
X129451034Y-117378599D01*
X129709014Y-117240706D01*
X129935134Y-117055134D01*
X130120706Y-116829014D01*
X130150000Y-116774209D01*
X130179294Y-116829014D01*
X130364866Y-117055134D01*
X130590986Y-117240706D01*
X130848966Y-117378599D01*
X131128889Y-117463513D01*
X131347050Y-117485000D01*
X131492950Y-117485000D01*
X131711111Y-117463513D01*
X131991034Y-117378599D01*
X132249014Y-117240706D01*
X132475134Y-117055134D01*
X132660706Y-116829014D01*
X132690000Y-116774209D01*
X132719294Y-116829014D01*
X132904866Y-117055134D01*
X133130986Y-117240706D01*
X133388966Y-117378599D01*
X133668889Y-117463513D01*
X133887050Y-117485000D01*
X134032950Y-117485000D01*
X134251111Y-117463513D01*
X134531034Y-117378599D01*
X134789014Y-117240706D01*
X135015134Y-117055134D01*
X135039607Y-117025313D01*
X135060498Y-117094180D01*
X135119463Y-117204494D01*
X135198815Y-117301185D01*
X135295506Y-117380537D01*
X135405820Y-117439502D01*
X135525518Y-117475812D01*
X135650000Y-117488072D01*
X136214250Y-117485000D01*
X136373000Y-117326250D01*
X136373000Y-116127000D01*
X136627000Y-116127000D01*
X136627000Y-117326250D01*
X136785750Y-117485000D01*
X137350000Y-117488072D01*
X137474482Y-117475812D01*
X137594180Y-117439502D01*
X137704494Y-117380537D01*
X137801185Y-117301185D01*
X137880537Y-117204494D01*
X137939502Y-117094180D01*
X137975812Y-116974482D01*
X137988072Y-116850000D01*
X137985000Y-116285750D01*
X137826250Y-116127000D01*
X136627000Y-116127000D01*
X136373000Y-116127000D01*
X136353000Y-116127000D01*
X136353000Y-115873000D01*
X136373000Y-115873000D01*
X136373000Y-114673750D01*
X136627000Y-114673750D01*
X136627000Y-115873000D01*
X137826250Y-115873000D01*
X137985000Y-115714250D01*
X137988072Y-115150000D01*
X137975812Y-115025518D01*
X137939502Y-114905820D01*
X137880537Y-114795506D01*
X137801185Y-114698815D01*
X137704494Y-114619463D01*
X137594180Y-114560498D01*
X137474482Y-114524188D01*
X137350000Y-114511928D01*
X136785750Y-114515000D01*
X136627000Y-114673750D01*
X136373000Y-114673750D01*
X136214250Y-114515000D01*
X135650000Y-114511928D01*
X135525518Y-114524188D01*
X135405820Y-114560498D01*
X135295506Y-114619463D01*
X135198815Y-114698815D01*
X135119463Y-114795506D01*
X135060498Y-114905820D01*
X135039607Y-114974687D01*
X135015134Y-114944866D01*
X134789014Y-114759294D01*
X134531034Y-114621401D01*
X134251111Y-114536487D01*
X134032950Y-114515000D01*
X133887050Y-114515000D01*
X133668889Y-114536487D01*
X133388966Y-114621401D01*
X133130986Y-114759294D01*
X132904866Y-114944866D01*
X132719294Y-115170986D01*
X132690000Y-115225791D01*
X132660706Y-115170986D01*
X132475134Y-114944866D01*
X132249014Y-114759294D01*
X131991034Y-114621401D01*
X131711111Y-114536487D01*
X131492950Y-114515000D01*
X131347050Y-114515000D01*
X131128889Y-114536487D01*
X130848966Y-114621401D01*
X130590986Y-114759294D01*
X130364866Y-114944866D01*
X130179294Y-115170986D01*
X130150000Y-115225791D01*
X130120706Y-115170986D01*
X129935134Y-114944866D01*
X129709014Y-114759294D01*
X129451034Y-114621401D01*
X129413336Y-114609965D01*
X132440599Y-111582702D01*
X137776903Y-111582702D01*
X137848486Y-111826671D01*
X138103996Y-111947571D01*
X138378184Y-112016300D01*
X138660512Y-112030217D01*
X138940130Y-111988787D01*
X139206292Y-111893603D01*
X139331514Y-111826671D01*
X139403097Y-111582702D01*
X138590000Y-110769605D01*
X137776903Y-111582702D01*
X132440599Y-111582702D01*
X133362789Y-110660512D01*
X137149783Y-110660512D01*
X137191213Y-110940130D01*
X137286397Y-111206292D01*
X137353329Y-111331514D01*
X137597298Y-111403097D01*
X138410395Y-110590000D01*
X138769605Y-110590000D01*
X139582702Y-111403097D01*
X139826671Y-111331514D01*
X139840324Y-111302659D01*
X139975363Y-111504759D01*
X140175241Y-111704637D01*
X140410273Y-111861680D01*
X140671426Y-111969853D01*
X140948665Y-112025000D01*
X141231335Y-112025000D01*
X141508574Y-111969853D01*
X141769727Y-111861680D01*
X142004759Y-111704637D01*
X142204637Y-111504759D01*
X142361680Y-111269727D01*
X142469853Y-111008574D01*
X142525000Y-110731335D01*
X142525000Y-110448665D01*
X142469853Y-110171426D01*
X142361680Y-109910273D01*
X142204637Y-109675241D01*
X142004759Y-109475363D01*
X141850000Y-109371957D01*
X141850000Y-109060101D01*
X142010997Y-108899104D01*
X142040001Y-108875301D01*
X142134974Y-108759576D01*
X142205546Y-108627547D01*
X142249003Y-108484286D01*
X142253942Y-108434139D01*
X142301101Y-108408932D01*
X142519608Y-108229608D01*
X142698932Y-108011101D01*
X142832182Y-107761808D01*
X142914236Y-107491309D01*
X142934063Y-107290000D01*
X146877089Y-107290000D01*
X146908657Y-107610516D01*
X147002148Y-107918715D01*
X147153969Y-108202752D01*
X147358286Y-108451714D01*
X147607248Y-108656031D01*
X147891285Y-108807852D01*
X148199484Y-108901343D01*
X148439678Y-108925000D01*
X149600322Y-108925000D01*
X149840516Y-108901343D01*
X150148715Y-108807852D01*
X150432752Y-108656031D01*
X150681714Y-108451714D01*
X150886031Y-108202752D01*
X151037852Y-107918715D01*
X151131343Y-107610516D01*
X151162911Y-107290000D01*
X151131343Y-106969484D01*
X151037852Y-106661285D01*
X150911555Y-106425000D01*
X151300322Y-106425000D01*
X151540516Y-106401343D01*
X151848715Y-106307852D01*
X152132752Y-106156031D01*
X152381714Y-105951714D01*
X152586031Y-105702752D01*
X152737852Y-105418715D01*
X152831343Y-105110516D01*
X152862911Y-104790000D01*
X152831343Y-104469484D01*
X152737852Y-104161285D01*
X152586031Y-103877248D01*
X152381714Y-103628286D01*
X152132752Y-103423969D01*
X151848715Y-103272148D01*
X151540516Y-103178657D01*
X151300322Y-103155000D01*
X150139678Y-103155000D01*
X149899484Y-103178657D01*
X149591285Y-103272148D01*
X149307248Y-103423969D01*
X149058286Y-103628286D01*
X148853969Y-103877248D01*
X148702148Y-104161285D01*
X148608657Y-104469484D01*
X148577089Y-104790000D01*
X148608657Y-105110516D01*
X148702148Y-105418715D01*
X148828445Y-105655000D01*
X148439678Y-105655000D01*
X148199484Y-105678657D01*
X147891285Y-105772148D01*
X147607248Y-105923969D01*
X147358286Y-106128286D01*
X147153969Y-106377248D01*
X147002148Y-106661285D01*
X146908657Y-106969484D01*
X146877089Y-107290000D01*
X142934063Y-107290000D01*
X142941943Y-107210000D01*
X142914236Y-106928691D01*
X142832182Y-106658192D01*
X142698932Y-106408899D01*
X142519608Y-106190392D01*
X142301101Y-106011068D01*
X142051808Y-105877818D01*
X141781309Y-105795764D01*
X141570492Y-105775000D01*
X141429508Y-105775000D01*
X141218691Y-105795764D01*
X140948192Y-105877818D01*
X140698899Y-106011068D01*
X140480392Y-106190392D01*
X140301068Y-106408899D01*
X140167818Y-106658192D01*
X140085764Y-106928691D01*
X140058057Y-107210000D01*
X140085764Y-107491309D01*
X140167818Y-107761808D01*
X140301068Y-108011101D01*
X140480392Y-108229608D01*
X140510065Y-108253960D01*
X140455026Y-108321024D01*
X140384454Y-108453054D01*
X140363782Y-108521203D01*
X140340998Y-108596314D01*
X140335247Y-108654701D01*
X140326324Y-108745300D01*
X140330001Y-108782632D01*
X140330001Y-109371956D01*
X140175241Y-109475363D01*
X139975363Y-109675241D01*
X139841308Y-109875869D01*
X139826671Y-109848486D01*
X139582702Y-109776903D01*
X138769605Y-110590000D01*
X138410395Y-110590000D01*
X137597298Y-109776903D01*
X137353329Y-109848486D01*
X137232429Y-110103996D01*
X137163700Y-110378184D01*
X137149783Y-110660512D01*
X133362789Y-110660512D01*
X134426003Y-109597298D01*
X137776903Y-109597298D01*
X138590000Y-110410395D01*
X139403097Y-109597298D01*
X139331514Y-109353329D01*
X139076004Y-109232429D01*
X138801816Y-109163700D01*
X138519488Y-109149783D01*
X138239870Y-109191213D01*
X137973708Y-109286397D01*
X137848486Y-109353329D01*
X137776903Y-109597298D01*
X134426003Y-109597298D01*
X136318463Y-107704839D01*
X136445363Y-107894759D01*
X136645241Y-108094637D01*
X136880273Y-108251680D01*
X137141426Y-108359853D01*
X137418665Y-108415000D01*
X137701335Y-108415000D01*
X137978574Y-108359853D01*
X138239727Y-108251680D01*
X138474759Y-108094637D01*
X138674637Y-107894759D01*
X138831680Y-107659727D01*
X138939853Y-107398574D01*
X138995000Y-107121335D01*
X138995000Y-106838665D01*
X138939853Y-106561426D01*
X138831680Y-106300273D01*
X138674637Y-106065241D01*
X138474759Y-105865363D01*
X138239727Y-105708320D01*
X137978574Y-105600147D01*
X137701335Y-105545000D01*
X137418665Y-105545000D01*
X137141426Y-105600147D01*
X137095400Y-105619212D01*
X137095400Y-102017000D01*
X155885000Y-102017000D01*
X155885000Y-102517000D01*
X155941193Y-102833532D01*
X156058058Y-103133020D01*
X156231105Y-103403954D01*
X156453683Y-103635922D01*
X156717239Y-103820010D01*
X157011645Y-103949144D01*
X157139566Y-103980124D01*
X157393000Y-103860777D01*
X157393000Y-102017000D01*
X157647000Y-102017000D01*
X157647000Y-103860777D01*
X157900434Y-103980124D01*
X158028355Y-103949144D01*
X158322761Y-103820010D01*
X158586317Y-103635922D01*
X158808895Y-103403954D01*
X158981942Y-103133020D01*
X159098807Y-102833532D01*
X159155000Y-102517000D01*
X159155000Y-102017000D01*
X157647000Y-102017000D01*
X157393000Y-102017000D01*
X155885000Y-102017000D01*
X137095400Y-102017000D01*
X137095400Y-101263000D01*
X155885000Y-101263000D01*
X155885000Y-101763000D01*
X157393000Y-101763000D01*
X157393000Y-99919223D01*
X157647000Y-99919223D01*
X157647000Y-101763000D01*
X159155000Y-101763000D01*
X159155000Y-101263000D01*
X159098807Y-100946468D01*
X158981942Y-100646980D01*
X158808895Y-100376046D01*
X158586317Y-100144078D01*
X158322761Y-99959990D01*
X158028355Y-99830856D01*
X157900434Y-99799876D01*
X157647000Y-99919223D01*
X157393000Y-99919223D01*
X157139566Y-99799876D01*
X157011645Y-99830856D01*
X156717239Y-99959990D01*
X156453683Y-100144078D01*
X156231105Y-100376046D01*
X156058058Y-100646980D01*
X155941193Y-100946468D01*
X155885000Y-101263000D01*
X137095400Y-101263000D01*
X137095400Y-98178636D01*
X137278691Y-98234236D01*
X137489508Y-98255000D01*
X137630492Y-98255000D01*
X137841309Y-98234236D01*
X138111808Y-98152182D01*
X138361101Y-98018932D01*
X138579608Y-97839608D01*
X138758932Y-97621101D01*
X138784139Y-97573942D01*
X138834286Y-97569003D01*
X138977547Y-97525546D01*
X139109576Y-97454974D01*
X139225301Y-97360001D01*
X139320274Y-97244276D01*
X139390846Y-97112247D01*
X139434303Y-96968986D01*
X139440244Y-96908665D01*
X140065000Y-96908665D01*
X140065000Y-97191335D01*
X140120147Y-97468574D01*
X140228320Y-97729727D01*
X140385363Y-97964759D01*
X140585241Y-98164637D01*
X140820273Y-98321680D01*
X141081426Y-98429853D01*
X141358665Y-98485000D01*
X141641335Y-98485000D01*
X141918574Y-98429853D01*
X142179727Y-98321680D01*
X142414759Y-98164637D01*
X142614637Y-97964759D01*
X142771680Y-97729727D01*
X142879853Y-97468574D01*
X142935000Y-97191335D01*
X142935000Y-97009678D01*
X144585000Y-97009678D01*
X144585000Y-98170321D01*
X144608657Y-98410515D01*
X144702148Y-98718714D01*
X144853969Y-99002751D01*
X145058286Y-99251714D01*
X145307248Y-99456031D01*
X145591285Y-99607852D01*
X145899484Y-99701343D01*
X146220000Y-99732911D01*
X146540515Y-99701343D01*
X146848714Y-99607852D01*
X147132751Y-99456031D01*
X147381714Y-99251714D01*
X147586031Y-99002752D01*
X147737852Y-98718715D01*
X147831343Y-98410516D01*
X147855000Y-98170322D01*
X147855000Y-97390000D01*
X151877089Y-97390000D01*
X151908657Y-97710516D01*
X152002148Y-98018715D01*
X152153969Y-98302752D01*
X152358286Y-98551714D01*
X152607248Y-98756031D01*
X152891285Y-98907852D01*
X153199484Y-99001343D01*
X153439678Y-99025000D01*
X154600322Y-99025000D01*
X154840516Y-99001343D01*
X155148715Y-98907852D01*
X155432752Y-98756031D01*
X155681714Y-98551714D01*
X155886031Y-98302752D01*
X156037852Y-98018715D01*
X156131343Y-97710516D01*
X156162911Y-97390000D01*
X156131343Y-97069484D01*
X156037852Y-96761285D01*
X155886031Y-96477248D01*
X155681714Y-96228286D01*
X155432752Y-96023969D01*
X155148715Y-95872148D01*
X154840516Y-95778657D01*
X154600322Y-95755000D01*
X153439678Y-95755000D01*
X153199484Y-95778657D01*
X152891285Y-95872148D01*
X152607248Y-96023969D01*
X152358286Y-96228286D01*
X152153969Y-96477248D01*
X152002148Y-96761285D01*
X151908657Y-97069484D01*
X151877089Y-97390000D01*
X147855000Y-97390000D01*
X147855000Y-97009678D01*
X147831343Y-96769484D01*
X147737852Y-96461285D01*
X147586031Y-96177248D01*
X147381714Y-95928286D01*
X147132752Y-95723969D01*
X146848715Y-95572148D01*
X146540516Y-95478657D01*
X146220000Y-95447089D01*
X145899485Y-95478657D01*
X145591286Y-95572148D01*
X145307249Y-95723969D01*
X145058287Y-95928286D01*
X144853970Y-96177248D01*
X144702148Y-96461285D01*
X144608657Y-96769484D01*
X144585000Y-97009678D01*
X142935000Y-97009678D01*
X142935000Y-96908665D01*
X142898688Y-96726113D01*
X145797129Y-93827673D01*
X145875363Y-93944759D01*
X146075241Y-94144637D01*
X146310273Y-94301680D01*
X146571426Y-94409853D01*
X146848665Y-94465000D01*
X147131335Y-94465000D01*
X147408574Y-94409853D01*
X147669727Y-94301680D01*
X147904759Y-94144637D01*
X148104637Y-93944759D01*
X148261680Y-93709727D01*
X148369853Y-93448574D01*
X148383684Y-93379039D01*
X155758096Y-93379039D01*
X155798754Y-93513087D01*
X155918963Y-93767420D01*
X156086481Y-93993414D01*
X156294869Y-94182385D01*
X156536119Y-94327070D01*
X156800960Y-94421909D01*
X157023000Y-94300624D01*
X157023000Y-93157000D01*
X157277000Y-93157000D01*
X157277000Y-94300624D01*
X157499040Y-94421909D01*
X157763881Y-94327070D01*
X158005131Y-94182385D01*
X158213519Y-93993414D01*
X158381037Y-93767420D01*
X158501246Y-93513087D01*
X158541904Y-93379039D01*
X158419915Y-93157000D01*
X157277000Y-93157000D01*
X157023000Y-93157000D01*
X155880085Y-93157000D01*
X155758096Y-93379039D01*
X148383684Y-93379039D01*
X148425000Y-93171335D01*
X148425000Y-92888665D01*
X148383685Y-92680961D01*
X155758096Y-92680961D01*
X155880085Y-92903000D01*
X157023000Y-92903000D01*
X157023000Y-91759376D01*
X157277000Y-91759376D01*
X157277000Y-92903000D01*
X158419915Y-92903000D01*
X158541904Y-92680961D01*
X158501246Y-92546913D01*
X158381037Y-92292580D01*
X158213519Y-92066586D01*
X158005131Y-91877615D01*
X157763881Y-91732930D01*
X157499040Y-91638091D01*
X157277000Y-91759376D01*
X157023000Y-91759376D01*
X156800960Y-91638091D01*
X156536119Y-91732930D01*
X156294869Y-91877615D01*
X156086481Y-92066586D01*
X155918963Y-92292580D01*
X155798754Y-92546913D01*
X155758096Y-92680961D01*
X148383685Y-92680961D01*
X148369853Y-92611426D01*
X148261680Y-92350273D01*
X148104637Y-92115241D01*
X147904759Y-91915363D01*
X147669727Y-91758320D01*
X147408574Y-91650147D01*
X147131335Y-91595000D01*
X146848665Y-91595000D01*
X146571426Y-91650147D01*
X146310273Y-91758320D01*
X146075241Y-91915363D01*
X145875363Y-92115241D01*
X145771957Y-92270000D01*
X145557333Y-92270000D01*
X145520000Y-92266323D01*
X145482667Y-92270000D01*
X145371014Y-92280997D01*
X145227753Y-92324454D01*
X145095724Y-92395026D01*
X144979999Y-92489999D01*
X144956201Y-92518997D01*
X141823887Y-95651312D01*
X141641335Y-95615000D01*
X141358665Y-95615000D01*
X141081426Y-95670147D01*
X140820273Y-95778320D01*
X140585241Y-95935363D01*
X140385363Y-96135241D01*
X140228320Y-96370273D01*
X140120147Y-96631426D01*
X140065000Y-96908665D01*
X139440244Y-96908665D01*
X139445300Y-96857333D01*
X139448977Y-96820000D01*
X139445300Y-96782667D01*
X139445300Y-96159501D01*
X140436114Y-95168688D01*
X140618665Y-95205000D01*
X140901335Y-95205000D01*
X141178574Y-95149853D01*
X141439727Y-95041680D01*
X141674759Y-94884637D01*
X141874637Y-94684759D01*
X142031680Y-94449727D01*
X142139853Y-94188574D01*
X142195000Y-93911335D01*
X142195000Y-93628665D01*
X142139853Y-93351426D01*
X142031680Y-93090273D01*
X141874637Y-92855241D01*
X141674759Y-92655363D01*
X141439727Y-92498320D01*
X141178574Y-92390147D01*
X140901335Y-92335000D01*
X140618665Y-92335000D01*
X140341426Y-92390147D01*
X140080273Y-92498320D01*
X139845241Y-92655363D01*
X139645363Y-92855241D01*
X139510000Y-93057827D01*
X139374637Y-92855241D01*
X139174759Y-92655363D01*
X138939727Y-92498320D01*
X138678574Y-92390147D01*
X138401335Y-92335000D01*
X138118665Y-92335000D01*
X137841426Y-92390147D01*
X137580273Y-92498320D01*
X137345241Y-92655363D01*
X137145363Y-92855241D01*
X136988320Y-93090273D01*
X136880147Y-93351426D01*
X136825000Y-93628665D01*
X136825000Y-93911335D01*
X136861312Y-94093886D01*
X135824398Y-95130801D01*
X135795400Y-95154599D01*
X135771602Y-95183597D01*
X135771601Y-95183598D01*
X135700426Y-95270324D01*
X135629854Y-95402354D01*
X135612027Y-95461124D01*
X135586398Y-95545614D01*
X135581716Y-95593153D01*
X135571724Y-95694600D01*
X135575401Y-95731932D01*
X135575400Y-106298298D01*
X132587381Y-109286317D01*
X132591943Y-109240000D01*
X132564236Y-108958691D01*
X132482182Y-108688192D01*
X132348932Y-108438899D01*
X132273643Y-108347159D01*
X133272603Y-107348199D01*
X133301601Y-107324401D01*
X133396574Y-107208676D01*
X133467146Y-107076647D01*
X133510603Y-106933386D01*
X133521600Y-106821733D01*
X133521600Y-106821724D01*
X133525276Y-106784401D01*
X133521600Y-106747078D01*
X133521600Y-90403722D01*
X133525276Y-90366399D01*
X133521600Y-90329076D01*
X133521600Y-90329067D01*
X133510603Y-90217414D01*
X133467146Y-90074153D01*
X133396574Y-89942124D01*
X133301601Y-89826399D01*
X133272604Y-89802602D01*
X130856401Y-87386400D01*
X132109978Y-87386400D01*
X132147300Y-87390076D01*
X132184622Y-87386400D01*
X132184633Y-87386400D01*
X132296286Y-87375403D01*
X132439547Y-87331946D01*
X132571576Y-87261374D01*
X132687301Y-87166401D01*
X132711104Y-87137397D01*
X133719462Y-86129039D01*
X140358096Y-86129039D01*
X140398754Y-86263087D01*
X140518963Y-86517420D01*
X140686481Y-86743414D01*
X140894869Y-86932385D01*
X141136119Y-87077070D01*
X141400960Y-87171909D01*
X141623000Y-87050624D01*
X141623000Y-85907000D01*
X141877000Y-85907000D01*
X141877000Y-87050624D01*
X142099040Y-87171909D01*
X142363881Y-87077070D01*
X142605131Y-86932385D01*
X142813519Y-86743414D01*
X142981037Y-86517420D01*
X143101246Y-86263087D01*
X143141904Y-86129039D01*
X143019915Y-85907000D01*
X141877000Y-85907000D01*
X141623000Y-85907000D01*
X140480085Y-85907000D01*
X140358096Y-86129039D01*
X133719462Y-86129039D01*
X134723202Y-85125300D01*
X140479866Y-85125300D01*
X140398754Y-85296913D01*
X140358096Y-85430961D01*
X140480085Y-85653000D01*
X141623000Y-85653000D01*
X141623000Y-85633000D01*
X141877000Y-85633000D01*
X141877000Y-85653000D01*
X143019915Y-85653000D01*
X143141904Y-85430961D01*
X143101246Y-85296913D01*
X143020134Y-85125300D01*
X147082078Y-85125300D01*
X147119400Y-85128976D01*
X147156722Y-85125300D01*
X147156733Y-85125300D01*
X147268386Y-85114303D01*
X147411647Y-85070846D01*
X147543676Y-85000274D01*
X147659401Y-84905301D01*
X147683204Y-84876298D01*
X148327630Y-84231872D01*
X148350392Y-84259608D01*
X148568899Y-84438932D01*
X148701858Y-84510000D01*
X148568899Y-84581068D01*
X148350392Y-84760392D01*
X148171068Y-84978899D01*
X148037818Y-85228192D01*
X147955764Y-85498691D01*
X147928057Y-85780000D01*
X147955764Y-86061309D01*
X148037818Y-86331808D01*
X148171068Y-86581101D01*
X148350392Y-86799608D01*
X148568899Y-86978932D01*
X148818192Y-87112182D01*
X149088691Y-87194236D01*
X149299508Y-87215000D01*
X149440492Y-87215000D01*
X149651309Y-87194236D01*
X149921808Y-87112182D01*
X150171101Y-86978932D01*
X150389608Y-86799608D01*
X150568932Y-86581101D01*
X150702182Y-86331808D01*
X150784236Y-86061309D01*
X150811943Y-85780000D01*
X150784236Y-85498691D01*
X150702182Y-85228192D01*
X150568932Y-84978899D01*
X150389608Y-84760392D01*
X150171101Y-84581068D01*
X150038142Y-84510000D01*
X150171101Y-84438932D01*
X150389608Y-84259608D01*
X150568932Y-84041101D01*
X150702182Y-83791808D01*
X150784236Y-83521309D01*
X150811943Y-83240000D01*
X150784236Y-82958691D01*
X150702182Y-82688192D01*
X150568932Y-82438899D01*
X150389608Y-82220392D01*
X150171101Y-82041068D01*
X150038142Y-81970000D01*
X150171101Y-81898932D01*
X150389608Y-81719608D01*
X150568932Y-81501101D01*
X150702182Y-81251808D01*
X150784236Y-80981309D01*
X150811943Y-80700000D01*
X150784236Y-80418691D01*
X150702182Y-80148192D01*
X150568932Y-79898899D01*
X150389608Y-79680392D01*
X150171101Y-79501068D01*
X150038142Y-79430000D01*
X150171101Y-79358932D01*
X150389608Y-79179608D01*
X150568932Y-78961101D01*
X150702182Y-78711808D01*
X150784236Y-78441309D01*
X150811943Y-78160000D01*
X150784236Y-77878691D01*
X150702182Y-77608192D01*
X150568932Y-77358899D01*
X150389608Y-77140392D01*
X150171101Y-76961068D01*
X150038142Y-76890000D01*
X150171101Y-76818932D01*
X150389608Y-76639608D01*
X150568932Y-76421101D01*
X150702182Y-76171808D01*
X150784236Y-75901309D01*
X150811943Y-75620000D01*
X150784236Y-75338691D01*
X150702182Y-75068192D01*
X150568932Y-74818899D01*
X150389608Y-74600392D01*
X150171101Y-74421068D01*
X150038142Y-74350000D01*
X150171101Y-74278932D01*
X150389608Y-74099608D01*
X150568932Y-73881101D01*
X150702182Y-73631808D01*
X150784236Y-73361309D01*
X150811943Y-73080000D01*
X150784236Y-72798691D01*
X150702182Y-72528192D01*
X150568932Y-72278899D01*
X150389608Y-72060392D01*
X150171101Y-71881068D01*
X150038142Y-71810000D01*
X150171101Y-71738932D01*
X150389608Y-71559608D01*
X150568932Y-71341101D01*
X150702182Y-71091808D01*
X150784236Y-70821309D01*
X150811943Y-70540000D01*
X150784236Y-70258691D01*
X150702182Y-69988192D01*
X150568932Y-69738899D01*
X150389608Y-69520392D01*
X150171101Y-69341068D01*
X150038142Y-69270000D01*
X150171101Y-69198932D01*
X150389608Y-69019608D01*
X150568932Y-68801101D01*
X150702182Y-68551808D01*
X150784236Y-68281309D01*
X150811943Y-68000000D01*
X150784236Y-67718691D01*
X150702182Y-67448192D01*
X150568932Y-67198899D01*
X150389608Y-66980392D01*
X150305000Y-66910956D01*
X150305000Y-66745632D01*
X150309524Y-66699700D01*
X150291471Y-66516408D01*
X150259849Y-66412164D01*
X150350130Y-66398787D01*
X150616292Y-66303603D01*
X150741514Y-66236671D01*
X150813097Y-65992702D01*
X150000000Y-65179605D01*
X149985858Y-65193748D01*
X149806253Y-65014143D01*
X149820395Y-65000000D01*
X150179605Y-65000000D01*
X150992702Y-65813097D01*
X151236671Y-65741514D01*
X151357571Y-65486004D01*
X151426300Y-65211816D01*
X151440217Y-64929488D01*
X151398787Y-64649870D01*
X151303603Y-64383708D01*
X151236671Y-64258486D01*
X150992702Y-64186903D01*
X150179605Y-65000000D01*
X149820395Y-65000000D01*
X149007298Y-64186903D01*
X148763329Y-64258486D01*
X148749676Y-64287341D01*
X148614637Y-64085241D01*
X148536694Y-64007298D01*
X149186903Y-64007298D01*
X150000000Y-64820395D01*
X150813097Y-64007298D01*
X150741514Y-63763329D01*
X150486004Y-63642429D01*
X150211816Y-63573700D01*
X149929488Y-63559783D01*
X149649870Y-63601213D01*
X149383708Y-63696397D01*
X149258486Y-63763329D01*
X149186903Y-64007298D01*
X148536694Y-64007298D01*
X148414759Y-63885363D01*
X148179727Y-63728320D01*
X147918574Y-63620147D01*
X147641335Y-63565000D01*
X147358665Y-63565000D01*
X147081426Y-63620147D01*
X146820273Y-63728320D01*
X146585241Y-63885363D01*
X146385363Y-64085241D01*
X146228320Y-64320273D01*
X146120147Y-64581426D01*
X146065000Y-64858665D01*
X146065000Y-65141335D01*
X146120147Y-65418574D01*
X146228320Y-65679727D01*
X146385363Y-65914759D01*
X146585241Y-66114637D01*
X146820273Y-66271680D01*
X147081426Y-66379853D01*
X147358665Y-66435000D01*
X147612711Y-66435000D01*
X148263717Y-67086006D01*
X148171068Y-67198899D01*
X148037818Y-67448192D01*
X147955764Y-67718691D01*
X147928057Y-68000000D01*
X147955764Y-68281309D01*
X148037818Y-68551808D01*
X148171068Y-68801101D01*
X148350392Y-69019608D01*
X148568899Y-69198932D01*
X148701858Y-69270000D01*
X148568899Y-69341068D01*
X148350392Y-69520392D01*
X148171068Y-69738899D01*
X148145861Y-69786058D01*
X148095714Y-69790997D01*
X147952453Y-69834454D01*
X147820424Y-69905026D01*
X147704699Y-69999999D01*
X147609726Y-70115724D01*
X147539154Y-70247753D01*
X147495697Y-70391014D01*
X147484281Y-70506917D01*
X143026737Y-74964462D01*
X142948932Y-74818899D01*
X142769608Y-74600392D01*
X142551101Y-74421068D01*
X142418142Y-74350000D01*
X142551101Y-74278932D01*
X142769608Y-74099608D01*
X142948932Y-73881101D01*
X143082182Y-73631808D01*
X143164236Y-73361309D01*
X143191943Y-73080000D01*
X143164236Y-72798691D01*
X143082182Y-72528192D01*
X142948932Y-72278899D01*
X142769608Y-72060392D01*
X142551101Y-71881068D01*
X142418142Y-71810000D01*
X142551101Y-71738932D01*
X142769608Y-71559608D01*
X142948932Y-71341101D01*
X143082182Y-71091808D01*
X143164236Y-70821309D01*
X143191943Y-70540000D01*
X143164236Y-70258691D01*
X143082182Y-69988192D01*
X142948932Y-69738899D01*
X142769608Y-69520392D01*
X142656518Y-69427581D01*
X142674482Y-69425812D01*
X142794180Y-69389502D01*
X142904494Y-69330537D01*
X143001185Y-69251185D01*
X143080537Y-69154494D01*
X143139502Y-69044180D01*
X143175812Y-68924482D01*
X143188072Y-68800000D01*
X143188072Y-67200000D01*
X143175812Y-67075518D01*
X143139502Y-66955820D01*
X143080537Y-66845506D01*
X143001185Y-66748815D01*
X142904494Y-66669463D01*
X142794180Y-66610498D01*
X142674482Y-66574188D01*
X142550000Y-66561928D01*
X142444575Y-66561928D01*
X142384974Y-66450424D01*
X142342597Y-66398787D01*
X142313799Y-66363696D01*
X142313795Y-66363692D01*
X142290001Y-66334699D01*
X142261008Y-66310905D01*
X136263704Y-60313603D01*
X136239901Y-60284599D01*
X136124176Y-60189626D01*
X135992147Y-60119054D01*
X135862562Y-60079746D01*
X135888599Y-60031034D01*
X135973513Y-59751111D01*
X136002185Y-59460000D01*
X135973513Y-59168889D01*
X135888599Y-58888966D01*
X135750706Y-58630986D01*
X135565134Y-58404866D01*
X135339014Y-58219294D01*
X135081034Y-58081401D01*
X134801111Y-57996487D01*
X134582950Y-57975000D01*
X134437050Y-57975000D01*
X134218889Y-57996487D01*
X133938966Y-58081401D01*
X133680986Y-58219294D01*
X133616125Y-58272524D01*
X133092303Y-57748702D01*
X133068501Y-57719699D01*
X132952776Y-57624726D01*
X132820747Y-57554154D01*
X132677486Y-57510697D01*
X132565833Y-57499700D01*
X132565822Y-57499700D01*
X132528500Y-57496024D01*
X132491178Y-57499700D01*
X123894922Y-57499700D01*
X123857599Y-57496024D01*
X123820276Y-57499700D01*
X123820267Y-57499700D01*
X123708614Y-57510697D01*
X123565353Y-57554154D01*
X123433324Y-57624726D01*
X123433322Y-57624727D01*
X123433323Y-57624727D01*
X123346596Y-57695901D01*
X123346592Y-57695905D01*
X123317599Y-57719699D01*
X123293805Y-57748692D01*
X122740180Y-58302319D01*
X122639014Y-58219294D01*
X122381034Y-58081401D01*
X122101111Y-57996487D01*
X121882950Y-57975000D01*
X121737050Y-57975000D01*
X121518889Y-57996487D01*
X121238966Y-58081401D01*
X120980986Y-58219294D01*
X120754866Y-58404866D01*
X120569294Y-58630986D01*
X120540000Y-58685791D01*
X120510706Y-58630986D01*
X120325134Y-58404866D01*
X120099014Y-58219294D01*
X119841034Y-58081401D01*
X119561111Y-57996487D01*
X119342950Y-57975000D01*
X119197050Y-57975000D01*
X118978889Y-57996487D01*
X118698966Y-58081401D01*
X118440986Y-58219294D01*
X118214866Y-58404866D01*
X118029294Y-58630986D01*
X118000000Y-58685791D01*
X117970706Y-58630986D01*
X117785134Y-58404866D01*
X117559014Y-58219294D01*
X117301034Y-58081401D01*
X117021111Y-57996487D01*
X116802950Y-57975000D01*
X116657050Y-57975000D01*
X116438889Y-57996487D01*
X116158966Y-58081401D01*
X115900986Y-58219294D01*
X115821406Y-58284604D01*
X114836404Y-57299603D01*
X114812601Y-57270599D01*
X114696876Y-57175626D01*
X114564847Y-57105054D01*
X114421586Y-57061597D01*
X114309933Y-57050600D01*
X114309922Y-57050600D01*
X114272600Y-57046924D01*
X114235278Y-57050600D01*
X93889625Y-57050600D01*
X93852300Y-57046924D01*
X93814975Y-57050600D01*
X93814967Y-57050600D01*
X93703314Y-57061597D01*
X93560053Y-57105054D01*
X93428024Y-57175626D01*
X93312299Y-57270599D01*
X93288501Y-57299597D01*
X92274241Y-58313858D01*
X92159014Y-58219294D01*
X91901034Y-58081401D01*
X91621111Y-57996487D01*
X91402950Y-57975000D01*
X91257050Y-57975000D01*
X91038889Y-57996487D01*
X90758966Y-58081401D01*
X90500986Y-58219294D01*
X90274866Y-58404866D01*
X90089294Y-58630986D01*
X90054799Y-58695523D01*
X89985178Y-58578645D01*
X89790269Y-58362412D01*
X89556920Y-58188359D01*
X89294099Y-58063175D01*
X89146890Y-58018524D01*
X88917000Y-58139845D01*
X88917000Y-59333000D01*
X88937000Y-59333000D01*
X88937000Y-59587000D01*
X88917000Y-59587000D01*
X88917000Y-59607000D01*
X88663000Y-59607000D01*
X88663000Y-59587000D01*
X86377000Y-59587000D01*
X86377000Y-59607000D01*
X86123000Y-59607000D01*
X86123000Y-59587000D01*
X84929186Y-59587000D01*
X84808519Y-59816891D01*
X84905843Y-60091252D01*
X85054822Y-60341355D01*
X85231626Y-60537502D01*
X85155820Y-60560498D01*
X85045506Y-60619463D01*
X84948815Y-60698815D01*
X84869463Y-60795506D01*
X84810498Y-60905820D01*
X84774188Y-61025518D01*
X84769482Y-61073302D01*
X84729922Y-61077198D01*
X84716408Y-61078529D01*
X84540160Y-61131993D01*
X84377728Y-61218814D01*
X84235356Y-61335656D01*
X84118514Y-61478028D01*
X84031693Y-61640460D01*
X83978229Y-61816708D01*
X83960176Y-62000000D01*
X83964700Y-62045933D01*
X83964701Y-62763309D01*
X80000000Y-66728011D01*
X75761097Y-62489108D01*
X75830537Y-62404494D01*
X75889502Y-62294180D01*
X75925812Y-62174482D01*
X75938072Y-62050000D01*
X75938072Y-60450000D01*
X75925812Y-60325518D01*
X75889502Y-60205820D01*
X75830537Y-60095506D01*
X75751185Y-59998815D01*
X75654494Y-59919463D01*
X75544180Y-59860498D01*
X75424482Y-59824188D01*
X75300000Y-59811928D01*
X75292785Y-59811928D01*
X75313097Y-59742702D01*
X74500000Y-58929605D01*
X73686903Y-59742702D01*
X73707215Y-59811928D01*
X73700000Y-59811928D01*
X73575518Y-59824188D01*
X73455820Y-59860498D01*
X73345506Y-59919463D01*
X73248815Y-59998815D01*
X73169463Y-60095506D01*
X73110498Y-60205820D01*
X73074188Y-60325518D01*
X73061928Y-60450000D01*
X73061928Y-62050000D01*
X73074188Y-62174482D01*
X73110498Y-62294180D01*
X73169463Y-62404494D01*
X73248815Y-62501185D01*
X73345506Y-62580537D01*
X73455820Y-62639502D01*
X73572756Y-62674974D01*
X73578529Y-62733591D01*
X73631254Y-62907401D01*
X73631994Y-62909840D01*
X73718815Y-63072272D01*
X73835657Y-63214644D01*
X73871336Y-63243925D01*
X79065001Y-68437590D01*
X79065000Y-83155604D01*
X78885363Y-83335241D01*
X78751308Y-83535869D01*
X78736671Y-83508486D01*
X78492702Y-83436903D01*
X77679605Y-84250000D01*
X78492702Y-85063097D01*
X78736671Y-84991514D01*
X78750324Y-84962659D01*
X78885363Y-85164759D01*
X79085241Y-85364637D01*
X79280197Y-85494902D01*
X79255199Y-85519900D01*
X78179346Y-85519900D01*
X78241514Y-85486671D01*
X78313097Y-85242702D01*
X77500000Y-84429605D01*
X76686903Y-85242702D01*
X76758486Y-85486671D01*
X76828712Y-85519900D01*
X73470848Y-85519900D01*
X73448932Y-85478899D01*
X73269608Y-85260392D01*
X73051101Y-85081068D01*
X72913318Y-85007421D01*
X73105131Y-84892385D01*
X73313519Y-84703414D01*
X73481037Y-84477420D01*
X73555198Y-84320512D01*
X76059783Y-84320512D01*
X76101213Y-84600130D01*
X76196397Y-84866292D01*
X76263329Y-84991514D01*
X76507298Y-85063097D01*
X77320395Y-84250000D01*
X76507298Y-83436903D01*
X76263329Y-83508486D01*
X76142429Y-83763996D01*
X76073700Y-84038184D01*
X76059783Y-84320512D01*
X73555198Y-84320512D01*
X73601246Y-84223087D01*
X73641904Y-84089039D01*
X73519915Y-83867000D01*
X72377000Y-83867000D01*
X72377000Y-83887000D01*
X72123000Y-83887000D01*
X72123000Y-83867000D01*
X72103000Y-83867000D01*
X72103000Y-83613000D01*
X72123000Y-83613000D01*
X72123000Y-83593000D01*
X72377000Y-83593000D01*
X72377000Y-83613000D01*
X73519915Y-83613000D01*
X73641904Y-83390961D01*
X73601363Y-83257298D01*
X76686903Y-83257298D01*
X77500000Y-84070395D01*
X78313097Y-83257298D01*
X78241514Y-83013329D01*
X77986004Y-82892429D01*
X77711816Y-82823700D01*
X77429488Y-82809783D01*
X77149870Y-82851213D01*
X76883708Y-82946397D01*
X76758486Y-83013329D01*
X76686903Y-83257298D01*
X73601363Y-83257298D01*
X73601246Y-83256913D01*
X73481037Y-83002580D01*
X73313519Y-82776586D01*
X73105131Y-82587615D01*
X72913318Y-82472579D01*
X73051101Y-82398932D01*
X73269608Y-82219608D01*
X73448932Y-82001101D01*
X73582182Y-81751808D01*
X73664236Y-81481309D01*
X73691943Y-81200000D01*
X73664236Y-80918691D01*
X73582182Y-80648192D01*
X73448932Y-80398899D01*
X73269608Y-80180392D01*
X73051101Y-80001068D01*
X72918142Y-79930000D01*
X73051101Y-79858932D01*
X73269608Y-79679608D01*
X73448932Y-79461101D01*
X73582182Y-79211808D01*
X73664236Y-78941309D01*
X73691943Y-78660000D01*
X73664236Y-78378691D01*
X73582182Y-78108192D01*
X73448932Y-77858899D01*
X73349527Y-77737774D01*
X73926004Y-77161298D01*
X73955001Y-77137501D01*
X74049974Y-77021776D01*
X74120546Y-76889747D01*
X74164003Y-76746486D01*
X74175000Y-76634833D01*
X74175000Y-76634824D01*
X74178676Y-76597501D01*
X74175000Y-76560178D01*
X74175000Y-70591422D01*
X74178676Y-70554099D01*
X74175000Y-70516776D01*
X74175000Y-70516767D01*
X74164003Y-70405114D01*
X74120546Y-70261853D01*
X74081711Y-70189199D01*
X74049974Y-70129823D01*
X73978799Y-70043097D01*
X73955001Y-70014099D01*
X73926003Y-69990301D01*
X73583901Y-69648200D01*
X73639502Y-69544180D01*
X73675812Y-69424482D01*
X73688072Y-69300000D01*
X73688072Y-67700000D01*
X73675812Y-67575518D01*
X73639502Y-67455820D01*
X73580537Y-67345506D01*
X73501185Y-67248815D01*
X73404494Y-67169463D01*
X73294180Y-67110498D01*
X73174482Y-67074188D01*
X73050000Y-67061928D01*
X71450000Y-67061928D01*
X71325518Y-67074188D01*
X71205820Y-67110498D01*
X71095506Y-67169463D01*
X70998815Y-67248815D01*
X70976053Y-67276551D01*
X69305404Y-65605903D01*
X69281601Y-65576899D01*
X69165876Y-65481926D01*
X69033847Y-65411354D01*
X68890586Y-65367897D01*
X68778933Y-65356900D01*
X68778922Y-65356900D01*
X68741600Y-65353224D01*
X68704278Y-65356900D01*
X68114773Y-65356900D01*
X68128599Y-65331034D01*
X68213513Y-65051111D01*
X68242185Y-64760000D01*
X68213513Y-64468889D01*
X68128599Y-64188966D01*
X67990706Y-63930986D01*
X67805134Y-63704866D01*
X67579014Y-63519294D01*
X67321034Y-63381401D01*
X67041111Y-63296487D01*
X66822950Y-63275000D01*
X66677050Y-63275000D01*
X66458889Y-63296487D01*
X66178966Y-63381401D01*
X65920986Y-63519294D01*
X65694866Y-63704866D01*
X65509294Y-63930986D01*
X65478416Y-63988756D01*
X65307588Y-63759731D01*
X65091355Y-63564822D01*
X64841252Y-63415843D01*
X64566891Y-63318519D01*
X64337000Y-63439186D01*
X64337000Y-64633000D01*
X64357000Y-64633000D01*
X64357000Y-64887000D01*
X64337000Y-64887000D01*
X64337000Y-64907000D01*
X64083000Y-64907000D01*
X64083000Y-64887000D01*
X62889845Y-64887000D01*
X62768524Y-65116890D01*
X62813175Y-65264099D01*
X62938359Y-65526920D01*
X63066407Y-65698591D01*
X62523702Y-66241297D01*
X62494699Y-66265099D01*
X62439571Y-66332274D01*
X62399726Y-66380824D01*
X62354252Y-66465900D01*
X62329154Y-66512854D01*
X62285697Y-66656115D01*
X62274700Y-66767768D01*
X62274700Y-66767778D01*
X62271024Y-66805100D01*
X60710000Y-66805100D01*
X60710000Y-64403110D01*
X62768524Y-64403110D01*
X62889845Y-64633000D01*
X64083000Y-64633000D01*
X64083000Y-63439186D01*
X63853109Y-63318519D01*
X63578748Y-63415843D01*
X63328645Y-63564822D01*
X63112412Y-63759731D01*
X62938359Y-63993080D01*
X62813175Y-64255901D01*
X62768524Y-64403110D01*
X60710000Y-64403110D01*
X60710000Y-58820512D01*
X73059783Y-58820512D01*
X73101213Y-59100130D01*
X73196397Y-59366292D01*
X73263329Y-59491514D01*
X73507298Y-59563097D01*
X74320395Y-58750000D01*
X74679605Y-58750000D01*
X75492702Y-59563097D01*
X75736671Y-59491514D01*
X75857571Y-59236004D01*
X75890882Y-59103109D01*
X84808519Y-59103109D01*
X84929186Y-59333000D01*
X86123000Y-59333000D01*
X86123000Y-58139845D01*
X86377000Y-58139845D01*
X86377000Y-59333000D01*
X88663000Y-59333000D01*
X88663000Y-58139845D01*
X88433110Y-58018524D01*
X88285901Y-58063175D01*
X88023080Y-58188359D01*
X87789731Y-58362412D01*
X87594822Y-58578645D01*
X87520000Y-58704255D01*
X87445178Y-58578645D01*
X87250269Y-58362412D01*
X87016920Y-58188359D01*
X86754099Y-58063175D01*
X86606890Y-58018524D01*
X86377000Y-58139845D01*
X86123000Y-58139845D01*
X85893110Y-58018524D01*
X85745901Y-58063175D01*
X85483080Y-58188359D01*
X85249731Y-58362412D01*
X85054822Y-58578645D01*
X84905843Y-58828748D01*
X84808519Y-59103109D01*
X75890882Y-59103109D01*
X75926300Y-58961816D01*
X75940217Y-58679488D01*
X75898787Y-58399870D01*
X75803603Y-58133708D01*
X75736671Y-58008486D01*
X75492702Y-57936903D01*
X74679605Y-58750000D01*
X74320395Y-58750000D01*
X73507298Y-57936903D01*
X73263329Y-58008486D01*
X73142429Y-58263996D01*
X73073700Y-58538184D01*
X73059783Y-58820512D01*
X60710000Y-58820512D01*
X60710000Y-57757298D01*
X73686903Y-57757298D01*
X74500000Y-58570395D01*
X75313097Y-57757298D01*
X75241514Y-57513329D01*
X74986004Y-57392429D01*
X74711816Y-57323700D01*
X74429488Y-57309783D01*
X74149870Y-57351213D01*
X73883708Y-57446397D01*
X73758486Y-57513329D01*
X73686903Y-57757298D01*
X60710000Y-57757298D01*
X60710000Y-54279872D01*
X63265000Y-54279872D01*
X63265000Y-54720128D01*
X63350890Y-55151925D01*
X63519369Y-55558669D01*
X63763962Y-55924729D01*
X64075271Y-56236038D01*
X64441331Y-56480631D01*
X64848075Y-56649110D01*
X65279872Y-56735000D01*
X65720128Y-56735000D01*
X66151925Y-56649110D01*
X66558669Y-56480631D01*
X66924729Y-56236038D01*
X67236038Y-55924729D01*
X67480631Y-55558669D01*
X67649110Y-55151925D01*
X67735000Y-54720128D01*
X67735000Y-54279872D01*
X152265000Y-54279872D01*
X152265000Y-54720128D01*
X152350890Y-55151925D01*
X152519369Y-55558669D01*
X152763962Y-55924729D01*
X153075271Y-56236038D01*
X153441331Y-56480631D01*
X153848075Y-56649110D01*
X154279872Y-56735000D01*
X154720128Y-56735000D01*
X155151925Y-56649110D01*
X155558669Y-56480631D01*
X155924729Y-56236038D01*
X156236038Y-55924729D01*
X156480631Y-55558669D01*
X156649110Y-55151925D01*
X156735000Y-54720128D01*
X156735000Y-54279872D01*
X156649110Y-53848075D01*
X156480631Y-53441331D01*
X156236038Y-53075271D01*
X155924729Y-52763962D01*
X155558669Y-52519369D01*
X155151925Y-52350890D01*
X154720128Y-52265000D01*
X154279872Y-52265000D01*
X153848075Y-52350890D01*
X153441331Y-52519369D01*
X153075271Y-52763962D01*
X152763962Y-53075271D01*
X152519369Y-53441331D01*
X152350890Y-53848075D01*
X152265000Y-54279872D01*
X67735000Y-54279872D01*
X67649110Y-53848075D01*
X67480631Y-53441331D01*
X67236038Y-53075271D01*
X66924729Y-52763962D01*
X66558669Y-52519369D01*
X66151925Y-52350890D01*
X65720128Y-52265000D01*
X65279872Y-52265000D01*
X64848075Y-52350890D01*
X64441331Y-52519369D01*
X64075271Y-52763962D01*
X63763962Y-53075271D01*
X63519369Y-53441331D01*
X63350890Y-53848075D01*
X63265000Y-54279872D01*
X60710000Y-54279872D01*
X60710000Y-50710000D01*
X159290000Y-50710000D01*
X159290001Y-124290000D01*
G36*
X86291068Y-94701101D02*
G01*
X86470392Y-94919608D01*
X86688899Y-95098932D01*
X86821858Y-95170000D01*
X86688899Y-95241068D01*
X86470392Y-95420392D01*
X86291068Y-95638899D01*
X86157818Y-95888192D01*
X86075764Y-96158691D01*
X86048057Y-96440000D01*
X86075764Y-96721309D01*
X86157818Y-96991808D01*
X86291068Y-97241101D01*
X86470392Y-97459608D01*
X86688899Y-97638932D01*
X86821858Y-97710000D01*
X86688899Y-97781068D01*
X86470392Y-97960392D01*
X86291068Y-98178899D01*
X86157818Y-98428192D01*
X86075764Y-98698691D01*
X86048057Y-98980000D01*
X86075764Y-99261309D01*
X86157818Y-99531808D01*
X86291068Y-99781101D01*
X86470392Y-99999608D01*
X86688899Y-100178932D01*
X86821858Y-100250000D01*
X86688899Y-100321068D01*
X86470392Y-100500392D01*
X86291068Y-100718899D01*
X86157818Y-100968192D01*
X86075764Y-101238691D01*
X86048057Y-101520000D01*
X86075764Y-101801309D01*
X86157818Y-102071808D01*
X86291068Y-102321101D01*
X86470392Y-102539608D01*
X86688899Y-102718932D01*
X86821858Y-102790000D01*
X86688899Y-102861068D01*
X86470392Y-103040392D01*
X86400956Y-103125000D01*
X86235632Y-103125000D01*
X86189700Y-103120476D01*
X86143768Y-103125000D01*
X86006408Y-103138529D01*
X85830160Y-103191993D01*
X85667728Y-103278814D01*
X85525356Y-103395656D01*
X85408514Y-103538028D01*
X85321693Y-103700460D01*
X85268229Y-103876708D01*
X85250176Y-104060000D01*
X85254701Y-104105942D01*
X85254700Y-117286268D01*
X85250176Y-117332200D01*
X85263310Y-117465546D01*
X85268229Y-117515491D01*
X85321693Y-117691739D01*
X85408514Y-117854171D01*
X85525356Y-117996544D01*
X85561041Y-118025830D01*
X86250270Y-118715059D01*
X86279556Y-118750744D01*
X86377592Y-118831200D01*
X85451002Y-118831200D01*
X76518804Y-109899003D01*
X76495001Y-109869999D01*
X76379276Y-109775026D01*
X76247247Y-109704454D01*
X76103986Y-109660997D01*
X75992333Y-109650000D01*
X75992322Y-109650000D01*
X75955000Y-109646324D01*
X75917678Y-109650000D01*
X73594864Y-109650000D01*
X73664236Y-109421309D01*
X73691943Y-109140000D01*
X73664236Y-108858691D01*
X73582182Y-108588192D01*
X73448932Y-108338899D01*
X73352187Y-108221014D01*
X85414204Y-96158998D01*
X85443201Y-96135201D01*
X85538174Y-96019476D01*
X85608746Y-95887447D01*
X85652203Y-95744186D01*
X85663200Y-95632533D01*
X85663200Y-95632532D01*
X85666877Y-95595200D01*
X85663200Y-95557867D01*
X85663200Y-95115101D01*
X86216572Y-94561729D01*
X86291068Y-94701101D01*
X86291068Y-94701101D01*
G37*
X86291068Y-94701101D02*
X86470392Y-94919608D01*
X86688899Y-95098932D01*
X86821858Y-95170000D01*
X86688899Y-95241068D01*
X86470392Y-95420392D01*
X86291068Y-95638899D01*
X86157818Y-95888192D01*
X86075764Y-96158691D01*
X86048057Y-96440000D01*
X86075764Y-96721309D01*
X86157818Y-96991808D01*
X86291068Y-97241101D01*
X86470392Y-97459608D01*
X86688899Y-97638932D01*
X86821858Y-97710000D01*
X86688899Y-97781068D01*
X86470392Y-97960392D01*
X86291068Y-98178899D01*
X86157818Y-98428192D01*
X86075764Y-98698691D01*
X86048057Y-98980000D01*
X86075764Y-99261309D01*
X86157818Y-99531808D01*
X86291068Y-99781101D01*
X86470392Y-99999608D01*
X86688899Y-100178932D01*
X86821858Y-100250000D01*
X86688899Y-100321068D01*
X86470392Y-100500392D01*
X86291068Y-100718899D01*
X86157818Y-100968192D01*
X86075764Y-101238691D01*
X86048057Y-101520000D01*
X86075764Y-101801309D01*
X86157818Y-102071808D01*
X86291068Y-102321101D01*
X86470392Y-102539608D01*
X86688899Y-102718932D01*
X86821858Y-102790000D01*
X86688899Y-102861068D01*
X86470392Y-103040392D01*
X86400956Y-103125000D01*
X86235632Y-103125000D01*
X86189700Y-103120476D01*
X86143768Y-103125000D01*
X86006408Y-103138529D01*
X85830160Y-103191993D01*
X85667728Y-103278814D01*
X85525356Y-103395656D01*
X85408514Y-103538028D01*
X85321693Y-103700460D01*
X85268229Y-103876708D01*
X85250176Y-104060000D01*
X85254701Y-104105942D01*
X85254700Y-117286268D01*
X85250176Y-117332200D01*
X85263310Y-117465546D01*
X85268229Y-117515491D01*
X85321693Y-117691739D01*
X85408514Y-117854171D01*
X85525356Y-117996544D01*
X85561041Y-118025830D01*
X86250270Y-118715059D01*
X86279556Y-118750744D01*
X86377592Y-118831200D01*
X85451002Y-118831200D01*
X76518804Y-109899003D01*
X76495001Y-109869999D01*
X76379276Y-109775026D01*
X76247247Y-109704454D01*
X76103986Y-109660997D01*
X75992333Y-109650000D01*
X75992322Y-109650000D01*
X75955000Y-109646324D01*
X75917678Y-109650000D01*
X73594864Y-109650000D01*
X73664236Y-109421309D01*
X73691943Y-109140000D01*
X73664236Y-108858691D01*
X73582182Y-108588192D01*
X73448932Y-108338899D01*
X73352187Y-108221014D01*
X85414204Y-96158998D01*
X85443201Y-96135201D01*
X85538174Y-96019476D01*
X85608746Y-95887447D01*
X85652203Y-95744186D01*
X85663200Y-95632533D01*
X85663200Y-95632532D01*
X85666877Y-95595200D01*
X85663200Y-95557867D01*
X85663200Y-95115101D01*
X86216572Y-94561729D01*
X86291068Y-94701101D01*
G36*
X107180901Y-81461003D02*
G01*
X107204699Y-81490001D01*
X107320424Y-81584974D01*
X107452453Y-81655546D01*
X107595714Y-81699003D01*
X107645861Y-81703942D01*
X107671068Y-81751101D01*
X107850392Y-81969608D01*
X108068899Y-82148932D01*
X108206682Y-82222579D01*
X108014869Y-82337615D01*
X107806481Y-82526586D01*
X107638963Y-82752580D01*
X107518754Y-83006913D01*
X107478096Y-83140961D01*
X107600085Y-83363000D01*
X108743000Y-83363000D01*
X108743000Y-83343000D01*
X108997000Y-83343000D01*
X108997000Y-83363000D01*
X109017000Y-83363000D01*
X109017000Y-83617000D01*
X108997000Y-83617000D01*
X108997000Y-83637000D01*
X108743000Y-83637000D01*
X108743000Y-83617000D01*
X107600085Y-83617000D01*
X107478096Y-83839039D01*
X107518754Y-83973087D01*
X107638963Y-84227420D01*
X107794009Y-84436589D01*
X106794900Y-85435699D01*
X106794900Y-85127711D01*
X106838837Y-85083774D01*
X106952105Y-84914256D01*
X107030126Y-84725898D01*
X107069900Y-84525939D01*
X107069900Y-84322061D01*
X107030126Y-84122102D01*
X106952105Y-83933744D01*
X106838837Y-83764226D01*
X106694674Y-83620063D01*
X106525156Y-83506795D01*
X106336798Y-83428774D01*
X106136839Y-83389000D01*
X105932961Y-83389000D01*
X105733002Y-83428774D01*
X105544644Y-83506795D01*
X105375126Y-83620063D01*
X105230963Y-83764226D01*
X105117695Y-83933744D01*
X105039674Y-84122102D01*
X104999900Y-84322061D01*
X104999900Y-84525939D01*
X105039674Y-84725898D01*
X105117695Y-84914256D01*
X105230963Y-85083774D01*
X105274901Y-85127712D01*
X105274900Y-111597578D01*
X105271224Y-111634900D01*
X105274900Y-111672222D01*
X105274900Y-111672232D01*
X105285897Y-111783885D01*
X105314796Y-111879154D01*
X105329354Y-111927146D01*
X105399926Y-112059176D01*
X105436938Y-112104275D01*
X105494899Y-112174901D01*
X105523903Y-112198704D01*
X109033628Y-115708430D01*
X109003000Y-115862408D01*
X109003000Y-116137592D01*
X109056686Y-116407490D01*
X109161995Y-116661727D01*
X109314880Y-116890535D01*
X109509465Y-117085120D01*
X109738273Y-117238005D01*
X109765401Y-117249242D01*
X109681020Y-117294344D01*
X109614040Y-117534435D01*
X110400000Y-118320395D01*
X111185960Y-117534435D01*
X111118980Y-117294344D01*
X111028467Y-117251782D01*
X111061727Y-117238005D01*
X111290535Y-117085120D01*
X111485120Y-116890535D01*
X111638005Y-116661727D01*
X111743314Y-116407490D01*
X111797000Y-116137592D01*
X111797000Y-115862408D01*
X111743314Y-115592510D01*
X111638005Y-115338273D01*
X111485120Y-115109465D01*
X111290535Y-114914880D01*
X111061727Y-114761995D01*
X110807490Y-114656686D01*
X110537592Y-114603000D01*
X110262408Y-114603000D01*
X110108430Y-114633628D01*
X106794900Y-111320099D01*
X106794900Y-109589039D01*
X122138096Y-109589039D01*
X122178754Y-109723087D01*
X122298963Y-109977420D01*
X122466481Y-110203414D01*
X122674869Y-110392385D01*
X122916119Y-110537070D01*
X123180960Y-110631909D01*
X123403000Y-110510624D01*
X123403000Y-109367000D01*
X122260085Y-109367000D01*
X122138096Y-109589039D01*
X106794900Y-109589039D01*
X106794900Y-94269101D01*
X107780885Y-95255087D01*
X107671068Y-95388899D01*
X107537818Y-95638192D01*
X107455764Y-95908691D01*
X107428057Y-96190000D01*
X107455764Y-96471309D01*
X107537818Y-96741808D01*
X107671068Y-96991101D01*
X107850392Y-97209608D01*
X108068899Y-97388932D01*
X108201858Y-97460000D01*
X108068899Y-97531068D01*
X107850392Y-97710392D01*
X107671068Y-97928899D01*
X107537818Y-98178192D01*
X107455764Y-98448691D01*
X107428057Y-98730000D01*
X107455764Y-99011309D01*
X107537818Y-99281808D01*
X107671068Y-99531101D01*
X107850392Y-99749608D01*
X108068899Y-99928932D01*
X108201858Y-100000000D01*
X108068899Y-100071068D01*
X107850392Y-100250392D01*
X107671068Y-100468899D01*
X107537818Y-100718192D01*
X107455764Y-100988691D01*
X107428057Y-101270000D01*
X107455764Y-101551309D01*
X107537818Y-101821808D01*
X107671068Y-102071101D01*
X107850392Y-102289608D01*
X108068899Y-102468932D01*
X108318192Y-102602182D01*
X108588691Y-102684236D01*
X108799508Y-102705000D01*
X108940492Y-102705000D01*
X109151309Y-102684236D01*
X109421808Y-102602182D01*
X109671101Y-102468932D01*
X109889608Y-102289608D01*
X110068932Y-102071101D01*
X110202182Y-101821808D01*
X110284236Y-101551309D01*
X110311943Y-101270000D01*
X110284236Y-100988691D01*
X110202182Y-100718192D01*
X110068932Y-100468899D01*
X109889608Y-100250392D01*
X109671101Y-100071068D01*
X109538142Y-100000000D01*
X109671101Y-99928932D01*
X109889608Y-99749608D01*
X110068932Y-99531101D01*
X110202182Y-99281808D01*
X110284236Y-99011309D01*
X110311943Y-98730000D01*
X110284236Y-98448691D01*
X110202182Y-98178192D01*
X110068932Y-97928899D01*
X109889608Y-97710392D01*
X109671101Y-97531068D01*
X109538142Y-97460000D01*
X109671101Y-97388932D01*
X109889608Y-97209608D01*
X110068932Y-96991101D01*
X110131167Y-96874668D01*
X121737500Y-108481002D01*
X121761299Y-108510001D01*
X121790297Y-108533799D01*
X121877023Y-108604974D01*
X122009053Y-108675546D01*
X122152314Y-108719003D01*
X122194699Y-108723178D01*
X122178754Y-108756913D01*
X122138096Y-108890961D01*
X122260085Y-109113000D01*
X123403000Y-109113000D01*
X123403000Y-109093000D01*
X123657000Y-109093000D01*
X123657000Y-109113000D01*
X123677000Y-109113000D01*
X123677000Y-109367000D01*
X123657000Y-109367000D01*
X123657000Y-110510624D01*
X123879040Y-110631909D01*
X124143881Y-110537070D01*
X124385131Y-110392385D01*
X124593519Y-110203414D01*
X124761037Y-109977420D01*
X124780480Y-109936283D01*
X125580000Y-110735803D01*
X125580001Y-114722405D01*
X125510986Y-114759294D01*
X125284866Y-114944866D01*
X125099294Y-115170986D01*
X125070000Y-115225791D01*
X125040706Y-115170986D01*
X124855134Y-114944866D01*
X124629014Y-114759294D01*
X124371034Y-114621401D01*
X124091111Y-114536487D01*
X123872950Y-114515000D01*
X123727050Y-114515000D01*
X123508889Y-114536487D01*
X123228966Y-114621401D01*
X122970986Y-114759294D01*
X122744866Y-114944866D01*
X122559294Y-115170986D01*
X122421401Y-115428966D01*
X122336487Y-115708889D01*
X122307815Y-116000000D01*
X122336487Y-116291111D01*
X122421401Y-116571034D01*
X122559294Y-116829014D01*
X122744866Y-117055134D01*
X122970986Y-117240706D01*
X123228966Y-117378599D01*
X123508889Y-117463513D01*
X123727050Y-117485000D01*
X123872950Y-117485000D01*
X124091111Y-117463513D01*
X124371034Y-117378599D01*
X124629014Y-117240706D01*
X124855134Y-117055134D01*
X125040706Y-116829014D01*
X125070000Y-116774209D01*
X125099294Y-116829014D01*
X125284866Y-117055134D01*
X125510986Y-117240706D01*
X125644974Y-117312324D01*
X124126099Y-118831200D01*
X111757182Y-118831200D01*
X111789023Y-118702865D01*
X111801910Y-118427983D01*
X111760922Y-118155867D01*
X111667636Y-117896977D01*
X111605656Y-117781020D01*
X111365565Y-117714040D01*
X110579605Y-118500000D01*
X110593748Y-118514143D01*
X110414143Y-118693748D01*
X110400000Y-118679605D01*
X110385858Y-118693748D01*
X110206253Y-118514143D01*
X110220395Y-118500000D01*
X109496396Y-117776001D01*
X109385120Y-117609465D01*
X109190535Y-117414880D01*
X108961727Y-117261995D01*
X108707490Y-117156686D01*
X108437592Y-117103000D01*
X108162408Y-117103000D01*
X108008430Y-117133628D01*
X104342400Y-113467599D01*
X104342400Y-89343625D01*
X104346076Y-89306300D01*
X104342400Y-89268975D01*
X104342400Y-89268967D01*
X104331403Y-89157314D01*
X104287946Y-89014053D01*
X104217374Y-88882024D01*
X104122401Y-88766299D01*
X104093403Y-88742501D01*
X102326629Y-86975728D01*
X102481037Y-86767420D01*
X102601246Y-86513087D01*
X102641904Y-86379039D01*
X102519915Y-86157000D01*
X101377000Y-86157000D01*
X101377000Y-86177000D01*
X101123000Y-86177000D01*
X101123000Y-86157000D01*
X101103000Y-86157000D01*
X101103000Y-85903000D01*
X101123000Y-85903000D01*
X101123000Y-85883000D01*
X101377000Y-85883000D01*
X101377000Y-85903000D01*
X102519915Y-85903000D01*
X102641904Y-85680961D01*
X102601246Y-85546913D01*
X102481037Y-85292580D01*
X102313519Y-85066586D01*
X102105131Y-84877615D01*
X101913318Y-84762579D01*
X102051101Y-84688932D01*
X102269608Y-84509608D01*
X102448932Y-84291101D01*
X102582182Y-84041808D01*
X102664236Y-83771309D01*
X102691943Y-83490000D01*
X102664236Y-83208691D01*
X102582182Y-82938192D01*
X102448932Y-82688899D01*
X102269608Y-82470392D01*
X102051101Y-82291068D01*
X101918142Y-82220000D01*
X102051101Y-82148932D01*
X102269608Y-81969608D01*
X102448932Y-81751101D01*
X102582182Y-81501808D01*
X102664236Y-81231309D01*
X102691943Y-80950000D01*
X102664236Y-80668691D01*
X102582182Y-80398192D01*
X102448932Y-80148899D01*
X102269608Y-79930392D01*
X102051101Y-79751068D01*
X101988840Y-79717789D01*
X101999003Y-79684286D01*
X102003942Y-79634139D01*
X102051101Y-79608932D01*
X102269608Y-79429608D01*
X102448932Y-79211101D01*
X102582182Y-78961808D01*
X102664236Y-78691309D01*
X102691943Y-78410000D01*
X102664236Y-78128691D01*
X102625350Y-78000500D01*
X103720399Y-78000500D01*
X107180901Y-81461003D01*
X107180901Y-81461003D01*
G37*
X107180901Y-81461003D02*
X107204699Y-81490001D01*
X107320424Y-81584974D01*
X107452453Y-81655546D01*
X107595714Y-81699003D01*
X107645861Y-81703942D01*
X107671068Y-81751101D01*
X107850392Y-81969608D01*
X108068899Y-82148932D01*
X108206682Y-82222579D01*
X108014869Y-82337615D01*
X107806481Y-82526586D01*
X107638963Y-82752580D01*
X107518754Y-83006913D01*
X107478096Y-83140961D01*
X107600085Y-83363000D01*
X108743000Y-83363000D01*
X108743000Y-83343000D01*
X108997000Y-83343000D01*
X108997000Y-83363000D01*
X109017000Y-83363000D01*
X109017000Y-83617000D01*
X108997000Y-83617000D01*
X108997000Y-83637000D01*
X108743000Y-83637000D01*
X108743000Y-83617000D01*
X107600085Y-83617000D01*
X107478096Y-83839039D01*
X107518754Y-83973087D01*
X107638963Y-84227420D01*
X107794009Y-84436589D01*
X106794900Y-85435699D01*
X106794900Y-85127711D01*
X106838837Y-85083774D01*
X106952105Y-84914256D01*
X107030126Y-84725898D01*
X107069900Y-84525939D01*
X107069900Y-84322061D01*
X107030126Y-84122102D01*
X106952105Y-83933744D01*
X106838837Y-83764226D01*
X106694674Y-83620063D01*
X106525156Y-83506795D01*
X106336798Y-83428774D01*
X106136839Y-83389000D01*
X105932961Y-83389000D01*
X105733002Y-83428774D01*
X105544644Y-83506795D01*
X105375126Y-83620063D01*
X105230963Y-83764226D01*
X105117695Y-83933744D01*
X105039674Y-84122102D01*
X104999900Y-84322061D01*
X104999900Y-84525939D01*
X105039674Y-84725898D01*
X105117695Y-84914256D01*
X105230963Y-85083774D01*
X105274901Y-85127712D01*
X105274900Y-111597578D01*
X105271224Y-111634900D01*
X105274900Y-111672222D01*
X105274900Y-111672232D01*
X105285897Y-111783885D01*
X105314796Y-111879154D01*
X105329354Y-111927146D01*
X105399926Y-112059176D01*
X105436938Y-112104275D01*
X105494899Y-112174901D01*
X105523903Y-112198704D01*
X109033628Y-115708430D01*
X109003000Y-115862408D01*
X109003000Y-116137592D01*
X109056686Y-116407490D01*
X109161995Y-116661727D01*
X109314880Y-116890535D01*
X109509465Y-117085120D01*
X109738273Y-117238005D01*
X109765401Y-117249242D01*
X109681020Y-117294344D01*
X109614040Y-117534435D01*
X110400000Y-118320395D01*
X111185960Y-117534435D01*
X111118980Y-117294344D01*
X111028467Y-117251782D01*
X111061727Y-117238005D01*
X111290535Y-117085120D01*
X111485120Y-116890535D01*
X111638005Y-116661727D01*
X111743314Y-116407490D01*
X111797000Y-116137592D01*
X111797000Y-115862408D01*
X111743314Y-115592510D01*
X111638005Y-115338273D01*
X111485120Y-115109465D01*
X111290535Y-114914880D01*
X111061727Y-114761995D01*
X110807490Y-114656686D01*
X110537592Y-114603000D01*
X110262408Y-114603000D01*
X110108430Y-114633628D01*
X106794900Y-111320099D01*
X106794900Y-109589039D01*
X122138096Y-109589039D01*
X122178754Y-109723087D01*
X122298963Y-109977420D01*
X122466481Y-110203414D01*
X122674869Y-110392385D01*
X122916119Y-110537070D01*
X123180960Y-110631909D01*
X123403000Y-110510624D01*
X123403000Y-109367000D01*
X122260085Y-109367000D01*
X122138096Y-109589039D01*
X106794900Y-109589039D01*
X106794900Y-94269101D01*
X107780885Y-95255087D01*
X107671068Y-95388899D01*
X107537818Y-95638192D01*
X107455764Y-95908691D01*
X107428057Y-96190000D01*
X107455764Y-96471309D01*
X107537818Y-96741808D01*
X107671068Y-96991101D01*
X107850392Y-97209608D01*
X108068899Y-97388932D01*
X108201858Y-97460000D01*
X108068899Y-97531068D01*
X107850392Y-97710392D01*
X107671068Y-97928899D01*
X107537818Y-98178192D01*
X107455764Y-98448691D01*
X107428057Y-98730000D01*
X107455764Y-99011309D01*
X107537818Y-99281808D01*
X107671068Y-99531101D01*
X107850392Y-99749608D01*
X108068899Y-99928932D01*
X108201858Y-100000000D01*
X108068899Y-100071068D01*
X107850392Y-100250392D01*
X107671068Y-100468899D01*
X107537818Y-100718192D01*
X107455764Y-100988691D01*
X107428057Y-101270000D01*
X107455764Y-101551309D01*
X107537818Y-101821808D01*
X107671068Y-102071101D01*
X107850392Y-102289608D01*
X108068899Y-102468932D01*
X108318192Y-102602182D01*
X108588691Y-102684236D01*
X108799508Y-102705000D01*
X108940492Y-102705000D01*
X109151309Y-102684236D01*
X109421808Y-102602182D01*
X109671101Y-102468932D01*
X109889608Y-102289608D01*
X110068932Y-102071101D01*
X110202182Y-101821808D01*
X110284236Y-101551309D01*
X110311943Y-101270000D01*
X110284236Y-100988691D01*
X110202182Y-100718192D01*
X110068932Y-100468899D01*
X109889608Y-100250392D01*
X109671101Y-100071068D01*
X109538142Y-100000000D01*
X109671101Y-99928932D01*
X109889608Y-99749608D01*
X110068932Y-99531101D01*
X110202182Y-99281808D01*
X110284236Y-99011309D01*
X110311943Y-98730000D01*
X110284236Y-98448691D01*
X110202182Y-98178192D01*
X110068932Y-97928899D01*
X109889608Y-97710392D01*
X109671101Y-97531068D01*
X109538142Y-97460000D01*
X109671101Y-97388932D01*
X109889608Y-97209608D01*
X110068932Y-96991101D01*
X110131167Y-96874668D01*
X121737500Y-108481002D01*
X121761299Y-108510001D01*
X121790297Y-108533799D01*
X121877023Y-108604974D01*
X122009053Y-108675546D01*
X122152314Y-108719003D01*
X122194699Y-108723178D01*
X122178754Y-108756913D01*
X122138096Y-108890961D01*
X122260085Y-109113000D01*
X123403000Y-109113000D01*
X123403000Y-109093000D01*
X123657000Y-109093000D01*
X123657000Y-109113000D01*
X123677000Y-109113000D01*
X123677000Y-109367000D01*
X123657000Y-109367000D01*
X123657000Y-110510624D01*
X123879040Y-110631909D01*
X124143881Y-110537070D01*
X124385131Y-110392385D01*
X124593519Y-110203414D01*
X124761037Y-109977420D01*
X124780480Y-109936283D01*
X125580000Y-110735803D01*
X125580001Y-114722405D01*
X125510986Y-114759294D01*
X125284866Y-114944866D01*
X125099294Y-115170986D01*
X125070000Y-115225791D01*
X125040706Y-115170986D01*
X124855134Y-114944866D01*
X124629014Y-114759294D01*
X124371034Y-114621401D01*
X124091111Y-114536487D01*
X123872950Y-114515000D01*
X123727050Y-114515000D01*
X123508889Y-114536487D01*
X123228966Y-114621401D01*
X122970986Y-114759294D01*
X122744866Y-114944866D01*
X122559294Y-115170986D01*
X122421401Y-115428966D01*
X122336487Y-115708889D01*
X122307815Y-116000000D01*
X122336487Y-116291111D01*
X122421401Y-116571034D01*
X122559294Y-116829014D01*
X122744866Y-117055134D01*
X122970986Y-117240706D01*
X123228966Y-117378599D01*
X123508889Y-117463513D01*
X123727050Y-117485000D01*
X123872950Y-117485000D01*
X124091111Y-117463513D01*
X124371034Y-117378599D01*
X124629014Y-117240706D01*
X124855134Y-117055134D01*
X125040706Y-116829014D01*
X125070000Y-116774209D01*
X125099294Y-116829014D01*
X125284866Y-117055134D01*
X125510986Y-117240706D01*
X125644974Y-117312324D01*
X124126099Y-118831200D01*
X111757182Y-118831200D01*
X111789023Y-118702865D01*
X111801910Y-118427983D01*
X111760922Y-118155867D01*
X111667636Y-117896977D01*
X111605656Y-117781020D01*
X111365565Y-117714040D01*
X110579605Y-118500000D01*
X110593748Y-118514143D01*
X110414143Y-118693748D01*
X110400000Y-118679605D01*
X110385858Y-118693748D01*
X110206253Y-118514143D01*
X110220395Y-118500000D01*
X109496396Y-117776001D01*
X109385120Y-117609465D01*
X109190535Y-117414880D01*
X108961727Y-117261995D01*
X108707490Y-117156686D01*
X108437592Y-117103000D01*
X108162408Y-117103000D01*
X108008430Y-117133628D01*
X104342400Y-113467599D01*
X104342400Y-89343625D01*
X104346076Y-89306300D01*
X104342400Y-89268975D01*
X104342400Y-89268967D01*
X104331403Y-89157314D01*
X104287946Y-89014053D01*
X104217374Y-88882024D01*
X104122401Y-88766299D01*
X104093403Y-88742501D01*
X102326629Y-86975728D01*
X102481037Y-86767420D01*
X102601246Y-86513087D01*
X102641904Y-86379039D01*
X102519915Y-86157000D01*
X101377000Y-86157000D01*
X101377000Y-86177000D01*
X101123000Y-86177000D01*
X101123000Y-86157000D01*
X101103000Y-86157000D01*
X101103000Y-85903000D01*
X101123000Y-85903000D01*
X101123000Y-85883000D01*
X101377000Y-85883000D01*
X101377000Y-85903000D01*
X102519915Y-85903000D01*
X102641904Y-85680961D01*
X102601246Y-85546913D01*
X102481037Y-85292580D01*
X102313519Y-85066586D01*
X102105131Y-84877615D01*
X101913318Y-84762579D01*
X102051101Y-84688932D01*
X102269608Y-84509608D01*
X102448932Y-84291101D01*
X102582182Y-84041808D01*
X102664236Y-83771309D01*
X102691943Y-83490000D01*
X102664236Y-83208691D01*
X102582182Y-82938192D01*
X102448932Y-82688899D01*
X102269608Y-82470392D01*
X102051101Y-82291068D01*
X101918142Y-82220000D01*
X102051101Y-82148932D01*
X102269608Y-81969608D01*
X102448932Y-81751101D01*
X102582182Y-81501808D01*
X102664236Y-81231309D01*
X102691943Y-80950000D01*
X102664236Y-80668691D01*
X102582182Y-80398192D01*
X102448932Y-80148899D01*
X102269608Y-79930392D01*
X102051101Y-79751068D01*
X101988840Y-79717789D01*
X101999003Y-79684286D01*
X102003942Y-79634139D01*
X102051101Y-79608932D01*
X102269608Y-79429608D01*
X102448932Y-79211101D01*
X102582182Y-78961808D01*
X102664236Y-78691309D01*
X102691943Y-78410000D01*
X102664236Y-78128691D01*
X102625350Y-78000500D01*
X103720399Y-78000500D01*
X107180901Y-81461003D01*
G36*
X102822401Y-89621103D02*
G01*
X102822400Y-113745078D01*
X102818724Y-113782400D01*
X102822400Y-113819722D01*
X102822400Y-113819732D01*
X102833397Y-113931385D01*
X102876854Y-114074646D01*
X102947426Y-114206676D01*
X102958361Y-114220000D01*
X103042399Y-114322401D01*
X103071403Y-114346204D01*
X103350466Y-114625267D01*
X103192510Y-114656686D01*
X102938273Y-114761995D01*
X102709465Y-114914880D01*
X102514880Y-115109465D01*
X102361995Y-115338273D01*
X102256686Y-115592510D01*
X102203000Y-115862408D01*
X102203000Y-116137592D01*
X102256686Y-116407490D01*
X102361995Y-116661727D01*
X102514880Y-116890535D01*
X102709465Y-117085120D01*
X102938273Y-117238005D01*
X102967231Y-117250000D01*
X102938273Y-117261995D01*
X102709465Y-117414880D01*
X102559345Y-117565000D01*
X97187590Y-117565000D01*
X95243930Y-115621341D01*
X95214644Y-115585656D01*
X95072272Y-115468814D01*
X94909840Y-115381993D01*
X94733592Y-115328529D01*
X94674974Y-115322756D01*
X94639502Y-115205820D01*
X94580537Y-115095506D01*
X94501185Y-114998815D01*
X94404494Y-114919463D01*
X94294180Y-114860498D01*
X94174482Y-114824188D01*
X94156518Y-114822419D01*
X94269608Y-114729608D01*
X94448932Y-114511101D01*
X94582182Y-114261808D01*
X94664236Y-113991309D01*
X94691943Y-113710000D01*
X94664236Y-113428691D01*
X94582182Y-113158192D01*
X94448932Y-112908899D01*
X94373643Y-112817158D01*
X101761004Y-105429798D01*
X101790001Y-105406001D01*
X101884974Y-105290276D01*
X101955546Y-105158247D01*
X101999003Y-105014986D01*
X102010000Y-104903333D01*
X102010000Y-104903324D01*
X102013676Y-104866001D01*
X102010000Y-104828678D01*
X102010000Y-102490901D01*
X102051101Y-102468932D01*
X102269608Y-102289608D01*
X102448932Y-102071101D01*
X102582182Y-101821808D01*
X102664236Y-101551309D01*
X102691943Y-101270000D01*
X102664236Y-100988691D01*
X102582182Y-100718192D01*
X102448932Y-100468899D01*
X102269608Y-100250392D01*
X102051101Y-100071068D01*
X101918142Y-100000000D01*
X102051101Y-99928932D01*
X102269608Y-99749608D01*
X102448932Y-99531101D01*
X102582182Y-99281808D01*
X102664236Y-99011309D01*
X102691943Y-98730000D01*
X102664236Y-98448691D01*
X102582182Y-98178192D01*
X102448932Y-97928899D01*
X102269608Y-97710392D01*
X102051101Y-97531068D01*
X101918142Y-97460000D01*
X102051101Y-97388932D01*
X102269608Y-97209608D01*
X102448932Y-96991101D01*
X102582182Y-96741808D01*
X102664236Y-96471309D01*
X102691943Y-96190000D01*
X102664236Y-95908691D01*
X102582182Y-95638192D01*
X102448932Y-95388899D01*
X102269608Y-95170392D01*
X102051101Y-94991068D01*
X101918142Y-94920000D01*
X102051101Y-94848932D01*
X102269608Y-94669608D01*
X102448932Y-94451101D01*
X102582182Y-94201808D01*
X102664236Y-93931309D01*
X102691943Y-93650000D01*
X102664236Y-93368691D01*
X102582182Y-93098192D01*
X102448932Y-92848899D01*
X102269608Y-92630392D01*
X102051101Y-92451068D01*
X101918142Y-92380000D01*
X102051101Y-92308932D01*
X102269608Y-92129608D01*
X102448932Y-91911101D01*
X102582182Y-91661808D01*
X102664236Y-91391309D01*
X102691943Y-91110000D01*
X102664236Y-90828691D01*
X102582182Y-90558192D01*
X102448932Y-90308899D01*
X102269608Y-90090392D01*
X102051101Y-89911068D01*
X101988840Y-89877789D01*
X101999003Y-89844286D01*
X102003942Y-89794139D01*
X102051101Y-89768932D01*
X102269608Y-89589608D01*
X102448932Y-89371101D01*
X102491939Y-89290641D01*
X102822401Y-89621103D01*
X102822401Y-89621103D01*
G37*
X102822401Y-89621103D02*
X102822400Y-113745078D01*
X102818724Y-113782400D01*
X102822400Y-113819722D01*
X102822400Y-113819732D01*
X102833397Y-113931385D01*
X102876854Y-114074646D01*
X102947426Y-114206676D01*
X102958361Y-114220000D01*
X103042399Y-114322401D01*
X103071403Y-114346204D01*
X103350466Y-114625267D01*
X103192510Y-114656686D01*
X102938273Y-114761995D01*
X102709465Y-114914880D01*
X102514880Y-115109465D01*
X102361995Y-115338273D01*
X102256686Y-115592510D01*
X102203000Y-115862408D01*
X102203000Y-116137592D01*
X102256686Y-116407490D01*
X102361995Y-116661727D01*
X102514880Y-116890535D01*
X102709465Y-117085120D01*
X102938273Y-117238005D01*
X102967231Y-117250000D01*
X102938273Y-117261995D01*
X102709465Y-117414880D01*
X102559345Y-117565000D01*
X97187590Y-117565000D01*
X95243930Y-115621341D01*
X95214644Y-115585656D01*
X95072272Y-115468814D01*
X94909840Y-115381993D01*
X94733592Y-115328529D01*
X94674974Y-115322756D01*
X94639502Y-115205820D01*
X94580537Y-115095506D01*
X94501185Y-114998815D01*
X94404494Y-114919463D01*
X94294180Y-114860498D01*
X94174482Y-114824188D01*
X94156518Y-114822419D01*
X94269608Y-114729608D01*
X94448932Y-114511101D01*
X94582182Y-114261808D01*
X94664236Y-113991309D01*
X94691943Y-113710000D01*
X94664236Y-113428691D01*
X94582182Y-113158192D01*
X94448932Y-112908899D01*
X94373643Y-112817158D01*
X101761004Y-105429798D01*
X101790001Y-105406001D01*
X101884974Y-105290276D01*
X101955546Y-105158247D01*
X101999003Y-105014986D01*
X102010000Y-104903333D01*
X102010000Y-104903324D01*
X102013676Y-104866001D01*
X102010000Y-104828678D01*
X102010000Y-102490901D01*
X102051101Y-102468932D01*
X102269608Y-102289608D01*
X102448932Y-102071101D01*
X102582182Y-101821808D01*
X102664236Y-101551309D01*
X102691943Y-101270000D01*
X102664236Y-100988691D01*
X102582182Y-100718192D01*
X102448932Y-100468899D01*
X102269608Y-100250392D01*
X102051101Y-100071068D01*
X101918142Y-100000000D01*
X102051101Y-99928932D01*
X102269608Y-99749608D01*
X102448932Y-99531101D01*
X102582182Y-99281808D01*
X102664236Y-99011309D01*
X102691943Y-98730000D01*
X102664236Y-98448691D01*
X102582182Y-98178192D01*
X102448932Y-97928899D01*
X102269608Y-97710392D01*
X102051101Y-97531068D01*
X101918142Y-97460000D01*
X102051101Y-97388932D01*
X102269608Y-97209608D01*
X102448932Y-96991101D01*
X102582182Y-96741808D01*
X102664236Y-96471309D01*
X102691943Y-96190000D01*
X102664236Y-95908691D01*
X102582182Y-95638192D01*
X102448932Y-95388899D01*
X102269608Y-95170392D01*
X102051101Y-94991068D01*
X101918142Y-94920000D01*
X102051101Y-94848932D01*
X102269608Y-94669608D01*
X102448932Y-94451101D01*
X102582182Y-94201808D01*
X102664236Y-93931309D01*
X102691943Y-93650000D01*
X102664236Y-93368691D01*
X102582182Y-93098192D01*
X102448932Y-92848899D01*
X102269608Y-92630392D01*
X102051101Y-92451068D01*
X101918142Y-92380000D01*
X102051101Y-92308932D01*
X102269608Y-92129608D01*
X102448932Y-91911101D01*
X102582182Y-91661808D01*
X102664236Y-91391309D01*
X102691943Y-91110000D01*
X102664236Y-90828691D01*
X102582182Y-90558192D01*
X102448932Y-90308899D01*
X102269608Y-90090392D01*
X102051101Y-89911068D01*
X101988840Y-89877789D01*
X101999003Y-89844286D01*
X102003942Y-89794139D01*
X102051101Y-89768932D01*
X102269608Y-89589608D01*
X102448932Y-89371101D01*
X102491939Y-89290641D01*
X102822401Y-89621103D01*
G36*
X127595000Y-90735590D02*
G01*
X127595000Y-90891335D01*
X127650147Y-91168574D01*
X127758320Y-91429727D01*
X127915363Y-91664759D01*
X128115241Y-91864637D01*
X128350273Y-92021680D01*
X128611426Y-92129853D01*
X128888665Y-92185000D01*
X129142711Y-92185000D01*
X130043717Y-93086006D01*
X129951068Y-93198899D01*
X129817818Y-93448192D01*
X129735764Y-93718691D01*
X129708057Y-94000000D01*
X129735764Y-94281309D01*
X129817818Y-94551808D01*
X129951068Y-94801101D01*
X130130392Y-95019608D01*
X130348899Y-95198932D01*
X130411160Y-95232211D01*
X130400997Y-95265714D01*
X130396058Y-95315861D01*
X130348899Y-95341068D01*
X130130392Y-95520392D01*
X129951068Y-95738899D01*
X129817818Y-95988192D01*
X129735764Y-96258691D01*
X129708057Y-96540000D01*
X129735764Y-96821309D01*
X129817818Y-97091808D01*
X129951068Y-97341101D01*
X130130392Y-97559608D01*
X130348899Y-97738932D01*
X130390000Y-97760901D01*
X130390001Y-97859099D01*
X130348899Y-97881068D01*
X130130392Y-98060392D01*
X129951068Y-98278899D01*
X129817818Y-98528192D01*
X129735764Y-98798691D01*
X129708057Y-99080000D01*
X129735764Y-99361309D01*
X129817818Y-99631808D01*
X129951068Y-99881101D01*
X130130392Y-100099608D01*
X130348899Y-100278932D01*
X130481858Y-100350000D01*
X130348899Y-100421068D01*
X130130392Y-100600392D01*
X129951068Y-100818899D01*
X129817818Y-101068192D01*
X129735764Y-101338691D01*
X129708057Y-101620000D01*
X129735764Y-101901309D01*
X129817818Y-102171808D01*
X129951068Y-102421101D01*
X130130392Y-102639608D01*
X130348899Y-102818932D01*
X130481858Y-102890000D01*
X130348899Y-102961068D01*
X130130392Y-103140392D01*
X129951068Y-103358899D01*
X129817818Y-103608192D01*
X129735764Y-103878691D01*
X129708057Y-104160000D01*
X129735764Y-104441309D01*
X129817818Y-104711808D01*
X129951068Y-104961101D01*
X130130392Y-105179608D01*
X130348899Y-105358932D01*
X130390001Y-105380901D01*
X130390000Y-105479099D01*
X130348899Y-105501068D01*
X130130392Y-105680392D01*
X129951068Y-105898899D01*
X129817818Y-106148192D01*
X129735764Y-106418691D01*
X129708057Y-106700000D01*
X129735764Y-106981309D01*
X129817818Y-107251808D01*
X129951068Y-107501101D01*
X130130392Y-107719608D01*
X130348899Y-107898932D01*
X130411160Y-107932211D01*
X130400997Y-107965714D01*
X130396058Y-108015861D01*
X130348899Y-108041068D01*
X130130392Y-108220392D01*
X129951068Y-108438899D01*
X129817818Y-108688192D01*
X129735764Y-108958691D01*
X129708057Y-109240000D01*
X129735764Y-109521309D01*
X129817818Y-109791808D01*
X129951068Y-110041101D01*
X130130392Y-110259608D01*
X130348899Y-110438932D01*
X130598192Y-110572182D01*
X130868691Y-110654236D01*
X131079508Y-110675000D01*
X131198699Y-110675000D01*
X127133427Y-114740272D01*
X127100000Y-114722405D01*
X127100000Y-110458322D01*
X127103676Y-110420999D01*
X127100000Y-110383676D01*
X127100000Y-110383667D01*
X127089003Y-110272014D01*
X127045546Y-110128753D01*
X126974974Y-109996724D01*
X126946626Y-109962182D01*
X126903799Y-109909996D01*
X126903795Y-109909992D01*
X126880001Y-109880999D01*
X126851009Y-109857206D01*
X124623442Y-107629641D01*
X124728932Y-107501101D01*
X124862182Y-107251808D01*
X124944236Y-106981309D01*
X124971943Y-106700000D01*
X124944236Y-106418691D01*
X124862182Y-106148192D01*
X124728932Y-105898899D01*
X124653643Y-105807159D01*
X125166304Y-105294498D01*
X125195301Y-105270701D01*
X125290274Y-105154976D01*
X125360846Y-105022947D01*
X125404303Y-104879686D01*
X125415300Y-104768033D01*
X125415300Y-104768024D01*
X125418976Y-104730701D01*
X125415300Y-104693378D01*
X125415300Y-98546523D01*
X125418976Y-98509200D01*
X125415300Y-98471877D01*
X125415300Y-98471867D01*
X125404303Y-98360214D01*
X125360846Y-98216953D01*
X125290274Y-98084924D01*
X125195301Y-97969199D01*
X125166303Y-97945401D01*
X124653688Y-97432786D01*
X124728932Y-97341101D01*
X124862182Y-97091808D01*
X124944236Y-96821309D01*
X124971943Y-96540000D01*
X124944236Y-96258691D01*
X124862182Y-95988192D01*
X124728932Y-95738899D01*
X124549608Y-95520392D01*
X124436518Y-95427581D01*
X124454482Y-95425812D01*
X124574180Y-95389502D01*
X124684494Y-95330537D01*
X124781185Y-95251185D01*
X124860537Y-95154494D01*
X124919502Y-95044180D01*
X124955812Y-94924482D01*
X124968072Y-94800000D01*
X124968072Y-93200000D01*
X124955812Y-93075518D01*
X124919502Y-92955820D01*
X124860537Y-92845506D01*
X124781185Y-92748815D01*
X124684494Y-92669463D01*
X124574180Y-92610498D01*
X124454482Y-92574188D01*
X124330000Y-92561928D01*
X122793200Y-92561928D01*
X122793200Y-85933789D01*
X127595000Y-90735590D01*
X127595000Y-90735590D01*
G37*
X127595000Y-90735590D02*
X127595000Y-90891335D01*
X127650147Y-91168574D01*
X127758320Y-91429727D01*
X127915363Y-91664759D01*
X128115241Y-91864637D01*
X128350273Y-92021680D01*
X128611426Y-92129853D01*
X128888665Y-92185000D01*
X129142711Y-92185000D01*
X130043717Y-93086006D01*
X129951068Y-93198899D01*
X129817818Y-93448192D01*
X129735764Y-93718691D01*
X129708057Y-94000000D01*
X129735764Y-94281309D01*
X129817818Y-94551808D01*
X129951068Y-94801101D01*
X130130392Y-95019608D01*
X130348899Y-95198932D01*
X130411160Y-95232211D01*
X130400997Y-95265714D01*
X130396058Y-95315861D01*
X130348899Y-95341068D01*
X130130392Y-95520392D01*
X129951068Y-95738899D01*
X129817818Y-95988192D01*
X129735764Y-96258691D01*
X129708057Y-96540000D01*
X129735764Y-96821309D01*
X129817818Y-97091808D01*
X129951068Y-97341101D01*
X130130392Y-97559608D01*
X130348899Y-97738932D01*
X130390000Y-97760901D01*
X130390001Y-97859099D01*
X130348899Y-97881068D01*
X130130392Y-98060392D01*
X129951068Y-98278899D01*
X129817818Y-98528192D01*
X129735764Y-98798691D01*
X129708057Y-99080000D01*
X129735764Y-99361309D01*
X129817818Y-99631808D01*
X129951068Y-99881101D01*
X130130392Y-100099608D01*
X130348899Y-100278932D01*
X130481858Y-100350000D01*
X130348899Y-100421068D01*
X130130392Y-100600392D01*
X129951068Y-100818899D01*
X129817818Y-101068192D01*
X129735764Y-101338691D01*
X129708057Y-101620000D01*
X129735764Y-101901309D01*
X129817818Y-102171808D01*
X129951068Y-102421101D01*
X130130392Y-102639608D01*
X130348899Y-102818932D01*
X130481858Y-102890000D01*
X130348899Y-102961068D01*
X130130392Y-103140392D01*
X129951068Y-103358899D01*
X129817818Y-103608192D01*
X129735764Y-103878691D01*
X129708057Y-104160000D01*
X129735764Y-104441309D01*
X129817818Y-104711808D01*
X129951068Y-104961101D01*
X130130392Y-105179608D01*
X130348899Y-105358932D01*
X130390001Y-105380901D01*
X130390000Y-105479099D01*
X130348899Y-105501068D01*
X130130392Y-105680392D01*
X129951068Y-105898899D01*
X129817818Y-106148192D01*
X129735764Y-106418691D01*
X129708057Y-106700000D01*
X129735764Y-106981309D01*
X129817818Y-107251808D01*
X129951068Y-107501101D01*
X130130392Y-107719608D01*
X130348899Y-107898932D01*
X130411160Y-107932211D01*
X130400997Y-107965714D01*
X130396058Y-108015861D01*
X130348899Y-108041068D01*
X130130392Y-108220392D01*
X129951068Y-108438899D01*
X129817818Y-108688192D01*
X129735764Y-108958691D01*
X129708057Y-109240000D01*
X129735764Y-109521309D01*
X129817818Y-109791808D01*
X129951068Y-110041101D01*
X130130392Y-110259608D01*
X130348899Y-110438932D01*
X130598192Y-110572182D01*
X130868691Y-110654236D01*
X131079508Y-110675000D01*
X131198699Y-110675000D01*
X127133427Y-114740272D01*
X127100000Y-114722405D01*
X127100000Y-110458322D01*
X127103676Y-110420999D01*
X127100000Y-110383676D01*
X127100000Y-110383667D01*
X127089003Y-110272014D01*
X127045546Y-110128753D01*
X126974974Y-109996724D01*
X126946626Y-109962182D01*
X126903799Y-109909996D01*
X126903795Y-109909992D01*
X126880001Y-109880999D01*
X126851009Y-109857206D01*
X124623442Y-107629641D01*
X124728932Y-107501101D01*
X124862182Y-107251808D01*
X124944236Y-106981309D01*
X124971943Y-106700000D01*
X124944236Y-106418691D01*
X124862182Y-106148192D01*
X124728932Y-105898899D01*
X124653643Y-105807159D01*
X125166304Y-105294498D01*
X125195301Y-105270701D01*
X125290274Y-105154976D01*
X125360846Y-105022947D01*
X125404303Y-104879686D01*
X125415300Y-104768033D01*
X125415300Y-104768024D01*
X125418976Y-104730701D01*
X125415300Y-104693378D01*
X125415300Y-98546523D01*
X125418976Y-98509200D01*
X125415300Y-98471877D01*
X125415300Y-98471867D01*
X125404303Y-98360214D01*
X125360846Y-98216953D01*
X125290274Y-98084924D01*
X125195301Y-97969199D01*
X125166303Y-97945401D01*
X124653688Y-97432786D01*
X124728932Y-97341101D01*
X124862182Y-97091808D01*
X124944236Y-96821309D01*
X124971943Y-96540000D01*
X124944236Y-96258691D01*
X124862182Y-95988192D01*
X124728932Y-95738899D01*
X124549608Y-95520392D01*
X124436518Y-95427581D01*
X124454482Y-95425812D01*
X124574180Y-95389502D01*
X124684494Y-95330537D01*
X124781185Y-95251185D01*
X124860537Y-95154494D01*
X124919502Y-95044180D01*
X124955812Y-94924482D01*
X124968072Y-94800000D01*
X124968072Y-93200000D01*
X124955812Y-93075518D01*
X124919502Y-92955820D01*
X124860537Y-92845506D01*
X124781185Y-92748815D01*
X124684494Y-92669463D01*
X124574180Y-92610498D01*
X124454482Y-92574188D01*
X124330000Y-92561928D01*
X122793200Y-92561928D01*
X122793200Y-85933789D01*
X127595000Y-90735590D01*
G36*
X85594200Y-84262877D02*
G01*
X85590524Y-84300200D01*
X85594200Y-84337522D01*
X85594200Y-84337532D01*
X85605197Y-84449185D01*
X85636588Y-84552668D01*
X85648654Y-84592446D01*
X85719226Y-84724476D01*
X85757966Y-84771680D01*
X85814199Y-84840201D01*
X85843202Y-84864003D01*
X86366357Y-85387159D01*
X86291068Y-85478899D01*
X86157818Y-85728192D01*
X86075764Y-85998691D01*
X86048057Y-86280000D01*
X86075764Y-86561309D01*
X86157818Y-86831808D01*
X86291068Y-87081101D01*
X86405122Y-87220076D01*
X84423898Y-89201301D01*
X84394900Y-89225099D01*
X84371102Y-89254097D01*
X84371101Y-89254098D01*
X84299926Y-89340824D01*
X84229354Y-89472854D01*
X84221185Y-89499785D01*
X84185897Y-89616114D01*
X84174900Y-89727767D01*
X84174900Y-89727778D01*
X84171224Y-89765100D01*
X84174900Y-89802422D01*
X84174900Y-90114498D01*
X73491277Y-100798122D01*
X73448932Y-100718899D01*
X73330415Y-100574486D01*
X73904902Y-99999999D01*
X73933901Y-99976201D01*
X73980662Y-99919223D01*
X74028874Y-99860477D01*
X74099446Y-99728447D01*
X74112261Y-99686201D01*
X74142903Y-99585186D01*
X74153900Y-99473533D01*
X74153900Y-99473523D01*
X74157576Y-99436200D01*
X74153900Y-99398878D01*
X74153900Y-97621223D01*
X74157576Y-97583900D01*
X74153900Y-97546577D01*
X74153900Y-97546567D01*
X74142903Y-97434914D01*
X74099446Y-97291653D01*
X74061000Y-97219726D01*
X74028874Y-97159623D01*
X73957699Y-97072897D01*
X73933901Y-97043899D01*
X73904904Y-97020102D01*
X73650708Y-96765906D01*
X73664236Y-96721309D01*
X73691943Y-96440000D01*
X73664236Y-96158691D01*
X73582182Y-95888192D01*
X73448932Y-95638899D01*
X73269608Y-95420392D01*
X73051101Y-95241068D01*
X72918142Y-95170000D01*
X73051101Y-95098932D01*
X73269608Y-94919608D01*
X73448932Y-94701101D01*
X73582182Y-94451808D01*
X73664236Y-94181309D01*
X73691943Y-93900000D01*
X73664236Y-93618691D01*
X73582182Y-93348192D01*
X73448932Y-93098899D01*
X73269608Y-92880392D01*
X73051101Y-92701068D01*
X72918142Y-92630000D01*
X73051101Y-92558932D01*
X73269608Y-92379608D01*
X73448932Y-92161101D01*
X73582182Y-91911808D01*
X73664236Y-91641309D01*
X73691943Y-91360000D01*
X73664236Y-91078691D01*
X73582182Y-90808192D01*
X73448932Y-90558899D01*
X73269608Y-90340392D01*
X73051101Y-90161068D01*
X73003942Y-90135861D01*
X72999003Y-90085714D01*
X72988840Y-90052211D01*
X73051101Y-90018932D01*
X73269608Y-89839608D01*
X73448932Y-89621101D01*
X73470901Y-89580000D01*
X77653678Y-89580000D01*
X77691000Y-89583676D01*
X77728322Y-89580000D01*
X77728333Y-89580000D01*
X77839986Y-89569003D01*
X77983247Y-89525546D01*
X78115276Y-89454974D01*
X78231001Y-89360001D01*
X78254804Y-89330997D01*
X85594200Y-81991602D01*
X85594200Y-84262877D01*
X85594200Y-84262877D01*
G37*
X85594200Y-84262877D02*
X85590524Y-84300200D01*
X85594200Y-84337522D01*
X85594200Y-84337532D01*
X85605197Y-84449185D01*
X85636588Y-84552668D01*
X85648654Y-84592446D01*
X85719226Y-84724476D01*
X85757966Y-84771680D01*
X85814199Y-84840201D01*
X85843202Y-84864003D01*
X86366357Y-85387159D01*
X86291068Y-85478899D01*
X86157818Y-85728192D01*
X86075764Y-85998691D01*
X86048057Y-86280000D01*
X86075764Y-86561309D01*
X86157818Y-86831808D01*
X86291068Y-87081101D01*
X86405122Y-87220076D01*
X84423898Y-89201301D01*
X84394900Y-89225099D01*
X84371102Y-89254097D01*
X84371101Y-89254098D01*
X84299926Y-89340824D01*
X84229354Y-89472854D01*
X84221185Y-89499785D01*
X84185897Y-89616114D01*
X84174900Y-89727767D01*
X84174900Y-89727778D01*
X84171224Y-89765100D01*
X84174900Y-89802422D01*
X84174900Y-90114498D01*
X73491277Y-100798122D01*
X73448932Y-100718899D01*
X73330415Y-100574486D01*
X73904902Y-99999999D01*
X73933901Y-99976201D01*
X73980662Y-99919223D01*
X74028874Y-99860477D01*
X74099446Y-99728447D01*
X74112261Y-99686201D01*
X74142903Y-99585186D01*
X74153900Y-99473533D01*
X74153900Y-99473523D01*
X74157576Y-99436200D01*
X74153900Y-99398878D01*
X74153900Y-97621223D01*
X74157576Y-97583900D01*
X74153900Y-97546577D01*
X74153900Y-97546567D01*
X74142903Y-97434914D01*
X74099446Y-97291653D01*
X74061000Y-97219726D01*
X74028874Y-97159623D01*
X73957699Y-97072897D01*
X73933901Y-97043899D01*
X73904904Y-97020102D01*
X73650708Y-96765906D01*
X73664236Y-96721309D01*
X73691943Y-96440000D01*
X73664236Y-96158691D01*
X73582182Y-95888192D01*
X73448932Y-95638899D01*
X73269608Y-95420392D01*
X73051101Y-95241068D01*
X72918142Y-95170000D01*
X73051101Y-95098932D01*
X73269608Y-94919608D01*
X73448932Y-94701101D01*
X73582182Y-94451808D01*
X73664236Y-94181309D01*
X73691943Y-93900000D01*
X73664236Y-93618691D01*
X73582182Y-93348192D01*
X73448932Y-93098899D01*
X73269608Y-92880392D01*
X73051101Y-92701068D01*
X72918142Y-92630000D01*
X73051101Y-92558932D01*
X73269608Y-92379608D01*
X73448932Y-92161101D01*
X73582182Y-91911808D01*
X73664236Y-91641309D01*
X73691943Y-91360000D01*
X73664236Y-91078691D01*
X73582182Y-90808192D01*
X73448932Y-90558899D01*
X73269608Y-90340392D01*
X73051101Y-90161068D01*
X73003942Y-90135861D01*
X72999003Y-90085714D01*
X72988840Y-90052211D01*
X73051101Y-90018932D01*
X73269608Y-89839608D01*
X73448932Y-89621101D01*
X73470901Y-89580000D01*
X77653678Y-89580000D01*
X77691000Y-89583676D01*
X77728322Y-89580000D01*
X77728333Y-89580000D01*
X77839986Y-89569003D01*
X77983247Y-89525546D01*
X78115276Y-89454974D01*
X78231001Y-89360001D01*
X78254804Y-89330997D01*
X85594200Y-81991602D01*
X85594200Y-84262877D01*
G36*
X99373518Y-80252346D02*
G01*
X99361024Y-80379200D01*
X99364701Y-80416532D01*
X99364700Y-86536977D01*
X99361024Y-86574300D01*
X99364700Y-86611622D01*
X99364700Y-86611632D01*
X99375697Y-86723285D01*
X99402941Y-86813097D01*
X99419154Y-86866546D01*
X99489726Y-86998576D01*
X99499101Y-87009999D01*
X99584699Y-87114301D01*
X99613702Y-87138103D01*
X100138257Y-87662659D01*
X100051068Y-87768899D01*
X99917818Y-88018192D01*
X99835764Y-88288691D01*
X99808057Y-88570000D01*
X99835764Y-88851309D01*
X99917818Y-89121808D01*
X100051068Y-89371101D01*
X100126312Y-89462786D01*
X94452857Y-95136242D01*
X94448932Y-95128899D01*
X94269608Y-94910392D01*
X94051101Y-94731068D01*
X93801808Y-94597818D01*
X93531309Y-94515764D01*
X93320492Y-94495000D01*
X93179508Y-94495000D01*
X92968691Y-94515764D01*
X92698192Y-94597818D01*
X92448899Y-94731068D01*
X92230392Y-94910392D01*
X92051068Y-95128899D01*
X91917818Y-95378192D01*
X91835764Y-95648691D01*
X91808057Y-95930000D01*
X91835764Y-96211309D01*
X91849292Y-96255906D01*
X91285600Y-96819599D01*
X91285600Y-91419089D01*
X95711987Y-86992702D01*
X96436903Y-86992702D01*
X96508486Y-87236671D01*
X96763996Y-87357571D01*
X97038184Y-87426300D01*
X97320512Y-87440217D01*
X97600130Y-87398787D01*
X97866292Y-87303603D01*
X97991514Y-87236671D01*
X98063097Y-86992702D01*
X97250000Y-86179605D01*
X96436903Y-86992702D01*
X95711987Y-86992702D01*
X95995859Y-86708830D01*
X96013329Y-86741514D01*
X96257298Y-86813097D01*
X97070395Y-86000000D01*
X97429605Y-86000000D01*
X98242702Y-86813097D01*
X98486671Y-86741514D01*
X98607571Y-86486004D01*
X98676300Y-86211816D01*
X98690217Y-85929488D01*
X98648787Y-85649870D01*
X98553603Y-85383708D01*
X98486671Y-85258486D01*
X98242702Y-85186903D01*
X97429605Y-86000000D01*
X97070395Y-86000000D01*
X97056253Y-85985858D01*
X97235858Y-85806253D01*
X97250000Y-85820395D01*
X98063097Y-85007298D01*
X97991514Y-84763329D01*
X97962659Y-84749676D01*
X98164759Y-84614637D01*
X98364637Y-84414759D01*
X98521680Y-84179727D01*
X98629853Y-83918574D01*
X98685000Y-83641335D01*
X98685000Y-83358665D01*
X98629853Y-83081426D01*
X98521680Y-82820273D01*
X98364637Y-82585241D01*
X98164759Y-82385363D01*
X97929727Y-82228320D01*
X97668574Y-82120147D01*
X97531016Y-82092785D01*
X99373743Y-80250058D01*
X99373518Y-80252346D01*
X99373518Y-80252346D01*
G37*
X99373518Y-80252346D02*
X99361024Y-80379200D01*
X99364701Y-80416532D01*
X99364700Y-86536977D01*
X99361024Y-86574300D01*
X99364700Y-86611622D01*
X99364700Y-86611632D01*
X99375697Y-86723285D01*
X99402941Y-86813097D01*
X99419154Y-86866546D01*
X99489726Y-86998576D01*
X99499101Y-87009999D01*
X99584699Y-87114301D01*
X99613702Y-87138103D01*
X100138257Y-87662659D01*
X100051068Y-87768899D01*
X99917818Y-88018192D01*
X99835764Y-88288691D01*
X99808057Y-88570000D01*
X99835764Y-88851309D01*
X99917818Y-89121808D01*
X100051068Y-89371101D01*
X100126312Y-89462786D01*
X94452857Y-95136242D01*
X94448932Y-95128899D01*
X94269608Y-94910392D01*
X94051101Y-94731068D01*
X93801808Y-94597818D01*
X93531309Y-94515764D01*
X93320492Y-94495000D01*
X93179508Y-94495000D01*
X92968691Y-94515764D01*
X92698192Y-94597818D01*
X92448899Y-94731068D01*
X92230392Y-94910392D01*
X92051068Y-95128899D01*
X91917818Y-95378192D01*
X91835764Y-95648691D01*
X91808057Y-95930000D01*
X91835764Y-96211309D01*
X91849292Y-96255906D01*
X91285600Y-96819599D01*
X91285600Y-91419089D01*
X95711987Y-86992702D01*
X96436903Y-86992702D01*
X96508486Y-87236671D01*
X96763996Y-87357571D01*
X97038184Y-87426300D01*
X97320512Y-87440217D01*
X97600130Y-87398787D01*
X97866292Y-87303603D01*
X97991514Y-87236671D01*
X98063097Y-86992702D01*
X97250000Y-86179605D01*
X96436903Y-86992702D01*
X95711987Y-86992702D01*
X95995859Y-86708830D01*
X96013329Y-86741514D01*
X96257298Y-86813097D01*
X97070395Y-86000000D01*
X97429605Y-86000000D01*
X98242702Y-86813097D01*
X98486671Y-86741514D01*
X98607571Y-86486004D01*
X98676300Y-86211816D01*
X98690217Y-85929488D01*
X98648787Y-85649870D01*
X98553603Y-85383708D01*
X98486671Y-85258486D01*
X98242702Y-85186903D01*
X97429605Y-86000000D01*
X97070395Y-86000000D01*
X97056253Y-85985858D01*
X97235858Y-85806253D01*
X97250000Y-85820395D01*
X98063097Y-85007298D01*
X97991514Y-84763329D01*
X97962659Y-84749676D01*
X98164759Y-84614637D01*
X98364637Y-84414759D01*
X98521680Y-84179727D01*
X98629853Y-83918574D01*
X98685000Y-83641335D01*
X98685000Y-83358665D01*
X98629853Y-83081426D01*
X98521680Y-82820273D01*
X98364637Y-82585241D01*
X98164759Y-82385363D01*
X97929727Y-82228320D01*
X97668574Y-82120147D01*
X97531016Y-82092785D01*
X99373743Y-80250058D01*
X99373518Y-80252346D01*
G36*
X131723748Y-90735858D02*
G01*
X131709605Y-90750000D01*
X131723748Y-90764143D01*
X131544143Y-90943748D01*
X131530000Y-90929605D01*
X131515858Y-90943748D01*
X131336253Y-90764143D01*
X131350395Y-90750000D01*
X131336253Y-90735858D01*
X131515858Y-90556253D01*
X131530000Y-90570395D01*
X131544143Y-90556253D01*
X131723748Y-90735858D01*
X131723748Y-90735858D01*
G37*
X131723748Y-90735858D02*
X131709605Y-90750000D01*
X131723748Y-90764143D01*
X131544143Y-90943748D01*
X131530000Y-90929605D01*
X131515858Y-90943748D01*
X131336253Y-90764143D01*
X131350395Y-90750000D01*
X131336253Y-90735858D01*
X131515858Y-90556253D01*
X131530000Y-90570395D01*
X131544143Y-90556253D01*
X131723748Y-90735858D01*
G36*
X117167000Y-76453000D02*
G01*
X117187000Y-76453000D01*
X117187000Y-76707000D01*
X117167000Y-76707000D01*
X117167000Y-77900814D01*
X117396891Y-78021481D01*
X117671252Y-77924157D01*
X117921355Y-77775178D01*
X118137588Y-77580269D01*
X118311641Y-77346920D01*
X118391401Y-77179467D01*
X118391400Y-80660399D01*
X116523000Y-78791999D01*
X116523000Y-77964686D01*
X116683109Y-78021481D01*
X116913000Y-77900814D01*
X116913000Y-76707000D01*
X116893000Y-76707000D01*
X116893000Y-76453000D01*
X116913000Y-76453000D01*
X116913000Y-76433000D01*
X117167000Y-76433000D01*
X117167000Y-76453000D01*
X117167000Y-76453000D01*
G37*
X117167000Y-76453000D02*
X117187000Y-76453000D01*
X117187000Y-76707000D01*
X117167000Y-76707000D01*
X117167000Y-77900814D01*
X117396891Y-78021481D01*
X117671252Y-77924157D01*
X117921355Y-77775178D01*
X118137588Y-77580269D01*
X118311641Y-77346920D01*
X118391401Y-77179467D01*
X118391400Y-80660399D01*
X116523000Y-78791999D01*
X116523000Y-77964686D01*
X116683109Y-78021481D01*
X116913000Y-77900814D01*
X116913000Y-76707000D01*
X116893000Y-76707000D01*
X116893000Y-76453000D01*
X116913000Y-76453000D01*
X116913000Y-76433000D01*
X117167000Y-76433000D01*
X117167000Y-76453000D01*
M02*
